<svg width="98" height="99" viewBox="0 0 98 99" fill="none" xmlns="http://www.w3.org/2000/svg">
<g clip-path="url(#clip0)">
<path d="M15.9719 75.8465V23.3304C15.9719 16.1196 19.6752 9.83368 25.3048 6.52251C25.0212 5.75392 23.3659 4.03687 23.3659 4.03687C12.8953 4.03687 4.4071 12.6785 4.4071 23.3383V75.8383C4.4071 86.4982 12.8951 95.1398 23.3659 95.1398H32.6018C22.1608 95.1398 15.9719 86.5018 15.9719 75.8465Z" fill="#CEE1F2"/>
<path d="M49.7184 98.9999H23.3658C10.8212 98.9999 0.615356 88.6095 0.615356 75.8381V23.3382C0.615356 10.5669 10.8212 0.176514 23.3658 0.176514H24.5033C26.5975 0.176514 28.2951 1.90476 28.2951 4.0368C28.2951 6.16884 26.5975 7.89709 24.5033 7.89709H23.3658C15.0028 7.89709 8.19885 14.824 8.19885 23.3382V75.8381C8.19885 84.3524 15.0028 91.2793 23.3658 91.2793H49.7184C58.0815 91.2793 64.8854 84.3524 64.8854 75.8381V69.4687C64.8854 67.3366 66.583 65.6084 68.6772 65.6084C70.7713 65.6084 72.4689 67.3366 72.4689 69.4687V75.8381C72.4689 88.6095 62.2631 98.9999 49.7184 98.9999ZM39.2911 54.7901C40.2406 54.7901 41.2005 54.9831 42.091 55.4344C45.5553 57.1906 49.2978 58.0808 53.2129 58.0808H53.2258H72.562H72.5739C79.23 58.0808 85.4996 55.4715 90.2283 50.7333C94.9716 45.9804 97.619 39.6302 97.6829 32.8523C97.6831 32.8399 97.6831 32.8276 97.6831 32.8152V25.8847C97.743 19.0126 95.1737 12.5536 90.4471 7.69519C85.73 2.84687 79.4127 0.176514 72.6585 0.176514H53.3206C46.6123 0.176514 40.3037 2.86366 35.557 7.74287C30.8155 12.6167 28.2375 19.0583 28.2962 25.8827L28.2951 54.2203C28.2951 55.7818 29.2188 57.1895 30.6357 57.787C31.1052 57.9849 31.5975 58.081 32.0859 58.081C34.9306 58.081 36.6369 54.7901 39.2911 54.7901ZM35.8788 47.5374C35.8788 47.5374 35.8797 25.842 35.8795 25.8297C35.8348 21.0734 37.6336 16.5796 40.9451 13.1756C44.2566 9.77184 48.6516 7.89709 53.3206 7.89709H72.6585C77.3733 7.89709 81.7773 9.75485 85.059 13.1284C88.3548 16.5161 90.1449 21.0269 90.0998 25.8299C90.0996 25.8422 90.0996 32.7956 90.0996 32.7956C89.9987 42.4843 82.1417 50.3602 72.5719 50.3602C72.5696 50.3602 72.5662 50.3602 72.5637 50.3602H53.2239C53.2207 50.3602 53.218 50.3602 53.2148 50.3602C50.4813 50.3602 47.8757 49.742 45.4707 48.5231C43.5375 47.5432 41.46 47.0668 39.3986 47.0668C38.2096 47.0668 37.026 47.2253 35.8788 47.5374Z" fill="#213362"/>
<path d="M41.5663 77.7685C41.5663 80.4334 39.4442 82.5938 36.8266 82.5938C34.209 82.5938 32.0869 80.4334 32.0869 77.7685C32.0869 75.1035 34.209 72.9431 36.8266 72.9431C39.4442 72.9431 41.5663 75.1035 41.5663 77.7685ZM62.8949 43.7882C60.9082 43.7882 58.9219 43.1511 57.2641 41.8766C51.0231 37.0784 47.6604 31.2855 47.5391 25.1245C47.5385 25.0988 47.5383 25.0729 47.5383 25.0473C47.5383 19.6349 51.8332 15.2317 57.1125 15.2317C59.3024 15.2317 61.2986 15.937 62.8949 17.1394C64.4912 15.937 66.4874 15.2317 68.6773 15.2317C73.9566 15.2317 78.2515 19.6349 78.2515 25.0473C78.2515 25.0729 78.2513 25.0988 78.2507 25.1245C78.1294 31.2855 74.7667 37.0784 68.5257 41.8766C66.8681 43.1511 64.8816 43.7882 62.8949 43.7882ZM55.122 25.0148C55.2363 29.6804 58.832 33.4073 61.8342 35.7154C62.4585 36.1954 63.331 36.1954 63.9555 35.7154C66.9576 33.4073 70.5535 29.6804 70.6676 25.0148C70.6513 23.8745 69.7646 22.9523 68.6773 22.9523C67.5239 22.9523 66.6867 23.7641 66.6867 24.8824C66.6867 27.0145 64.9891 28.7427 62.8949 28.7427C60.8007 28.7427 59.1031 27.0145 59.1031 24.8824C59.1031 23.7641 58.2659 22.9523 57.1125 22.9523C56.0252 22.9523 55.1385 23.8745 55.122 25.0148Z" fill="#a9cc63"/>
</g>
<defs>
<clipPath id="clip0">
<rect width="97.0688" height="98.8235" fill="white" transform="translate(0.615356 0.176514)"/>
</clipPath>
</defs>
</svg>
