<svg width="98" height="100" viewBox="0 0 98 100" fill="none" xmlns="http://www.w3.org/2000/svg">
<g clip-path="url(#clip0)">
<path d="M15.7824 50.0131C15.7824 29.7728 28.7498 12.617 46.6874 6.68356C46.6891 6.30043 46.6406 4.86826 46.6144 4.53589C23.0836 5.87445 4.4071 25.7222 4.4071 50.0131C4.4071 75.1704 24.4391 95.5645 49.1498 95.5645C51.0765 95.5645 52.9747 95.4404 54.8374 95.1997C32.8123 92.3551 15.7824 73.2088 15.7824 50.0131Z" fill="#C6E1F2"/>
<path d="M43.7465 53.8734H36.5522C37.0685 63.6362 39.415 72.2908 41.2328 78.1971C41.859 80.2315 40.7467 82.3977 38.7484 83.035C38.3713 83.1552 37.9889 83.2126 37.6136 83.2126C36 83.2126 34.5045 82.156 33.9964 80.5057C32.0251 74.1013 29.4744 64.6611 28.9587 53.8734H19.5741C17.4799 53.8734 15.7824 52.1451 15.7824 50.0131C15.7824 47.881 17.4799 46.1528 19.5741 46.1528H28.9581C29.4706 35.364 32.0056 25.9275 33.9648 19.5264C34.5879 17.4912 36.7134 16.3548 38.713 16.9894C40.7122 17.6237 41.8281 19.7879 41.2051 21.8233C39.3974 27.7286 37.0645 36.3835 36.5515 46.1528H43.7465C45.8407 46.1528 47.5383 47.881 47.5383 50.0131C47.5383 52.1451 45.8407 53.8734 43.7465 53.8734ZM59.7705 83.035C60.1477 83.1554 60.5298 83.2126 60.9053 83.2126C62.5187 83.2126 64.0144 82.1558 64.5225 80.5057C66.9953 72.4721 68.4995 64.9401 69.1211 57.4796C69.2982 55.3553 67.75 53.4869 65.6634 53.3069C63.5755 53.1262 61.7416 54.7026 61.5647 56.8271C60.9907 63.7183 59.5909 70.7085 57.2861 78.1971C56.6597 80.2315 57.772 82.3975 59.7705 83.035ZM93.8924 46.1528C91.7983 46.1528 90.1007 47.881 90.1007 50.0131C90.1007 73.0017 71.7302 91.7043 49.1498 91.7043C26.5693 91.7043 8.19886 73.0017 8.19886 50.0131C8.19886 27.6853 25.3444 9.39215 47.2323 8.36667C49.3242 8.26861 50.9419 6.46277 50.8458 4.33304C50.7497 2.20332 48.9723 0.556904 46.884 0.654184C34.3999 1.23921 22.7541 6.63301 14.0916 15.8425C5.4013 25.0817 0.615356 37.217 0.615356 50.0131C0.615356 63.2114 5.66388 75.6199 14.8306 84.9526C23.9978 94.285 36.1858 99.4248 49.1498 99.4248C62.1138 99.4248 74.3018 94.285 83.4689 84.9526C92.6357 75.6199 97.6842 63.2114 97.6842 50.0131C97.6842 47.881 95.9866 46.1528 93.8924 46.1528Z" fill="#213362"/>
<path d="M55.785 47.1181C55.4062 47.1181 55.0232 47.0602 54.648 46.9401C53.0682 46.4344 51.9936 44.9434 51.9936 43.2574L51.9945 24.0677C51.9409 17.8375 54.2942 11.9573 58.6227 7.50816C62.9555 3.05415 68.7146 0.601318 74.8389 0.601318C81.0045 0.601318 86.7713 3.03909 91.0776 7.4655C95.3964 11.9048 97.7422 17.8078 97.683 24.0872C97.6246 30.2748 95.2078 36.072 90.8776 40.4108C86.5613 44.7363 80.8386 47.1179 74.7632 47.1179C74.757 47.1179 74.7502 47.1181 74.743 47.1179C71.3467 47.1179 67.9296 46.2593 64.5886 44.566C63.7201 44.1258 62.7768 44.0534 61.8521 44.0534C59.9563 44.0534 58.4396 47.1181 55.785 47.1181ZM74.7522 39.3973H74.7594C83.1409 39.3979 90.0199 32.4978 90.0999 24.013C90.1395 19.8098 88.5732 15.8626 85.6895 12.8985C82.8184 9.94728 78.9649 8.32191 74.8389 8.32191C70.754 8.32191 66.9086 9.96234 64.0106 12.9411C61.1129 15.9197 59.5386 19.8518 59.5778 24.013C59.578 24.0254 59.5775 36.6192 59.5775 36.6192C62.343 35.9863 65.3042 36.304 67.9686 37.6545C70.2497 38.8109 72.5305 39.3973 74.7464 39.3973H74.7522Z" fill="#a9cc63"/>
</g>
<defs>
<clipPath id="clip0">
<rect width="97.0688" height="98.8235" fill="white" transform="translate(0.615356 0.601318)"/>
</clipPath>
</defs>
</svg>
