<svg width="99" height="99" viewBox="0 0 99 99" fill="none" xmlns="http://www.w3.org/2000/svg">
<g clip-path="url(#clip0)">
<path d="M26.0029 75.0663H14.6092C9.15557 75.0663 4.73462 70.5727 4.73462 65.0295V4.03687C4.73462 9.58006 9.15557 14.0736 14.6092 14.0736H16.1283V65.0295C16.1283 70.5727 20.5493 75.0663 26.0029 75.0663ZM68.4347 39.7147L72.0192 23.2104C72.9353 18.5522 75.1876 14.2738 78.4923 10.9146L85.2162 4.08029C82.3447 3.8149 79.3824 4.79869 77.184 7.03303L65.5797 18.828C62.2749 22.187 60.0226 26.4654 59.1065 31.1238L56.9558 42.0608C56.9558 42.0608 68.196 39.771 68.4347 39.7147Z" fill="#CEE1F2"/>
<path d="M94.3651 36.6563C92.2675 36.6563 90.5672 38.3845 90.5672 40.5166V72.6589C88.7353 71.7309 86.6726 71.2059 84.4906 71.2059H14.6092C11.2585 71.2059 8.53251 68.4352 8.53251 65.0295V16.4845C10.3642 17.412 12.4276 17.9339 14.6092 17.9339H49.5499C51.6474 17.9339 53.3478 16.2056 53.3478 14.0736C53.3478 11.9415 51.6474 10.2133 49.5499 10.2133H14.6092C11.2585 10.2133 8.53251 7.44255 8.53251 4.03681C8.53251 1.90477 6.83219 0.176514 4.73461 0.176514C2.63703 0.176514 0.936707 1.90477 0.936707 4.03681V65.0295C0.936707 72.6923 7.07013 78.9265 14.6092 78.9265H84.4906C87.8413 78.9265 90.5672 81.6972 90.5672 85.103C90.5672 88.5087 87.8413 91.2795 84.4906 91.2795C82.9444 91.2795 81.4716 90.689 80.3429 89.6172C78.811 88.1617 76.4071 88.2443 74.9749 89.8019C73.5427 91.3596 73.6242 93.8024 75.1566 95.2581C77.6973 97.6711 81.0121 99 84.4906 99C92.0296 99 98.163 92.7659 98.163 85.103C98.163 84.9737 98.163 40.5166 98.163 40.5166C98.163 38.3845 96.4627 36.6563 94.3651 36.6563Z" fill="#213362"/>
<path d="M54.2701 44.7903C54.9896 45.5215 55.9585 45.921 56.9558 45.921C57.2032 45.921 57.4526 45.8963 57.7002 45.8461L68.4604 43.66C73.7965 42.5759 78.6506 39.9356 82.4986 36.0247L94.1027 24.2298C96.721 21.5685 98.163 18.0302 98.163 14.2666C98.163 10.503 96.721 6.96465 94.1027 4.30336C91.4844 1.64207 88.0033 0.176514 84.3007 0.176514C80.5979 0.176514 77.1168 1.64207 74.4985 4.30336L62.8942 16.0983C59.0462 20.0094 56.4488 24.9436 55.3821 30.3671L53.2314 41.3041C52.9826 42.5695 53.3725 43.8777 54.2701 44.7903ZM62.8308 31.8803C63.6023 27.9565 65.4813 24.3871 68.2652 21.5577L79.8695 9.76278C81.0531 8.55972 82.627 7.8971 84.3007 7.8971C85.9744 7.8971 87.5483 8.55972 88.7319 9.76278C89.9153 10.9656 90.5672 12.5654 90.5672 14.2666C90.5672 15.9678 89.9153 17.5675 88.7317 18.7704L77.1276 30.5653C74.3437 33.3947 70.832 35.3048 66.9718 36.089L61.7966 37.1404L62.8308 31.8803Z" fill="#213362"/>
<path d="M63.2223 62.9063H27.522C25.4244 62.9063 23.7241 61.178 23.7241 59.046C23.7241 56.914 25.4244 55.1857 27.522 55.1857H63.2223C65.3199 55.1857 67.0202 56.914 67.0202 59.046C67.0202 61.178 65.3199 62.9063 63.2223 62.9063ZM44.0429 44.5699C44.0429 42.4378 42.3426 40.7096 40.245 40.7096H27.522C25.4244 40.7096 23.7241 42.4378 23.7241 44.5699C23.7241 46.7019 25.4244 48.4302 27.522 48.4302H40.245C42.3426 48.4302 44.0429 46.7019 44.0429 44.5699Z" fill="#a9cc63"/>
</g>
<defs>
<clipPath id="clip0">
<rect width="97.2263" height="98.8235" fill="white" transform="translate(0.936707 0.176514)"/>
</clipPath>
</defs>
</svg>
