<svg width="99" height="100" viewBox="0 0 99 100" fill="none" xmlns="http://www.w3.org/2000/svg">
<path d="M24.1077 90.7505C22.4691 91.8368 20.5137 92.4704 18.4116 92.4704C12.6442 92.4704 7.96889 87.7183 7.96889 81.8561C7.96889 75.9941 12.6442 71.2418 18.4116 71.2418C20.5137 71.2418 22.4691 71.8754 24.1077 72.9617C21.2509 74.8557 19.361 78.1307 19.361 81.8561C19.361 85.5815 21.2507 88.8565 24.1077 90.7505ZM18.2218 28.5916C20.3238 28.5916 22.2792 27.9581 23.9178 26.8717C21.0611 24.9778 19.1711 21.7028 19.1711 17.9773C19.1711 14.2519 21.0611 10.9769 23.9178 9.08294C22.2792 7.99661 20.3238 7.36304 18.2218 7.36304C12.4543 7.36304 7.77902 12.1153 7.77902 17.9773C7.77902 23.8393 12.4543 28.5916 18.2218 28.5916ZM82.3972 82.0491C82.3972 78.3237 84.2871 75.0487 87.1439 73.1547C85.5053 72.0684 83.5499 71.4348 81.4478 71.4348C75.6804 71.4348 71.0051 76.1871 71.0051 82.0491C71.0051 87.9113 75.6804 92.6634 81.4478 92.6634C83.5499 92.6634 85.5053 92.0298 87.1439 90.9435C84.2869 89.0495 82.3972 85.7745 82.3972 82.0491ZM81.2579 28.5916C83.36 28.5916 85.3154 27.9581 86.954 26.8717C84.0972 24.9778 82.2073 21.7028 82.2073 17.9773C82.2073 14.2519 84.0972 10.9769 86.954 9.08294C85.3154 7.99661 83.36 7.36304 81.2579 7.36304C75.4905 7.36304 70.8152 12.1153 70.8152 17.9773C70.8152 23.8393 75.4905 28.5916 81.2579 28.5916Z" fill="#CEE1F2"/>
<path d="M81.4477 96.5234C73.5957 96.5234 67.2076 90.0303 67.2076 82.0493C67.2076 74.0684 73.5957 67.5753 81.4477 67.5753C89.2997 67.5753 95.6878 74.0684 95.6878 82.0493C95.6878 90.0303 89.2997 96.5234 81.4477 96.5234ZM81.4477 75.2948C77.7834 75.2948 74.8023 78.3249 74.8023 82.0493C74.8023 85.7738 77.7834 88.8039 81.4477 88.8039C85.1119 88.8039 88.0931 85.7738 88.0931 82.0493C88.0931 78.3249 85.1119 75.2948 81.4477 75.2948ZM18.2216 32.4516C10.3696 32.4516 3.98153 25.9586 3.98153 17.9776C3.98153 9.99662 10.3696 3.50357 18.2216 3.50357C26.0736 3.50357 32.4617 9.99662 32.4617 17.9776C32.4617 25.9586 26.0736 32.4516 18.2216 32.4516ZM18.2216 11.2231C14.5574 11.2231 11.5763 14.2531 11.5763 17.9776C11.5763 21.7021 14.5574 24.7322 18.2216 24.7322C21.8859 24.7322 24.867 21.7021 24.867 17.9776C24.867 14.2531 21.8859 11.2231 18.2216 11.2231ZM81.2578 32.4516C73.4058 32.4516 67.0177 25.9586 67.0177 17.9776C67.0177 9.99662 73.4058 3.50357 81.2578 3.50357C89.1098 3.50357 95.4979 9.99662 95.4979 17.9776C95.4979 25.9586 89.1098 32.4516 81.2578 32.4516ZM81.2578 11.2231C77.5936 11.2231 74.6124 14.2531 74.6124 17.9776C74.6124 21.7021 77.5936 24.7322 81.2578 24.7322C84.9221 24.7322 87.9032 21.7021 87.9032 17.9776C87.9032 14.2531 84.9221 11.2231 81.2578 11.2231ZM18.4115 96.3304C10.5595 96.3304 4.1714 89.8373 4.1714 81.8564C4.1714 73.8754 10.5595 67.3823 18.4115 67.3823C26.2635 67.3823 32.6516 73.8754 32.6516 81.8564C32.6516 89.8373 26.2635 96.3304 18.4115 96.3304ZM18.4115 75.1018C14.7472 75.1018 11.7661 78.1319 11.7661 81.8564C11.7661 85.5808 14.7472 88.6109 18.4115 88.6109C22.0758 88.6109 25.0569 85.5808 25.0569 81.8564C25.0569 78.1319 22.0758 75.1018 18.4115 75.1018ZM97.1494 60.0971C98.5107 53.4095 98.5007 46.6298 97.1194 39.9467C96.6882 37.8603 94.6747 36.5244 92.6224 36.9627C90.5699 37.401 89.2556 39.4474 89.6868 41.5336C90.852 47.1719 90.8606 52.8913 89.7123 58.5333C89.2873 60.6206 90.6077 62.663 92.6615 63.0949C92.9212 63.1495 93.1796 63.1758 93.4348 63.1758C95.1977 63.1756 96.7784 61.9206 97.1494 60.0971ZM59.4703 98.3952C61.5241 97.9635 62.8444 95.9213 62.4197 93.8335C61.9949 91.7462 59.9852 90.4028 57.9318 90.8359C52.3808 92.0029 46.7535 91.9942 41.2069 90.8098C39.1544 90.3725 37.141 91.7076 36.71 93.7938C36.2788 95.88 37.5933 97.9262 39.6456 98.3647C42.9576 99.0718 46.2927 99.4251 49.6292 99.4251C52.9166 99.4251 56.2051 99.0816 59.4703 98.3952ZM62.3895 6.23299C62.8207 4.14679 61.5062 2.10055 59.4539 1.66208C52.8788 0.258489 46.2089 0.24826 39.6293 1.63159C37.5755 2.0633 36.2551 4.1055 36.6798 6.19323C37.1048 8.28058 39.1145 9.62358 41.1678 9.1909C46.7187 8.0241 52.346 8.03259 57.8927 9.21695C58.156 9.27311 58.4184 9.30013 58.677 9.30013C60.4354 9.29994 62.0137 8.0515 62.3895 6.23299ZM6.47715 63.0642C8.52963 62.626 9.84389 60.5795 9.4127 58.4933C8.24748 52.855 8.23894 47.1357 9.38726 41.4937C9.81219 39.4063 8.49184 37.3639 6.43804 36.932C4.38291 36.4992 2.37487 37.8424 1.95013 39.9297C0.588777 46.6175 0.59884 53.3971 1.98013 60.0803C2.35588 61.899 3.93425 63.1474 5.69262 63.1474C5.95122 63.1472 6.214 63.1204 6.47715 63.0642Z" fill="#213362"/>
<path d="M61.1319 56.9125C61.1319 54.048 59.9287 51.3867 57.7441 49.4184C55.6833 47.5619 52.9587 46.5394 50.0721 46.5394C47.7179 46.5394 45.9425 45.3987 45.9425 43.8858C45.9425 42.4226 47.1242 41.2323 48.5769 41.2323C49.898 41.2323 51.8662 41.4108 55.3886 42.8032C57.3435 43.5759 59.5439 42.5915 60.3041 40.6049C61.0641 38.6181 60.0958 36.3812 58.1413 35.6086C56.6273 35.0102 55.2367 34.5507 53.9169 34.2149V32.0652C53.9169 29.9335 52.2169 28.2054 50.1196 28.2054C48.0223 28.2054 46.3222 29.9335 46.3222 32.0652V33.7697C41.7635 34.8141 38.3478 38.9517 38.3478 43.8857C38.3478 49.7994 43.3882 54.2587 50.0721 54.2587C51.9828 54.2587 53.5372 55.4491 53.5372 56.9123C53.5372 58.3506 52.2928 59.5659 50.8196 59.5659C49.6128 59.5659 46.5197 59.0898 43.3578 57.8124C41.4088 57.0252 39.201 57.9926 38.4264 59.9736C37.6517 61.9545 38.6037 64.1987 40.5527 64.9861C42.4558 65.7548 44.3865 66.3164 46.1324 66.6929V68.5398C46.1324 70.6715 47.8324 72.3995 49.9297 72.3995C52.027 72.3995 53.7271 70.6715 53.7271 68.5398V66.8629C58.0016 65.5969 61.1319 61.6167 61.1319 56.9125Z" fill="#a9cc63"/>
</svg>
