<svg width="99" height="100" viewBox="0 0 99 100" fill="none" xmlns="http://www.w3.org/2000/svg">
<g clip-path="url(#clip0)">
<path d="M16.1932 35.7069C16.1932 19.146 27.9757 6.99241 43.4847 4.56112C41.6378 4.27159 39.738 4.12017 37.799 4.11536C19.5775 4.16043 4.82166 17.1739 4.82166 35.7071C4.82166 58.7274 28.1332 75.7759 28.1332 75.7759H44.4324C44.4324 75.7757 16.1932 58.7272 16.1932 35.7069Z" fill="#CEE1F2"/>
<path d="M45.3805 98.8923H30.0289C28.3839 98.8923 26.9266 97.8137 26.4215 96.2223L24.5263 90.2505C23.8836 88.2255 24.9777 86.0543 26.9702 85.4011C28.9621 84.7472 31.0986 85.8597 31.7413 87.8851L32.7892 91.187H42.6204L43.6683 87.8851C44.311 85.8601 46.4464 84.748 48.4394 85.4011C50.4319 86.0543 51.5258 88.2255 50.8833 90.2505L48.9881 96.2223C48.4828 97.8137 47.0255 98.8923 45.3805 98.8923ZM51.0662 75.7757C51.0662 73.6478 49.3692 71.9229 47.2757 71.9229H29.4226C25.2675 68.5608 8.61262 53.942 8.61262 35.7069C8.61262 19.9225 21.1533 8.01203 37.7995 7.96714C54.4456 8.01203 66.9863 19.9225 66.9863 35.7069C66.9863 38.8068 66.4958 41.9879 65.5287 45.162C64.9091 47.1947 66.0283 49.3526 68.0279 49.9822C70.0265 50.6115 72.1511 49.4746 72.7702 47.4418C73.9627 43.5286 74.5673 39.5803 74.5673 35.7067C74.5673 25.7592 70.6908 16.6684 63.6518 10.1085C56.9 3.81636 47.791 0.325177 37.9757 0.262377C37.9484 0.261799 37.9215 0.261414 37.8942 0.261414H37.7047C37.6774 0.261414 37.6505 0.261799 37.6232 0.262377C27.8081 0.325177 18.6991 3.81636 11.9471 10.1087C4.90816 16.6686 1.03162 25.7594 1.03162 35.7069C1.03162 46.0288 5.36397 56.7925 13.5607 66.834C19.6286 74.2675 25.6657 78.7173 25.9198 78.903C26.5646 79.3746 27.339 79.6285 28.1337 79.6285H47.2757C49.3692 79.6285 51.0662 77.9036 51.0662 75.7757ZM49.3476 31.8445C48.804 31.4338 43.8644 27.8091 37.4206 27.8091C31.1663 27.8091 26.037 31.4338 25.4932 31.8445C23.8133 33.114 23.4638 35.5275 24.7128 37.2351C25.4566 38.2522 26.5997 38.7895 27.7577 38.7895C28.5438 38.7895 29.337 38.5418 30.0162 38.0284C30.038 38.012 31.5038 36.9402 33.6299 36.2016V56.7045C33.6299 58.8324 35.3269 60.5573 37.4204 60.5573C39.5139 60.5573 41.2109 58.8324 41.2109 56.7045V36.2016C43.3368 36.9402 44.8026 38.0118 44.8244 38.0282C45.5037 38.5416 46.2968 38.7893 47.083 38.7893C48.241 38.7893 49.384 38.252 50.1279 37.2349C51.377 35.5274 51.0275 33.114 49.3476 31.8445Z" fill="#213362"/>
<path d="M96.2277 82.4892L93.7024 80.9492C94.1973 79.3777 94.467 77.7048 94.467 75.9686C94.467 74.2321 94.1975 72.5592 93.7024 70.9877L96.2277 69.4475C98.0228 68.3528 98.6049 65.9862 97.5276 64.1617C96.4503 62.3369 94.1217 61.7451 92.3272 62.8404L89.7556 64.4089C87.6943 62.3089 85.0752 60.7771 82.1478 60.0566V56.7045C82.1478 54.5766 80.4508 52.8517 78.3573 52.8517C76.2639 52.8517 74.5668 54.5766 74.5668 56.7045V60.0562C71.5727 60.7933 68.9037 62.3816 66.8212 64.5555L64.0084 62.8401C62.2138 61.7451 59.8853 62.3369 58.808 64.1614C57.7308 65.986 58.313 68.3526 60.108 69.4472L62.9516 71.1813C62.4951 72.6962 62.2477 74.3032 62.2477 75.968C62.2477 77.6328 62.4951 79.2397 62.9516 80.7547L60.108 82.4888C58.3128 83.5837 57.7308 85.9503 58.8079 87.7748C59.5188 88.9788 60.7742 89.6459 62.0618 89.6459C62.7255 89.6459 63.398 89.4687 64.0084 89.0963L66.8213 87.3808C68.9038 89.555 71.5727 91.1431 74.5668 91.8801V95.2322C74.5668 97.3601 76.2639 99.085 78.3573 99.085C80.4508 99.085 82.1478 97.3601 82.1478 95.2322V91.8805C85.0751 91.1598 87.6939 89.6282 89.7554 87.5284L92.3272 89.0969C92.9379 89.4692 93.6101 89.6465 94.2738 89.6465C95.5615 89.6465 96.8171 88.9794 97.5278 87.7754C98.6049 85.9505 98.0228 83.5839 96.2277 82.4892ZM78.3573 84.6371C73.6547 84.6371 69.8287 80.7483 69.8287 75.9684C69.8287 71.1884 73.6547 67.2996 78.3573 67.2996C83.06 67.2996 86.886 71.1884 86.886 75.9684C86.886 80.7483 83.0602 84.6371 78.3573 84.6371Z" fill="#a9cc63"/>
</g>
<defs>
<clipPath id="clip0">
<rect width="97.2263" height="98.8235" fill="white" transform="translate(0.936768 0.261414)"/>
</clipPath>
</defs>
</svg>
