<svg width="98" height="99" viewBox="0 0 98 99" fill="none" xmlns="http://www.w3.org/2000/svg">
<g clip-path="url(#clip0)">
<path d="M40.9301 46.4373C41.5654 41.935 40.5293 37.401 38.0926 33.6801C37.2884 32.4522 37.8263 30.7614 39.1871 30.2527C43.3617 28.6916 46.8654 25.6019 48.9601 21.5263C50.8662 17.8029 52.7792 11.4379 56.9241 11.8287L54.9628 7.81082C52.4979 2.7613 45.4225 2.7613 42.9575 7.81082L38.9456 16.0296C37.9705 18.027 36.0857 19.4115 33.9055 19.7317L24.9343 21.0496C19.4438 21.8561 17.2514 28.6777 21.2245 32.5931L27.716 38.9906C29.2937 40.5453 30.0136 42.7856 29.6412 44.9809L28.1088 54.0143C27.171 59.5429 32.9104 63.7588 37.8213 61.1487L42.5167 58.6529C37.8941 56.1152 39.6082 52.5277 40.9301 46.4373Z" fill="#C6E1F2"/>
<path d="M63.2248 65.7986C61.5622 65.7986 59.8907 65.3927 58.3444 64.5709L50.3205 60.3058C49.4685 59.853 48.452 59.853 47.6002 60.3058L39.5761 64.5707C36.0034 66.4697 31.7619 66.1478 28.5075 63.7303C25.2785 61.3318 23.6938 57.3573 24.3723 53.3578L25.9049 44.3242C26.0638 43.3877 25.755 42.4307 25.0791 41.7646L18.5874 35.367C15.7088 32.5303 14.6854 28.3622 15.9162 24.4891C17.1528 20.5975 20.4009 17.8156 24.3928 17.2292L33.3639 15.9112C34.3118 15.7718 35.1293 15.1741 35.5499 14.3117L39.5621 6.09276C41.343 2.44449 44.9441 0.177979 48.9601 0.177979C52.976 0.177979 56.5773 2.44449 58.3581 6.09276L62.3702 14.3115C62.7911 15.1739 63.6084 15.7718 64.5563 15.9112L73.5273 17.2292C77.5192 17.8158 80.7671 20.5976 82.004 24.4891C83.2347 28.362 82.2114 32.5303 79.3327 35.367L72.8412 41.7645C72.1652 42.4307 71.8564 43.3877 72.0152 44.3243L73.5478 53.3574C74.2263 57.3571 72.6418 61.3316 69.4126 63.7301C67.5671 65.1017 65.4035 65.7986 63.2248 65.7986ZM48.9603 52.2464C50.6329 52.2464 52.3053 52.6516 53.8303 53.462L61.854 57.7269C63.3141 58.5027 64.5009 57.8223 64.9434 57.4934C65.3736 57.174 66.345 56.2595 66.0756 54.6714L64.543 45.6382C63.957 42.1825 65.0877 38.6609 67.5676 36.2172L74.0589 29.8197C75.2061 28.689 74.9519 27.3771 74.7894 26.8656C74.6239 26.3449 74.0642 25.1083 72.4448 24.8703L63.4738 23.5522C60.0601 23.0508 57.1093 20.8806 55.5797 17.7473L51.5676 9.52853C50.8493 8.05703 49.5051 7.89818 48.9604 7.89818C48.4158 7.89818 47.0716 8.05703 46.3533 9.52853L42.3412 17.7475C40.8118 20.8806 37.8608 23.0508 34.4471 23.5522L25.4761 24.8703C23.8567 25.1083 23.297 26.3449 23.1315 26.8656C22.969 27.3771 22.7148 28.689 23.862 29.8197L30.3535 36.2172C32.8332 38.6607 33.9639 42.1825 33.3779 45.6378L31.8453 54.6714C31.5759 56.2593 32.5473 57.1738 32.9775 57.4932C33.42 57.8219 34.6071 58.5028 36.0669 57.7266L44.0908 53.4616C45.6149 52.6518 47.2878 52.2464 48.9603 52.2464ZM42.9577 7.81094H42.9596H42.9577Z" fill="#213362"/>
<path d="M33.8558 98.9986C32.5454 98.9986 31.2282 98.6788 30.0094 98.031L24.6429 95.1786C24.437 95.0695 24.1919 95.0695 23.986 95.1786L18.6194 98.031C15.8036 99.5278 12.4605 99.2738 9.89541 97.3684C7.34723 95.4756 6.09712 92.3382 6.63269 89.1808L7.65758 83.1394C7.69303 82.9301 7.62251 82.7147 7.46932 82.5636L3.12788 78.2852C0.855918 76.0463 0.0481063 72.7558 1.01991 69.698C1.9955 66.6276 4.55695 64.433 7.7046 63.9708L13.7043 63.0893C13.8548 63.0671 13.9957 62.9955 14.1005 62.8876C15.5728 61.3715 17.9732 61.3572 19.4627 62.856C20.9519 64.3547 20.9659 66.7988 19.4936 68.315C18.2344 69.6117 16.5632 70.4696 14.7876 70.7306L8.78768 71.612C8.68246 71.6275 8.36226 71.6746 8.23505 72.0745C8.11428 72.4543 8.33117 72.6678 8.40226 72.7381L12.7437 77.0165C14.7008 78.9453 15.5929 81.7252 15.1304 84.4532L14.1055 90.4948C14.089 90.5922 14.0386 90.8891 14.3652 91.1317C14.6003 91.3064 14.8509 91.3247 15.1101 91.1873L20.4766 88.335C22.8797 87.0577 25.7493 87.0577 28.1524 88.335L33.5189 91.1875C33.7779 91.3249 34.0285 91.3064 34.2638 91.1319C34.5905 90.8893 34.54 90.5924 34.5235 90.495L33.4987 84.4536C33.0361 81.7254 33.9282 78.9454 35.8853 77.0167L40.2268 72.7383C41.7311 71.2556 44.132 71.2949 45.5882 72.827C47.0447 74.3588 47.0057 76.8027 45.5009 78.2854L41.1595 82.5638C41.0061 82.7149 40.9358 82.9303 40.9713 83.1397L41.9961 89.181C42.5317 92.3384 41.2816 95.4758 38.7334 97.3686C37.2784 98.4491 35.5729 98.9986 33.8558 98.9986ZM88.4039 97.3682C90.9521 95.4754 92.2022 92.338 91.6666 89.1806L90.6417 83.1394C90.6063 82.9299 90.6768 82.7145 90.83 82.5634L95.1714 78.285C97.4434 76.0461 98.2512 72.7556 97.2794 69.6978C96.3038 66.6274 93.7424 64.4328 90.5947 63.9706L84.5952 63.0891C84.4445 63.0669 84.3036 62.9953 84.1988 62.8874C82.7269 61.3713 80.3258 61.357 78.8366 62.8558C77.3474 64.3545 77.3334 66.7986 78.8057 68.3149C80.0649 69.6115 81.7361 70.4694 83.5119 70.7304L89.5116 71.6118C89.6169 71.6273 89.9371 71.6744 90.0643 72.0743C90.185 72.4541 89.9681 72.6676 89.8971 72.7379L85.5556 77.0163C83.5985 78.9451 82.7064 81.725 83.169 84.4532L84.1938 90.4946C84.2103 90.5921 84.2608 90.8889 83.9341 91.1315C83.699 91.306 83.4482 91.3245 83.1892 91.1871L77.8227 88.3346C75.4196 87.0573 72.5499 87.0573 70.1469 88.3346L64.7804 91.1869C64.5212 91.3245 64.2708 91.3062 64.0355 91.1313C63.7089 90.8887 63.7593 90.5919 63.7758 90.4944L64.8007 84.4528C65.2632 81.7248 64.3711 78.9449 62.414 77.0161L58.0726 72.7377C56.5678 71.2548 54.1673 71.2945 52.7112 72.8265C51.2546 74.3582 51.2937 76.8021 52.7984 78.2848L57.1398 82.5632C57.2932 82.7144 57.3635 82.9298 57.3281 83.139L56.3032 89.1804C55.7676 92.3378 57.0177 95.4752 59.5659 97.3681C62.131 99.2736 65.4741 99.5274 68.2899 98.0307L73.6565 95.1782C73.8623 95.0691 74.1075 95.0691 74.3134 95.1782L79.6799 98.0307C80.8987 98.6784 82.2159 98.9982 83.5263 98.9982C85.2436 98.9986 86.9491 98.4491 88.4039 97.3682Z" fill="#a9cc63"/>
</g>
<defs>
<clipPath id="clip0">
<rect width="97.0688" height="98.8235" fill="white" transform="translate(0.615356 0.176514)"/>
</clipPath>
</defs>
</svg>
