<svg xmlns="http://www.w3.org/2000/svg" xmlns:xlink="http://www.w3.org/1999/xlink" viewBox="0 0 152.23 7.97"><defs><style>.a{fill-rule:evenodd;fill:url(#a);}</style><linearGradient id="a" x1="5.68" y1="3.98" x2="157.91" y2="3.98" gradientTransform="matrix(-1, 0, 0, 1, 157.91, 0)" gradientUnits="userSpaceOnUse"><stop offset="0" stop-color="#7bd138"/><stop offset="1" stop-color="#0085ff"/></linearGradient></defs><title>Ativo 3</title><path class="a" d="M43.25,6.45a1.46,1.46,0,0,0,.12-.78c1.29.29,2.23.78,3.58,1,.2.16.65.2.83.37a.73.73,0,0,0,.33,0,1.92,1.92,0,0,0,.83.47c.37,0,.35-.23.64-.34s.6-.07.71-.34c0-.1-.12-.15-.14-.23s.26-.41.32-.61c-.62-.21-.38-.81-.12-1.18.54,0,.77.25,1.21.17a2.56,2.56,0,0,1,.59.17c.45,0,.83,0,1,.2a21.6,21.6,0,0,1,2.82.78c.09,0,.05.08.06.14.49-.15,1.33.07,1.86-.14-.11-.3.44-.29.32-.68.54-.26,1.87.07,2.55-.1A5.34,5.34,0,0,0,63,5.88c1.09,0,2.05.47,2.69.47A6.37,6.37,0,0,0,67,6,16.79,16.79,0,0,1,70,6.42c2.45.23,4.64.73,6.58,0,.43-.3.4-.58.14-.91,1.62,0,3.42.33,5.12.47a3.43,3.43,0,0,0,1.78-.07c.23,0,.24.09.45,0a7.53,7.53,0,0,0,1.22-.84,19.15,19.15,0,0,1,4.35.24c1.67.06,4.59.56,5.87-.2,2.94.11,5.47.8,8.26.51.07-.18.59-.14.57-.37,3.88-.49,7.67.34,12,.07.21-.22.59-.34.7-.61,2.54,0,5.09.09,7.68.3.2,0,.33-.07.51-.1a2.84,2.84,0,0,0,2.36-.37,14.15,14.15,0,0,1,2,0c.16,0,.15-.07.26-.1a1.18,1.18,0,0,1,.44.17c.54-.14,1,.05,1.42-.07a7.13,7.13,0,0,0,3.26.1c.17,0,.27.11.44.14a5.49,5.49,0,0,0,1-.3c-.21-.06.12-.3-.14-.27a3.41,3.41,0,0,1,1.6,0,8.66,8.66,0,0,1,2.37.07c0-.12.1-.2.2-.27.88-.05,1.55.17,2.17.07.26,0,.42-.17.63-.21s.43.08.39,0,.15.06.12.14-.42.23-.38.37a4.42,4.42,0,0,0,.7-.14c.27.12-.28.23-.06.34a11.11,11.11,0,0,1,3.26-.37c.23,0,.39-.11.57-.14a8.36,8.36,0,0,1,1.67.07c.92.05,1.73-.1,2.69-.07,0-.09.12-.07.12-.14s-.21-.16-.32-.24.23-.05.2-.17a15.2,15.2,0,0,0-3,0,3.64,3.64,0,0,0-1.21-.27c-.17,0-.13-.16-.26-.2-1.55-.05-2.37-.15-3.71-.27-.22-.08-.4-.19-.45-.37a41.35,41.35,0,0,0-4.53.13.52.52,0,0,0-.2.41,22.3,22.3,0,0,1-2.31.44c-1.45-.43-4-.46-4.73-1.15-.13-.06-.73.14-1,0s-.1.13-.32.1a1.8,1.8,0,0,0-1.09-.06.59.59,0,0,1-.45.3c-.08.14.15.11.13.2-.45.12-1.1.24-1.4.33-.21-.15-.61-.26-.45-.51a23,23,0,0,1-4-.54,13.22,13.22,0,0,0-1.53.47c-.47.65-2,.8-3.27.84-.72-.23-1.75-.29-2.49-.51,0-.14.21-.12.14-.27a1,1,0,0,0-.65,0c-.7-.24-1.89,0-2.3-.44A15.34,15.34,0,0,0,110.72,2a.22.22,0,0,0-.06.3c-.37.16-1,.18-1,.54-.34,0-.32-.17-.7-.14,0,.1-.07.12-.07.2a45.9,45.9,0,0,1-5.63-.34,3.22,3.22,0,0,0-1.27-.3c-.07,0-.21.07-.26.07-.22,0-.22-.1-.39-.1-.87,0-1.83.32-2.81.34a5.26,5.26,0,0,0-1.4,0c-1.44-.1-2.56-.36-3.91-.51-.18-.07-.27-.19-.44-.27a4.48,4.48,0,0,0-1.93.47c-1.31.15-2.06-.26-3.38-.1a25.41,25.41,0,0,0-5.25-.74c-.23,0-.46-.19-.7-.1-.17-.07,0-.11-.13-.2-.71,0-.73.4-1.09.61-.87.09-1.49-.21-2.36-.07-.23,0,0-.21-.26-.2-1,.22-1.49.7-1.54,1.42a28,28,0,0,1-3.71-.54c-.5-.1-1.34-.38-1.8-.17-.11.06,0,.14-.12.2s-.34.05-.45.1-.31.37-.64.3c.06.36-.85.43-1.15.71.06.1.06.24.38.2-.28.14.06.38.2.51A10.51,10.51,0,0,1,64.73,3a9.06,9.06,0,0,1-1.27-.37,8.24,8.24,0,0,0-1.09.24,28.19,28.19,0,0,1-4.42-.64c-.31-.17-.4-.44-1-.47v-.2c-.71-.18-1.81-.15-2.5-.34-.76.37-1.4-.13-2.23-.2-.26,0-.33.19-.57.23s-.4-.15-.45-.31c-.39.1-.9-.1-1.21,0s-.1-.18-.2-.24a6.51,6.51,0,0,0-2-.3c-.32,0-.64-.13-1-.14s-.68.09-1,.06c-.56,0-1-.35-1.78-.17A9.42,9.42,0,0,0,42.85,0c-.92.07-.93.73-1.28,1.15a3.19,3.19,0,0,0-2.23,0A24.17,24.17,0,0,1,36.91.65c-.37,0-.75.14-1,.14.06,0,.17.07.18.14s-.54,0-.77.07a3.76,3.76,0,0,1,1,.34c-.37.16-.94.2-1.34.34,0,0-.06,0-.12,0s-.07-.21-.13-.3A.92.92,0,0,1,34,1,11.47,11.47,0,0,0,32.11.85C31.9.82,32,1,32,1a11.88,11.88,0,0,1-2.24.17A12.27,12.27,0,0,0,28,.58c-.77,0-1.47-.46-2.43-.3-.47.08-1.17.38-1.15.78a8.34,8.34,0,0,0-1.67,0c-.45.08-.72.35-1.15.37s-.55-.12-.89-.14C20,.72,18.47.6,17.6.14c-1.1-.09-2.49,0-3.53,0a6.57,6.57,0,0,0-1.72.44c-.68-.09-1.34-.06-2-.2A13.8,13.8,0,0,0,8.32.78c-.27.44.13,1,.06,1.49C7,2.06,6.16,2,4.8,1.86c-.13.07.06.11-.06.17H4.29a2.12,2.12,0,0,1-.77.27,10,10,0,0,1-1.47-.2A12.82,12.82,0,0,1,.2,2.23a.3.3,0,0,1-.2.1c.09.47,0,.65.26,1,.72,0,.67.32,1.22.37.06.14.23.24.32.37a1.15,1.15,0,0,1,.64.24c1,.16,1.92.34,2.82.54a8,8,0,0,0,1.86.71,3.75,3.75,0,0,1,1.34.27c1.21.09,2.27.31,3.44.51.37.07.46.28,1,.27a2.64,2.64,0,0,0,.26.51c-.21.13-.49.22-.71.34.17.22.55.32.83.47a1,1,0,0,1,.71-.07c.21-.15.54-.23.51-.51s.49-.1.64-.2c0-.25-.26-.43-.26-.71a2.78,2.78,0,0,1,1.09,0,3.78,3.78,0,0,0,2.88-.51c.56.07.73.33,1.28.41,1,.44,1.1,1.33,2.37,1.62.23,0,.2-.14.38-.17A3.79,3.79,0,0,0,25,7.23c.12-.11.1-.27.18-.37a3.38,3.38,0,0,1,2.37-1c.56.06,1.14.73,1.54.94a1.59,1.59,0,0,0,2.11-1.08,4.76,4.76,0,0,1,1.66,1A.83.83,0,0,0,34,7a5.3,5.3,0,0,0,2.23-.17c1.55-.13,2.89.07,4.1,0,0-.14,0-.08.18-.07a.91.91,0,0,1,.59-.2s0,0-.07,0C41.66,6.58,42.52,6.54,43.25,6.45Z"/></svg>