<svg xmlns="http://www.w3.org/2000/svg" xmlns:xlink="http://www.w3.org/1999/xlink" viewBox="0 0 162.17 9.08"><defs><style type="text/css">.a,.aa,.ab,.ac,.ad,.ae,.af,.ag,.ah,.ai,.aj,.ak,.al,.am,.an,.ao,.ap,.aq,.ar,.as,.at,.au,.av,.aw,.ax,.ay,.az,.b,.ba,.bb,.bc,.bd,.be,.bf,.bg,.bh,.bi,.bj,.bk,.bl,.bm,.bn,.bo,.bp,.bq,.br,.bs,.bt,.bu,.bv,.bw,.bx,.by,.bz,.c,.ca,.cb,.cc,.cd,.ce,.cf,.cg,.ch,.ci,.cj,.ck,.cl,.cm,.cn,.co,.cp,.cq,.cr,.cs,.ct,.cu,.cv,.cw,.cx,.cy,.cz,.d,.da,.db,.dc,.dd,.de,.df,.dg,.dh,.di,.dj,.dk,.dl,.dm,.dn,.do,.dp,.dq,.dr,.ds,.dt,.du,.dv,.dw,.dx,.dy,.dz,.e,.ea,.eb,.ec,.ed,.ee,.ef,.eg,.eh,.ei,.ej,.ek,.el,.em,.en,.eo,.ep,.eq,.er,.es,.et,.eu,.ev,.ew,.ex,.ey,.ez,.f,.fa,.fb,.fc,.fd,.fe,.ff,.fg,.fh,.fi,.fj,.fk,.fl,.fm,.fn,.fo,.fp,.fq,.fr,.fs,.ft,.fu,.fv,.fw,.fx,.fy,.fz,.g,.ga,.gb,.gc,.gd,.ge,.gf,.gg,.gh,.gi,.gj,.gk,.gl,.gm,.gn,.go,.gp,.gq,.gr,.gs,.gt,.gu,.gv,.gw,.gx,.gy,.gz,.h,.ha,.hb,.hc,.hd,.he,.hf,.hg,.i,.j,.k,.l,.m,.n,.o,.p,.q,.r,.s,.t,.u,.v,.w,.x,.y,.z{fill-rule:evenodd;}.a{fill:url(#a);}.b{fill:url(#b);}.c{fill:url(#c);}.d{fill:url(#d);}.e{fill:url(#e);}.f{fill:url(#f);}.g{fill:url(#g);}.h{fill:url(#h);}.i{fill:url(#i);}.j{fill:url(#j);}.k{fill:url(#k);}.l{fill:url(#l);}.m{fill:url(#m);}.n{fill:url(#n);}.o{fill:url(#o);}.p{fill:url(#p);}.q{fill:url(#q);}.r{fill:url(#r);}.s{fill:url(#s);}.t{fill:url(#t);}.u{fill:url(#u);}.v{fill:url(#v);}.w{fill:url(#w);}.x{fill:url(#x);}.y{fill:url(#y);}.z{fill:url(#z);}.aa{fill:url(#aa);}.ab{fill:url(#ab);}.ac{fill:url(#ac);}.ad{fill:url(#ad);}.ae{fill:url(#ae);}.af{fill:url(#af);}.ag{fill:url(#ag);}.ah{fill:url(#ah);}.ai{fill:url(#ai);}.aj{fill:url(#aj);}.ak{fill:url(#ak);}.al{fill:url(#al);}.am{fill:url(#am);}.an{fill:url(#an);}.ao{fill:url(#ao);}.ap{fill:url(#ap);}.aq{fill:url(#aq);}.ar{fill:url(#ar);}.as{fill:url(#as);}.at{fill:url(#at);}.au{fill:url(#au);}.av{fill:url(#av);}.aw{fill:url(#aw);}.ax{fill:url(#ax);}.ay{fill:url(#ay);}.az{fill:url(#az);}.ba{fill:url(#ba);}.bb{fill:url(#bb);}.bc{fill:url(#bc);}.bd{fill:url(#bd);}.be{fill:url(#be);}.bf{fill:url(#bf);}.bg{fill:url(#bg);}.bh{fill:url(#bh);}.bi{fill:url(#bi);}.bj{fill:url(#bj);}.bk{fill:url(#bk);}.bl{fill:url(#bl);}.bm{fill:url(#bm);}.bn{fill:url(#bn);}.bo{fill:url(#bo);}.bp{fill:url(#bp);}.bq{fill:url(#bq);}.br{fill:url(#br);}.bs{fill:url(#bs);}.bt{fill:url(#bt);}.bu{fill:url(#bu);}.bv{fill:url(#bv);}.bw{fill:url(#bw);}.bx{fill:url(#bx);}.by{fill:url(#by);}.bz{fill:url(#bz);}.ca{fill:url(#ca);}.cb{fill:url(#cb);}.cc{fill:url(#cc);}.cd{fill:url(#cd);}.ce{fill:url(#ce);}.cf{fill:url(#cf);}.cg{fill:url(#cg);}.ch{fill:url(#ch);}.ci{fill:url(#ci);}.cj{fill:url(#cj);}.ck{fill:url(#ck);}.cl{fill:url(#cl);}.cm{fill:url(#cm);}.cn{fill:url(#cn);}.co{fill:url(#co);}.cp{fill:url(#cp);}.cq{fill:url(#cq);}.cr{fill:url(#cr);}.cs{fill:url(#cs);}.ct{fill:url(#ct);}.cu{fill:url(#cu);}.cv{fill:url(#cv);}.cw{fill:url(#cw);}.cx{fill:url(#cx);}.cy{fill:url(#cy);}.cz{fill:url(#cz);}.da{fill:url(#da);}.db{fill:url(#db);}.dc{fill:url(#dc);}.dd{fill:url(#dd);}.de{fill:url(#de);}.df{fill:url(#df);}.dg{fill:url(#dg);}.dh{fill:url(#dh);}.di{fill:url(#di);}.dj{fill:url(#dj);}.dk{fill:url(#dk);}.dl{fill:url(#dl);}.dm{fill:url(#dm);}.dn{fill:url(#dn);}.do{fill:url(#do);}.dp{fill:url(#dp);}.dq{fill:url(#dq);}.dr{fill:url(#dr);}.ds{fill:url(#ds);}.dt{fill:url(#dt);}.du{fill:url(#du);}.dv{fill:url(#dv);}.dw{fill:url(#dw);}.dx{fill:url(#dx);}.dy{fill:url(#dy);}.dz{fill:url(#dz);}.ea{fill:url(#ea);}.eb{fill:url(#eb);}.ec{fill:url(#ec);}.ed{fill:url(#ed);}.ee{fill:url(#ee);}.ef{fill:url(#ef);}.eg{fill:url(#eg);}.eh{fill:url(#eh);}.ei{fill:url(#ei);}.ej{fill:url(#ej);}.ek{fill:url(#ek);}.el{fill:url(#el);}.em{fill:url(#em);}.en{fill:url(#en);}.eo{fill:url(#eo);}.ep{fill:url(#ep);}.eq{fill:url(#eq);}.er{fill:url(#er);}.es{fill:url(#es);}.et{fill:url(#et);}.eu{fill:url(#eu);}.ev{fill:url(#ev);}.ew{fill:url(#ew);}.ex{fill:url(#ex);}.ey{fill:url(#ey);}.ez{fill:url(#ez);}.fa{fill:url(#fa);}.fb{fill:url(#fb);}.fc{fill:url(#fc);}.fd{fill:url(#fd);}.fe{fill:url(#fe);}.ff{fill:url(#ff);}.fg{fill:url(#fg);}.fh{fill:url(#fh);}.fi{fill:url(#fi);}.fj{fill:url(#fj);}.fk{fill:url(#fk);}.fl{fill:url(#fl);}.fm{fill:url(#fm);}.fn{fill:url(#fn);}.fo{fill:url(#fo);}.fp{fill:url(#fp);}.fq{fill:url(#fq);}.fr{fill:url(#fr);}.fs{fill:url(#fs);}.ft{fill:url(#ft);}.fu{fill:url(#fu);}.fv{fill:url(#fv);}.fw{fill:url(#fw);}.fx{fill:url(#fx);}.fy{fill:url(#fy);}.fz{fill:url(#fz);}.ga{fill:url(#ga);}.gb{fill:url(#gb);}.gc{fill:url(#gc);}.gd{fill:url(#gd);}.ge{fill:url(#ge);}.gf{fill:url(#gf);}.gg{fill:url(#gg);}.gh{fill:url(#gh);}.gi{fill:url(#gi);}.gj{fill:url(#gj);}.gk{fill:url(#gk);}.gl{fill:url(#gl);}.gm{fill:url(#gm);}.gn{fill:url(#gn);}.go{fill:url(#go);}.gp{fill:url(#gp);}.gq{fill:url(#gq);}.gr{fill:url(#gr);}.gs{fill:url(#gs);}.gt{fill:url(#gt);}.gu{fill:url(#gu);}.gv{fill:url(#gv);}.gw{fill:url(#gw);}.gx{fill:url(#gx);}.gy{fill:url(#gy);}.gz{fill:url(#gz);}.ha{fill:url(#ha);}.hb{fill:url(#hb);}.hc{fill:url(#hc);}.hd{fill:url(#hd);}.he{fill:url(#he);}.hf{fill:url(#hf);}.hg{fill:url(#hg);}</style><linearGradient id="a" x1="155.2" y1="8.95" x2="159.17" y2="8.95" gradientTransform="matrix(-1, 0, 0, 1, 162.17, 0)" gradientUnits="userSpaceOnUse"><stop offset="0" stop-color="#7bd138"/><stop offset="1" stop-color="#0085ff"/></linearGradient><linearGradient id="b" x1="140.72" y1="8.85" x2="142.16" y2="8.85" xlink:href="#a"/><linearGradient id="c" x1="159.53" y1="8.82" x2="160.48" y2="8.82" xlink:href="#a"/><linearGradient id="d" x1="133.75" y1="8.84" x2="134.44" y2="8.84" xlink:href="#a"/><linearGradient id="e" x1="161.34" y1="8.68" x2="161.72" y2="8.68" xlink:href="#a"/><linearGradient id="f" x1="152.76" y1="8.7" x2="153.58" y2="8.7" xlink:href="#a"/><linearGradient id="g" x1="102.28" y1="8.19" x2="109.36" y2="8.19" xlink:href="#a"/><linearGradient id="h" x1="151.51" y1="8.42" x2="152.51" y2="8.42" xlink:href="#a"/><linearGradient id="i" x1="69.22" y1="8.25" x2="72.3" y2="8.25" xlink:href="#a"/><linearGradient id="j" x1="86.72" y1="8.1" x2="89.82" y2="8.1" xlink:href="#a"/><linearGradient id="k" x1="75.87" y1="8.21" x2="77.51" y2="8.21" xlink:href="#a"/><linearGradient id="l" x1="78.07" y1="8.3" x2="78.45" y2="8.3" xlink:href="#a"/><linearGradient id="m" x1="64.47" y1="8.18" x2="65.53" y2="8.18" xlink:href="#a"/><linearGradient id="n" x1="86.1" y1="8.24" x2="86.61" y2="8.24" xlink:href="#a"/><linearGradient id="o" x1="79.15" y1="8.08" x2="81.65" y2="8.08" xlink:href="#a"/><linearGradient id="p" x1="67.1" y1="8.26" x2="67.47" y2="8.26" xlink:href="#a"/><linearGradient id="q" x1="62.65" y1="8.13" x2="63.78" y2="8.13" xlink:href="#a"/><linearGradient id="r" x1="56.19" y1="8.17" x2="57.12" y2="8.17" xlink:href="#a"/><linearGradient id="s" x1="29.78" y1="8.17" x2="30.86" y2="8.17" xlink:href="#a"/><linearGradient id="t" x1="57.87" y1="8.18" x2="58.19" y2="8.18" xlink:href="#a"/><linearGradient id="u" x1="51.42" y1="8.14" x2="52.42" y2="8.14" xlink:href="#a"/><linearGradient id="v" x1="53.73" y1="8.07" x2="55.87" y2="8.07" xlink:href="#a"/><linearGradient id="w" x1="48.54" y1="8.12" x2="48.9" y2="8.12" xlink:href="#a"/><linearGradient id="x" x1="43.62" y1="7.97" x2="45.96" y2="7.97" xlink:href="#a"/><linearGradient id="y" x1="38.5" y1="8.12" x2="39.01" y2="8.12" xlink:href="#a"/><linearGradient id="z" x1="37.44" y1="8.17" x2="38.43" y2="8.17" xlink:href="#a"/><linearGradient id="aa" x1="60.63" y1="8" x2="61.82" y2="8" xlink:href="#a"/><linearGradient id="ab" x1="49.54" y1="8.02" x2="50.47" y2="8.02" xlink:href="#a"/><linearGradient id="ac" x1="40.14" y1="8.13" x2="40.76" y2="8.13" xlink:href="#a"/><linearGradient id="ad" x1="74.37" y1="8.07" x2="74.81" y2="8.07" xlink:href="#a"/><linearGradient id="ae" x1="65.15" y1="7.98" x2="66.91" y2="7.98" xlink:href="#a"/><linearGradient id="af" x1="55.56" y1="7.98" x2="59.89" y2="7.98" xlink:href="#a"/><linearGradient id="ag" x1="28.16" y1="8.03" x2="28.66" y2="8.03" xlink:href="#a"/><linearGradient id="ah" x1="27.53" y1="8.05" x2="27.92" y2="8.05" xlink:href="#a"/><linearGradient id="ai" x1="85.85" y1="7.91" x2="86.47" y2="7.91" xlink:href="#a"/><linearGradient id="aj" x1="42.57" y1="7.96" x2="42.76" y2="7.96" xlink:href="#a"/><linearGradient id="ak" x1="32.04" y1="7.89" x2="32.79" y2="7.89" xlink:href="#a"/><linearGradient id="al" x1="23.89" y1="8" x2="24.65" y2="8" xlink:href="#a"/><linearGradient id="am" x1="52.17" y1="7.91" x2="52.63" y2="7.91" xlink:href="#a"/><linearGradient id="an" x1="46.09" y1="7.88" x2="46.44" y2="7.88" xlink:href="#a"/><linearGradient id="ao" x1="37.82" y1="7.86" x2="39.57" y2="7.86" xlink:href="#a"/><linearGradient id="ap" x1="34.55" y1="7.88" x2="35.12" y2="7.88" xlink:href="#a"/><linearGradient id="aq" x1="19.87" y1="7.86" x2="20.76" y2="7.86" xlink:href="#a"/><linearGradient id="ar" x1="37.31" y1="7.88" x2="37.75" y2="7.88" xlink:href="#a"/><linearGradient id="as" x1="39.82" y1="7.81" x2="41.08" y2="7.81" xlink:href="#a"/><linearGradient id="at" x1="11.97" y1="7.71" x2="13.86" y2="7.71" xlink:href="#a"/><linearGradient id="au" x1="34.05" y1="7.81" x2="34.31" y2="7.81" xlink:href="#a"/><linearGradient id="av" x1="19.37" y1="7.8" x2="19.7" y2="7.8" xlink:href="#a"/><linearGradient id="aw" x1="17.37" y1="7.69" x2="18.56" y2="7.69" xlink:href="#a"/><linearGradient id="ax" x1="102.91" y1="7.79" x2="103.4" y2="7.79" xlink:href="#a"/><linearGradient id="ay" x1="96.63" y1="7.72" x2="97.96" y2="7.72" xlink:href="#a"/><linearGradient id="az" x1="16.24" y1="7.77" x2="16.49" y2="7.77" xlink:href="#a"/><linearGradient id="ba" x1="13.91" y1="7.81" x2="14.29" y2="7.81" xlink:href="#a"/><linearGradient id="bb" x1="10.6" y1="7.76" x2="11.22" y2="7.76" xlink:href="#a"/><linearGradient id="bc" x1="95.06" y1="7.69" x2="96.45" y2="7.69" xlink:href="#a"/><linearGradient id="bd" x1="26.52" y1="7.74" x2="26.9" y2="7.74" xlink:href="#a"/><linearGradient id="be" x1="155.9" y1="7.69" x2="156.46" y2="7.69" xlink:href="#a"/><linearGradient id="bf" x1="92.49" y1="7.67" x2="92.75" y2="7.67" xlink:href="#a"/><linearGradient id="bg" x1="91.94" y1="7.67" x2="92.37" y2="7.67" xlink:href="#a"/><linearGradient id="bh" x1="91.06" y1="7.65" x2="91.8" y2="7.65" xlink:href="#a"/><linearGradient id="bi" x1="88.48" y1="7.64" x2="89.62" y2="7.64" xlink:href="#a"/><linearGradient id="bj" x1="87.41" y1="7.61" x2="87.92" y2="7.61" xlink:href="#a"/><linearGradient id="bk" x1="85.78" y1="7.63" x2="86.23" y2="7.63" xlink:href="#a"/><linearGradient id="bl" x1="3.9" y1="7.53" x2="4.12" y2="7.53" xlink:href="#a"/><linearGradient id="bm" x1="64.65" y1="7.41" x2="65.28" y2="7.41" xlink:href="#a"/><linearGradient id="bn" x1="91.42" y1="7.4" x2="91.74" y2="7.4" xlink:href="#a"/><linearGradient id="bo" x1="88.97" y1="7.38" x2="89.24" y2="7.38" xlink:href="#a"/><linearGradient id="bp" x1="93.87" y1="7.33" x2="94.19" y2="7.33" xlink:href="#a"/><linearGradient id="bq" x1="87.72" y1="7.37" x2="88.17" y2="7.37" xlink:href="#a"/><linearGradient id="br" x1="56.88" y1="7.31" x2="57.21" y2="7.31" xlink:href="#a"/><linearGradient id="bs" x1="79.2" y1="7.21" x2="79.71" y2="7.21" xlink:href="#a"/><linearGradient id="bt" x1="30.92" y1="7.06" x2="31.51" y2="7.06" xlink:href="#a"/><linearGradient id="bu" x1="3.88" y1="7.14" x2="4.45" y2="7.14" xlink:href="#a"/><linearGradient id="bv" x1="47.91" y1="7.03" x2="48.6" y2="7.03" xlink:href="#a"/><linearGradient id="bw" x1="43.51" y1="6.97" x2="44.14" y2="6.97" xlink:href="#a"/><linearGradient id="bx" x1="36.43" y1="7.01" x2="37.24" y2="7.01" xlink:href="#a"/><linearGradient id="by" x1="35.55" y1="7.01" x2="35.94" y2="7.01" xlink:href="#a"/><linearGradient id="bz" x1="31.86" y1="7" x2="32.29" y2="7" xlink:href="#a"/><linearGradient id="ca" x1="21.82" y1="6.74" x2="24.77" y2="6.74" xlink:href="#a"/><linearGradient id="cb" x1="13.23" y1="6.94" x2="13.86" y2="6.94" xlink:href="#a"/><linearGradient id="cc" x1="28.52" y1="6.9" x2="28.9" y2="6.9" xlink:href="#a"/><linearGradient id="cd" x1="11.03" y1="6.87" x2="11.66" y2="6.87" xlink:href="#a"/><linearGradient id="ce" x1="9.35" y1="6.56" x2="13.69" y2="6.56" xlink:href="#a"/><linearGradient id="cf" x1="53.62" y1="6.76" x2="54.36" y2="6.76" xlink:href="#a"/><linearGradient id="cg" x1="5.08" y1="6.2" x2="5.39" y2="6.2" xlink:href="#a"/><linearGradient id="ch" x1="42.26" y1="5.67" x2="42.64" y2="5.67" xlink:href="#a"/><linearGradient id="ci" x1="1.32" y1="5.57" x2="2.26" y2="5.57" xlink:href="#a"/><linearGradient id="cj" x1="0" y1="5.61" x2="0.69" y2="5.61" xlink:href="#a"/><linearGradient id="ck" x1="70.55" y1="5.38" x2="71.04" y2="5.38" xlink:href="#a"/><linearGradient id="cl" x1="0.56" y1="4.72" x2="2.25" y2="4.72" xlink:href="#a"/><linearGradient id="cm" x1="2.38" y1="4.98" x2="2.76" y2="4.98" xlink:href="#a"/><linearGradient id="cn" x1="51.55" y1="4.12" x2="52.11" y2="4.12" xlink:href="#a"/><linearGradient id="co" x1="154.71" y1="3.93" x2="155.91" y2="3.93" xlink:href="#a"/><linearGradient id="cp" x1="70.67" y1="4" x2="70.99" y2="4" xlink:href="#a"/><linearGradient id="cq" x1="86.28" y1="3.92" x2="86.61" y2="3.92" xlink:href="#a"/><linearGradient id="cr" x1="92.37" y1="3.79" x2="92.81" y2="3.79" xlink:href="#a"/><linearGradient id="cs" x1="91.74" y1="3.89" x2="92.12" y2="3.89" xlink:href="#a"/><linearGradient id="ct" x1="53.8" y1="3.76" x2="55.06" y2="3.76" xlink:href="#a"/><linearGradient id="cu" x1="157.47" y1="3.63" x2="160.73" y2="3.63" xlink:href="#a"/><linearGradient id="cv" x1="1.44" y1="3.78" x2="1.82" y2="3.78" xlink:href="#a"/><linearGradient id="cw" x1="53.17" y1="3.68" x2="53.62" y2="3.68" xlink:href="#a"/><linearGradient id="cx" x1="52.42" y1="3.72" x2="52.86" y2="3.72" xlink:href="#a"/><linearGradient id="cy" x1="25.15" y1="3.67" x2="26.28" y2="3.67" xlink:href="#a"/><linearGradient id="cz" x1="43.71" y1="3.69" x2="44.27" y2="3.69" xlink:href="#a"/><linearGradient id="da" x1="0.87" y1="3.75" x2="1.19" y2="3.75" xlink:href="#a"/><linearGradient id="db" x1="45.21" y1="3.68" x2="45.59" y2="3.68" xlink:href="#a"/><linearGradient id="dc" x1="72.19" y1="3.32" x2="73.49" y2="3.32" xlink:href="#a"/><linearGradient id="dd" x1="42.58" y1="3.68" x2="42.9" y2="3.68" xlink:href="#a"/><linearGradient id="de" x1="23.7" y1="3.47" x2="24.34" y2="3.47" xlink:href="#a"/><linearGradient id="df" x1="69.98" y1="3.54" x2="70.4" y2="3.54" xlink:href="#a"/><linearGradient id="dg" x1="29.85" y1="3.56" x2="30.47" y2="3.56" xlink:href="#a"/><linearGradient id="dh" x1="26.53" y1="3.49" x2="28.34" y2="3.49" xlink:href="#a"/><linearGradient id="di" x1="155.33" y1="3.58" x2="156.03" y2="3.58" xlink:href="#a"/><linearGradient id="dj" x1="99.82" y1="3.55" x2="100.27" y2="3.55" xlink:href="#a"/><linearGradient id="dk" x1="22.2" y1="3.46" x2="23.45" y2="3.46" xlink:href="#a"/><linearGradient id="dl" x1="86.41" y1="3.4" x2="87.73" y2="3.4" xlink:href="#a"/><linearGradient id="dm" x1="65.46" y1="3.2" x2="67.1" y2="3.2" xlink:href="#a"/><linearGradient id="dn" x1="30.97" y1="3.45" x2="31.8" y2="3.45" xlink:href="#a"/><linearGradient id="do" x1="154.57" y1="3.47" x2="154.9" y2="3.47" xlink:href="#a"/><linearGradient id="dp" x1="92.63" y1="3.45" x2="93.18" y2="3.45" xlink:href="#a"/><linearGradient id="dq" x1="88.21" y1="3.39" x2="88.73" y2="3.39" xlink:href="#a"/><linearGradient id="dr" x1="68.78" y1="3.36" x2="69.23" y2="3.36" xlink:href="#a"/><linearGradient id="ds" x1="64.22" y1="3.34" x2="64.59" y2="3.34" xlink:href="#a"/><linearGradient id="dt" x1="1" y1="3.39" x2="1.33" y2="3.39" xlink:href="#a"/><linearGradient id="du" x1="53.98" y1="3.25" x2="54.61" y2="3.25" xlink:href="#a"/><linearGradient id="dv" x1="17.61" y1="3.01" x2="19.19" y2="3.01" xlink:href="#a"/><linearGradient id="dw" x1="15.61" y1="3.27" x2="15.87" y2="3.27" xlink:href="#a"/><linearGradient id="dx" x1="52.61" y1="3.15" x2="53.89" y2="3.15" xlink:href="#a"/><linearGradient id="dy" x1="29.35" y1="3.18" x2="30.1" y2="3.18" xlink:href="#a"/><linearGradient id="dz" x1="16.23" y1="3.21" x2="16.74" y2="3.21" xlink:href="#a"/><linearGradient id="ea" x1="27.28" y1="3.07" x2="28.59" y2="3.07" xlink:href="#a"/><linearGradient id="eb" x1="73.12" y1="3.08" x2="73.94" y2="3.08" xlink:href="#a"/><linearGradient id="ec" x1="69.29" y1="3.11" x2="70.05" y2="3.11" xlink:href="#a"/><linearGradient id="ed" x1="68.91" y1="3.15" x2="69.29" y2="3.15" xlink:href="#a"/><linearGradient id="ee" x1="43.88" y1="3.05" x2="44.21" y2="3.05" xlink:href="#a"/><linearGradient id="ef" x1="36.68" y1="3.05" x2="37.31" y2="3.05" xlink:href="#a"/><linearGradient id="eg" x1="22.2" y1="3.07" x2="22.45" y2="3.07" xlink:href="#a"/><linearGradient id="eh" x1="23.7" y1="2.85" x2="24.2" y2="2.85" xlink:href="#a"/><linearGradient id="ei" x1="49.85" y1="2.74" x2="50.73" y2="2.74" xlink:href="#a"/><linearGradient id="ej" x1="15.61" y1="2.42" x2="17.06" y2="2.42" xlink:href="#a"/><linearGradient id="ek" x1="13.48" y1="2.63" x2="14.36" y2="2.63" xlink:href="#a"/><linearGradient id="el" x1="15.17" y1="2.6" x2="15.42" y2="2.6" xlink:href="#a"/><linearGradient id="em" x1="23.95" y1="2.55" x2="24.4" y2="2.55" xlink:href="#a"/><linearGradient id="en" x1="10.54" y1="2.44" x2="10.97" y2="2.44" xlink:href="#a"/><linearGradient id="eo" x1="5.33" y1="2.41" x2="5.63" y2="2.41" xlink:href="#a"/><linearGradient id="ep" x1="3.35" y1="2.29" x2="3.83" y2="2.29" xlink:href="#a"/><linearGradient id="eq" x1="137.4" y1="2.36" x2="139.72" y2="2.36" xlink:href="#a"/><linearGradient id="er" x1="5.77" y1="2.29" x2="6.27" y2="2.29" xlink:href="#a"/><linearGradient id="es" x1="124.16" y1="2.05" x2="125.16" y2="2.05" xlink:href="#a"/><linearGradient id="et" x1="118.33" y1="1.96" x2="122.41" y2="1.96" xlink:href="#a"/><linearGradient id="eu" x1="117.2" y1="1.86" x2="117.7" y2="1.86" xlink:href="#a"/><linearGradient id="ev" x1="76.93" y1="1.84" x2="77.39" y2="1.84" xlink:href="#a"/><linearGradient id="ew" x1="116.44" y1="1.85" x2="116.96" y2="1.85" xlink:href="#a"/><linearGradient id="ex" x1="114.82" y1="1.81" x2="115.95" y2="1.81" xlink:href="#a"/><linearGradient id="ey" x1="113.88" y1="1.78" x2="114.63" y2="1.78" xlink:href="#a"/><linearGradient id="ez" x1="112.93" y1="1.8" x2="113.26" y2="1.8" xlink:href="#a"/><linearGradient id="fa" x1="111.69" y1="1.73" x2="112.75" y2="1.73" xlink:href="#a"/><linearGradient id="fb" x1="109.92" y1="1.75" x2="111.25" y2="1.75" xlink:href="#a"/><linearGradient id="fc" x1="107.04" y1="1.76" x2="108.86" y2="1.76" xlink:href="#a"/><linearGradient id="fd" x1="13.47" y1="1.76" x2="13.73" y2="1.76" xlink:href="#a"/><linearGradient id="fe" x1="123.52" y1="1.73" x2="123.79" y2="1.73" xlink:href="#a"/><linearGradient id="ff" x1="123.04" y1="1.66" x2="123.35" y2="1.66" xlink:href="#a"/><linearGradient id="fg" x1="124.28" y1="1.64" x2="124.6" y2="1.64" xlink:href="#a"/><linearGradient id="fh" x1="119.08" y1="1.61" x2="120.03" y2="1.61" xlink:href="#a"/><linearGradient id="fi" x1="105.09" y1="1.59" x2="105.67" y2="1.59" xlink:href="#a"/><linearGradient id="fj" x1="118.26" y1="1.55" x2="118.59" y2="1.55" xlink:href="#a"/><linearGradient id="fk" x1="103.65" y1="1.52" x2="103.97" y2="1.52" xlink:href="#a"/><linearGradient id="fl" x1="1.94" y1="1.52" x2="2.31" y2="1.52" xlink:href="#a"/><linearGradient id="fm" x1="100.39" y1="1.47" x2="100.9" y2="1.47" xlink:href="#a"/><linearGradient id="fn" x1="2.38" y1="1.42" x2="3.14" y2="1.42" xlink:href="#a"/><linearGradient id="fo" x1="113.51" y1="1.44" x2="114.25" y2="1.44" xlink:href="#a"/><linearGradient id="fp" x1="112.06" y1="1.43" x2="112.56" y2="1.43" xlink:href="#a"/><linearGradient id="fq" x1="110.18" y1="1.39" x2="111.44" y2="1.39" xlink:href="#a"/><linearGradient id="fr" x1="100.96" y1="1.43" x2="101.46" y2="1.43" xlink:href="#a"/><linearGradient id="fs" x1="97.58" y1="1.42" x2="98.01" y2="1.42" xlink:href="#a"/><linearGradient id="ft" x1="96.07" y1="1.39" x2="96.75" y2="1.39" xlink:href="#a"/><linearGradient id="fu" x1="109.36" y1="1.34" x2="109.87" y2="1.34" xlink:href="#a"/><linearGradient id="fv" x1="108.68" y1="1.28" x2="109.18" y2="1.28" xlink:href="#a"/><linearGradient id="fw" x1="70.48" y1="1.32" x2="71.42" y2="1.32" xlink:href="#a"/><linearGradient id="fx" x1="68.92" y1="1.28" x2="69.29" y2="1.28" xlink:href="#a"/><linearGradient id="fy" x1="90.17" y1="1.23" x2="90.61" y2="1.23" xlink:href="#a"/><linearGradient id="fz" x1="80.95" y1="1.21" x2="81.71" y2="1.21" xlink:href="#a"/><linearGradient id="ga" x1="77.56" y1="1.25" x2="77.89" y2="1.25" xlink:href="#a"/><linearGradient id="gb" x1="86.97" y1="1.21" x2="88.05" y2="1.21" xlink:href="#a"/><linearGradient id="gc" x1="85.98" y1="1.2" x2="86.72" y2="1.2" xlink:href="#a"/><linearGradient id="gd" x1="53.24" y1="1.17" x2="53.62" y2="1.17" xlink:href="#a"/><linearGradient id="ge" x1="85.47" y1="1.17" x2="85.85" y2="1.17" xlink:href="#a"/><linearGradient id="gf" x1="84.21" y1="1.18" x2="84.97" y2="1.18" xlink:href="#a"/><linearGradient id="gg" x1="35.12" y1="1.09" x2="36.12" y2="1.09" xlink:href="#a"/><linearGradient id="gh" x1="28.09" y1="0.97" x2="28.53" y2="0.97" xlink:href="#a"/><linearGradient id="gi" x1="25.51" y1="0.94" x2="25.84" y2="0.94" xlink:href="#a"/><linearGradient id="gj" x1="20.88" y1="0.68" x2="21.37" y2="0.68" xlink:href="#a"/><linearGradient id="gk" x1="3.64" y1="0.58" x2="3.95" y2="0.58" xlink:href="#a"/><linearGradient id="gl" x1="7.08" y1="0.15" x2="7.53" y2="0.15" xlink:href="#a"/><linearGradient id="gm" x1="5.46" y1="0.13" x2="5.77" y2="0.13" xlink:href="#a"/><linearGradient id="gn" x1="6.27" y1="0.1" x2="6.58" y2="0.1" xlink:href="#a"/><linearGradient id="go" x1="134.95" y1="8.85" x2="140.06" y2="8.85" xlink:href="#a"/><linearGradient id="gp" x1="89.92" y1="8.08" x2="102.03" y2="8.08" xlink:href="#a"/><linearGradient id="gq" x1="1.63" y1="4.66" x2="162.17" y2="4.66" xlink:href="#a"/><linearGradient id="gr" x1="67.08" y1="8.03" x2="67.73" y2="8.03" xlink:href="#a"/><linearGradient id="gs" x1="14.74" y1="7.72" x2="16.11" y2="7.72" xlink:href="#a"/><linearGradient id="gt" x1="8.27" y1="7.6" x2="10.29" y2="7.6" xlink:href="#a"/><linearGradient id="gu" x1="66.22" y1="7.68" x2="66.79" y2="7.68" xlink:href="#a"/><linearGradient id="gv" x1="5.91" y1="7.48" x2="7.21" y2="7.48" xlink:href="#a"/><linearGradient id="gw" x1="151.88" y1="7.43" x2="152.32" y2="7.43" xlink:href="#a"/><linearGradient id="gx" x1="29.15" y1="7.07" x2="30.93" y2="7.07" xlink:href="#a"/><linearGradient id="gy" x1="8.52" y1="6.45" x2="8.98" y2="6.45" xlink:href="#a"/><linearGradient id="gz" x1="18.43" y1="3.78" x2="19.34" y2="3.78" xlink:href="#a"/><linearGradient id="ha" x1="67.91" y1="3.5" x2="69.08" y2="3.5" xlink:href="#a"/><linearGradient id="hb" x1="10.47" y1="2.94" x2="11.92" y2="2.94" xlink:href="#a"/><linearGradient id="hc" x1="4.07" y1="1.27" x2="13.3" y2="1.27" xlink:href="#a"/><linearGradient id="hd" x1="15.85" y1="1.01" x2="16.28" y2="1.01" xlink:href="#a"/><linearGradient id="he" x1="109.42" y1="8.48" x2="133.56" y2="8.48" xlink:href="#a"/><linearGradient id="hf" x1="82.27" y1="8.14" x2="85.53" y2="8.14" xlink:href="#a"/><linearGradient id="hg" x1="25.15" y1="2.99" x2="27.21" y2="2.99" xlink:href="#a"/></defs><title>Ativo 2</title><path class="a" d="M6.4,9.07c.3,0,.19-.26.57-.24-1.4-.08-3.06.11-4,0-.07.11.21,0,.13.14A21.59,21.59,0,0,0,6.21,9C6.35,9,6.3,9.07,6.4,9.07Z"/><path class="b" d="M20,8.94a7.35,7.35,0,0,1,1.44,0c-.23-.2-.94-.13-1.44-.11Z"/><path class="c" d="M2.64,8.87a2,2,0,0,0-.95-.1C1.85,9,2.19,8.85,2.64,8.87Z"/><path class="d" d="M27.72,8.87c.1.08.48,0,.69,0,0-.07-.11,0-.13-.11-.15.13-.25-.12-.56,0C27.76,8.83,27.79,8.86,27.72,8.87Z"/><path class="e" d="M.82,8.73a.13.13,0,0,1-.07-.1H.45A.57.57,0,0,0,.82,8.73Z"/><path class="f" d="M9.4,8.66c-.34,0-.55.08-.81,0C8.6,8.77,9.4,8.77,9.4,8.66Z"/><path class="g" d="M52.8,8.49c.16-.11.39-.18.43-.34.29,0,.29.14.57,0,.13,0,.14.13.25.17.15-.14.16-.06.38,0,.08-.13-.18-.07-.13-.17s.34,0,.37-.07-.11-.27,0-.34c1.11,0,2.14,0,3.46,0a.78.78,0,0,0,.38.37,2.94,2.94,0,0,0,.81,0c0,.18.58,0,.56.21a5.83,5.83,0,0,1-2.2.07,3.14,3.14,0,0,0-.87.2c-.58-.23-1.18,0-1.64-.13-.25,0-.11.16-.38.13C54.24,8.32,53.69,8.53,52.8,8.49Zm2.25-.31c.19,0,.35-.15.19-.21S55,8.14,55.06,8.19Z"/><path class="h" d="M10.29,8.53c0-.12.36-.06.38-.17-.43,0-.86-.15-1,.11C9.89,8.47,10.27,8.33,10.29,8.53Z"/><path class="i" d="M90.75,8.49c.38-.31,1.89.1,2.2-.21-.21-.09-1,.06-.76-.17-.31,0-.86.07-.88-.11-.48.21-1,0-1.44.11,0,.22.47,0,.63.1s-.06.11-.19.11C90.33,8.44,90.78,8.34,90.75,8.49Z"/><path class="j" d="M75.45,8.12c-.39,0-.5-.16-.38-.31-.23,0-.53,0-.57.17-.52-.1-1.48.17-1.69-.14-.19,0-.21.09-.43.07-.07.14,0,.26.13.37A5.76,5.76,0,0,0,75.45,8.12Z"/><path class="k" d="M86.3,8.32c-.11-.18-.56-.13-.5-.31H85c-.07.14-.34.16-.32.34a1.06,1.06,0,0,0,.7-.07C85.52,8.5,86,8.39,86.3,8.32Z"/><path class="l" d="M84,8.39c.15-.05-.13-.11.06-.14-.07-.1-.27,0-.38,0S83.88,8.37,84,8.39Z"/><path class="m" d="M96.71,8.36h.18c0-.07.18-.07.06-.14.22,0,.24,0,.45,0,0-.11.17-.14.31-.18s-.27,0-.43-.07a1.19,1.19,0,0,1-.63.21C96.62,8.29,96.68,8.31,96.71,8.36Z"/><path class="n" d="M75.56,8.32c.19-.11.47,0,.5-.14-.1,0-.37,0-.37,0A.16.16,0,0,0,75.56,8.32Z"/><path class="o" d="M80.9,8.15s-.11,0-.18,0c.31.2,1.14,0,1.64,0,.13,0,0,.15.11.17.26,0,.32-.06.56,0,0-.11-.1-.17-.06-.31a15.78,15.78,0,0,0-1.69-.14c-.31,0-.38.24-.76.24.16,0-.15.14.13.14A.17.17,0,0,1,80.9,8.15Z"/><path class="p" d="M95.07,8.29a.29.29,0,0,0-.38,0C94.69,8.35,95,8.34,95.07,8.29Z"/><path class="q" d="M99.15,8.08c.13,0-.07.12,0,.21.3,0,.16-.23.38-.28a2.86,2.86,0,0,0-.87,0c.18.11.07.21-.26.21.16.09.39-.06.57,0C98.91,8.11,99.12,8.15,99.15,8.08Z"/><path class="r" d="M106,8.22c-.08-.19-.67-.14-.93-.07C105.22,8.32,105.7,8.26,106,8.22Z"/><path class="s" d="M132.13,8.29c0-.09.23-.11.25-.21a5.39,5.39,0,0,1-1,0c-.14,0,0,.12-.06.17C131.64,8.12,131.74,8.32,132.13,8.29Z"/><path class="t" d="M104.29,8.22a.34.34,0,0,0-.32-.1v.1A.69.69,0,0,0,104.29,8.22Z"/><path class="u" d="M110.75,8.22a3.07,3.07,0,0,0-1-.17A1.86,1.86,0,0,0,110.75,8.22Z"/><path class="v" d="M106.3,8.19c.61.12,1.51-.1,2.13,0,.1-.26-.62-.06-.87-.17,0,.22-.51-.1-.75-.1s.07.07.13.14A4.79,4.79,0,0,1,106.3,8.19Z"/><path class="w" d="M113.63,8.22c-.1-.06-.07-.21-.31-.21S113.37,8.24,113.63,8.22Z"/><path class="x" d="M117.14,8.19c-.23-.06-.06-.27.25-.24.1.05,0,.11-.07.21a2.7,2.7,0,0,1,.5,0c.06-.09-.11-.07-.11-.14s.09-.11.18-.14a1.06,1.06,0,0,1,.43.14c.67-.27-.42-.29-.81-.28,0,.19-.85.19-.88,0-.3,0-.23.1-.43.11.24.07.45.16.5.34C117,8.17,116.95,8.23,117.14,8.19Z"/><path class="y" d="M123.23,8.22c.31,0,.25-.14.43-.17C123.48,7.94,123,8.09,123.23,8.22Z"/><path class="z" d="M124.73,8.19a3.18,3.18,0,0,0-1,0A2.51,2.51,0,0,0,124.73,8.19Z"/><path class="aa" d="M101,8.19c.11-.12.6-.18.49-.38-.4,0-.74.12-1.18.14.26.09.49,0,.69.11C101,8.1,101,8.14,101,8.19Z"/><path class="ab" d="M112.26,8.19c.22,0,.32,0,.37-.11s-.24-.12-.24-.24c-.21.07-.73-.09-.69.17.24,0,.35-.16.56,0,0,0-.13,0-.13,0C112,8,112.28,8.1,112.26,8.19Z"/><path class="ac" d="M121.41,8.15c.16.06.35,0,.62,0-.06,0-.21,0-.24-.11A1.12,1.12,0,0,0,121.41,8.15Z"/><path class="ad" d="M87.36,8.15c.28,0,.21-.11.43-.1C87.73,7.91,87.35,8,87.36,8.15Z"/><path class="ae" d="M97,8.08A6.13,6.13,0,0,0,95.88,8c-.18,0,0-.11,0-.17-.26,0-.56,0-.63.17A5.92,5.92,0,0,0,97,8.08Z"/><path class="af" d="M102.28,8.12c0,.07.39,0,.45,0s0-.09,0-.18c.18,0,.58.08.49-.1.13,0,0,.11.13.14.87-.17,2.37.13,3.26-.11a24.91,24.91,0,0,0-4.2,0C102.48,8,102.66,8.13,102.28,8.12Z"/><path class="ag" d="M134,8.12c0-.12-.29-.14-.5-.18C133.51,8.09,133.83,8.07,134,8.12Z"/><path class="ah" d="M134.26,8.12c.09-.07.38,0,.38-.14C134.41,8,134.2,8,134.26,8.12Z"/><path class="ai" d="M76.26,8c0-.06-.06-.06-.07-.1s.15,0,.13-.11c-.17.09-.48.1-.62.21C75.85,8.06,76,7.94,76.26,8Z"/><path class="aj" d="M119.47,8c.19,0,.16-.18-.06-.17C119.37,8,119.51,7.95,119.47,8Z"/><path class="ak" d="M130.13,7.87c-.09,0-.25,0-.19-.14-.25,0-.32.06-.56,0,.15.14.49,0,.63.14-.08.1-.22,0-.38,0C129.57,8.16,130.16,8,130.13,7.87Z"/><path class="al" d="M137.72,8c.1-.13.23.06.56,0,0-.15-.46-.09-.75-.11C137.53,8,137.73,8,137.72,8Z"/><path class="am" d="M109.68,8c.18,0,.29-.07.32-.17-.23,0-.25,0-.45,0S109.76,7.88,109.68,8Z"/><path class="an" d="M115.77,8c.21,0,.3,0,.31-.14s-.13,0-.06,0C115.85,7.71,115.64,7.9,115.77,8Z"/><path class="ao" d="M124.35,7.81a14.7,14.7,0,0,0-1.75,0C123.3,7.81,124.05,8.1,124.35,7.81Z"/><path class="ap" d="M127.49,8c.11,0,.14-.11.13-.21-.23,0-.42,0-.56,0S127.58,7.73,127.49,8Z"/><path class="aq" d="M141.41,7.94c.32.13.53-.1.88-.07,0-.14-.3-.09-.43-.14C142,8,141.52,7.8,141.41,7.94Z"/><path class="ar" d="M124.86,7.91c0-.09-.19-.12-.43-.11C124.4,7.94,124.71,8,124.86,7.91Z"/><path class="as" d="M122.35,7.87c-.24-.08-1.17-.25-1.26,0C121.57,7.89,121.8,7.87,122.35,7.87Z"/><path class="at" d="M150.2,7.81a.14.14,0,0,1-.07-.17c-.19,0-.49,0-.5-.1-.38.11-.61.12-1,.24-.07,0,0-.06-.06-.11s-.13.09-.25.11.21,0,.25.07C149.1,7.56,149.68,8.08,150.2,7.81Z"/><path class="au" d="M127.86,7.87c.13,0,.28,0,.25-.1S127.82,7.76,127.86,7.87Z"/><path class="av" d="M142.48,7.87h.32V7.74C142.58,7.72,142.43,7.75,142.48,7.87Z"/><path class="aw" d="M144.17,7.87c.11,0,.15-.06.13-.14.17,0,.13.07.19.11s.22-.18.31-.27c-.19-.16-.44,0-.69.07s.07-.06-.07-.1h-.38a.36.36,0,0,1-.06.27C143.69,7.89,144.1,7.79,144.17,7.87Z"/><path class="ax" d="M58.77,7.81c.1.11.33,0,.49,0C59.18,7.66,58.92,7.79,58.77,7.81Z"/><path class="ay" d="M65.54,7.74c-.13-.18-1.1-.11-1.33,0C64.46,7.94,65,7.73,65.54,7.74Z"/><path class="az" d="M145.74,7.84c.1,0,.11,0,.19,0s-.09-.11-.25-.1S145.73,7.79,145.74,7.84Z"/><path class="ba" d="M148.25,7.84c0-.09-.22-.07-.38-.07C147.88,7.86,148.08,7.84,148.25,7.84Z"/><path class="bb" d="M151.26,7.84c.11,0,.1-.1.31-.07-.09-.1-.4-.08-.63-.11C151,7.76,151.17,7.78,151.26,7.84Z"/><path class="bc" d="M67.11,7.67a3.68,3.68,0,0,0-1.38,0A2,2,0,0,0,67.11,7.67Z"/><path class="bd" d="M135.65,7.71h-.38S135.68,7.84,135.65,7.71Z"/><path class="be" d="M6.27,7.74c0-.11-.3-.11-.56-.1C5.71,7.77,6.15,7.67,6.27,7.74Z"/><path class="bf" d="M69.42,7.74h.25c0-.11-.1-.12-.25-.14Z"/><path class="bg" d="M70.17,7.74s0-.06.06-.07-.34-.08-.43,0A.47.47,0,0,0,70.17,7.74Z"/><path class="bh" d="M70.37,7.71c.25,0,.77.08.74-.11C70.88,7.61,70.43,7.5,70.37,7.71Z"/><path class="bi" d="M72.55,7.71c.38,0,.81,0,1.13-.07A1.67,1.67,0,0,0,72.55,7.71Z"/><path class="bj" d="M74.75,7.67c0-.21-.2-.06-.5-.1A1.11,1.11,0,0,0,74.75,7.67Z"/><path class="bk" d="M75.94,7.64c.11,0,.23,0,.45,0C76.39,7.57,76,7.59,75.94,7.64Z"/><path class="bl" d="M158.09,7.6h.13c0-.09.1-.07,0-.13h-.13C158,7.53,158.11,7.51,158.09,7.6Z"/><path class="bm" d="M97.52,7.43a1,1,0,0,0-.63-.07A.66.66,0,0,0,97.52,7.43Z"/><path class="bn" d="M70.75,7.47c0-.07,0-.09-.07-.14-.17,0-.13.07-.25.07S70.59,7.47,70.75,7.47Z"/><path class="bo" d="M72.93,7.43c.16,0,.32,0,.25-.1S72.92,7.34,72.93,7.43Z"/><path class="bp" d="M68.3,7.29c-.21,0-.31-.08-.32.07S68.31,7.4,68.3,7.29Z"/><path class="bq" d="M74.44,7.33a1.25,1.25,0,0,1-.43,0C73.93,7.44,74.52,7.44,74.44,7.33Z"/><path class="br" d="M105,7.36a.69.69,0,0,0,.31,0C105.31,7.24,104.87,7.21,105,7.36Z"/><path class="bs" d="M83,7.26c0-.12-.29-.1-.5-.11C82.5,7.27,82.77,7.24,83,7.26Z"/><path class="bt" d="M130.69,7.26c.16-.13.45-.19.56-.34C130.69,6.72,130.59,7.14,130.69,7.26Z"/><path class="bu" d="M158.28,7.09a1.69,1.69,0,0,1-.56,0C157.73,7.22,158.36,7.24,158.28,7.09Z"/><path class="bv" d="M114.26,7c-.18-.07-.47,0-.69,0C113.63,7.14,114.26,7.11,114.26,7Z"/><path class="bw" d="M118.59,7.09s0-.06.07-.07-.47,0-.45-.17c-.07.05-.17.08-.18.17Z"/><path class="bx" d="M125.74,7.06c-.1-.16-.72-.18-.81,0C125.14,7,125.57,7.15,125.74,7.06Z"/><path class="by" d="M126.62,7c-.06-.07-.46,0-.38.07S126.48,7,126.62,7Z"/><path class="bz" d="M130.31,7c0-.1-.35-.08-.43,0S130.13,7,130.31,7Z"/><path class="ca" d="M140.35,6.75c-.28,0-.33-.12-.38-.24-.32,0-.95.06-1.06.28a3.8,3.8,0,0,0-.56,0,.82.82,0,0,1-.25-.21c-.08.07-.3.06-.32.17-.23,0-.09-.13-.31-.1,0,.11,0,.16-.07.24a5.22,5.22,0,0,0,2.14,0C139.82,6.86,140.34,7,140.35,6.75Z"/><path class="cb" d="M148.94,7c-.08-.16-.37-.07-.63-.07C148.43,7,148.8,6.92,148.94,7Z"/><path class="cc" d="M133.27,6.92c.06.07.41,0,.38-.07A.64.64,0,0,0,133.27,6.92Z"/><path class="cd" d="M150.51,6.95c.31,0,.59,0,.63-.17C150.8,6.84,150.51,6.71,150.51,6.95Z"/><path class="ce" d="M152,6.85c.16,0,.19-.06.31-.07-.06-.15.14-.16.19-.24s.27.09.37,0c-.22-.24-.9,0-1-.31a.7.7,0,0,0-.31,0c0,.07,0,.11.18.11s-.26.06-.43.07c.09-.06.25-.07.18-.21a1.26,1.26,0,0,0-.56.07s.08.07.18.07c-.08.06-.27,0-.38.1a.39.39,0,0,1-.31-.17c-.38,0-.27.1-.5,0,.13.19-.17.15-.44.17-.06-.09.08-.09.06-.17a3.6,3.6,0,0,0-1,0c-.15.41.88.46,1.19.24a7.27,7.27,0,0,0,2,0C151.9,6.62,151.86,6.77,152,6.85Z"/><path class="cf" d="M108.55,6.78a3.53,3.53,0,0,0-.74-.07C107.93,6.86,108.28,6.79,108.55,6.78Z"/><path class="cg" d="M156.91,6.27c.11,0,0-.11.18-.11,0-.07-.28,0-.31,0S156.88,6.22,156.91,6.27Z"/><path class="ch" d="M119.9,5.76a.16.16,0,0,0-.06-.17c-.11,0-.21.11-.25,0C119.42,5.66,119.64,5.81,119.9,5.76Z"/><path class="ci" d="M160,5.76c.19,0,.45,0,.45-.14.19,0,.14.1.37.07,0,0,0-.1.07-.11-.11-.12-.43-.12-.63-.21.07.16-.18.12-.31.17S159.9,5.71,160,5.76Z"/><path class="cj" d="M162.17,5.62c0-.13-.46,0-.69-.07C161.56,5.77,161.87,5.62,162.17,5.62Z"/><path class="ck" d="M91.62,5.44a.5.5,0,0,0-.49-.1C91.19,5.43,91.4,5.44,91.62,5.44Z"/><path class="cl" d="M161,5.14a1.71,1.71,0,0,1,.63-.28c-.07-.31-.67-.11-1-.28,0-.08.39,0,.45-.07V4.38a2,2,0,0,0-.63-.07c.15.19-.32.27-.5.27a.46.46,0,0,1,.06.31C160.28,5.07,160.92,4.86,161,5.14Z"/><path class="cm" d="M159.41,5.07h.38V4.93c-.15,0-.28.08-.32,0S159.45,5,159.41,5.07Z"/><path class="cn" d="M110.62,4.14c-.07-.09-.33-.07-.56-.07A.83.83,0,0,0,110.62,4.14Z"/><path class="co" d="M7.4,3.84c-.17-.06-1.25-.11-1.13.17.08,0,.55-.09.45.07a5.47,5.47,0,0,0,.74,0C7.28,3.89,7.17,4,7.4,3.84Z"/><path class="cp" d="M91.5,4.08c0-.1-.08-.16-.32-.14A.4.4,0,0,0,91.5,4.08Z"/><path class="cq" d="M75.82,4c0-.09.09-.09.07-.17-.19,0-.13.09-.32.07A.29.29,0,0,0,75.82,4Z"/><path class="cr" d="M69.42,3.94c.15,0,.24,0,.25-.07s-.1-.12.13-.17c-.06-.13-.25,0-.43,0C69.45,3.81,69.49,3.79,69.42,3.94Z"/><path class="cs" d="M70.43,3.94c0-.07-.38-.18-.38,0A1,1,0,0,0,70.43,3.94Z"/><path class="ct" d="M107.93,3.94c-.08-.2.33-.14.43-.24a3,3,0,0,0-1.26-.07A2.11,2.11,0,0,0,107.93,3.94Z"/><path class="cu" d="M4.27,3.91c0-.09-.11-.12-.19-.18a1.35,1.35,0,0,1,.63-.14c-1-.24-2-.08-3.26-.24a1.84,1.84,0,0,0,1.08.21c.11,0,.14.1.24.14C3.52,3.53,3.58,3.93,4.27,3.91Z"/><path class="cv" d="M160.73,3.87c0-.14-.11-.19-.38-.17C160.37,3.81,160.57,3.84,160.73,3.87Z"/><path class="cw" d="M108.68,3.84c.26,0,.24-.17.32-.27-.15,0-.18-.06-.38,0S108.58,3.77,108.68,3.84Z"/><path class="cx" d="M109.75,3.73c-.32.06-.21-.12-.45-.1C109.29,3.78,109.68,3.92,109.75,3.73Z"/><path class="cy" d="M136.65,3.84a.53.53,0,0,0,.37-.24c-.24-.07-.66.07-.81-.1-.23,0-.37.08-.31.24C136.27,3.77,136.51,3.68,136.65,3.84Z"/><path class="cz" d="M117.9,3.8c.26,0,.27-.1.56-.07V3.59c-.13-.05-.37.06-.56.07Z"/><path class="da" d="M161.3,3.8c0-.11-.14-.11-.32-.1C161,3.8,161.18,3.77,161.3,3.8Z"/><path class="db" d="M117,3.73v-.1c-.15-.07-.21.06-.38.07C116.64,3.82,116.77,3.72,117,3.73Z"/><path class="dc" d="M89.36,3.73c.16,0,.16-.14.25-.21s.32,0,.25.07c.25-.08,0-.25-.18-.28,0-.19.27-.26.13-.41-.33,0-.33.28-.25.41a1.12,1.12,0,0,0-.63.17c-.13,0,.15-.07,0-.17a.29.29,0,0,0-.25.28A1.11,1.11,0,0,1,89.36,3.73Z"/><path class="dd" d="M119.27,3.73a.75.75,0,0,0,.32,0C119.58,3.59,119.25,3.62,119.27,3.73Z"/><path class="de" d="M138,3.73c.23,0,.52-.06.5-.24-.16,0-.31,0-.32-.07s.33-.07.32-.21C137.68,3.17,137.75,3.57,138,3.73Z"/><path class="df" d="M91.81,3.7c.29,0,.37-.12.38-.28-.15,0-.14-.06-.32,0S91.71,3.63,91.81,3.7Z"/><path class="dg" d="M132.13,3.7c.08,0,.1-.06.18-.07s-.19-.08-.13-.21c-.19,0-.24.19-.49.21C131.82,3.73,132.06,3.56,132.13,3.7Z"/><path class="dh" d="M134.39,3.36c.16.16-.37.23-.56.21.31.31,1.4-.06,1.69.07.46-.31-.57-.28-.81-.34S134.63,3.41,134.39,3.36Z"/><path class="di" d="M6.27,3.66c.14-.07.6,0,.57-.14s-.4,0-.69,0C6.08,3.64,6.35,3.55,6.27,3.66Z"/><path class="dj" d="M62.28,3.63c0-.09.11-.07.06-.17a1.09,1.09,0,0,0-.43,0C62,3.57,62,3.66,62.28,3.63Z"/><path class="dk" d="M139.34,3.39c.37-.13-.58-.16-.62.11a4.8,4.8,0,0,0,1.06.14c0-.12.22-.09.18-.21a.31.31,0,0,0-.38.07C139.47,3.48,139.43,3.43,139.34,3.39Z"/><path class="dl" d="M74.94,3.59c.25,0,0-.07.06-.14.21-.1.57,0,.76-.07-.21-.31-.61-.11-1.26-.17,0,.07-.13.21,0,.27C74.79,3.49,74.9,3.43,74.94,3.59Z"/><path class="dm" d="M96,3.59c.43,0,.58-.09.7-.24h-.45c-.23-.07,0-.2-.06-.37a.48.48,0,0,1-.45-.18c-.29,0-.36.06-.56.07.31.07,0,.29.38.38-.36,0-.43.08-.5.2.13,0,.13.09.25.11.33,0,.26-.13.56-.11C96,3.46,95.93,3.57,96,3.59Z"/><path class="dn" d="M131.19,3.39c-.26-.07-.82,0-.82.14C130.64,3.6,131.13,3.54,131.19,3.39Z"/><path class="do" d="M7.53,3.52s0-.06.07-.07-.41-.07-.32,0S7.41,3.54,7.53,3.52Z"/><path class="dp" d="M69.49,3.52c.25-.16-.51-.24-.5,0C69.13,3.51,69.44,3.45,69.49,3.52Z"/><path class="dq" d="M73.87,3.52c.29-.09-.2-.24-.43-.27C73.5,3.39,73.72,3.44,73.87,3.52Z"/><path class="dr" d="M93.38,3.46c0-.16-.14-.2-.38-.2a.15.15,0,0,0-.06.17A1.11,1.11,0,0,0,93.38,3.46Z"/><path class="ds" d="M97.83,3.46c.24,0,.07-.18,0-.24s-.24,0-.25.14C97.74,3.35,97.74,3.43,97.83,3.46Z"/><path class="dt" d="M161.1,3.46s0-.09.07-.1-.39,0-.32.07A.56.56,0,0,0,161.1,3.46Z"/><path class="du" d="M108.18,3.39c0-.14-.21-.16-.19-.31a1.12,1.12,0,0,0-.44,0s.15,0,.25,0-.23.08-.19.21A1.11,1.11,0,0,0,108.18,3.39Z"/><path class="dv" d="M144.49,3.39c.17-.13,0-.3-.07-.47-.13,0-.11,0-.13.1-.15-.16-.35-.09-.69-.17.06-.06.17-.09.13-.21h-.63c.08.1.07.14-.13.17,0,.19.78,0,.75.24.19,0,.18-.06.38,0a.18.18,0,0,1-.07.28C144.1,3.37,144.3,3.38,144.49,3.39Z"/><path class="dw" d="M146.56,3.36a.26.26,0,0,0-.25-.17C146.25,3.31,146.38,3.35,146.56,3.36Z"/><path class="dx" d="M108.55,3.32c.33-.16.76-.13,1-.27a5.43,5.43,0,0,0-1.26,0C108.2,3.22,108.6,3.15,108.55,3.32Z"/><path class="dy" d="M132.69,3.32c.09,0,.13-.07.13-.13s-.56,0-.5-.14c-.17,0-.13.07-.25.07.08.11.25,0,.25.17C132.43,3.31,132.69,3.24,132.69,3.32Z"/><path class="dz" d="M145.86,3.08a1.51,1.51,0,0,1-.43.17C145.57,3.44,146.15,3.24,145.86,3.08Z"/><path class="ea" d="M134.89,3.22c-.09-.16,0-.26-.06-.37-.4.22-.79-.1-1.26.1a.15.15,0,0,1,.07.14c.38,0,.72,0,.81.21C134.65,3.29,134.66,3.19,134.89,3.22Z"/><path class="eb" d="M88.3,3.26c.34,0,.42-.11.75,0a.32.32,0,0,0-.25-.31,1.1,1.1,0,0,0-.57.21A.13.13,0,0,1,88.3,3.26Z"/><path class="ec" d="M92.44,3.26c.21,0,.21-.16.43-.17,0,0-.07-.06-.06-.1-.17,0-.71,0-.7.17A.31.31,0,0,1,92.44,3.26Z"/><path class="ed" d="M93.25,3.19c.06-.12-.25,0-.38-.07S93.09,3.19,93.25,3.19Z"/><path class="ee" d="M118.28,3.12c.08-.11-.21,0-.13-.14-.08,0-.1.06-.19.07C118,3.1,118.16,3.09,118.28,3.12Z"/><path class="ef" d="M125.48,3.08C125.42,3,125,3,124.86,3A.67.67,0,0,0,125.48,3.08Z"/><path class="eg" d="M139.79,3.12H140V3h-.25S139.79,3.07,139.79,3.12Z"/><path class="eh" d="M138.47,2.81c-.23,0-.35-.08-.5,0S138.51,2.94,138.47,2.81Z"/><path class="ei" d="M111.63,2.88c.42,0,.66.06.69-.17-.46.06-.5-.11-.88-.11A2.79,2.79,0,0,1,111.63,2.88Z"/><path class="ej" d="M145.3,2.77c.09.09.26-.06.38-.07s0,.06.06.1c.33,0,.36-.17.76-.14,0,0,0-.09.07-.1s-.47,0-.57-.14.36,0,.5,0c0,0,0-.06.07-.07s-.33-.06-.45-.1,0-.13.13-.14a1.62,1.62,0,0,0-.75,0c.25.14-.11.22.13.38-.09.12-.26.09-.5.07C145.09,2.64,145.43,2.72,145.3,2.77Z"/><path class="ek" d="M147.88,2.81c.26-.09.3-.22.74-.17,0-.1.09-.09.07-.17a3.6,3.6,0,0,1-.88.07C148,2.62,147.73,2.74,147.88,2.81Z"/><path class="el" d="M146.74,2.67H147c0-.07-.17-.06-.19-.14S146.76,2.62,146.74,2.67Z"/><path class="em" d="M138.22,2.6c-.08,0-.31-.17-.45-.07S138.07,2.58,138.22,2.6Z"/><path class="en" d="M151.45,2.53c0-.09,0-.14.18-.14,0-.08-.31,0-.43,0C151.29,2.41,151.22,2.56,151.45,2.53Z"/><path class="eo" d="M156.6,2.5c.09,0,.21-.09.24-.18C156.68,2.35,156.44,2.41,156.6,2.5Z"/><path class="ep" d="M158.78,2.46c.13-.11-.07-.34-.38-.34,0,.07-.09.12-.06.24S158.75,2.37,158.78,2.46Z"/><path class="eq" d="M24.77,2.36a9.31,9.31,0,0,0-2.32,0A18.12,18.12,0,0,0,24.77,2.36Z"/><path class="er" d="M156.4,2.43c-.1-.16-.11-.33-.5-.28C156.06,2.25,156.08,2.42,156.4,2.43Z"/><path class="es" d="M37,2.13a3.69,3.69,0,0,0,1-.07C37.82,1.89,37.16,2,37,2.13Z"/><path class="et" d="M39.76,2.09c1.54-.09,2.75-.14,4.07-.14-.11-.23-1.18-.08-1.57,0A8.78,8.78,0,0,0,39.89,2C39.75,2,39.77,2,39.76,2.09Z"/><path class="eu" d="M45,1.78a2,2,0,0,0-.5,0v.11C44.63,2,45,1.94,45,1.78Z"/><path class="ev" d="M85.16,1.92c.23-.11-.14-.17-.38-.14C84.73,1.92,85.2,1.78,85.16,1.92Z"/><path class="ew" d="M45.72,1.81a2.25,2.25,0,0,1-.5,0C45.15,1.92,45.79,1.92,45.72,1.81Z"/><path class="ex" d="M47.35,1.85c-.14-.22-.69,0-1.13-.07C46.43,2,47,1.76,47.35,1.85Z"/><path class="ey" d="M47.54,1.85c.31,0,.43-.06.74,0,0-.16-.47-.08-.74-.1Z"/><path class="ez" d="M49.23,1.81c.06-.12-.27-.06-.32,0S49.2,1.89,49.23,1.81Z"/><path class="fa" d="M50.48,1.61a3.08,3.08,0,0,1-1,.11.13.13,0,0,0-.07.1C49.7,1.86,50.5,1.92,50.48,1.61Z"/><path class="fb" d="M51,1.85c.62,0,1,0,1.26-.17-.39-.05-.9,0-1.33,0C51,1.79,51.09,1.72,51,1.85Z"/><path class="fc" d="M55.13,1.81a5,5,0,0,0-1.82-.1C53.54,2,54.65,1.76,55.13,1.81Z"/><path class="fd" d="M148.44,1.81h.25C148.74,1.68,148.39,1.68,148.44,1.81Z"/><path class="fe" d="M38.38,1.78c.17,0,.32,0,.25-.11S38.37,1.69,38.38,1.78Z"/><path class="ff" d="M39.13,1.74a.15.15,0,0,1-.06-.17c-.15,0-.23.06-.25.14A.73.73,0,0,0,39.13,1.74Z"/><path class="fg" d="M37.63,1.71h.18s0,0-.06,0,.14,0,.13-.1-.16,0-.32,0A.15.15,0,0,1,37.63,1.71Z"/><path class="fh" d="M43.09,1.61c-.11-.12-.67,0-1,0C42.36,1.74,42.68,1.61,43.09,1.61Z"/><path class="fi" d="M57.07,1.64c0-.16-.34-.09-.57-.11C56.55,1.66,56.87,1.61,57.07,1.64Z"/><path class="fj" d="M43.58,1.61h.32C44,1.47,43.53,1.47,43.58,1.61Z"/><path class="fk" d="M58.51,1.57V1.47c-.18,0-.16.05-.32,0C58.25,1.56,58.4,1.56,58.51,1.57Z"/><path class="fl" d="M160.22,1.57c0-.12-.18-.11-.37-.11C159.91,1.54,160,1.57,160.22,1.57Z"/><path class="fm" d="M61.71,1.54s0-.06.07-.07-.37,0-.5,0C61.34,1.53,61.59,1.5,61.71,1.54Z"/><path class="fn" d="M159.79,1.54c0-.13-.39-.11-.44-.24s-.07.15-.32.1A3.23,3.23,0,0,0,159.79,1.54Z"/><path class="fo" d="M48.61,1.51c.07,0,0-.06.06-.11a2.62,2.62,0,0,0-.74,0C48.14,1.51,48.43,1.38,48.61,1.51Z"/><path class="fp" d="M50.1,1.44c-.15-.09-.24,0-.49,0C49.65,1.52,50,1.46,50.1,1.44Z"/><path class="fq" d="M52,1.44a2.35,2.35,0,0,0-1.26-.07A9.35,9.35,0,0,0,52,1.44Z"/><path class="fr" d="M60.71,1.44c0,.08.34,0,.49,0C61.21,1.29,60.91,1.44,60.71,1.44Z"/><path class="fs" d="M64.59,1.37a1.27,1.27,0,0,0-.44,0C64.27,1.44,64.62,1.53,64.59,1.37Z"/><path class="ft" d="M65.41,1.44c.14-.09.66,0,.69-.1C65.87,1.38,65.52,1.27,65.41,1.44Z"/><path class="fu" d="M52.3,1.4a.93.93,0,0,0,.5-.06C52.79,1.23,52.31,1.29,52.3,1.4Z"/><path class="fv" d="M53.06,1.37c.19,0,.39-.06.43-.17-.18,0-.22.11-.5.07,0,0,0,0,.07,0Z"/><path class="fw" d="M91.69,1.37c-.16-.17-.73-.07-.94-.07C91,1.43,91.38,1.28,91.69,1.37Z"/><path class="fx" d="M93.25,1.3c0-.09-.3-.08-.38,0C93,1.35,93.09,1.33,93.25,1.3Z"/><path class="fy" d="M72,1.2c-.14-.08-.22,0-.43,0C71.55,1.31,72,1.36,72,1.2Z"/><path class="fz" d="M81.22,1.27a1.05,1.05,0,0,0-.76-.11A3.09,3.09,0,0,0,81.22,1.27Z"/><path class="ga" d="M84.6,1.2c-.16,0-.14.06-.32,0C84.29,1.33,84.66,1.33,84.6,1.2Z"/><path class="gb" d="M75.2,1.23c-.13-.14-.84-.06-1.08,0C74.42,1.39,74.8,1.11,75.2,1.23Z"/><path class="gc" d="M76.19,1.23c0-.11-.76-.11-.74,0A4.18,4.18,0,0,0,76.19,1.23Z"/><path class="gd" d="M108.55,1.27a.77.77,0,0,1,.38,0c-.11-.07,0-.09,0-.18-.17,0-.16,0-.31,0S108.55,1.18,108.55,1.27Z"/><path class="ge" d="M76.7,1.2c0-.06-.41-.14-.38,0A1,1,0,0,0,76.7,1.2Z"/><path class="gf" d="M78,1.16a1.8,1.8,0,0,0-.76,0C77.27,1.29,77.86,1.24,78,1.16Z"/><path class="gg" d="M126,1.16a8.47,8.47,0,0,1,1,0C127,1,126,.92,126,1.16Z"/><path class="gh" d="M134.08,1c0-.1-.35-.08-.43,0S133.89,1,134.08,1Z"/><path class="gi" d="M136.65,1c0-.11-.14-.11-.32-.11A.34.34,0,0,0,136.65,1Z"/><path class="gj" d="M141.29.75c0-.11-.44,0-.44-.17C140.66.73,141,.82,141.29.75Z"/><path class="gk" d="M158.4.65c.08,0,.14,0,.13-.1a.34.34,0,0,0-.31,0C158.23.61,158.43.57,158.4.65Z"/><path class="gl" d="M154.71.31c.14-.09.37-.14.38-.31-.17,0-.13.19-.43.14C154.59.23,154.73.23,154.71.31Z"/><path class="gm" d="M156.71.17V.07s-.16,0-.18,0,0,.07-.13.07S156.52.15,156.71.17Z"/><path class="gn" d="M155.59.14c0,.08.27,0,.31,0a.13.13,0,0,1-.06-.11C155.7,0,155.71.13,155.59.14Z"/><path class="go" d="M27.22,8.91C27,8.67,26.38,9,26,8.77c0,.07-.3,0-.32.1-.26-.26-1.32,0-1.63-.14a9.73,9.73,0,0,1-1.95.11c-.19.12.57,0,.56.14C24.21,8.95,25.9,8.89,27.22,8.91Z"/><path class="gp" d="M70.93,8.19c.31-.1-.19-.14-.13-.31a1.12,1.12,0,0,0-1,.14,2,2,0,0,0-1.32-.1,12.92,12.92,0,0,0-1.88-.07c0,.22-.93.31-1.06.1-.61-.07-1,.43-1.33,0L63.53,8a.59.59,0,0,1,.57-.28,12.07,12.07,0,0,0-1.95-.07c-.09.19.16.19.18.31-.13.06-.25-.06-.43-.07s-.39.2-.63.27a2,2,0,0,0-1.13.1c0,.09.32.2.38.07.46.34,1.16,0,2,.07.08-.11-.09-.08-.11-.14.15-.09.28.14.49,0a.3.3,0,0,1,.32-.21c.07.13-.23.12-.07.21s.21,0,.38.07a.76.76,0,0,0,.57-.18c.54.49,1.74-.09,2.81.11V8.19h.25c.34.19.86,0,1.19.28a1.41,1.41,0,0,1,.76-.38c.16,0,.09.18.18.24a9.32,9.32,0,0,0,.94-.11,3.83,3.83,0,0,0,.39.21c0-.19.35-.17.49-.27.32,0,.35.19.32.24.52,0,.24-.34.81-.28-.13-.31-.62-.14-1.06-.14C71.07,8,71.19,8.21,70.93,8.19Z"/><path class="gq" d="M9.85,7.6a8.26,8.26,0,0,1,1,.07c0-.09.1-.07,0-.13a6.5,6.5,0,0,0,1.82-.18,12.16,12.16,0,0,0-1.26,0,.13.13,0,0,1-.07.14c-.24,0-.29-.12-.43-.17,0,.1-.26.06-.32,0s.35,0,.39-.07a5.53,5.53,0,0,1-1.2-.14c-.23.09-.29.27-.69.28,0-.06.18-.14,0-.18a5.36,5.36,0,0,1-2,0,7.43,7.43,0,0,1-2.26,0,9.15,9.15,0,0,1-2.51-.1c0-.07-.08-.07-.13-.11A9.25,9.25,0,0,1,3.89,7c-.08-.06-.3,0-.31-.14a6.5,6.5,0,0,0,2.2,0H5.21c-.1-.06-.14-.16-.25-.21C4.06,7,3.13,6.58,2,6.48c0-.11.22,0,.13-.18A6,6,0,0,1,0,5.69c.27,0,.08,0,.19,0a7.27,7.27,0,0,0,2,.28c0,.21.67.12.56.28A8.48,8.48,0,0,1,3.58,6c-.92-.16-1.9-.12-2.32-.65a9,9,0,0,1,1.63,0C3.05,5.24,3,5,3.2,5a4.91,4.91,0,0,1-.76-.07c0-.11.24-.09.25-.21-.57-.12-.93-.24-1.37-.37a18.78,18.78,0,0,0,3.07.14c-.17,0-.42,0-.38-.14.73.17,2.49-.16,2.88.07.23-.25,1.26-.07,1.57-.34-.24-.12-.69.09-.75-.1a7.4,7.4,0,0,1,.95-.07c.29-.42,1.64-.24,2.25-.48a7,7,0,0,0-1.19,0c-.33,0-.81,0-.88-.1,1.8-.09,4.17-.33,6-.27a6.48,6.48,0,0,1,2.38,0c.13-.19.59,0,.63-.21a16.78,16.78,0,0,0,2.51,0c.16,0-.13.12.07.17.37,0,.65-.14,1-.21.06.18.34,0,.38,0s.09.11.31.1a9,9,0,0,0,2.27-.17c-.11-.07.08-.18.31-.18s.08.19.38.14c.07-.11,0-.09-.06-.17A1.38,1.38,0,0,1,26,2.77c.18-.16.8-.09,1-.24.07.16.18.29.57.28.16,0,.13-.16.31-.17a1.19,1.19,0,0,0,.43.1c.14-.15.76-.1.7,0,.51-.1,1,.08,1.32-.17.46.35,1.4-.23,2,0,.26-.21-.28-.25-.43-.34a22,22,0,0,0,2.7-.21,1.84,1.84,0,0,1,.49.07c-.08,0-.3,0-.31.1a1.91,1.91,0,0,0,.88.72c-.11-.16.15-.19-.13-.31.25-.13.53,0,.81-.14.1-.05-.1-.26.07-.34s.3,0,.49,0,.13.36.38.44.09-.11.25-.11a3.25,3.25,0,0,0,.7.18c0-.07-.25,0-.19-.14s.13,0,.13-.11a2.51,2.51,0,0,0,1.32-.17,1.9,1.9,0,0,0,.81.14c1-.21,2,0,3.08-.14,0,.13.26.15.5.17,0-.11.09-.13.13-.2.45.09.69,0,1.06,0,.17,0,.5.28.63.28.34,0-.06-.11,0-.17a1.18,1.18,0,0,1,1-.1,2.52,2.52,0,0,1,1.51.07c0-.11.08-.14.18-.17l.38.2c0-.18.14-.05.32-.07a.09.09,0,0,1,0-.17c1.35,0,2.91,0,4.13-.14.76.17,1.5-.12,2.07.17a11.63,11.63,0,0,1,2.13-.14.16.16,0,0,0,.13.17.39.39,0,0,0,.32-.17A10.58,10.58,0,0,1,60,2.13c0-.13.17-.14.31-.18.24.11.58.49.88.34-.06-.06-.23-.06-.25-.14.53-.37,1.57-.1,2.32-.24.1,0,.09.11.25.1a1.44,1.44,0,0,1,.94,0,4.89,4.89,0,0,1,.5-.17c.22,0,0,.32.31.27-.07,0-.07-.12-.06-.21s.15-.07.31-.07c.11.19.9,0,1,.21,0-.26.63,0,.63-.28a3.12,3.12,0,0,1,1.44.28c-.1-.06,0-.21.13-.24s.07.21.31.21c0-.19.37,0,.5-.17.16.21.39,0,.74,0V1.78c.39,0,.71.22.88,0a4.17,4.17,0,0,1,1,.17c.18,0,.15-.14.32-.17.27.18,1.29,0,1.68,0,0-.09.09-.13.25-.14a9.09,9.09,0,0,0,2.7,0c0,.16.36.17.69.17,0,0-.08,0-.06-.1,1.17.13,2.28-.17,3.19.1.21,0,.13-.18.38-.17a16.38,16.38,0,0,0,2.45.17c0,.09-.31.13-.13.18a18,18,0,0,0,1.88-.07c.13,0,0,.11.19.1a.75.75,0,0,1,.18-.21c.39.06.9.28,1.13.07.66,0,1.66.23,1.63,0,.26,0,.09.25.5.17,0,.19.24.21.38.31,0-.09-.13-.11.07-.06,0-.08-.19-.08-.25-.14.37,0,.43-.11.5-.24.5.24,1-.09,1.69,0,.11,0,.09-.15.31-.14a2.42,2.42,0,0,1,1.13.27c-.06-.13.07-.17.06-.27,2,0,3.6-.09,5.46-.07a.28.28,0,0,0,.25.1,5.52,5.52,0,0,1,1,0c0-.07.18-.06.13-.18.35.09.67,0,.95.07,0-.09-.1-.07,0-.14.29,0,.71-.06.94.14.27,0,.27-.08.38-.14a1.17,1.17,0,0,0,.63,0c.16.13.29.11.56.14V1.54a6.74,6.74,0,0,0,2.25-.1,4.92,4.92,0,0,0,2,0c0,.15.33,0,.5,0s-.08.18.06.17c1.06-.14,2.68,0,3.64-.14,0,.11.16.09.25.14a1,1,0,0,1,.25-.11c.47.34,1,.09,1.75,0,.18,0,.15.15.31.18a1.64,1.64,0,0,0,.82-.11c.06.07-.19.12,0,.14a6.07,6.07,0,0,0,.76,0c0-.09-.25,0-.19-.14.24,0,.48-.12.63-.07s0,.13,0,.21c.32.08.77,0,1.13,0,.1-.09-.13-.19.18-.21,0,.09,0,.2.13.21s.15-.17.38-.17c0,.12.13.16.18.24.8.06,1.2-.43,1.89-.21,0-.05.08-.07.06-.14a21.88,21.88,0,0,1,2.2.1c.54-.3.95.14,1.44.17.19,0,.16-.21.38-.24.16.12.51-.07.81,0,.09,0,0,.13.13.14s.22.07.43,0c.08.06,0,.2.13.24a1.21,1.21,0,0,1,1-.14,1.6,1.6,0,0,0-.25.1.68.68,0,0,0,.19.14,6.59,6.59,0,0,0,.81-.1c-.24-.06.21-.2.38-.24,0,0,0,.1.06.11a3.81,3.81,0,0,1,1.64-.11c.15.15-.22.2.06.27-.07-.22.32-.19.45-.31,0,.1.06.17.24.24.22-.14.31.09.64.07,0,.16-.33.17-.5.24.3.17.94,0,1.12.14-.29.21-1,0-1.32.17,0-.06.09-.09,0-.1s-.35.06-.5.1a2.81,2.81,0,0,1,.38.21c-.24.26-.8.34-1,.62a.68.68,0,0,1,.32,0c-.14.36-.52-.13-.82.14.38,0,0,.13.25.14.41,0,.51-.06.75.07,0-.07.06-.11.19-.11,0,.34,1.09.39.81.66-.14-.06-.48.06-.5.17a.36.36,0,0,0,.13.1c.37,0,.32-.17.63-.17.15,0-.11.1.07.14s.72-.12.56-.31c.19,0,.15.06.25.07a.88.88,0,0,0,.13-.21,2.07,2.07,0,0,0,.81-.18c-.1-.07,0,0,0-.14s-.22.11-.25,0a1.25,1.25,0,0,1,1.19.24c-.16,0-.26-.1-.31,0s-.06,0-.07.07c.61.15,1.05-.29,1.57,0,0,0,.09-.07.07-.14.19,0,.54,0,.56.07s-.08.11-.19.14c.27.12.46-.09.7,0s0,.1.06.21c.49.26,1.14,0,.19-.07,0-.07-.11-.17,0-.28.31,0,.29.16.5.2s.64,0,1-.13c.07,0,0,.12.19.1s.23-.13.06-.21c1,.06,1.75-.12,2.7-.07-.11-.29.45-.21.56-.38,0-.12,0-.28-.13-.37a1.78,1.78,0,0,1-.69.07.69.69,0,0,0-.63-.21c0-.08.11-.1.07-.21a4,4,0,0,1-.5,0c-.09-.12.17-.06.13-.17s-.16,0-.32,0-.38.25-.81.24a.72.72,0,0,0-.25-.24c.43-.06-.31-.32.25-.41-.34,0-.73-.11-1,.07-.21-.11-.41-.29-.31-.38a4.1,4.1,0,0,1-.7,0s.1.06.07.14-.56,0-.75.1.1.15.13.24c-.24,0-.53,0-.87,0a2.58,2.58,0,0,1-.45.48s0,0-.13,0c.09-.19-.06-.18-.06-.37-.18,0-.36,0-.32-.14s.41,0,.38-.1c-.23-.21-1.08-.18-.94.1.3,0,.54,0,.5.18-.29,0-.37-.08-.63-.07-.07-.19-.33-.28-.63-.34-.06.08-.15.14-.13.28s.33,0,.32.1-.42,0-.45.14c.16.09.1.19-.06.27a1.47,1.47,0,0,0-.56-.11c0-.24,0-.47.18-.51a.21.21,0,0,0-.25-.17c.09,0,0,.11-.13.1s.11-.14.07-.27c-.37.06-.27,0-.63,0a2,2,0,0,1,1.06-.31c.11.06,0,.08,0,.17.18.07.22,0,.5,0a2.36,2.36,0,0,0,.38.34c.33,0,.39-.11.63-.14-.08-.12.15-.14-.07-.28.24,0,.3-.11.5-.13a1.76,1.76,0,0,0,1.06,0,1.41,1.41,0,0,0,1.19-.11h.19c.1,0,0,.16.13.17s0-.21.49-.17c.13.16-.24,0-.18.17.3,0,.17-.16.43-.13.26.33.73,0,1.44.07.17.06,0,.11.13.17s.45,0,.45-.17-.18.06-.38,0V1.2a2.71,2.71,0,0,1,.5.14.52.52,0,0,1,.25-.14c.31.15.46,0,.81,0,.15,0,.07.1.18.11A15.71,15.71,0,0,0,143.55,1c.08,0,0,.17.18.18a6.9,6.9,0,0,1,1.32,0c0,.06-.31,0-.25.11.39.15.29-.23.69-.18.13.06,0,.09,0,.21a2,2,0,0,1,.5.14c.26-.17.34-.43.69-.55.17.16.85,0,1.26,0,.09.13,0,.26.38.17-.08.16-.11.4.31.38-.13.13,0,.17.13.24-.21,0-.62.14-.94,0,.29,0,.33-.25.19-.34-.47,0-.66.18-.63.38a2.8,2.8,0,0,0-.63.1c0,.13.27.26,0,.31s-.28-.19-.43-.28-.16,0-.25,0c0-.21-.47-.2-.63-.34a.11.11,0,0,0,0,.21c-1,.07-2,.14-3.33.14,0,.07-.16.12-.13.24-.58,0-.74-.06-1.25,0,0,0,.07-.17-.07-.17-.57-.11-.7.23-1.19.28.17.06.32.12.25.31.57,0,1.05.49,1.57.21.16.09.57,0,.88.1,0,.06-.07.07-.07.14-.38,0-.67,0-.74.21.33.19.74.14,1.12.31-.29.07-.37.26-.81.24,0-.14-.31-.29-.56-.18,0,.09,0,.19.13.24s.15,0,.38,0c0,.13-.23.09-.19.21a1.25,1.25,0,0,0,.69.1c.1.14.33.2.19.38a.37.37,0,0,1,.31.17,2.84,2.84,0,0,0-.5.28c.13.07.39.06.45.17-.14.19.09.44,0,.59.24,0,.29-.23.5-.18a.4.4,0,0,0,0-.51.85.85,0,0,0,.44-.1c-.3-.06-.14-.36-.38-.45s-.61,0-.69-.14a5.41,5.41,0,0,1,.5-.21,1.41,1.41,0,0,0,.63,0c.09,0,.09.13.18.17.34-.09.53-.28,1-.13,0-.33-.42-.38-.82-.28,0-.07-.07-.07-.06-.14.26,0,.26-.18.56-.07a.13.13,0,0,1,.07-.14c.4,0,.67.09,1.12.07.06.08.06.19.25.21a.16.16,0,0,0,.13-.21c.25,0,.34-.06.5,0-.11.12,0,.39.13.51.15-.07.37,0,.56,0s.35-.17.38-.34c-.23,0-.11-.09-.31-.07s-.11.14-.19.21h-.31c.06-.19.29-.19,0-.31.86,0,1.67.27,2.13-.24,0-.15-.41-.12-.38-.31.21,0,.29-.16.45,0-.13,0-.34.06-.19.07a1.27,1.27,0,0,1,.63,0c.06.18-.28.14-.25.31a5.72,5.72,0,0,1,2.07.1c0,.06-.17.18,0,.21a2,2,0,0,1,1.38-.38.3.3,0,0,0-.32.21c.3,0,.17.08.25.1.3,0,.31-.29.7-.17.22-.09-.08-.47.25-.41-.1,0-.1.16,0,.14s.16-.18.18-.1c-.15.19.08.45-.43.54.23,0,.34.28.62.21,0-.15-.25-.16-.37-.24.1,0,.14-.06.11-.14.18,0,.16,0,.32,0-.08-.16.22-.11.25-.21s-.24,0-.25-.06l.43-.11c-.34-.24-1.17-.23-1.37-.55.31,0,0,.12.25.14s.49,0,.62-.14a3.11,3.11,0,0,1-.81-.17c0,.07-.19.07-.06.14a1.29,1.29,0,0,0-.88,0,.68.68,0,0,0-.13-.21c.08,0,.15,0,.13-.07.47,0,.87.14,1.06-.14-.33,0-.93,0-1.32,0,.27,0,.16-.12.38-.11s.17.09.38.07.93-.22,1.12,0c.16,0,.06-.17.32-.14-.29.28.46.31.74.48,0,.06-.15,0-.11.11.23.16.61.24.81.41-.16,0-.31,0-.32.07s.14.22.25.31a.44.44,0,0,1,.32-.14c0,.13,0,.31.31.38.11,0,.15-.06.13-.14a1.85,1.85,0,0,0,.45,0c-.06.09-.1.16.06.21.24-.19.49,0,.88,0-.06-.27-.15-.59.13-.69,0-.16-.4-.1-.63-.14.11-.17-.23-.11-.25-.21.53-.18.92.45,1.57.21,0,.11-.11.12-.07.24s.18.08.38.07c-.13.17.16.16.25.24-.57.09-1.17,0-1.12.41.35-.11.69-.22,1.06-.31,0,.07-.08.22.06.24s.48-.11.69,0c0-.05-.25-.16,0-.14s0,.26.38.17c0,.07-.07.08-.06.14.17.12.43,0,.63.07,0,.21-.56.17-.81.27-.1-.1-.16,0-.38,0-.06-.08,0-.19-.19-.21-.39.06-1,0-1.19.17.22,0,0,.3.31.31a1,1,0,0,0,.25-.1c0-.1-.19-.09-.25-.17.4.06.89-.25.88.1-.16,0-.37-.07-.38,0s-.42.2-.38.44c.37-.06.29.12.57.11s0-.16.25-.14c-.09.14-.11.14-.07.31a.44.44,0,0,0-.31.07c.32,0-.17,0-.07.14.47,0,0,.21.32.24a.93.93,0,0,1,.49-.1c0,.14.25.11.26.24s-.39-.08-.5,0c.17.09.33.26.11.38a.64.64,0,0,1,.26,0c.06.14-.19.11-.14.24s.31,0,.26.1a1.94,1.94,0,0,1-.82.21c.08-.16-.15-.15-.31-.17.13-.25-.25-.23-.38-.34.31-.16.8,0,1,0,0-.29-.17-.33-.38-.54-.39,0-1,0-1.13.31-.22,0-.2-.16-.5-.14.1.1,0,.17,0,.24a1.9,1.9,0,0,1-.56,0c0-.07.08-.22-.07-.24-.49-.06-.61.24-.38.38-.31,0,0,.28.07.31a1.52,1.52,0,0,1-.81.07c-.06.12-.06.27-.38.24,0-.23-.27-.29-.56-.34.17.16-.26.14-.14.38-.14,0-.13-.06-.31,0,0-.14.22,0,.18-.14a1.45,1.45,0,0,1-.49,0c.06-.12.29-.19.13-.34.74,0,1.21.28,1.94,0,0-.16-.45-.28-.45-.34s.25,0,.19-.07a.6.6,0,0,0-.5.14,3.11,3.11,0,0,1-.82-.17s0,0-.06.07.16,0,.13.1-.32,0-.31.14a3,3,0,0,0-.94-.07c0-.16.11-.26.31-.31a5.41,5.41,0,0,0-1.57.07c0,.22.23.08.5.1.06.15-.29.19,0,.27a.93.93,0,0,1-.7-.11,4.83,4.83,0,0,1-1.32,0c0-.08.1-.13.07-.24-.23,0-.1-.13-.31-.11s-.21.21-.26.34a3.38,3.38,0,0,1-1.37,0,1.52,1.52,0,0,1-1,.07l.19-.1a2.51,2.51,0,0,0-1.19.1l.74.07c0,.1.33.23.57.31-.25,0-.62.12-.76.14s.07.08.06.14a1.09,1.09,0,0,1-.56-.11,3.73,3.73,0,0,1-1,.07c.11.07,0,0,0,.14-.3-.06-.55-.19-.74-.21.26-.07.33-.25.43-.41-.48.11-1.16-.06-1.44.17.14-.08.24,0,.43,0-.23.2.49.07.5.24-.23-.06-.16,0-.25.11a1,1,0,0,0-.5,0c0-.16-.21-.21-.38-.27.17-.53-1.42-.16-1.75-.41,0,.44.74.37.88.72-.32,0-.78,0-1.08,0a.5.5,0,0,0-.18-.59,1.85,1.85,0,0,1-1,0c-.26.21-.86,0-1.12.21-1.25-.07-2.57-.07-3.89-.11-.17.11-.49.14-.69.24a.27.27,0,0,0,.18.1c.06-.13.85-.12.5,0,.31-.11,1.08-.17,1.26,0-.46,0-.77.11-.82.34-.29,0-.57,0-1,0,0,.06-.08.08-.07.14.55,0,.47,0,.88,0-.17.21-.71.11-1.13.11.07-.19-.28-.14-.38-.24s.11-.1.07-.2a13.39,13.39,0,0,1-2.88-.21.14.14,0,0,1,0,.24c-.16,0-.14-.06-.31,0-.09-.16.13-.16.24-.21-.15,0-.07-.1-.18-.11-.46.09-1.33-.11-1.13.34a1.32,1.32,0,0,0-.5.1c.09,0,.13.07.13.14-.5.11-1.3,0-1.82.14-.06.13.24.06.19.17a6.67,6.67,0,0,0-.81,0c0-.17.47-.06.49-.21-.22,0-.22-.08-.31-.14,0,.19-.47.06-.63,0,.08-.1,0-.28-.18-.41-.7,0-.58-.34-1-.48-.15,0-.13.06-.31,0s-.14-.17-.18-.24a.28.28,0,0,0-.25.11c.55.07.26.61,1.06.55,0,.07.1.12.06.24a8.32,8.32,0,0,1-1.37.07.47.47,0,0,0-.32-.24c-.24,0-.47-.11-.62,0,.06.08.33.15.18.24-.57-.07-1-.21-.81-.55-.37-.07-.52.09-.82.14-.07,0,0-.15-.25-.14-.48,0-.3.26-.37.34.18,0,.23,0,.37,0s.24.11.25.24a6.14,6.14,0,0,1,1.76.21,3.15,3.15,0,0,1-1.13,0c-.64.27-1.13-.25-1.57-.07.06.06.29.06.13.14a6.33,6.33,0,0,1-1.5-.17c0,.11-.11.17-.31.17s-.06-.11-.25-.07c0-.49-1-.5-1.51-.28-.11,0,0-.16-.13-.17s-.34.06-.25.24c-.62.11-1.27.18-2.13.28-.1-.07-.13-.19-.25-.24a9.2,9.2,0,0,1-1.32-.1c-.07-.12.21-.07.25-.14-.13-.06,0-.06,0-.17a1.08,1.08,0,0,1-.5-.07c0,.1-.23.08-.19.21.35-.06.24.25.13.34a8.21,8.21,0,0,0-.88,0v.14c-.45-.06-.72,0-1.12,0,0-.12.32-.08.38-.18s0-.14,0-.27a.57.57,0,0,1-.38-.07c.53,0,1.64.21,1.82-.17-.56-.1-.53,0-.88.11s-.65-.08-.94,0a8,8,0,0,0-.88.21,2.31,2.31,0,0,0,.5,0c.16.07.11.26.31.31a1.31,1.31,0,0,1-1.19-.11c-.09.23-.42.11-.74.21,0,.08-.11.1-.07.21-.21,0-.47-.09-.56,0-.1-.07,0,0,0-.14-.17-.11-.47,0-.63-.07,0-.21.64-.08.63-.31a.83.83,0,0,0-.57-.24c0-.09.13-.11-.06-.14h-.43c-.16,0,.06-.12-.07-.14a1.45,1.45,0,0,1-.63.07c.15.15-.22.18-.5.14.17.09-.09,0-.06.14s.07,0,.06.07c.37,0,1.18,0,1.39.34-.31,0-1,.13-1.19-.11a1.67,1.67,0,0,1-.63.14c-.17-.06-.21-.18-.43-.21s-.13.18-.19.24c-.28-.08-.33.09-.56,0a1.58,1.58,0,0,1,.38-.79c-.16-.14-.33-.31-.25-.41-.22.15-.63.19-.69.41s.15.07.31.07c-.11.1-.17.22-.43.24-.18-.25-.31-.19-1-.21,0,.06-.07.07-.07.14-.29,0-.45-.08-.56,0,.1.27.62.09.88.11,0,0-.1-.06-.13-.11a1.51,1.51,0,0,1,.43,0c0,.29-.38.23-.5.41a3,3,0,0,0,.45.17,9.7,9.7,0,0,0-2,.07,2.77,2.77,0,0,0-1.19,0c.17.09,0,.12-.06.21-.32,0-.29-.38-.7-.24a.47.47,0,0,0-.49-.21.22.22,0,0,0-.19.17c-1.43.14-3.4.09-5.14.14a.82.82,0,0,1-.63.28c.24-.19-.08-.29.13-.44-.22,0-.26.06-.38,0s.11-.26-.18-.31c.17.21-.14.24-.13.44a3.48,3.48,0,0,1-.82.07c-.09-.06-.08-.16-.18-.21a4.57,4.57,0,0,1-.69,0c0,.1-.13.12-.19.18s.14,0,.13.1c-.59,0-1.82,0-2.38,0a.8.8,0,0,1-.45.24c-.09-.21-.46,0-.62-.07s.25-.15.06-.17c-.62.06-2,0-2.56,0a2,2,0,0,1-.5-.69c-.09.19-.24.16-.5.27-.13-.07-.14-.2-.38-.21s-.1.15-.25.18a1,1,0,0,0-.76.06,13.69,13.69,0,0,0,1.76,0c-.31.24-.1.31-.63.38,0-.09,0-.2-.13-.21-.64,0-1.19-.11-1.51.14-.09-.05,0-.2-.24-.18a.59.59,0,0,0-.19.07,1.67,1.67,0,0,1,.19.14h-.5s.07-.17-.07-.17H81c-.16,0,.07.12-.07.14-.38-.13-.19-.56-.62-.65,0,.17-.23.17-.38.24.13.11,0,.06-.07.1s.41.07.56.14v.14c-.3,0-.23-.14-.49-.14,0,.11-.17.12-.13.24a4.77,4.77,0,0,0-1.38-.11c0-.09,0-.2-.13-.21s.11.14,0,.21a6.62,6.62,0,0,1-.69.11c-.17-.09-.39-.16-.56-.24.08,0,.21-.17.06-.2-.09.15-.17,0-.38,0,.07.12-.13.11-.18.17s.14.1.06.21a10.14,10.14,0,0,0-2,0c0-.08,0-.13-.13-.14-.06.19-.48,0-.5.17-.26,0-.48-.1-.56-.24-.26.21-1,.13-1.19.28.07.06.24.11.11.17a4.66,4.66,0,0,1-1.93-.34c-.22.08-.54.1-.57.27h-.31c-.1,0,0-.17-.19-.14a1.29,1.29,0,0,1-.74.24.13.13,0,0,1,.06-.14c.06,0,.31.09.32-.11-.42,0-1.31,0-1.69,0,0,.1.19.12.13.27-.45-.1-.84.07-1.26,0-.22,0-.15-.13-.25-.17a.79.79,0,0,0-.88.17c-.79,0-1.3-.06-1.82,0-.23-.13,0-.17.13-.31a.62.62,0,0,0-.25,0c.11.38-.52.39-.87.24,0-.11,0-.16.06-.24-.23,0-.16-.14-.43-.1.06.21.11.15-.07.31.19,0,.41,0,.38.11-1,.08-2.45,0-3.76.07a4.28,4.28,0,0,1-1.69,0c0,.11-.19.07-.31.1-.69-.09-1.3.09-2,0,0-.11-.42-.33-.7-.27.17,0,.28,0,.25.1a1.38,1.38,0,0,1-.75.17c0-.06.09-.09,0-.1a2.57,2.57,0,0,0-1.63.21.74.74,0,0,0-.32,0c-.1,0,0-.16-.11-.17-1.21.44-3.64.09-5.33.28a1.75,1.75,0,0,1-.25-.14c0,.06-.31,0-.25.1a12.15,12.15,0,0,1-1.89,0c-.16,0-.27.1-.43.1s-.32-.07-.5-.07c-2.54,0-5.25.24-8.21.21,0-.12,0-.22-.44-.21a.13.13,0,0,1-.07.14c-1.6,0-4,.19-5.52.07.1,0,.1-.19,0-.17H28c0,.06.08.07.07.14a60.86,60.86,0,0,1-6.65.17,23.71,23.71,0,0,0-3.82.14c.07,0,.17,0,.18,0-.47,0-.65-.06-1.19,0-.09-.14-.15-.12-.38-.14s.11.11-.06.14-1-.09-.63.11c-1.61-.11-2.69.19-4.2.14-.14-.17,0-.09,0-.31a30,30,0,0,1,3.76-.31c.07,0,0,.13.18.1a13.58,13.58,0,0,1,1.69-.1c-1.93-.39-5,.34-6.83-.11A3.26,3.26,0,0,1,8,7.74a3.26,3.26,0,0,0,1.25-.1c.22,0,.31.16.57.17Zm31.23-.06a1.07,1.07,0,0,1,.45,0,.53.53,0,0,0-.38-.14A.13.13,0,0,0,41.08,7.54Zm2.45-.07c-.45,0-.93-.21-1.13,0A2.81,2.81,0,0,0,43.53,7.47Zm-30.66,0c.25-.07.64-.06.87-.14A1.4,1.4,0,0,0,12.86,7.47Zm1.95-.11c-.06-.21-.62,0-1-.07C13.87,7.64,14.34,7.29,14.81,7.36Zm1.44,0V7.22c-.37,0-.5.09-.88.07C15.48,7.47,16,7.35,16.25,7.36Zm47.85,0c0-.13-.29-.12-.38-.07A.87.87,0,0,0,64.1,7.4Zm-43.65,0c.06,0,.06,0,.06,0s.37.06.45-.07c-.24-.2-.86,0-1.06-.21-.07.06-.24.06-.19.17a3.77,3.77,0,0,0,.76,0C20.46,7.32,20.34,7.29,20.45,7.36Zm-2.51-.07c-.29-.07-.11-.19-.5-.21C17.51,7.21,17.58,7.34,17.94,7.29Zm72.68,0c.14-.07-.06-.12,0-.24-.21,0-.34,0-.38.14s-.39-.13-.5,0C89.88,7.27,90.38,7.2,90.62,7.26ZM69.8,7.09c0-.08-.11-.11.07-.14,0-.07-.33,0-.38,0S69.59,7.1,69.8,7.09Zm24.77,0h.25c.07-.08.16-.14.13-.27s-.13.06-.25.06-.07,0-.13,0,.09-.06.19-.07c-.08-.15-.31-.22-.7-.21a1.64,1.64,0,0,1-.76.31c.25.13.67,0,1,0A.48.48,0,0,1,94.57,7.09ZM87.36,7a1,1,0,0,0-.5-.14c.08-.08.25-.11.19-.27-.3.11-.75.12-.88.31.06,0,0,0,.06.07A3.84,3.84,0,0,1,87.36,7Zm-25.65,0a.21.21,0,0,0,.19-.17.56.56,0,0,1-.38-.14c.14,0,.29-.15.13-.24a2.68,2.68,0,0,0-.69.14c.14.06,0,.16.18.31s.06-.13.18-.14S61.59,6.87,61.71,6.95Zm23.83,0c.13,0,.21-.16.06-.17S85.49,6.93,85.54,6.95Zm15,0H101c0-.09.1-.14.19-.27s-.46-.13-.38-.34c-.11,0-.26,0-.32-.07C100.37,6.44,100.8,6.77,100.53,6.95Zm11.79,0v-.1c-.18,0-.23,0-.38,0C112,7,112.07,6.91,112.32,6.95Zm-52.61,0c.14,0,.22-.09.18-.21-.28,0-.18.1-.43.07C59.4,6.91,59.73,6.81,59.7,6.92Zm40.5,0c0-.11-.07-.17-.25-.17,0,0,0,.06-.06.07A.75.75,0,0,0,100.21,6.92Zm-11.53,0c0-.08-.1-.11-.13-.17C88.2,6.72,88.3,6.92,88.68,6.88Zm.5,0c0-.1-.16-.1-.32-.1s-.07,0-.06.1S89.15,6.92,89.18,6.85Zm1.32,0c0-.13-.34,0-.5-.06C90,6.95,90.33,6.86,90.49,6.88Zm38.13,0c.39-.12,1-.12,1.13-.37a4.29,4.29,0,0,0-1-.1C128.79,6.61,128.56,6.67,128.62,6.88Zm-26.52,0s.1-.06.13-.1-.43-.13-.76-.14.21.11,0,.17A4.39,4.39,0,0,0,102.1,6.85Zm-31.67-.1h.19c0-.15-.18-.37-.63-.34C70.15,6.51,70.49,6.52,70.43,6.75Zm-18.5-.11s-.33-.14-.06-.14c-.23-.13-.27.13-.5.11C51.37,6.72,51.82,6.69,51.92,6.64Zm4.32,0c0-.16-.19-.06-.43-.07C55.89,6.67,56.15,6.64,56.25,6.68Zm71.49,0c.16,0,.41-.23.7-.27-.19-.12-.45,0-.76,0C127.62,6.46,128,6.55,127.74,6.64Zm-12.92,0c.37-.2.64.07,1-.07V6.41c-.16,0-.08,0-.06.07-.21-.06-.42-.12-.5-.24C114.83,6.22,114.56,6.44,114.82,6.61Zm17.13,0c.11-.06.46,0,.37-.17s-.16,0-.37,0Zm1.75-.07c.21.1.66,0,.81,0C134.56,6.29,133.94,6.35,133.7,6.54ZM80,6.3a5.85,5.85,0,0,0-.81.11C79.22,6.62,80.06,6.57,80,6.3Zm-10.85,0c-.15,0-.3,0-.25.14S69.3,6.43,69.11,6.34Zm7.71.17c.09,0,.19,0,.19-.14-.17,0-.33,0-.32.11S76.81,6.48,76.82,6.51Zm40,0c.16,0,.26,0,.24-.11S116.77,6.36,116.83,6.48Zm9.66,0c.19,0,.08-.09.06-.17s-.11.09-.31.07C126.21,6.43,126.47,6.37,126.49,6.44Zm-5.46,0c.08,0,.23,0,.31-.07s-.3-.14-.43-.07C120.93,6.32,121.1,6.3,121,6.41ZM88.17,6.34c0-.08-.22-.07-.18-.18a.65.65,0,0,0-.25,0c0-.11.21-.12.18-.24a.77.77,0,0,0-.56,0c0,.1.13.2.06.27C87.69,6.32,87.88,6.18,88.17,6.34Zm2.7,0h.18c.08-.12.1-.36-.18-.38C90.93,6.13,90.88,6.15,90.87,6.34Zm-4.45-.24a1.89,1.89,0,0,0-.45,0C86,6.36,86.5,6.32,86.42,6.09Zm25.33.21c0-.14,0-.46-.63-.41v.21C111.47,6.09,111.4,6.31,111.75,6.3Zm22.32-.58c-.14.14-.34,0-.63,0-.1-.19.24-.12.19-.27a3.8,3.8,0,0,1,.49,0c.13-.07,0-.07-.06-.14s.29,0,.5-.1-.16.12.06.14c-.32,0-.71.22-.31.38.17-.07.26-.2.43-.27s.21.09.45.07c.06,0,.06-.12.18-.14a3.39,3.39,0,0,0,1.44,0c.17,0,0,.19.25.17s-.16-.14-.07-.31c-.18,0-.18.06-.37,0a1.35,1.35,0,0,0,.44-.41,14.39,14.39,0,0,0,1.69,0c0-.14.06-.25.06-.51-.15.18-.53.24-1.06.21-.1-.13-.32,0-.31-.21a1.29,1.29,0,0,1-1,.17c0,.06.06.06.07.11s-.11,0-.14,0c-.21,0,0-.06-.06-.17-.22.11-.4.23-.63.34a.42.42,0,0,1,.38.13c-.1.09-.48,0-.43.21-.24,0-.24-.07-.32-.14a1.14,1.14,0,0,1-.81-.07c-.29.15-.6.1-.81.31-.49-.13-.31.21-.69.21,0,.11.18.14.31.21s-.22.09-.06.17.36,0,.5,0,.2.23.31.34c.38-.06.41-.19.13-.31a.63.63,0,0,1,.18-.07C134.34,5.82,134.18,5.79,134.08,5.72Zm-25.65.51h.25C108.73,6.1,108.38,6.1,108.43,6.23Zm26.21,0c.15,0,.29-.18,0-.17Zm2.7,0c.24-.06-.24,0-.19-.07s.34.06.45,0c-.06-.07-.53-.12-.5.07A.56.56,0,0,0,137.34,6.2ZM108,6.13c-.06-.23-.71-.32-.81-.07C107.53,6,107.66,6.26,108,6.13Zm12.23,0c0-.13-.24,0-.38-.07A1.65,1.65,0,0,1,121,6V5.79c-.1,0-.41,0-.62-.07.22,0,.23-.21.44-.28-.21-.28-1.1,0-1.57-.24,0-.12.26-.16.45-.21s.6.26.74,0c.32,0,.4.22.69.27s.8-.16,1-.17a11.33,11.33,0,0,0-2.69-.34c.11.06,0,.1-.07.17-.39,0-.67.14-1,.06.09.15.53.11.63.24a4.14,4.14,0,0,1-.81.1.69.69,0,0,0-.43-.17c0,.16.11.25.37.28-.37.09-.28.25-.62.38-.06.11.16.06.11.17a1.24,1.24,0,0,0,.57-.1A4.5,4.5,0,0,0,120.22,6.09Zm25.84,0c0-.11-.24,0-.38,0A.51.51,0,0,0,146.06,6.13ZM4,6c-.15,0-.29,0-.31.07S4.06,6.14,4,6Zm57.38.07c-.13.09.17,0,.06-.17s-.08.06-.18.07S61.42,6,61.4,6.09Zm6.27,0a.36.36,0,0,0,.06-.27h-.31c0,.09-.11.14-.13.24C67.48,6.07,67.47,6.16,67.67,6.13ZM71.24,6s-.07-.06,0-.07A2.19,2.19,0,0,0,70,6,2.77,2.77,0,0,0,71.24,6Zm24.27.1c.15,0,.14-.06.32,0,0-.07-.21,0-.19-.11S95.49,6,95.51,6.09Zm17.75-.17c-.08.07.24-.17.25-.28a.82.82,0,0,1,.38,0c.09.28-.48.19-.5.41a2.27,2.27,0,0,0,.57-.21c.1,0,.35,0,.44.07s-.13-.2-.38-.17c0-.06.18-.06.13-.17.17,0,.13.06.25,0-.06-.23.17-.28.38-.28l-.38-.11c0,.16-.39.11-.38.28-.37-.06-.35,0-.75,0C113.34,5.7,113.24,5.74,113.25,5.92Zm-76,0c-.13,0-.38,0-.32.07S37.3,6.08,37.25,6ZM42.9,6c0-.09-.23-.08-.31,0A.3.3,0,0,0,42.9,6Zm60.57,0c.14-.07.24-.12.07-.21C103.4,5.93,103.31,6,103.47,6.06Zm.5,0c.08-.09-.11-.2,0-.21C103.69,5.71,103.64,6.09,104,6.06ZM86.3,6c.29-.08.22-.18.18-.37-.56,0-.67-.16-1.06-.21.17.1-.1.17-.25.21.09.06.54.11.31.24C85.77,6,86.22,5.82,86.3,6Zm50.48,0a.74.74,0,0,0-.39-.13s0,.09-.06.1A.63.63,0,0,0,136.78,6ZM123.61,6h.31c0-.12-.07-.16-.25-.17A.15.15,0,0,0,123.61,6Zm14.74-.17s-.08,0-.13,0,.07.07.06.13c.34,0,.08-.14.07-.24h-.25S138.22,5.78,138.35,5.79Zm-22.14.14a1.62,1.62,0,0,0,.5-.07C116.55,5.79,116.22,5.77,116.21,5.92Zm-21.06,0c0-.06.07-.07.06-.13-.18,0-.39-.1-.44,0S95,5.87,95.14,5.89Zm-40.64,0c.17,0-.17-.18,0-.17-.16-.14-.62,0-.56.14S54.36,5.74,54.5,5.86Zm37.82,0c.23-.18.25-.28.56-.37-.24-.11-.17-.18-.25-.34s-.27,0-.31.1a3,3,0,0,0-1.38.07A.45.45,0,0,1,90.62,5a1,1,0,0,1-.75-.2.87.87,0,0,0-.56.2c-.18,0,0-.11,0-.17l-.5.07c0,.11-.11.1-.06.21.26,0,.29.09.37.17.26,0,.18-.2.57-.14.09,0,.07.17.18.21.43,0,.63,0,1,0,.08.11-.25.18-.32.1-.18.09.17.17,0,.28C91.24,5.81,91.58,5.72,92.31,5.86Zm10.09,0c.22,0,.09-.18.25-.21s.14.25.5.21c0-.17-.35-.1-.25-.31.14,0,.25-.09.25-.21-.37-.06-.49.18-.69.1C102.39,5.56,102.61,5.7,102.41,5.86ZM140,5.72c0-.11-.66-.11-.69,0,0-.09-.43-.17-.5,0A1.3,1.3,0,0,0,140,5.72Zm-68.85.11c.22-.18.82-.13,1.06-.21-.18-.23-1-.08-1.06-.28-.22.06-.28.16-.18.31a.5.5,0,0,1,.24,0C71.25,5.72,71,5.73,71.18,5.82Zm13.29,0c-.11-.12,0-.09.06-.21-.16-.09-.31,0-.56,0,.11.07.23,0,.13.17C84.25,5.79,84.28,5.84,84.48,5.82Zm-23,0c.07-.19-.22-.18-.19-.34a1.94,1.94,0,0,0-.56.11c-.07.11,0,.07,0,.21A7.06,7.06,0,0,1,61.52,5.79Zm14,0c-.18-.18.25-.28.06-.44C75.25,5.36,75.15,5.79,75.51,5.79Zm3.57,0c.24,0,.18-.09.38-.07-.32-.06,0-.2-.11-.28h-.51c-.06,0,0,.13-.18.11C78.89,5.57,79.06,5.63,79.08,5.79Zm18.5,0c.48-.17,1,0,1.51-.27a8.47,8.47,0,0,0-1.44.14c-.18,0-.18-.13-.25-.21a1.31,1.31,0,0,0-.45,0C97.05,5.59,97.76,5.58,97.58,5.76Zm19.63,0s-.08,0-.14,0,.17-.26-.11-.24C117.06,5.59,116.93,5.81,117.21,5.79Zm32.23-.17c-.16,0-.25,0-.25.14C149.4,5.84,149.62,5.72,149.44,5.62Zm-87,.14c0-.14-.24-.1-.45-.11C62,5.73,62.18,5.76,62.4,5.76Zm33.73,0c.21,0,.34,0,.38-.14a1.06,1.06,0,0,0-.63,0C96,5.65,96.16,5.64,96.14,5.76Zm25.65,0c.25-.09,0-.27-.32-.27C121.38,5.68,121.78,5.61,121.79,5.76Zm29.22,0c.21,0,.26-.2,0-.17Zm-86.8,0c.1,0,.06-.18.07-.28-.24,0-.47.16-.38.24A.72.72,0,0,0,64.21,5.72Zm29.54,0c.06-.11-.46-.17-.45,0A1.35,1.35,0,0,0,93.76,5.72Zm1.82,0c0-.1-.53-.18-.5,0A1.36,1.36,0,0,0,95.58,5.69Zm12.67-.17c.11-.09.28,0,.43,0V5.34a6.61,6.61,0,0,1-.74-.07c.17.14-.1.32.06.44.17,0,.11-.19.43-.14C108.46,5.51,108.34,5.52,108.24,5.51Zm4.38.21c.11-.06-.09-.13.19-.14-.34-.15-.57,0-1,0C111.94,5.76,112.28,5.68,112.62,5.72Zm12.48-.1c0-.11-.31-.06-.5-.07C124.59,5.76,125,5.72,125.11,5.62Zm24.39-.11c0-.13-.33-.09-.31-.24s.09-.11.13-.28c-.15,0-.14-.06-.32,0,0,.19-.07.26.07.41-.22.14-.64-.09-.88.11,0,.06-.08.2.07.21A5.11,5.11,0,0,0,149.5,5.51Zm-82.27.17c.19,0,.13-.09.25-.11,0-.12-.46,0-.25-.17a4.38,4.38,0,0,0-.63.14C66.73,5.64,67.1,5.59,67.23,5.69Zm6,0c.17-.12-.43-.19-.07-.34-.3,0-.6,0-.69.17C72.89,5.49,73,5.66,73.25,5.69Zm13.48,0c.07-.1.3-.12.5-.14-.06-.15-.48-.11-.63,0S86.78,5.58,86.73,5.69Zm2.57,0a1.24,1.24,0,0,1,.5,0c.08,0,.06-.15.06-.24-.36,0-.3.09-.56,0A.3.3,0,0,0,89.3,5.69Zm15.48,0c.25,0,0-.25.26-.28.58,0,.49.28,1,.28,0-.13-.26-.22,0-.31-.46,0-.58-.3-1.06-.14.33.09-.33.19-.5.11a.2.2,0,0,1,.18-.07c0-.08-.32,0-.37-.07s.23-.07.37-.11S104.59,5,104.6,5a5.13,5.13,0,0,0-1.19.1c.28,0,.4.12.69.14.09.21-.26.18-.5.21.25.08.78,0,.94.14s.06-.09.07-.14C104.83,5.46,104.58,5.6,104.79,5.69Zm12.29-.28c-.07-.21-.86-.06-.56-.41.11-.06.42,0,.38-.17-.36,0-.47-.16-.75,0,0,.13.16.12.19.21a6.94,6.94,0,0,0-1.26-.17c-.09,0,0,.18-.06.27.46,0,.5.21.69.34,0,.12-.41,0-.44.14.23.16.6,0,1.06,0a.72.72,0,0,0-.5-.34.3.3,0,0,1,.25-.14C116.51,5.23,116.62,5.4,117.07,5.41Zm8.66-.52a.55.55,0,0,0,.5-.24,2.73,2.73,0,0,0-.38-.07v.11a1.48,1.48,0,0,0-1.44.51c.38-.07.89-.07,1,.17.15,0,.32-.07.31.07a2.48,2.48,0,0,0,.56,0,2.51,2.51,0,0,0,.7.28s.07,0,.13,0V5.44c.18-.15.35.06.74,0-.1-.12-.25-.2-.13-.38a1.32,1.32,0,0,1-.87.21c0-.1.07-.21.25-.24a2.89,2.89,0,0,0-.57-.2c0-.22.43-.22.45-.45a1.07,1.07,0,0,0-.25-.27c.19-.11.52,0,.94-.07-.06-.11.09-.13.06-.24s-.21-.12-.37,0c0-.26.53-.23.49-.51-.24,0-.22.08-.38.1s-.47-.09-.56-.21.3-.11.13-.21c.27.22.81.13,1.32.14-.07-.13.22-.07.25-.14a.32.32,0,0,0,.31.28.43.43,0,0,1,.5-.31,1.67,1.67,0,0,1-.25-.24,1.07,1.07,0,0,0-.43.14c-.08,0-.1-.06-.18-.07a1.53,1.53,0,0,1,.25-.31c-.48,0-.82-.17-1.13,0,0-.08-.17-.08-.31,0s-.19-.1-.19-.2c-.31,0-.21.22-.5.24.15.12-.15.27.25.27,0,.14-.17.11,0,.24-.38,0-.09-.16-.31-.07,0-.06.07-.07.06-.14-.28,0-.29-.16-.56-.17.16-.19-.19-.19-.38-.27s-.33.29-.13.38c-.19.3-.65.13-1.26.14-.11,0,0-.18-.31-.14.19-.21-.34-.25-.43-.41h-.76c-.11.12.07.13.13.24s-.21,0-.32.07a2.85,2.85,0,0,1,.64.21c0,.08-.13.07-.07.17s.4.08.43,0c.23,0,.07.31.38.31-.16.16-.66.06-.88,0a6.39,6.39,0,0,1-1.82,0,4.68,4.68,0,0,1-.94.13,1.89,1.89,0,0,0,.81.28.42.42,0,0,1,.25-.17c.09,0,.06.09.07.14a2.72,2.72,0,0,1,1.12,0c.27-.29.86.09,1.45-.1.15,0-.22.1,0,.17a2.28,2.28,0,0,1-1.2,0c-.19,0-.36.08-.37.21.39-.13.46.13.44.24.51.07.62-.12,1.19,0,.06-.06.15-.11.18-.17.37,0,.54-.05.88,0,0,.12-.11.16-.13.28a1.13,1.13,0,0,0,.81-.07c.1.09,0,.13.19.2-.06.09-.27-.06-.38,0s.45,0,.18.1a3.58,3.58,0,0,0,.82,0c-.13.13-.53.25-.38.41a2.8,2.8,0,0,1-.81.17.61.61,0,0,0-.5-.1c0-.14.54,0,.62-.14S125.89,4.89,125.74,4.89Zm21,.76c0-.11.17-.06.13-.17a4.43,4.43,0,0,0-.56,0A.46.46,0,0,0,146.74,5.65Zm7.91,0c0-.11,0-.06,0-.17-.26,0-.26.11-.57.07C154.12,5.66,154.39,5.66,154.65,5.65Zm-78-.14c-.11-.06-.16,0-.38,0,0-.13.1-.15.32-.14-.06,0-.21,0-.32-.07s0,.18-.18.21C76.32,5.55,76.64,5.7,76.7,5.51Zm52.86-.1c.25.08.26,0,.5,0s0,.18.13.21a8.53,8.53,0,0,1,1.06,0c.07-.16.29-.23.5-.31.19.24,1.12.44,1.06-.07-.19,0-.22-.06-.43,0,.46-.16.57-.58,1.38-.44-.08-.19.34-.11.24-.31a2.5,2.5,0,0,1-.94.1,2.58,2.58,0,0,1-.94.58.87.87,0,0,1-.13-.31c-.1,0-.1,0-.18,0-.08-.24-.94-.42-1.08-.07a1.94,1.94,0,0,1,.63.13c0,.16-.34.13-.49.21a.49.49,0,0,0,.25.21c0,.23-.31,0-.39.14-.27,0-.21-.16-.31-.24a3.56,3.56,0,0,0-.76.14c-.25,0-.23-.2-.5-.11.35.21-.46.34-.56.24s-.1.06-.18.07C128.73,5.6,129.34,5.66,129.56,5.41Zm-48.47.07c-.17,0-.58-.07-.57.07S81.15,5.63,81.09,5.48Zm-69.74.07c.1,0,.11,0,.19,0s-.09-.11-.25-.1S11.34,5.5,11.35,5.55Zm66.48,0a1.51,1.51,0,0,0,.5,0,.76.76,0,0,0-.57-.11A.14.14,0,0,1,77.83,5.51Zm31.48,0c.14,0,0-.12.06-.17h-.24C109.23,5.37,109.26,5.45,109.31,5.51Zm-96.57,0a4.39,4.39,0,0,0,.43-.07.75.75,0,0,0-.38-.07C12.8,5.41,12.72,5.41,12.73,5.48Zm131.94,0c-.06-.14-.35-.15-.38-.31-.27,0-.22.2-.43.24A1.48,1.48,0,0,0,144.67,5.44Zm9.84-.14c-.25-.06-.41.14-.62,0-.07,0-.06.12-.19.14C153.83,5.53,154.58,5.51,154.51,5.31Zm-74,.14c.09,0,.13-.07.13-.14-.22-.13-.42.1-.49-.14-.38,0-.62,0-1,0C79.32,5.53,80.08,5.26,80.52,5.44Zm27,0c.13-.14.15-.29.45-.41C107.53,4.89,107.36,5.31,107.49,5.44Zm9.66,0c.08.09.41,0,.32-.11S117.38,5.45,117.14,5.41Zm6.34,0c-.19-.16-.85,0-1.32-.1.1.07,0,0,0,.14A4.66,4.66,0,0,0,123.48,5.37Zm15.17,0c0,.08.39,0,.44,0-.16,0-.22-.16-.44-.17C138.7,5.29,138.7,5.39,138.65,5.41ZM112,5.41c0-.17-.57-.15-.82-.11A3.75,3.75,0,0,0,112,5.41Zm41,0a2.43,2.43,0,0,0,.31-.1c.13,0,0,.15.19.14.36,0,.17-.17.11-.31h-.31C153.27,5.28,153,5.15,153,5.37Zm-87,0c0-.12-.13-.23-.43-.21C65.57,5.29,65.71,5.37,66,5.37Zm86.73,0c.3,0,.14-.19.06-.28S152.58,5.31,152.71,5.37Zm-137.4,0c0-.14-.32-.16-.45-.07S15.16,5.32,15.31,5.34Zm131.06,0c0-.11-.08-.16-.13-.24-.25,0-.34-.06-.63,0,.07.13-.15.1-.13.21A3.43,3.43,0,0,0,146.37,5.31Zm-76.07,0c0-.09-.08-.11-.25-.1C70,5.29,70.14,5.32,70.3,5.31Zm16.81,0h.19c0-.09,0-.14-.19-.14Zm14.49,0c.25,0,.34-.15.63-.17a.88.88,0,0,0-.45-.07C101.87,5.22,101.47,5.12,101.59,5.31ZM67,5.24c.33.1.56-.12.94,0A.15.15,0,0,0,68,5.1C67.67,4.91,67.48,5.06,67,5.24Zm6.08,0c.15,0,.3-.07.32-.18-.58.08-.72-.08-1.08,0C72.4,5.34,72.93,5.09,73.06,5.28Zm2.14,0c0-.11-.21-.1-.13-.24-.18,0-.17,0-.32,0s0,.19-.25.17C74.61,5.28,74.91,5.27,75.2,5.28ZM29.54,5.17c-.14,0-.18-.13-.38-.14S29.29,5.33,29.54,5.17Zm47,.07c.07,0,.25,0,.25-.14s-.16,0-.32,0C76.44,5.16,76.52,5.17,76.51,5.24Zm2,0c.21,0,.13-.09.25-.1-.06,0-.21,0-.31-.07S78.54,5.16,78.51,5.24Zm7.84,0c.23-.09.45-.19.45-.41C86.55,4.91,86.36,5,86.35,5.24Zm23-.07c-.22-.38-.77-.1-1.25-.1A2,2,0,0,0,109.36,5.17Zm2.64.07c.37,0,.58,0,.76-.17.22,0,.15.12.37.1a.25.25,0,0,1,.19-.07c0-.11-.17-.06-.13-.17-.16,0-.53.14-.57,0a4.61,4.61,0,0,0-.62,0C111.94,5.07,112,5.07,112,5.24Zm-28.59-.1c-.06-.1.08-.09.06-.17-.22.07-.64,0-.69.2C83,5.26,83.15,5.14,83.41,5.14Zm67.4.07c.13-.06,0-.09,0-.21.66-.14,1.33.27,1.57-.14-.34,0-.47-.15-.69,0,0,0,0-.06.06-.07-.19-.09-.35,0-.69-.07a1.14,1.14,0,0,0-1.5-.31c-.28.33.77.37.94.75C150.68,5.14,150.67,5.22,150.82,5.21Zm7,0c0,.08.31,0,.43,0,0-.07.08-.22-.07-.24s-.07.12,0,.13A.7.7,0,0,1,157.79,5.17ZM148.69,5c-.13-.06-.49,0-.5.14C148.36,5.21,148.5,5,148.69,5Zm-64.28.14c.31-.07-.13-.24-.13,0C84.36,5.1,84.4,5.11,84.41,5.14Zm11.1,0c-.11-.16.25,0,.19-.17-.23,0-.56,0-.56.13A.78.78,0,0,0,95.51,5.14ZM98,5.1c0-.1-.22-.08-.38-.1S97.84,5.19,98,5.1Zm-36.5,0c.45,0,1.13-.06,1.51,0V4.86c-.4,0-.69.17-1,0C61.66,4.86,61.68,5,61.46,5.07Zm52.3-.24c.34,0,.57.09.63.27.19,0,.21-.14.5-.1,0-.16-.84-.11-.38-.21C114.51,4.82,113.8,4.62,113.76,4.83Zm21.51.24A.62.62,0,0,0,135,5C134.88,5.11,135.14,5.14,135.27,5.07Zm6.34,0c.06,0,.23-.35-.19-.37A.92.92,0,0,0,141.61,5.07ZM94.37,5c.07.1.28,0,.39,0C94.71,4.91,94.5,5,94.37,5Zm60.14,0c.14-.09-.14-.12,0-.24-.23,0-.29.06-.44.1C154.14,5,154.33,5,154.51,5.07Zm-95,0h.25v-.2C59.69,4.9,59.53,4.93,59.51,5Zm87-.06c.07.09.29,0,.31,0S146.56,4.91,146.49,5Zm1.76-.52c.24,0,.3.06.56,0-.16-.26-.67-.2-1.06-.28,0,.13-.11.18,0,.24h-.63c-.16,0-.13-.16-.25-.21s-.18.06-.38,0c0,.34-.27.31-.56.44.29.11,0,.16.18.28a.73.73,0,0,1,.69-.21C147.37,5.29,147.79,4.67,148.25,4.45Zm8.58.55c.25,0,.46-.07.7-.11-.07-.1-.24-.14-.32-.24s-.58,0-.69,0C156.33,4.77,157,4.73,156.84,5ZM124.3,5c.06,0,0,0,.06-.07s.11,0,.19,0C124.47,4.69,124.09,4.88,124.3,5Zm9.1-.07c0,.08.39,0,.31-.06S133.51,4.88,133.39,4.89Zm6.52,0c.33,0,.4-.12.37-.31-.31,0-.45,0-.74,0C139.62,4.77,139.82,4.82,139.91,4.93Zm5.26-.62c0,.11-.15.17,0,.24a5.46,5.46,0,0,0-1.13.24,2.73,2.73,0,0,0,.94.14c.17-.12.14-.36.57-.34,0-.16.09-.22.38-.21C145.7,4.26,145.54,4.45,145.18,4.31Zm8.65.62c.13-.09-.1-.22-.37-.21C153.46,4.86,153.59,4.93,153.83,4.93Zm.75-.07c.09.12.55,0,.81.07,0-.17-.7-.07-.56-.21C154.71,4.62,154.79,4.91,154.58,4.86Zm-56.5,0a.6.6,0,0,0,.25,0c.07-.12-.14-.11-.19-.17A.1.1,0,0,0,98.08,4.89ZM47.42,4.62c-.13,0-.11.09-.32.07,0-.14.29-.07.38-.14-.07-.23-.49-.08-.88-.11,0,.19-.36.19-.56.28-.06-.09-.26-.06-.38,0a3.6,3.6,0,0,0-1.37-.24c0-.09.34,0,.31-.07V4.35c-.06,0-.06,0-.06,0-.3,0-.3.21-.7.17v.17c.39-.07.51.09.95,0A1.43,1.43,0,0,0,46,4.76,1.74,1.74,0,0,0,47.42,4.62Zm24.83.24c-.07-.14-.58,0-.76-.1C71.56,4.89,71.95,4.85,72.25,4.86Zm26.84-.14a4.21,4.21,0,0,1-.5,0C98.68,4.89,99,4.87,99.09,4.72Zm36.36.14c.11,0,.22-.06.19-.17h-.32C135.36,4.76,135.46,4.78,135.45,4.86ZM36.93,4.52H36.5c.16.1.14.22-.13.24C36.66,4.94,37.23,4.76,36.93,4.52Zm4.21.31c.29-.07.69-.08.74-.28.27,0,.46.06.5-.11A1.5,1.5,0,0,0,41.15,4.83Zm87.85,0a1.55,1.55,0,0,1,.38-.14.63.63,0,0,0-.31-.11c-.07,0,0,.13-.19.11S129,4.76,129,4.83Zm-40.5-.28a.32.32,0,0,1-.26,0c.06-.07.17-.12.13-.24a2.67,2.67,0,0,1-1.19,0c.07,0,.24.14.07.17.1.13.1-.07.18-.07S88.42,5.06,88.49,4.56ZM79.9,3c0,.07-.17.07-.25.1.18.09.17.1.13.28-.14,0-.17.11-.38.1,0,.11-.14.14,0,.21-.15.09-.11-.05-.32,0,0,.12.09.17.32.17,0-.19.37-.14.31-.34.22,0,.18.13.19.24s.26,0,.25.1c.32,0,.42-.06.56.07.43-.07,1-.41,1.38-.1a2.61,2.61,0,0,1,1.25-.34c0,.13-.37,0-.38.14s.37-.07.19.14a1.18,1.18,0,0,1,1.12.34c.64-.06.56-.2,1.26-.17.1,0,.23.07.31.07a1.63,1.63,0,0,1,.63,0c0,.14-.21.14-.13.31.16-.13.29,0,.45,0,0-.17-.17-.29-.07-.41s.19.1.18.21c.31,0,.43.06.76,0,.09,0,0-.17.19-.17,0,.21.73.06.74.27.21,0,.15-.11.38-.07,0-.11-.06-.12-.06-.21.45-.09.29.3.63.17.14,0-.08.08,0,.17-.19.06-.24.19-.5.21-.09.18.24.14.18.31.34-.12.45-.37.75-.51.5.09.78-.07,1.06.17-.14.12-.54.09-.69.21.24.2.7,0,1.13.07-.22-.14-.25-.21-.19-.44a5,5,0,0,0,1.64.31c0,.1-.09.09-.07.18a2.55,2.55,0,0,1,1.19-.11c0-.19-.31-.22-.18-.47-.11-.07-.46,0-.45-.14s.21,0,.32-.06c.06.09.31.08.31.21.48,0,.7.16,1.08.06.23,0,0,.26.18.31a1.64,1.64,0,0,1,.56,0c0-.18.19-.2.19-.31-.32-.07-.58-.16-.5-.44.5.26,1.32,0,1.63.38.23,0,.25-.11.25-.24H97.2c.19-.12.1-.19.19-.34.41,0,.39.16.31.31,1,0,1.29.5,2.51.34,0-.09-.09-.11-.11-.17a1.18,1.18,0,0,1-.45,0c.22-.21-.21-.37.38-.38,0-.15-.26-.09-.38-.14a1,1,0,0,1,.56-.17c.11-.06,0,0,0-.13.19,0,.43.06.5-.07a1.45,1.45,0,0,0,.88,0,.15.15,0,0,1-.07-.14c-.6,0-.65,0-1.18,0,0-.11,0-.16.06-.24a2.2,2.2,0,0,0-1.32.14c0,.09.13.07.13.14-.32,0-.46-.08-.63,0a.94.94,0,0,0,.88.18c0,.14-.25.13-.32.24-.38,0-.47-.18-.76-.11-.1,0,0-.2-.18-.24a1.15,1.15,0,0,1-.76-.14c0-.12.22-.09.32-.14s-.09-.09-.07-.17c-.37.1-.34-.06-.38-.17-.42.08-1-.12-1.25.11a3.81,3.81,0,0,1,.56,0,2.17,2.17,0,0,1-.94.14c-.07,0-.17-.1-.19-.1-.27,0-.39.26-.69.17-.08.15,0,.21-.06.34-.5,0-.49-.3-.95-.17,0-.2.22-.37-.06-.48,0-.1.24-.12.38-.18,0,.16.15,0,.43.11,0,.12-.45,0-.38.17a.82.82,0,0,0,.76.14.72.72,0,0,0-.25-.51c-.09,0-.49.16-.43,0h-.38c-.28.18-.28.51-.76.58-.14,0,0-.17-.06-.24a2.15,2.15,0,0,0-.82,0,.14.14,0,0,0,.07.17c-.08,0-.11,0-.13,0-.3,0-.23-.19-.63-.14,0,.19,0,.25-.06.38h.25c0,.06-.07.06-.07.11-.33-.15-.66,0-1.06,0,.07-.12.23-.19.25-.34-.38,0,0-.24-.19-.34s0,.16-.24.14-.27-.11-.19-.21c-.41,0-.65.12-.63.38a.85.85,0,0,0,.38-.1c.11,0,0,.11.19.1,0,0-.11.06-.13.11-.32,0-.33-.13-.45,0a3.25,3.25,0,0,0-.94-.34c.07.12-.16.1-.13.21-.13,0-.13-.09-.25-.11s.26-.1.25-.24c-.55-.17-.43.49-.19.58-.39.15-1.29,0-1.44.44.3,0,.69.2.45.31-.56,0-.6-.25-1.06-.28,0,.12.07.16.13.24-.43.19-1-.29-1.57,0-.19-.09-.15-.1-.25-.24.15-.1.25,0,.5-.07-.26.14.09.14.43.14,0-.13.09-.15.31-.14.09-.23-.3-.2-.31-.37a.63.63,0,0,0-.43.11C84.9,3,84.89,3,84.66,3c0-.15.22-.21.45-.24a1,1,0,0,0-1-.07A.32.32,0,0,1,84,3c.27-.06.64.38.13.38-.25-.12-.09-.41-.38-.44,0,0,.11,0,.18,0A1.07,1.07,0,0,0,83,2.6c0,.06-.08.07-.06.14-.26,0-.24-.07-.45-.07a.59.59,0,0,1-.18.14c.06,0,.21,0,.31.07,0,.36-.14.92-1.12.65,0-.14,0-.22.06-.34-.26,0-.29-.09-.38-.18.08,0,.28,0,.19-.17a1.45,1.45,0,0,1-.57,0c0,.11-.15.1-.25.14a.69.69,0,0,0,.57.31c-.06.07-.15.23-.07.27h-.25c0-.16-.25-.22-.25-.41a2.39,2.39,0,0,1-.87-.21s-.08,0-.13,0S79.63,3.09,79.9,3ZM43.21,4.76c.19,0,.19-.11.19-.21a1.51,1.51,0,0,0-.5,0C43,4.65,43.16,4.67,43.21,4.76Zm79.52,0c.15,0,.18-.06.38,0C123.1,4.57,122.64,4.54,122.73,4.76Zm1.25,0c.16,0,.07-.24.38-.21,0-.11-.08-.13-.13-.21-.39,0-.41.16-.62.24C123.62,4.67,123.81,4.69,124,4.72Zm-72.11,0c.28,0,.08-.08.18-.14s.06.06.07.1c.17,0,.14-.18.18-.28A.49.49,0,0,1,51.87,4c-.37.14-.35,0-.63-.1s-.13.09,0,.17c-.13,0-.16.14-.32.17s-.15-.12-.37-.1c0,.08,0,.16.06.21.43-.09,1-.15.75.21C51.5,4.62,51.76,4.61,51.87,4.69Zm14.54-.92c-.06-.14-.67-.21-1.12-.24a1,1,0,0,1-.45.24A2,2,0,0,0,64,3.56a1,1,0,0,1-.49.34c-.14,0-.14-.09-.13-.18a4.81,4.81,0,0,1-.69-.1c.06-.16.6-.06.62-.24a.67.67,0,0,0,.45,0c-.29-.31-1.29-.18-1.32-.51-.29.38-1.08.29-1.57.41-.32,0-.42-.2-.88-.17-.13.34.33.41.44.58.2,0,.22-.13.32-.21a1.94,1.94,0,0,0,1.06,0c.11.06-.06.09,0,.21a.29.29,0,0,1,.25.1c.19,0,.14-.11.38-.07,0,.16.37.14.31.34a2.54,2.54,0,0,0,.69,0c.15,0,.26.11.25.24.65-.23.92.19,1.38.28.11-.08.07-.26.18-.34s-.39-.08-.43-.2c.17.06.64,0,.69.1.33,0,0-.16.13-.24a1,1,0,0,0,.63.17c0,.09-.26.06-.32.14C66.4,4.64,66.51,4,67,4c-.09-.09-.16-.14-.07-.24C66.84,3.71,66.45,3.64,66.41,3.77Zm-40.32.86c.13,0,.15-.11.25-.14s-.18-.11-.25-.17a.27.27,0,0,0-.18.11c-.25-.1-.16-.19-.32-.31-.14.08,0,.32-.25.34C25.45,4.59,26,4.46,26.09,4.62Zm113.51,0c0-.11-.06-.16-.25-.14C139.42,4.54,139.4,4.64,139.59,4.62Zm-122.84,0c.17,0,.13-.07.25-.07,0-.07-.17-.09-.32-.1A.14.14,0,0,0,16.75,4.59Zm15.93,0c-.1-.11,0-.14.13-.21-.13-.12-.64,0-.82-.14,0-.12.26-.14.13-.27s-.21.11-.43.1c0-.14-.41-.12-.56-.21a.84.84,0,0,1-.7,0c-.22,0,0,.08-.06.21.19,0,.18-.11.43-.07s.1.2.25.24c-.08.06-.31,0-.38.1a3,3,0,0,0,.94,0c.07-.17-.19-.16-.37-.2,0-.05.1-.06.13-.11.14.11.4.14.43.31.3,0,.46,0,.5.17C32.5,4.53,32.53,4.59,32.68,4.59ZM154,4.59c.23-.13.43-.06.81-.1-.22,0,.08-.31-.18-.37s-.33.09-.38.2a1.47,1.47,0,0,0-.5,0C153.83,4.44,154.14,4.4,154,4.59Zm-104.6,0c.19,0,.18-.06.38,0a.13.13,0,0,1-.07-.1c-.09,0-.23,0-.24,0S49.34,4.51,49.42,4.56ZM76,4.56c.27,0,.42-.1.31-.17S76,4.46,76,4.56ZM23,4.52c.17,0,.13-.07.25-.07s-.13-.13-.18-.21-.16.06-.25.07S23,4.37,23,4.52Zm5.65,0c.13,0,.31-.06.31-.17-.33,0-.14-.17-.07-.24C28.51,4.11,28.55,4.41,28.61,4.52Zm1.81-.1C30,4.3,30,4.08,30.1,3.87a1.52,1.52,0,0,0-.56.14c0,.11,0,.16.06.24s-.18,0-.38,0C29.51,4.56,29.84,4.48,30.41,4.42Zm29.85.1c.21,0,.16-.21.07-.21C60.07,4.3,60.28,4.46,60.26,4.52Zm18.44-.1h-.25C78.4,4.55,78.75,4.55,78.71,4.42Zm23.64.1c-.18-.11-.51-.18-.32-.41-.19-.12-.39-.09-.74-.07,0,.11.19.14.31.21s-.08.14-.18.18A2.45,2.45,0,0,0,102.35,4.52Zm7.46-.37a.91.91,0,0,0,1.13.28c0-.09-.14-.07-.19-.11.14-.06.31-.1.43-.17a.12.12,0,0,1-.06-.11c.5-.08.23-.41-.31-.27.07.17-.56.22-.63.1.09-.1.27,0,.43,0s-.25-.13-.5-.14c0-.11.4-.19.57-.1.1-.07,0-.24.13-.34a3.06,3.06,0,0,1-.88-.1c.31-.07.46,0,.43-.18.8.09,1.34-.16,2,0-.3.21.32.19.24.47a4,4,0,0,0,1.51-.07,1,1,0,0,0-.5-.2c0-.1.26-.07.45-.07-.34-.19-.55.18-1,.1s.11-.1-.06-.17-.18.06-.38,0c0-.15.33-.12.38-.24-.27-.26-.48-.17-.75-.41-.38.09-.67-.13-1.13-.11s-.34.41-.74.48a19.3,19.3,0,0,0-2.32,0c-.07,0-.06-.06-.06-.11-.25.17-1.16,0-1.08.34h.25c-.17.36-1,.16-1.5.38-.08,0-.06-.06-.07-.1-.43.16-1.26-.09-1.63.14a2.89,2.89,0,0,0-.82,0c.07.16.62.06.7.21.34-.1.73-.07.81.14a2,2,0,0,1,.76,0c0-.11.19-.13.06-.21a3.25,3.25,0,0,1,1.44,0c-.11.12,0,.19.13.28s-.28,0-.38.1.37.11.38,0,.06.06.07.11c1-.2,1,.4,1.63.34-.06-.29-.49-.16-.69-.37a.14.14,0,0,0,.07-.1c.45,0,.57-.12.94,0,0,.09-.3,0-.25.17a2.09,2.09,0,0,0,.56,0V4.08a.73.73,0,0,1,.25,0C109.41,4.18,109.57,4.18,109.81,4.14Zm5.33-.82c0,.09.1,0,.25,0-.09.09-.16.21-.25.14-.23.15.58,0,.5.21a1.4,1.4,0,0,1,.69,0c0,.14-.36.08-.25.28a2.13,2.13,0,0,0,.69,0c.06,0,.07,0,.13,0s0,.2-.13.21a.58.58,0,0,0,.38.06c-.09.06-.25.07-.18.21.3.05.66.1.81,0-.1-.11-.47-.07-.5-.21s.63,0,.56-.27c.08,0,.14,0,.13.1.47-.12,1,.17,1.7.14.15-.12.53-.12.74-.21.24.08,1-.07.5-.07a5.94,5.94,0,0,0-1-.21c.51-.16.06-.33.13-.55a8.83,8.83,0,0,1-1.32,0c.19-.21.89-.08,1.32,0,0-.12.13-.14,0-.21a.8.8,0,0,1-.43,0c0-.09.24,0,.18-.14a.14.14,0,0,1-.11-.14,3.31,3.31,0,0,0-1.38.14c0,.11.3.11.56.1-.35.31-1.23,0-1.82.14,0,.08.2.09.25.17s-.13.07-.13.14a.45.45,0,0,1-.25-.21c-.4.28-1.25-.07-1.75.14C115.18,3.24,115.21,3.29,115.14,3.32ZM53.94,4.45c.1.13.35-.11.43,0s-.07-.09-.06-.14Zm2.31,0c.24,0,.18-.09.38-.07-.19-.24.18-.36.45-.34.16-.16-.08-.36-.45-.34.23-.12-.08-.15-.13-.31a5.11,5.11,0,0,0-1.12,0c0,.06.08.07.06.14.29,0,.19-.1.45-.07,0,.13.15.19.18.31l-.43.1a.52.52,0,0,0,.13.21C56,4.18,56,4,56.19,4s.15.11.31.11c-.26.07-.13.16-.37.24C56.17,4.42,56.27,4.42,56.25,4.49Zm1.69,0c.17,0-.08-.06,0-.14-.32.06-.7-.07-.81.14C57.32,4.55,57.71,4.32,57.94,4.45Zm15.11,0c.07-.51-.67-.31-1.32-.45,0,.11-.17.07-.13.17.39-.06.73,0,1,0S72.65,4.46,73.06,4.49Zm80.08,0c.2,0,.3,0,.32-.14C153.24,4.34,153.1,4.36,153.14,4.49ZM83.85,4.28c-.21-.06-.37,0-.5-.1L83,4.35C83.4,4.37,83.7,4.57,83.85,4.28Zm29.6.17c.19-.32.72-.47,1.06-.72-.42.05-.73,0-1.13.07,0,.07.06.11.19.11-.07.07-.3.14-.13.24-.14.07-.38.09-.38.24C113.23,4.38,113.44,4.36,113.45,4.45Zm25.28,0c0-.11.1-.14.06-.27-.13.06-.11,0-.31,0,0,.11-.09.13-.07.24A.74.74,0,0,0,138.72,4.45Zm2.25,0c0-.11-.24,0-.38,0A.39.39,0,0,0,141,4.42Zm16.49-.11c-.29,0-.47-.2-.75-.1-.07.16.35,0,.25.21C157.2,4.45,157.45,4.48,157.47,4.31Zm-122.91,0c-.24,0-.56,0-.56.1C34.15,4.44,34.53,4.39,34.55,4.28Zm1.13.1c.51-.16,1.13.11,1.62-.1,0-.14-.42-.11-.38-.31-.33,0-.36-.11-.43-.21a1.47,1.47,0,0,1-.63.07c0,.11.23.08.32.14a.09.09,0,0,0,0,.17c-.3.17-.69,0-1.08.07C35.13,4.37,35.65,4.24,35.69,4.38ZM68.48,3.12c0-.16.41-.1.56-.17-.06-.11-.24-.14-.31-.24-.29,0-.36.06-.56.07.09.29-.46.43-.75.31,0-.08.11-.07.07-.17s-.32-.08-.32-.21c-.41.11-.38-.26-.88-.21,0,.09-.18.1-.18.21.31.11.81,0,.94.21,0,.14-.37.18-.18.34-.3-.15-.86-.15-1-.38a.1.1,0,0,0,0,.17,1.46,1.46,0,0,1-.88.1s0,.06-.06.07c.14.34,1,.09,1.32.24.31-.16.64.13.94.07,0,.14-.3.07-.25.21a.61.61,0,0,0,.45.11c-.08-.11.19,0,.13-.14.09,0,.1,0,.18,0s-.14.13-.13.24c.31.08.36-.09.63,0a.49.49,0,0,0-.5-.31c.06-.21-.13-.27.31-.34.17,0,0,.16.13.14s.18-.1.19-.2c.61,0,.54.36.43.51.06.12.26,0,.38,0,.31,0,0,.2.18.27s-.27.12-.31,0-.09.11-.13.17c.21,0,.26.09.38.14s.19-.14.38-.17,1,.09,1.19-.07c-.1-.09-.19-.18-.18-.24.27,0,.27-.16.31-.24s.23,0,.31.07c-.17.12.07.25.38.21a.29.29,0,0,1,0-.31c-.33,0-.45-.16-.62,0-.09,0-.09-.12-.19-.14s.29-.16.25-.34c-.13.06-.08,0-.25,0,.17.22-.26.25-.5.34-.07,0,0-.17-.18-.07.09-.27-.7-.32-1-.48A1.41,1.41,0,0,1,68.48,3.12Zm38.44,1.26c.38,0,.4-.1.76-.07,0-.06-.08-.07-.07-.13A1.12,1.12,0,0,0,106.93,4.38ZM49.23,3.8a1.57,1.57,0,0,1-.88.17s0,.06-.07.06.17.07.25.11c.23,0,.21-.11.38-.14s-.15.12-.06.24c.3,0,.27.17.56.07-.17-.13.06-.36-.25-.58a4.47,4.47,0,0,0,.76-.07c0-.11-.18-.15-.25-.24-.57,0-1.44-.1-1.69.24a3.15,3.15,0,0,1,.56.14c.19,0,.25-.09.38-.14S49,3.82,49.23,3.8Zm4.26.31c0,.06,0,.06-.13.07.08.07.1.17.32.17a.16.16,0,0,1,.13-.07,2.06,2.06,0,0,0-.32-.21C53.42,4.08,53.46,4.11,53.49,4.11ZM76.76,2.74c-.15,0,0,.16-.19.11-.06-.15,0-.14.07-.34a.76.76,0,0,0-.32,0c.08,0,.08.13,0,.17s-.24,0-.25,0-.09.15-.13.24c-.21,0-.24,0-.43,0,.13.23-.31.15-.25.34C75,3.16,75,3,74.69,3c-.09-.06-.1-.15-.13-.24-.37.11-1,.09-1.06.34a4.15,4.15,0,0,0-1.06-.07c0,.12.3.11.43.17-.14.22.11.28.25.44a.85.85,0,0,0,.38,0c0-.07-.13-.09-.19-.14.42-.12.54.21.7.34s.37-.09.37.07c.18,0,.19-.07.38-.07s.14.17.32.07V4c-.13.09-.48,0-.5-.06a3.11,3.11,0,0,1-1.13.1c0,.12,0,.17-.18.21a5.93,5.93,0,0,0,1.5-.1A.75.75,0,0,0,75.56,4c.23.31,1.09,0,1.38.31.24,0,.37-.14.63-.17,0-.12-.19-.1-.18-.21-.3,0-.27.2-.57.21S76.43,4,76.26,4c.18-.09.23-.19.18-.31-.33,0-.81.07-.88-.14s.36,0,.32-.14c.56,0,1.24.77,1.44.14-.15,0-.14-.06-.31,0,.49-.21-.11-.45,0-.69C77,2.75,76.82,2.84,76.76,2.74ZM20.14,4.31a.84.84,0,0,0,.37-.07C20.46,4.11,20.15,4.22,20.14,4.31Zm27.28,0c0-.16-.14-.27-.45-.28C47,4.21,47.16,4.27,47.42,4.31Zm11.66,0c-.07-.15.19-.12.32-.17-.24,0-.34-.14-.57-.17V3.8c-.35,0-.43-.14-.31-.28.41.16.84.18,1,.51.29-.17.71-.14.82.11.31-.13-.13-.25-.07-.44-.43.05-.82-.1-.69-.24-.11-.1-.23.08-.18.17H59c-.22-.09-.16-.14-.07-.28-.19-.09-.66.09-.81-.07-.19.06-.5.07-.7.14.11.07,0,0,0,.14a1.68,1.68,0,0,1,.88.1A2.42,2.42,0,0,1,58,3.8c-.07-.09-.27-.07-.45,0,0,.16.07.16,0,.31A.79.79,0,0,0,57.94,4c.18.06,0,.11.13.18C58.47,4.24,58.65,4.24,59.08,4.31Zm2.7-.07c0-.09.24-.09.25-.21-.21,0-.47-.06-.7-.1,0,.07-.11,0-.13.1S61.6,4.17,61.78,4.24Zm17.17,0A.81.81,0,0,0,78,4.14C78.22,4.3,78.54,4.21,78.95,4.21ZM40.07,4a.38.38,0,0,0,.32-.07c0-.09-.13-.07-.13-.14S40,3.89,40.07,4Zm.07-.17a.94.94,0,0,0-.75-.21c.1.17-.3.06-.38.14s-.17-.09-.25-.14c-.24,0-.15.29-.49.17.16.19.58,0,.94.11V4c-.11.06-.41,0-.38.18.23-.07.23,0,.43,0,0-.16.1-.19,0-.31C39.64,4,39.84,3.79,40.14,3.84Zm5.26.38c0-.12.11-.23,0-.34.14-.09.5-.07.57-.21s.27.16.43.07c0-.25-.8-.18-1.06-.1a1.87,1.87,0,0,0-.88-.14c-.14,0,0-.18-.13-.21H44c.16.16.07.33.13.48a3,3,0,0,1,.56.07C44.91,4,44.93,4.22,45.4,4.21Zm-.62-.14A.57.57,0,0,0,44.41,4C44.33,4.22,44.72,4.2,44.78,4.08Zm77,.11c0-.18,0-.11.13-.31-.24,0-.2.05-.32,0s-.15.12-.38.1A1.54,1.54,0,0,1,121.79,4.18Zm-75.45,0c.15,0,.06-.18,0-.21s-.08.11-.25.1C46.11,4.11,46.33,4.08,46.34,4.14Zm69.11,0c.06-.11-.21-.05-.18-.14s.41,0,.44-.11-1.11-.13-1.13.07C115,3.91,115,4.27,115.45,4.11ZM103,3.91c0-.07-.16-.07-.31-.07A.25.25,0,0,0,103,3.91Zm-.18,0c-.14,0-.21,0-.19.1s-.06,0-.13,0,0-.21-.13-.24-.16,0-.31,0c0,.19,0,.14.18.31C102.58,4.11,102.87,4.12,102.85,3.94Zm2.81.17c.24,0,.24-.17,0-.14S105.67,4,105.67,4.11ZM37.94,4c.4-.09-.18-.18-.18-.28a1.06,1.06,0,0,1-.45.07C37.44,3.91,37.84,3.88,37.94,4ZM72.75,4s-.09-.09-.13-.14c-.19,0-.18.06-.38,0C72.25,4,72.51,4,72.75,4Zm28.85-.38c-.14-.12-.37,0-.5-.1,0,.13-.31.18-.25.41C101.48,4,101.48,3.87,101.59,3.59Zm44.77.34a.25.25,0,0,0-.31-.07A.25.25,0,0,0,146.37,3.94Zm-104.48,0c.22,0,.14-.2.19-.31-.26,0-.26.15-.56.14,0,.06.07.08.06.14S41.9,3.83,41.89,3.91Zm36.44-.18c0-.06.16-.09.18-.17-.14,0-.35-.09-.43,0A3,3,0,0,0,78.33,3.73ZM41.27,3.66c.14,0,.07-.1.18-.1-.06-.1-.09,0-.25,0C41.32,3.59,41.16,3.59,41.27,3.66Zm9.78,0a3.34,3.34,0,0,0,.69,0c-.11-.18-.66-.27-.88-.28C50.82,3.47,51,3.51,51.05,3.63Zm61.39-.07c0-.14-.22-.18-.25-.31-.24.16-.65-.1-1,0C111.24,3.58,112.05,3.52,112.44,3.56Zm-47.78,0h.25c0-.07,0-.09-.07-.14S64.6,3.45,64.66,3.56Zm37.82,0V3.39a1,1,0,0,0-.38,0C102.15,3.5,102.25,3.54,102.48,3.52Zm-65.09,0c0-.14-.06-.2-.13-.27a1.47,1.47,0,0,1-.57,0c0,.08.13.07.07.17C37.11,3.34,37,3.54,37.38,3.49Zm-5.46-.07c.19,0,.3-.06.31-.17C32.87,3.22,31.69,3.16,31.92,3.43Zm5.52-.11c.14,0,.61,0,.57-.17a2,2,0,0,0-.5,0C37.47,3.17,37.58,3.32,37.44,3.32Zm34.25-.17s-.1-.09,0-.1-.17-.09-.32-.11a.76.76,0,0,1-.18.14C71.23,3.2,71.49,3.2,71.68,3.15Zm31,0A6.47,6.47,0,0,0,103.85,3c-.08-.09-.22-.16-.31-.24s-.08.14-.32.11,0-.32-.37-.31c.06-.16-.1-.18,0-.37-.15,0-.19-.06-.38,0,0,.14,0,.17.13.27,0,.1-.27.06-.25.17C102.87,2.58,102.54,3,102.73,3.12ZM37,3c0-.14-.14-.16-.32-.17C36.45,3,36.74,3.11,37,3Zm12,0c-.29,0-.11-.15.18-.14,0-.19-.26,0-.38,0s-.14-.06-.13-.14a4.18,4.18,0,0,0-.56.14A2.51,2.51,0,0,0,49,3.08Zm2.76,0c.37,0,.33-.13.5-.21a5,5,0,0,0-.82-.1C51.33,3,51.81,2.89,51.74,3.08ZM105.48,3c0-.07-.17,0-.13-.14-.38,0,0,.16-.45.14C105.12,3.14,105.22,3,105.48,3ZM59.08,3c.4,0,.31-.26.56-.34-.06,0,0,0-.06-.07l-.5.07C59.27,2.82,59.11,2.84,59.08,3Zm18.38-.07c.34,0,.32-.21.69-.21-.07,0-.07-.12-.06-.21-.07.11-.39.09-.57.14C77.59,2.82,77.53,2.82,77.45,2.94ZM53,2.88a5,5,0,0,1,1-.07c0-.12-.28-.07-.32-.17A4.44,4.44,0,0,1,53,2.88Zm4.09,0a.68.68,0,0,1,.31,0c0-.1-.21-.09-.25-.18S57.11,2.82,57.07,2.88Zm4.32,0c.17,0,.09-.18.38-.14-.07-.26-.8-.07-1.13-.07C60.78,2.88,61.21,2.72,61.4,2.88ZM118,2.39c-.24,0-.37-.08-.49,0S118,2.52,118,2.39Zm-.43.11c-.1,0-.1,0-.19,0-.14-.41-.66-.13-1.3-.17,0,.09.23.12.24.24-.18.08-.71,0-.69-.1s.16-.08.32-.07c-.22-.2.82-.18.62-.37,0-.11-.29-.09-.38-.17a1.62,1.62,0,0,1-.74.07c0,.12,0,.16.25.14.13.22-.34.11-.32.28-.17,0-.34,0-.38.07a4.07,4.07,0,0,1-1.12-.17,1.6,1.6,0,0,1-.45.17c0,.11.14.13,0,.21s-.36-.26-.56-.07c.08,0,.27,0,.18.17.23-.07.34,0,.38.11a4.1,4.1,0,0,1,1.26,0c.25-.2.63-.08,1.06,0,.3-.47,1.8.24,2.32-.21a2.83,2.83,0,0,0-.56,0C117.45,2.58,117.53,2.56,117.52,2.5Zm2.45.31a.85.85,0,0,0,.56-.17C120.19,2.62,119.79,2.64,120,2.81Zm.88-.07a.68.68,0,0,0,.56,0c.07-.1-.3-.13-.13-.18C121.18,2.49,120.84,2.61,120.85,2.74Zm-12.36-.07c0-.16-.4-.19-.56-.1C108,2.74,108.26,2.76,108.49,2.67Zm13.93,0c0-.11-.27-.06-.39-.1s-.08.11-.24.1C122,2.8,122.09,2.65,122.42,2.67Zm2.25,0c.19,0,.23-.15.31-.24C124.82,2.51,124.56,2.62,124.67,2.71ZM98.89,2.46c-.09,0-.32,0-.31,0a.39.39,0,0,0-.25.21C98.53,2.7,98.93,2.63,98.89,2.46Zm8.28.21c.48-.1.86-.26.88-.61-.49,0-.26.29-.75.24C107.5,2.51,107.07,2.54,107.18,2.67Zm-74.25,0c.21,0,.29-.13.18-.24S32.93,2.53,32.93,2.64Zm35.68,0c.13,0,.07-.24,0-.27C68.34,2.42,68.45,2.56,68.61,2.64Zm36.05,0c.31,0-.06-.19-.31-.14C104.44,2.63,104.66,2.46,104.66,2.64Zm4.84-.24c0,.06.19,0,.11.14.15-.07.15,0,0,0,.1.08.16,0,.32,0-.26-.14.16-.27-.18-.34,0,0,0,0,.06,0C109.67,2.13,109.67,2.4,109.5,2.39Zm-9.8.11c0-.08-.35,0-.31.07S99.57,2.51,99.71,2.5Zm6.72,0a1.17,1.17,0,0,0,.75-.07c-.15-.06-.48-.06-.75-.14,0,.11.22,0,.13.18S106.47,2.53,106.42,2.53Zm-72.05,0c-.07-.06-.08-.16-.13-.24a4.38,4.38,0,0,1-.88.06C33.45,2.59,34,2.53,34.37,2.5Zm32.54,0c0,.12.27-.09.32,0a.17.17,0,0,0,.13-.14c.25.09.31,0,.62,0,.08-.16-.25-.11-.31-.21-.24.16-.63-.11-1,0C66.56,2.36,67.06,2.39,66.91,2.46Zm31.42-.07c0-.12.09-.13.06-.24a1.54,1.54,0,0,0-.81,0C97.55,2.37,98.09,2.3,98.33,2.39Zm40.14,0c.25,0,.23-.12.43-.13C138.79,2.08,138.3,2.31,138.47,2.39Zm-16.25,0c.1-.06.29-.07.32-.17-.19,0-.19.06-.38,0S122.2,2.32,122.22,2.36ZM64.1,2.26c0-.11-.19-.11-.38-.11C63.78,2.23,63.9,2.26,64.1,2.26Zm55-.24c-.24,0-.41.06-.43-.1-.14,0-.32.05-.32.17-.38-.09-.81,0-1.26-.07,0,.11.1.11.14.17C117.94,2.15,118.68,2.34,119.09,2Zm9.35.21c.32,0,.31-.12.49-.17,0,0,0,0-.06,0s-.06,0-.06,0c-.18.17-.26,0-.5,0C128.47,2,128.52,2.08,128.44,2.23Zm25.26,0c.19,0-.14,0-.06-.14-.16,0-.24,0-.25.14S153.66,2.13,153.7,2.23ZM130.31,2a6.27,6.27,0,0,1-1.19,0C129.19,2.2,130.28,2.22,130.31,2Zm-57.13.11c.11,0,.22-.11.25,0,.17-.06-.2-.11-.31-.14S73.19,2.06,73.18,2.13Zm47,0a5.17,5.17,0,0,0-.63-.1C119.51,2.16,120,2.13,120.15,2.09Zm-6.7,0c0,.07.26,0,.38,0S113.53,2,113.45,2.06Zm9.15,0c.21,0,.34-.09.31-.24s-.11,0-.31,0Zm-12.36-.1c.18,0,.34,0,.32-.11S110.22,1.81,110.24,1.92Zm27.91,0c.09,0,.27,0,.25-.14C138.21,1.73,138.13,1.78,138.15,1.88ZM143,1.68h.25c.08-.16-.11-.16-.18-.24S142.87,1.62,143,1.68Zm3.46,0c.08,0,.09-.06.18-.07-.09-.13-.1-.11-.06-.27-.22,0-.17.19-.25.27C146.41,1.56,146.42,1.6,146.44,1.64Z"/><path class="gr" d="M94.76,7.94c-.06.09-.32.06-.32.18a3,3,0,0,1,.63,0C95.19,8,94.8,8,95,8,95,8,94.81,8,94.76,7.94Z"/><path class="gs" d="M146.93,7.54c0,.13.27.1.13.24-.33,0-.43-.14-.31-.28-.18,0-.23.15-.56.1-.09,0,0,.14-.13.14a3.93,3.93,0,0,0,1,.21c.29-.08,0-.35.38-.41A.88.88,0,0,0,146.93,7.54Z"/><path class="gt" d="M152.26,7.77c-.29.06-.1-.13-.24-.14-.3,0,0,.12-.07.21.61-.18,1.35,0,1.94-.14a.81.81,0,0,0-.75-.07c-.13,0-.11-.1-.32-.07s.15-.05.07-.14c-.23.13-.46,0-.76-.07C152.29,7.39,152.27,7.64,152.26,7.77Z"/><path class="gu" d="M95.76,7.77c-.26-.09.07,0,.19-.11,0-.11-.66-.1-.56.07S95.58,7.72,95.76,7.77Z"/><path class="gv" d="M156.22,7.57c.18-.08-.38-.05-.25-.21-.36.1-.8,0-1,.24A8,8,0,0,1,156.22,7.57Z"/><path class="gw" d="M10.23,7.54c.1,0-.21-.16.06-.21-.37-.06-.21.07-.43.14C9.84,7.56,10.23,7.44,10.23,7.54Z"/><path class="gx" d="M132.64,7.19c-.4-.06-.64,0-1.13,0-.18,0,.31-.17.07-.24-.17.09-.4.22-.32.34.5,0,1.63.09,1.76-.31a.77.77,0,0,1-.38-.07C132.61,6.95,132.83,7,132.64,7.19Z"/><path class="gy" d="M153.64,6.44c0-.06-.29,0-.18,0a.66.66,0,0,1-.25,0C153.08,6.52,153.55,6.52,153.64,6.44Z"/><path class="gz" d="M142.85,3.59c-.16.22.5.27.76.38.18-.07-.15-.26.13-.31A2.92,2.92,0,0,1,142.85,3.59Z"/><path class="ha" d="M93.13,3.59c-.17.09.24.14.25.24.14-.24.77-.2.88-.45a1.46,1.46,0,0,0-.7-.1c0-.39-.06.26-.13.34S93.11,3.67,93.13,3.59Z"/><path class="hb" d="M150.69,3.36c.23-.22.75-.18,1-.17,0-.23-.34-.11-.56-.18,0-.06.17-.09.13-.21s-.13,0-.13-.1c-.33,0-.4-.12-.63-.18.14.09,0,.22-.19.14,0,.08-.1.1-.06.21a.85.85,0,0,1,.38,0c-.13.12-.08.16-.13.28C150.83,3.14,150.76,3.26,150.69,3.36Z"/><path class="hc" d="M153.64,1.4c-.62,0-1.1.11-1.94.14,0-.16.22-.2.25-.34-.19,0-.13-.09-.32-.07s-.34.22-.56.31c.14.06.11.21.25.28-.47,0-.55-.12-.38-.28-.22,0-.24.05-.43,0,0-.06.07-.07.06-.13l-.49-.11c-.32.11-.47.3-.76.41a1.39,1.39,0,0,1,.18-.28c-.38-.06-.35.1-.63.1,0-.17.29-.23.32-.41.22-.06,0,.11.18.1.33-.08.42-.29.82-.34,0,.06-.1.09,0,.11s.14,0,.11-.11a2.6,2.6,0,0,0,1.38-.1c.47.15.73-.14,1.26,0,0,.09-.13.11.06.14s0-.19.19-.17a3,3,0,0,0,1,0c0,.08.06.11.18.11.36,0,.64-.27,1-.11.56-.17,2.34-.27,2.52.07-.09-.09-.25,0-.57-.07-.65.3.26.54.75.76-.33,0,0,.07-.18.14s-.25,0-.45,0c.09-.2-.39-.37-.56-.21.23.11.08.31-.13.38.07.12.21.21.18.38a1.13,1.13,0,0,1-.5,0c-.11-.14.15-.28-.18-.27-.08-.14.26-.06.32-.14-.1,0-.23,0-.19-.07s.48-.21.31-.34c-.15.24-.66,0-.94-.07,0,.07-.17,0-.13.14.21,0,.25.14.38.21-.1,0-.16,0-.18,0,.31.69-.95.27-1.19.1.08,0,.23,0,.25-.1a.86.86,0,0,0-.39-.11c-.1,0-.24.07-.24.17s.22,0,.18.07A3,3,0,0,1,153.64,1.4Zm-.18-.2a1.18,1.18,0,0,0-.57,0C153,1.33,153.27,1.31,153.46,1.2Z"/><path class="hd" d="M145.93,1.16c.14-.07.43-.24.38-.31S145.73,1,145.93,1.16Z"/><path class="he" d="M43.58,8.63a16.65,16.65,0,0,1,1.95.1s-.07-.18.07-.17c.33,0,.14.24.49.21.19-.1.65-.22.82,0,.18,0,.54-.21.63,0,.39-.09,1,0,1.06-.17a3,3,0,0,1,.81.21A2.35,2.35,0,0,0,50,8.59c.53.16,1-.15,1.57.07,0-.13.31-.1.38-.2a1.1,1.1,0,0,0,.75,0c0-.22-.62-.29-1-.21a5.13,5.13,0,0,0-1.82-.21c-.15,0,0,.09-.19.11a10.29,10.29,0,0,0-1.06-.11s0,.07-.06.07c-.41,0-.74-.07-.94.17-.3,0-.09-.21-.38-.17s-.16.12-.19.21c-.55-.16-1.22.11-1.88-.07-.64.18-1.52,0-1.89.14-1-.12-1.87.09-2.88,0a.11.11,0,0,0-.06.1,27,27,0,0,0-3.57,0v.1c-.94-.13-3-.2-3.39.17-.15,0-.14-.08-.14-.17-.09.09-.6.08-.62-.07-1.14.14-2.13,0-3.33.14,0,.09.45,0,.32.14-.37.1-.6,0-1.06,0a24,24,0,0,0,3.13,0c.13,0,.19,0,.18-.11a.9.9,0,0,0,.38.11c2.41-.17,4.56.21,6.58-.21a9.21,9.21,0,0,0,2.52.1c-.1,0-.23-.08-.25-.17a4.75,4.75,0,0,0,.63,0c0,.13-.27.1-.25.24A9.44,9.44,0,0,0,43.58,8.63Z"/><path class="hf" d="M78.64,8.46c.09-.16-.22-.09-.18-.21s.49,0,.56-.11.14.13.32.14.29-.16.56-.17c0-.11-.17-.12-.19-.21-.22,0-.45,0-.5.07a1.44,1.44,0,0,0-.74-.14c.1.21-.24.16-.32.28s-.22-.06-.18-.18c-.19.09-.47,0-.32-.14-.48,0-.41.27-1,.21,0,.13.25.16.43.21A.6.6,0,0,1,77.7,8c0,.07-.17,0-.13.14C78,8.13,78,8.54,78.64,8.46Z"/><path class="hg" d="M135.14,3.22c.36,0,.33-.14.69-.1-.19-.12.21-.12.19-.24.17,0,0,.14,0,.21.19,0,.18.06.37,0,0-.19.33-.17.63-.17-.06-.06-.15-.1-.18-.17a6.88,6.88,0,0,0-1.88.07c.1.06.19.12.31.17S135,3.12,135.14,3.22Z"/></svg>