<svg xmlns="http://www.w3.org/2000/svg" xmlns:xlink="http://www.w3.org/1999/xlink" viewBox="0 0 147.51 6.52"><defs><style>.a,.b,.c,.d,.e,.f,.g,.h,.i,.j,.k,.l,.m,.n{fill-rule:evenodd;}.a{fill:url(#a);}.b{fill:url(#b);}.c{fill:url(#c);}.d{fill:url(#d);}.e{fill:url(#e);}.f{fill:url(#f);}.g{fill:url(#g);}.h{fill:url(#h);}.i{fill:url(#i);}.j{fill:url(#j);}.k{fill:url(#k);}.l{fill:url(#l);}.m{fill:url(#m);}.n{fill:url(#n);}</style><linearGradient id="a" x1="145.97" y1="-18.61" x2="147.51" y2="-18.61" gradientTransform="translate(147.51 -15.68) rotate(180)" gradientUnits="userSpaceOnUse"><stop offset="0" stop-color="#7bd138"/><stop offset="1" stop-color="#0085ff"/></linearGradient><linearGradient id="b" x1="84.18" y1="-20.93" x2="84.58" y2="-20.93" xlink:href="#a"/><linearGradient id="c" x1="81.44" y1="-19.94" x2="81.62" y2="-19.94" xlink:href="#a"/><linearGradient id="d" x1="36.59" y1="-21.18" x2="36.71" y2="-21.18" xlink:href="#a"/><linearGradient id="e" x1="34.23" y1="-19.06" x2="34.81" y2="-19.06" xlink:href="#a"/><linearGradient id="f" x1="22.6" y1="-18.64" x2="22.79" y2="-18.64" xlink:href="#a"/><linearGradient id="g" x1="15.38" y1="-19.42" x2="15.47" y2="-19.42" xlink:href="#a"/><linearGradient id="h" x1="13.04" y1="-19.63" x2="13.16" y2="-19.63" xlink:href="#a"/><linearGradient id="i" x1="6.51" y1="-18.09" x2="6.66" y2="-18.09" xlink:href="#a"/><linearGradient id="j" x1="0.66" y1="-17.06" x2="2.48" y2="-17.06" xlink:href="#a"/><linearGradient id="k" x1="0" y1="-18.94" x2="145.95" y2="-18.94" xlink:href="#a"/><linearGradient id="l" x1="85.92" y1="-21.47" x2="86.07" y2="-21.47" xlink:href="#a"/><linearGradient id="m" x1="37.82" y1="-19.77" x2="38.1" y2="-19.77" xlink:href="#a"/><linearGradient id="n" x1="21.91" y1="-19.09" x2="22.35" y2="-19.09" xlink:href="#a"/></defs><title>Ativo 4</title><path class="a" d="M.7,3.35a.8.8,0,0,0-.36.18c-.17,0-.18-.09-.33-.07,0-.28.28-.61.12-.88a4.06,4.06,0,0,0,.4-.4c.12.2.43.37.32.58.26-.13.33-.45.7-.47.06.36-.28.77-.14,1.2a3.08,3.08,0,0,0-.66.18C.63,3.68.63,3.39.7,3.35Z"/><path class="b" d="M62.93,5.42c.07-.18.08-.49.4-.36a2.52,2.52,0,0,0-.12.4A.33.33,0,0,1,62.93,5.42Z"/><path class="c" d="M65.88,4.08c.17.06.15.24.18.36C65.94,4.39,65.89,4.25,65.88,4.08Z"/><path class="d" d="M110.8,5.64a.84.84,0,0,0,0-.29C110.92,5.38,111,5.67,110.8,5.64Z"/><path class="e" d="M112.69,3.35c0-.11.26-.13.18-.18s.13.08.18.1.09-.13.22-.1c0,.19-.24.2-.18.47C112.83,3.62,112.85,3.4,112.69,3.35Z"/><path class="f" d="M124.72,3V2.87c.1.06.22,0,.18.19A.21.21,0,0,0,124.72,3Z"/><path class="g" d="M132.09,3.86c-.06,0-.09-.27,0-.22S132.09,3.77,132.09,3.86Z"/><path class="h" d="M134.35,3.86s0,0,0,.08,0,0,0,0,0,.12,0,.14S134.34,3.95,134.35,3.86Z"/><path class="i" d="M140.87,2.33c.33.13-.12.3,0,0Z"/><path class="j" d="M146.85,1.23c0,.13-.21.15-.29.25-.39-.23-.62.14-1.06.08-.12,0-.32-.16-.41,0a.05.05,0,0,1-.07,0c0-.19.33-.22.54-.26A2.12,2.12,0,0,1,146.85,1.23Z"/><path class="k" d="M81.85,3.82c-.07-.19-.29-.23-.26-.51-.14-.07-.57,0-.7-.07s-.08.21-.18.26-.19-.1-.22-.22c-.8.1-1.5-.08-2.15.08a.4.4,0,0,1-.22-.11c-.21.15-.47.26-.5.59-.11-.22-.22-.2-.3-.44a.48.48,0,0,0-.22.19c-.1,0,0-.16-.18-.11,0,.26-.27.24-.3.48-.07-.18,0-.42,0-.59s-.08.1-.14.11c-.33-.18-.49,0-.77,0-.12-.1-.47-.44-.58-.11A2.69,2.69,0,0,0,75,2.91c-.15,0-.14.17-.26,0a2.38,2.38,0,0,0-.22.62c-.18-.17,0-.36-.14-.59-.07,0,0,.12-.11.11s.11.09.11.18a.35.35,0,0,1-.29.26c-.11-.22,0-.43-.08-.66a2.12,2.12,0,0,1-.73-.11c-.07,0-.18.1-.11.11-.08.11-.13-.11-.22-.11-1.68,0-2.91.18-4.38.22a.1.1,0,0,0-.07.11c-.31-.08-.7-.17-.91.08-.29-.11-.36,0-.66.07a4.72,4.72,0,0,0-.14.55c-.09,0-.2,0-.22.11-.13-.16-.2-.39-.44-.44s-.17.36-.15.58c-.07,0,0-.12-.1-.1a1.16,1.16,0,0,0-.18.47c-.11-.13-.17-.31-.29-.44-.14.09-.31.17-.36.37-.14-.17-.31-.09-.44-.26-.19.23-.39.22-.66.29,0-.16-.07-.2-.14-.25s-.39.5-.58.22a.72.72,0,0,1,0,.47c-.14-.08-.22-.22-.33-.14a1.11,1.11,0,0,1-.22-.73s-.07,0-.07,0c-.21,0-.14.23-.37.18a3.84,3.84,0,0,0-.44,1,.33.33,0,0,1-.07.4c-.3-.29.18-.71-.18-1,0,.29-.3.42-.29.7s.18.23.14.44c-.1,0-.21-.13-.22.07-.12,0,0-.12-.11-.14s-.23,0-.3.07,0-.18,0-.26-.23,0-.29-.11-.14.36-.29.44,0-.12-.08-.18c-.22.09-.36.27-.66.29,0-.21-.28-.2-.44-.18,0-.15-.09-.21-.1-.37-.18,0-.31-.16-.48,0-.22-.13-.24-.25-.54-.26-.15.18-.26.4-.48.51-.07-.08,0-.24,0-.33-.31.07-.36.39-.58.55-.11-.11-.28-.16-.33-.33s0,.15-.18.11-.09-.25-.14-.36c-.22.14-.25.38-.33.58-.08,0-.07-.12-.07-.22-.54.2-.6-.24-1.13-.14,0-.11,0-.27,0-.33s-.11.05-.14.11,0-.07,0-.19-.09.13-.22.11a9,9,0,0,0-.94-.51c-.11,0,0,.17-.11.22s-.21-.06-.26,0l-.36-.26a2.88,2.88,0,0,0-.7.07c-.6.84-.93,1.93-2.33,2,.12-.15,0-.25-.14-.29s.14-.15.14-.29-.18,0-.14-.15c-.24.13-.32.43-.58.55,0-.16.09-.27,0-.37-.26.08-.46,0-.73.15-.16-.24-.18-.59-.62-.62V5.35c-.17,0-.3,0-.33.18-.13-.1-.19-.29-.43-.29,0-.11,0-.13,0-.22-.15,0-.23.07-.22.22A.48.48,0,0,0,46,5.13a1.67,1.67,0,0,1-.73.55c-.09-.18,0-.38-.07-.51-.36.11-.37.49-.7.55,0,0,0-.17-.08-.22s-.17.11-.29.14a.58.58,0,0,0,0-.55c-.22.13-.29,0-.51-.07s-.19.19-.3.26-.13,0-.22,0,0,.2-.18.18-.11-.31-.22-.55c-.47,0-.58-.11-1-.07-.08,0-.09-.13-.14-.18-.06.14-.22.17-.26.33-.06,0-.08-.09-.08-.19s-.09.16-.22.15c0-.08.09-.2,0-.22-.53.32-.78.93-1.39,1.17,0-.14.08-.22.08-.36-.36.15-.42.6-.91.62,0-.08-.11-.11-.11-.22-.1,0-.1.19-.25.18.08-.14,0-.42,0-.62-.35-.07-.31.28-.54.33a.27.27,0,0,1,0-.19c-.14,0-.12,0-.22,0-.26.28-.57,0-.72-.18a1,1,0,0,0-.29.14c-.12,0,0-.07,0-.18-.19-.05-.19.1-.32.11-.31,0-.35-.3-.7-.29-.11,0-.11.16-.3.11s0-.3-.18-.33A.18.18,0,0,0,35,5.1c-.11-.11-.31,0-.36,0s-.08-.23-.22-.3-.09.06-.15.08-.31-.2-.47-.29-.16.13-.26.19a.69.69,0,0,0-.84-.07,2.07,2.07,0,0,0-1.17,0,13.43,13.43,0,0,0-1.82-.08s0,.12-.11.15-.1-.12-.18-.15,0,.08-.1.08a9.4,9.4,0,0,0-2.59.07c-.11,0-.08-.1-.14-.11s-.06.12-.11.14c-.09-.22-.5-.05-.7-.22-.18,0-.25.19-.4.26a.31.31,0,0,0,0-.22c-.47.27-.84-.1-1.25.22,0-.08-.14-.12-.1-.29-.15.12-.35.1-.55.22s-.27-.31-.29,0c-.1,0-.1-.11-.18-.15-.53.39-1-.09-1.43.37-.13-.28-.52-.26-.9-.18V4.59c-.25.18-.44,0-.77.08s-.32.34-.5.36-.21-.13-.4-.18-.28,0-.3-.15a2.65,2.65,0,0,0-.3.22c-.18-.17-.46,0-.69-.15-.14.06-.18.22-.3.3,0-.19-.11-.16-.14-.26A3,3,0,0,0,15.83,5c-.32,0-.48.12-.7-.14-.17.16-.49-.16-.58.14-.25-.17-.65,0-.84-.22,0,0,0,.1,0,.15a.58.58,0,0,0-.62.07c-.1,0-.09-.16-.18-.18-.35.11-.56-.1-.7.22A5.17,5.17,0,0,0,10.87,5c-.11,0-.07-.1-.14-.11s-.09.18-.18.22-.2-.19-.26-.33c-.06.13-.17,0-.14-.15-.3.06-.35-.06-.66,0a.27.27,0,0,1,0-.29c-.18,0-.31-.2-.44-.07C9,4.15,9,4.11,9,4c-.16.16-.2,0-.44.11a.78.78,0,0,1-.1-.22,1.12,1.12,0,0,0-.44,0c0-.2-.22-.2-.3-.33s-.11.1-.18.15c-.2-.13-.41,0-.54-.18-.25.1-.56.12-.55.47-.21-.2-.34.22-.62.19V4.08a.71.71,0,0,0-.22.11c-.08,0,0-.19-.07-.22-.27,0-.32.17-.33.37-.45-.26-.67,0-1.1.07-.14-.2-.4-.27-.44-.58-.08,0-.17,0-.18.14s-.07-.1-.1-.14S3.22,4,3.1,4s-.19-.13-.3-.18a1.53,1.53,0,0,0,.12-.58c-.23.06-.15.43-.26.62-.07,0,0-.19-.18-.15s-.09.13-.15.19,0-.07,0-.11-.06.19-.22.15a.64.64,0,0,0-.18-.4.21.21,0,0,1-.12,0s0,.09,0,.18c-.32-.1.1-.31.22-.4.07-.45,0-.76.3-1-.1-.07-.08-.24-.08-.4a.48.48,0,0,0-.62,0c-.12-.39.44-.27.76-.26,0,.1-.07.15-.07.26s.26.15.29.33c.16-.08.3,0,.41.11.28-.1,0-.34.1-.55a.75.75,0,0,0-.66,0c0-.1,0-.1,0-.19a6.34,6.34,0,0,1,1.31,0c.45,0,1-.09,1.31-.07.53,0,1-.08,1.53,0a6.63,6.63,0,0,0,.94-.11c.24,0,.49.07.73.07s.73-.09,1.13-.07c1.44,0,3-.18,4.45-.11,1,0,1.92-.11,2.88-.07s2-.1,3.07-.07c.55,0,1-.08,1.56,0s.91-.1,1.43-.07A11.49,11.49,0,0,0,23.88,1c.26,0,.51.09.76.08s.51-.13.73-.15.5.08.73.07.48-.12.72-.15.36,0,.55,0c.56,0,1.17-.19,1.9-.22,2-.09,4.14,0,6.34-.07,2-.09,4.14-.09,6.2,0,.34,0,1,0,1.49,0,2,.09,4.17,0,6.24.14A74.14,74.14,0,0,0,57.79.43c2-.12,3.92-.1,5.94-.22A23,23,0,0,1,67.26,0l.73,0c5.77.27,11.71,0,17.57.26,3.52.16,7,.12,10.58.29s6.8.17,10.06,0c.46,0,.89-.13,1.35-.19a22,22,0,0,1,3.21.15c1.36.06,2.77-.06,4,0,6.74.32,13.6-.07,20.16-.15a11.8,11.8,0,0,1,1.79.11,9.15,9.15,0,0,1,1.93-.07c1.29,0,2.69,0,4.08-.14.61-.05,1.32,0,2,0,1,0,1.82,0,2.73,0,0,.5-.6.45-1.09.51-.15,0,0-.07-.07-.07s0,.07-.11.11c-.44-.06-.61.32-.94.33a12.28,12.28,0,0,1-1.39,0c-.08,0,.08.11.08.19s.43-.11.32,0c.26,0,.38-.12.62,0-.22.38-.62.14-1.12.26,0,.17,0,.13,0,.33-.12-.06-.06-.31-.22-.33-.82.13-1.56-.16-2.41,0a.43.43,0,0,0-.29.18c0,.16.17,0,.14.18s-.12.1-.14.19c-.15-.14-.09-.48-.3-.55-.36.09-.62,0-.91.14,0-.07,0-.08,0-.14s-.11.16-.25.14a.17.17,0,0,0-.08-.14c-.11.15-.27,0-.4.25,0-.07,0-.14-.11-.18s-.24,0-.29.26c-.09,0,0-.16,0-.22s-.07.1-.18.07c0,.18.1.27,0,.37a.44.44,0,0,1-.12-.33c-.68-.09-1.39.11-2.19,0a4.5,4.5,0,0,0-.47,1.42c-.17,0-.27,0-.3.15a1.66,1.66,0,0,1,0-.95c.16-.09-.14.2,0,.33.18-.24.25-.63.5-.69,0-.11-.06-.16-.18-.15s-.18.24-.22.33a.51.51,0,0,1-.07-.29c-.51.26-1.29-.36-1.39.43-.08.09-.07-.05-.18,0a.38.38,0,0,0-.15.29c-.12-.06-.13,0-.29,0a.75.75,0,0,1-.14-.37s0,.08.07.08,0-.19,0-.26.06.06,0,.15,0-.07-.11-.07c-.28.18-.12.58-.3.84-.19-.12,0-.79-.14-.95a.25.25,0,0,0-.11.4c0,.11-.08.06-.15.07,0,.47-.26.46-.29.84-.13-.29-.07-.58-.19-.84-.23,0-.06.42-.25.48.07-.09,0-.31.1-.37-.07-.09-.29,0-.29.07,0-.13-.07-.28-.22-.29s0,.38-.22.48c-.27-.07-.13-.32-.11-.55s-.27-.12-.36-.22c-.52.17-1.49-.06-2,.14-.06,0-.08-.08-.08-.14-.16.19-.58-.11-.73.18-.08,0,0-.16-.08-.18-.36,0-.58.11-.47.47-.11,0-.07-.08-.08-.14-.44,0-.48.5-.9.55-.09,0,0,.16-.08.18s0-.45-.15-.48-.17.17-.25.26c-.1-.06,0-.19,0-.26s-.11-.07-.15,0,.06-.19,0-.07c-.09-.07,0-.25,0-.33s.32.07.36-.08-.21,0-.32,0-.37-.2-.73-.11c0,0,0,.06,0,.11-.22-.31-.55,0-.7.26-.1,0,0-.14-.14-.11s-.06.12-.08.18a1.61,1.61,0,0,1,.32,1.31c-.08,0-.16-.16,0-.22-.11-.07-.08.13-.26,0a3.14,3.14,0,0,1-.11-.73.19.19,0,0,0-.22,0s.08,0,.08,0c.08.21,0,.64.1.87-.13.05-.19.27-.4.15-.1.13,0,.24-.07.36h-.22c-.24-.27-.22-.92-.7-.84-.09.11-.1.29-.22.37s-.08-.18-.12,0c-.14,0,0-.29-.18-.22a7.67,7.67,0,0,0,.22.95c-.19-.11-.32-.07-.48-.22-.07.28.18.24.15.47-.27.12-.23-.19-.4,0-.21-.24-.24-.66-.51-.84,0-.12,0-.32-.1-.29-.13.31,0,.46.07.76-.27-.09-.39-.31-.58-.47-.13.1.11.36-.1.36a.32.32,0,0,1,.14.26c-.14-.07-.2-.23-.33-.33s-.22,0-.25.11c-.15-.08-.17-.27-.37-.29,0-.1,0-.21,0-.26s0,.13-.14.07-.12-.26-.14-.44-.08.16-.11,0c-.09.11.11.21,0,.33-.14-.05-.15-.43-.36-.29-.22-.15-.08-.29-.32-.44.2-.17-.13-.36,0-.51-.08-.13-.17-.24-.25-.37-.1.51.1.72.07,1.31a.66.66,0,0,0-.32.51c0-.15-.24-.31-.08-.44-.3.09-.12-.54-.33-.66s-.11.08-.07.18c-.14-.24.06-.75-.14-1.05-.12,0-.09.2-.26.18s-.16,0-.11-.18c-.43,0-.75.07-1.24,0-.06.25.23.52.08.81-.07,0-.08,0-.15,0s0,.23-.07.25c-.36-.13-.44-.43-.33-.87.19,0,.29,0,.4,0-.16-.21-.69-.08-.94-.07a2.11,2.11,0,0,1,.08,1.24c-.18,0-.16-.2-.3-.26a.49.49,0,0,1-.48,0c0-.22-.11-.23-.1-.4a.35.35,0,0,0,.18-.11c0-.17-.09-.29,0-.4a.77.77,0,0,1-.37,0,.56.56,0,0,0,.15.4c-.13,0-.46-.2-.36-.4a6.21,6.21,0,0,0-1.53.08c0,.1.06.07,0,.15s0-.11-.08-.11-.06.27-.08.4c.13,0,.06-.2.11-.26.2.11.28,0,.44,0,.09.24-.19.47,0,.69-.06.08-.09-.18-.22-.15-.06.2-.25.26-.32.44a1.48,1.48,0,0,1-.37,1.24c-.07-.05-.16-.08-.14-.21s.17-.11.22,0c.12-.18-.07-.14-.08-.22s0-.06.15,0c-.06-.28.28-.56.14-.91-.12,0,0,.17-.11.18s-.09-.21-.26-.18V3.2c-.14,0-.37.13-.55,0a1.19,1.19,0,0,0-.07,1.09c0,.17-.23.19-.18.44-.14-.08,0-.22,0-.4a.43.43,0,0,0-.26-.18c-.08-.33.13-.38.11-.66.41,0,.08-.58.26-.84,0-.08-.26,0-.29,0s-.14.2-.11.4c-.21-.1-.42.05-.4-.36a2,2,0,0,0-.36,1.09c-.1-.06,0-.11-.08-.18s-.06.14-.18.11c0-.12-.06-.12-.15-.11s-.06.23-.07.44a.67.67,0,0,0,.22.11c0,.21-.09.4,0,.58a1.63,1.63,0,0,0-.51.18c0,.25.18.43.11.62,0,0-.07,0-.08,0-.4-.16,0-.67-.26-1.06-.12.09-.14.27-.18.44-.11-.12-.2,0-.32,0s.15.09.1.25-.09-.14-.14-.22-.38-.23-.55-.22a2.84,2.84,0,0,0-.1-1.06A2.48,2.48,0,0,0,107,4.88c-.17-.13-.15-.45-.18-.73.09-.07,0,0,.1,0a2.75,2.75,0,0,0,.22-1.28c-.5.11-.1,1-.62,1.13,0,.15.08.11.08.22s-.06.36-.29.33c0-.08.08-.19,0-.25s0,.13,0,.18-.09-.3-.11-.11c-.08-.07-.19-.31,0-.33-.21-.24-.08-.67-.11-1.06-.46.12-.06.88-.32,1.17a1.3,1.3,0,0,1-.15-.62h-.18c0,.39.23.81,0,1.06-.09-.09,0-.13,0-.26s-.06,0-.15,0-.1-.35-.22-.48c-.32,0-.19.49-.32.69-.16-.18-.11-.4-.36-.43a3.14,3.14,0,0,0-.08-.95c-.36.19-.14.91-.26,1.24,0,0,0-.07-.08-.07s.09.13,0,.25-.13,0-.1.11c-.16-.29-.3-.61-.44-.91-.13.09-.15.29-.22.44-.09,0-.07-.13-.18-.11,0,.19-.1.43,0,.65-.18-.15-.19,0-.3.15-.14-.1-.15-.34-.18-.55-.14,0-.13.16-.14.3-.13-.07-.19.06-.18.21-.08-.09-.26-.08-.3-.21s-.2.12-.26.21c-.22-.14-.27-.46-.36-.73a.68.68,0,0,0-.18.55.78.78,0,0,0-.3-.26c-.13,0-.1.11-.22.11a.39.39,0,0,0-.4-.51,2.44,2.44,0,0,0-.26-.62.53.53,0,0,0-.22.51c-.07-.05-.23-.14-.22,0-.23,0-.12-.32,0-.26-.22,0-.27-.17-.58-.18-.12.17-.1.47-.3.55a2.32,2.32,0,0,0-.14-.55.36.36,0,0,1-.32,0,.59.59,0,0,0-.33.54c-.14,0-.19,0-.3,0s.11-.24.08-.44c-.4-.26-.55.21-.66.55-.08,0,0-.13,0-.18s-.06.16-.18.14.06-.31.08-.48a.11.11,0,0,0-.11-.07c-.16,0-.06.28-.18.33s0-.2-.1-.22-.15.16-.36.11c-.2.13,0,.63-.33.66-.15-.28-.08-.57-.18-.88a.84.84,0,0,0-.36.44c-.06-.09-.08-.07-.19,0s.09-.15.11-.22-.1,0-.08-.14c-.17,0-.24.1-.22.29-.12,0-.22-.11-.26,0,0-.25-.26-.1-.32-.33-.11,0-.06.18-.22.14,0-.06,0-.06,0-.11a30.66,30.66,0,0,0-3.32,0c-.17,0-.36-.06-.5,0s-.48-.14-1-.07c-.11,0-.12.09-.22.11s-.08-.09-.14-.11c-.28-.07-.49.22-.58,0,0,0,0,.07,0,.11s0-.17-.11-.22a17.31,17.31,0,0,1-2.22-.07c-.22,0-.44.08-.66.07-.76,0-1.72-.32-2.33.18-.08-.2-.51,0-.4-.07C82.2,3.42,82.11,3.8,81.85,3.82Zm-78.23-2c-.08,0-.23,0-.19.08S3.62,1.92,3.62,1.82ZM105.7,3.42c-.1,0-.12.05-.11.15S105.71,3.52,105.7,3.42Zm5.94-.07s.08-.2,0-.22S111.48,3.3,111.64,3.35ZM123.3,4c-.06-.21-.1-.44-.26-.55s-.09.06-.07.15C123.21,3.57,123.09,3.94,123.3,4Zm.32-.88c.24-.1.31-.54,0-.62C123.66,2.73,123.56,2.9,123.63,3.09Zm2.67-.36c-.08,0,0,.13,0,.18S126.43,2.7,126.29,2.73Zm.22-.15c.06.07.14,0,.14-.11s-.14,0-.22,0v.18C126.5,2.7,126.52,2.66,126.51,2.58Zm6.92-.18c-.07,0-.08,0-.14,0s0,.19,0,.18S133.42,2.47,133.43,2.4Z"/><path class="l" d="M61.54,5.64c.15.17-.12.24,0,.29C61.4,6,61.44,5.68,61.54,5.64Z"/><path class="m" d="M109.56,4.48c-.08,0-.1,0-.15,0,.22-.16.17-.46.22-.73C109.8,4,109.57,4.2,109.56,4.48Z"/><path class="n" d="M125.49,3.71c-.06.09-.1.06-.19,0,.15-.27-.18-.28-.14-.55s.39.08.44-.14C125.64,3.24,125.17,3.53,125.49,3.71Z"/></svg>