<svg width="254" height="73" viewBox="0 0 254 73" fill="none" xmlns="http://www.w3.org/2000/svg">
<path d="M247.496 24.0476V19.493H249.431C249.788 19.4758 250.146 19.5177 250.489 19.617C250.713 19.6966 250.903 19.8507 251.027 20.0536C251.161 20.2683 251.231 20.5173 251.226 20.7705C251.238 21.0808 251.13 21.3835 250.925 21.6167C250.684 21.8589 250.366 22.0078 250.026 22.0371C250.208 22.1394 250.374 22.2684 250.519 22.4198C250.713 22.6506 250.888 22.8976 251.041 23.1583L251.595 24.0476H250.497L249.832 23.0559C249.687 22.8224 249.526 22.5992 249.35 22.3875C249.277 22.3036 249.185 22.2388 249.081 22.1988C248.931 22.1549 248.775 22.1367 248.618 22.1449H248.433V24.0476H247.496ZM248.414 21.42H249.095C249.37 21.4342 249.647 21.4152 249.918 21.3634C250.028 21.3316 250.123 21.2631 250.187 21.1693C250.252 21.0682 250.284 20.9497 250.279 20.8298C250.286 20.6965 250.242 20.5656 250.154 20.465C250.067 20.3643 249.943 20.3018 249.811 20.2908C249.738 20.2908 249.515 20.2746 249.143 20.2746H248.424L248.414 21.42Z" fill="#194991"/>
<path d="M253.31 21.9455C253.31 22.7409 253.074 23.5184 252.633 24.1797C252.191 24.841 251.564 25.3564 250.83 25.6606C250.096 25.9649 249.288 26.0444 248.509 25.889C247.73 25.7336 247.015 25.3504 246.453 24.7878C245.892 24.2252 245.509 23.5085 245.355 22.7283C245.2 21.9481 245.28 21.1396 245.584 20.4049C245.889 19.6702 246.404 19.0424 247.065 18.6009C247.725 18.1594 248.502 17.924 249.297 17.9245C250.361 17.9253 251.382 18.3492 252.135 19.1032C252.887 19.8572 253.31 20.8796 253.31 21.9455ZM249.297 25.3412C249.968 25.3412 250.624 25.1418 251.183 24.7683C251.741 24.3948 252.176 23.8638 252.433 23.2427C252.689 22.6216 252.757 21.9381 252.625 21.2788C252.494 20.6195 252.171 20.014 251.696 19.5388C251.221 19.0637 250.616 18.7402 249.957 18.6094C249.298 18.4785 248.616 18.5462 247.996 18.8039C247.376 19.0615 246.846 19.4975 246.473 20.0567C246.1 20.6159 245.902 21.2733 245.902 21.9455C245.903 22.8464 246.261 23.7101 246.897 24.3468C247.534 24.9835 248.397 25.3412 249.297 25.3412Z" fill="#194991"/>
<path fill-rule="evenodd" clip-rule="evenodd" d="M238.651 33.6149V28.1306C238.66 27.4131 238.525 26.7011 238.254 26.0368C237.983 25.3725 237.581 24.7694 237.074 24.2632C236.585 23.7521 235.998 23.3453 235.348 23.0674C234.698 22.7895 233.998 22.6462 233.292 22.6462C232.585 22.6462 231.886 22.7895 231.236 23.0674C230.586 23.3453 229.999 23.7521 229.51 24.2632C229 24.7685 228.597 25.3712 228.324 26.0355C228.051 26.6999 227.914 27.4123 227.922 28.1306V33.6149C227.913 34.333 228.049 35.0455 228.32 35.7103C228.591 36.375 228.993 36.9785 229.502 37.485C229.991 37.9954 230.578 38.4016 231.228 38.6791C231.878 38.9566 232.577 39.0996 233.284 39.0996C233.99 39.0996 234.689 38.9566 235.339 38.6791C235.989 38.4016 236.576 37.9954 237.065 37.485C237.574 36.9785 237.976 36.375 238.247 35.7103C238.519 35.0455 238.654 34.333 238.645 33.6149H238.651ZM243.744 33.6149C243.77 35.0533 243.506 36.4821 242.966 37.8155C242.427 39.1489 241.624 40.3593 240.605 41.3739C239.619 42.3896 238.44 43.1971 237.137 43.7485C235.834 44.2999 234.434 44.584 233.02 44.584C231.605 44.584 230.205 44.2999 228.902 43.7485C227.599 43.1971 226.42 42.3896 225.435 41.3739C224.415 40.3597 223.612 39.1494 223.073 37.8159C222.533 36.4824 222.269 35.0534 222.296 33.6149V28.1306C222.27 26.6931 222.535 25.2651 223.074 23.9327C223.613 22.6002 224.416 21.3907 225.435 20.377C226.42 19.3612 227.599 18.5538 228.902 18.0024C230.205 17.451 231.605 17.1669 233.02 17.1669C234.434 17.1669 235.834 17.451 237.137 18.0024C238.44 18.5538 239.619 19.3612 240.605 20.377C241.623 21.3917 242.426 22.6022 242.966 23.9355C243.505 25.2689 243.77 26.6976 243.744 28.1359V33.6203V33.6149ZM219.357 22.6462H213.992V44.5836H208.633V22.6462H203.271V17.1619H219.357V22.6462ZM197.909 44.5836H194.106L176.459 26.527V44.5836H171.1V17.1619H174.909L192.545 35.1996V17.1619H197.909V44.5836ZM165.738 44.5836H149.65V17.1619H165.744V22.6462H155.012V28.1306H165.744V33.6149H155.012V39.0993H165.744V44.5836H165.738ZM144.288 44.5836H128.203V17.1619H133.565V39.0993H144.288V44.5836ZM117.479 28.144C117.488 27.4263 117.353 26.714 117.081 26.0496C116.81 25.3852 116.408 24.7823 115.899 24.2767C115.41 23.7655 114.823 23.3587 114.173 23.0808C113.523 22.8029 112.824 22.6597 112.117 22.6597C111.41 22.6597 110.711 22.8029 110.061 23.0808C109.411 23.3587 108.824 23.7655 108.335 24.2767C107.827 24.7827 107.425 25.3857 107.154 26.05C106.882 26.7143 106.747 27.4264 106.755 28.144H117.479ZM122.841 44.5836H117.479V33.6149H106.755V44.5836H101.393V28.144C101.366 26.7044 101.63 25.2741 102.17 23.9392C102.709 22.6044 103.512 21.3927 104.532 20.377C105.518 19.3592 106.698 18.5499 108.002 17.9973C109.306 17.4447 110.708 17.1599 112.124 17.1599C113.54 17.1599 114.942 17.4447 116.246 17.9973C117.55 18.5499 118.73 19.3592 119.716 20.377C120.734 21.3917 121.537 22.6022 122.077 23.9355C122.616 25.2689 122.88 26.6976 122.854 28.1359V44.5755L122.841 44.5836ZM97.913 22.6462H92.5539V44.5836H87.192V22.6462H81.8302V17.1619H97.913V22.6462Z" fill="#194991"/>
<path d="M90.8473 61.4005H87.7519V52.4477H90.8473C92.2201 52.4477 93.1622 52.7953 93.6655 53.4933C94.1689 54.1913 94.4246 55.2855 94.4246 56.7732C94.4334 57.4196 94.3829 58.0656 94.2738 58.7028C94.1801 59.2079 93.9978 59.6924 93.7355 60.1338C93.2456 60.9801 92.2829 61.4023 90.8473 61.4005ZM92.9226 56.7732C92.9226 55.6952 92.788 54.9136 92.5162 54.4339C92.2443 53.9542 91.6898 53.717 90.8473 53.717H89.2V60.1204H90.8473C91.7087 60.1204 92.2829 59.8024 92.57 59.1663C92.7072 58.8365 92.7978 58.4891 92.8392 58.1342C92.896 57.6827 92.9239 57.2281 92.9226 56.7732Z" fill="#194991"/>
<path d="M101.864 61.4005V52.4477H107.504V53.717H103.313V56.2503H106.72V57.5062H103.313V60.1204H107.504V61.4005H101.864Z" fill="#194991"/>
<path d="M117.452 53.5715C116.347 53.5715 115.794 53.9596 115.794 54.7357C115.779 54.9006 115.807 55.0665 115.876 55.2169C115.945 55.3674 116.052 55.497 116.187 55.5928C116.735 55.8711 117.316 56.0811 117.915 56.218C118.809 56.4686 119.436 56.757 119.799 57.1074C120.163 57.4577 120.338 57.994 120.338 58.7244C120.338 59.6658 120.068 60.3692 119.53 60.8346C118.992 61.2999 118.263 61.5335 117.344 61.5353C116.519 61.5229 115.698 61.4327 114.89 61.2658L114.421 61.1741L114.564 60.0099C115.455 60.1434 116.354 60.2226 117.256 60.247C118.332 60.247 118.871 59.7673 118.871 58.8079C118.882 58.6501 118.855 58.4918 118.791 58.3471C118.727 58.2023 118.629 58.0755 118.504 57.9778C118.259 57.7982 117.71 57.6023 116.86 57.3903C116.163 57.2511 115.509 56.9481 114.951 56.5064C114.533 56.1327 114.325 55.5407 114.327 54.7304C114.327 53.9218 114.596 53.3074 115.116 52.8923C115.635 52.4773 116.37 52.2725 117.304 52.2725C118.1 52.2847 118.895 52.3631 119.678 52.507L120.136 52.5851L120.017 53.7628C118.813 53.6353 117.958 53.5715 117.452 53.5715Z" fill="#194991"/>
<path d="M127.662 61.4005V52.4477H129.11V61.4005H127.662Z" fill="#194991"/>
<path d="M140.56 57.9778V56.695H143.104V61.2442C142.632 61.3404 142.155 61.4061 141.675 61.4409C140.957 61.511 140.437 61.5461 140.116 61.5461C138.758 61.5461 137.822 61.1714 137.309 60.4222C136.795 59.673 136.539 58.4989 136.539 56.8998C136.539 55.299 136.802 54.1312 137.327 53.3963C137.853 52.6615 138.765 52.2959 140.062 52.2994C140.931 52.3117 141.796 52.4019 142.649 52.569L143.104 52.6606L143.053 53.8113C142.114 53.6794 141.167 53.6092 140.218 53.6011C139.384 53.6011 138.811 53.8356 138.504 54.3072C138.197 54.7789 138.041 55.6547 138.041 56.9214C138.041 58.1881 138.186 59.0774 138.477 59.5544C138.768 60.0314 139.357 60.2794 140.245 60.2794C140.723 60.2941 141.2 60.2552 141.669 60.1635V57.9805L140.56 57.9778Z" fill="#194991"/>
<path d="M150.67 61.4005V52.4477H153.2L155.916 60.1204H156.113V52.4477H157.561V61.4005H155.082L152.285 53.717H152.102V61.4005H150.67Z" fill="#194991"/>
<path d="M20.0316 48.4887C18.535 41.7511 18.1312 35.6577 18.4946 28.1629L10.5972 32.4318V28.5294L18.7396 24.2659C19.0087 20.8244 19.6359 15.0355 20.0531 11.8688C20.0531 11.8688 20.1769 11.0603 19.5901 10.772C19.321 10.6399 18.8795 10.5025 17.8244 11.2382C14.2175 14.0707 10.7129 17.4367 8.67264 21.6005C7.28373 24.689 5.85713 28.4809 5.40762 32.5046C5.33494 33.3724 5.34571 34.2509 5.29457 35.1376C4.63779 46.8825 10.9175 57.7137 20.9979 63.2655C23.9399 64.8825 29.5198 66.23 33.6085 66.8956C27.0381 65.5023 21.7139 58.1395 20.0316 48.4887Z" fill="#194991"/>
<path d="M34.2491 5.31186C32.0769 5.43044 29.9424 5.89129 27.9048 6.3171C27.8519 6.33326 27.8013 6.35589 27.754 6.38448C25.9048 6.77526 25.1942 8.30603 24.7716 10.3138C24.3544 13.8173 23.8269 19.4284 23.9345 21.8269L33.9315 16.8088L34.2491 21.5305C33.9799 21.5924 24.559 25.6457 24.1875 26.1497C23.555 27.0067 24.0799 33.8386 24.2279 36.725C24.6828 45.5754 26.8281 54.4608 30.548 59.0127C32.2222 61.0582 33.8992 62.3141 35.533 62.9367C35.6676 62.9906 35.8022 63.0418 35.9422 63.0876C36.1763 63.1604 36.4078 63.2223 36.6393 63.2708L36.8035 63.3032L36.9731 63.3301C43.059 64.2141 49.5379 55.7194 51.3979 44.4057C51.6078 43.1175 51.7514 41.8518 51.8285 40.6085C51.8635 40.4926 51.9093 40.4063 52.0439 40.4063C52.1785 40.4063 52.2 40.498 52.2188 40.6112C52.235 41.0612 52.2431 41.5167 52.2431 41.9748C52.2431 54.9352 45.8638 65.602 37.6649 66.9846C39.6325 66.8795 41.6862 66.7312 43.5354 66.2623C57.0235 62.8504 66.8859 50.3779 66.8913 36.7492C66.8993 15.8251 50.4639 4.41173 34.2491 5.31186Z" fill="#194991"/>
<path d="M36.0687 0C28.935 0 21.9615 2.118 16.03 6.08617C10.0986 10.0543 5.47553 15.6944 2.74558 22.2933C0.0156271 28.8921 -0.698652 36.1532 0.693066 43.1585C2.08478 50.1638 5.51999 56.5985 10.5643 61.6491C15.6086 66.6996 22.0354 70.139 29.0321 71.5325C36.0287 72.9259 43.2809 72.2107 49.8716 69.4774C56.4623 66.7441 62.0954 62.1154 66.0587 56.1766C70.022 50.2378 72.1374 43.2557 72.1374 36.1132C72.1374 26.5354 68.3373 17.3498 61.5731 10.5773C54.8089 3.80477 45.6347 0 36.0687 0ZM36.0687 69.9437C29.3869 69.9442 22.8549 67.9609 17.2989 64.2444C11.7429 60.528 7.41236 55.2454 4.85496 49.0648C2.29755 42.8841 1.62814 36.0829 2.93138 29.5213C4.23462 22.9597 7.45197 16.9324 12.1766 12.2016C16.9012 7.47076 22.9208 4.24896 29.4742 2.94359C36.0276 1.63823 42.8205 2.30792 48.9938 4.86798C55.167 7.42805 60.4434 11.7635 64.1557 17.3261C67.868 22.8886 69.8494 29.4285 69.8494 36.1186C69.8498 40.5604 68.9763 44.9589 67.2788 49.0627C65.5813 53.1665 63.0931 56.8954 59.9562 60.0364C56.8194 63.1774 53.0953 65.669 48.9967 67.3689C44.898 69.0688 40.5051 69.9437 36.0687 69.9437Z" fill="#194991"/>
</svg>
