<svg width="425" height="121" viewBox="0 0 425 121" fill="none" xmlns="http://www.w3.org/2000/svg">
<path d="M415.245 40.2867V32.6565H418.492C419.091 32.6276 419.691 32.6978 420.267 32.8641C420.643 32.9975 420.962 33.2556 421.17 33.5956C421.396 33.9552 421.512 34.3723 421.505 34.7965C421.523 35.3163 421.342 35.8236 420.999 36.2142C420.595 36.6199 420.061 36.8695 419.49 36.9186C419.796 37.0898 420.075 37.3059 420.317 37.5597C420.644 37.9463 420.937 38.3602 421.193 38.7968L422.123 40.2867H420.281L419.165 38.6252C418.921 38.2342 418.651 37.8601 418.357 37.5055C418.234 37.3649 418.079 37.2564 417.905 37.1894C417.653 37.1159 417.391 37.0854 417.129 37.0991H416.817V40.2867H415.245ZM416.785 35.8846H417.928C418.391 35.9084 418.855 35.8766 419.31 35.7898C419.493 35.7366 419.653 35.6218 419.761 35.4647C419.87 35.2954 419.923 35.0967 419.915 34.8959C419.927 34.6727 419.852 34.4534 419.706 34.2847C419.559 34.1161 419.352 34.0113 419.129 33.9929C419.007 33.9929 418.632 33.9658 418.009 33.9658H416.803L416.785 35.8846Z" fill="white"/>
<path d="M425 36.7651C425 38.0976 424.605 39.4001 423.864 40.508C423.123 41.6159 422.071 42.4793 420.839 42.989C419.608 43.4987 418.253 43.6318 416.946 43.3715C415.639 43.1113 414.438 42.4692 413.496 41.5267C412.554 40.5842 411.912 39.3835 411.653 38.0765C411.393 36.7695 411.527 35.4149 412.038 34.1841C412.549 32.9532 413.413 31.9015 414.522 31.1619C415.63 30.4222 416.934 30.0279 418.266 30.0288C420.053 30.03 421.765 30.7402 423.028 32.0034C424.291 33.2665 425 34.9793 425 36.7651V36.7651ZM418.266 42.4539C419.393 42.4539 420.494 42.1198 421.431 41.494C422.367 40.8682 423.097 39.9788 423.528 38.9382C423.959 37.8976 424.072 36.7527 423.851 35.6482C423.631 34.5436 423.089 33.5292 422.292 32.7332C421.495 31.9371 420.48 31.3952 419.375 31.1761C418.27 30.9569 417.125 31.0703 416.084 31.5019C415.044 31.9335 414.154 32.6639 413.529 33.6008C412.904 34.5376 412.571 35.6388 412.572 36.7651C412.573 38.2742 413.173 39.7212 414.241 40.7879C415.309 41.8546 416.757 42.4539 418.266 42.4539V42.4539Z" fill="white"/>
<path fill-rule="evenodd" clip-rule="evenodd" d="M400.405 56.3146V47.1268C400.42 45.9248 400.194 44.732 399.739 43.6191C399.285 42.5062 398.611 41.4959 397.759 40.6479C396.939 39.7915 395.954 39.11 394.864 38.6445C393.773 38.1789 392.6 37.9389 391.414 37.9389C390.228 37.9389 389.055 38.1789 387.964 38.6445C386.874 39.11 385.889 39.7915 385.069 40.6479C384.213 41.4944 383.537 42.5041 383.079 43.617C382.621 44.73 382.392 45.9235 382.404 47.1268V56.3146C382.39 57.5177 382.617 58.7113 383.072 59.825C383.528 60.9386 384.202 61.9496 385.055 62.7981C385.876 63.6533 386.861 64.3337 387.951 64.7986C389.042 65.2634 390.215 65.5031 391.4 65.5031C392.586 65.5031 393.759 65.2634 394.849 64.7986C395.94 64.3337 396.925 63.6533 397.745 62.7981C398.599 61.9496 399.273 60.9386 399.728 59.825C400.183 58.7113 400.411 57.5177 400.396 56.3146H400.405ZM408.95 56.3146C408.994 58.7243 408.551 61.1181 407.646 63.3519C406.741 65.5857 405.393 67.6134 403.684 69.3131C402.03 71.0148 400.052 72.3676 397.866 73.2913C395.68 74.215 393.331 74.691 390.958 74.691C388.585 74.691 386.235 74.215 384.049 73.2913C381.864 72.3676 379.885 71.0148 378.231 69.3131C376.521 67.6141 375.173 65.5865 374.268 63.3525C373.363 61.1185 372.92 58.7245 372.966 56.3146V47.1268C372.922 44.7186 373.366 42.3264 374.271 40.0941C375.176 37.8619 376.523 35.8356 378.231 34.1373C379.885 32.4356 381.864 31.0829 384.049 30.1592C386.235 29.2354 388.585 28.7595 390.958 28.7595C393.331 28.7595 395.68 29.2354 397.866 30.1592C400.052 31.0829 402.03 32.4356 403.684 34.1373C405.393 35.8373 406.74 37.8651 407.645 40.0989C408.55 42.3326 408.994 44.7262 408.95 47.1358V56.3237V56.3146ZM368.034 37.9389H359.034V74.6904H350.042V37.9389H341.046V28.751H368.034V37.9389V37.9389ZM332.05 74.6904H325.669L296.061 44.4404V74.6904H287.07V28.751H293.46L323.049 58.9694V28.751H332.05V74.6904V74.6904ZM278.074 74.6904H251.081V28.751H278.083V37.9389H260.077V47.1268H278.083V56.3146H260.077V65.5025H278.083V74.6904H278.074ZM242.085 74.6904H215.097V28.751H224.093V65.5025H242.085V74.6904V74.6904ZM197.105 47.1494C197.12 45.9469 196.893 44.7536 196.438 43.6406C195.982 42.5275 195.308 41.5175 194.454 40.6704C193.634 39.8141 192.649 39.1326 191.558 38.667C190.468 38.2015 189.294 37.9614 188.109 37.9614C186.923 37.9614 185.749 38.2015 184.659 38.667C183.568 39.1326 182.584 39.8141 181.764 40.6704C180.911 41.5181 180.236 42.5283 179.781 43.6412C179.326 44.7541 179.098 45.947 179.113 47.1494H197.105ZM206.101 74.6904H197.105V56.3146H179.113V74.6904H170.117V47.1494C170.071 44.7375 170.514 42.3413 171.419 40.1051C172.324 37.8689 173.672 35.8389 175.382 34.1373C177.036 32.4322 179.016 31.0765 181.204 30.1507C183.392 29.2249 185.744 28.7478 188.12 28.7478C190.496 28.7478 192.848 29.2249 195.036 30.1507C197.224 31.0765 199.204 32.4322 200.858 34.1373C202.566 35.8373 203.914 37.8651 204.818 40.0989C205.723 42.3326 206.167 44.7262 206.123 47.1358V74.6769L206.101 74.6904ZM164.277 37.9389H155.286V74.6904H146.29V37.9389H137.294V28.751H164.277V37.9389Z" fill="white"/>
<path d="M152.422 102.864H147.229V87.865H152.422C154.726 87.865 156.306 88.4474 157.151 89.6168C157.995 90.7861 158.424 92.6192 158.424 95.1114C158.439 96.1944 158.354 97.2765 158.171 98.3441C158.014 99.1902 157.708 100.002 157.268 100.742C156.446 102.159 154.831 102.867 152.422 102.864ZM155.904 95.1114C155.904 93.3054 155.679 91.9961 155.222 91.1925C154.766 90.3888 153.836 89.9915 152.422 89.9915H149.659V100.719H152.422C153.868 100.719 154.831 100.186 155.313 99.1207C155.543 98.568 155.695 97.986 155.764 97.3915C155.86 96.6352 155.907 95.8736 155.904 95.1114V95.1114Z" fill="white"/>
<path d="M170.907 102.864V87.865H180.368V89.9915H173.336V94.2355H179.054V96.3395H173.336V100.719H180.368V102.864H170.907Z" fill="white"/>
<path d="M197.06 89.7477C195.205 89.7477 194.278 90.3978 194.278 91.6981C194.252 91.9742 194.299 92.2523 194.415 92.5043C194.531 92.7563 194.711 92.9735 194.937 93.1339C195.857 93.6002 196.831 93.952 197.836 94.1813C199.336 94.6012 200.388 95.0843 200.998 95.6713C201.607 96.2582 201.901 97.1567 201.901 98.3802C201.901 99.9574 201.449 101.136 200.546 101.915C199.643 102.695 198.42 103.086 196.879 103.089C195.495 103.069 194.116 102.917 192.76 102.638L191.974 102.484L192.214 100.534C193.71 100.758 195.218 100.89 196.73 100.931C198.536 100.931 199.44 100.128 199.44 98.5202C199.459 98.2558 199.413 97.9907 199.306 97.7482C199.199 97.5057 199.034 97.2933 198.825 97.1296C198.413 96.8286 197.493 96.5005 196.066 96.1453C194.897 95.9121 193.799 95.4045 192.864 94.6644C192.163 94.0384 191.813 93.0466 191.816 91.6891C191.816 90.3346 192.268 89.3052 193.14 88.6099C194.011 87.9146 195.244 87.5715 196.811 87.5715C198.148 87.5919 199.48 87.7232 200.794 87.9643L201.562 88.0952L201.363 90.0683C199.343 89.8545 197.909 89.7477 197.06 89.7477Z" fill="white"/>
<path d="M214.189 102.864V87.865H216.619V102.864H214.189Z" fill="white"/>
<path d="M235.83 97.1296V94.9805H240.098V102.602C239.306 102.763 238.505 102.873 237.7 102.931C236.495 103.049 235.624 103.107 235.085 103.107C232.806 103.107 231.236 102.48 230.375 101.225C229.514 99.9695 229.083 98.0025 229.083 95.3236C229.083 92.6418 229.524 90.6853 230.406 89.4542C231.288 88.2231 232.818 87.6106 234.995 87.6167C236.452 87.6372 237.904 87.7883 239.335 88.0681L240.098 88.2217L240.012 90.1495C238.436 89.9284 236.848 89.8108 235.257 89.7974C233.857 89.7974 232.895 90.1902 232.38 90.9803C231.865 91.7704 231.603 93.2377 231.603 95.3598C231.603 97.4818 231.847 98.9717 232.335 99.7708C232.822 100.57 233.811 100.985 235.302 100.985C236.103 101.01 236.904 100.945 237.691 100.791V97.1341L235.83 97.1296Z" fill="white"/>
<path d="M252.792 102.864V87.865H257.038L261.594 100.719H261.924V87.865H264.354V102.864H260.194L255.502 89.9915H255.195V102.864H252.792Z" fill="white"/>
<path d="M33.6088 81.2325C31.0979 69.9452 30.4205 59.737 31.0301 47.1809L17.7799 54.3326V47.795L31.4411 40.6524C31.8927 34.8868 32.945 25.1887 33.645 19.8837C33.645 19.8837 33.8527 18.5292 32.8682 18.0461C32.4166 17.8249 31.6759 17.5946 29.9056 18.8272C23.8541 23.5724 17.9741 29.2115 14.5509 36.1871C12.2206 41.3612 9.82712 47.7137 9.07294 54.4545C8.951 55.9083 8.96907 57.3802 8.88326 58.8656C7.78134 78.5416 18.3174 96.6871 35.2301 105.988C40.1662 108.697 49.528 110.954 56.388 112.069C45.3642 109.735 36.4314 97.4005 33.6088 81.2325Z" fill="white"/>
<path d="M57.4627 8.89889C53.8182 9.09754 50.237 9.8696 46.8183 10.583C46.7297 10.61 46.6447 10.6479 46.5654 10.6958C43.4629 11.3505 42.2706 13.915 41.5616 17.2786C40.8616 23.148 39.9764 32.5481 40.1571 36.5663L56.9298 28.1596L57.4627 36.0697C57.0111 36.1735 41.2048 42.964 40.5816 43.8083C39.5203 45.244 40.4009 56.6894 40.6493 61.5249C41.4125 76.3519 45.0119 91.2376 51.2531 98.8633C54.0621 102.29 56.8756 104.394 59.6169 105.437C59.8427 105.527 60.0685 105.613 60.3033 105.69C60.6962 105.812 61.0846 105.916 61.473 105.997L61.7485 106.051L62.033 106.096C72.2439 107.577 83.1141 93.346 86.2347 74.3924C86.587 72.2343 86.8278 70.1137 86.9573 68.0309C87.016 67.8367 87.0928 67.6922 87.3186 67.6922C87.5444 67.6922 87.5805 67.8457 87.6121 68.0354C87.6392 68.7894 87.6528 69.5524 87.6528 70.3199C87.6528 92.0322 76.9496 109.902 63.1936 112.218C66.4949 112.042 69.9407 111.794 73.0432 111.008C95.6733 105.293 112.22 84.3975 112.229 61.5655C112.243 26.5116 84.6676 7.3909 57.4627 8.89889Z" fill="white"/>
<path d="M60.5156 0C48.5467 0 36.8467 3.54826 26.8949 10.1961C16.9432 16.8439 9.18678 26.2927 4.6065 37.3476C0.026219 48.4026 -1.17219 60.5671 1.16282 72.3029C3.49782 84.0388 9.26137 94.8189 17.7246 103.28C26.1879 111.741 36.9707 117.503 48.7096 119.837C60.4485 122.172 72.6161 120.974 83.6739 116.395C94.7317 111.816 104.183 104.061 110.832 94.112C117.482 84.1628 121.031 72.4658 121.031 60.5C121.031 44.4544 114.655 29.066 103.307 17.72C91.9577 6.37409 76.5653 0 60.5156 0V0ZM60.5156 117.176C49.3049 117.177 38.3457 113.854 29.0239 107.628C19.7021 101.402 12.4364 92.552 8.14558 82.1976C3.85481 71.8432 2.73168 60.4492 4.91823 49.4566C7.10479 38.4641 12.5028 28.3666 20.4297 20.4411C28.3565 12.5157 38.4562 7.11824 49.4514 4.93137C60.4467 2.7445 71.8436 3.86643 82.2011 8.15527C92.5585 12.4441 101.411 19.7072 107.64 29.0261C113.868 38.3451 117.192 49.3012 117.192 60.509C117.193 67.9504 115.728 75.319 112.88 82.1941C110.031 89.0692 105.857 95.3162 100.594 100.578C95.3308 105.84 89.0826 110.014 82.2059 112.862C75.3293 115.71 67.9589 117.176 60.5156 117.176V117.176Z" fill="white"/>
</svg>
