<svg xmlns="http://www.w3.org/2000/svg" viewBox="0 0 523.11 394.52"><defs><style type="text/css">.cls-1{fill:#b2ca6a;}.cls-2{fill:none;}</style></defs><title>Ativo 3</title><g id="Camada_2" data-name="Camada 2"><g id="Camada_1-2" data-name="Camada 1"><path class="cls-1" d="M64.47,28.52A1.46,1.46,0,1,1,63,27.09,1.45,1.45,0,0,1,64.47,28.52Z"/><path class="cls-1" d="M115.12,54a1.85,1.85,0,1,1-1.89-1.81A1.84,1.84,0,0,1,115.12,54Z"/><path class="cls-1" d="M153.6,29.3a2.06,2.06,0,0,1-4.12.09,2.06,2.06,0,1,1,4.12-.09Z"/><path class="cls-1" d="M104.78,125.21a1.27,1.27,0,1,1-2.53.05,1.27,1.27,0,1,1,2.53-.05Z"/><circle class="cls-1" cx="40.96" cy="129.05" r="1.74" transform="translate(-88.09 88.09) rotate(-54.78)"/><path class="cls-1" d="M492.53,34.24A1.48,1.48,0,1,1,491,32.8,1.47,1.47,0,0,1,492.53,34.24Z"/><path class="cls-1" d="M404.25,110.63a2.26,2.26,0,1,1-2.3-2.21A2.25,2.25,0,0,1,404.25,110.63Z"/><path class="cls-1" d="M186.81,9.25A1.27,1.27,0,1,1,185.52,8,1.27,1.27,0,0,1,186.81,9.25Z"/><path class="cls-1" d="M455.35,3.57a1.27,1.27,0,1,1-1.3-1.24A1.28,1.28,0,0,1,455.35,3.57Z"/><path class="cls-1" d="M402,78.26a1.83,1.83,0,1,1-1.87-1.79A1.83,1.83,0,0,1,402,78.26Z"/><path class="cls-1" d="M378.75,78.19a1.55,1.55,0,1,1-1.58-1.52A1.55,1.55,0,0,1,378.75,78.19Z"/><path class="cls-1" d="M349.14,84.24a2.47,2.47,0,1,1-2.52-2.41A2.47,2.47,0,0,1,349.14,84.24Z"/><path class="cls-1" d="M448.63,43a2.19,2.19,0,1,1-2.23-2.14A2.19,2.19,0,0,1,448.63,43Z"/><path class="cls-1" d="M518.45,25.55a3.31,3.31,0,1,1-3.38-3.24A3.31,3.31,0,0,1,518.45,25.55Z"/><path class="cls-1" d="M336.92,26.29a2.47,2.47,0,1,1-2.52-2.42A2.46,2.46,0,0,1,336.92,26.29Z"/><path class="cls-1" d="M234.26,44.31a2,2,0,1,1-2-1.93A2,2,0,0,1,234.26,44.31Z"/><path class="cls-1" d="M285.24,35.34a1.69,1.69,0,1,1-1.73-1.65A1.69,1.69,0,0,1,285.24,35.34Z"/><path class="cls-1" d="M297.92,41.56a1.41,1.41,0,1,1-1.44-1.38A1.42,1.42,0,0,1,297.92,41.56Z"/><path class="cls-1" d="M300.77,70a1.34,1.34,0,1,1-1.36-1.31A1.34,1.34,0,0,1,300.77,70Z"/><path class="cls-1" d="M194.64,123.66a1.27,1.27,0,1,1-1.29-1.24A1.27,1.27,0,0,1,194.64,123.66Z"/><path class="cls-1" d="M172.4,78.39a1.62,1.62,0,1,1-1.65-1.58A1.62,1.62,0,0,1,172.4,78.39Z"/><path class="cls-1" d="M382.52,8.38c-.2-.06-.08,3.95-.72,5.48a1.66,1.66,0,0,1-1.37,1c-2.22.34-4.61.52-4.64.82s3.16.25,4.89.86c1,.35,1.4.73,1.58,1.43.5,1.93.57,5.25,1,5.32.25,0,.22-3.16.85-5.57a1.71,1.71,0,0,1,1.35-1.28c2-.47,4.91-.4,5-.78s-3.29-.35-5.23-.94a2.53,2.53,0,0,1-1.62-1.1C383.2,12.69,382.94,8.5,382.52,8.38Z"/><path class="cls-1" d="M61.09,96.33c0,.14,2.64-.41,3.73-.16a1.11,1.11,0,0,1,.85.79c.49,1.44.88,3,1.08,3s-.2-2.14,0-3.36c.12-.72.32-1,.77-1.22,1.22-.56,3.42-1,3.41-1.31s-2.12.21-3.8.08a1.17,1.17,0,0,1-1-.75c-.53-1.26-.83-3.22-1.1-3.26s.15,2.23,0,3.59a1.7,1.7,0,0,1-.54,1.21C63.88,95.37,61.12,96,61.09,96.33Z"/><path class="cls-1" d="M43.84,122.35c0,.14,2.48-1,3.6-1a1.1,1.1,0,0,1,1,.57c.8,1.29,1.55,2.72,1.74,2.67s-.68-2-.77-3.27a1.35,1.35,0,0,1,.47-1.37c1.06-.83,3.1-1.75,3-2.06s-2,.7-3.68,1a1.17,1.17,0,0,1-1.16-.5c-.82-1.1-1.56-2.94-1.83-2.91s.66,2.13.81,3.49a1.65,1.65,0,0,1-.25,1.3C46.34,120.78,43.8,122.06,43.84,122.35Z"/><path class="cls-1" d="M126.07,68c.11.1,1.31-2.33,2.17-3a1.11,1.11,0,0,1,1.14-.19c1.44.5,2.92,1.16,3,1s-1.81-1.15-2.65-2.06c-.5-.54-.61-.88-.49-1.36.31-1.31,1.32-3.32,1.06-3.51s-1.13,1.82-2.27,3.06a1.17,1.17,0,0,1-1.22.34c-1.32-.35-3-1.32-3.24-1.13s1.85,1.25,2.82,2.22a1.67,1.67,0,0,1,.62,1.17C127,65.25,125.86,67.84,126.07,68Z"/><path class="cls-1" d="M212.55,107.41c.14,0-.24-2.66.08-3.73a1.09,1.09,0,0,1,.83-.8c1.47-.4,3.06-.69,3.06-.9s-2.14.07-3.35-.21c-.71-.16-1-.38-1.17-.84-.48-1.26-.78-3.48-1.1-3.49s.09,2.13-.15,3.8a1.18,1.18,0,0,1-.81,1c-1.29.45-3.27.63-3.32.9s2.23,0,3.58.24a1.69,1.69,0,0,1,1.17.61C211.77,104.57,212.26,107.37,212.55,107.41Z"/><path class="cls-1" d="M311.86,67.48c.15,0-.24-2.87.11-4a1.19,1.19,0,0,1,.91-.85c1.58-.41,3.3-.72,3.31-.94s-2.31.05-3.61-.26c-.77-.18-1.07-.42-1.26-.92-.51-1.35-.81-3.76-1.15-3.77s.07,2.3-.2,4.1a1.24,1.24,0,0,1-.89,1c-1.39.49-3.52.66-3.58.95s2.41,0,3.86.28a1.87,1.87,0,0,1,1.26.68C311,64.4,311.54,67.43,311.86,67.48Z"/><path class="cls-1" d="M445.45,6.82A20.06,20.06,0,0,1,445,4.18a.76.76,0,0,1,.49-.66c1-.47,2.07-.87,2-1s-1.5.32-2.39.27c-.52,0-.74-.14-.93-.45C443.76,1.5,443.27,0,443,0s.33,1.5.37,2.7a.82.82,0,0,1-.45.78c-.85.48-2.22.86-2.23,1.05s1.58-.29,2.56-.28a1.21,1.21,0,0,1,.9.29C444.54,4.92,445.24,6.83,445.45,6.82Z"/><path class="cls-1" d="M277.58,50.92c-.09.1,2.17,1.09,2.85,1.85a1,1,0,0,1,.22,1,12.48,12.48,0,0,0-.78,2.8c.22.14,1-1.69,1.77-2.49.47-.47.78-.59,1.22-.5,1.2.22,3.06,1.07,3.22.82s-1.69-1-2.86-1.94a1.06,1.06,0,0,1-.36-1.09c.26-1.22,1.07-2.83.89-3s-1.06,1.73-1.9,2.66a1.55,1.55,0,0,1-1,.61C280.15,51.68,277.75,50.72,277.58,50.92Z"/><path class="cls-1" d="M170.7,93a22.49,22.49,0,0,1,2.75-.54.84.84,0,0,1,.72.48A9.49,9.49,0,0,0,175.32,95c.2,0-.4-1.55-.39-2.48,0-.55.12-.79.43-1,.84-.55,2.42-1.13,2.37-1.36s-1.55.4-2.8.5a.87.87,0,0,1-.84-.44c-.54-.86-1-2.28-1.2-2.28s.37,1.63.41,2.66a1.31,1.31,0,0,1-.26,1C172.66,91.94,170.69,92.75,170.7,93Z"/><path class="cls-1" d="M518.47,71.51c.14,0,0-2.8.42-3.89a1.16,1.16,0,0,1,1-.75c1.56-.28,3.25-.44,3.27-.65s-2.24-.13-3.47-.53c-.73-.24-1-.49-1.15-1-.39-1.35-.49-3.7-.82-3.74-.18,0-.11,2.24-.51,3.95a1.2,1.2,0,0,1-.94.93c-1.38.36-3.46.36-3.53.64s2.32.19,3.71.57a1.79,1.79,0,0,1,1.16.75C517.92,68.47,518.17,71.43,518.47,71.51Z"/><path class="cls-1" d="M506.41,5.44c-.29.45,1.25,1.62,2.18,3.18a3.2,3.2,0,0,1,.28,2.91c-.52,1.57-1.94,3.64-1.61,4.11s2.34-1.75,3.34-2.35a3.17,3.17,0,0,1,3.33-.18c1.71,1,2.89,1.9,3.26,1.63s-1.48-2.51-2.08-3.4S514,9.83,514.62,8.5s2.67-3.87,2.35-4.34-2.51,1.75-4.07,2.78a2.59,2.59,0,0,1-2.8.28C508.55,6.67,506.61,5.12,506.41,5.44Z"/><path class="cls-1" d="M453,68.77c0,.39,1.36.62,2.5,1.32a2.33,2.33,0,0,1,1.17,1.79c.2,1.2,0,3,.36,3.22s.93-1.93,1.37-2.66a2.31,2.31,0,0,1,2.1-1.25c1.46.08,2.53.24,2.68-.06s-1.82-1.13-2.52-1.5S459.44,69,459.42,68s.41-3.43,0-3.62-1,2-1.7,3.2A1.87,1.87,0,0,1,456,68.66C454.85,68.83,453.06,68.49,453,68.77Z"/><path class="cls-1" d="M379.85,70.08c.48.28,1.61-1.38,3.2-2.43a3.3,3.3,0,0,1,3-.44c1.66.46,3.89,1.82,4.36,1.46s-1.94-2.35-2.62-3.35a3.3,3.3,0,0,1-.35-3.46c1-1.84,1.82-3.12,1.52-3.49s-2.54,1.68-3.43,2.35S384,62,382.6,61.37s-4.16-2.58-4.64-2.21,2,2.51,3.12,4.09a2.71,2.71,0,0,1,.42,2.9C381,67.79,379.5,69.89,379.85,70.08Z"/><path class="cls-1" d="M124.6,49.18c.47.22,1.41-1.65,2.83-2.77a3.17,3.17,0,0,1,2.81-.64c1.61.3,4.39,1.84,4.81,1.46s-2.59-2.49-3.31-3.38a3.11,3.11,0,0,1-.6-3.24c.78-1.82,1.48-3.09,1.17-3.41S130,39,129.25,39.68s-1.33,1.31-2.73.84-4.2-1.75-4.62-1.37S124,41,125.23,42.41a2.56,2.56,0,0,1,.62,2.71C125.51,46.71,124.26,49,124.6,49.18Z"/><path class="cls-1" d="M47,15.51c0-.44-1.78-.36-3.18-.94a2.62,2.62,0,0,1-1.61-1.79c-.44-1.3-.45-4-.9-4.11s-.76,2.9-1.12,3.79a2.62,2.62,0,0,1-2.13,1.77c-1.64.17-2.86.17-3,.53s2.23.93,3.06,1.23,1.51.43,1.73,1.65.44,3.78.89,3.93.5-2.29,1-3.76a2.12,2.12,0,0,1,1.72-1.56C44.84,15.85,47,15.83,47,15.51Z"/><path class="cls-1" d="M190.87,81.88c.2-.39-1.35-1.21-2.26-2.42a2.6,2.6,0,0,1-.49-2.36c.28-1.34,1.62-3.65,1.3-4s-2.12,2.12-2.89,2.71a2.61,2.61,0,0,1-2.72.44c-1.5-.68-2.56-1.29-2.83-1s1.45,1.93,2,2.61,1.08,1.14.66,2.3-1.54,3.48-1.23,3.84,1.6-1.73,2.79-2.72a2.14,2.14,0,0,1,2.28-.48C188.82,81.07,190.73,82.16,190.87,81.88Z"/><path class="cls-1" d="M293,94.57c-1.57.53-3.54,9.67-4.19,10s-.2-11.16-1.21-11.69-9.2-2.92-8-3.12c1.81-.29,7.82.82,9.45-.62s3.47-5.74,4.48-6.79c.79-.83-.32,6.58.28,7.41S302,94,301.11,94.63,294.27,94.12,293,94.57Z"/><path class="cls-1" d="M424.65,16.69c-1.24.38-3,7.48-3.5,7.74s.09-8.73-.69-9.17-7.13-2.49-6.17-2.62c1.43-.19,6.11.81,7.41-.27s2.85-4.42,3.66-5.22c.64-.63-.4,5.14.05,5.8s6.29,3.51,5.62,4S425.69,16.37,424.65,16.69Z"/><path class="cls-1" d="M187.18,30.07c.64.64-.59,5.54-.36,5.86s2.76-5.37,3.38-5.38,5.16.77,4.62.38c-.81-.57-4-1.47-4.44-2.55s-.32-3.62-.56-4.37c-.18-.59-1.41,3.27-1.9,3.53s-5,.12-4.72.61S186.65,29.54,187.18,30.07Z"/><rect class="cls-2" y="361.43" width="434.33" height="33.08"/></g></g></svg>