<svg xmlns="http://www.w3.org/2000/svg" viewBox="0 0 473.74 284.87"><defs><style>.a{fill:#a9cc63;}.b{fill:#666fb3;}.c{fill:#cbdef4;}.d{fill:#213362;}.e,.f{fill:none;stroke:#123274;}.e{stroke-miterlimit:10;stroke-width:1.7px;}.f{stroke-linecap:round;stroke-linejoin:round;stroke-width:1.5px;}</style></defs><title>Ativo 1</title><path class="a" d="M306.91,92.43a31.07,31.07,0,0,1,4.42-2.9c3.3-1.87,5.48-3.11,6-10.24.48-6.74,3.62-9.62,6.94-12.68a41.59,41.59,0,0,0,3.18-3.15c3.38-3.86,4.9-13,6.52-22.6,1.29-7.69,2.63-15.65,4.9-19.53,4.43-7.56,13.35-5.43,13.73-5.34a.86.86,0,0,0,.69-.12.85.85,0,0,0,.36-.6c0-.08,1.14-7.91,17.05-6.38a16.17,16.17,0,0,1,11.66,6.69c5.2,6.84,6.38,17,5.54,21.8-1.41,8,.62,10.11,5.36,14.17,2,1.74,1.09,5.29.1,9s-2.06,7.79-.28,10.79a30.7,30.7,0,0,0,5.25,6c3.36,3.22,6.83,6.56,6.63,10.86,0,0,0,0,0,.05V90l-4.72,5-1.06-.93a.84.84,0,0,0-.62-.21.85.85,0,0,0-.58.29l-1.09,1.24c-4.32-7.75-11.46-9.65-17.25-11.19a43.31,43.31,0,0,1-4.78-1.45c-4.88-2-4.3-8.81-4.09-10.45a24.15,24.15,0,0,0,6-2c10.82-5.29,11.79-25.84,7.62-39.46-3.69-12-18.44-12.76-22.47-12.25a6.35,6.35,0,0,0,0-2,.85.85,0,1,0-1.65.4,7.48,7.48,0,0,1-.24,2.7c-10.7,18.74-22.89,15.16-23.42,15a.85.85,0,0,0-.52,1.62c.49.16,10.31,3.13,20.27-8.38a62.67,62.67,0,0,1-4.72,6.57c-7.82,9.24-14.76,7.56-15.07,7.48a.85.85,0,0,0-.44,1.64,8.49,8.49,0,0,0,2.1.22,16,16,0,0,0,8.57-2.76,9.4,9.4,0,0,0-1.3,5.3c.32,3,2.66,4.82,4.73,6.39a12,12,0,0,1,2.59,2.36c3.11,4.56,3,9.45-.3,15.39a.84.84,0,0,0-.1.3,9.36,9.36,0,0,0,5,9.15,4.57,4.57,0,0,1,2.37,3c.87,3.61-2.07,8.39-3,9.77-2.74,4.11-.12,14.39.19,15.6,0,.67,0,5.21-2.87,8-1.75,1.73-4.25,2.51-7.44,2.33-3.81-.21-9.09-1.49-12.64-6.35-4.23-5.79-4.82-15.24-1.71-27.32a.85.85,0,0,0-.92-1.06c-.18,0-17.31,2.18-23.52,19.13-1.2-1.53-3.09-4.41-2.92-7.1A4.83,4.83,0,0,1,306.91,92.43Z"/><path class="b" d="M393.73,178.31c-9.74,4-22.76,4.53-27.53,4.58l8.52-9.66c1.38-.65,2.24-1.08,2.46-1.19a.85.85,0,0,0,.46-.85l-.17-1.58c1.84-.66,8-2.87,13.14-5.16C391.06,166.83,392.22,172.8,393.73,178.31Z"/><path class="b" d="M417.69,170.83c-5,2.3-9.76,2.53-13.82.66a15.59,15.59,0,0,1-8.11-9.6c5.36-3.76,6-16.12,6.12-18.34l3.93-4.24,2.05,2.1a.85.85,0,0,0,.61.26l.18,0a.85.85,0,0,0,.62-.54l3.28-9.06,3.42-3.68,1.09,1a.85.85,0,0,0,.56.21h.06a.85.85,0,0,0,.58-.29l8.24-9.4,9.85,2C435.68,127.69,430.79,164.78,417.69,170.83Z"/><path class="b" d="M327.06,151.22q.41,0,.82,0c3.29,0,13.67.09,23.84.2a.83.83,0,0,1,.18-.72L391,106.45l-1.49-1.31a.85.85,0,0,1-.08-1.2l6.28-7.17c-3.93-7.57-10.59-9.35-16.49-10.91-1.52-.4-3-.79-4.27-1.26-1.9,6.58-4.83,10.56-8.72,11.82a8.83,8.83,0,0,1-2.73.42,12.26,12.26,0,0,1-5.92-1.71c-1,3.67.36,10.3,1.06,12.86a.88.88,0,0,1,0,.18c0,.24.24,5.81-3.36,9.39a10.57,10.57,0,0,1-7.76,2.86l-1,0c-6-.34-10.8-2.77-13.92-7-4.45-6.09-5.23-15.33-2.31-27.47-4,.86-16.79,4.7-21.34,19.17h0c-.12.38-12,38.73-1.81,67.16A16.53,16.53,0,0,0,317,182.38a30.85,30.85,0,0,0,11.36,1.88c19,0,43.63-11.59,47.53-13.48L374,153.33c-5.53-.07-39.65-.49-46.14-.45a8.85,8.85,0,0,0-1.59.16c-2.39,5.44-4.87,8.13-7.93,8.4-1.33.11-2.22-.18-2.68-.87a2.29,2.29,0,0,1,.15-2.46c1.2-2.24,5.11-5.42,9.24-6.53,2.68-6.45,5.34-16.73,8.57-30.8a.85.85,0,1,1,1.66.38C332.19,134.76,329.66,144.64,327.06,151.22Z"/><path class="c" d="M365.76,95c3.39-1.1,6-4.75,7.75-10.85a.71.71,0,0,1,.06-.11c-5-2.53-4.8-9-4.54-11.43a26.69,26.69,0,0,1-3.31.21,28.77,28.77,0,0,1-11.14-2.23.82.82,0,0,1-.17-.12c-.13.24-.25.49-.38.73a7.71,7.71,0,0,0,4.19,7.29,6.26,6.26,0,0,1,3.18,4.1c1,4.16-1.92,9.16-3.23,11.11l0,0C359.65,94.62,362.68,96,365.76,95Z"/><path class="d" d="M366.21,96.42c3.89-1.26,6.83-5.23,8.72-11.82l0-.05a.75.75,0,0,0-.51-.93.74.74,0,0,0-.87.4.71.71,0,0,0-.06.11c-1.75,6.1-4.36,9.75-7.75,10.85-3.08,1-6.12-.38-7.61-1.25a10.51,10.51,0,0,1-1-.63.75.75,0,0,0-.93,1.18,11.46,11.46,0,0,0,1.3.85,12.26,12.26,0,0,0,5.92,1.71A8.83,8.83,0,0,0,366.21,96.42Z"/><path class="c" d="M411.2,131h0l-10.77,11.61,0,0,0,0c-3.84,5.11-11.21,5.72-13.74,5.78.16-2.52.18-8.25-1.81-9.37a1.75,1.75,0,0,0-2.05.3c-2.33,1.86-7.27,10.21-8.45,12.24l-20.79-.24,38.73-43.82,22.44,19.67Z"/><path class="c" d="M287.67,225.35l34.22-39.89a39.8,39.8,0,0,0,6.6.52c15,0,33.11-6.95,42.45-11l-7.2,8.16,0,0-73,82.71Z"/><path class="d" d="M470,43.69s0-.05,0-.08a.84.84,0,0,0-.06-.21l0-.08a.84.84,0,0,0-.18-.23h0a.84.84,0,0,0-.23-.13l-.08,0a.83.83,0,0,0-.22,0h-.07a.83.83,0,0,0-.26.07h0L405.46,71a.85.85,0,0,0-.5.78V82.26a33.6,33.6,0,0,0-5.46-6.16,29.08,29.08,0,0,1-5-5.6c-1.41-2.39-.46-6,.46-9.49,1.08-4.1,2.2-8.33-.64-10.77-4.63-4-6-5.55-4.79-12.58.92-5.19-.29-15.79-5.86-23.12a17.81,17.81,0,0,0-12.85-7.35c-14.53-1.4-17.93,4.65-18.69,7-2.59-.39-10.53-.94-14.77,6.28a35.2,35.2,0,0,0-3.25,9.85,8.31,8.31,0,0,0-5.74-2.85,6.27,6.27,0,0,0-5.17,1.36c-2.5,2.19-2.79,6.17-2.79,7.78,0,2.85,1.09,5,3.12,6.19a6.86,6.86,0,0,0,3.41.83,11.91,11.91,0,0,0,5-1.24c-1.42,8.39-3,16.69-5.82,19.95a40.28,40.28,0,0,1-3.06,3c-3.42,3.15-7,6.4-7.48,13.81-.45,6.22-2,7.11-5.13,8.89a32.93,32.93,0,0,0-4.64,3.05,6.53,6.53,0,0,0-2.61,4.8c-.25,4,2.92,7.91,4,9.12-1.33,4.48-11.43,40.51-1.64,67.78A18.17,18.17,0,0,0,316.37,184a25.5,25.5,0,0,0,3.61,1.12l-33.83,39.44a.85.85,0,0,0-.2.62L289.19,268a.85.85,0,0,0,.58.74.83.83,0,0,0,.27,0,.85.85,0,0,0,.64-.29l18.62-21.1c-.4,10.51,1.77,34.71,1.87,35.83a.85.85,0,0,0,.84.77l84.8.33h0a.85.85,0,0,0,.83-.67c12.77-60.31,2.22-92.07-1.25-102.5-.35-1.05-.63-1.9-.82-2.55-1.69-6-3-12.78-3.35-14.85.72-.33,1.4-.67,2-1a17.23,17.23,0,0,0,8.9,10.29,15.49,15.49,0,0,0,6.54,1.41,20.8,20.8,0,0,0,8.7-2.07c14.62-6.75,19.31-47.05,19.71-50.84,1-1.33,5.37-7.34,7.33-11.87H449a.85.85,0,0,0,.81-.6L470,44A.84.84,0,0,0,470,43.69ZM324.4,41.31c-1.48-.84-2.26-2.46-2.25-4.7,0-1.08.18-4.72,2.21-6.5a4.59,4.59,0,0,1,3.83-1c4.51.59,5.31,3.24,5.43,3.82-.44,2.33-.86,4.79-1.28,7.3C329.31,42,326.36,42.42,324.4,41.31Zm-17.5,51.12a31.07,31.07,0,0,1,4.42-2.9c3.3-1.87,5.48-3.11,6-10.24.48-6.74,3.62-9.62,6.94-12.68a41.59,41.59,0,0,0,3.18-3.15c3.38-3.86,4.9-13,6.52-22.6,1.29-7.69,2.63-15.65,4.9-19.53,4.43-7.56,13.35-5.43,13.73-5.34a.86.86,0,0,0,.69-.12.85.85,0,0,0,.36-.6c0-.08,1.14-7.91,17.05-6.38a16.17,16.17,0,0,1,11.66,6.69c5.2,6.84,6.38,17,5.54,21.8-1.41,8,.62,10.11,5.36,14.17,2,1.74,1.09,5.29.1,9s-2.06,7.79-.28,10.79a30.7,30.7,0,0,0,5.25,6c3.36,3.22,6.83,6.56,6.63,10.86,0,0,0,0,0,.05V90l-4.72,5-1.06-.93a.84.84,0,0,0-.62-.21.85.85,0,0,0-.58.29l-1.09,1.24c-4.32-7.75-11.46-9.65-17.25-11.19a43.31,43.31,0,0,1-4.78-1.45c-4.88-2-4.3-8.81-4.09-10.45a24.15,24.15,0,0,0,6-2c10.82-5.29,11.48-26.89,7.31-40.52-3.69-12-18.13-11.71-22.16-11.19a6.35,6.35,0,0,0,0-2,.85.85,0,1,0-1.65.4,7.48,7.48,0,0,1-.24,2.7c-10.7,18.74-22.89,15.16-23.42,15a.85.85,0,0,0-.52,1.62c.49.16,10.31,3.13,20.27-8.38a62.67,62.67,0,0,1-4.72,6.57c-7.82,9.24-14.76,7.56-15.07,7.48a.85.85,0,0,0-.44,1.64,8.49,8.49,0,0,0,2.1.22,16,16,0,0,0,8.57-2.76,9.4,9.4,0,0,0-1.3,5.3c.32,3,2.66,4.82,4.73,6.39a12,12,0,0,1,2.59,2.36c3.11,4.56,3,9.45-.3,15.39a.84.84,0,0,0-.1.3,9.36,9.36,0,0,0,5,9.15,4.57,4.57,0,0,1,2.37,3c.87,3.61-2.07,8.39-3,9.77-2.74,4.11-.12,14.39.19,15.6,0,.67,0,5.21-2.87,8-1.75,1.73-4.25,2.51-7.44,2.33-3.81-.21-9.09-1.49-12.64-6.35-4.23-5.79-4.82-15.24-1.71-27.32a.85.85,0,0,0-.92-1.06c-.18,0-17.31,2.18-23.52,19.13-1.2-1.53-3.09-4.41-2.92-7.1A4.83,4.83,0,0,1,306.91,92.43ZM430.3,107.71a.86.86,0,0,0-.56-.62,16.82,16.82,0,0,1-2.68-1.33c-.47-.28-.73-.63-.65-.9s.36-.44.89-.44a12.82,12.82,0,0,1,3.86,1,10.54,10.54,0,0,1,1.12,2.56.85.85,0,0,0,.82.63l.22,0a.85.85,0,0,0,.6-1,12.5,12.5,0,0,0-1.12-2.68.84.84,0,0,0-.2-.59s-.29-.32-.72-.73a5.14,5.14,0,0,0-1.13-1,18.65,18.65,0,0,0-3.05-2c-.56-.3-.89-.62-.92-.89a.54.54,0,0,1,0-.12c.89-.29,3.52.31,5.91,2,1,.71,3.23,2.6,2.87,4.85a.85.85,0,0,0,.7,1h.14a.85.85,0,0,0,.84-.71c.37-2.28-.89-4.59-3.55-6.5a13.2,13.2,0,0,0-5.65-2.37,1.37,1.37,0,0,1,.5-.27c1.34-.42,3.87.44,7.49,2.57a7.38,7.38,0,0,1,3.21,4.88.85.85,0,0,0,1.69-.21,17.81,17.81,0,0,1,0-4c.4-2.27-2.92-3.76-3.22-3.89-2-1.14-2.47-2.54-2.45-3.52A48.46,48.46,0,0,0,441,96.81c4.24,2.27,4.05,4.63,3.77,8.21,0,.43-.07.86-.09,1.31a7.44,7.44,0,0,1-.59,2.15h0c-1.46,3.63-5.25,9.16-7.17,11.78l-10.35-2.15-.65-.57,5-5.26a.85.85,0,0,0,.21-.77ZM425,119l-7.45,8.5-26.31-23.05L397,97.87a.81.81,0,0,0,.17,0,.84.84,0,0,0,.47-.68l1.07-1.22Zm-13.8,12h0l-10.77,11.61,0,0,0,0c-3.84,5.11-11.21,5.72-13.74,5.78.16-2.52.18-8.25-1.81-9.37a1.75,1.75,0,0,0-2.05.3c-2.33,1.86-7.27,10.21-8.45,12.24l-20.79-.24,38.73-43.82,22.44,19.67Zm-1.6,4.22-1.45,4L407,138.06Zm-15.25,25.54c-4.92,2.67-14.13,6.05-17.05,7.1l-1.62-15.2c1.75-3,6.24-10.43,8.15-11.95l.18-.13c.79.52,1.27,5.3.86,8.61a.85.85,0,0,0,.8,1c.4,0,8.91.4,14.4-4.62C399.7,149.8,398.48,158.53,394.34,160.77ZM351.45,37.34c.6-.7,1.15-1.37,1.68-2,.29-.34.57-.71.86-1.09l.51-.66.06-.08h0c4.55-6,6.34-10.33,7-13.1,2.62-.4,17.51-2.14,21,9.29,4,13,3.42,34.24-6.59,39.13-10.17,5-20.59.29-20.7.24a.81.81,0,0,0-.18,0c2.41-5.5,2.1-10.37-.94-14.83a13.12,13.12,0,0,0-3-2.75c-1.88-1.43-3.82-2.91-4.07-5.21S348.3,41,351.45,37.34Zm-44.27,134.9c-10.2-28.43,1.69-66.78,1.81-67.16h0c4.55-14.47,17.3-18.3,21.34-19.17-2.92,12.14-2.15,21.38,2.31,27.47,3.12,4.27,7.93,6.71,13.92,7l1,0a10.57,10.57,0,0,0,7.76-2.86c3.61-3.58,3.37-9.16,3.36-9.39a.88.88,0,0,0,0-.18c-.81-3-2.46-11.29-.45-14.31,1.3-2,4.23-7,3.23-11.11a6.26,6.26,0,0,0-3.18-4.1A7.71,7.71,0,0,1,354,71.2c.14-.25.26-.49.38-.73a.82.82,0,0,0,.17.12,28.77,28.77,0,0,0,11.14,2.23A26.69,26.69,0,0,0,369,72.6c-.27,2.54-.45,9.49,5.2,11.75a44.27,44.27,0,0,0,5,1.52c5.9,1.56,12.56,3.35,16.49,10.91l-6.28,7.17a.85.85,0,0,0,.08,1.2l1.49,1.31-39.07,44.2a.83.83,0,0,0-.18.72c-10.17-.11-20.56-.21-23.84-.2q-.41,0-.82,0c2.59-6.57,5.13-16.46,8.25-30.06a.85.85,0,1,0-1.66-.38c-3.22,14.08-5.88,24.35-8.57,30.8-4.13,1.11-8,4.29-9.24,6.53a2.29,2.29,0,0,0-.15,2.46c.46.69,1.35,1,2.68.87,3.06-.27,5.55-3,7.93-8.4a8.85,8.85,0,0,1,1.59-.16c6.49,0,40.61.39,46.14.45l1.86,17.45c-3.89,1.89-28.54,13.48-47.53,13.48A30.85,30.85,0,0,1,317,182.38,16.53,16.53,0,0,1,307.18,172.23Zm17-18.57c-1.87,3.86-3.78,5.89-5.93,6.08a1.94,1.94,0,0,1-1.1-.1c0-.06,0-.46.52-1.2A15.55,15.55,0,0,1,324.15,153.66Zm-36.48,71.69,34.22-39.89a39.8,39.8,0,0,0,6.6.52c15,0,33.11-6.95,42.45-11l-7.2,8.16,0,0-73,82.71ZM396.11,282.6l-83.33-.32c-.41-4.68-2.47-29.25-1.66-37l53.57-60.71h1c4.42,0,18-.37,28.48-4.64.16.5.34,1.06.56,1.71C398.19,192,408.57,223.18,396.11,282.6Zm-2.38-104.29c-9.74,4-22.76,4.53-27.53,4.58l8.52-9.66c1.38-.65,2.24-1.08,2.46-1.19a.85.85,0,0,0,.46-.85l-.17-1.58c1.84-.66,8-2.87,13.14-5.16C391.06,166.83,392.22,172.8,393.73,178.31Zm24-7.48c-5,2.3-9.76,2.53-13.82.66a15.59,15.59,0,0,1-8.11-9.6c5.36-3.76,6-16.12,6.12-18.34l3.93-4.24,2.05,2.1a.85.85,0,0,0,.61.26l.18,0a.85.85,0,0,0,.62-.54l3.28-9.06,3.42-3.68,1.09,1a.85.85,0,0,0,.56.21h.06a.85.85,0,0,0,.58-.29l8.24-9.4,9.85,2C435.68,127.69,430.79,164.78,417.69,170.83ZM448.42,108h-2.34a7,7,0,0,0,.32-1.53c0-.43.06-.86.09-1.28.29-3.63.56-7.05-4.66-9.84-5-2.7-6.48-4.12-6.49-4.13a.85.85,0,0,0-1.38.24c-.66,1.45-.9,4.75,3,6.93,1,.43,2.41,1.42,2.3,2.07,0,.08,0,.17,0,.25a7.82,7.82,0,0,0-2.31-2.08c-2.62-1.54-6.39-3.5-8.86-2.72a3.07,3.07,0,0,0-1.82,1.52,3,3,0,0,0-1.14,2.34A2.91,2.91,0,0,0,426.9,102c.49.26.94.53,1.36.81a6.53,6.53,0,0,0-1-.08,2.47,2.47,0,0,0-2.53,1.7,2.52,2.52,0,0,0,1.44,2.81,22.22,22.22,0,0,0,2.53,1.3l.64,2.93-4.71,5L401.51,96.14l4.91-5.25a.85.85,0,0,0,.23-.58V72.36L466,46l-24.9,28.84A7.88,7.88,0,1,0,442.38,76l24.76-28.68Z"/><path class="c" d="M240.14,84.91a28.93,28.93,0,0,0,27.42-4.52c-2.43-3-4.12-7.38-4.1-13.59-.39.52-7.17,5.26-13.49,5.26h-.66a17.4,17.4,0,0,1-7.84-2.11c.35.23.71.46,1.08.69,0,0,3.52,7.21-3.86,12.3a19.7,19.7,0,0,1,1.38,2Z"/><path class="a" d="M212.14,131.59a17.71,17.71,0,0,1,4.25-14,31.84,31.84,0,0,0-4.93-3.93,36.21,36.21,0,0,1-3.9-2.82l-5.39,16a.83.83,0,0,1-.2.31l.67,4.33Z"/><path class="c" d="M172.1,67.42a4,4,0,0,0-.95.85,3.43,3.43,0,0,0-.07,3.42c.23.42.45.53.5.54a6.73,6.73,0,0,0,.82-.14,3.37,3.37,0,0,1-.73-1.55A5,5,0,0,1,172.1,67.42Z"/><path class="c" d="M178.17,70.66l-1.1-.12c0,.13-.09.32-.13.57A2.4,2.4,0,0,1,175.05,73c.73,2.88,3.09,12.41,3.3,17.08h13.46l-.22-2.12a11.62,11.62,0,0,1-.33-3.18L190.15,74c-.13-1.31-4.26-3.66-8.38-5.23a2.48,2.48,0,0,0,1.36,2.84c1.69,1,1.78,2.59,1.86,4,.09,1.59.17,3,2.49,4.1a.85.85,0,1,1-.75,1.53c-3.21-1.58-3.34-3.86-3.44-5.53-.08-1.34-.16-2.06-1.05-2.61a4.19,4.19,0,0,1-1.69-5.79.85.85,0,0,1,1-.38,33.05,33.05,0,0,1,8.27,4.15L187.75,50.9a2.65,2.65,0,0,0-2.68,2.4c-.36,3.42,0,11.53,0,11.62a.85.85,0,0,1-1.67.25s-1-3.71-4.32-4.83c-2.79-.94-6.31-.4-7.72-.12a2.6,2.6,0,0,0,.58,1.54,2.63,2.63,0,0,0,2.07.7c3.67-.05,6.15.12,7.45,2.94a.85.85,0,0,1-1,1.16c-1.13-.37-4.33-1.1-5.68,0-.15.15-1.76,1.8-1.39,3.65.17.86.71,1.17,1.14,1.17h0a.74.74,0,0,0,.77-.58c.21-1.07.49-1.82,1.17-2a1,1,0,0,1,.6,0l1.32.15a.85.85,0,0,1-.19,1.69Z"/><path class="a" d="M183.52,135.11l2.39-3.57a.85.85,0,0,1,.71-.38h0l14.28.24L195.16,94.2a16.49,16.49,0,0,1-1.91-2.43H178.35l-.71,30.7a70.33,70.33,0,0,0,2.13,8c1,3.1,2,6.61,2.79,10.36,1.1,5.43,1.94,13.9,2.5,19.5.1,1,.19,1.94.28,2.8a15.8,15.8,0,0,0,5.11,6.46l-7.06-33.81A.85.85,0,0,1,183.52,135.11Z"/><path class="c" d="M210.78,184.53a.85.85,0,0,1,.66-.81,4.2,4.2,0,0,1,3.12.34c.1-1.44.69-1.89,1-2l.17-.05a4.38,4.38,0,0,1,3.57.64c1.67,1.24,1.91,3.67,2,4.58.49,4.84,1.62,5.9,2.09,6.13l.12,0-1.36-9.76a.85.85,0,0,1,.21-.69c.26-.29,1.32-1.11,4,.59,1.51,1,2,3.08,2.44,5.13.33,1.49.68,3,1.35,3.62a10.25,10.25,0,0,0,3,1.28,7.05,7.05,0,0,1-.86-2.59,2.86,2.86,0,0,1,.83-2.8,1.59,1.59,0,0,1,1.73,0,24.24,24.24,0,0,0,4,1.58c2.85.94,5.79,1.93,7.42,4.41a.8.8,0,0,1,.44-.09l23.66,1.71-9.63-57.85L188.47,137a.85.85,0,0,1,0-1.7h0l73,.88a.85.85,0,0,1,.83.71l9.76,58.64,4.13-1.35,16.65-15.45-19.75-1.52,2,12.37,10-8.46-10-.78a.85.85,0,0,1-.78-.91.87.87,0,0,1,.91-.78l12.06.94a.85.85,0,0,1,.48,1.5l-12.73,10.77a.85.85,0,0,1-1.39-.51l-9.31-57.21-77.3-1.27-1.93,2.89,11.75,56.3,14.3.29A53.45,53.45,0,0,1,210.78,184.53Z"/><path class="c" d="M218.44,196.58a.85.85,0,0,1-.53-.19c-1.44-1.16-2.52-6.66-2.82-8.35l-.18-.91a3.17,3.17,0,0,0-1-1.45,2.1,2.1,0,0,0-1.46-.4c0,4.83.63,11.44,2.33,12.27,2.7,1.31,21.34,3.54,30,1.93.45-.45,1.62-2,.09-4.35-1.3-2-3.87-2.88-6.58-3.78a25.91,25.91,0,0,1-4.28-1.7,3.39,3.39,0,0,0,.07,1.77,4.43,4.43,0,0,0,2.44,3,.85.85,0,0,1-.48,1.63c-.56-.13-5.55-1.27-7-2.55-1.09-1-1.48-2.69-1.89-4.52s-.78-3.48-1.7-4.06a5.54,5.54,0,0,0-1.5-.72l1.35,9.72a.85.85,0,0,1-.39.84,2.39,2.39,0,0,1-2.28.06c-1.62-.79-2.61-3.24-3-7.49-.07-.71-.26-2.59-1.33-3.38a2.56,2.56,0,0,0-2-.37,5.3,5.3,0,0,0,.11,2.72l.07.36a8,8,0,0,1,.41,2.09c.58,2.86,1.45,5.84,2,6.3a.85.85,0,0,1-.54,1.51Z"/><path class="a" d="M267,197.22l-20-1.44a4.78,4.78,0,0,1-.2,3.68A81.25,81.25,0,0,0,267,197.22Z"/><path class="d" d="M248.17,201.18q-1.45,0-2.9-.06a47.84,47.84,0,0,1-8.57.63c-9.15,0-20.16-1.47-22.65-2.68-1-.51-1.76-1.89-2.25-3.61-13.14,41.34-3.09,82.25-1.64,87.71h35l3-48.08,1.52,48.08H287c.39-2,1.67-9.07,4.14-28,2.84-21.7-7.33-56.69-8.7-61.24A88.63,88.63,0,0,1,248.17,201.18Z"/><path class="a" d="M305.35,159.57l0-.16c-.71-7-5.41-41.77-8-54.35C295.07,94,284.26,89.34,277.76,86.59a19.2,19.2,0,0,1-9.06-4.93,30.85,30.85,0,0,1-27.44,5.42c1.43,3,2.4,7.2-.45,10.47,0,0,12.78,12.84-2.89,16.95s-17.44,7.36-15.53,10.55a36.36,36.36,0,0,0-4.81-6.26,16,16,0,0,0-3.73,12.83l51.25.84a.85.85,0,0,1,.83.71l6,37a46.55,46.55,0,0,1,4.72-4.43.91.91,0,0,1-.76-.43c-.27-.48-6.59-11.88,0-27.75.5-1.22.94-2.41,1.31-3.55-1.38-7.57-2.08-14.17-1.34-16.7.43-1.45,1-2.24,1.84-2.4a1.65,1.65,0,0,1,1.63.69c1.81,2.19,2.43,9.47-.36,18.44,1.85,9.81,4.82,21.31,7.11,27.2a6.64,6.64,0,0,1,2.59.37c3.13,1.13,4.19,3,4.14,4.4a2.34,2.34,0,0,1-1.7,2.21c-.59.17-2.72.46-4.93-2.86a15.27,15.27,0,0,1-1.18-2.29c-5.28,1.09-11.39,7.81-12.66,9.25l.52,3.18,22.1,1.7a.85.85,0,0,1,.51,1.47l-15.62,14.49a105,105,0,0,0,14.94-7.35C307.27,178.41,306,166.15,305.35,159.57Z"/><path class="a" d="M278,116.65a3.42,3.42,0,0,0-.52,1.15c-.56,1.89-.15,6.57.78,12.3C279.95,122.49,278.79,117.43,278,116.65Z"/><path class="a" d="M290.61,166.6a.64.64,0,0,0,.47-.64c0-.81-.89-2-3-2.74a4.87,4.87,0,0,0-1.3-.27,11.33,11.33,0,0,0,.79,1.48C288.73,166.19,289.95,166.79,290.61,166.6Z"/><path class="c" d="M351.45,37.34c.6-.7,1.15-1.37,1.68-2,.29-.34.57-.71.86-1.09l.51-.66.06-.08h0c4.55-6,6.34-10.33,7-13.1,2.62-.4,17.51-2.14,21,9.29,4,13,3.42,34.24-6.59,39.13-10.17,5-20.59.29-20.7.24a.81.81,0,0,0-.18,0c2.41-5.5,2.1-10.37-.94-14.83a13.12,13.12,0,0,0-3-2.75c-1.88-1.43-3.82-2.91-4.07-5.21S348.3,41,351.45,37.34Z"/><rect class="d" x="464.86" y="40.93" width="7.36" height="7.36" transform="translate(145.56 -297.74) rotate(41.23)"/><path class="a" d="M324.4,41.31c-1.48-.84-2.26-2.46-2.25-4.7,0-1.08.18-4.72,2.21-6.5a4.59,4.59,0,0,1,3.83-1c4.51.59,5.31,3.24,5.43,3.82-.44,2.33-.86,4.79-1.28,7.3C329.31,42,326.36,42.42,324.4,41.31Z"/><path class="c" d="M430.3,107.71a.86.86,0,0,0-.56-.62,16.82,16.82,0,0,1-2.68-1.33c-.47-.28-.73-.63-.65-.9s.36-.44.89-.44a12.82,12.82,0,0,1,3.86,1,10.54,10.54,0,0,1,1.12,2.56.85.85,0,0,0,.82.63l.22,0a.85.85,0,0,0,.6-1,12.5,12.5,0,0,0-1.12-2.68.84.84,0,0,0-.2-.59s-.29-.32-.72-.73a5.14,5.14,0,0,0-1.13-1,18.65,18.65,0,0,0-3.05-2c-.56-.3-.89-.62-.92-.89a.54.54,0,0,1,0-.12c.89-.29,3.52.31,5.91,2,1,.71,3.23,2.6,2.87,4.85a.85.85,0,0,0,.7,1h.14a.85.85,0,0,0,.84-.71c.37-2.28-.89-4.59-3.55-6.5a13.2,13.2,0,0,0-5.65-2.37,1.37,1.37,0,0,1,.5-.27c1.34-.42,3.87.44,7.49,2.57a7.38,7.38,0,0,1,3.21,4.88.85.85,0,0,0,1.69-.21,17.81,17.81,0,0,1,0-4c.4-2.27-2.92-3.76-3.22-3.89-2-1.14-2.47-2.54-2.45-3.52A48.46,48.46,0,0,0,441,96.81c4.24,2.27,4.05,4.63,3.77,8.21,0,.43-.07.86-.09,1.31a7.44,7.44,0,0,1-.59,2.15h0c-1.46,3.63-5.25,9.16-7.17,11.78l-10.35-2.15-.65-.57,5-5.26a.85.85,0,0,0,.21-.77Z"/><path class="a" d="M425,119l-7.45,8.5-26.31-23.05L397,97.87a.81.81,0,0,0,.17,0,.84.84,0,0,0,.47-.68l1.07-1.22Z"/><polygon class="d" points="409.6 135.24 408.15 139.25 406.98 138.06 409.6 135.24"/><path class="c" d="M394.34,160.77c-4.92,2.67-14.13,6.05-17.05,7.1l-1.62-15.2c1.75-3,6.24-10.43,8.15-11.95l.18-.13c.79.52,1.27,5.3.86,8.61a.85.85,0,0,0,.8,1c.4,0,8.91.4,14.4-4.62C399.7,149.8,398.48,158.53,394.34,160.77Z"/><path class="b" d="M324.15,153.66c-1.87,3.86-3.78,5.89-5.93,6.08a1.94,1.94,0,0,1-1.1-.1c0-.06,0-.46.52-1.2A15.55,15.55,0,0,1,324.15,153.66Z"/><path class="a" d="M396.11,282.6l-83.33-.32c-.41-4.68-2.47-29.25-1.66-37l53.57-60.71h1c4.42,0,18-.37,28.48-4.64.16.5.34,1.06.56,1.71C398.19,192,408.57,223.18,396.11,282.6Z"/><path class="c" d="M448.42,108h-2.34a7,7,0,0,0,.32-1.53c0-.43.06-.86.09-1.28.29-3.63.56-7.05-4.66-9.84-5-2.7-6.48-4.12-6.49-4.13a.85.85,0,0,0-1.38.24c-.66,1.45-.9,4.75,3,6.93,1,.43,2.41,1.42,2.3,2.07,0,.08,0,.17,0,.25a7.82,7.82,0,0,0-2.31-2.08c-2.62-1.54-6.39-3.5-8.86-2.72a3.07,3.07,0,0,0-1.82,1.52,3,3,0,0,0-1.14,2.34A2.91,2.91,0,0,0,426.9,102c.49.26.94.53,1.36.81a6.53,6.53,0,0,0-1-.08,2.47,2.47,0,0,0-2.53,1.7,2.52,2.52,0,0,0,1.44,2.81,22.22,22.22,0,0,0,2.53,1.3l.64,2.93-4.71,5L401.51,96.14l4.91-5.25a.85.85,0,0,0,.23-.58V72.36L466,46l-24.9,28.84A7.88,7.88,0,1,0,442.38,76l24.76-28.68Z"/><path class="a" d="M361.57,20.38s18.26-.27,22.12,13.71l1.92,8.72s5.36-13.72-1.5-21.27c-7.39-8.14-20.32-7.72-20.32-7.72l-1.18.81Z"/><path class="e" d="M360.8,20.38s22.25-.07,24.81,22.43"/><path class="f" d="M370.17,41s.68,1.81,1.82,4.16c.93,1.94,2.1,3.1,1.73,4.5-.63,2.39-4,2-4,2"/><ellipse class="d" cx="358.16" cy="42.67" rx="2.26" ry="2.92"/><ellipse class="d" cx="376.97" cy="42.09" rx="2.26" ry="2.92"/><path class="f" d="M367.7,57.62s-3.3,2.43-6-.58"/><path class="f" d="M378.46,34.59a3.07,3.07,0,0,0-1.91-.69,2.47,2.47,0,0,0-1.83.69"/><path class="f" d="M360,34.59a3.07,3.07,0,0,0-1.91-.69,2.47,2.47,0,0,0-1.83.69"/><path class="c" d="M95.09,9.94S86,14.49,85.84,27.71s-.76,21.37,1,27.13,5.11,11.53,15.79,11c0,0-.34,8.51-2.29,10.89s3.4,8,8.66,8.75,18.76-.75,21.13-13.5c0,0-3.78-11.12-3-15s8.76-5.25,10.07-8.5,3.37-7.61-1.23-13S130.21.31,95.09,9.94Z"/><path class="d" d="M86.9,33.67a.75.75,0,0,0-.77.73l-.28,8.79a.75.75,0,1,0,1.5,0l.28-8.79A.75.75,0,0,0,86.9,33.67Z"/><ellipse class="d" cx="110.09" cy="39.7" rx="2.92" ry="2.26" transform="translate(66.87 148.46) rotate(-88.16)"/><ellipse class="d" cx="91.3" cy="38.52" rx="2.92" ry="2.26" transform="translate(49.87 128.54) rotate(-88.16)"/><path class="d" d="M106.56,53.41a.75.75,0,0,0-1.06,0,3.61,3.61,0,0,1-5,.31.75.75,0,0,0-.93,1.18,5.77,5.77,0,0,0,3.24,1.18,4.81,4.81,0,0,0,3.75-1.64A.75.75,0,0,0,106.56,53.41Z"/><path class="d" d="M92.1,26.6a3.78,3.78,0,0,0-2.44.81.75.75,0,0,0,1,1.14,2.35,2.35,0,0,1,1.42-.45h0a1.77,1.77,0,0,1,1.22.48.75.75,0,1,0,1.16-1A3.4,3.4,0,0,0,92.1,26.6Z"/><path class="d" d="M110.56,27.19h0a3.78,3.78,0,0,0-2.44.81.75.75,0,0,0,1,1.14,2.35,2.35,0,0,1,1.42-.45h0a1.77,1.77,0,0,1,1.22.48.75.75,0,1,0,1.16-1A3.19,3.19,0,0,0,110.56,27.19Z"/><path class="d" d="M131.5,49.91a2,2,0,0,0,.66.14,2.18,2.18,0,0,0,1.6-.67.75.75,0,0,0-1.06-1.07.6.6,0,0,1-.65.21.66.66,0,0,1-.4-.56c0-.41.44-.69.71-.82,1.36-.65,1.59-.63,1.87-.6a3.5,3.5,0,0,0,4-3.5,2.9,2.9,0,0,0-4.44-3,3.22,3.22,0,0,0-1.63,2.39.75.75,0,1,0,1.5,0,1.87,1.87,0,0,1,.91-1.15,1.53,1.53,0,0,1,1.55-.09,1.65,1.65,0,0,1,.63,1.68,2.29,2.29,0,0,1-1.24,2,2.31,2.31,0,0,1-1.05.12c-.58-.07-1.05-.05-2.69.73A2.41,2.41,0,0,0,130.15,48,2.16,2.16,0,0,0,131.5,49.91Z"/><path class="a" d="M70.47,151.89c-.75,9.19-1.41,18.64-2,27.63L21.18,86.82a13,13,0,0,0,8.08-1.11A10.87,10.87,0,0,0,34,80.48Z"/><path class="a" d="M35,78.75c1.73.09,5.2,0,7.5-2.06a6.15,6.15,0,0,0,1.79-2.8L71.86,128a.85.85,0,0,0,.76.46l.09,0c-.71,6.32-1.37,13.19-2,20.27Z"/><path class="c" d="M43,71.43a5.15,5.15,0,0,1-1.57,4C38.92,77.63,34.27,77,34.23,77a.84.84,0,0,0-.78.31l-.09,0A.85.85,0,0,0,33,78.45v0a9.77,9.77,0,0,1-4.52,5.72c-3.91,2.08-8.56.59-8.61.58h0a.85.85,0,0,0-.3,0h-.07a.84.84,0,0,0-.24.07h0l-.06.05A.83.83,0,0,0,19,85l-.08.11a.8.8,0,0,0-.06.08C15.05,92.41,7.7,91,5.66,90.42L1.84,35.65Z"/><path class="c" d="M16.42,128.9c-.66-1.59-1.85-7.8-2.42-11l2-6.48,6.57-2.12a2.93,2.93,0,0,1-.24,1.59,2.24,2.24,0,0,1-1.42,1.1l-3.12,1a.75.75,0,0,0-.52.81l.87,6.88a.75.75,0,1,0,1.49-.19l-.25-2a4.92,4.92,0,0,1,2.77-3.67,68.62,68.62,0,0,1,7.23-2.51.6.6,0,0,1,.45.16,1.25,1.25,0,0,1,.27.6,49.8,49.8,0,0,0-7.14,3c-3.12,1.75-2.11,6.72-2.06,6.94a.75.75,0,0,0,.73.59l.16,0a.75.75,0,0,0,.58-.89s-.83-4.11,1.33-5.32a49.91,49.91,0,0,1,7-2.89.72.72,0,0,1,.2.58c-.13,1.07-2.21,2.57-4.13,3.61l-.22.12c-.43.2-.79.39-1,.52a.74.74,0,0,0-.35.4,5.44,5.44,0,0,0-1.43,3.61.75.75,0,0,0,.7.8h.05a.75.75,0,0,0,.75-.7,3.45,3.45,0,0,1,1.47-3l.11-.06.54-.28c2.24-1,4.19-1.49,4.49-1.17a.26.26,0,0,1,0,.11c.08,1.57-2.58,2.79-3.61,3.12a.75.75,0,0,0-.51.64l-1.06,10.59-3.53,3C21.12,134.42,17,130.39,16.42,128.9Z"/><path class="b" d="M22,139.92l5.06-4.29,22,40.69C41.72,172.84,27.59,149.84,22,139.92Z"/><path class="a" d="M28.23,133.59s0-.05-.07-.08l1-10.15c1.21-.48,4.3-2,4.17-4.45a1.58,1.58,0,0,0-.79-1.35,2.46,2.46,0,0,0-1.34-.25,3.85,3.85,0,0,0,1.16-2.1,2.27,2.27,0,0,0-.77-2,3,3,0,0,0-.74-1.81,2.07,2.07,0,0,0-1.52-.62h0c-.92,0-5.74,1.83-7.74,2.6A5.77,5.77,0,0,0,19,115.6l-.18-1.39,2.53-.81a3.71,3.71,0,0,0,2.3-1.85,5,5,0,0,0,.18-3.48.75.75,0,0,0-.94-.48l-6.29,2-10-17.29a16.69,16.69,0,0,0,2.78.24,11.75,11.75,0,0,0,10.19-5.24l48.77,95.52c-.49,8.18-.88,15.88-1.18,22.53Z"/><path class="b" d="M68.19,227.7c-.12-.82,0-7.25.45-16.86a1,1,0,0,0,.66-1.45l-.55-1c.29-6.6,1.35-25.77,1.35-25.77.55-9.22,1.21-19,2-28.61l.19-2.36c1.7-20.83,3.87-40.22,6.41-49.52a.85.85,0,0,0-1.64-.45c-1.49,5.46-2.85,14.23-4.07,24.68l-5.34-10.49a.84.84,0,0,0,.56-.72c0-.05.59-5.56,5.46-17.25,4-9.65,19.78-16.62,24.89-18.66-8.25,27.92-12.77,95.71-15.77,140.88Q82.36,226,82,231.35v3.09C77.76,233.94,69.13,232,68.19,227.7Z"/><path class="c" d="M151,282.48l-36.57,0L111.82,270l-5.74-31.14a.75.75,0,1,0-1.47.27l3.59,19.48a.73.73,0,0,0-.16.36l-2.53,23.3H72.6V234.24a.74.74,0,0,0-.19-.49,37.42,37.42,0,0,0,10.37,2.47h.07a.85.85,0,0,0,.85-.85v-4c.22-3.26.45-6.73.69-10.35,3.24,1.07,13.56,4.19,24.06,4.19a37.08,37.08,0,0,0,12.69-2,.73.73,0,0,0,.2-.12c-.36,6-.77,11-1.2,13.24a.75.75,0,0,0,.7.89c.49,0,4.73.23,10.35.23a149.82,149.82,0,0,0,18.15-1Z"/><path class="b" d="M160.59,231.62c-1.79,1.64-5.74,2.69-10.49,3.34H150a.72.72,0,0,0-.17,0c-10.42,1.4-24.54,1-28.1.81,1.46-9.67,2.57-47.55,2.62-49.21,0,0,0,0,0,0l2.76,0A179.08,179.08,0,0,0,158.53,184Z"/><path class="a" d="M118.5,185.56v-3.25H102.85a6.83,6.83,0,0,1-6.42-5,5.92,5.92,0,0,1-2.3-1.82,5.14,5.14,0,0,1-.81-4.17A5.83,5.83,0,0,1,92,167v-.2c0-2.53,2.51-4.58,6-4.87a5.57,5.57,0,0,1,4.34,1.39,2.47,2.47,0,0,0,.27-.39c1.16-2,.4-3.67-.84-6.37-.37-.81-.79-1.72-1.2-2.73a4.58,4.58,0,0,1,0-3.94,5.79,5.79,0,0,1,3.52-2.57.75.75,0,0,1,.85.4l3.12,6.38c2.32,4.73,8.1,7.26,10.48,8.13v-.17a.85.85,0,0,1,.59-.81c.31-.1,2.06-.65,4.71-1.4-5-48.43,12.26-83.79,12.42-84.15,0-.11.6-1.25.81-1.74-1.94-.54-5.32-1.38-6.2-1.58-.61,7-7.36,12.92-16,13.84a21.33,21.33,0,0,1-2.92.11c-6.63-.21-10.52-3.7-11.89-6-8,27.93-12.51,94.42-15.49,139.19,3.67,1.22,23,7.19,36.13,2.35a.75.75,0,0,1,.79.18c.87-14.92,1.47-35.19,1.47-35.48v0c-2,0-3.31-.1-3.58-.11A.85.85,0,0,1,118.5,185.56Z"/><path class="b" d="M168.34,100.66c-1.15-3.15-2.15-5.87-2.8-7.83C162.19,82.77,146.23,76.71,136.88,74a8.78,8.78,0,0,0-.95,2l0,0c-.71,1.67-15.22,36.51-10.44,83.39,7.91-2.2,21.5-5.55,31.35-5.73-3-4.19-6.2-10.37-9.51-19-4.07-10.67-5.81-17-5.81-21.15v-.3c-.17-6.69,1.75-19.17,16.43-27.64a.85.85,0,0,1,.85,1.47c-13.92,8-15.74,19.81-15.58,26.12v.34c0,3.88,1.76,10.22,5.69,20.55,3.66,9.59,7.15,15.79,10.09,19.66,3.15.11,5.78.63,7.51,1.73s2.5,2.58,2.15,3.92a2.35,2.35,0,0,1-2.27,1.7c-2.15.13-5-1.54-8.33-5.72-12.66-.16-34,6.22-37.84,7.39v22.06c5.78.2,41,1,57.2-8.91C192.48,166.63,175.57,120.4,168.34,100.66Z"/><path class="c" d="M103,176.94c-3.83,0-6.46-.75-7.61-2.3a3.48,3.48,0,0,1-.66-2.25,14.09,14.09,0,0,0,6.65,1.25q.8,0,1.67,0a.75.75,0,0,0,.71-.78.77.77,0,0,0-.78-.71c-4.24.2-7.06-.36-8.42-1.66a4.32,4.32,0,0,1-1-3.42v-.21c0-1.73,1.94-3.15,4.61-3.38a4.12,4.12,0,0,1,3,.82,14.39,14.39,0,0,1-5.72,1.19.75.75,0,1,0,0,1.5c.23,0,4.73,0,7.28-1.91l0,0,.06-.07a4.29,4.29,0,0,0,1.14-1.26c1.54-2.72.51-4.93-.79-7.74-.38-.83-.78-1.68-1.17-2.66a3.16,3.16,0,0,1-.06-2.68,3.83,3.83,0,0,1,2-1.62l2.84,5.79c2.78,5.66,9.68,8.35,11.83,9.06v17H102.87A5.67,5.67,0,0,1,98.25,178a18.25,18.25,0,0,0,4.42.48H103a.75.75,0,1,0,0-1.5Z"/><path class="d" d="M86.9,33.67a.75.75,0,0,0-.77.73l-.28,8.79a.75.75,0,1,0,1.5,0l.28-8.79A.75.75,0,0,0,86.9,33.67Z"/><ellipse class="d" cx="110.09" cy="39.7" rx="2.92" ry="2.26" transform="translate(66.87 148.46) rotate(-88.16)"/><ellipse class="d" cx="91.3" cy="38.52" rx="2.92" ry="2.26" transform="translate(49.87 128.54) rotate(-88.16)"/><path class="d" d="M106.56,53.41a.75.75,0,0,0-1.06,0,3.61,3.61,0,0,1-5,.31.75.75,0,0,0-.93,1.18,5.77,5.77,0,0,0,3.24,1.18,4.81,4.81,0,0,0,3.75-1.64A.75.75,0,0,0,106.56,53.41Z"/><path class="d" d="M92.1,26.6a3.78,3.78,0,0,0-2.44.81.75.75,0,0,0,1,1.14,2.35,2.35,0,0,1,1.42-.45h0a1.77,1.77,0,0,1,1.22.48.75.75,0,1,0,1.16-1A3.4,3.4,0,0,0,92.1,26.6Z"/><path class="d" d="M110.56,27.19h0a3.78,3.78,0,0,0-2.44.81.75.75,0,0,0,1,1.14,2.35,2.35,0,0,1,1.42-.45h0a1.77,1.77,0,0,1,1.22.48.75.75,0,1,0,1.16-1A3.19,3.19,0,0,0,110.56,27.19Z"/><path class="d" d="M131.5,49.91a2,2,0,0,0,.66.14,2.18,2.18,0,0,0,1.6-.67.75.75,0,0,0-1.06-1.07.6.6,0,0,1-.65.21.66.66,0,0,1-.4-.56c0-.41.44-.69.71-.82,1.36-.65,1.59-.63,1.87-.6a3.5,3.5,0,0,0,4-3.5,2.9,2.9,0,0,0-4.44-3,3.22,3.22,0,0,0-1.63,2.39.75.75,0,1,0,1.5,0,1.87,1.87,0,0,1,.91-1.15,1.53,1.53,0,0,1,1.55-.09,1.65,1.65,0,0,1,.63,1.68,2.29,2.29,0,0,1-1.24,2,2.31,2.31,0,0,1-1.05.12c-.58-.07-1.05-.05-2.69.73A2.41,2.41,0,0,0,130.15,48,2.16,2.16,0,0,0,131.5,49.91Z"/><path class="d" d="M169.94,100.07c-1.15-3.14-2.14-5.85-2.78-7.78-4.89-14.66-33-21-36.51-21.7a104,104,0,0,1-2-11.39,1.83,1.83,0,0,0,1.37.72c2,.07,2.27-4.36,2.29-6.14,2.33-.35,5.1-1.67,7.13-5.5a10.35,10.35,0,0,0,.2-10c1.95-3.42,2.84-9.6,2.84-9.6,1.81-13.13-7.6-15.52-7.6-15.52C129.05-1.32,113,.94,106.28,1.42A39.93,39.93,0,0,1,93,.07c-2.68-.55-1.31,2.5-1.31,2.5s2.77.09,0,1.16S78.95,9.34,80.55,17c1.24,5.92,4.6,8.61,6.08,9.54A31.86,31.86,0,0,0,86.41,31l-6.53-.21a.75.75,0,0,0-.77.73l-.21,6.53c0,.15-.4,3.75,1.64,6.17a6.12,6.12,0,0,0,4.56,2.08l1.17.05c-.06,2.43,0,13.9,6.52,17.36a24.56,24.56,0,0,0,8.64,2.48c.1,1.74.24,7.52-1.81,10.36a2,2,0,0,0-.25.5C97,77.94,77,85.5,72.07,97.24c-3.84,9.21-5.06,14.59-5.43,16.7l-22-43.27a.86.86,0,0,0-.08-.1.84.84,0,0,0-.11-.13v0L1.41,33a.85.85,0,0,0-1.41.7l4,57.4s0,0,0,0a.84.84,0,0,0,.09.29v0L14.95,110.2a.73.73,0,0,0-.32.39l-2.12,7a.75.75,0,0,0,0,.35c.07.38,1.65,9.33,2.55,11.51.78,1.9,5.26,6.22,7,7.83l-1.91,1.62a1,1,0,0,0-.23,1.25c2.1,3.77,20.75,36.84,30.07,38.5a1,1,0,0,0,.44,0L67,209.28c-.45,10.71-.61,18-.43,18.76.54,2.49,2.72,4.23,5.32,5.46a.75.75,0,0,0-.74.75v48.82a.75.75,0,0,0,.75.75h34.33a.75.75,0,0,0,.75-.67L109,263.91l4,19.52a.75.75,0,0,0,.73.6h0l38,0a.75.75,0,0,0,.75-.78l-1.67-46.87c5-.76,9.24-2,11.06-3.9a.75.75,0,0,0,.2-.55L160,183.72c6.88-1.39,13.37-3.44,18.28-6.44C194.56,167.35,177.93,121.91,169.94,100.07ZM81.69,43.29c-1.63-1.92-1.31-5-1.3-5.09l.19-5.84,6.6.21h0l8.5.27-.27,8.38a.72.72,0,0,0,0,.17,7.39,7.39,0,0,0-2.37,3.3,43.32,43.32,0,0,1-7.88.15A4.69,4.69,0,0,1,81.69,43.29Zm6.07,3.14A39.38,39.38,0,0,0,93,46.21a3.71,3.71,0,0,0,.44,1.09,3.88,3.88,0,0,0,3.38,1.85A5.85,5.85,0,0,0,98.44,49,.75.75,0,0,0,98,47.54c-.09,0-2.33.59-3.28-1a2,2,0,0,1-.3-1,.73.73,0,0,0,0-.39h0c.16-.88.95-1.78,2.2-2.91a12.4,12.4,0,0,0,2.59-4.4.75.75,0,1,0-1.42-.49,15.33,15.33,0,0,1-.91,2l.21-6.53,4.21.14a33.49,33.49,0,0,0,.3,7.31c1.25,6,3.49,8.36,8.6,8.53a25,25,0,0,0,3.47-.17c9.83-1.07,10.45-15.08,10.48-15.68a.75.75,0,0,0-.73-.78L87.91,31.09c-.14-3.74.85-8.91,1.65-12.41.81-1.6,1.69-2.66,2.35-2.22,1.81,1.22,3.14,3.11,10.3,3.57s14-4.87,14-4.87c1.54,9.77,9.85,10.27,9.85,10.27-.37,4.39-.07,9.49,1.52,10.46s.6,3,.6,3S125,45.3,127,47.22s3.15-4.3,5.1-7.47c1.2-1.95,3.72-2,5.5-1.79a8.88,8.88,0,0,1,.44,9.63c-3.54,6.68-9.47,4.54-9.72,4.45a.75.75,0,0,0-1,.47s-.11.34-.31.84a.72.72,0,0,0-.1.24c-.72,1.75-2.4,5.19-5,6.72-10.61,6.19-22.19,5.44-28.46,2.12C87.79,59.41,87.72,48.63,87.77,46.43Zm15.12-13.36,19.79.64c-.27,2.83-1.73,12.69-9.08,13.49-7.53.82-9.24-1.45-10.44-7.18A32.64,32.64,0,0,1,102.89,33.08Zm-2.05,44.39c2.27-3.14,2.21-9,2.11-11.11l1,.06A35.13,35.13,0,0,0,122.7,61.6,12.67,12.67,0,0,0,126.93,57a94,94,0,0,0,2.39,14.48v0l.06.24c-.27,6.52-6.59,12.08-14.75,12.94-6.71.71-11.64-2.21-13.38-5.21C100.67,78.5,100.62,77.76,100.83,77.47ZM70.47,151.89c-.75,9.19-1.41,18.64-2,27.63L21.18,86.82a13,13,0,0,0,8.08-1.11A10.87,10.87,0,0,0,34,80.48ZM35,78.75c1.73.09,5.2,0,7.5-2.06a6.15,6.15,0,0,0,1.79-2.8L71.86,128a.85.85,0,0,0,.76.46l.09,0c-.71,6.32-1.37,13.19-2,20.27ZM43,71.43a5.15,5.15,0,0,1-1.57,4C38.92,77.63,34.27,77,34.23,77a.84.84,0,0,0-.78.31l-.09,0A.85.85,0,0,0,33,78.45v0a9.77,9.77,0,0,1-4.52,5.72c-3.91,2.08-8.56.59-8.61.58h0a.85.85,0,0,0-.3,0h-.07a.84.84,0,0,0-.24.07h0l-.06.05A.83.83,0,0,0,19,85l-.08.11a.8.8,0,0,0-.06.08C15.05,92.41,7.7,91,5.66,90.42L1.84,35.65ZM16.42,128.9c-.66-1.59-1.85-7.8-2.42-11l2-6.48,6.57-2.12a2.93,2.93,0,0,1-.24,1.59,2.24,2.24,0,0,1-1.42,1.1l-3.12,1a.75.75,0,0,0-.52.81l.87,6.88a.75.75,0,1,0,1.49-.19l-.25-2a4.92,4.92,0,0,1,2.77-3.67,68.62,68.62,0,0,1,7.23-2.51.6.6,0,0,1,.45.16,1.25,1.25,0,0,1,.27.6,49.8,49.8,0,0,0-7.14,3c-3.12,1.75-2.11,6.72-2.06,6.94a.75.75,0,0,0,.73.59l.16,0a.75.75,0,0,0,.58-.89s-.83-4.11,1.33-5.32a49.91,49.91,0,0,1,7-2.89.72.72,0,0,1,.2.58c-.13,1.07-2.21,2.57-4.13,3.61l-.22.12c-.43.2-.79.39-1,.52a.74.74,0,0,0-.35.4,5.44,5.44,0,0,0-1.43,3.61.75.75,0,0,0,.7.8h.05a.75.75,0,0,0,.75-.7,3.45,3.45,0,0,1,1.47-3l.11-.06.54-.28c2.24-1,4.19-1.49,4.49-1.17a.26.26,0,0,1,0,.11c.08,1.57-2.58,2.79-3.61,3.12a.75.75,0,0,0-.51.64l-1.06,10.59-3.53,3C21.12,134.42,17,130.39,16.42,128.9Zm5.58,11,5.06-4.29,22,40.69C41.72,172.84,27.59,149.84,22,139.92Zm6.23-6.33s0-.05-.07-.08l1-10.15c1.21-.48,4.3-2,4.17-4.45a1.58,1.58,0,0,0-.79-1.35,2.46,2.46,0,0,0-1.34-.25,3.85,3.85,0,0,0,1.16-2.1,2.27,2.27,0,0,0-.77-2,3,3,0,0,0-.74-1.81,2.07,2.07,0,0,0-1.52-.62h0c-.92,0-5.74,1.83-7.74,2.6A5.77,5.77,0,0,0,19,115.6l-.18-1.39,2.53-.81a3.71,3.71,0,0,0,2.3-1.85,5,5,0,0,0,.18-3.48.75.75,0,0,0-.94-.48l-6.29,2-10-17.29a16.69,16.69,0,0,0,2.78.24,11.75,11.75,0,0,0,10.19-5.24l48.77,95.52c-.49,8.18-.88,15.88-1.18,22.53Zm40,94.11c-.12-.82,0-7.25.45-16.86a1,1,0,0,0,.66-1.45l-.55-1c.29-6.6.69-14.48,1.18-22.94.08,0,1.38-21.85,2.14-31.44l.19-2.36c1.7-20.83,3.87-40.22,6.41-49.52a.85.85,0,0,0-1.64-.45c-1.49,5.46-2.85,14.23-4.07,24.68l-5.34-10.49a.84.84,0,0,0,.56-.72c0-.05.59-5.56,5.46-17.25,4-9.65,19.78-16.62,24.89-18.66-8.25,27.92-12.77,95.71-15.77,140.88Q82.36,226,82,231.35v3.09C77.76,233.94,69.13,232,68.19,227.7ZM151,282.48l-36.57,0L111.82,270l-5.74-31.14a.75.75,0,1,0-1.47.27l3.59,19.48a.73.73,0,0,0-.16.36l-2.53,23.3H72.6V234.24a.74.74,0,0,0-.19-.49,37.42,37.42,0,0,0,10.37,2.47h.07a.85.85,0,0,0,.85-.85v-4c.22-3.26.45-6.73.69-10.35,3.24,1.07,13.56,4.19,24.06,4.19a37.08,37.08,0,0,0,12.69-2,.73.73,0,0,0,.2-.12c-.36,6-.77,11-1.2,13.24a.75.75,0,0,0,.7.89c.49,0,4.73.23,10.35.23a149.82,149.82,0,0,0,18.15-1Zm9.6-50.86c-1.79,1.64-5.74,2.69-10.49,3.34H150a.72.72,0,0,0-.17,0c-10.42,1.4-24.54,1-28.1.81,1.46-9.67,2.57-47.55,2.62-49.21,0,0,0,0,0,0l2.76,0A179.08,179.08,0,0,0,158.53,184Zm16.82-55.79c-16.18,9.89-51.42,9.11-57.2,8.91V162.69c3.83-1.17,25.18-7.55,37.84-7.39,3.3,4.18,6.18,5.85,8.33,5.72a2.35,2.35,0,0,0,2.27-1.7c.35-1.34-.5-2.87-2.15-3.92s-4.37-1.62-7.51-1.73C156,149.8,152.55,143.6,148.89,134c-3.94-10.33-5.69-16.67-5.69-20.55v-.34C143,106.81,144.85,95,158.77,87a.85.85,0,0,0-.85-1.47c-14.68,8.47-16.6,21-16.43,27.64v.3c0,4.16,1.74,10.48,5.81,21.15,3.3,8.67,6.55,14.85,9.51,19-9.85.18-23.44,3.53-31.35,5.73-4.88-47.81,10.32-83.12,10.48-83.48a.85.85,0,0,0-1.56-.68c-.16.36-15.6,36.2-10.58,84.63-2.65.76-4.4,1.3-4.71,1.4a.85.85,0,0,0-.59.81v.17c-2.38-.87-8.16-3.39-10.48-8.13l-3.12-6.37a.75.75,0,0,0-.85-.4,5.79,5.79,0,0,0-3.52,2.57,4.58,4.58,0,0,0,0,3.94c.41,1,.83,1.92,1.2,2.73,1.25,2.7,2,4.33.84,6.37a2.47,2.47,0,0,1-.27.39A5.57,5.57,0,0,0,98,161.94c-3.46.3-6,2.35-6,4.87v.2a5.83,5.83,0,0,0,1.35,4.33,5.14,5.14,0,0,0,.81,4.17,5.92,5.92,0,0,0,2.3,1.82,6.83,6.83,0,0,0,6.42,5H118.5v3.25a.85.85,0,0,0,.81.85c.27,0,1.55.07,3.58.11v0c0,.29-.6,20.56-1.47,35.48a.75.75,0,0,0-.79-.18c-13.17,4.84-32.47-1.13-36.13-2.35,3-44.77,7.44-111.26,15.49-139.19,1.37,2.31,5.26,5.8,11.89,6a21.33,21.33,0,0,0,2.92-.11c8.68-.92,15.43-6.81,16-13.84,5,1.12,30.38,7.45,34.71,20.45.65,2,1.65,4.68,2.8,7.83C175.57,120.4,192.48,166.63,177.41,175.84Zm-17-20.42a11.88,11.88,0,0,1,5.18,1.43c1.1.69,1.54,1.56,1.41,2.06-.08.33-.44.42-.72.43C165.08,159.4,163,158.39,160.4,155.41ZM103,176.94c-3.83,0-6.46-.75-7.61-2.3a3.48,3.48,0,0,1-.66-2.25,14.09,14.09,0,0,0,6.65,1.25q.8,0,1.67,0a.75.75,0,0,0,.71-.78.77.77,0,0,0-.78-.71c-4.24.2-7.06-.36-8.42-1.66a4.32,4.32,0,0,1-1-3.42v-.21c0-1.73,1.94-3.15,4.61-3.38a4.12,4.12,0,0,1,3,.82,14.39,14.39,0,0,1-5.72,1.19.75.75,0,1,0,0,1.5c.23,0,4.73,0,7.28-1.91l0,0,.06-.07a4.29,4.29,0,0,0,1.14-1.26c1.54-2.72.51-4.93-.79-7.74-.38-.83-.78-1.68-1.17-2.66a3.16,3.16,0,0,1-.06-2.68,3.83,3.83,0,0,1,2-1.62l2.84,5.79c2.78,5.66,9.68,8.35,11.83,9.06v17H102.87A5.67,5.67,0,0,1,98.25,178a18.25,18.25,0,0,0,4.42.48H103a.75.75,0,1,0,0-1.5Z"/><path class="d" d="M.85,33.66,1.43,42s6,3.79,6.19-2.45Z"/><path class="b" d="M160.4,155.41a11.88,11.88,0,0,1,5.18,1.43c1.1.69,1.54,1.56,1.41,2.06-.08.33-.44.42-.72.43C165.08,159.4,163,158.39,160.4,155.41Z"/><path class="c" d="M265.73,62.62c-4.52,5.18-10.34,7.92-16.36,7.73C236,69.92,231.52,54.17,231.48,54a.83.83,0,0,0-.21-.35c6.55-6.89,2.37-28.25,3.71-34.76,1.38-6.7,5.53-2.23,7.25-1.57a18.89,18.89,0,0,0,13,.83c6.52-1.85,6.05,3.36,7.8,7.32s5.66,3.73,5.79,10.78,5.47,5.56,7.54.81a11.69,11.69,0,0,1,1.9-3.28,2.14,2.14,0,0,1,1.14,0c.81.27,1.43,1.15,1.86,2.62a8.37,8.37,0,0,1-1.92,7.43A8.13,8.13,0,0,1,273.93,47a15.19,15.19,0,0,0-.19-2.61.85.85,0,1,0-1.68.28,14,14,0,0,1,.17,2.75.78.78,0,0,0,0,.76A26.12,26.12,0,0,1,265.73,62.62Z"/><path class="d" d="M241.12,36.61a2.55,2.55,0,0,0-2.35,2.67,2.3,2.3,0,1,0,4.52.14A2.53,2.53,0,0,0,241.12,36.61Z"/><path class="d" d="M238.86,34a2.7,2.7,0,0,1,1.47-.8h0a2.11,2.11,0,0,1,1.47.22.89.89,0,0,0,.68.16.86.86,0,0,0,.51-.29.77.77,0,0,0-.14-1.12,3.8,3.8,0,0,0-2.84-.53h0a4.33,4.33,0,0,0-2.5,1.4.77.77,0,0,0,.17,1.12A.89.89,0,0,0,238.86,34Z"/><path class="d" d="M258.93,36.61a2.55,2.55,0,0,0-2.35,2.67,2.3,2.3,0,1,0,4.52.14A2.53,2.53,0,0,0,258.93,36.61Z"/><path class="d" d="M256.67,34a2.7,2.7,0,0,1,1.47-.8h0a2.11,2.11,0,0,1,1.47.22.89.89,0,0,0,.68.16.86.86,0,0,0,.51-.29.77.77,0,0,0-.14-1.12,3.8,3.8,0,0,0-2.84-.53h0a4.33,4.33,0,0,0-2.5,1.4.77.77,0,0,0,.17,1.12A.89.89,0,0,0,256.67,34Z"/><path class="d" d="M307,159.4l0-.15c-.61-6-5.31-41.33-8-54.52-1.9-9.26-9.09-14.24-15.41-17.37.78,0,1.24,0,1.24,0s-5-7.53.13-12.65,4.08-13.22-.88-17.48a19.67,19.67,0,0,1-5.79-10.13,11.47,11.47,0,0,0,2.31-2.14,10,10,0,0,0,2.24-9c-.59-2-1.58-3.29-2.95-3.75l-.25-.05c3.48-22.4-14-24.69-14-24.69S249.91-3.82,235.49,4.72s-17.42,21.1-18.14,30.45-2.64,10.06-13.2,19.47.5,17.47.5,17.47-8.37-2-12.21,7.53L189.36,50a.85.85,0,0,0-.77-.76c-1.65-.16-4.85.46-5.22,3.91a76.36,76.36,0,0,0-.13,8.17,7.86,7.86,0,0,0-3.63-2.57c-4-1.35-9.1-.07-9.32,0a.85.85,0,0,0-.63.71,4.73,4.73,0,0,0,1,3.45A4.17,4.17,0,0,0,174,64.14a21.9,21.9,0,0,1,3.18.12,5.6,5.6,0,0,0-3.34.81,6,6,0,0,0-4,2.13,5.06,5.06,0,0,0-.24,5.3,2.28,2.28,0,0,0,2.18,1.41,8.15,8.15,0,0,0,1.66-.36c.81,3.19,3.32,13.44,3.23,17.35l-.74,31.88a.84.84,0,0,0,.7.84c.47,2.22,1.2,4.62,2,7.19.95,3.07,2,6.55,2.76,10.24,1.09,5.37,1.93,13.8,2.48,19.38l.14,1.37h0a.85.85,0,0,0-.54,1.07,15.66,15.66,0,0,0,.92,2.08,5,5,0,0,0,.35,1.8l.53-.29a15.26,15.26,0,0,0,5.64,5.34l.07,0,4.43,21.24a.85.85,0,0,0,.81.68l14.3.29c-14.67,45-1.89,89.78-1.76,90.23a.85.85,0,0,0,.82.61h78.13a.85.85,0,0,0,.83-.66c0-.21,1.25-5.44,4.31-28.8C295.7,233,285.09,197,284,193.29a108.16,108.16,0,0,0,11.65-6C309.07,179.31,307.7,165.86,307,159.4Zm-67-74.5a19.7,19.7,0,0,0-1.38-2c7.38-5.09,3.86-12.3,3.86-12.3-.37-.23-.73-.46-1.08-.69A17.4,17.4,0,0,0,249.31,72H250c6.31,0,13.09-4.74,13.49-5.26,0,6.22,1.67,10.56,4.1,13.59a28.93,28.93,0,0,1-27.42,4.52Zm-5.1-66c1.38-6.7,5.53-2.23,7.25-1.57a18.89,18.89,0,0,0,13,.83c6.52-1.85,6.05,3.36,7.8,7.32s5.66,3.73,5.79,10.78,5.47,5.56,7.54.81a11.69,11.69,0,0,1,1.9-3.28,2.14,2.14,0,0,1,1.14,0c.81.27,1.43,1.15,1.86,2.62a8.37,8.37,0,0,1-1.92,7.43A8.13,8.13,0,0,1,273.93,47a15.19,15.19,0,0,0-.19-2.61.85.85,0,1,0-1.68.28,14,14,0,0,1,.17,2.75.78.78,0,0,0,0,.76,26.12,26.12,0,0,1-6.46,14.46l-.16.17a.84.84,0,0,0-.68.71v0c-4.39,4.58-9.87,7-15.51,6.8C236,69.92,231.52,54.17,231.48,54a.83.83,0,0,0-.21-.35C237.82,46.77,233.64,25.41,235,18.9Zm-18.59,98.68a17.71,17.71,0,0,0-4.25,14l-9.51-.16L202,127.1a.83.83,0,0,0,.2-.31l5.39-16a36.21,36.21,0,0,0,3.9,2.82A31.84,31.84,0,0,1,216.39,117.58Zm-10.21-8-4.75,14.08-4.26-27.58a23,23,0,0,0,4.6,2.92C202.37,103.72,203.39,106.72,206.18,109.56ZM171.59,72.22c-.06,0-.27-.11-.5-.54a3.43,3.43,0,0,1,.07-3.42,4,4,0,0,1,.95-.85,5,5,0,0,0-.42,3.11,3.37,3.37,0,0,0,.73,1.55A6.73,6.73,0,0,1,171.59,72.22Zm3.46.77a2.4,2.4,0,0,0,1.88-1.89c0-.25.09-.44.13-.57l1.1.12a.85.85,0,0,0,.19-1.69L177,68.82a1,1,0,0,0-.6,0c-.68.17-1,.92-1.17,2a.74.74,0,0,1-.77.58h0c-.44,0-1-.31-1.14-1.17-.38-1.85,1.24-3.49,1.39-3.65,1.35-1.1,4.55-.38,5.68,0a.85.85,0,0,0,1-1.16c-1.3-2.81-3.78-3-7.45-2.94a2.63,2.63,0,0,1-2.07-.7,2.6,2.6,0,0,1-.58-1.54c1.41-.28,4.94-.82,7.72.12,3.33,1.12,4.31,4.8,4.32,4.83a.85.85,0,0,0,1.67-.25c0-.08-.37-8.19,0-11.62a2.65,2.65,0,0,1,2.68-2.4l2.09,20.19a33.05,33.05,0,0,0-8.27-4.15.85.85,0,0,0-1,.38,4.19,4.19,0,0,0,1.69,5.79c.89.55,1,1.27,1.05,2.61.1,1.67.23,4,3.44,5.53a.85.85,0,0,0,.75-1.53c-2.32-1.14-2.4-2.51-2.49-4.1-.08-1.37-.17-2.92-1.86-4a2.48,2.48,0,0,1-1.36-2.84c4.12,1.57,8.26,3.91,8.38,5.23l1.11,10.73a11.62,11.62,0,0,0,.33,3.18l.22,2.12H178.35C178.14,85.4,175.79,75.87,175.05,73Zm10.29,90.13c-.09-.86-.18-1.81-.28-2.8-.56-5.6-1.4-14.07-2.5-19.5-.76-3.75-1.84-7.26-2.79-10.36a70.33,70.33,0,0,1-2.13-8l.71-30.7h14.91a16.49,16.49,0,0,0,1.91,2.43l5.74,37.21-14.28-.24h0a.85.85,0,0,0-.71.38l-2.39,3.57a.85.85,0,0,0-.13.65l7.06,33.81A15.8,15.8,0,0,1,185.34,163.12Zm-.21-27.35,1.93-2.89,77.3,1.27,9.31,57.21a.85.85,0,0,0,1.39.51l12.73-10.77a.85.85,0,0,0-.48-1.5l-12.06-.94a.87.87,0,0,0-.91.78.85.85,0,0,0,.78.91l10,.78-10,8.46-2-12.37,19.75,1.52L276.2,194.21l-4.13,1.35-9.76-58.64a.85.85,0,0,0-.83-.71l-73-.87h0a.85.85,0,0,0,0,1.7l72.29.87,9.63,57.85L246.72,194a.8.8,0,0,0-.44.09c-1.64-2.48-4.58-3.46-7.42-4.41a24.24,24.24,0,0,1-4-1.58,1.59,1.59,0,0,0-1.73,0,2.86,2.86,0,0,0-.83,2.8,7.05,7.05,0,0,0,.86,2.59,10.25,10.25,0,0,1-3-1.28c-.67-.59-1-2.13-1.35-3.62-.46-2-.93-4.16-2.44-5.13-2.68-1.71-3.74-.89-4-.59a.85.85,0,0,0-.21.69l1.36,9.76-.12,0c-.47-.23-1.61-1.29-2.09-6.13-.09-.91-.33-3.33-2-4.58a4.38,4.38,0,0,0-3.57-.64l-.17.05c-.33.14-.92.59-1,2a4.2,4.2,0,0,0-3.12-.34.85.85,0,0,0-.66.81,53.45,53.45,0,0,0,.4,7.82l-14.3-.29Zm27.34,49.52a2.1,2.1,0,0,1,1.46.4,3.17,3.17,0,0,1,1,1.45l.18.91c.3,1.68,1.38,7.18,2.82,8.35a.85.85,0,1,0,1.07-1.32c-.56-.46-1.44-3.44-2-6.3a8,8,0,0,0-.41-2.09l-.07-.36a5.3,5.3,0,0,1-.11-2.72,2.56,2.56,0,0,1,2,.38c1.07.79,1.25,2.68,1.33,3.38.42,4.24,1.42,6.69,3,7.49a2.39,2.39,0,0,0,2.28-.06.85.85,0,0,0,.39-.84L224,184.22a5.54,5.54,0,0,1,1.5.72c.92.58,1.31,2.35,1.7,4.06s.8,3.56,1.89,4.52c1.45,1.28,6.44,2.43,7,2.55a.85.85,0,0,0,.48-1.62,4.43,4.43,0,0,1-2.44-3,3.39,3.39,0,0,1-.07-1.77,25.91,25.91,0,0,0,4.28,1.7c2.72.9,5.28,1.75,6.58,3.78,1.53,2.4.36,3.91-.09,4.35-8.68,1.61-27.32-.62-30-1.93C213.1,196.72,212.44,190.11,212.47,185.28Zm34.62,10.5,20,1.44a81.25,81.25,0,0,1-20.15,2.24A4.78,4.78,0,0,0,247.09,195.78Zm44,59.42c-2.47,18.91-3.75,26-4.14,28H210.17c-1.46-5.46-11.5-46.37,1.64-87.71.49,1.72,1.21,3.1,2.25,3.61,2.49,1.21,13.5,2.68,22.65,2.68a47.84,47.84,0,0,0,8.57-.63q1.44.05,2.9.06A88.63,88.63,0,0,0,282.4,194C283.76,198.5,293.93,233.49,291.09,255.2Zm3.66-69.37a105,105,0,0,1-14.94,7.35l15.62-14.49a.85.85,0,0,0-.51-1.47l-22.1-1.7-.52-3.18c1.26-1.44,7.37-8.17,12.66-9.25a15.27,15.27,0,0,0,1.18,2.29c2.22,3.33,4.34,3,4.93,2.86a2.34,2.34,0,0,0,1.7-2.21c0-1.38-1-3.26-4.14-4.4a6.64,6.64,0,0,0-2.59-.37c-2.29-5.9-5.26-17.4-7.11-27.2,2.8-9,2.17-16.25.36-18.44a1.65,1.65,0,0,0-1.63-.69c-.81.17-1.41,1-1.84,2.4-.75,2.53,0,9.13,1.34,16.7-.37,1.14-.8,2.33-1.31,3.55-6.54,15.87-.22,27.27,0,27.75a.91.91,0,0,0,.76.43,46.55,46.55,0,0,0-4.72,4.43l-6-37a.85.85,0,0,0-.83-.71l-51.25-.84a16,16,0,0,1,3.73-12.83,36.36,36.36,0,0,1,4.81,6.26c-1.91-3.2-.14-6.44,15.53-10.55s2.89-16.95,2.89-16.95c2.86-3.27,1.88-7.42.45-10.47a30.85,30.85,0,0,0,27.44-5.42,19.2,19.2,0,0,0,9.06,4.93c6.5,2.76,17.31,7.37,19.59,18.48,2.58,12.58,7.27,47.31,8,54.35l0,.16C306,166.15,307.27,178.41,294.75,185.83Zm-17.32-47.61.37-.91a170.56,170.56,0,0,0,6.52,24.2,19.65,19.65,0,0,0-6.85,3.61.85.85,0,0,0-.08-.64C277.32,164.37,271.22,153.28,277.43,138.22Zm0-20.42a3.42,3.42,0,0,1,.52-1.15c.81.78,2,5.84.27,13.45C277.31,124.37,276.9,119.69,277.46,117.8Zm9.3,45.14a4.87,4.87,0,0,1,1.3.27c2.13.77,3.05,1.93,3,2.74a.64.64,0,0,1-.47.64c-.67.19-1.88-.4-3.06-2.17A11.33,11.33,0,0,1,286.76,162.95Z"/><path class="d" d="M258.84,54.17a11.43,11.43,0,0,0-1.68.19,41.71,41.71,0,0,1-6.44.53,35.26,35.26,0,0,1-7.89-.7.85.85,0,0,0-1,1.07,9,9,0,0,0,8.6,6.12h.35a9.52,9.52,0,0,0,8.89-6.1.85.85,0,0,0-.81-1.11Zm-8.13,5.51a7.12,7.12,0,0,1-6.63-3.52,41.17,41.17,0,0,0,6.67.43A43.25,43.25,0,0,0,257.4,56,7.8,7.8,0,0,1,250.7,59.68Z"/><path class="d" d="M251.67,50.9h0a.81.81,0,0,0,.85-.71.79.79,0,0,0-.81-.77,4.48,4.48,0,0,1-3.34-1.64c2.85-2.75,2.27-7.37,2.24-7.56a.82.82,0,0,0-.94-.65.77.77,0,0,0-.75.82s.52,4.21-1.86,6.44a1.22,1.22,0,0,0-.17,1.69A6.21,6.21,0,0,0,251.67,50.9Z"/><path class="d" d="M241.12,36.61a2.55,2.55,0,0,0-2.35,2.67,2.3,2.3,0,1,0,4.52.14A2.53,2.53,0,0,0,241.12,36.61Z"/><path class="d" d="M238.86,34a2.7,2.7,0,0,1,1.47-.8h0a2.11,2.11,0,0,1,1.47.22.89.89,0,0,0,.68.16.86.86,0,0,0,.51-.29.77.77,0,0,0-.14-1.12,3.8,3.8,0,0,0-2.84-.53h0a4.33,4.33,0,0,0-2.5,1.4.77.77,0,0,0,.17,1.12A.89.89,0,0,0,238.86,34Z"/><path class="d" d="M258.93,36.61a2.55,2.55,0,0,0-2.35,2.67,2.3,2.3,0,1,0,4.52.14A2.53,2.53,0,0,0,258.93,36.61Z"/><path class="d" d="M256.67,34a2.7,2.7,0,0,1,1.47-.8h0a2.11,2.11,0,0,1,1.47.22.89.89,0,0,0,.68.16.86.86,0,0,0,.51-.29.77.77,0,0,0-.14-1.12,3.8,3.8,0,0,0-2.84-.53h0a4.33,4.33,0,0,0-2.5,1.4.77.77,0,0,0,.17,1.12A.89.89,0,0,0,256.67,34Z"/><path class="d" d="M223.54,167.06a16.32,16.32,0,0,1-.23-4.42l-1.69.56,0-.84,1.75-.55c.08-.72.23-1.94.34-2.59a.28.28,0,0,0-.09-.26c-.06,0-.15-.09-.38,0a5.08,5.08,0,0,0-2,1.81,6.71,6.71,0,0,0-.74,2.18c0,.18,0,.37,0,.56a8,8,0,0,0,3.19,6.72,11.83,11.83,0,0,0,2.66,1.34C224.94,171,223.85,169.2,223.54,167.06Z"/><path class="d" d="M226.75,158.45a8.73,8.73,0,0,0-1.35-.07h0c-.39,0-.55.3-.65.71a20.59,20.59,0,0,0-.23,2.43l2.14-.63,0,1a20.36,20.36,0,0,0-2.15.54,10.18,10.18,0,0,0,0,2.26,10.38,10.38,0,0,0,1.23,5.05,3.44,3.44,0,0,0,1,1.06h0l.09.05.15.07h.07c1.29.46,2.7-1.07,3.15-3.41a7.75,7.75,0,0,0,.11-.79s0,0,0,0,0,0,0,.05,0,.2,0,.29c-.06,2.77-1.46,4.77-3.21,4.7h0a6.53,6.53,0,0,0,1.25.11,5.27,5.27,0,0,0,5.09-5.27A8.13,8.13,0,0,0,226.75,158.45Z"/><path class="d" d="M227.16,157.4a6.21,6.21,0,0,0-7.82,6.12,9.72,9.72,0,0,0,7.47,9.33,6.21,6.21,0,0,0,7.82-6.12A9.72,9.72,0,0,0,227.16,157.4Zm-.33,15a9.1,9.1,0,0,1-7-8.74,5.82,5.82,0,0,1,7.32-5.73,9.1,9.1,0,0,1,7,8.74A5.82,5.82,0,0,1,226.83,172.36Z"/><path class="d" d="M389.65,154.74a.75.75,0,0,1-.06-1.49c.1,0,9.49-1.26,10.44-6a.75.75,0,1,1,1.47.3c-1.17,5.8-11.3,7.14-11.73,7.2Z"/><path class="d" d="M389.44,159.65a.75.75,0,0,1-.09-1.49c.09,0,9.43-1.62,10-6.4a.77.77,0,0,1,.84-.65.75.75,0,0,1,.65.84c-.74,5.89-10.85,7.62-11.27,7.69Z"/></svg>