<svg xmlns="http://www.w3.org/2000/svg" viewBox="0 0 523.11 387.41"><defs><style type="text/css">.cls-1{fill:#b2ca6a;}.cls-2{fill:none;}</style></defs><title>stars-1</title><g id="Camada_2" data-name="Camada 2"><g id="Camada_1-2" data-name="Camada 1"><path class="cls-1" d="M61.09,89.23c0,.14,2.64-.41,3.73-.16a1.09,1.09,0,0,1,.85.79c.49,1.43.88,3,1.08,3s-.2-2.13,0-3.35c.12-.72.32-1,.77-1.23,1.22-.56,3.42-1,3.41-1.31,0-.17-2.12.22-3.8.09a1.16,1.16,0,0,1-1-.76C65.59,85,65.29,83.07,65,83s.15,2.23,0,3.59a1.72,1.72,0,0,1-.54,1.21C63.88,88.27,61.12,88.93,61.09,89.23Z"/><path class="cls-1" d="M126.07,60.94c.11.1,1.31-2.33,2.17-3a1.11,1.11,0,0,1,1.14-.19c1.44.5,2.92,1.15,3,1s-1.81-1.16-2.65-2.07c-.5-.53-.61-.87-.49-1.36.31-1.3,1.32-3.31,1.06-3.5s-1.13,1.81-2.27,3a1.15,1.15,0,0,1-1.22.34c-1.32-.34-3-1.31-3.24-1.12s1.85,1.25,2.82,2.21a1.71,1.71,0,0,1,.62,1.17C127,58.15,125.86,60.74,126.07,60.94Z"/><path class="cls-1" d="M277.58,43.82c-.09.1,2.17,1.09,2.85,1.85a1,1,0,0,1,.22,1,12.34,12.34,0,0,0-.78,2.8c.22.13,1-1.69,1.77-2.49.47-.47.78-.59,1.22-.51,1.2.23,3.06,1.07,3.22.83s-1.69-1-2.86-1.94a1.07,1.07,0,0,1-.36-1.09c.26-1.22,1.07-2.84.89-3S282.69,43,281.85,44a1.51,1.51,0,0,1-1,.61C280.15,44.58,277.75,43.61,277.58,43.82Z"/><path class="cls-1" d="M518.47,64.41c.14,0,0-2.8.42-3.89a1.14,1.14,0,0,1,1-.75c1.56-.28,3.25-.45,3.27-.66s-2.24-.12-3.47-.52c-.73-.24-1-.49-1.15-1-.39-1.35-.49-3.7-.82-3.74-.18,0-.11,2.23-.51,4a1.2,1.2,0,0,1-.94.93c-1.38.36-3.46.36-3.53.63s2.32.2,3.71.58a1.79,1.79,0,0,1,1.16.75C517.92,61.37,518.17,64.33,518.47,64.41Z"/><path class="cls-1" d="M47,8.41c0-.44-1.78-.36-3.18-.94a2.64,2.64,0,0,1-1.61-1.79c-.44-1.31-.45-4-.9-4.12s-.76,2.91-1.12,3.8a2.61,2.61,0,0,1-2.13,1.76c-1.64.17-2.86.18-3,.54s2.23.93,3.06,1.22,1.51.44,1.73,1.65.44,3.79.89,3.94.5-2.3,1-3.76a2.11,2.11,0,0,1,1.72-1.56C44.84,8.75,47,8.72,47,8.41Z"/><path class="cls-1" d="M424.65,9.59c-1.24.38-3,7.48-3.5,7.73s.09-8.73-.69-9.17-7.13-2.48-6.17-2.61c1.43-.2,6.11.81,7.41-.28S424.55.85,425.36.05c.64-.63-.4,5.14.05,5.8s6.29,3.51,5.62,4S425.69,9.26,424.65,9.59Z"/><rect class="cls-2" y="354.33" width="434.33" height="33.08"/></g></g></svg>
