<svg xmlns="http://www.w3.org/2000/svg" viewBox="0 0 523.11 394.52"><defs><style type="text/css">.cls-1{fill:#b2ca6a;}.cls-2,.cls-4{fill:none;}.cls-2{stroke:#2b3661;stroke-miterlimit:10;stroke-width:1.7px;}.cls-3{fill:#2b3661;}</style></defs><title>Ativo 4</title><g id="Camada_2" data-name="Camada 2"><g id="Camada_1-2" data-name="Camada 1"><path class="cls-1" d="M494.78,305.15a14.84,14.84,0,0,0-5.22-2.15c-1.15-.17-2.34.33-3.4.17-1.39-.2-2.22-1.58-3.27-2.25a12.29,12.29,0,0,0-1.19-.7c-1.17-2.24-4.72-1.5-4.82.69-1.95,1.5-4.41,3.75-5.91,1.45a2.52,2.52,0,0,0-4.31,0l-3.77.57a3.2,3.2,0,0,0-.61-.61,6.18,6.18,0,0,0-2.21-3.95l-.35-.17a2.17,2.17,0,0,0-2.52-.77c-4.26,1.32-6.47,6.51-4.77,10.73a2.6,2.6,0,0,0,2.41,1.84,5.33,5.33,0,0,0,2.15-.59,2.68,2.68,0,0,0,2.39.65,2.9,2.9,0,0,0,1.13-.46c.29.16,16.22,1,19.2.17,4.6-.1,9.2-.15,13.81,0C496,309.92,496.88,306.36,494.78,305.15Z"/><rect class="cls-2" x="415" y="270.65" width="87.19" height="61.59" rx="5.4"/><line class="cls-2" x1="415" y1="281.05" x2="502.18" y2="281.05"/><path class="cls-2" d="M495.85,305.42v2.86a1.41,1.41,0,0,1-1.41,1.41H454.07a1.42,1.42,0,0,1-1.41-1.41V291a1.41,1.41,0,0,1,1.41-1.4h40.37a1.41,1.41,0,0,1,1.41,1.4v6.42"/><path class="cls-2" d="M452.66,302.18c0-2.14,3.33-7.27,7.1-4.79s2.52,7.05,5,6.29,1.94-3.36,4.23-3.36c1.58,0,1.57,3.18,4,3.45s3.44-6.06,7-5c2.89.87,3.32,5,5.2,5s3.15-3.89,6.61,0"/><line class="cls-2" x1="452.66" y1="315.04" x2="469.99" y2="315.04"/><line class="cls-2" x1="452.66" y1="319.64" x2="469.99" y2="319.64"/><line class="cls-2" x1="452.66" y1="324.25" x2="463.64" y2="324.25"/><line class="cls-2" x1="476.35" y1="315.04" x2="493.85" y2="315.04"/><line class="cls-2" x1="476.35" y1="319.64" x2="493.85" y2="319.64"/><line class="cls-2" x1="476.35" y1="324.25" x2="487.43" y2="324.25"/><rect class="cls-1" x="487.43" y="256.63" width="26.51" height="18.89" rx="4.2"/><rect class="cls-2" x="487.43" y="256.63" width="26.51" height="18.89" rx="4.2"/><path class="cls-3" d="M506.09,266.68l-6.47,4.09a1.19,1.19,0,0,1-1.69,0v-9.46a1.19,1.19,0,0,1,1.69,0l6.47,3.69A1.2,1.2,0,0,1,506.09,266.68Z"/><rect class="cls-2" x="458.52" y="219.09" width="40.48" height="29.85" rx="7.38"/><polyline class="cls-2" points="458.52 241.56 476.66 226.65 484.3 237.63 513 219.09"/><polyline class="cls-2" points="506.25 216.43 516.35 216.43 514.09 225.82"/><rect class="cls-1" x="420.85" y="289.6" width="26.67" height="20.09" rx="1.41"/><rect class="cls-2" x="420.85" y="289.6" width="26.67" height="20.09" rx="1.41"/><path class="cls-3" d="M429,308.67a7.92,7.92,0,0,0,.05.85h10.66c0-.28,0-.56,0-.85,0-3.23-1.67-5.95-3.95-6.77a3.18,3.18,0,1,0-2.85,0C430.63,302.72,429,305.44,429,308.67Z"/><line class="cls-2" x1="447.52" y1="252.15" x2="447.52" y2="258.87"/><line class="cls-2" x1="450.88" y1="255.51" x2="444.15" y2="255.51"/><rect class="cls-4" width="523.11" height="394.52"/></g></g></svg>