<svg xmlns="http://www.w3.org/2000/svg" viewBox="0 0 478.02 130.79"><defs><style>.cls-1{fill:#b2ca6a;}</style></defs><title>star-3</title><g id="Camada_2" data-name="Camada 2"><g id="Camada_1-2" data-name="Camada 1"><path class="cls-1" d="M25.25,28.52a1.45,1.45,0,1,1-1.48-1.43A1.45,1.45,0,0,1,25.25,28.52Z"/><path class="cls-1" d="M114.39,29.3a2.06,2.06,0,1,1-2.11-2A2.06,2.06,0,0,1,114.39,29.3Z"/><circle class="cls-1" cx="1.74" cy="129.05" r="1.74" transform="translate(-104.69 56.05) rotate(-54.78)"/><path class="cls-1" d="M309.92,84.24a2.47,2.47,0,1,1-2.51-2.41A2.47,2.47,0,0,1,309.92,84.24Z"/><path class="cls-1" d="M258.7,41.56a1.41,1.41,0,1,1-1.44-1.38A1.41,1.41,0,0,1,258.7,41.56Z"/><path class="cls-1" d="M4.63,122.35c0,.14,2.47-1,3.59-1a1.1,1.1,0,0,1,1,.57c.81,1.29,1.55,2.72,1.75,2.67s-.69-2-.78-3.27a1.35,1.35,0,0,1,.47-1.37c1.06-.83,3.11-1.75,3-2.06s-2,.7-3.68,1a1.17,1.17,0,0,1-1.16-.5C8,117.24,7.29,115.4,7,115.43s.66,2.13.82,3.49a1.74,1.74,0,0,1-.25,1.3C7.12,120.78,4.59,122.06,4.63,122.35Z"/><path class="cls-1" d="M406.23,6.82a22,22,0,0,1-.41-2.64.76.76,0,0,1,.49-.66c1-.47,2.07-.87,2-1s-1.5.32-2.38.27c-.52,0-.75-.14-.93-.45-.5-.82-1-2.35-1.21-2.32s.32,1.5.37,2.7a.83.83,0,0,1-.46.78c-.85.48-2.22.86-2.22,1.05s1.57-.29,2.55-.28a1.21,1.21,0,0,1,.9.29C405.33,4.92,406,6.83,406.23,6.82Z"/><path class="cls-1" d="M467.19,5.44c-.28.45,1.25,1.62,2.19,3.18a3.2,3.2,0,0,1,.27,2.91c-.52,1.57-1.93,3.64-1.61,4.11s2.35-1.75,3.34-2.35a3.17,3.17,0,0,1,3.33-.18c1.72,1,2.9,1.9,3.26,1.63s-1.48-2.51-2.08-3.4-1.14-1.51-.48-2.84,2.67-3.87,2.34-4.34-2.5,1.75-4.07,2.78a2.59,2.59,0,0,1-2.8.28C469.34,6.67,467.4,5.12,467.19,5.44Z"/><path class="cls-1" d="M413.82,68.77c0,.39,1.36.62,2.5,1.32a2.3,2.3,0,0,1,1.17,1.79c.2,1.2,0,3,.36,3.22s.93-1.93,1.37-2.66a2.32,2.32,0,0,1,2.1-1.25c1.47.08,2.53.24,2.68-.06s-1.82-1.13-2.51-1.5S420.23,69,420.2,68s.41-3.43,0-3.62-1,2-1.69,3.2a1.9,1.9,0,0,1-1.73,1.13C415.63,68.83,413.84,68.49,413.82,68.77Z"/><path class="cls-1" d="M151.66,81.88c.19-.39-1.36-1.21-2.27-2.42a2.63,2.63,0,0,1-.49-2.36c.28-1.34,1.62-3.65,1.31-4s-2.13,2.12-2.89,2.71a2.62,2.62,0,0,1-2.73.44c-1.5-.68-2.55-1.29-2.83-1s1.45,1.93,2,2.61,1.08,1.14.66,2.3S142.9,83.6,143.21,84s1.6-1.73,2.79-2.72a2.14,2.14,0,0,1,2.28-.48C149.6,81.07,151.52,82.16,151.66,81.88Z"/><path class="cls-1" d="M253.73,94.57c-1.57.53-3.54,9.67-4.18,10s-.2-11.16-1.22-11.69-9.19-2.92-8-3.12c1.82-.29,7.82.82,9.45-.62s3.47-5.74,4.48-6.79c.8-.83-.32,6.58.28,7.41s8.16,4.25,7.33,4.86S255.05,94.12,253.73,94.57Z"/><path class="cls-1" d="M148,30.07c.63.64-.59,5.54-.36,5.86s2.76-5.37,3.38-5.38,5.16.77,4.61.38c-.81-.57-4-1.47-4.44-2.55s-.31-3.62-.55-4.37c-.19-.59-1.42,3.27-1.91,3.53s-5,.12-4.71.61S147.43,29.54,148,30.07Z"/></g></g></svg>
