<svg xmlns="http://www.w3.org/2000/svg" viewBox="0 0 518.45 392.19"><defs><style>.cls-1{fill:#b2ca6a;}.cls-2{fill:none;}</style></defs><title>stars-2</title><g id="Camada_2" data-name="Camada 2"><g id="Camada_1-2" data-name="Camada 1"><path class="cls-1" d="M115.12,51.67a1.85,1.85,0,1,1-1.89-1.81A1.85,1.85,0,0,1,115.12,51.67Z"/><path class="cls-1" d="M104.78,122.88a1.27,1.27,0,1,1-1.29-1.24A1.26,1.26,0,0,1,104.78,122.88Z"/><path class="cls-1" d="M492.53,31.91A1.48,1.48,0,1,1,491,30.46,1.5,1.5,0,0,1,492.53,31.91Z"/><path class="cls-1" d="M404.25,108.3a2.26,2.26,0,1,1-2.3-2.21A2.25,2.25,0,0,1,404.25,108.3Z"/><path class="cls-1" d="M186.81,6.92a1.27,1.27,0,1,1-1.29-1.24A1.27,1.27,0,0,1,186.81,6.92Z"/><path class="cls-1" d="M455.35,1.24A1.27,1.27,0,1,1,454.05,0,1.28,1.28,0,0,1,455.35,1.24Z"/><path class="cls-1" d="M402,75.93a1.83,1.83,0,1,1-1.87-1.79A1.83,1.83,0,0,1,402,75.93Z"/><path class="cls-1" d="M378.75,75.86a1.55,1.55,0,1,1-1.58-1.52A1.55,1.55,0,0,1,378.75,75.86Z"/><path class="cls-1" d="M448.63,40.62a2.19,2.19,0,1,1-2.23-2.14A2.19,2.19,0,0,1,448.63,40.62Z"/><path class="cls-1" d="M518.45,23.22A3.31,3.31,0,1,1,515.07,20,3.31,3.31,0,0,1,518.45,23.22Z"/><path class="cls-1" d="M336.92,24a2.47,2.47,0,1,1-2.52-2.41A2.46,2.46,0,0,1,336.92,24Z"/><path class="cls-1" d="M234.26,42a2,2,0,1,1-2-1.93A2,2,0,0,1,234.26,42Z"/><path class="cls-1" d="M285.24,33a1.69,1.69,0,1,1-1.73-1.65A1.69,1.69,0,0,1,285.24,33Z"/><path class="cls-1" d="M300.77,67.71a1.34,1.34,0,1,1-1.36-1.31A1.33,1.33,0,0,1,300.77,67.71Z"/><path class="cls-1" d="M194.64,121.33a1.27,1.27,0,1,1-1.29-1.24A1.27,1.27,0,0,1,194.64,121.33Z"/><path class="cls-1" d="M172.4,76.06a1.62,1.62,0,1,1-1.65-1.58A1.62,1.62,0,0,1,172.4,76.06Z"/><path class="cls-1" d="M382.52,6.05c-.2-.06-.08,4-.72,5.48a1.66,1.66,0,0,1-1.37,1c-2.22.34-4.61.52-4.64.81s3.16.26,4.89.87c1,.35,1.4.72,1.58,1.43.5,1.92.57,5.25,1,5.32.25,0,.22-3.16.85-5.57a1.72,1.72,0,0,1,1.35-1.29c2-.46,4.91-.39,5-.77s-3.29-.35-5.23-.94a2.53,2.53,0,0,1-1.62-1.1C383.2,10.36,382.94,6.17,382.52,6.05Z"/><path class="cls-1" d="M212.55,105.08c.14,0-.24-2.66.08-3.73a1.09,1.09,0,0,1,.83-.8c1.47-.4,3.06-.7,3.06-.9s-2.14.07-3.35-.21c-.71-.16-1-.38-1.17-.84-.48-1.26-.78-3.48-1.1-3.49s.09,2.13-.15,3.8a1.18,1.18,0,0,1-.81,1c-1.29.45-3.27.63-3.32.9s2.23,0,3.58.23a1.7,1.7,0,0,1,1.17.62C211.77,102.24,212.26,105,212.55,105.08Z"/><path class="cls-1" d="M311.86,65.15c.15,0-.24-2.87.11-4a1.17,1.17,0,0,1,.91-.85c1.58-.42,3.3-.72,3.31-.94s-2.31.05-3.61-.26c-.77-.18-1.07-.42-1.26-.92-.51-1.35-.81-3.76-1.15-3.77s.07,2.3-.2,4.09a1.24,1.24,0,0,1-.89,1c-1.39.48-3.52.66-3.58.94s2.41,0,3.86.29a1.83,1.83,0,0,1,1.26.68C311,62.07,311.54,65.1,311.86,65.15Z"/><path class="cls-1" d="M170.7,90.64a24,24,0,0,1,2.75-.55.86.86,0,0,1,.72.49,9.49,9.49,0,0,0,1.15,2.09c.2,0-.4-1.56-.39-2.48,0-.55.12-.79.43-1,.84-.55,2.42-1.13,2.37-1.36s-1.55.4-2.8.5a.87.87,0,0,1-.84-.44c-.54-.87-1-2.29-1.2-2.28s.37,1.63.41,2.66a1.27,1.27,0,0,1-.26,1C172.66,89.61,170.69,90.42,170.7,90.64Z"/><path class="cls-1" d="M379.85,67.75c.48.28,1.61-1.38,3.2-2.44a3.29,3.29,0,0,1,3-.43c1.66.46,3.89,1.82,4.36,1.46S388.48,64,387.8,63a3.28,3.28,0,0,1-.35-3.45c1-1.84,1.82-3.12,1.52-3.49s-2.54,1.68-3.43,2.35S384,59.66,382.6,59s-4.16-2.58-4.64-2.21,2,2.51,3.12,4.09a2.71,2.71,0,0,1,.42,2.9C381,65.46,379.5,67.56,379.85,67.75Z"/><path class="cls-1" d="M124.6,46.85c.47.22,1.41-1.65,2.83-2.77a3.14,3.14,0,0,1,2.81-.64c1.61.3,4.39,1.84,4.81,1.46s-2.59-2.49-3.31-3.38a3.12,3.12,0,0,1-.6-3.25c.78-1.81,1.48-3.08,1.17-3.4s-2.27,1.77-3.06,2.48-1.33,1.31-2.73.84-4.2-1.75-4.62-1.37,2.11,1.86,3.33,3.26a2.56,2.56,0,0,1,.62,2.71C125.51,44.38,124.26,46.69,124.6,46.85Z"/><rect class="cls-2" y="359.1" width="434.33" height="33.08"/></g></g></svg>