<svg xmlns="http://www.w3.org/2000/svg" viewBox="0 0 523.11 394.52"><defs><style type="text/css">.cls-1{fill:#b2ca6a;}.cls-2{fill:#2b3661;}.cls-3{fill:none;}</style></defs><title>Ativo 6</title><g id="Camada_2" data-name="Camada 2"><g id="Camada_1-2" data-name="Camada 1"><path class="cls-1" d="M183.12,144.89H193.3v-2a.85.85,0,0,1,.53-.78,14.29,14.29,0,1,0-11.21-.18.83.83,0,0,1,.5.77Z"/><path class="cls-2" d="M194.15,146.59H182.27a.85.85,0,0,1-.85-.85v-2.5a16,16,0,1,1,13.58.21v2.29A.85.85,0,0,1,194.15,146.59Zm-11-1.7H193.3v-2a.85.85,0,0,1,.53-.78,14.29,14.29,0,1,0-11.21-.18.83.83,0,0,1,.5.77Z"/><path class="cls-2" d="M194.49,150.11H182.37a.85.85,0,1,0,0,1.7h1.47l1.95,3.37h5.28l2-3.37h1.47a.85.85,0,1,0,0-1.7Z"/><path class="cls-2" d="M182.37,149.33h12.12a.85.85,0,1,0,0-1.7H182.37a.85.85,0,0,0,0,1.7Z"/><path class="cls-2" d="M189.65,146.46a.85.85,0,0,1-.85-.76,19.47,19.47,0,0,1,1.54-10.18,5.55,5.55,0,0,1-2.13-1.63,9.51,9.51,0,0,1-2.2,1.82,21.31,21.31,0,0,1,1.23,9.4.83.83,0,0,1-.93.75.85.85,0,0,1-.76-.93,20.14,20.14,0,0,0-1.13-8.59,5.08,5.08,0,0,1-4.25-1c-1.55-1.21-2.66-3.44-1.78-4.72.37-.54,1.33-1.25,3.56.1a9.54,9.54,0,0,1,3.3,3.42,7.85,7.85,0,0,0,1.89-1.63l.09-.1a11.44,11.44,0,0,1-.82-1.83c-.54-1.51-1.16-4.34-.09-5.37a3.1,3.1,0,0,1,4.24-.07c.63.6,2.27,2.83-1.23,7.39a4.15,4.15,0,0,0,1.81,1.44,10.53,10.53,0,0,1,4.46-4.34c1.64-.7,2.44,0,2.71.27a2.18,2.18,0,0,1,0,2.46,6.94,6.94,0,0,1-6.27,3.48,17.47,17.47,0,0,0-1.53,9.65.87.87,0,0,1-.76.94Zm-9.87-14.78a3.6,3.6,0,0,0,1.77,2.58,3.12,3.12,0,0,0,2,.49,7.77,7.77,0,0,0-2.53-2.54A3,3,0,0,0,179.78,131.68Zm17.17-.63a3.23,3.23,0,0,0-1.7.78,10,10,0,0,0-2.18,2.29,5.39,5.39,0,0,0,3.21-1.77,2.7,2.7,0,0,0,.7-1.3Zm-8.44-5a1.47,1.47,0,0,0-1,.41,7.94,7.94,0,0,0,.88,4.5c1.58-2.28,1.7-3.9,1-4.57A1.27,1.27,0,0,0,188.51,126.06Z"/><rect class="cls-3" width="523.11" height="394.52"/></g></g></svg>