<svg width="1049" height="711" viewBox="0 0 1049 711" fill="none" xmlns="http://www.w3.org/2000/svg">
<path d="M602.022 46.1433H375.033V198.312H602.022V46.1433Z" fill="white"/>
<path d="M602.022 198.295C602.022 198.295 602.022 197.353 602.022 195.537C602.022 193.721 602.022 191.014 602.022 187.499C602.022 180.47 602.022 170.128 601.938 156.911C601.938 130.476 601.837 92.4715 601.77 46.1433L602.089 46.4628L375.117 46.5469L375.521 46.1433C375.521 100.341 375.521 151.9 375.521 198.295L375.151 197.925L538.682 198.11L585.393 198.211H597.823H602.139H601.081H597.789H585.443L538.8 198.312L375.033 198.497H374.664V198.11C374.664 151.715 374.664 100.156 374.664 45.9583V45.7397H375.084L602.055 45.8238H602.374V46.1433C602.374 92.5556 602.257 130.627 602.206 157.129C602.206 170.313 602.206 180.672 602.122 187.65C602.122 191.131 602.122 193.805 602.122 195.621C602.122 197.437 602.022 198.295 602.022 198.295Z" fill="#E0E0E0"/>
<path d="M375.033 59.7138C375.033 59.4952 425.809 59.3103 488.427 59.3103C551.044 59.3103 601.837 59.4952 601.837 59.7138C601.837 59.9325 551.061 60.1342 488.427 60.1342C425.793 60.1342 375.033 59.9493 375.033 59.7138Z" fill="#E0E0E0"/>
<g opacity="0.3">
<path opacity="0.3" d="M383.986 52.8697C383.989 53.2336 383.884 53.5903 383.685 53.8943C383.485 54.1983 383.199 54.4358 382.864 54.5767C382.528 54.7175 382.159 54.7552 381.802 54.685C381.446 54.6148 381.118 54.4399 380.861 54.1825C380.604 53.9252 380.429 53.5971 380.359 53.2399C380.289 52.8828 380.326 52.5129 380.467 52.1773C380.608 51.8417 380.845 51.5556 381.149 51.3555C381.452 51.1553 381.808 51.0502 382.172 51.0536C382.41 51.0536 382.646 51.1005 382.866 51.1918C383.086 51.2831 383.286 51.4169 383.455 51.5855C383.623 51.7542 383.757 51.9544 383.848 52.1747C383.939 52.395 383.986 52.6312 383.986 52.8697Z" fill="#E0E0E0"/>
</g>
<g opacity="0.3">
<path opacity="0.3" d="M390.217 52.8697C390.221 53.2336 390.116 53.5903 389.916 53.8943C389.716 54.1983 389.43 54.4358 389.095 54.5767C388.76 54.7175 388.39 54.7552 388.034 54.685C387.677 54.6148 387.349 54.4399 387.092 54.1825C386.835 53.9252 386.66 53.5971 386.59 53.2399C386.52 52.8828 386.558 52.5129 386.698 52.1773C386.839 51.8417 387.076 51.5556 387.38 51.3555C387.684 51.1553 388.04 51.0502 388.403 51.0536C388.642 51.0536 388.878 51.1005 389.098 51.1918C389.318 51.2831 389.518 51.4169 389.686 51.5855C389.855 51.7542 389.988 51.9544 390.079 52.1747C390.17 52.395 390.217 52.6312 390.217 52.8697Z" fill="#E0E0E0"/>
</g>
<g opacity="0.3">
<path opacity="0.3" d="M396.399 52.8697C396.402 53.2336 396.297 53.5903 396.097 53.8943C395.897 54.1983 395.611 54.4358 395.276 54.5767C394.941 54.7175 394.572 54.7552 394.215 54.685C393.858 54.6148 393.53 54.4399 393.273 54.1825C393.016 53.9252 392.842 53.5971 392.771 53.2399C392.701 52.8828 392.739 52.5129 392.88 52.1773C393.02 51.8417 393.258 51.5556 393.561 51.3555C393.865 51.1553 394.221 51.0502 394.585 51.0536C395.066 51.0536 395.527 51.2449 395.867 51.5855C396.208 51.9261 396.399 52.388 396.399 52.8697Z" fill="#E0E0E0"/>
</g>
<path d="M455.103 75.5882H394.551V136.21H455.103V75.5882Z" fill="#E0E0E0"/>
<path d="M570.898 92.7238C570.898 92.9424 547.282 93.1274 518.157 93.1274C489.031 93.1274 465.416 92.9424 465.416 92.7238C465.416 92.5052 489.015 92.3202 518.157 92.3202C547.299 92.3202 570.898 92.4883 570.898 92.7238Z" fill="#E0E0E0"/>
<path d="M570.898 103.991C570.898 104.209 547.282 104.394 518.157 104.394C489.031 104.394 465.416 104.209 465.416 103.991C465.416 103.772 489.015 103.587 518.157 103.587C547.299 103.587 570.898 103.755 570.898 103.991Z" fill="#E0E0E0"/>
<path d="M570.898 115.257C570.898 115.476 547.282 115.661 518.157 115.661C489.031 115.661 465.416 115.476 465.416 115.257C465.416 115.039 489.015 114.854 518.157 114.854C547.299 114.854 570.898 115.022 570.898 115.257Z" fill="#E0E0E0"/>
<path d="M527.747 126.524C526.935 126.638 526.115 126.688 525.295 126.675L518.577 126.81C512.933 126.81 505.139 126.928 496.523 126.928C487.906 126.928 480.129 126.928 474.486 126.81L467.767 126.675C466.952 126.688 466.138 126.637 465.332 126.524C466.136 126.388 466.952 126.331 467.767 126.356L474.486 126.221C480.129 126.221 487.923 126.104 496.523 126.104C505.122 126.104 512.933 126.104 518.577 126.221L525.295 126.356C526.116 126.331 526.938 126.387 527.747 126.524Z" fill="#E0E0E0"/>
<path d="M426.784 156.642H398.33V185.128H426.784V156.642Z" fill="#E0E0E0"/>
<path d="M478.399 156.642H449.946V185.128H478.399V156.642Z" fill="#E0E0E0"/>
<path d="M529.998 156.642H501.545V185.128H529.998V156.642Z" fill="#E0E0E0"/>
<path d="M581.597 156.642H553.144V185.128H581.597V156.642Z" fill="#E0E0E0"/>
<path d="M180.731 53.2901L158.342 80.9357L180.731 53.2901Z" fill="white"/>
<path d="M825.869 513.512C827.548 513.159 841.238 576.001 839.457 600.451C837.677 624.902 825.869 709.84 825.869 709.84H769.281L759.203 589.622L761.118 709.84H685.198C685.198 709.84 667.595 627.206 670.736 602.217C673.877 577.228 690.59 511.41 690.59 511.41L825.869 513.512Z" fill="#263238"/>
<path d="M764.847 528.024C764.968 528.803 765.007 529.592 764.965 530.379C764.965 531.892 764.965 534.078 764.965 536.786C764.83 542.184 764.494 549.65 763.806 557.873C763.117 566.096 762.126 573.512 761.404 578.876C761.001 581.55 760.665 583.702 760.379 585.182C760.292 585.966 760.124 586.738 759.875 587.486C759.848 586.703 759.905 585.919 760.043 585.148C760.245 583.467 760.497 581.348 760.782 578.792C761.421 573.428 762.227 566.012 762.932 557.806C763.638 549.599 764.058 542.15 764.343 536.752C764.478 534.179 764.595 532.043 764.679 530.362C764.667 529.579 764.723 528.797 764.847 528.024Z" fill="#455A64"/>
<path d="M775.059 533.069C775.465 532.952 775.896 532.952 776.302 533.069C777.458 533.296 778.498 533.921 779.242 534.835C779.78 535.461 780.165 536.204 780.367 537.004C780.586 537.946 780.509 538.932 780.149 539.829C779.754 540.853 779.064 541.737 778.167 542.369C777.27 543 776.206 543.351 775.11 543.378C774.01 543.318 772.954 542.929 772.08 542.26C771.205 541.591 770.551 540.674 770.205 539.628C769.884 538.719 769.843 537.735 770.088 536.802C770.321 536.004 770.748 535.276 771.331 534.684C772.145 533.823 773.256 533.306 774.438 533.237C774.868 533.189 775.303 533.277 775.681 533.49C775.681 533.574 775.227 533.49 774.471 533.574C773.426 533.758 772.477 534.299 771.784 535.104C771.267 535.668 770.917 536.364 770.772 537.115C770.626 537.866 770.692 538.642 770.961 539.358C771.27 540.234 771.83 541 772.57 541.559C773.311 542.119 774.2 542.447 775.127 542.503C776.056 542.475 776.957 542.179 777.722 541.651C778.488 541.123 779.085 540.386 779.443 539.527C779.728 538.816 779.817 538.042 779.702 537.285C779.587 536.528 779.271 535.815 778.788 535.222C778.151 534.368 777.265 533.733 776.252 533.406C775.496 533.153 775.059 533.153 775.059 533.069Z" fill="#455A64"/>
<path d="M834.267 543.613C833.81 543.885 833.31 544.078 832.789 544.185C831.406 544.576 829.988 544.835 828.556 544.958C823.763 545.406 818.938 544.549 814.592 542.477C810.245 540.405 806.539 537.195 803.865 533.187C803.059 531.991 802.362 530.725 801.783 529.403C801.541 528.934 801.377 528.428 801.296 527.907C801.43 527.907 802.253 529.941 804.369 532.834C807.11 536.617 810.757 539.649 814.975 541.65C819.193 543.651 823.846 544.558 828.506 544.286C832.084 544.151 834.234 543.462 834.267 543.613Z" fill="#455A64"/>
<path d="M705.085 242.286C700.802 257.891 694.318 270.402 688.003 276.675C681.687 282.947 674.902 290.313 675.137 299.208C675.221 302.706 676.397 306.422 674.868 309.567C672.886 313.67 667.595 314.612 663.631 316.781C660.77 318.558 658.438 321.072 656.878 324.059C655.318 327.047 654.587 330.399 654.763 333.765C655.244 340.552 658.239 346.915 663.161 351.607C668.066 356.568 675.859 360.015 681.973 356.652C685.668 354.617 687.768 350.615 689.615 346.831C699.257 327.224 707.974 307.201 715.768 286.764" fill="#263238"/>
<path d="M744.49 175.459C749.949 169.394 757.124 165.136 765.06 163.253C772.995 161.37 781.315 161.95 788.913 164.917C796.511 167.883 803.027 173.095 807.594 179.86C812.162 186.624 814.563 194.62 814.481 202.785C814.38 213.245 810.282 224.192 814.481 233.794C817.403 240.52 824.155 245.716 825.079 253.048C826.154 261.557 818.881 269.276 819.268 277.852C819.52 283.435 823.013 288.379 827.044 292.263C831.076 296.148 835.762 299.343 839.457 303.547C849.736 315.318 850.392 333.681 842.632 347.168C834.872 360.654 819.872 369.113 804.436 370.946C789 372.779 773.262 368.507 759.59 361.091C750.688 356.248 742.34 349.875 737.032 341.232C731.724 332.588 729.927 321.389 734.109 312.14" fill="#263238"/>
<path d="M777.31 305.716C777.31 305.716 812.163 316.007 815.556 321.54C818.949 327.072 829.883 391.814 829.883 391.814L808.484 468.109C808.484 468.109 826.171 496.696 827.061 511.04C787.522 536.584 742.894 529.42 696.2 508.955L692.84 434.342L688.389 315.167L717.162 305.077L777.31 305.716Z" fill="#E0E0E0"/>
<path d="M816.043 483.529C815.618 483.57 815.191 483.57 814.766 483.529L811.105 483.277L797.668 482.218L753.325 478.333L709.016 474.213L695.578 472.851L691.934 472.447L690.657 472.246C691.081 472.198 691.509 472.198 691.934 472.246L695.595 472.498L709.032 473.574L753.375 477.442L797.684 481.579L811.122 482.924L814.766 483.344C815.197 483.359 815.625 483.421 816.043 483.529Z" fill="#E8505B"/>
<path d="M775.177 399.466C775.177 399.718 759.875 399.903 740.996 399.903C722.117 399.903 706.798 399.718 706.798 399.466C706.798 399.213 722.1 399.028 740.996 399.028C759.892 399.028 775.177 399.23 775.177 399.466Z" fill="#E8505B"/>
<path d="M821.183 348.278C820.284 348.433 819.374 348.517 818.462 348.53L811.054 348.95C804.806 349.303 796.173 349.825 786.649 350.632C777.125 351.439 768.509 352.179 762.26 352.784L754.887 353.491C753.986 353.618 753.076 353.675 752.166 353.659C753.039 353.41 753.933 353.241 754.836 353.154C756.516 352.902 759.086 352.549 762.193 352.179C768.425 351.405 777.041 350.497 786.582 349.757C796.122 349.017 804.772 348.614 811.038 348.429C814.162 348.328 816.698 348.278 818.445 348.278C819.356 348.199 820.272 348.199 821.183 348.278Z" fill="#E8505B"/>
<path d="M815.556 321.54L850.509 416.5L874.025 369.701L904.678 376.007L887.025 449.746C886.134 456.136 883.288 462.093 878.879 466.799C874.47 471.506 868.714 474.73 862.401 476.029C857.095 477.129 851.595 476.826 846.441 475.152C841.287 473.477 836.657 470.488 833.008 466.478L822.023 454.421L815.556 321.54Z" fill="#E0E0E0"/>
<path d="M849.787 476.483C849.621 475.704 849.536 474.909 849.535 474.112C849.434 472.565 849.317 470.345 849.233 467.604C849.031 462.089 848.964 454.488 849.233 446.097C849.502 437.705 850.006 430.104 850.509 424.622C850.778 421.881 851.013 419.662 851.215 418.148C851.26 417.347 851.39 416.552 851.601 415.777C851.667 416.577 851.667 417.382 851.601 418.182C851.484 419.863 851.349 422.05 851.181 424.673C850.829 430.155 850.409 437.739 850.157 446.113C849.905 454.488 849.905 462.089 849.922 467.587C849.922 470.211 849.922 472.397 849.922 474.095C849.956 474.894 849.911 475.694 849.787 476.483Z" fill="#E8505B"/>
<path d="M894.97 418.552C894.886 418.77 886.286 415.71 875.771 411.708C865.257 407.705 856.808 404.292 856.892 404.056C856.976 403.821 865.576 406.898 876.091 410.901C886.605 414.903 895.054 418.316 894.97 418.552Z" fill="#E8505B"/>
<path d="M912.001 365.144L897.288 375.99L880.961 371.988L884.875 367.633L912.001 365.144Z" fill="#FFBE9D"/>
<path d="M965.196 232.97L846.159 284.612L846.73 319.152L833.259 333.278L878.744 373.989L892.03 359.107L927.421 354.146L965.196 232.97Z" fill="#FAFAFA"/>
<path d="M965.196 232.987L927.807 354.264V354.499H927.555L892.165 359.544L892.417 359.41L879.131 374.292L878.845 374.611L878.526 374.326L855.313 353.558L833.041 333.631L832.705 333.328L833.024 333.008L846.461 318.883L846.344 319.186C846.142 307.229 845.957 295.643 845.79 284.645V284.376L846.025 284.259L965.28 233.003L846.394 284.999L846.646 284.629C846.831 295.677 847.033 307.213 847.251 319.169V319.337L847.133 319.472L833.696 333.597V332.975L855.968 352.902L879.181 373.67H878.576L891.862 358.787L891.963 358.67H892.131L927.521 353.726L927.202 354.012C949.491 282.846 964.121 236.35 965.196 232.987Z" fill="#263238"/>
<path d="M916.906 317.571C914.444 320.329 911.221 322.294 907.644 323.218C904.067 324.141 900.296 323.982 896.809 322.761C893.322 321.539 890.276 319.309 888.055 316.354C885.833 313.398 884.538 309.85 884.331 306.157C884.124 302.465 885.016 298.793 886.893 295.608C888.771 292.423 891.549 289.866 894.878 288.262C898.207 286.658 901.936 286.078 905.593 286.595C909.251 287.113 912.674 288.705 915.428 291.17C917.258 292.805 918.748 294.786 919.814 296.998C920.879 299.211 921.497 301.612 921.635 304.064C921.772 306.516 921.425 308.971 920.614 311.289C919.802 313.607 918.542 315.742 916.906 317.571Z" fill="#263238"/>
<path d="M965.196 232.97C965.381 233.138 951.608 249.416 934.425 269.326C917.242 289.236 903.166 305.279 902.982 305.111C902.797 304.942 916.57 288.681 933.753 268.754C950.936 248.827 965.028 232.818 965.196 232.97Z" fill="#263238"/>
<path d="M598.477 644.795C592.615 639.546 589.066 632.187 588.603 624.327C588.14 616.466 590.803 608.742 596.008 602.839L819.839 349.27L864.232 388.989L640.62 642.374C638.018 645.313 634.861 647.708 631.331 649.421C627.801 651.135 623.968 652.133 620.052 652.358C616.135 652.583 612.213 652.031 608.51 650.733C604.808 649.435 601.398 647.417 598.477 644.795Z" fill="#40784C"/>
<path d="M832.487 327.936L816.279 346.091L868.476 392.798L884.684 374.644L832.487 327.936Z" fill="#29A863"/>
<path d="M973.29 232.778L963.351 224.44L955.023 234.391L964.962 242.728L973.29 232.778Z" fill="#5071E8"/>
<path opacity="0.3" d="M819.839 349.27L864.232 388.989L858.236 395.783L817.706 351.691L819.839 349.27Z" fill="black"/>
<path opacity="0.5" d="M846.814 340.744V372.526L853.264 379.185V346.512L846.814 340.744Z" fill="white"/>
<path d="M900.076 325.912L916.368 332.437L919.845 345.57L912.052 365.144L883.262 369.331L891.661 360.705L890.586 353.188C890.586 353.188 882.54 350.665 882.355 349.438C882.171 348.21 883.346 344.09 884.573 343.889C885.799 343.687 894.231 346.831 894.231 346.831C894.231 346.831 884.27 338.928 884.539 337.65C884.808 336.372 885.899 333.143 887.898 332.773C889.897 332.403 905.971 340.021 905.971 340.021L908.592 345.974L910.876 336.439C910.876 336.439 896.532 332.42 900.076 325.912Z" fill="#FFBE9D"/>
<path d="M898.027 356.736C898.111 356.736 898.413 356.164 898.564 355.054C898.731 353.665 898.564 352.255 898.08 350.943C897.595 349.63 896.805 348.451 895.776 347.504C894.97 346.798 894.348 346.529 894.298 346.63C895.531 347.998 896.54 349.553 897.288 351.237C897.814 353.021 898.063 354.876 898.027 356.736Z" fill="#EB996E"/>
<path d="M905.77 353.877C905.455 352.47 905.236 351.043 905.115 349.606C905.052 348.001 904.775 346.412 904.292 344.881C903.985 343.94 903.474 343.079 902.797 342.358C902.043 341.613 901.138 341.039 900.143 340.677C896.246 339.264 892.736 338.121 890.166 337.313C888.798 336.801 887.387 336.413 885.95 336.153C887.227 336.851 888.572 337.414 889.964 337.835C892.467 338.793 895.994 340.054 899.824 341.433C900.712 341.756 901.525 342.26 902.209 342.913C902.808 343.553 903.27 344.309 903.569 345.133C904.054 346.601 904.375 348.118 904.527 349.656C904.565 351.148 904.994 352.603 905.77 353.877Z" fill="#EB996E"/>
<path d="M909.499 350.934C909.734 350.934 909.683 349.455 909.398 347.723C909.112 345.991 908.692 344.612 908.457 344.645C908.223 345.708 908.258 346.812 908.558 347.857C908.86 349.589 909.264 350.968 909.499 350.934Z" fill="#EB996E"/>
<path d="M787.27 467.487C787.27 467.487 813.406 458.507 814.01 458.204C814.615 457.901 832.487 449.611 830.941 444.751C830.941 444.751 835.98 440.732 834.469 438.462L827.313 441.472C827.313 441.472 837.391 434.914 835.712 428.995C835.712 428.995 836.753 426.994 835.712 425.766C834.67 424.538 829.379 428.255 825.499 430.609L817.974 433.653C814.683 434.972 811.045 435.143 807.645 434.14C806.85 433.912 806.174 433.387 805.755 432.673C805.336 431.96 805.207 431.112 805.394 430.306C806.814 424.485 806.623 418.386 804.84 412.666C804.84 412.666 802.992 413.339 801.699 417.358C800.019 422.537 794.896 426.506 793.015 429.92L788.933 437.268C788.411 438.21 787.705 439.036 786.856 439.698C786.008 440.359 785.035 440.843 783.995 441.119L785.792 454.757L787.27 467.487Z" fill="#FFBE9D"/>
<path d="M815.606 442.784C815.913 442.733 816.212 442.642 816.496 442.515C817.067 442.296 817.891 441.977 818.882 441.539C821.471 440.371 823.969 439.011 826.356 437.47C828.723 435.916 830.969 434.185 833.075 432.291C833.881 431.567 834.519 430.945 834.939 430.508C835.17 430.295 835.378 430.058 835.56 429.802C835.56 429.802 835.275 429.987 834.821 430.39C834.368 430.794 833.713 431.366 832.873 432.072C830.737 433.888 828.494 435.572 826.154 437.117C823.787 438.647 821.331 440.034 818.798 441.27L816.463 442.363C816.166 442.48 815.88 442.621 815.606 442.784Z" fill="#EB996E"/>
<path d="M816.06 447.997C816.733 447.861 817.384 447.628 817.991 447.307C819.493 446.681 820.947 445.945 822.341 445.104C823.739 444.26 825.085 443.334 826.373 442.33C826.93 441.951 827.442 441.511 827.901 441.018C827.817 440.9 825.348 442.7 822.123 444.734C820.443 445.71 818.982 446.5 817.874 447.038C817.239 447.297 816.631 447.618 816.06 447.997Z" fill="#EB996E"/>
<path d="M815.824 454.252C816.674 454.029 817.496 453.713 818.277 453.311C820.21 452.441 822.079 451.435 823.87 450.301C825.649 449.149 827.364 447.903 829.01 446.567C829.703 446.035 830.349 445.444 830.941 444.802C830.194 445.26 829.482 445.771 828.808 446.332C827.515 447.29 825.718 448.602 823.635 449.931C821.552 451.259 819.587 452.302 818.142 453.042C817.345 453.395 816.57 453.799 815.824 454.252Z" fill="#EB996E"/>
<path d="M787.27 467.487L690.338 496.662C679.407 491.706 670.286 483.469 664.237 473.093C658.188 462.717 655.511 450.714 656.577 438.748C659.617 404.443 663.665 359.309 664.857 347.941C666.839 329.057 688.457 315.15 688.457 315.15C718.203 317.084 711.602 375.957 711.602 375.957L699.643 443.675L783.928 440.312L787.27 467.487Z" fill="#E0E0E0"/>
<path d="M699.626 443.725C699.583 442.821 699.623 441.915 699.744 441.018C699.845 439.336 700.13 436.764 700.483 433.669C701.255 427.481 702.566 418.972 704.296 409.622C706.026 400.273 707.789 391.865 709.15 385.777C709.839 382.75 710.41 380.295 710.83 378.597C711.005 377.713 711.258 376.847 711.585 376.007C711.52 376.909 711.38 377.803 711.165 378.681C710.813 380.531 710.326 382.969 709.755 385.912C708.545 392.016 706.882 400.458 705.152 409.791C703.422 419.124 702.028 427.599 701.104 433.754C700.684 436.713 700.348 439.168 700.08 441.052C699.995 441.953 699.844 442.847 699.626 443.725Z" fill="#263238"/>
<path d="M783.911 440.329C783.618 440.425 783.312 440.476 783.004 440.48L780.367 440.699C778.083 440.867 774.774 441.085 770.659 441.287C762.462 441.708 751.141 442.111 738.628 442.464L706.58 443.389L696.872 443.692H694.218C693.911 443.734 693.6 443.734 693.294 443.692C693.598 443.623 693.907 443.578 694.218 443.557L696.855 443.339C699.139 443.171 702.448 442.952 706.546 442.75C714.743 442.33 726.081 441.926 738.594 441.573L770.642 440.648L780.35 440.345H782.987C783.294 440.314 783.603 440.309 783.911 440.329Z" fill="#263238"/>
<path d="M703.288 418.047C702.697 418.121 702.099 418.121 701.507 418.047L696.687 417.694C692.605 417.375 686.978 416.988 680.747 416.719C674.515 416.45 668.872 416.383 664.79 416.349H659.936C659.34 416.389 658.741 416.35 658.156 416.231C658.739 416.091 659.336 416.017 659.936 416.013C661.078 415.929 662.724 415.844 664.773 415.777C668.872 415.659 674.532 415.643 680.78 415.895C687.029 416.147 692.672 416.652 696.737 417.122C698.77 417.358 700.416 417.577 701.541 417.761C702.134 417.777 702.721 417.873 703.288 418.047Z" fill="#E8505B"/>
<path d="M711.585 371.316C711.585 371.551 700.584 371.316 687.062 370.727C673.541 370.138 662.556 369.499 662.556 369.264C662.556 369.029 673.558 369.264 687.096 369.853C700.634 370.441 711.602 371.08 711.585 371.316Z" fill="#E8505B"/>
<path d="M665.63 474.297C665.876 473.738 666.192 473.212 666.571 472.733C667.209 471.758 668.25 470.396 669.493 468.765C676.234 460.219 684.324 452.835 693.445 446.904C695.125 445.76 696.636 444.903 697.661 444.348C698.185 444.015 698.75 443.749 699.341 443.557C699.341 443.675 697.224 445.037 693.831 447.408C689.41 450.497 685.191 453.867 681.2 457.498C677.225 461.148 673.483 465.046 669.997 469.168C667.293 472.313 665.748 474.381 665.63 474.297Z" fill="#E8505B"/>
<path d="M735.201 483.529C734.966 483.529 733.32 474.448 731.556 463.165C729.793 451.881 728.533 442.716 728.768 442.683C729.003 442.649 730.633 451.747 732.413 463.03C734.193 474.314 735.436 483.495 735.201 483.529Z" fill="#E8505B"/>
<g opacity="0.3">
<path opacity="0.3" d="M689.733 496.662L798.323 463.669C790.176 474.381 774.337 484.387 762.378 490.575C750.419 496.763 737.637 501.102 724.905 505.424C717.968 507.778 710.897 510.166 703.573 510.098C696.25 510.031 689.145 507.946 685.299 501.69L689.733 496.662Z" fill="black"/>
</g>
<path d="M708.461 217.213C709.429 214.816 709.561 212.163 708.835 209.682C708.11 207.201 706.569 205.038 704.464 203.542C702.287 202.145 699.729 201.465 697.148 201.598C694.566 201.731 692.091 202.669 690.069 204.282C688.112 205.971 686.683 208.189 685.953 210.67C685.223 213.152 685.224 215.791 685.954 218.273C686.861 221.242 688.748 223.815 691.306 225.57C693.864 227.325 696.942 228.159 700.035 227.934C703.129 227.71 706.054 226.44 708.332 224.333C710.611 222.227 712.107 219.408 712.576 216.339" fill="#263238"/>
<path d="M724.687 188.828V196.765L723.007 315.688C722.805 329.477 734.513 340.643 749.277 340.744C764.192 340.845 776.621 329.628 777.041 315.688C777.495 301.058 778.234 285.654 778.234 285.654C778.234 285.654 797.147 283.048 801.749 258.547C804.017 246.372 803.949 226.294 803.429 209.881C803.308 206.377 802.48 202.934 800.994 199.759C799.509 196.583 797.397 193.742 794.785 191.406C792.174 189.069 789.117 187.286 785.799 186.164C782.481 185.042 778.971 184.604 775.479 184.876L724.687 188.828Z" fill="#FFBE9D"/>
<path d="M794.98 224.192C794.963 225.016 794.625 225.8 794.038 226.378C793.451 226.956 792.662 227.282 791.839 227.286C791.439 227.306 791.038 227.246 790.662 227.109C790.285 226.972 789.939 226.761 789.645 226.489C789.35 226.216 789.114 225.887 788.948 225.522C788.783 225.156 788.692 224.761 788.681 224.36C788.695 223.538 789.029 222.753 789.613 222.175C790.197 221.596 790.984 221.27 791.806 221.266C792.207 221.245 792.608 221.305 792.986 221.442C793.364 221.579 793.711 221.79 794.006 222.062C794.302 222.334 794.54 222.663 794.707 223.029C794.875 223.394 794.967 223.79 794.98 224.192Z" fill="#263238"/>
<path d="M798.659 220.19C798.255 220.593 795.921 218.76 792.528 218.676C789.135 218.592 786.599 220.223 786.246 219.786C786.078 219.601 786.498 218.878 787.59 218.104C789.087 217.133 790.846 216.646 792.629 216.709C794.384 216.739 796.084 217.328 797.483 218.39C798.524 219.265 798.86 220.021 798.659 220.19Z" fill="#263238"/>
<path d="M761.79 223.872C761.777 224.695 761.442 225.479 760.858 226.057C760.274 226.636 759.487 226.962 758.666 226.966C758.265 226.987 757.863 226.927 757.486 226.79C757.108 226.653 756.761 226.443 756.465 226.17C756.17 225.898 755.932 225.569 755.764 225.203C755.597 224.838 755.504 224.442 755.491 224.04C755.509 223.218 755.844 222.434 756.427 221.854C757.009 221.274 757.794 220.942 758.616 220.929C759.018 220.909 759.421 220.97 759.8 221.107C760.179 221.245 760.526 221.457 760.822 221.731C761.118 222.006 761.356 222.336 761.522 222.704C761.688 223.072 761.779 223.469 761.79 223.872Z" fill="#263238"/>
<path d="M765.318 219.904C764.914 220.307 762.563 218.474 759.187 218.39C755.811 218.306 753.258 219.937 752.905 219.5C752.552 219.063 753.14 218.592 754.249 217.818C755.745 216.846 757.505 216.359 759.288 216.423C761.047 216.458 762.751 217.047 764.159 218.104C765.183 218.979 765.519 219.736 765.318 219.904Z" fill="#263238"/>
<path d="M776.924 245.414C778.732 244.915 780.592 244.633 782.467 244.573C783.323 244.573 784.146 244.354 784.314 243.782C784.41 242.888 784.234 241.986 783.81 241.193L781.425 234.466C778.066 224.965 775.765 217.179 776.151 217.045C776.537 216.91 779.51 224.511 782.87 233.996C783.659 236.35 784.415 238.569 785.137 240.722C785.638 241.769 785.762 242.957 785.49 244.085C785.356 244.388 785.155 244.656 784.901 244.869C784.648 245.081 784.35 245.233 784.029 245.313C783.545 245.429 783.048 245.485 782.551 245.481C780.68 245.702 778.789 245.679 776.924 245.414Z" fill="#263238"/>
<path d="M778.167 285.654C766.59 285.508 755.281 282.149 745.498 275.952C745.498 275.952 753.022 293.07 777.663 291.456L778.167 285.654Z" fill="#EB996E"/>
<path d="M775.261 253.553C774.637 252.724 773.814 252.068 772.868 251.644C771.922 251.221 770.885 251.044 769.852 251.131C769.101 251.178 768.367 251.376 767.695 251.714C767.022 252.052 766.425 252.523 765.939 253.099C765.471 253.652 765.184 254.336 765.118 255.058C765.052 255.78 765.21 256.505 765.569 257.134C766.093 257.76 766.793 258.213 767.578 258.435C768.363 258.657 769.196 258.637 769.97 258.379C771.593 257.867 773.096 257.032 774.387 255.924C774.773 255.66 775.109 255.33 775.378 254.948C775.501 254.758 775.567 254.536 775.567 254.309C775.567 254.083 775.501 253.861 775.378 253.67" fill="#EB996E"/>
<path d="M766.879 247.499C767.434 247.499 767.333 251.165 770.423 253.855C773.514 256.546 777.428 256.26 777.444 256.781C777.444 257.017 776.554 257.471 774.891 257.471C772.737 257.447 770.66 256.661 769.029 255.251C767.461 253.89 766.479 251.973 766.292 249.904C766.191 248.373 766.628 247.465 766.879 247.499Z" fill="#263238"/>
<path d="M766.56 206.636C766.191 207.544 762.831 207.006 758.834 207.376C754.836 207.746 751.595 208.755 751.091 207.897C750.872 207.51 751.444 206.653 752.77 205.795C754.522 204.726 756.503 204.092 758.548 203.945C760.588 203.746 762.646 204.046 764.545 204.82C765.922 205.442 766.711 206.199 766.56 206.636Z" fill="#263238"/>
<path d="M797.684 210.335C797.063 211.092 794.745 210.218 791.94 210.117C789.135 210.016 786.75 210.487 786.212 209.663C785.994 209.259 786.38 208.502 787.438 207.796C788.862 206.97 790.496 206.581 792.138 206.676C793.78 206.772 795.359 207.349 796.676 208.334C797.651 209.158 797.953 209.965 797.684 210.335Z" fill="#263238"/>
<path d="M755.575 181.042C762.143 189.786 755.307 202.146 747.748 210.049C740.19 217.953 730.952 227.084 733.035 237.83C735.42 250.273 752.435 258.244 749.831 270.671C748.924 275.212 745.346 279.079 745.33 283.704C745.33 292.112 756.096 296.114 759.204 303.883C763.453 314.511 751.746 325.105 751.578 336.54C751.477 343.048 755.156 349.102 755.34 355.593C755.743 368.911 740.022 378.647 727.139 375.385C714.256 372.123 705.455 359.494 702.666 346.411C699.878 333.328 704.111 315.099 706.194 301.949L683.854 307.129C679.706 303.16 685.383 298.939 686.323 293.255C688.675 279.029 698.081 266.972 702.465 253.25C706.362 241.26 706.378 228.413 708.075 215.918C709.771 203.424 713.651 190.391 723.192 182.152C732.732 173.912 749.226 172.886 756.936 182.858" fill="#263238"/>
<path d="M705.455 221.451C708.711 221.956 712.017 222.052 715.297 221.737C723.195 220.612 730.608 217.252 736.662 212.051C742.648 206.771 747.901 200.714 752.283 194.041L756.382 188.037C756.847 187.272 757.375 186.546 757.96 185.868C757.594 186.687 757.162 187.474 756.667 188.222C755.777 189.685 754.484 191.821 752.787 194.394C748.517 201.226 743.278 207.4 737.234 212.723C731.069 218.029 723.469 221.382 715.398 222.359C712.962 222.6 710.505 222.515 708.092 222.107C707.435 221.997 706.784 221.851 706.143 221.669C705.905 221.626 705.674 221.552 705.455 221.451Z" fill="#455A64"/>
<path d="M734.613 224.747C733.553 225.764 732.34 226.609 731.019 227.252C727.882 228.956 724.471 230.094 720.941 230.615C717.435 231.14 713.863 231.037 710.393 230.313C708.937 230.091 707.529 229.624 706.227 228.934C706.227 228.799 707.907 229.287 710.494 229.707C717.357 230.775 724.382 229.743 730.649 226.748C733.152 225.554 734.529 224.612 734.613 224.747Z" fill="#455A64"/>
<path d="M814.464 208.2C811.775 208.229 809.129 207.519 806.816 206.146C804.503 204.773 802.61 202.79 801.346 200.414C803.124 202.309 805.107 204.001 807.258 205.459C809.556 206.627 811.971 207.546 814.464 208.2Z" fill="#455A64"/>
<path d="M812.952 216.49C811.455 217.091 809.792 217.133 808.266 216.608C806.674 216.355 805.225 215.537 804.185 214.304C804.336 214.085 806.083 215.178 808.484 215.767C810.886 216.355 812.952 216.238 812.952 216.49Z" fill="#455A64"/>
<path d="M707.336 226.798C706.495 224.167 706.254 221.38 706.63 218.642C706.725 215.879 707.455 213.174 708.764 210.739C709.016 210.823 707.873 214.287 707.504 218.727C707.134 223.166 707.605 226.765 707.336 226.798Z" fill="#E8505B"/>
<path d="M475.174 510.721C473.495 510.351 459.94 574.117 461.737 598.904C463.534 623.691 475.174 709.89 475.174 709.89H614.451C614.451 709.89 631.869 626.045 628.762 600.586C625.654 575.126 609.127 508.417 609.127 508.417L475.174 510.721Z" fill="#263238"/>
<path d="M457.353 390.133L437.449 300.419L436.307 285.57C436.307 285.57 431.671 252.241 431.671 249.029C431.671 245.262 429.807 244.388 428.43 244.489C426.263 244.657 424.768 247.331 424.701 250.559C424.701 251.686 425.003 269.309 425.003 269.309C423.973 267.647 422.816 266.068 421.543 264.584C418.906 261.221 412.775 259.539 406.51 259.758C400.245 259.976 398.498 260.666 398.498 263.121C398.518 263.583 398.642 264.034 398.86 264.442C399.078 264.85 399.385 265.203 399.758 265.475C400.923 266.434 402.4 266.931 403.907 266.871C413.985 266.568 416.722 271.916 416.722 271.916L416.874 273.866C416.874 273.866 410.709 269.561 405.872 271.462C405.153 271.73 404.496 272.142 403.94 272.672C402.575 272.696 401.239 273.075 400.064 273.771C398.889 274.468 397.915 275.458 397.237 276.645C396.56 277.832 396.202 279.175 396.199 280.542C396.197 281.91 396.549 283.254 397.222 284.444C397.487 285.054 397.934 285.568 398.503 285.914C399.071 286.261 399.732 286.422 400.396 286.378C401.039 286.16 401.616 285.784 402.076 285.285C402.35 285.031 402.648 284.806 402.966 284.612L404.159 289.993C404.159 289.993 407.518 301.949 408.307 307.314L413.632 396.237C413.792 399.19 414.543 402.08 415.841 404.737C417.138 407.394 418.955 409.763 421.185 411.703C423.414 413.643 426.01 415.115 428.818 416.032C431.627 416.948 434.59 417.29 437.533 417.038C440.693 416.796 443.763 415.874 446.535 414.337C449.307 412.799 451.715 410.682 453.596 408.129C455.477 405.575 456.786 402.646 457.435 399.541C458.083 396.435 458.055 393.226 457.353 390.133Z" fill="#FFBE9D"/>
<path d="M434.544 299.326C433.596 299.468 432.628 299.309 431.776 298.871C430.923 298.434 430.229 297.74 429.79 296.888C428.782 295.206 428.346 293.356 427.455 291.658C424.768 286.613 418.419 284.242 415.983 279.046C415.647 278.323 415.463 277.364 416.084 276.843C416.706 276.322 417.512 276.742 418.167 277.095L434.846 286.092" fill="#FFBE9D"/>
<path d="M434.846 286.024C434.34 285.565 433.775 285.174 433.166 284.864C432.041 284.191 430.395 283.183 428.329 282.056L421.09 278.02L419.007 276.876C418.223 276.273 417.234 276.001 416.252 276.12C415.957 276.233 415.699 276.427 415.509 276.679C415.319 276.932 415.204 277.234 415.177 277.549C415.152 278.076 415.256 278.602 415.479 279.079C415.872 279.926 416.356 280.727 416.924 281.467C419.259 284.427 422.232 286.277 424.398 288.429C425.457 289.405 426.358 290.54 427.069 291.792C427.707 292.953 428.11 294.18 428.614 295.273C428.925 296.198 429.433 297.044 430.103 297.752C430.773 298.461 431.589 299.015 432.494 299.376C432.827 299.515 433.187 299.578 433.547 299.56C433.907 299.543 434.259 299.446 434.577 299.275C433.92 299.291 433.266 299.189 432.646 298.973C431.838 298.581 431.121 298.024 430.543 297.338C429.964 296.651 429.536 295.85 429.286 294.987C428.85 293.911 428.48 292.65 427.825 291.355C427.102 290.013 426.172 288.793 425.07 287.74C422.853 285.453 419.897 283.569 417.747 280.828C417.233 280.161 416.794 279.439 416.437 278.676C416.101 277.953 416.135 277.23 416.554 277.146C416.974 277.061 417.764 277.398 418.469 277.801L420.586 278.911L427.943 282.745C430.042 283.822 431.739 284.679 432.981 285.251C433.565 285.592 434.192 285.852 434.846 286.024Z" fill="#EB996E"/>
<path d="M417.159 273.934C417.011 272.739 416.604 271.591 415.967 270.57C415.197 269.529 414.113 268.763 412.876 268.384C411.334 267.926 409.731 267.71 408.123 267.745C406.435 267.794 404.746 267.67 403.084 267.375C401.704 267.104 400.419 266.478 399.355 265.559C398.996 265.237 398.717 264.835 398.542 264.385C398.367 263.935 398.3 263.45 398.347 262.97C398.349 262.619 398.461 262.278 398.666 261.994C398.666 261.994 398.666 262.364 398.666 262.986C398.673 263.412 398.773 263.832 398.959 264.215C399.144 264.599 399.411 264.937 399.741 265.206C400.768 265.997 401.974 266.523 403.252 266.736C404.857 266.986 406.482 267.093 408.106 267.056C409.815 267.003 411.52 267.248 413.145 267.779C414.488 268.228 415.642 269.117 416.42 270.301C416.931 271.093 417.232 272.001 417.294 272.942C417.336 273.278 417.289 273.62 417.159 273.934Z" fill="#EB996E"/>
<path d="M424.802 249.315C424.936 250.481 424.965 251.658 424.886 252.83V261.238C424.886 264.399 424.886 267.275 425.02 269.646C425.107 270.81 425.107 271.979 425.02 273.143C424.725 272.006 424.567 270.837 424.55 269.662C424.382 267.51 424.247 264.517 424.231 261.254C424.214 257.992 424.231 254.965 424.432 252.846C424.416 251.659 424.54 250.473 424.802 249.315Z" fill="#EB996E"/>
<path d="M413.195 277.953C412.839 277.866 412.495 277.736 412.171 277.566C411.751 277.362 411.295 277.248 410.829 277.231C410.364 277.213 409.899 277.293 409.466 277.465C409.203 277.611 408.981 277.822 408.823 278.078C408.664 278.334 408.573 278.627 408.559 278.928C408.541 279.696 408.609 280.463 408.761 281.215C408.968 282.151 408.83 283.13 408.375 283.973C408.072 284.404 407.673 284.758 407.209 285.006C406.745 285.254 406.23 285.39 405.704 285.402C405.187 285.404 404.674 285.3 404.198 285.098C403.722 284.896 403.291 284.599 402.933 284.225C402.258 283.57 401.795 282.726 401.606 281.804C401.385 280.304 401.385 278.78 401.606 277.28C401.737 276.269 402.032 275.287 402.479 274.371C402.631 274.026 402.875 273.729 403.184 273.513C403.184 273.513 402.983 273.85 402.714 274.489C402.387 275.411 402.184 276.372 402.109 277.347C401.951 278.787 401.991 280.241 402.227 281.669C402.385 282.484 402.809 283.223 403.432 283.771C404.056 284.319 404.843 284.644 405.67 284.696C406.083 284.688 406.488 284.585 406.855 284.395C407.222 284.206 407.541 283.935 407.787 283.603C408.163 282.897 408.277 282.081 408.106 281.299C407.952 280.496 407.907 279.676 407.971 278.861C408.005 278.474 408.137 278.103 408.354 277.782C408.572 277.461 408.868 277.202 409.214 277.028C409.711 276.836 410.246 276.761 410.776 276.811C411.307 276.86 411.819 277.033 412.271 277.314C412.943 277.667 413.195 277.902 413.195 277.953Z" fill="#EB996E"/>
<path d="M403.252 283.687C403.252 283.687 403.386 284.057 403.168 284.696C402.993 285.138 402.719 285.533 402.366 285.851C402.014 286.169 401.592 286.401 401.135 286.529C400.446 286.69 399.727 286.668 399.049 286.465C398.371 286.261 397.758 285.883 397.272 285.369C396.122 284.112 395.492 282.465 395.508 280.761C395.485 279.073 395.99 277.421 396.953 276.036C397.746 274.918 398.825 274.035 400.077 273.48C400.903 273.102 401.791 272.879 402.697 272.824C403.018 272.756 403.35 272.756 403.672 272.824C402.514 273.016 401.385 273.355 400.312 273.833C399.195 274.424 398.239 275.278 397.524 276.322C396.667 277.605 396.217 279.117 396.231 280.66C396.21 282.194 396.761 283.681 397.776 284.83C398.181 285.282 398.694 285.622 399.268 285.819C399.841 286.016 400.455 286.064 401.051 285.957C401.453 285.862 401.831 285.683 402.158 285.431C402.485 285.178 402.755 284.859 402.949 284.494C403.117 284.057 403.117 283.687 403.252 283.687Z" fill="#EB996E"/>
<path d="M415.496 295.341C416.043 295.169 416.629 295.169 417.176 295.341C418.613 295.645 419.911 296.413 420.871 297.527L420.283 297.695C420.357 296.91 420.474 296.129 420.636 295.357C421.114 292.611 422.341 290.051 424.18 287.958C422.963 290.361 422.006 292.886 421.325 295.492C421.157 296.282 421.022 297.056 420.938 297.779L420.854 298.552L420.351 297.947C419.491 296.915 418.354 296.151 417.075 295.744C416.118 295.441 415.496 295.425 415.496 295.341Z" fill="#EB996E"/>
<path d="M414.875 265.358C415.043 265.358 414.371 266.703 412.842 267.392C411.314 268.082 409.92 267.729 409.97 267.544C410.021 267.359 411.213 267.359 412.557 266.753C413.901 266.148 414.673 265.24 414.875 265.358Z" fill="#EB996E"/>
<path d="M616.987 313.973C624.277 313.973 641.813 334.69 644.853 366.203C646.264 380.615 653.486 439.706 656.963 468.109C657.575 473.135 656.83 478.233 654.807 482.873C652.783 487.513 649.555 491.526 645.457 494.493C626.595 508.215 588.836 529.807 538.632 529.185L508.196 503.641L606.96 461.971V459.718L611.277 454.992L598.948 379.32C598.948 379.32 587.476 313.973 616.987 313.973Z" fill="#40784C"/>
<path d="M591.238 180.874C591.608 191.098 605.23 197.303 605.062 207.544C605.062 211.933 602.257 215.952 601.702 220.24C600.98 226.109 604.255 231.641 605.465 237.426C607.951 249.332 601.031 261.893 590.768 268.418C580.505 274.943 567.622 276.187 555.579 274.539" fill="#263238"/>
<path d="M508.935 178.351C509.338 183.85 505.727 188.76 502.065 192.88C498.404 197 494.356 201.288 493.566 206.753C492.172 216.406 501.612 225.386 499.664 234.937C498.622 239.982 494.423 244.186 493.684 249.365C492.945 254.545 495.632 259.27 498.958 263.087C502.284 266.905 506.13 266.35 509.036 270.47C512.455 275.098 516.803 278.958 521.801 281.804C532.383 287.622 545.098 279.214 550.204 277.7" fill="#263238"/>
<path d="M593.338 186.759C593.489 181.714 588.887 177.931 584.251 176.098C579.615 174.265 574.475 173.592 570.343 170.801C566.682 168.346 564.229 164.495 561.122 161.35C557.302 157.479 552.522 154.694 547.272 153.282C542.023 151.869 536.492 151.88 531.248 153.312C526.004 154.744 521.235 157.547 517.429 161.433C513.623 165.319 510.918 170.148 509.59 175.425C507.81 182.522 509.019 190.913 514.629 195.604C521.113 201.07 530.72 199.859 539.035 198.16C547.349 196.462 556.738 194.797 563.675 199.657C567.857 202.6 570.259 207.393 572.812 211.832C575.366 216.271 578.59 220.795 583.428 222.46C588.265 224.124 594.816 221.249 595.017 216.137" fill="#263238"/>
<path d="M527.193 302.807C527.193 291.372 527.059 280.24 527.059 280.29C527.059 280.341 508.919 277.246 505.223 253.536C503.376 241.765 504.014 222.409 505.039 206.619C505.962 192.393 515.419 174.971 529.561 176.501L573.736 187.785C575.8 188.003 577.707 188.988 579.081 190.544C580.455 192.101 581.197 194.116 581.16 196.193L577.129 303.53C576.884 310.078 574.079 316.268 569.32 320.765C564.56 325.263 558.226 327.709 551.683 327.577C545.182 327.455 538.986 324.798 534.413 320.172C529.839 315.546 527.249 309.316 527.193 302.807Z" fill="#FFBE9D"/>
<path d="M512.547 220.156C512.533 220.95 512.832 221.718 513.378 222.294C513.925 222.869 514.676 223.207 515.469 223.233C515.854 223.265 516.242 223.22 516.609 223.099C516.976 222.979 517.315 222.786 517.606 222.532C517.897 222.278 518.135 221.968 518.304 221.621C518.474 221.273 518.572 220.895 518.593 220.509C518.607 219.712 518.306 218.942 517.755 218.365C517.205 217.789 516.45 217.454 515.654 217.432C515.27 217.402 514.885 217.449 514.52 217.571C514.155 217.692 513.817 217.886 513.528 218.139C513.238 218.393 513.003 218.702 512.834 219.049C512.666 219.395 512.568 219.771 512.547 220.156Z" fill="#263238"/>
<path d="M509.187 216.675C509.574 217.079 511.875 215.38 515.133 215.397C518.392 215.414 520.794 217.079 521.146 216.658C521.499 216.238 520.945 215.75 519.903 214.977C518.488 213.995 516.805 213.472 515.083 213.48C513.384 213.471 511.726 214.001 510.346 214.993C509.355 215.784 508.935 216.507 509.187 216.675Z" fill="#263238"/>
<path d="M544.208 220.98C544.203 221.772 544.505 222.535 545.05 223.109C545.595 223.682 546.34 224.022 547.131 224.057C547.518 224.089 547.907 224.043 548.276 223.922C548.646 223.801 548.987 223.607 549.279 223.351C549.572 223.095 549.811 222.784 549.981 222.434C550.152 222.085 550.25 221.705 550.272 221.316C550.281 220.523 549.981 219.758 549.435 219.183C548.889 218.608 548.141 218.27 547.349 218.239C546.963 218.211 546.575 218.261 546.208 218.384C545.841 218.507 545.501 218.701 545.21 218.956C544.918 219.211 544.679 219.521 544.507 219.868C544.335 220.215 544.234 220.593 544.208 220.98Z" fill="#263238"/>
<path d="M541.302 217.364C541.689 217.751 543.99 216.053 547.248 216.07C550.507 216.086 552.909 217.751 553.261 217.331C553.614 216.91 553.06 216.44 552.018 215.649C550.609 214.652 548.923 214.123 547.198 214.136C545.502 214.128 543.848 214.665 542.478 215.666C541.47 216.473 541.117 217.179 541.302 217.364Z" fill="#263238"/>
<path d="M529.393 241.596C527.671 241.055 525.888 240.727 524.086 240.621C523.263 240.537 522.406 240.369 522.406 239.797C522.349 238.935 522.548 238.075 522.977 237.325L525.463 230.969C528.822 221.922 531.392 214.472 531.039 214.338C530.687 214.203 527.579 221.434 524.136 230.481L521.751 236.871C521.226 237.879 521.071 239.04 521.314 240.15C521.436 240.443 521.621 240.705 521.856 240.918C522.092 241.13 522.371 241.287 522.675 241.378C523.141 241.503 523.62 241.571 524.103 241.58C525.859 241.806 527.636 241.812 529.393 241.596Z" fill="#263238"/>
<path d="M527.059 280.29C538.204 280.488 549.184 277.577 558.771 271.882C558.519 271.882 550.053 288.362 527.361 285.873L527.059 280.29Z" fill="#EB996E"/>
<path d="M530.771 249.483C531.395 248.699 532.208 248.087 533.133 247.704C534.059 247.322 535.067 247.182 536.062 247.297C536.782 247.368 537.481 247.581 538.119 247.924C538.756 248.268 539.318 248.735 539.774 249.298C540.214 249.843 540.473 250.512 540.516 251.211C540.558 251.911 540.381 252.606 540.009 253.2C539.486 253.79 538.798 254.208 538.033 254.4C537.269 254.592 536.465 254.549 535.726 254.276C534.184 253.728 532.767 252.876 531.56 251.77C531.195 251.511 530.882 251.186 530.636 250.812C530.514 250.63 530.448 250.417 530.448 250.198C530.448 249.979 530.514 249.765 530.636 249.584" fill="#E8505B"/>
<path d="M539.001 243.833C538.481 243.833 538.464 247.347 535.424 249.853C532.383 252.359 528.604 251.972 528.571 252.476C528.571 252.695 529.41 253.166 531.006 253.2C533.082 253.241 535.106 252.544 536.717 251.232C538.262 249.974 539.262 248.166 539.505 246.187C539.64 244.741 539.253 243.833 539.001 243.833Z" fill="#263238"/>
<path d="M539.841 211.63C540.177 212.521 543.435 212.101 547.265 212.572C551.095 213.043 554.202 214.102 554.706 213.312C554.941 212.925 554.403 212.084 553.144 211.227C551.49 210.143 549.601 209.474 547.634 209.276C545.671 209.035 543.679 209.265 541.823 209.949C540.429 210.503 539.706 211.21 539.841 211.63Z" fill="#263238"/>
<path d="M510.413 207.208C510.985 207.964 513.235 207.208 515.94 207.208C518.644 207.208 520.978 207.729 521.466 206.939C521.701 206.569 521.348 205.829 520.34 205.122C518.998 204.278 517.436 203.851 515.851 203.896C514.266 203.941 512.73 204.456 511.438 205.375C510.481 206.081 510.162 206.838 510.413 207.208Z" fill="#263238"/>
<path d="M583.73 267.073C577.23 268.384 576.642 265.072 571.788 260.548C569.364 258.259 567.509 255.433 566.371 252.296C565.234 249.16 564.845 245.801 565.237 242.488C565.976 236.669 569.117 230.716 567.085 225.234C564.431 217.953 554.236 215.716 551.515 208.418C549.952 204.197 551.363 199.254 549.583 195.117C547.803 190.98 543.805 188.979 539.824 187.533C535.843 186.087 531.577 185.094 528.235 182.488C524.892 179.881 522.792 174.971 524.959 171.322C542.64 173.449 560.006 177.671 576.693 183.9C580.556 185.347 584.621 187.079 586.905 190.526C589.189 193.973 589.206 198.934 589.004 203.222C587.997 224.522 587 245.823 586.015 267.123" fill="#263238"/>
<path d="M598.629 218.727C599.01 214.789 600.662 211.084 603.335 208.171C606.008 205.258 609.557 203.296 613.443 202.584C617.329 201.871 621.342 202.445 624.873 204.22C628.404 205.995 631.261 208.874 633.011 212.421C636.37 219.147 635.161 227.269 632.104 234.063C628.442 242.151 620.968 249.517 612.116 249.197C603.802 248.81 597.1 241.496 594.698 233.508C592.296 225.52 593.271 216.961 594.262 208.671" fill="#263238"/>
<path d="M603.265 251.182C603.779 250.83 604.204 250.364 604.508 249.819C605.432 248.385 606.034 246.767 606.271 245.077C606.619 242.583 606.546 240.047 606.053 237.577C605.583 234.786 604.642 231.877 603.953 228.766C603.199 225.903 603.022 222.919 603.433 219.988C603.92 217.348 605.112 215.111 605.7 213.026C606.237 211.394 606.289 209.642 605.851 207.981C605.482 206.804 604.961 206.299 604.927 206.299C604.894 206.299 605.23 206.888 605.465 207.981C605.718 209.575 605.562 211.207 605.011 212.723C604.022 215.004 603.181 217.346 602.492 219.735C601.994 222.788 602.148 225.912 602.945 228.9C603.634 232.078 604.625 234.988 605.112 237.678C605.624 240.047 605.772 242.479 605.549 244.892C605.274 247.135 604.493 249.286 603.265 251.182Z" fill="#455A64"/>
<path d="M603.617 222.729C604.554 224.162 605.792 225.373 607.245 226.277C610.653 228.69 614.706 230.02 618.879 230.095C623.052 230.17 627.151 228.986 630.643 226.697C632.125 225.868 633.405 224.72 634.389 223.334C634.271 223.2 632.91 224.595 630.257 226.126C626.81 228.128 622.887 229.162 618.902 229.119C614.919 229.019 611.035 227.858 607.648 225.756C605.045 224.04 603.735 222.594 603.617 222.729Z" fill="#455A64"/>
<path d="M604.776 226.445C605.205 227.801 605.889 229.063 606.792 230.161C608.823 232.934 611.386 235.274 614.33 237.044C617.275 238.813 620.542 239.978 623.941 240.47C625.339 240.744 626.776 240.744 628.174 240.47C626.822 240.143 625.454 239.891 624.075 239.713C620.83 239.029 617.72 237.813 614.871 236.114C612.034 234.385 609.498 232.204 607.363 229.657C606.57 228.532 605.706 227.459 604.776 226.445Z" fill="#455A64"/>
<path d="M598.83 259.119C598.83 259.119 598.931 259.035 599.082 258.833C599.321 258.528 599.54 258.208 599.737 257.874C600.498 256.599 601.027 255.198 601.299 253.738C601.734 251.409 601.601 249.009 600.913 246.742C600.012 243.69 598.06 241.057 595.404 239.309C592.599 237.342 588.937 235.946 586.619 232.802C586.035 232.012 585.618 231.11 585.396 230.153C585.173 229.195 585.149 228.202 585.326 227.235C585.799 225.118 586.491 223.055 587.392 221.081C588.318 218.827 588.77 216.406 588.718 213.97C588.666 211.533 588.111 209.134 587.089 206.922C586.006 204.565 584.355 202.514 582.286 200.952C580.096 199.454 577.619 198.429 575.013 197.942C572.46 197.353 569.974 197.017 567.522 196.26C565.182 195.676 563.024 194.52 561.24 192.897C559.67 191.182 558.713 188.993 558.519 186.675C558.302 184.355 557.932 182.052 557.41 179.781C556.352 175.522 554.137 171.64 551.011 168.564C548.246 165.89 544.728 164.13 540.933 163.519C537.811 162.997 534.604 163.486 531.779 164.915C529.661 165.981 527.843 167.559 526.488 169.506C525.629 170.722 524.997 172.084 524.623 173.525C524.489 174.024 524.416 174.538 524.405 175.055C524.848 173.143 525.665 171.337 526.807 169.741C528.404 167.609 530.566 165.967 533.048 165.001C535.53 164.035 538.232 163.784 540.849 164.276C544.459 164.896 547.797 166.596 550.423 169.153C553.398 172.144 555.496 175.896 556.486 179.999C556.978 182.217 557.332 184.464 557.544 186.726C557.763 189.236 558.809 191.602 560.517 193.452C562.409 195.237 564.72 196.515 567.236 197.168C569.722 197.925 572.275 198.261 574.811 198.85C577.277 199.337 579.612 200.339 581.664 201.793C583.607 203.241 585.154 205.155 586.166 207.359C587.144 209.457 587.679 211.735 587.736 214.05C587.794 216.365 587.374 218.667 586.502 220.812C585.585 222.851 584.886 224.982 584.419 227.168C584.232 228.25 584.268 229.358 584.525 230.426C584.782 231.493 585.254 232.496 585.914 233.373C588.5 236.737 592.263 238.099 594.984 239.999C597.544 241.615 599.449 244.088 600.359 246.978C601.066 249.146 601.25 251.451 600.896 253.704C600.535 255.617 599.835 257.451 598.83 259.119Z" fill="#455A64"/>
<path d="M597.235 192.948C597.408 192.607 597.511 192.235 597.537 191.854C597.618 190.749 597.341 189.646 596.748 188.71C595.837 187.178 594.442 185.995 592.784 185.347C590.582 184.637 588.226 184.555 585.981 185.111C583.512 185.582 580.942 186.574 578.12 187.129C576.679 187.524 575.17 187.609 573.693 187.377C572.216 187.145 570.806 186.602 569.554 185.784C567.034 183.867 565.775 180.537 564.515 177.241C563.221 173.719 561.372 170.426 559.039 167.488C554.534 161.726 548.23 157.641 541.134 155.885C538.007 155.155 534.745 155.242 531.661 156.137C528.976 156.937 526.575 158.489 524.741 160.61C523.224 162.376 522.307 164.578 522.121 166.899C521.976 168.62 522.247 170.35 522.91 171.944C523.312 172.96 523.918 173.881 524.69 174.652C524.938 174.937 525.233 175.176 525.564 175.358C524.587 174.323 523.812 173.114 523.28 171.793C522.714 170.234 522.513 168.565 522.692 166.916C522.929 164.742 523.839 162.696 525.295 161.064C527.066 159.086 529.361 157.652 531.913 156.928C534.855 156.123 537.952 156.077 540.916 156.793C547.769 158.575 553.844 162.571 558.2 168.161C560.463 171.03 562.266 174.235 563.541 177.662C564.851 180.924 566.144 184.388 568.983 186.574C570.35 187.565 571.968 188.148 573.652 188.256C575.206 188.367 576.767 188.254 578.288 187.92C581.211 187.314 583.73 186.238 586.132 185.784C588.242 185.198 590.472 185.198 592.582 185.784C594.131 186.338 595.465 187.368 596.395 188.727C596.999 189.582 597.322 190.605 597.319 191.653C597.319 192.561 597.184 192.931 597.235 192.948Z" fill="#455A64"/>
<path d="M619.07 314.309L577.079 303.597H527.025C527.025 303.597 501.075 305.094 486.63 317.857C483.016 321.468 480.315 325.89 478.752 330.755L456.547 381.725L445.109 317.824L405.167 323.507L411.616 433.501C412.764 444.905 417.504 455.647 425.152 464.175C432.801 472.703 442.961 478.574 454.162 480.939L476.888 455.362C479.508 476.231 481.843 494.039 482.078 493.888C482.632 493.333 606.49 485.799 606.49 485.799L593.959 443.372L619.07 314.309Z" fill="#40784C"/>
<path d="M460.343 171.961C460.37 166.853 459.03 161.832 456.462 157.418C453.894 153.005 450.191 149.361 445.74 146.865C441.288 144.37 436.25 143.114 431.15 143.228C426.049 143.343 421.072 144.823 416.737 147.516C412.401 150.208 408.866 154.015 406.498 158.539C404.13 163.063 403.015 168.14 403.271 173.241C403.527 178.343 405.143 183.282 407.952 187.546C410.761 191.811 414.659 195.243 419.242 197.488C419.242 200.851 419.242 204.719 419.242 204.719L444.353 204.971C444.353 204.971 444.538 200.918 444.638 197.286C449.33 194.92 453.278 191.303 456.049 186.835C458.819 182.367 460.305 177.22 460.343 171.961Z" fill="#F7E544"/>
<path d="M435.182 204.769C435.182 204.769 435.182 204.635 435.182 204.399L435.316 203.374C435.434 202.465 435.619 201.137 435.887 199.405C436.156 197.673 436.509 195.604 437.08 193.2C437.712 190.466 438.613 187.802 439.767 185.246C440.439 183.753 441.243 182.323 442.169 180.974C442.678 180.256 443.36 179.677 444.151 179.293C444.577 179.088 445.046 178.992 445.518 179.013C445.99 179.033 446.449 179.17 446.855 179.411C447.295 179.658 447.621 180.069 447.762 180.554C447.895 181.042 447.847 181.561 447.628 182.017C447.143 182.901 446.347 183.573 445.394 183.9C444.393 184.218 443.339 184.332 442.293 184.236C441.247 184.14 440.231 183.835 439.305 183.34C438.378 182.845 437.56 182.169 436.898 181.353C436.236 180.537 435.744 179.596 435.451 178.587C435.082 177.502 435.035 176.334 435.316 175.223C435.453 174.64 435.791 174.123 436.27 173.764C436.749 173.404 437.339 173.224 437.937 173.256C438.245 173.289 438.539 173.401 438.792 173.58C439.045 173.76 439.248 174.001 439.381 174.282C439.642 174.801 439.718 175.394 439.599 175.963C439.234 177.1 438.517 178.089 437.55 178.788C436.629 179.563 435.553 180.131 434.394 180.453C433.234 180.775 432.02 180.844 430.832 180.655C429.647 180.452 428.529 179.965 427.572 179.236C426.616 178.507 425.85 177.557 425.339 176.468C425.074 175.933 424.924 175.348 424.898 174.752C424.872 174.155 424.971 173.56 425.188 173.004C425.3 172.715 425.472 172.454 425.692 172.237C425.912 172.02 426.175 171.851 426.464 171.742C426.742 171.656 427.035 171.628 427.324 171.66C427.613 171.692 427.892 171.783 428.144 171.927C428.67 172.209 429.094 172.651 429.353 173.189C429.595 173.719 429.737 174.289 429.773 174.87C429.831 175.978 429.671 177.086 429.303 178.133C428.588 180.185 427.124 181.892 425.205 182.908C423.377 183.845 421.28 184.113 419.276 183.665C418.292 183.486 417.392 182.997 416.706 182.269C416.374 181.889 416.181 181.407 416.16 180.903C416.139 180.398 416.29 179.902 416.588 179.495C416.746 179.305 416.944 179.152 417.167 179.048C417.391 178.943 417.635 178.889 417.881 178.889C418.351 178.859 418.82 178.952 419.242 179.158C419.997 179.625 420.585 180.32 420.922 181.143C421.627 182.707 422.181 184.22 422.752 185.683C424.986 191.485 426.565 196.26 427.607 199.573C428.144 201.255 428.53 202.516 428.782 203.39C428.917 203.828 429.001 204.147 429.085 204.382C429.169 204.618 429.169 204.736 429.169 204.736C429.169 204.736 429.169 204.618 429.051 204.399C428.934 204.181 428.866 203.828 428.715 203.407C428.43 202.533 428.027 201.255 427.489 199.607C426.397 196.243 424.785 191.552 422.45 185.767C421.879 184.321 421.308 182.791 420.603 181.26C420.264 180.474 419.673 179.823 418.923 179.411C418.571 179.123 418.119 178.987 417.667 179.033C417.215 179.078 416.8 179.302 416.513 179.654C416.225 180.007 416.089 180.459 416.135 180.911C416.181 181.364 416.404 181.78 416.756 182.068C417.394 182.751 418.237 183.206 419.158 183.362C421.089 183.797 423.112 183.535 424.869 182.622C426.713 181.646 428.117 180.005 428.799 178.032C429.155 177.024 429.303 175.954 429.236 174.887C429.241 174.362 429.113 173.844 428.863 173.382C428.614 172.92 428.25 172.53 427.808 172.247C427.59 172.098 427.34 172.004 427.078 171.97C426.816 171.936 426.55 171.965 426.302 172.053C426.053 172.142 425.829 172.287 425.647 172.479C425.465 172.67 425.331 172.902 425.255 173.155C425.063 173.67 424.978 174.219 425.004 174.768C425.03 175.317 425.167 175.855 425.406 176.35C425.898 177.386 426.63 178.288 427.542 178.982C428.454 179.675 429.519 180.139 430.647 180.335C431.783 180.499 432.94 180.423 434.045 180.113C435.149 179.804 436.177 179.266 437.063 178.536C437.968 177.885 438.639 176.959 438.978 175.896C439.108 175.382 439.048 174.839 438.81 174.366C438.698 174.139 438.533 173.944 438.328 173.797C438.122 173.651 437.884 173.557 437.634 173.525C437.118 173.489 436.607 173.651 436.206 173.979C435.798 174.298 435.503 174.74 435.367 175.24C435.125 176.276 435.172 177.357 435.501 178.368C435.789 179.328 436.264 180.221 436.899 180.996C437.534 181.77 438.317 182.411 439.201 182.88C440.085 183.349 441.054 183.638 442.051 183.73C443.048 183.821 444.053 183.713 445.008 183.413C445.881 183.127 446.617 182.528 447.074 181.731C447.276 181.348 447.322 180.901 447.203 180.485C447.084 180.068 446.809 179.713 446.436 179.495C446.064 179.284 445.648 179.165 445.222 179.148C444.795 179.13 444.371 179.214 443.983 179.394C443.226 179.782 442.584 180.362 442.119 181.075C441.192 182.401 440.388 183.808 439.717 185.279C438.558 187.813 437.653 190.454 437.013 193.166C436.425 195.571 436.038 197.656 435.753 199.371C435.467 201.087 435.266 202.398 435.115 203.323C435.115 203.76 434.997 204.097 434.947 204.349C435.036 204.482 435.115 204.623 435.182 204.769Z" fill="#263238"/>
<path d="M442.287 209.612L420.737 209.377C420.291 209.377 419.864 209.2 419.549 208.884C419.234 208.569 419.057 208.141 419.057 207.695C419.057 207.249 419.234 206.822 419.549 206.506C419.864 206.191 420.291 206.014 420.737 206.014L442.287 206.232C442.732 206.232 443.159 206.409 443.474 206.725C443.789 207.04 443.966 207.468 443.966 207.914C443.969 208.136 443.927 208.357 443.843 208.563C443.76 208.768 443.637 208.956 443.48 209.114C443.324 209.272 443.138 209.397 442.933 209.483C442.729 209.568 442.509 209.612 442.287 209.612Z" fill="#263238"/>
<path d="M442.27 211.025L420.72 210.789C420.364 210.886 420.05 211.098 419.826 211.391C419.602 211.684 419.481 212.043 419.481 212.412C419.481 212.781 419.602 213.14 419.826 213.433C420.05 213.727 420.364 213.938 420.72 214.035H423.088L426.162 220.055C426.335 220.393 426.597 220.677 426.92 220.875C427.243 221.074 427.614 221.18 427.993 221.182L435.686 221.266C436.069 221.272 436.446 221.172 436.775 220.976C437.104 220.78 437.373 220.496 437.55 220.156L440.658 214.22H442.337C442.686 214.118 442.993 213.906 443.211 213.614C443.429 213.323 443.547 212.969 443.547 212.606C443.547 212.242 443.429 211.888 443.211 211.597C442.993 211.305 442.686 211.093 442.337 210.991L442.27 211.025Z" fill="#263238"/>
<g opacity="0.2">
<path opacity="0.2" d="M413.514 153.211C415.214 151.646 417.161 150.373 419.276 149.444C420.686 148.821 422.18 148.408 423.71 148.217C424.802 148.116 425.389 148.217 425.389 148.452C425.507 148.974 423.34 149.73 420.351 151.647C416.504 154.025 413.423 157.463 411.478 161.549C409.533 165.635 408.805 170.196 409.382 174.685C409.735 178.2 410.525 180.352 410.054 180.588C409.836 180.705 409.366 180.285 408.761 179.377C407.939 178.072 407.322 176.648 406.93 175.156C406.318 172.924 406.074 170.606 406.208 168.295C406.376 165.434 407.089 162.632 408.307 160.038" fill="white"/>
</g>
<g opacity="0.2">
<path opacity="0.2" d="M432.326 149.764C430.512 149.764 428.967 149.209 428.749 148.25C428.749 147.78 429.018 147.258 429.673 146.871C430.504 146.424 431.433 146.19 432.377 146.19C433.321 146.19 434.25 146.424 435.081 146.871C435.736 147.292 436.055 147.796 435.971 148.284" fill="white"/>
</g>
<path d="M437.113 220.677C437.113 220.677 436.542 220.475 435.635 220.206C433.246 219.465 430.684 219.494 428.312 220.29C427.422 220.593 426.884 220.862 426.868 220.812C427.269 220.475 427.731 220.218 428.228 220.055C429.411 219.583 430.668 219.327 431.94 219.298C433.215 219.284 434.483 219.495 435.686 219.921C436.204 220.082 436.688 220.339 437.113 220.677Z" fill="#455A64"/>
<path d="M440.674 214.321C440.674 214.422 436.778 214.455 431.974 214.321C427.17 214.186 423.273 214.153 423.273 214.052C423.273 213.951 427.17 213.917 431.974 214.052C436.778 214.186 440.674 214.22 440.674 214.321Z" fill="#455A64"/>
<path d="M439.297 216.927C438.598 217.052 437.89 217.119 437.181 217.129C435.854 217.129 434.04 217.247 432.024 217.247C430.009 217.247 428.211 217.247 426.884 217.163C426.175 217.163 425.467 217.101 424.768 216.978C425.478 216.919 426.191 216.919 426.901 216.978H431.94H437.08C437.816 216.894 438.558 216.877 439.297 216.927Z" fill="#455A64"/>
<path d="M481.557 411.573C481.067 411.119 480.643 410.598 480.297 410.026C479.286 408.476 478.532 406.772 478.063 404.981C476.691 399.062 477.059 392.871 479.121 387.156C481.372 380.43 484.312 374.864 485.958 370.609C486.814 368.49 487.419 366.758 487.822 365.564C487.984 364.918 488.203 364.288 488.477 363.681C488.466 364.35 488.353 365.014 488.141 365.649C487.688 367.413 487.127 369.149 486.461 370.845C484.967 375.2 482.094 380.934 479.894 387.442C477.881 393.016 477.434 399.036 478.601 404.847C479.258 407.22 480.254 409.485 481.557 411.573Z" fill="#263238"/>
<path d="M597.571 368.154C597.673 368.433 597.751 368.72 597.806 369.012L598.31 371.534C598.73 373.838 599.317 376.983 599.989 380.8C601.383 388.636 603.231 399.466 605.179 411.439C607.128 423.412 608.791 434.292 609.866 442.178C610.42 446.13 610.806 449.325 611.041 451.545C611.125 452.571 611.209 453.412 611.26 454.084C611.289 454.386 611.289 454.69 611.26 454.992C611.154 454.711 611.086 454.417 611.058 454.118C610.957 453.428 610.823 452.604 610.672 451.579C610.302 449.258 609.815 446.113 609.227 442.279C607.951 434.309 606.204 423.513 604.289 411.59C602.374 399.667 600.628 388.871 599.334 380.901C598.746 377.067 598.259 373.922 597.907 371.585C597.772 370.559 597.655 369.735 597.554 369.045C597.515 368.749 597.521 368.449 597.571 368.154Z" fill="#263238"/>
<path d="M455.455 413.221C455.416 411.652 455.512 410.082 455.741 408.529C455.976 405.654 456.261 401.669 456.379 397.263C456.496 392.857 456.379 388.855 456.379 385.979C456.26 384.417 456.26 382.849 456.379 381.287C456.78 382.809 457.005 384.372 457.051 385.945C457.656 393.496 457.454 401.089 456.446 408.597C456.273 410.168 455.941 411.717 455.455 413.221Z" fill="#263238"/>
<path d="M626.125 466.141C625.99 466.141 625.738 465.048 624.949 463.4C623.909 461.271 622.384 459.417 620.498 457.986C618.586 456.59 616.369 455.673 614.031 455.312C612.217 455.026 611.075 455.127 611.058 454.975C612.03 454.618 613.077 454.52 614.098 454.69C616.598 454.902 618.992 455.797 621.019 457.279C623.031 458.778 624.585 460.811 625.503 463.148C625.962 464.076 626.176 465.107 626.125 466.141Z" fill="#263238"/>
<path d="M616.903 471.119C615.621 469.159 614.159 467.324 612.536 465.637C610.725 464.16 608.786 462.849 606.742 461.719C609.118 462.217 611.312 463.357 613.088 465.013C614.864 466.67 616.155 468.781 616.819 471.119H616.903Z" fill="#263238"/>
<path d="M585.981 471.136C585.88 470.9 590.65 468.95 596.462 466.377C602.274 463.804 606.909 461.601 607.027 461.82C603.816 463.954 600.394 465.752 596.815 467.184C593.351 468.875 589.72 470.199 585.981 471.136Z" fill="#263238"/>
<path d="M422.635 400.222C422.635 400.222 446.788 515.244 446.788 513.748C446.788 512.251 568.513 518.977 590.298 519.936L594.833 518.826L629.182 487.161L589.559 483.966L575.416 403.047L422.635 400.222Z" fill="#E0E0E0"/>
<path d="M575.466 403.047C575.718 403.047 580.22 428.894 585.544 460.861C590.869 492.828 595.001 518.792 594.766 518.826C594.53 518.86 590.012 492.98 584.688 461.012C579.363 429.045 575.231 403.081 575.466 403.047Z" fill="#455A64"/>
<path d="M575.92 403.098C575.668 403.426 575.375 403.72 575.046 403.972C574.147 404.703 573.305 405.501 572.527 406.36C572.107 406.915 571.536 407.689 571.838 408.496C572.141 409.303 572.208 410.396 572.409 411.455C572.779 413.608 573.216 416.029 573.686 418.686C575.517 429.499 578.019 444.264 580.791 460.575C583.562 476.887 585.83 491.702 587.661 502.514C588.484 507.812 589.156 512.15 589.643 515.244C589.844 516.674 590.012 517.834 590.13 518.708C590.207 519.113 590.247 519.524 590.247 519.936C590.108 519.55 590.012 519.149 589.962 518.742L589.307 515.295C588.752 512.217 587.98 507.896 587.039 502.615C585.208 491.819 582.706 477.038 579.934 460.727C577.163 444.415 574.895 429.617 573.064 418.787C572.645 416.114 572.258 413.742 571.922 411.54C571.754 410.48 571.637 409.471 571.435 408.597C571.36 408.15 571.398 407.691 571.544 407.263C571.691 406.834 571.942 406.449 572.275 406.142C573.079 405.285 573.968 404.513 574.929 403.838C575.246 403.574 575.577 403.327 575.92 403.098Z" fill="#455A64"/>
<path d="M571.469 407.302C570.972 407.345 570.471 407.345 569.974 407.302H565.674L549.852 407.083L497.699 406.158L445.529 405.267L429.723 405.032L425.423 404.931C424.923 404.94 424.424 404.912 423.928 404.847C424.423 404.771 424.923 404.743 425.423 404.763H429.723C433.452 404.763 438.86 404.763 445.529 404.763C458.882 404.763 477.341 405.015 497.715 405.385C518.09 405.755 536.515 406.192 549.869 406.562L565.674 407.066L569.974 407.251C570.473 407.229 570.973 407.246 571.469 407.302Z" fill="#455A64"/>
<path d="M589.559 487.245C590.335 487.166 591.117 487.166 591.893 487.245L598.293 487.515C603.685 487.767 611.193 488.17 619.557 488.675H620.649L619.792 489.348L618.247 490.659C611.528 496.393 605.347 501.556 600.879 505.255L595.555 509.594C594.926 510.161 594.246 510.668 593.523 511.107C594.062 510.461 594.664 509.87 595.32 509.342L600.476 504.785C604.843 500.967 610.924 495.738 617.676 489.987L619.221 488.675L619.473 489.448C611.075 488.927 603.617 488.423 598.209 488.002L591.843 487.481C591.077 487.461 590.313 487.382 589.559 487.245Z" fill="#455A64"/>
<path d="M483.606 517.279L482.061 498.546C482.914 498.41 483.786 498.466 484.615 498.71C485.443 498.954 486.207 499.38 486.85 499.956C487.494 500.533 488.001 501.246 488.334 502.043C488.668 502.841 488.82 503.702 488.78 504.566V492.98C488.78 492.98 495.918 491.416 497.463 500.782C498.181 505.714 499.455 510.549 501.259 515.194L505.039 517.279L501.478 495.653C501.478 495.653 509.053 496.309 510.38 503.456C511.134 507.596 512.258 511.659 513.739 515.597L525.698 518.961C525.698 518.961 518.829 512.839 519.5 510.822C520.172 508.804 519.719 508.938 521.062 508.652C523.301 508.639 525.503 509.219 527.445 510.334C529.612 511.494 542.209 518.961 542.209 518.961V528.209C542.209 528.209 512.883 530.328 506.265 529.101L493.432 526.124C491.178 525.609 489.092 524.526 487.373 522.978C485.653 521.43 484.357 519.468 483.606 517.279Z" fill="#FFBE9D"/>
<path d="M511.64 455.715C511.725 457.288 511.354 458.851 510.572 460.217C509.789 461.583 508.629 462.693 507.23 463.413C505.831 464.133 504.254 464.432 502.689 464.274C501.124 464.116 499.638 463.508 498.411 462.523C497.184 461.539 496.267 460.219 495.772 458.725C495.278 457.23 495.226 455.624 495.623 454.1C496.02 452.576 496.849 451.2 498.01 450.138C499.171 449.076 500.615 448.373 502.166 448.114C504.429 447.869 506.696 448.531 508.471 449.956C510.247 451.38 511.386 453.451 511.64 455.715Z" fill="#FAFAFA"/>
<g opacity="0.4">
<path opacity="0.4" d="M611.193 454.505C616.176 452.806 621.604 452.968 626.477 454.959C628.882 455.989 630.99 457.606 632.61 459.662C634.23 461.719 635.309 464.148 635.749 466.73C635.961 467.921 635.875 469.146 635.497 470.295C635.306 470.867 634.987 471.389 634.565 471.82C634.143 472.251 633.629 472.581 633.062 472.784C632.103 472.957 631.113 472.825 630.233 472.406C629.353 471.987 628.627 471.301 628.157 470.446C627.256 468.718 626.53 466.904 625.99 465.031C624.737 461.996 622.637 459.385 619.942 457.512C617.246 455.64 614.069 454.584 610.789 454.471L611.579 454.69" fill="black"/>
</g>
<path d="M522.843 309.92C523.851 306.759 522.944 303.362 522.389 300.1C521.835 296.837 521.768 293.087 523.985 290.632C526.202 288.177 529.847 287.874 533.139 287.74L573.803 285.957C576.575 285.839 579.783 285.957 581.53 288.076C582.132 288.755 582.574 289.561 582.821 290.435C583.068 291.308 583.115 292.227 582.958 293.121C580.858 300.873 581.513 307.398 584.553 312.846" fill="#29A863"/>
<path d="M577.935 306.052C577.394 306.61 576.797 307.112 576.155 307.549C574.448 308.791 572.657 309.915 570.797 310.912C564.645 314.251 557.89 316.326 550.927 317.016C547.092 317.42 543.221 317.347 539.404 316.798C536.267 316.361 533.232 315.376 530.435 313.889C528.538 312.892 526.854 311.532 525.48 309.886C525.113 309.443 524.781 308.97 524.489 308.474C524.287 308.138 524.187 307.953 524.22 307.936C525.974 310.182 528.191 312.024 530.72 313.334C533.486 314.703 536.461 315.601 539.522 315.991C543.277 316.482 547.076 316.533 550.843 316.142C557.717 315.466 564.405 313.51 570.562 310.374C575.248 307.986 577.801 305.901 577.935 306.052Z" fill="#263238"/>
<path d="M550.171 317.151C549.683 315.689 549.329 314.187 549.113 312.661C548.575 309.87 547.886 305.935 547.181 301.747C546.845 299.612 546.526 297.594 546.224 295.71C545.875 294.04 545.933 292.31 546.392 290.666C546.746 289.527 547.505 288.558 548.525 287.941C549.264 287.538 549.734 287.555 549.734 287.605C549.734 287.656 549.314 287.773 548.709 288.227C547.879 288.895 547.289 289.816 547.03 290.851C546.677 292.423 546.677 294.054 547.03 295.626C547.349 297.51 547.702 299.528 548.054 301.647C548.777 305.918 549.365 309.802 549.734 312.611C550.026 314.106 550.172 315.627 550.171 317.151Z" fill="#263238"/>
<path d="M571.318 310.71C570.912 309.513 570.653 308.271 570.545 307.011C570.192 304.707 569.739 301.529 569.319 298.014C568.899 294.5 568.613 291.288 568.277 289.034C568.138 288.181 567.69 287.408 567.018 286.865C566.514 286.512 566.144 286.495 566.144 286.411C566.144 286.327 566.548 286.26 567.186 286.579C567.609 286.827 567.977 287.159 568.266 287.556C568.555 287.952 568.759 288.404 568.865 288.883C569.369 291.237 569.705 294.365 570.175 297.897C570.646 301.428 570.931 304.623 571.15 306.927C571.349 308.178 571.405 309.447 571.318 310.71Z" fill="#263238"/>
<path d="M532.618 287.773C531.568 288.347 530.643 289.124 529.897 290.06C529.141 291.104 528.63 292.306 528.403 293.575C528.137 295.158 528.087 296.77 528.251 298.367C528.57 301.731 528.856 304.993 529.007 307.263C529.152 308.498 529.152 309.745 529.007 310.979C528.617 309.799 528.386 308.572 528.319 307.33C528.016 305.06 527.63 301.932 527.311 298.435C527.138 296.751 527.218 295.05 527.546 293.39C527.836 292.019 528.453 290.738 529.343 289.657C530.989 287.807 532.652 287.672 532.618 287.773Z" fill="#263238"/>
<path d="M366.87 535.625C366.87 544.269 371.909 710.243 371.909 710.243L301.364 709.89L288.901 636.118L285.659 709.89H217.986L225.343 527.705L366.87 535.625Z" fill="#455A64"/>
<path d="M158.913 466.898L122.851 413.087L149.607 391.343L194.824 433.384C194.824 433.384 214.291 324.079 233.456 317.487L231.961 487.01C219.401 492.993 205.11 494.253 191.699 490.56C178.288 486.868 166.651 478.469 158.913 466.898Z" fill="#263238"/>
<path d="M85.0919 213.497L92.7679 318.261L218.355 559.302L290.967 517.195L167.193 281.619L85.0919 213.497Z" fill="#40784C"/>
<g opacity="0.7">
<path opacity="0.7" d="M168.436 282.073C167.906 282.958 167.196 283.722 166.353 284.315C165.509 284.908 164.551 285.318 163.54 285.518C162.528 285.717 161.486 285.703 160.481 285.474C159.476 285.246 158.529 284.809 157.703 284.191C158.62 287.988 158.328 291.976 156.868 295.597C155.407 299.219 152.852 302.292 149.56 304.387C146.268 306.482 142.403 307.493 138.508 307.279C134.613 307.065 130.883 305.637 127.839 303.194C127.325 307.011 125.813 310.625 123.455 313.669C121.098 316.713 117.979 319.08 114.414 320.529C110.849 321.978 106.965 322.458 103.155 321.921C99.3447 321.384 95.7442 319.849 92.7175 317.47L85.0919 213.564L168.436 282.073Z" fill="white"/>
</g>
<path d="M246.036 539.611C245.818 539.712 219.162 486.96 186.409 421.781C153.655 356.601 127.335 303.664 127.621 303.547C127.906 303.429 154.495 356.198 187.248 421.394C220.002 486.59 246.255 539.493 246.036 539.611Z" fill="white"/>
<path d="M276.236 521.517C276.018 521.634 249.362 468.865 216.592 403.703C183.822 338.541 157.519 285.57 157.804 285.469C158.09 285.369 184.679 338.104 217.449 403.3C250.219 468.496 276.438 521.416 276.236 521.517Z" fill="white"/>
<path d="M128.561 353.844L112.269 360.351L108.775 373.502L114.385 395.362L127.554 409.337L136.422 401.988L136.976 388.535L138.068 381.035C138.068 381.035 146.097 378.513 146.298 377.285C146.5 376.058 145.291 371.921 144.065 371.719C142.838 371.517 134.373 374.746 134.373 374.746C134.373 374.746 144.35 366.842 144.065 365.581C143.779 364.32 142.721 361.058 140.705 360.705C138.69 360.351 122.615 367.935 122.615 367.935L120.012 373.888L117.728 364.354C117.728 364.354 132.089 360.351 128.561 353.844Z" fill="#D29780"/>
<path d="M130.611 384.651C130.51 384.651 130.207 384.079 130.056 382.969C129.894 381.58 130.062 380.171 130.547 378.859C131.031 377.547 131.818 376.368 132.844 375.419C133.651 374.712 134.272 374.46 134.323 374.544C133.096 375.918 132.088 377.472 131.333 379.152C130.817 380.938 130.574 382.792 130.611 384.651Z" fill="#AA6550"/>
<path d="M122.867 381.809C123.167 380.394 123.38 378.962 123.506 377.521C123.577 375.917 123.853 374.329 124.329 372.795C124.646 371.86 125.156 371.001 125.823 370.273C126.583 369.527 127.494 368.954 128.494 368.591C132.391 367.179 135.901 366.035 138.471 365.228C139.827 364.698 141.235 364.309 142.67 364.068C141.387 364.752 140.043 365.315 138.656 365.749C136.153 366.725 132.626 367.969 128.813 369.365C127.926 369.682 127.113 370.18 126.428 370.828C125.825 371.467 125.356 372.222 125.051 373.048C124.565 374.521 124.244 376.044 124.093 377.588C124.05 379.076 123.628 380.529 122.867 381.809Z" fill="#AA6550"/>
<path d="M119.122 378.849C118.887 377.787 118.921 376.683 119.223 375.637C119.525 373.956 119.928 372.526 120.163 372.56C120.398 372.594 120.348 374.04 120.062 375.772C119.777 377.504 119.357 378.9 119.122 378.849Z" fill="#AA6550"/>
<path d="M339.408 286.092L325.114 281.232L271.735 293.508L267.065 297.426L238.747 559.302C250.89 571.83 289.136 574.319 310.854 570.603L339.408 286.092Z" fill="#40784C"/>
<path d="M340.399 286.596L333.529 283.233C333.529 283.233 318.412 349.892 318.412 393.916C318.412 437.941 308.906 597.576 308.906 597.576L380.912 595.726V419.309L340.399 286.596Z" fill="#263238"/>
<path d="M238.747 600.182L211.469 592.178L220.993 463.131L219.179 369.567L233.472 317.437L267.334 296.501C267.334 296.501 240.611 584.627 238.747 600.182Z" fill="#263238"/>
<path d="M295.62 318.311C289.062 317.73 282.961 314.704 278.525 309.833C274.089 304.963 271.642 298.602 271.668 292.011L271.752 268.586C271.752 268.586 250.151 265.223 249.916 243.598C249.681 221.972 253.393 172.297 253.393 172.297C265.675 167.011 279.144 165.104 292.409 166.775C305.673 168.445 318.251 173.632 328.843 181.798L332.051 184.254L324.174 293.978C323.926 297.465 322.988 300.867 321.412 303.986C319.836 307.105 317.656 309.879 314.997 312.144C312.338 314.41 309.256 316.122 305.928 317.181C302.601 318.24 299.097 318.624 295.62 318.311Z" fill="#D29780"/>
<path d="M271.752 268.283C281.728 268.47 291.534 265.677 299.919 260.262C299.919 260.262 293.201 275.834 271.701 273.883L271.752 268.283Z" fill="#AA6550"/>
<path d="M329.381 206.669C329.75 206.501 344.229 202.264 343.758 217.062C343.288 231.86 328.642 228.329 328.541 227.891C328.44 227.454 329.381 206.669 329.381 206.669Z" fill="#B78876"/>
<path d="M333.227 222.443C333.227 222.443 333.479 222.628 333.916 222.846C334.519 223.118 335.202 223.154 335.83 222.947C337.409 222.426 338.803 219.988 338.955 217.314C339.036 216.045 338.829 214.775 338.35 213.598C338.228 213.132 337.994 212.704 337.669 212.349C337.344 211.995 336.938 211.725 336.485 211.563C336.192 211.477 335.878 211.496 335.596 211.615C335.314 211.735 335.083 211.948 334.94 212.219C334.739 212.622 334.823 212.925 334.739 212.959C334.655 212.992 334.436 212.69 334.571 212.084C334.666 211.723 334.879 211.403 335.175 211.176C335.598 210.887 336.113 210.767 336.62 210.84C337.233 210.974 337.8 211.264 338.268 211.683C338.736 212.101 339.088 212.633 339.29 213.228C339.882 214.529 340.147 215.954 340.063 217.381C339.862 220.358 338.249 223.099 336.099 223.637C335.701 223.742 335.284 223.755 334.88 223.677C334.476 223.598 334.094 223.429 333.764 223.183C333.244 222.796 333.176 222.46 333.227 222.443Z" fill="#AA6550"/>
<path d="M260.481 205.576C260.472 206.381 260.778 207.158 261.334 207.739C261.89 208.321 262.651 208.661 263.454 208.687C263.846 208.722 264.241 208.677 264.615 208.554C264.989 208.432 265.335 208.236 265.632 207.977C265.928 207.718 266.169 207.401 266.341 207.047C266.512 206.692 266.61 206.306 266.629 205.913C266.638 205.106 266.333 204.328 265.777 203.744C265.222 203.16 264.461 202.816 263.656 202.785C263.263 202.755 262.869 202.804 262.496 202.929C262.123 203.054 261.778 203.252 261.482 203.512C261.187 203.772 260.946 204.089 260.774 204.443C260.602 204.798 260.502 205.183 260.481 205.576Z" fill="#263238"/>
<path d="M257.475 202.734C257.861 203.121 260.196 201.389 263.521 201.406C266.847 201.423 269.283 203.088 269.635 202.667C269.988 202.247 269.417 201.759 268.359 200.986C266.926 199.984 265.218 199.455 263.471 199.472C261.744 199.465 260.06 200.013 258.667 201.036C257.643 201.793 257.29 202.549 257.475 202.734Z" fill="#263238"/>
<path d="M293.117 206.972C293.108 207.779 293.413 208.557 293.968 209.141C294.524 209.725 295.285 210.069 296.09 210.1C296.482 210.13 296.877 210.081 297.25 209.956C297.623 209.831 297.968 209.632 298.263 209.372C298.559 209.112 298.8 208.796 298.972 208.441C299.144 208.087 299.243 207.702 299.265 207.308C299.274 206.504 298.968 205.727 298.412 205.146C297.856 204.564 297.095 204.224 296.291 204.197C295.899 204.163 295.505 204.208 295.13 204.33C294.756 204.452 294.411 204.649 294.114 204.908C293.818 205.167 293.577 205.484 293.405 205.838C293.234 206.193 293.136 206.579 293.117 206.972Z" fill="#263238"/>
<path d="M290.11 203.34C290.497 203.743 292.848 202.011 296.157 202.028C299.466 202.045 301.918 203.71 302.271 203.289C302.624 202.869 302.069 202.381 300.994 201.608C299.562 200.607 297.853 200.078 296.107 200.094C294.379 200.087 292.695 200.635 291.303 201.658C290.278 202.432 289.926 203.172 290.11 203.34Z" fill="#263238"/>
<path d="M278.067 227.992C276.316 227.45 274.505 227.123 272.675 227.017C271.836 226.933 270.996 226.765 270.878 226.193C270.803 225.313 271.002 224.432 271.449 223.67L273.952 217.213C277.446 208.015 279.965 200.397 279.579 200.296C279.192 200.195 276.085 207.51 272.608 216.709C271.768 218.979 270.929 221.148 270.206 223.216C269.664 224.249 269.509 225.442 269.77 226.58C269.895 226.878 270.085 227.145 270.326 227.36C270.567 227.575 270.853 227.734 271.164 227.824C271.635 227.949 272.12 228.017 272.608 228.026C274.421 228.259 276.257 228.248 278.067 227.992Z" fill="#263238"/>
<path d="M289.254 190.324C289.59 191.232 292.899 190.795 296.795 191.266C300.692 191.737 303.85 192.796 304.354 191.989C304.589 191.602 304.051 190.745 302.775 189.87C301.086 188.782 299.163 188.107 297.165 187.903C295.172 187.66 293.149 187.903 291.269 188.609C289.842 189.181 289.119 189.887 289.254 190.324Z" fill="#263238"/>
<path d="M258.667 193.099C259.255 193.856 261.539 193.099 264.294 193.099C267.049 193.099 269.333 193.603 269.904 192.813C270.139 192.426 269.77 191.67 268.762 190.946C267.4 190.079 265.806 189.651 264.193 189.719C262.578 189.747 261.011 190.276 259.709 191.232C258.768 191.955 258.449 192.746 258.667 193.099Z" fill="#263238"/>
<path d="M242.862 158.643C242.714 157.301 242.908 155.944 243.424 154.697C243.941 153.451 244.765 152.355 245.818 151.513C246.902 150.713 248.236 150.328 249.579 150.426C250.922 150.525 252.185 151.101 253.141 152.051C252.94 151.148 252.93 150.212 253.113 149.305C253.295 148.398 253.666 147.539 254.201 146.784C254.737 146.03 255.424 145.396 256.219 144.924C257.015 144.453 257.9 144.154 258.818 144.046C262.346 143.811 265.352 146.485 268.745 147.41C272.143 148.118 275.679 147.705 278.823 146.232C282.014 144.954 285.004 143.172 288.246 141.978C295.078 139.507 302.607 139.825 309.207 142.865C315.806 145.904 320.947 151.42 323.518 158.222C328.238 156.743 333.596 159.147 336.519 163.149C339.276 167.331 340.373 172.393 339.593 177.342C339.14 180.66 338.311 183.915 337.124 187.045C337.124 187.331 337.124 187.6 337.124 187.886C336.889 199.775 335.562 213.749 330.489 213.816C321.654 213.951 323.77 197.303 323.77 197.303C312.937 193.099 317.052 176.838 314.264 174.366C311.475 171.894 305.865 166.176 283.173 177.729C274.372 182.253 262.648 182.101 256.299 180.655L255.728 180.537H255.61H255.409C253.357 180.014 251.398 179.18 249.597 178.065C247.465 176.844 245.781 174.969 244.793 172.718C244.33 171.596 244.201 170.364 244.421 169.171C244.642 167.977 245.203 166.873 246.036 165.991C244.281 163.906 243.177 161.351 242.862 158.643Z" fill="#263238"/>
<path d="M275.245 238.216C275.702 239.565 276.352 240.84 277.177 242C277.592 242.576 278.123 243.058 278.737 243.415C279.35 243.771 280.032 243.994 280.738 244.068C281.495 244.068 282.24 243.879 282.906 243.518C283.572 243.157 284.137 242.635 284.551 242C285.352 240.702 285.722 239.183 285.609 237.661C285.609 236.299 284.92 234.668 283.56 234.5C282.977 234.475 282.398 234.603 281.88 234.87L274.758 237.762" fill="#AA6550"/>
<path d="M278.101 244.085C279.385 244.175 280.674 244.015 281.897 243.614C283.143 243.131 284.166 242.202 284.769 241.008C285.11 240.282 285.296 239.492 285.313 238.69C285.331 237.887 285.179 237.09 284.87 236.35C284.7 235.971 284.492 235.61 284.248 235.274C283.963 234.971 284.013 234.988 283.711 235.038C283.408 235.089 282.938 235.341 282.569 235.492L281.393 235.963C279.864 236.585 278.487 237.123 277.328 237.645C276.106 238.24 274.796 238.632 273.448 238.805C274.507 237.962 275.691 237.293 276.959 236.821C278.084 236.266 279.428 235.643 280.939 234.971L282.082 234.45C282.501 234.281 282.821 234.096 283.392 233.911C283.736 233.803 284.105 233.803 284.45 233.911C284.759 234.044 285.026 234.26 285.222 234.534C285.548 234.945 285.819 235.397 286.029 235.879C286.414 236.789 286.595 237.774 286.557 238.762C286.519 239.75 286.264 240.718 285.81 241.596C285.041 243.012 283.742 244.064 282.199 244.522C281.199 244.841 280.13 244.882 279.109 244.64C278.403 244.405 278.067 244.169 278.101 244.085Z" fill="#263238"/>
<path d="M315.07 172.365C315.164 171.498 315.164 170.624 315.07 169.758C314.695 167.403 313.506 165.254 311.711 163.688C309.007 161.395 305.522 160.238 301.985 160.459C297.648 160.745 293.381 161.704 289.338 163.301C287.137 164.024 284.97 164.713 282.804 165.201C280.726 165.644 278.612 165.897 276.488 165.958C272.887 166.058 269.293 165.587 265.839 164.562C263.501 163.874 261.248 162.927 259.121 161.737C258.365 161.316 257.811 160.947 257.441 160.694C257.246 160.574 257.061 160.439 256.887 160.291C256.887 160.291 257.71 160.745 259.238 161.518C261.384 162.613 263.635 163.486 265.957 164.125C269.373 165.068 272.913 165.488 276.455 165.369C278.541 165.306 280.617 165.041 282.653 164.579C284.769 164.108 286.919 163.419 289.136 162.695C293.235 161.091 297.559 160.138 301.952 159.87C305.636 159.668 309.253 160.918 312.03 163.351C313.879 165.002 315.072 167.265 315.389 169.725C315.485 170.617 315.375 171.52 315.07 172.365Z" fill="#455A64"/>
<path d="M331.883 208.923C331.883 208.923 331.766 208.771 331.598 208.469C331.348 208.022 331.123 207.562 330.926 207.09C330.175 205.362 329.612 203.558 329.246 201.709C328.66 198.947 328.473 196.115 328.692 193.301C329.105 189.897 329.75 186.526 330.623 183.211C331.473 179.953 331.473 176.531 330.623 173.273C330.206 171.881 329.502 170.592 328.558 169.489C327.704 168.566 326.637 167.868 325.45 167.454C323.719 166.807 321.805 166.855 320.109 167.589C319.508 167.92 318.945 168.314 318.429 168.766C318.81 168.17 319.343 167.688 319.974 167.37C320.834 166.944 321.771 166.694 322.729 166.636C323.687 166.578 324.646 166.714 325.551 167.034C326.828 167.443 327.983 168.166 328.91 169.136C329.938 170.272 330.701 171.621 331.144 173.088C332.036 176.443 332.036 179.973 331.144 183.329C330.282 186.635 329.636 189.994 329.213 193.385C328.982 196.132 329.117 198.897 329.616 201.608C329.976 203.439 330.481 205.238 331.127 206.989C331.615 208.233 331.934 208.906 331.883 208.923Z" fill="#455A64"/>
<path d="M317.153 170.633C317.131 170.342 317.131 170.049 317.153 169.758C317.153 169.119 317.153 168.295 317.253 167.269C317.389 164.243 317.055 161.214 316.262 158.29C315.657 156.305 314.677 154.455 313.373 152.841C311.895 150.983 309.866 149.64 307.579 149.007C305.021 148.419 302.353 148.529 299.852 149.327C297.14 150.176 294.54 151.35 292.109 152.824C289.65 154.316 287.091 155.637 284.45 156.776C281.93 157.79 279.253 158.359 276.539 158.458C274.101 158.508 271.669 158.208 269.316 157.567C267.272 156.983 265.3 156.171 263.437 155.145C260.764 153.626 258.404 151.612 256.484 149.209C255.957 148.559 255.486 147.868 255.073 147.141C254.913 146.9 254.772 146.647 254.653 146.384C254.857 146.593 255.038 146.824 255.19 147.073C255.646 147.761 256.145 148.418 256.685 149.041C258.657 151.346 261.037 153.268 263.706 154.708C265.543 155.695 267.488 156.468 269.501 157.012C271.806 157.628 274.188 157.906 276.572 157.836C279.208 157.753 281.81 157.219 284.265 156.255C286.88 155.114 289.417 153.799 291.857 152.32C294.326 150.827 296.965 149.635 299.718 148.772C302.33 147.947 305.117 147.848 307.78 148.486C310.18 149.157 312.3 150.584 313.827 152.555C315.169 154.228 316.157 156.156 316.733 158.222C317.509 161.194 317.787 164.274 317.556 167.337C317.556 168.413 317.405 169.254 317.337 169.825C317.297 170.099 317.235 170.369 317.153 170.633Z" fill="#455A64"/>
<path d="M340.399 286.596C340.399 286.596 391.914 303.093 395.341 312.039C397.927 318.765 424.986 400.088 430.832 453.109C431.373 458.251 430.887 463.45 429.4 468.402C427.914 473.354 425.457 477.961 422.174 481.952C418.891 485.944 414.846 489.241 410.277 491.651C405.707 494.061 400.704 495.536 395.559 495.99C360.689 499.185 310.031 503.355 310.031 500.48V456.523L375.638 446.82L351.384 375.301L340.399 286.596Z" fill="#263238"/>
<path d="M274.271 491.601C280.99 493.282 310.081 493.282 310.081 493.282V458.81C310.081 458.81 297.434 453.395 293.94 450.25C290.446 447.106 280.503 428.524 280.503 428.524C278.73 429.598 277.337 431.2 276.518 433.105C275.699 435.01 275.495 437.124 275.934 439.152C277.614 446.736 280.704 447.66 280.973 450.687C280.973 450.687 281.225 451.461 281.242 451.495C281.914 455.699 277.882 459.415 277.882 459.415C276.545 458.42 275.052 457.653 273.465 457.145C267.334 456.422 260.028 460.827 260.028 463.266C260.028 463.266 259.809 469.891 260.028 470.867C260.246 471.842 263.387 473.154 263.387 473.154C263.387 473.154 262.413 477.576 263.387 479.527C264.475 481.011 265.943 482.172 267.636 482.89C267.636 482.89 270.425 490.609 274.271 491.601Z" fill="#D29780"/>
<path d="M281.326 486.068C278.991 486.451 276.6 486.319 274.322 485.682C271.978 485.316 269.746 484.431 267.788 483.092C267.888 482.856 270.777 484.017 274.506 484.773C278.235 485.53 281.326 485.799 281.326 486.068Z" fill="#AA6550"/>
<path d="M279.612 475.71C277.042 476.488 274.322 476.632 271.684 476.13C269.002 475.919 266.41 475.065 264.126 473.641C264.227 473.389 267.485 474.717 271.802 475.323C276.119 475.928 279.596 475.457 279.612 475.71Z" fill="#AA6550"/>
<path d="M278.621 446.046C279.65 447.324 280.441 448.776 280.956 450.334C281.267 451.103 281.514 451.896 281.695 452.705C281.955 453.675 281.955 454.695 281.695 455.665C281.011 457.823 279.518 459.631 277.53 460.71C276.537 461.305 275.453 461.731 274.322 461.971C273.286 462.169 272.235 462.281 271.181 462.307C269.182 462.307 267.418 462.307 265.923 462.307C262.95 462.307 261.17 462.761 261.136 462.644C262.641 461.99 264.267 461.663 265.906 461.685C267.401 461.567 269.266 461.55 271.147 461.433C272.156 461.388 273.161 461.27 274.154 461.08C275.189 460.837 276.181 460.435 277.093 459.886C278.902 458.91 280.271 457.28 280.923 455.329C281.181 454.489 281.216 453.596 281.023 452.739C280.872 451.951 280.665 451.176 280.402 450.418C279.428 447.728 278.504 446.113 278.621 446.046Z" fill="#AA6550"/>
<path d="M376.512 446.719C375.663 446.959 374.799 447.138 373.925 447.257L366.837 448.484C360.84 449.477 352.543 450.788 343.322 452.167C334.1 453.546 325.853 454.757 319.807 455.53C316.573 456.113 313.299 456.439 310.014 456.506L312.618 456.052L319.706 454.925L343.221 451.293C352.392 449.897 360.706 448.686 366.736 447.845L373.875 446.904C374.745 446.751 375.629 446.689 376.512 446.719Z" fill="#455A64"/>
<path d="M404.36 440.194C402.639 440.341 400.908 440.341 399.187 440.194C395.996 440.043 391.595 439.791 386.741 439.471C384.512 439.155 382.25 439.155 380.022 439.471C379.147 439.622 378.311 439.945 377.561 440.421C376.812 440.897 376.164 441.517 375.655 442.246C375.018 443.274 374.795 444.507 375.033 445.693C375.235 446.534 375.554 446.937 375.487 446.971C375.42 447.005 375.033 446.668 374.698 445.794C374.5 445.157 374.435 444.487 374.508 443.825C374.58 443.162 374.787 442.522 375.117 441.943C375.641 441.106 376.329 440.385 377.141 439.824C377.953 439.263 378.87 438.874 379.837 438.681C382.135 438.283 384.479 438.232 386.791 438.529C391.645 438.849 396.046 439.202 399.22 439.505C400.951 439.583 402.671 439.813 404.36 440.194Z" fill="#455A64"/>
<path d="M393.56 452.251C390.383 451.764 387.257 450.987 384.221 449.931C381.096 449.168 378.048 448.115 375.118 446.786C378.293 447.272 381.419 448.043 384.456 449.09C387.581 449.862 390.629 450.921 393.56 452.251Z" fill="#455A64"/>
<path d="M352.862 366.22C353.097 366.136 358.388 382.868 364.62 403.552C370.851 424.236 375.823 441.085 375.605 441.153C375.386 441.22 370.079 424.505 363.847 403.804C357.616 383.104 352.627 366.288 352.862 366.22Z" fill="#455A64"/>
<path d="M391.36 313.283C391.36 313.451 388.353 313.922 383.751 315.688C377.761 317.982 372.326 321.525 367.809 326.083C363.291 330.64 359.793 336.108 357.548 342.123C355.869 346.73 355.365 349.791 355.197 349.757C355.199 349.033 355.284 348.31 355.449 347.605C355.805 345.668 356.311 343.763 356.96 341.904C359.094 335.724 362.592 330.105 367.196 325.467C371.8 320.829 377.39 317.291 383.549 315.116C385.399 314.452 387.297 313.929 389.226 313.552C389.924 313.379 390.64 313.288 391.36 313.283Z" fill="#455A64"/>
<path d="M219.867 349.169C219.943 349.551 219.977 349.94 219.968 350.329C219.968 351.187 219.968 352.297 220.086 353.692C220.086 356.702 220.22 360.89 220.337 366.018C220.455 376.512 220.64 390.856 220.825 406.697C221.009 422.537 220.993 436.965 221.06 447.391C221.06 452.52 221.06 456.707 221.06 459.718V463.081C221.089 463.473 221.089 463.866 221.06 464.258C220.983 463.87 220.949 463.476 220.959 463.081C220.959 462.223 220.959 461.113 220.841 459.718C220.841 456.707 220.69 452.52 220.589 447.391C220.472 436.881 220.287 422.554 220.102 406.697C219.918 390.839 219.918 376.512 219.867 366.018C219.867 360.974 219.867 356.702 219.867 353.692C219.867 352.297 219.867 351.187 219.867 350.329C219.828 349.943 219.828 349.555 219.867 349.169Z" fill="#455A64"/>
<path d="M301.095 707.687C300.934 707.28 300.815 706.858 300.743 706.426C300.524 705.518 300.255 704.307 299.903 702.777C299.197 699.616 298.223 695.008 297.098 689.324C294.797 677.923 291.874 662.133 289.069 644.61C286.264 627.088 284.147 611.163 282.787 599.61C282.098 593.843 281.578 589.168 281.258 585.922L280.923 582.189C280.885 581.758 280.885 581.325 280.923 580.894C281.046 581.311 281.124 581.739 281.158 582.172C281.292 583.114 281.46 584.341 281.678 585.889C282.098 589.252 282.72 593.843 283.459 599.526C284.987 611.045 287.204 626.953 289.993 644.476C292.781 661.998 295.636 677.771 297.77 689.206C298.828 694.84 299.684 699.447 300.306 702.659C300.591 704.19 300.81 705.417 300.978 706.342C301.05 706.787 301.089 707.237 301.095 707.687Z" fill="#263238"/>
<path d="M395.609 496.074C395.609 496.309 376.68 497.756 353.316 499.303C329.952 500.85 310.972 501.892 310.955 501.657C310.938 501.421 329.868 499.975 353.265 498.428C376.663 496.881 395.592 495.738 395.609 496.074Z" fill="#455A64"/>
</svg>
