<svg xmlns="http://www.w3.org/2000/svg" viewBox="0 0 523.11 394.79"><defs><style>.cls-1{fill:#b2ca6a;}.cls-2{fill:#686eaf;}.cls-3{fill:#cbdef4;}.cls-4{fill:#2b3661;}.cls-5,.cls-6{fill:none;}.cls-5{stroke:#2b3661;stroke-miterlimit:10;stroke-width:1.7px;}</style></defs><title>Ativo 5</title><g id="Camada_2" data-name="Camada 2"><g id="Camada_1-2" data-name="Camada 1"><path class="cls-1" d="M307.29,202.35a31.24,31.24,0,0,1,4.42-2.9c3.3-1.87,5.47-3.11,6-10.24.48-6.74,3.62-9.62,6.94-12.68a41.25,41.25,0,0,0,3.19-3.16c3.37-3.85,4.9-13,6.52-22.6,1.29-7.69,2.63-15.64,4.91-19.52,4.43-7.56,13.35-5.44,13.72-5.34a.84.84,0,0,0,.69-.13.82.82,0,0,0,.36-.59c0-.08,1.15-7.92,17.06-6.38a16.13,16.13,0,0,1,11.65,6.69c5.2,6.84,6.38,17.05,5.54,21.79-1.41,8,.62,10.11,5.36,14.17,2,1.74,1.09,5.29.1,9s-2.06,7.79-.28,10.79a30.52,30.52,0,0,0,5.25,6c3.35,3.22,6.83,6.55,6.63,10.86,0,0,0,0,0,0v1.74l-4.72,5-1.06-.93a.84.84,0,0,0-.62-.21.88.88,0,0,0-.58.29l-1.09,1.24c-4.32-7.75-11.45-9.65-17.25-11.19a43.57,43.57,0,0,1-4.78-1.45c-4.87-1.95-4.3-8.8-4.08-10.44a24.61,24.61,0,0,0,6-2c10.81-5.29,11.79-25.84,7.62-39.46-3.69-12-18.44-12.77-22.47-12.25a7,7,0,0,0,0-2,.87.87,0,0,0-1-.63.85.85,0,0,0-.63,1,7.4,7.4,0,0,1-.24,2.7c-10.7,18.74-22.89,15.16-23.42,15a.85.85,0,0,0-.52,1.62c.48.16,10.31,3.14,20.27-8.38a64.79,64.79,0,0,1-4.72,6.57c-7.83,9.23-14.76,7.56-15.07,7.48a.85.85,0,0,0-1,.59.86.86,0,0,0,.6,1.05,8.39,8.39,0,0,0,2.09.22,16,16,0,0,0,8.58-2.76,9.36,9.36,0,0,0-1.3,5.3c.32,3,2.66,4.81,4.72,6.39a11.88,11.88,0,0,1,2.59,2.35c3.11,4.56,3,9.45-.3,15.39a1.06,1.06,0,0,0-.1.3,9.36,9.36,0,0,0,5,9.15,4.58,4.58,0,0,1,2.37,3c.86,3.61-2.07,8.4-3,9.78-2.74,4.1-.13,14.39.19,15.59,0,.67,0,5.21-2.87,8-1.75,1.73-4.25,2.51-7.44,2.33-3.8-.21-9.09-1.49-12.64-6.35-4.23-5.79-4.82-15.23-1.71-27.32a.84.84,0,0,0-.92-1.05c-.18,0-17.31,2.18-23.52,19.13-1.2-1.53-3.09-4.41-2.92-7.1A4.85,4.85,0,0,1,307.29,202.35Z"/><path class="cls-2" d="M394.11,288.23c-9.74,4-22.75,4.53-27.53,4.57l8.52-9.65c1.38-.65,2.25-1.08,2.46-1.19a.84.84,0,0,0,.46-.85l-.16-1.58c1.84-.65,8-2.87,13.14-5.16C391.44,276.75,392.6,282.72,394.11,288.23Z"/><path class="cls-2" d="M418.07,280.75c-5,2.3-9.76,2.52-13.81.65a15.56,15.56,0,0,1-8.11-9.6c5.36-3.75,6-16.12,6.12-18.34l3.93-4.24,2.06,2.11a.86.86,0,0,0,.6.25.55.55,0,0,0,.18,0,.83.83,0,0,0,.62-.54l3.28-9.06,3.42-3.68,1.09,1a.85.85,0,0,0,.56.21h.06a.88.88,0,0,0,.58-.29l8.24-9.4,9.86,2C436.06,237.61,431.17,274.7,418.07,280.75Z"/><path class="cls-2" d="M327.44,261.14a7.69,7.69,0,0,1,.83,0c3.28,0,13.67.08,23.84.19a.83.83,0,0,1,.18-.72l39.07-44.2-1.49-1.3a.88.88,0,0,1-.29-.59.86.86,0,0,1,.21-.61l6.28-7.17c-3.93-7.57-10.59-9.35-16.49-10.91-1.52-.41-3-.8-4.26-1.26-1.9,6.58-4.83,10.56-8.73,11.81a8.58,8.58,0,0,1-2.73.43,12.23,12.23,0,0,1-5.92-1.71c-1,3.67.36,10.3,1.06,12.86l0,.19c0,.23.24,5.81-3.36,9.39a10.59,10.59,0,0,1-7.76,2.86l-1,0c-6-.34-10.8-2.77-13.92-7-4.45-6.09-5.23-15.33-2.31-27.47-4,.87-16.79,4.7-21.34,19.17h0c-.12.38-12,38.73-1.8,67.16a16.54,16.54,0,0,0,9.82,10.15,31,31,0,0,0,11.36,1.88c19,0,43.64-11.59,47.53-13.48l-1.86-17.45c-5.53-.07-39.65-.49-46.14-.45a8.53,8.53,0,0,0-1.58.15c-2.39,5.44-4.87,8.13-7.94,8.4-1.32.11-2.22-.18-2.67-.87a2.27,2.27,0,0,1,.15-2.46c1.19-2.23,5.11-5.41,9.24-6.52,2.68-6.46,5.34-16.73,8.56-30.81a.85.85,0,0,1,1-.63.84.84,0,0,1,.64,1C332.57,244.68,330,254.56,327.44,261.14Z"/><path class="cls-3" d="M366.14,204.91c3.4-1.1,6-4.75,7.75-10.85A.6.6,0,0,1,374,194c-5-2.52-4.8-9-4.54-11.43a25.43,25.43,0,0,1-3.31.22A29,29,0,0,1,355,180.51a1,1,0,0,1-.17-.13c-.12.25-.24.49-.38.74a7.73,7.73,0,0,0,4.19,7.29,6.24,6.24,0,0,1,3.18,4.1c1,4.16-1.92,9.15-3.23,11.11a.08.08,0,0,1,0,0C360,204.54,363.06,205.91,366.14,204.91Z"/><path class="cls-4" d="M366.59,206.34c3.9-1.25,6.83-5.23,8.73-11.81v-.05A.74.74,0,0,0,374,194a.6.6,0,0,0-.06.11c-1.75,6.1-4.35,9.75-7.75,10.85-3.08,1-6.11-.37-7.61-1.25a10.46,10.46,0,0,1-1-.63.75.75,0,1,0-.93,1.18,11,11,0,0,0,1.3.85,12.23,12.23,0,0,0,5.92,1.71A8.58,8.58,0,0,0,366.59,206.34Z"/><path class="cls-3" d="M411.58,240.93h0l-10.77,11.61,0,0s0,0,0,0c-3.84,5.11-11.21,5.72-13.74,5.78.16-2.52.18-8.25-1.82-9.37a1.74,1.74,0,0,0-2.05.3c-2.33,1.86-7.27,10.21-8.45,12.23l-20.78-.24,38.73-43.82,22.44,19.67Z"/><path class="cls-3" d="M288.05,335.27l34.22-39.89a40.39,40.39,0,0,0,6.6.52c15.05,0,33.11-6.95,42.46-11L364.12,293l0,0-73,82.71Z"/><path class="cls-4" d="M470.37,153.61a.19.19,0,0,0,0-.08,1.29,1.29,0,0,0-.05-.21l0-.08a.68.68,0,0,0-.18-.23h0l0,0a.92.92,0,0,0-.24-.13l-.08,0a.83.83,0,0,0-.22,0h-.07a1.31,1.31,0,0,0-.27.06l0,0h0L405.84,181a.87.87,0,0,0-.5.78v10.45a33.54,33.54,0,0,0-5.47-6.16,29.17,29.17,0,0,1-5-5.6c-1.41-2.38-.46-6,.46-9.48,1.08-4.1,2.2-8.34-.64-10.77-4.63-4-6-5.55-4.79-12.58.92-5.19-.29-15.8-5.85-23.12a17.85,17.85,0,0,0-12.85-7.36c-14.53-1.4-17.93,4.65-18.69,7-2.59-.39-10.54-.93-14.77,6.28a35.36,35.36,0,0,0-3.25,9.86,8.29,8.29,0,0,0-5.74-2.85,6.31,6.31,0,0,0-5.17,1.36c-2.5,2.19-2.78,6.17-2.79,7.78,0,2.84,1.09,5,3.12,6.18a6.81,6.81,0,0,0,3.41.84,11.9,11.9,0,0,0,5-1.24c-1.42,8.39-3,16.69-5.82,19.94a39.73,39.73,0,0,1-3.06,3c-3.42,3.15-7,6.4-7.48,13.81-.45,6.22-2,7.11-5.13,8.88a33.57,33.57,0,0,0-4.64,3.06,6.53,6.53,0,0,0-2.62,4.8c-.25,4,2.93,7.91,4,9.12-1.33,4.48-11.43,40.51-1.64,67.78a18.12,18.12,0,0,0,10.79,11.14,24.84,24.84,0,0,0,3.61,1.12l-33.83,39.44a.85.85,0,0,0-.2.61l3.23,42.86a.87.87,0,0,0,.58.74.84.84,0,0,0,.27,0,.86.86,0,0,0,.64-.28l18.62-21.1c-.4,10.5,1.77,34.71,1.87,35.82a.85.85,0,0,0,.84.78l84.8.32h0a.85.85,0,0,0,.83-.67c12.77-60.31,2.22-92.07-1.25-102.5-.35-1.06-.63-1.9-.81-2.56-1.7-6-3-12.78-3.35-14.84.72-.34,1.4-.67,2-1a17.22,17.22,0,0,0,8.91,10.3,15.51,15.51,0,0,0,6.54,1.41,20.81,20.81,0,0,0,8.7-2.07c14.61-6.75,19.3-47.05,19.71-50.84,1-1.34,5.37-7.35,7.33-11.87h3.6a.85.85,0,0,0,.81-.6l20.1-65.09A.67.67,0,0,0,470.37,153.61Zm-145.59-2.38c-1.48-.84-2.26-2.46-2.25-4.7,0-1.07.18-4.72,2.21-6.5a4.61,4.61,0,0,1,3.83-1c4.51.59,5.31,3.24,5.43,3.82-.45,2.33-.86,4.79-1.29,7.31C329.68,151.94,326.74,152.34,324.78,151.23Zm-17.49,51.12a31.24,31.24,0,0,1,4.42-2.9c3.3-1.87,5.47-3.11,6-10.24.48-6.74,3.62-9.62,6.94-12.68a41.25,41.25,0,0,0,3.19-3.16c3.37-3.85,4.9-13,6.52-22.6,1.29-7.69,2.63-15.64,4.91-19.52,4.43-7.56,13.35-5.44,13.72-5.34a.84.84,0,0,0,.69-.13.82.82,0,0,0,.36-.59c0-.08,1.15-7.92,17.06-6.38a16.13,16.13,0,0,1,11.65,6.69c5.2,6.84,6.38,17.05,5.54,21.79-1.41,8,.62,10.11,5.36,14.17,2,1.74,1.09,5.29.1,9s-2.06,7.79-.28,10.79a30.52,30.52,0,0,0,5.25,6c3.35,3.22,6.83,6.55,6.63,10.86,0,0,0,0,0,0v1.74l-4.72,5-1.06-.93a.84.84,0,0,0-.62-.21.88.88,0,0,0-.58.29l-1.09,1.24c-4.32-7.75-11.45-9.65-17.25-11.19a43.57,43.57,0,0,1-4.78-1.45c-4.87-1.95-4.3-8.8-4.08-10.44a24.61,24.61,0,0,0,6-2c10.81-5.29,11.48-26.9,7.31-40.52-3.69-12-18.13-11.71-22.16-11.19a7,7,0,0,0,0-2,.87.87,0,0,0-1-.63.85.85,0,0,0-.63,1,7.4,7.4,0,0,1-.24,2.7c-10.7,18.74-22.89,15.16-23.42,15a.85.85,0,0,0-.52,1.62c.48.16,10.31,3.14,20.27-8.38a64.79,64.79,0,0,1-4.72,6.57c-7.83,9.23-14.76,7.56-15.07,7.48a.85.85,0,0,0-1,.59.86.86,0,0,0,.6,1.05,8.39,8.39,0,0,0,2.09.22,16,16,0,0,0,8.58-2.76,9.36,9.36,0,0,0-1.3,5.3c.32,3,2.66,4.81,4.72,6.39a11.88,11.88,0,0,1,2.59,2.35c3.11,4.56,3,9.45-.3,15.39a1.06,1.06,0,0,0-.1.3,9.36,9.36,0,0,0,5,9.15,4.58,4.58,0,0,1,2.37,3c.86,3.61-2.07,8.4-3,9.78-2.74,4.1-.13,14.39.19,15.59,0,.67,0,5.21-2.87,8-1.75,1.73-4.25,2.51-7.44,2.33-3.8-.21-9.09-1.49-12.64-6.35-4.23-5.79-4.82-15.23-1.71-27.32a.84.84,0,0,0-.92-1.05c-.18,0-17.31,2.18-23.52,19.13-1.2-1.53-3.09-4.41-2.92-7.1A4.85,4.85,0,0,1,307.29,202.35Zm123.39,15.28a.87.87,0,0,0-.56-.62,16.17,16.17,0,0,1-2.68-1.33c-.47-.28-.72-.63-.65-.91s.36-.44.89-.44a12.68,12.68,0,0,1,3.86,1,10.77,10.77,0,0,1,1.12,2.55.85.85,0,0,0,.82.64.83.83,0,0,0,.22,0,.85.85,0,0,0,.6-1,12.33,12.33,0,0,0-1.11-2.68.87.87,0,0,0-.21-.59,9,9,0,0,0-.72-.73,5.1,5.1,0,0,0-1.13-1,18.31,18.31,0,0,0-3.05-2c-.56-.3-.9-.62-.92-.89a.53.53,0,0,1,0-.12c.88-.29,3.52.32,5.91,2,1,.71,3.23,2.6,2.87,4.85a.85.85,0,0,0,.7,1h.14a.84.84,0,0,0,.83-.72c.37-2.27-.89-4.58-3.55-6.5a13.21,13.21,0,0,0-5.65-2.37,1.34,1.34,0,0,1,.5-.27c1.34-.42,3.86.44,7.49,2.56a7.36,7.36,0,0,1,3.2,4.89.85.85,0,0,0,1.69-.22,18,18,0,0,1,0-4c.41-2.26-2.92-3.76-3.22-3.89-2-1.14-2.46-2.54-2.45-3.52a48.78,48.78,0,0,0,5.76,3.51c4.24,2.27,4.06,4.63,3.78,8.21,0,.42-.07.86-.1,1.3a7.2,7.2,0,0,1-.59,2.16h0c-1.46,3.63-5.25,9.16-7.17,11.77L427,228l-.65-.57,5-5.26a.87.87,0,0,0,.21-.77Zm-5.3,11.27-7.45,8.5-26.3-23.05,5.75-6.56.17,0a.85.85,0,0,0,.46-.68l1.07-1.22Zm-13.8,12h0l-10.77,11.61,0,0s0,0,0,0c-3.84,5.11-11.21,5.72-13.74,5.78.16-2.52.18-8.25-1.82-9.37a1.74,1.74,0,0,0-2.05.3c-2.33,1.86-7.27,10.21-8.45,12.23l-20.78-.24,38.73-43.82,22.44,19.67Zm-1.6,4.23-1.45,4L407.36,248Zm-15.26,25.53c-4.92,2.67-14.12,6.05-17.05,7.1l-1.62-15.19c1.75-3,6.25-10.44,8.15-12,.11-.09.18-.12.18-.13.79.51,1.27,5.29.86,8.61a.85.85,0,0,0,.19.65.84.84,0,0,0,.61.3c.4,0,8.91.4,14.4-4.62C400.08,259.72,398.86,268.45,394.72,270.69Zm-42.9-123.43c.6-.7,1.15-1.37,1.69-2l.86-1.09.5-.65.06-.08h0c4.54-6,6.34-10.33,7-13.1,2.62-.4,17.51-2.14,21,9.29,4,13,3.42,34.24-6.59,39.13-10.17,5-20.59.29-20.7.24l-.18,0c2.41-5.5,2.1-10.37-.94-14.82a13,13,0,0,0-3-2.76c-1.88-1.43-3.82-2.9-4.06-5.21S348.68,150.93,351.82,147.26ZM307.56,282.15c-10.21-28.43,1.68-66.78,1.8-67.16h0c4.55-14.47,17.31-18.3,21.34-19.17-2.92,12.14-2.14,21.38,2.31,27.47,3.12,4.27,7.93,6.7,13.92,7l1,0a10.59,10.59,0,0,0,7.76-2.86c3.6-3.58,3.37-9.16,3.36-9.39l0-.19c-.81-2.95-2.46-11.28-.45-14.3,1.31-2,4.23-7,3.23-11.11a6.24,6.24,0,0,0-3.18-4.1,7.73,7.73,0,0,1-4.19-7.29c.14-.25.26-.49.38-.74a1,1,0,0,0,.17.13,29,29,0,0,0,11.14,2.23,25.43,25.43,0,0,0,3.31-.22c-.27,2.55-.45,9.49,5.2,11.75a45.94,45.94,0,0,0,5,1.52c5.9,1.56,12.56,3.34,16.49,10.91l-6.28,7.17a.86.86,0,0,0-.21.61.88.88,0,0,0,.29.59l1.49,1.3-39.07,44.2a.83.83,0,0,0-.18.72c-10.17-.11-20.56-.21-23.84-.19a7.69,7.69,0,0,0-.83,0c2.59-6.58,5.13-16.46,8.25-30.07a.84.84,0,0,0-.64-1,.85.85,0,0,0-1,.63c-3.22,14.08-5.88,24.35-8.56,30.81-4.13,1.11-8.05,4.29-9.24,6.52a2.27,2.27,0,0,0-.15,2.46c.45.69,1.35,1,2.67.87,3.07-.27,5.55-3,7.94-8.4a8.53,8.53,0,0,1,1.58-.15c6.49,0,40.61.38,46.14.45l1.86,17.45c-3.89,1.89-28.54,13.48-47.53,13.48a31,31,0,0,1-11.36-1.88A16.54,16.54,0,0,1,307.56,282.15Zm17-18.57c-1.86,3.86-3.78,5.89-5.93,6.08a1.93,1.93,0,0,1-1.1-.11c0-.06,0-.45.52-1.2A15.61,15.61,0,0,1,324.53,263.58Zm-36.48,71.69,34.22-39.89a40.39,40.39,0,0,0,6.6.52c15.05,0,33.11-6.95,42.46-11L364.12,293l0,0-73,82.71Zm108.44,57.25-83.33-.32c-.4-4.68-2.46-29.25-1.65-37l53.57-60.71h1c4.42,0,18-.37,28.48-4.64.16.5.35,1.07.56,1.71C398.57,301.87,408.94,333.1,396.49,392.52Zm-2.38-104.29c-9.74,4-22.75,4.53-27.53,4.57l8.52-9.65c1.38-.65,2.25-1.08,2.46-1.19a.84.84,0,0,0,.46-.85l-.16-1.58c1.84-.65,8-2.87,13.14-5.16C391.44,276.75,392.6,282.72,394.11,288.23Zm24-7.48c-5,2.3-9.76,2.52-13.81.65a15.56,15.56,0,0,1-8.11-9.6c5.36-3.75,6-16.12,6.12-18.34l3.93-4.24,2.06,2.11a.86.86,0,0,0,.6.25.55.55,0,0,0,.18,0,.83.83,0,0,0,.62-.54l3.28-9.06,3.42-3.68,1.09,1a.85.85,0,0,0,.56.21h.06a.88.88,0,0,0,.58-.29l8.24-9.4,9.86,2C436.06,237.61,431.17,274.7,418.07,280.75Zm30.73-62.87h-2.34a7.1,7.1,0,0,0,.32-1.53c0-.44.06-.86.09-1.28.29-3.62.56-7-4.66-9.84-5-2.7-6.49-4.12-6.5-4.13a.87.87,0,0,0-.75-.25.85.85,0,0,0-.63.49c-.66,1.44-.9,4.74,3,6.93,1,.43,2.41,1.42,2.3,2.06a2.17,2.17,0,0,0,0,.25,7.75,7.75,0,0,0-2.32-2.08c-2.62-1.54-6.39-3.5-8.85-2.72a3,3,0,0,0-1.82,1.52,3,3,0,0,0-1.14,2.34,2.87,2.87,0,0,0,1.81,2.26,15.76,15.76,0,0,1,1.36.81,6.54,6.54,0,0,0-1-.08,2.47,2.47,0,0,0-2.53,1.7,2.51,2.51,0,0,0,1.43,2.81,25,25,0,0,0,2.53,1.3l.64,2.93-4.71,5-23.15-20.29,4.92-5.25a.83.83,0,0,0,.23-.58V182.28L466.41,156l-24.9,28.83a7.89,7.89,0,1,0,1.25,1.16l24.76-28.68Z"/><path class="cls-3" d="M240.51,194.83a28.9,28.9,0,0,0,27.43-4.52c-2.44-3-4.12-7.37-4.1-13.59-.4.52-7.18,5.26-13.49,5.26h-.66a17.42,17.42,0,0,1-7.84-2.12q.53.36,1.08.69s3.52,7.22-3.86,12.3a19,19,0,0,1,1.38,2Z"/><path class="cls-1" d="M212.52,241.51a17.67,17.67,0,0,1,4.25-14,31.14,31.14,0,0,0-4.94-3.93,36.14,36.14,0,0,1-3.9-2.83l-5.39,16a.92.92,0,0,1-.2.31l.67,4.33Z"/><path class="cls-3" d="M172.48,177.34a4,4,0,0,0-.94.84,3.4,3.4,0,0,0-.07,3.42c.23.42.44.53.5.54a7.16,7.16,0,0,0,.82-.15,3.39,3.39,0,0,1-.73-1.55A5.08,5.08,0,0,1,172.48,177.34Z"/><path class="cls-3" d="M178.55,180.58l-1.1-.13c0,.13-.09.32-.14.57a2.39,2.39,0,0,1-1.88,1.89c.74,2.88,3.09,12.41,3.3,17.08h13.46l-.22-2.12a11.38,11.38,0,0,1-.33-3.18L190.53,184c-.13-1.31-4.26-3.66-8.38-5.23a2.47,2.47,0,0,0,1.36,2.84c1.69,1.05,1.78,2.6,1.86,4,.09,1.59.16,3,2.48,4.1a.84.84,0,0,1,.39,1.14.86.86,0,0,1-.76.48.88.88,0,0,1-.38-.09c-3.21-1.58-3.34-3.86-3.43-5.53-.08-1.34-.16-2.06-1-2.61a4.19,4.19,0,0,1-1.7-5.79.86.86,0,0,1,1-.38,32.88,32.88,0,0,1,8.27,4.15l-2.09-20.18a2.63,2.63,0,0,0-2.68,2.39c-.36,3.42,0,11.54,0,11.62a.86.86,0,0,1-.72.88.84.84,0,0,1-.95-.64s-1-3.71-4.32-4.83c-2.79-.94-6.31-.4-7.72-.12a2.58,2.58,0,0,0,.58,1.54,2.67,2.67,0,0,0,2.06.7c3.67-.06,6.16.12,7.45,2.93a.85.85,0,0,1-1,1.16c-1.12-.37-4.33-1.09-5.67,0-.15.15-1.77,1.8-1.39,3.65.17.86.7,1.16,1.14,1.16h0a.74.74,0,0,0,.77-.58c.2-1.07.48-1.82,1.17-2a1,1,0,0,1,.6,0l1.32.15a.85.85,0,1,1-.19,1.69Z"/><path class="cls-1" d="M183.9,245l2.39-3.56a.83.83,0,0,1,.7-.38h0l14.28.24-5.75-37.21a17.21,17.21,0,0,1-1.91-2.43h-14.9l-.71,30.7a69.91,69.91,0,0,0,2.13,8c.95,3.1,2,6.61,2.79,10.36,1.1,5.43,1.94,13.9,2.5,19.5.1,1,.19,1.94.28,2.8a15.85,15.85,0,0,0,5.11,6.45l-7.06-33.81A.88.88,0,0,1,183.9,245Z"/><path class="cls-3" d="M211.16,294.45a.85.85,0,0,1,.66-.81,4.24,4.24,0,0,1,3.12.34c.1-1.44.69-1.89,1-2l.18-.05a4.37,4.37,0,0,1,3.57.63c1.67,1.24,1.91,3.67,2,4.58.49,4.84,1.63,5.9,2.09,6.13l.13.05-1.36-9.77a.81.81,0,0,1,.21-.68c.26-.29,1.32-1.12,4,.59,1.51,1,2,3.08,2.44,5.13.33,1.48.68,3,1.35,3.62a10.57,10.57,0,0,0,3,1.28,7.09,7.09,0,0,1-.85-2.6,2.85,2.85,0,0,1,.82-2.8,1.61,1.61,0,0,1,1.74,0,23.82,23.82,0,0,0,4,1.58c2.85,1,5.79,1.93,7.42,4.41a.81.81,0,0,1,.44-.09l23.66,1.7-9.63-57.85L188.84,247a.85.85,0,0,1-.83-.86.84.84,0,0,1,.84-.84h0l73,.87a.85.85,0,0,1,.83.71l9.76,58.64,4.13-1.35,16.65-15.45-19.75-1.52,2,12.37,10-8.47-10-.77a.85.85,0,0,1-.78-.92.86.86,0,0,1,.91-.78l12.06.94a.85.85,0,0,1,.48,1.5L275.45,301.8a.87.87,0,0,1-.85.15.85.85,0,0,1-.54-.66l-9.32-57.22-77.3-1.27-1.93,2.88L197.26,302l14.3.29A54.57,54.57,0,0,1,211.16,294.45Z"/><path class="cls-3" d="M218.82,306.5a.85.85,0,0,1-.54-.19c-1.43-1.16-2.51-6.66-2.82-8.35l-.18-.91a3.22,3.22,0,0,0-1-1.45,2.13,2.13,0,0,0-1.47-.4c0,4.83.63,11.44,2.33,12.27,2.69,1.31,21.34,3.54,30,1.93.45-.44,1.62-1.95.09-4.35-1.31-2-3.87-2.88-6.59-3.78a26,26,0,0,1-4.28-1.71,3.48,3.48,0,0,0,.07,1.77,4.47,4.47,0,0,0,2.44,3.05.85.85,0,0,1-.48,1.62c-.57-.12-5.55-1.27-7-2.55-1.09-1-1.48-2.69-1.89-4.52s-.78-3.48-1.7-4.06a5.61,5.61,0,0,0-1.49-.73l1.35,9.72a.83.83,0,0,1-.39.84,2.37,2.37,0,0,1-2.28.06c-1.61-.79-2.61-3.24-3-7.48-.07-.71-.26-2.59-1.33-3.39a2.57,2.57,0,0,0-1.95-.37,5.35,5.35,0,0,0,.11,2.72l.07.36a7.44,7.44,0,0,1,.41,2.09c.58,2.86,1.46,5.84,2,6.3a.84.84,0,0,1,.13,1.19A.86.86,0,0,1,218.82,306.5Z"/><path class="cls-1" d="M267.42,307.14l-20-1.44a4.79,4.79,0,0,1-.2,3.67A81.07,81.07,0,0,0,267.42,307.14Z"/><path class="cls-4" d="M248.55,311.1c-1,0-1.93,0-2.9-.06a47.35,47.35,0,0,1-8.57.63c-9.15,0-20.16-1.46-22.65-2.67-1-.52-1.76-1.89-2.25-3.62-13.14,41.34-3.09,82.26-1.63,87.71h35l3-48.08L250,393.09h37.29c.39-2,1.67-9.07,4.14-28,2.84-21.71-7.33-56.7-8.7-61.25A88.54,88.54,0,0,1,248.55,311.1Z"/><path class="cls-1" d="M305.73,269.49v-.16c-.72-7-5.41-41.77-8-54.34-2.28-11.12-13.09-15.73-19.59-18.49a19.18,19.18,0,0,1-9.06-4.92A30.88,30.88,0,0,1,241.64,197c1.43,3.05,2.4,7.2-.45,10.47,0,0,12.78,12.84-2.89,16.95s-17.44,7.35-15.53,10.55a36.54,36.54,0,0,0-4.8-6.27,16.06,16.06,0,0,0-3.74,12.84l51.25.84a.87.87,0,0,1,.83.72l6,37a45.84,45.84,0,0,1,4.72-4.43.92.92,0,0,1-.76-.43c-.28-.48-6.6-11.88-.05-27.75.5-1.22.93-2.4,1.31-3.55-1.39-7.57-2.09-14.17-1.34-16.7.43-1.45,1-2.24,1.84-2.4a1.63,1.63,0,0,1,1.63.69c1.81,2.19,2.43,9.46-.36,18.43,1.85,9.81,4.82,21.31,7.11,27.21a6.68,6.68,0,0,1,2.59.37c3.13,1.13,4.19,3,4.14,4.4a2.34,2.34,0,0,1-1.7,2.21c-.6.17-2.72.47-4.94-2.86a16.26,16.26,0,0,1-1.18-2.29c-5.28,1.09-11.39,7.81-12.66,9.25l.52,3.18,22.1,1.7a.85.85,0,0,1,.73.57.84.84,0,0,1-.22.9l-15.62,14.5a105.36,105.36,0,0,0,14.94-7.35C307.65,288.33,306.4,276.07,305.73,269.49Z"/><path class="cls-1" d="M278.36,226.57a3.34,3.34,0,0,0-.52,1.15c-.56,1.89-.15,6.57.78,12.3C280.33,232.41,279.17,227.35,278.36,226.57Z"/><path class="cls-1" d="M291,276.52a.63.63,0,0,0,.47-.64c0-.81-.89-2-3-2.74a4.78,4.78,0,0,0-1.3-.27,10.66,10.66,0,0,0,.8,1.48C289.11,276.11,290.33,276.71,291,276.52Z"/><path class="cls-3" d="M351.82,147.26c.6-.7,1.15-1.37,1.69-2l.86-1.09.5-.65.06-.08h0c4.54-6,6.34-10.33,7-13.1,2.62-.4,17.51-2.14,21,9.29,4,13,3.42,34.24-6.59,39.13-10.17,5-20.59.29-20.7.24l-.18,0c2.41-5.5,2.1-10.37-.94-14.82a13,13,0,0,0-3-2.76c-1.88-1.43-3.82-2.9-4.06-5.21S348.68,150.93,351.82,147.26Z"/><rect class="cls-4" x="465.24" y="150.85" width="7.36" height="7.36" transform="translate(218.1 -270.74) rotate(41.23)"/><path class="cls-1" d="M324.78,151.23c-1.48-.84-2.26-2.46-2.25-4.7,0-1.07.18-4.72,2.21-6.5a4.61,4.61,0,0,1,3.83-1c4.51.59,5.31,3.24,5.43,3.82-.45,2.33-.86,4.79-1.29,7.31C329.68,151.94,326.74,152.34,324.78,151.23Z"/><path class="cls-3" d="M430.68,217.63a.87.87,0,0,0-.56-.62,16.17,16.17,0,0,1-2.68-1.33c-.47-.28-.72-.63-.65-.91s.36-.44.89-.44a12.68,12.68,0,0,1,3.86,1,10.77,10.77,0,0,1,1.12,2.55.85.85,0,0,0,.82.64.83.83,0,0,0,.22,0,.85.85,0,0,0,.6-1,12.33,12.33,0,0,0-1.11-2.68.87.87,0,0,0-.21-.59,9,9,0,0,0-.72-.73,5.1,5.1,0,0,0-1.13-1,18.31,18.31,0,0,0-3.05-2c-.56-.3-.9-.62-.92-.89a.53.53,0,0,1,0-.12c.88-.29,3.52.32,5.91,2,1,.71,3.23,2.6,2.87,4.85a.85.85,0,0,0,.7,1h.14a.84.84,0,0,0,.83-.72c.37-2.27-.89-4.58-3.55-6.5a13.21,13.21,0,0,0-5.65-2.37,1.34,1.34,0,0,1,.5-.27c1.34-.42,3.86.44,7.49,2.56a7.36,7.36,0,0,1,3.2,4.89.85.85,0,0,0,1.69-.22,18,18,0,0,1,0-4c.41-2.26-2.92-3.76-3.22-3.89-2-1.14-2.46-2.54-2.45-3.52a48.78,48.78,0,0,0,5.76,3.51c4.24,2.27,4.06,4.63,3.78,8.21,0,.42-.07.86-.1,1.3a7.2,7.2,0,0,1-.59,2.16h0c-1.46,3.63-5.25,9.16-7.17,11.77L427,228l-.65-.57,5-5.26a.87.87,0,0,0,.21-.77Z"/><path class="cls-1" d="M425.38,228.9l-7.45,8.5-26.3-23.05,5.75-6.56.17,0a.85.85,0,0,0,.46-.68l1.07-1.22Z"/><polygon class="cls-4" points="409.98 245.16 408.53 249.17 407.36 247.97 409.98 245.16"/><path class="cls-3" d="M394.72,270.69c-4.92,2.67-14.12,6.05-17.05,7.1l-1.62-15.19c1.75-3,6.25-10.44,8.15-12,.11-.09.18-.12.18-.13.79.51,1.27,5.29.86,8.61a.85.85,0,0,0,.19.65.84.84,0,0,0,.61.3c.4,0,8.91.4,14.4-4.62C400.08,259.72,398.86,268.45,394.72,270.69Z"/><path class="cls-2" d="M324.53,263.58c-1.86,3.86-3.78,5.89-5.93,6.08a1.93,1.93,0,0,1-1.1-.11c0-.06,0-.45.52-1.2A15.61,15.61,0,0,1,324.53,263.58Z"/><path class="cls-1" d="M396.49,392.52l-83.33-.32c-.4-4.68-2.46-29.25-1.65-37l53.57-60.71h1c4.42,0,18-.37,28.48-4.64.16.5.35,1.07.56,1.71C398.57,301.87,408.94,333.1,396.49,392.52Z"/><path class="cls-3" d="M448.8,217.88h-2.34a7.1,7.1,0,0,0,.32-1.53c0-.44.06-.86.09-1.28.29-3.62.56-7-4.66-9.84-5-2.7-6.49-4.12-6.5-4.13a.87.87,0,0,0-.75-.25.85.85,0,0,0-.63.49c-.66,1.44-.9,4.74,3,6.93,1,.43,2.41,1.42,2.3,2.06a2.17,2.17,0,0,0,0,.25,7.75,7.75,0,0,0-2.32-2.08c-2.62-1.54-6.39-3.5-8.85-2.72a3,3,0,0,0-1.82,1.52,3,3,0,0,0-1.14,2.34,2.87,2.87,0,0,0,1.81,2.26,15.76,15.76,0,0,1,1.36.81,6.54,6.54,0,0,0-1-.08,2.47,2.47,0,0,0-2.53,1.7,2.51,2.51,0,0,0,1.43,2.81,25,25,0,0,0,2.53,1.3l.64,2.93-4.71,5-23.15-20.29,4.92-5.25a.83.83,0,0,0,.23-.58V182.28L466.41,156l-24.9,28.83a7.89,7.89,0,1,0,1.25,1.16l24.76-28.68Z"/><path class="cls-1" d="M362,130.3s18.26-.27,22.12,13.7l1.92,8.73s5.36-13.72-1.5-21.28c-7.39-8.13-20.32-7.72-20.32-7.72l-1.18.81Z"/><path class="cls-5" d="M361.18,130.3s22.25-.07,24.81,22.43"/><path class="cls-5" d="M370.54,150.88s.68,1.81,1.82,4.17c.93,1.93,2.1,3.1,1.73,4.49-.64,2.39-4,2-4,2"/><path class="cls-4" d="M356.28,152.59c0,1.61,1,2.92,2.26,2.92s2.25-1.31,2.25-2.92-1-2.92-2.25-2.92S356.28,151,356.28,152.59Z"/><path class="cls-4" d="M375.1,152c0,1.61,1,2.92,2.25,2.92s2.26-1.31,2.26-2.92-1-2.92-2.26-2.92S375.1,150.4,375.1,152Z"/><path class="cls-5" d="M368.08,167.54s-3.3,2.43-6-.58"/><path class="cls-5" d="M378.84,144.51a3.09,3.09,0,0,0-1.91-.69,2.47,2.47,0,0,0-1.83.69"/><path class="cls-5" d="M360.41,144.51a3.09,3.09,0,0,0-1.91-.69,2.47,2.47,0,0,0-1.83.69"/><path class="cls-3" d="M96.47,119.86s-9.13,4.55-9.25,17.77-.76,21.38,1,27.13,5.12,11.53,15.79,11c0,0-.34,8.51-2.3,10.89s3.4,8,8.67,8.75,18.75-.75,21.13-13.5c0,0-3.78-11.12-3-15s8.76-5.25,10.07-8.5,3.36-7.61-1.23-13S131.59,110.23,96.47,119.86Z"/><path class="cls-4" d="M87.28,143.59a.74.74,0,0,0-.77.72l-.29,8.79a.75.75,0,0,0,1.5,0l.29-8.78A.75.75,0,0,0,87.28,143.59Z"/><path class="cls-4" d="M110.37,152.54c1.25,0,2.3-1.23,2.35-2.85s-.91-2.95-2.16-3-2.29,1.24-2.35,2.85S109.13,152.5,110.37,152.54Z"/><path class="cls-4" d="M91.59,151.36c1.24,0,2.29-1.23,2.35-2.85s-.92-2.95-2.17-3-2.29,1.24-2.34,2.85S90.34,151.32,91.59,151.36Z"/><path class="cls-4" d="M106.94,163.33a.75.75,0,0,0-1.06,0,3.61,3.61,0,0,1-5,.31.75.75,0,1,0-.92,1.18,5.79,5.79,0,0,0,3.23,1.18,4.84,4.84,0,0,0,3.75-1.64A.75.75,0,0,0,106.94,163.33Z"/><path class="cls-4" d="M92.48,136.52a3.81,3.81,0,0,0-2.43.81.75.75,0,0,0,1,1.14,2.43,2.43,0,0,1,1.43-.45h0a1.78,1.78,0,0,1,1.22.48.79.79,0,0,0,.56.27.75.75,0,0,0,.6-1.22A3.34,3.34,0,0,0,92.48,136.52Z"/><path class="cls-4" d="M110.94,137.11h0a3.81,3.81,0,0,0-2.43.81.75.75,0,0,0-.08,1.06.74.74,0,0,0,1,.08,2.43,2.43,0,0,1,1.43-.45h0a1.78,1.78,0,0,1,1.22.48.75.75,0,0,0,.56.27.75.75,0,0,0,.6-1.22A3.17,3.17,0,0,0,110.94,137.11Z"/><path class="cls-4" d="M131.88,159.83a1.89,1.89,0,0,0,.66.13,2.17,2.17,0,0,0,1.6-.67.75.75,0,0,0-1.06-1.07.6.6,0,0,1-.65.21.66.66,0,0,1-.4-.56c0-.41.44-.69.71-.82,1.36-.65,1.59-.63,1.87-.59a3.85,3.85,0,0,0,1.62-.17,3.68,3.68,0,0,0,2.33-3.33,2.89,2.89,0,0,0-4.44-3,3.21,3.21,0,0,0-1.63,2.39.74.74,0,0,0,.72.77.76.76,0,0,0,.78-.73,1.81,1.81,0,0,1,.9-1.14,1.54,1.54,0,0,1,1.55-.09,1.67,1.67,0,0,1,.63,1.68,2,2,0,0,1-2.3,2.14c-.58-.06-1.05-.05-2.68.74a2.42,2.42,0,0,0-1.56,2.22A2.17,2.17,0,0,0,131.88,159.83Z"/><path class="cls-1" d="M70.85,261.81c-.75,9.19-1.41,18.64-2,27.63l-47.33-92.7a13.07,13.07,0,0,0,8.08-1.11,10.87,10.87,0,0,0,4.75-5.23Z"/><path class="cls-1" d="M35.42,188.67c1.73.09,5.2,0,7.5-2.06a6.18,6.18,0,0,0,1.79-2.81l27.53,54.08a.85.85,0,0,0,.76.47l.09,0c-.71,6.32-1.37,13.19-2,20.27Z"/><path class="cls-3" d="M43.36,181.35a5.17,5.17,0,0,1-1.56,4c-2.5,2.22-7.15,1.57-7.2,1.56a.83.83,0,0,0-.78.31l-.09,0a.85.85,0,0,0-.37,1.14v0a9.75,9.75,0,0,1-4.52,5.72c-3.9,2.08-8.56.6-8.6.58h0a1,1,0,0,0-.3,0l-.07,0a1.05,1.05,0,0,0-.24.06h0l-.06.05-.16.13a.39.39,0,0,0-.08.1s-.05.05-.06.08c-3.8,7.22-11.15,5.79-13.19,5.23L2.22,145.57Z"/><path class="cls-3" d="M16.8,238.82c-.66-1.59-1.86-7.8-2.43-11l2-6.48,6.58-2.12a3,3,0,0,1-.24,1.59,2.26,2.26,0,0,1-1.42,1.1l-3.12,1a.75.75,0,0,0-.52.81l.88,6.88a.75.75,0,1,0,1.48-.19l-.25-2a4.93,4.93,0,0,1,2.78-3.67,69.66,69.66,0,0,1,7.23-2.51.61.61,0,0,1,.44.16,1.24,1.24,0,0,1,.28.6,51.23,51.23,0,0,0-7.14,3c-3.12,1.75-2.11,6.73-2.06,6.94a.74.74,0,0,0,.73.59.39.39,0,0,0,.15,0,.74.74,0,0,0,.58-.88s-.83-4.11,1.33-5.32a49.46,49.46,0,0,1,7-2.89.75.75,0,0,1,.21.58c-.13,1.07-2.21,2.57-4.13,3.61l-.23.12-1,.51a.74.74,0,0,0-.35.41,5.46,5.46,0,0,0-1.43,3.61.76.76,0,0,0,.7.8h.05a.74.74,0,0,0,.75-.7,3.47,3.47,0,0,1,1.47-3l.12-.06.53-.27c2.25-1,4.19-1.5,4.49-1.17a.24.24,0,0,1,0,.1c.08,1.58-2.58,2.79-3.61,3.13a.75.75,0,0,0-.51.64l-1.06,10.59-3.53,3C21.5,244.34,17.41,240.31,16.8,238.82Z"/><path class="cls-2" d="M22.38,249.84l5.06-4.3,22,40.69C42.1,282.76,28,259.76,22.38,249.84Z"/><path class="cls-1" d="M28.61,243.51a.29.29,0,0,0-.07-.08l1-10.16c1.21-.48,4.3-2,4.18-4.45a1.59,1.59,0,0,0-.79-1.35,2.46,2.46,0,0,0-1.34-.25,3.93,3.93,0,0,0,1.16-2.1,2.28,2.28,0,0,0-.77-2,3,3,0,0,0-.74-1.81,2,2,0,0,0-1.52-.62h0c-.92,0-5.74,1.83-7.74,2.6a5.85,5.85,0,0,0-2.63,2.19l-.17-1.39,2.53-.81a3.74,3.74,0,0,0,2.3-1.85,5,5,0,0,0,.18-3.48.74.74,0,0,0-.94-.47l-6.29,2L7,202.26a16.74,16.74,0,0,0,2.78.24,11.75,11.75,0,0,0,10.19-5.24l48.77,95.52c-.49,8.18-.89,15.88-1.19,22.53Z"/><path class="cls-2" d="M68.56,337.62c-.11-.83,0-7.26.45-16.86a.77.77,0,0,0,.25-.1,1,1,0,0,0,.41-1.35l-.55-1c.29-6.6,1.35-25.77,1.35-25.77.55-9.21,1.21-19,2-28.61l.19-2.36C74.33,240.73,76.5,221.33,79,212a.85.85,0,1,0-1.64-.45c-1.49,5.46-2.85,14.23-4.07,24.67L68,225.78a.85.85,0,0,0,.56-.72c0-.05.59-5.56,5.46-17.25,4-9.65,19.78-16.62,24.89-18.66C90.65,217.07,86.14,284.86,83.13,330q-.39,5.88-.75,11.24v3.09C78.13,343.86,69.51,342,68.56,337.62Z"/><path class="cls-3" d="M151.36,392.4l-36.57,0L112.2,380l-5.73-31.13a.75.75,0,1,0-1.48.27l3.59,19.48a.74.74,0,0,0-.16.36l-2.53,23.3H73V344.16a.74.74,0,0,0-.19-.48,37.45,37.45,0,0,0,10.37,2.47h.07a.81.81,0,0,0,.57-.23.82.82,0,0,0,.28-.62v-4c.22-3.26.45-6.73.69-10.35,3.24,1.07,13.56,4.19,24.06,4.19a37.16,37.16,0,0,0,12.69-2,.74.74,0,0,0,.21-.13c-.36,6-.77,11-1.2,13.24a.73.73,0,0,0,.15.6.74.74,0,0,0,.55.29c.48,0,4.73.23,10.35.23a149.17,149.17,0,0,0,18.14-1Z"/><path class="cls-2" d="M161,341.54c-1.79,1.65-5.75,2.69-10.49,3.35l-.06,0-.17.05c-10.42,1.4-24.54.95-28.1.81,1.46-9.67,2.57-47.56,2.62-49.21,0,0,0,0,0,0l2.76,0a179.21,179.21,0,0,0,31.39-2.56Z"/><path class="cls-1" d="M118.88,295.48v-3.25H103.23a6.83,6.83,0,0,1-6.42-5,6,6,0,0,1-2.3-1.82,5.15,5.15,0,0,1-.81-4.16,5.89,5.89,0,0,1-1.35-4.34v-.2c0-2.52,2.52-4.57,6-4.87a5.61,5.61,0,0,1,4.35,1.39,2.7,2.7,0,0,0,.27-.39c1.16-2,.41-3.67-.84-6.37-.37-.81-.8-1.72-1.2-2.73a4.59,4.59,0,0,1,0-3.94,5.83,5.83,0,0,1,3.52-2.57.76.76,0,0,1,.85.4L108.4,264c2.32,4.73,8.11,7.26,10.48,8.12V272a.85.85,0,0,1,.6-.81c.31-.1,2-.64,4.7-1.4-5-48.43,12.27-83.79,12.42-84.15.05-.11.61-1.25.81-1.74-1.94-.54-5.32-1.38-6.2-1.58-.61,7-7.36,12.92-16,13.84a22.63,22.63,0,0,1-2.92.11c-6.63-.21-10.52-3.7-11.89-6-8,27.94-12.5,94.42-15.49,139.2,3.67,1.22,23,7.19,36.14,2.35a.72.72,0,0,1,.78.17c.87-14.92,1.47-35.19,1.48-35.48v0c-2-.05-3.31-.11-3.58-.12A.86.86,0,0,1,118.88,295.48Z"/><path class="cls-2" d="M168.72,210.58c-1.15-3.15-2.14-5.87-2.8-7.83-3.35-10.06-19.31-16.12-28.67-18.87a9.28,9.28,0,0,0-.94,2s0,0,0,0c-.72,1.67-15.22,36.51-10.44,83.39,7.91-2.2,21.5-5.55,31.34-5.73-3-4.19-6.2-10.37-9.5-19-4.07-10.67-5.81-17-5.81-21.15v-.3c-.16-6.69,1.75-19.17,16.43-27.64a.86.86,0,0,1,1.17.32.86.86,0,0,1-.32,1.16c-13.92,8-15.73,19.81-15.58,26.12v.34c0,3.88,1.76,10.22,5.69,20.55,3.66,9.59,7.15,15.79,10.09,19.66,3.15.11,5.77.63,7.51,1.73s2.5,2.59,2.15,3.92a2.33,2.33,0,0,1-2.27,1.7c-2.15.13-5-1.54-8.33-5.72-12.66-.16-34,6.22-37.84,7.39v22.05c5.79.21,41,1,57.21-8.9C192.86,276.54,176,230.32,168.72,210.58Z"/><path class="cls-3" d="M103.35,286.86c-3.84.05-6.47-.75-7.62-2.3a3.49,3.49,0,0,1-.66-2.25,14.06,14.06,0,0,0,6.65,1.25c.53,0,1.09,0,1.67,0a.75.75,0,0,0,.71-.78.77.77,0,0,0-.78-.72c-4.24.2-7.06-.36-8.42-1.66a4.31,4.31,0,0,1-1.05-3.42v-.21c0-1.73,1.94-3.15,4.61-3.38a4.15,4.15,0,0,1,3,.82,14.54,14.54,0,0,1-5.72,1.19.75.75,0,0,0,0,1.5c.23,0,4.73,0,7.28-1.91l0,0,.06-.07a4.15,4.15,0,0,0,1.14-1.26c1.53-2.72.51-4.93-.79-7.74-.38-.83-.78-1.68-1.17-2.66a3.15,3.15,0,0,1-.06-2.68,3.88,3.88,0,0,1,2-1.62l2.84,5.79c2.77,5.66,9.68,8.34,11.82,9.06v17H103.25a5.67,5.67,0,0,1-4.62-2.85,18.45,18.45,0,0,0,4.42.48h.31a.75.75,0,0,0,.74-.76A.73.73,0,0,0,103.35,286.86Z"/><path class="cls-4" d="M87.28,143.59a.74.74,0,0,0-.77.72l-.29,8.79a.75.75,0,0,0,1.5,0l.29-8.78A.75.75,0,0,0,87.28,143.59Z"/><path class="cls-4" d="M110.37,152.54c1.25,0,2.3-1.23,2.35-2.85s-.91-2.95-2.16-3-2.29,1.24-2.35,2.85S109.13,152.5,110.37,152.54Z"/><path class="cls-4" d="M91.59,151.36c1.24,0,2.29-1.23,2.35-2.85s-.92-2.95-2.17-3-2.29,1.24-2.34,2.85S90.34,151.32,91.59,151.36Z"/><path class="cls-4" d="M106.94,163.33a.75.75,0,0,0-1.06,0,3.61,3.61,0,0,1-5,.31.75.75,0,1,0-.92,1.18,5.79,5.79,0,0,0,3.23,1.18,4.84,4.84,0,0,0,3.75-1.64A.75.75,0,0,0,106.94,163.33Z"/><path class="cls-4" d="M92.48,136.52a3.81,3.81,0,0,0-2.43.81.75.75,0,0,0,1,1.14,2.43,2.43,0,0,1,1.43-.45h0a1.78,1.78,0,0,1,1.22.48.79.79,0,0,0,.56.27.75.75,0,0,0,.6-1.22A3.34,3.34,0,0,0,92.48,136.52Z"/><path class="cls-4" d="M110.94,137.11h0a3.81,3.81,0,0,0-2.43.81.75.75,0,0,0-.08,1.06.74.74,0,0,0,1,.08,2.43,2.43,0,0,1,1.43-.45h0a1.78,1.78,0,0,1,1.22.48.75.75,0,0,0,.56.27.75.75,0,0,0,.6-1.22A3.17,3.17,0,0,0,110.94,137.11Z"/><path class="cls-4" d="M131.88,159.83a1.89,1.89,0,0,0,.66.13,2.17,2.17,0,0,0,1.6-.67.75.75,0,0,0-1.06-1.07.6.6,0,0,1-.65.21.66.66,0,0,1-.4-.56c0-.41.44-.69.71-.82,1.36-.65,1.59-.63,1.87-.59a3.85,3.85,0,0,0,1.62-.17,3.68,3.68,0,0,0,2.33-3.33,2.89,2.89,0,0,0-4.44-3,3.21,3.21,0,0,0-1.63,2.39.74.74,0,0,0,.72.77.76.76,0,0,0,.78-.73,1.81,1.81,0,0,1,.9-1.14,1.54,1.54,0,0,1,1.55-.09,1.67,1.67,0,0,1,.63,1.68,2,2,0,0,1-2.3,2.14c-.58-.06-1.05-.05-2.68.74a2.42,2.42,0,0,0-1.56,2.22A2.17,2.17,0,0,0,131.88,159.83Z"/><path class="cls-4" d="M170.32,210c-1.15-3.14-2.14-5.85-2.78-7.78-4.89-14.66-33-21-36.52-21.7a105,105,0,0,1-2-11.38,1.89,1.89,0,0,0,1.37.72c2,.06,2.27-4.36,2.29-6.15,2.32-.35,5.1-1.67,7.13-5.5a10.36,10.36,0,0,0,.2-9.95c2-3.41,2.84-9.6,2.84-9.6,1.81-13.13-7.6-15.52-7.6-15.52-5.79-14.53-21.83-12.27-28.56-11.79A40.14,40.14,0,0,1,93.36,110c-2.68-.55-1.32,2.5-1.32,2.5s2.78.09,0,1.16S79.33,119.26,80.93,127c1.24,5.92,4.6,8.61,6.08,9.53a33.61,33.61,0,0,0-.22,4.49l-6.53-.21a.75.75,0,0,0-.78.72l-.2,6.53c0,.15-.4,3.75,1.64,6.17a6.17,6.17,0,0,0,4.56,2.08l1.16.05c-.06,2.43,0,13.9,6.53,17.36a24.53,24.53,0,0,0,8.64,2.48c.09,1.74.24,7.51-1.82,10.36a2.82,2.82,0,0,0-.25.49c-2.35.86-22.4,8.42-27.29,20.16-3.84,9.2-5.06,14.59-5.44,16.7L45,180.6s-.06-.07-.08-.11l-.11-.13a0,0,0,0,0,0,0l-43-37.4a.87.87,0,0,0-.94-.12.86.86,0,0,0-.47.82l4,57.4s0,0,0,0a1.32,1.32,0,0,0,.09.3,0,0,0,0,1,0,0l10.84,18.71a.72.72,0,0,0-.32.39l-2.12,7a.69.69,0,0,0,0,.35c.06.38,1.65,9.33,2.54,11.5.78,1.9,5.26,6.23,7,7.83l-1.91,1.62a1,1,0,0,0-.23,1.25c2.1,3.77,20.75,36.84,30.07,38.5a1,1,0,0,0,.45,0L67.33,319.2c-.45,10.71-.6,18-.43,18.76.54,2.48,2.72,4.23,5.31,5.45a.75.75,0,0,0-.73.75V393a.75.75,0,0,0,.75.75h34.33a.75.75,0,0,0,.75-.67l2.09-19.23,4,19.52a.76.76,0,0,0,.74.59h0l38,0a.74.74,0,0,0,.54-.23.73.73,0,0,0,.21-.55l-1.67-46.86c5-.76,9.24-2,11.06-3.9a.8.8,0,0,0,.2-.55l-2.08-48.17c6.87-1.39,13.36-3.43,18.27-6.43C194.93,277.27,178.31,231.83,170.32,210ZM82.07,153.21c-1.63-1.91-1.31-5-1.3-5.09l.19-5.84,6.6.21h0l8.49.27-.27,8.39a.76.76,0,0,0,0,.16,7.52,7.52,0,0,0-2.37,3.3,43.49,43.49,0,0,1-7.88.15A4.68,4.68,0,0,1,82.07,153.21Zm6.08,3.14a38.22,38.22,0,0,0,5.26-.22,3.78,3.78,0,0,0,.44,1.09,3.9,3.9,0,0,0,3.38,1.85,6.15,6.15,0,0,0,1.59-.16.75.75,0,0,0,.52-.92.74.74,0,0,0-.91-.53c-.1,0-2.34.59-3.29-1a2.11,2.11,0,0,1-.3-.95.78.78,0,0,0,0-.4h0c.16-.88.95-1.78,2.21-2.91a12.47,12.47,0,0,0,2.59-4.4.75.75,0,0,0-1.42-.49,14.18,14.18,0,0,1-.91,2l.21-6.53,4.21.14a34,34,0,0,0,.3,7.3c1.25,6,3.49,8.36,8.6,8.53a25.48,25.48,0,0,0,3.47-.17c9.83-1.06,10.46-15.08,10.48-15.68a.82.82,0,0,0-.2-.54.76.76,0,0,0-.53-.23L88.29,141c-.14-3.74.85-8.91,1.65-12.41.82-1.6,1.69-2.66,2.35-2.22,1.82,1.22,3.14,3.11,10.3,3.58s14-4.88,14-4.88c1.54,9.77,9.85,10.27,9.85,10.27-.37,4.39-.07,9.49,1.52,10.47s.59,3,.59,3-3.21,6.37-1.19,8.29,3.15-4.3,5.1-7.47c1.2-1.95,3.72-2,5.5-1.8a8.87,8.87,0,0,1,.44,9.63c-3.54,6.68-9.46,4.54-9.71,4.45a.78.78,0,0,0-.6,0,.77.77,0,0,0-.39.44s-.11.34-.3.84a.64.64,0,0,0-.1.24c-.72,1.75-2.4,5.19-5,6.72-10.61,6.19-22.19,5.44-28.46,2.12C88.17,169.33,88.1,158.55,88.15,156.35ZM103.27,143l19.78.63c-.26,2.83-1.72,12.69-9.08,13.49-7.53.82-9.24-1.44-10.44-7.18A32.16,32.16,0,0,1,103.27,143Zm-2.06,44.39c2.27-3.15,2.21-9,2.11-11.11.33,0,.67.05,1,.06a35.16,35.16,0,0,0,18.75-4.82,12.61,12.61,0,0,0,4.23-4.56,92.89,92.89,0,0,0,2.39,14.48v0a1.76,1.76,0,0,1,.06.25c-.27,6.52-6.59,12.07-14.75,12.94-6.71.7-11.64-2.21-13.38-5.22C101,188.42,101,187.68,101.21,187.39ZM70.85,261.81c-.75,9.19-1.41,18.64-2,27.63l-47.33-92.7a13.07,13.07,0,0,0,8.08-1.11,10.87,10.87,0,0,0,4.75-5.23ZM35.42,188.67c1.73.09,5.2,0,7.5-2.06a6.18,6.18,0,0,0,1.79-2.81l27.53,54.08a.85.85,0,0,0,.76.47l.09,0c-.71,6.32-1.37,13.19-2,20.27Zm7.94-7.32a5.17,5.17,0,0,1-1.56,4c-2.5,2.22-7.15,1.57-7.2,1.56a.83.83,0,0,0-.78.31l-.09,0a.85.85,0,0,0-.37,1.14v0a9.75,9.75,0,0,1-4.52,5.72c-3.9,2.08-8.56.6-8.6.58h0a1,1,0,0,0-.3,0l-.07,0a1.05,1.05,0,0,0-.24.06h0l-.06.05-.16.13a.39.39,0,0,0-.08.1s-.05.05-.06.08c-3.8,7.22-11.15,5.79-13.19,5.23L2.22,145.57ZM16.8,238.82c-.66-1.59-1.86-7.8-2.43-11l2-6.48,6.58-2.12a3,3,0,0,1-.24,1.59,2.26,2.26,0,0,1-1.42,1.1l-3.12,1a.75.75,0,0,0-.52.81l.88,6.88a.75.75,0,1,0,1.48-.19l-.25-2a4.93,4.93,0,0,1,2.78-3.67,69.66,69.66,0,0,1,7.23-2.51.61.61,0,0,1,.44.16,1.24,1.24,0,0,1,.28.6,51.23,51.23,0,0,0-7.14,3c-3.12,1.75-2.11,6.73-2.06,6.94a.74.74,0,0,0,.73.59.39.39,0,0,0,.15,0,.74.74,0,0,0,.58-.88s-.83-4.11,1.33-5.32a49.46,49.46,0,0,1,7-2.89.75.75,0,0,1,.21.58c-.13,1.07-2.21,2.57-4.13,3.61l-.23.12-1,.51a.74.74,0,0,0-.35.41,5.46,5.46,0,0,0-1.43,3.61.76.76,0,0,0,.7.8h.05a.74.74,0,0,0,.75-.7,3.47,3.47,0,0,1,1.47-3l.12-.06.53-.27c2.25-1,4.19-1.5,4.49-1.17a.24.24,0,0,1,0,.1c.08,1.58-2.58,2.79-3.61,3.13a.75.75,0,0,0-.51.64l-1.06,10.59-3.53,3C21.5,244.34,17.41,240.31,16.8,238.82Zm5.58,11,5.06-4.3,22,40.69C42.1,282.76,28,259.76,22.38,249.84Zm6.23-6.33a.29.29,0,0,0-.07-.08l1-10.16c1.21-.48,4.3-2,4.18-4.45a1.59,1.59,0,0,0-.79-1.35,2.46,2.46,0,0,0-1.34-.25,3.93,3.93,0,0,0,1.16-2.1,2.28,2.28,0,0,0-.77-2,3,3,0,0,0-.74-1.81,2,2,0,0,0-1.52-.62h0c-.92,0-5.74,1.83-7.74,2.6a5.85,5.85,0,0,0-2.63,2.19l-.17-1.39,2.53-.81a3.74,3.74,0,0,0,2.3-1.85,5,5,0,0,0,.18-3.48.74.74,0,0,0-.94-.47l-6.29,2L7,202.26a16.74,16.74,0,0,0,2.78.24,11.75,11.75,0,0,0,10.19-5.24l48.77,95.52c-.49,8.18-.89,15.88-1.19,22.53Zm40,94.11c-.11-.83,0-7.26.45-16.86a.77.77,0,0,0,.25-.1,1,1,0,0,0,.41-1.35l-.55-1c.29-6.6.69-14.47,1.18-22.94.08,0,1.38-21.85,2.14-31.44l.19-2.36C74.33,240.73,76.5,221.33,79,212a.85.85,0,1,0-1.64-.45c-1.49,5.46-2.85,14.23-4.07,24.67L68,225.78a.85.85,0,0,0,.56-.72c0-.05.59-5.56,5.46-17.25,4-9.65,19.78-16.62,24.89-18.66C90.65,217.07,86.14,284.86,83.13,330q-.39,5.88-.75,11.24v3.09C78.13,343.86,69.51,342,68.56,337.62Zm82.8,54.78-36.57,0L112.2,380l-5.73-31.13a.75.75,0,1,0-1.48.27l3.59,19.48a.74.74,0,0,0-.16.36l-2.53,23.3H73V344.16a.74.74,0,0,0-.19-.48,37.45,37.45,0,0,0,10.37,2.47h.07a.81.81,0,0,0,.57-.23.82.82,0,0,0,.28-.62v-4c.22-3.26.45-6.73.69-10.35,3.24,1.07,13.56,4.19,24.06,4.19a37.16,37.16,0,0,0,12.69-2,.74.74,0,0,0,.21-.13c-.36,6-.77,11-1.2,13.24a.73.73,0,0,0,.15.6.74.74,0,0,0,.55.29c.48,0,4.73.23,10.35.23a149.17,149.17,0,0,0,18.14-1ZM161,341.54c-1.79,1.65-5.75,2.69-10.49,3.35l-.06,0-.17.05c-10.42,1.4-24.54.95-28.1.81,1.46-9.67,2.57-47.56,2.62-49.21,0,0,0,0,0,0l2.76,0a179.21,179.21,0,0,0,31.39-2.56Zm16.82-55.78c-16.18,9.88-51.42,9.11-57.21,8.9V272.61c3.83-1.17,25.18-7.55,37.84-7.39,3.3,4.18,6.18,5.85,8.33,5.72a2.33,2.33,0,0,0,2.27-1.7c.35-1.33-.49-2.87-2.15-3.92s-4.36-1.62-7.51-1.73c-2.94-3.87-6.43-10.07-10.09-19.66-3.93-10.33-5.69-16.67-5.69-20.55V223c-.15-6.31,1.66-18.09,15.58-26.12a.86.86,0,0,0,.32-1.16.86.86,0,0,0-1.17-.32c-14.68,8.47-16.59,20.95-16.43,27.64v.3c0,4.15,1.74,10.48,5.81,21.15,3.3,8.67,6.54,14.85,9.5,19-9.84.18-23.43,3.53-31.34,5.73-4.88-47.81,10.32-83.12,10.47-83.48a.85.85,0,1,0-1.55-.68c-.16.36-15.6,36.2-10.59,84.63-2.65.76-4.39,1.3-4.7,1.4a.85.85,0,0,0-.6.81v.17c-2.37-.86-8.16-3.39-10.48-8.12l-3.12-6.38a.76.76,0,0,0-.85-.4,5.83,5.83,0,0,0-3.52,2.57,4.59,4.59,0,0,0,0,3.94c.4,1,.83,1.92,1.2,2.73,1.25,2.7,2,4.33.84,6.37a2.7,2.7,0,0,1-.27.39,5.61,5.61,0,0,0-4.35-1.39c-3.46.3-6,2.35-6,4.87v.2a5.89,5.89,0,0,0,1.35,4.34,5.15,5.15,0,0,0,.81,4.16,6,6,0,0,0,2.3,1.82,6.83,6.83,0,0,0,6.42,5h15.65v3.25a.86.86,0,0,0,.81.85c.27,0,1.55.07,3.58.12v0c0,.29-.61,20.56-1.48,35.48a.72.72,0,0,0-.78-.17c-13.17,4.84-32.47-1.13-36.14-2.35,3-44.78,7.45-111.26,15.49-139.2,1.37,2.32,5.26,5.81,11.89,6a22.63,22.63,0,0,0,2.92-.11c8.68-.92,15.43-6.81,16-13.84,5,1.12,30.38,7.44,34.71,20.45.66,2,1.65,4.68,2.8,7.83C176,230.32,192.86,276.54,177.79,285.76Zm-17-20.43a11.82,11.82,0,0,1,5.19,1.43c1.09.69,1.54,1.56,1.41,2.05-.09.33-.44.42-.72.44C165.46,269.32,163.41,268.31,160.78,265.33Zm-57.43,21.53c-3.84.05-6.47-.75-7.62-2.3a3.49,3.49,0,0,1-.66-2.25,14.06,14.06,0,0,0,6.65,1.25c.53,0,1.09,0,1.67,0a.75.75,0,0,0,.71-.78.77.77,0,0,0-.78-.72c-4.24.2-7.06-.36-8.42-1.66a4.31,4.31,0,0,1-1.05-3.42v-.21c0-1.73,1.94-3.15,4.61-3.38a4.15,4.15,0,0,1,3,.82,14.54,14.54,0,0,1-5.72,1.19.75.75,0,0,0,0,1.5c.23,0,4.73,0,7.28-1.91l0,0,.06-.07a4.15,4.15,0,0,0,1.14-1.26c1.53-2.72.51-4.93-.79-7.74-.38-.83-.78-1.68-1.17-2.66a3.15,3.15,0,0,1-.06-2.68,3.88,3.88,0,0,1,2-1.62l2.84,5.79c2.77,5.66,9.68,8.34,11.82,9.06v17H103.25a5.67,5.67,0,0,1-4.62-2.85,18.45,18.45,0,0,0,4.42.48h.31a.75.75,0,0,0,.74-.76A.73.73,0,0,0,103.35,286.86Z"/><path class="cls-4" d="M1.23,143.58l.58,8.34s5.95,3.79,6.19-2.45Z"/><path class="cls-2" d="M160.78,265.33a11.82,11.82,0,0,1,5.19,1.43c1.09.69,1.54,1.56,1.41,2.05-.09.33-.44.42-.72.44C165.46,269.32,163.41,268.31,160.78,265.33Z"/><path class="cls-3" d="M266.11,172.54c-4.52,5.18-10.34,7.92-16.36,7.73-13.38-.43-17.85-16.18-17.89-16.34a.89.89,0,0,0-.21-.35c6.55-6.89,2.36-28.25,3.71-34.76,1.38-6.7,5.53-2.23,7.24-1.57a18.85,18.85,0,0,0,13,.83c6.51-1.85,6,3.36,7.8,7.32s5.66,3.73,5.78,10.77,5.48,5.57,7.54.81a11.66,11.66,0,0,1,1.91-3.27,2.11,2.11,0,0,1,1.14,0c.81.27,1.43,1.15,1.86,2.61a8.38,8.38,0,0,1-1.92,7.43,8.18,8.18,0,0,1-5.38,3.12,14.71,14.71,0,0,0-.19-2.61.85.85,0,1,0-1.68.28,13.69,13.69,0,0,1,.17,2.75.76.76,0,0,0,0,.76A26.14,26.14,0,0,1,266.11,172.54Z"/><path class="cls-4" d="M241.5,146.53a2.8,2.8,0,1,0,2.16,2.81A2.55,2.55,0,0,0,241.5,146.53Z"/><path class="cls-4" d="M239.24,144a2.7,2.7,0,0,1,1.47-.79h0a2.12,2.12,0,0,1,1.47.22.9.9,0,0,0,.69.16.83.83,0,0,0,.51-.29.76.76,0,0,0-.14-1.12,3.79,3.79,0,0,0-2.84-.54h0a4.34,4.34,0,0,0-2.5,1.4.76.76,0,0,0,.17,1.12A.87.87,0,0,0,239.24,144Z"/><path class="cls-4" d="M259.31,146.53a2.8,2.8,0,1,0,2.16,2.81A2.52,2.52,0,0,0,259.31,146.53Z"/><path class="cls-4" d="M257.05,144a2.8,2.8,0,0,1,1.47-.79h0a2.16,2.16,0,0,1,1.48.22.88.88,0,0,0,.68.16.8.8,0,0,0,.51-.29.76.76,0,0,0-.14-1.12,3.75,3.75,0,0,0-2.84-.54h0a4.34,4.34,0,0,0-2.5,1.4.77.77,0,0,0,.17,1.12A.87.87,0,0,0,257.05,144Z"/><path class="cls-4" d="M307.42,269.32v-.16c-.61-6-5.31-41.33-8-54.52-1.9-9.26-9.1-14.24-15.41-17.36.78,0,1.24,0,1.24,0s-5-7.53.13-12.65,4.08-13.22-.87-17.48a19.73,19.73,0,0,1-5.8-10.14,11.27,11.27,0,0,0,2.31-2.13,9.94,9.94,0,0,0,2.24-9c-.59-2-1.58-3.29-2.95-3.74l-.24-.06c3.47-22.4-14-24.69-14-24.69s-15.76-11.28-30.18-2.74-17.42,21.09-18.14,30.45-2.64,10.06-13.2,19.47S205,182,205,182s-8.37-2-12.2,7.52l-3.08-29.67a.84.84,0,0,0-.76-.76c-1.65-.16-4.85.46-5.22,3.91a76.5,76.5,0,0,0-.13,8.17,7.85,7.85,0,0,0-3.63-2.57c-4-1.35-9.1-.07-9.32,0a.87.87,0,0,0-.63.72,4.73,4.73,0,0,0,1,3.45,4.18,4.18,0,0,0,3.37,1.28,20.58,20.58,0,0,1,3.18.12,5.58,5.58,0,0,0-3.34.8,6,6,0,0,0-4,2.13,5.07,5.07,0,0,0-.25,5.31,2.29,2.29,0,0,0,2.19,1.41,8.72,8.72,0,0,0,1.66-.36c.81,3.19,3.32,13.44,3.23,17.35l-.74,31.88a.82.82,0,0,0,.7.84c.46,2.22,1.2,4.62,2,7.19A105,105,0,0,1,181.77,251c1.08,5.37,1.92,13.8,2.48,19.38.05.5.09.94.13,1.36h0a.84.84,0,0,0-.54,1.07,15.74,15.74,0,0,0,.92,2.08,4.91,4.91,0,0,0,.35,1.81l.52-.3a15.28,15.28,0,0,0,5.64,5.34s.05,0,.07,0L195.73,303a.84.84,0,0,0,.82.67l14.29.3c-14.67,45-1.89,89.77-1.76,90.22a.86.86,0,0,0,.82.61H288a.85.85,0,0,0,.83-.65c0-.21,1.25-5.44,4.31-28.8,2.92-22.39-7.69-58.42-8.81-62.13a108.94,108.94,0,0,0,11.65-6C309.45,289.23,308.08,275.78,307.42,269.32Zm-67-74.5a19,19,0,0,0-1.38-2c7.38-5.08,3.86-12.3,3.86-12.3q-.56-.33-1.08-.69a17.42,17.42,0,0,0,7.84,2.12h.66c6.31,0,13.09-4.74,13.49-5.26,0,6.22,1.66,10.56,4.1,13.59a28.9,28.9,0,0,1-27.43,4.52Zm-5.09-66c1.38-6.7,5.53-2.23,7.24-1.57a18.85,18.85,0,0,0,13,.83c6.51-1.85,6,3.36,7.8,7.32s5.66,3.73,5.78,10.77,5.48,5.57,7.54.81a11.66,11.66,0,0,1,1.91-3.27,2.11,2.11,0,0,1,1.14,0c.81.27,1.43,1.15,1.86,2.61a8.38,8.38,0,0,1-1.92,7.43,8.18,8.18,0,0,1-5.38,3.12,14.71,14.71,0,0,0-.19-2.61.85.85,0,1,0-1.68.28,13.69,13.69,0,0,1,.17,2.75.76.76,0,0,0,0,.76,26.14,26.14,0,0,1-6.46,14.46l-.16.17a.85.85,0,0,0-.68.71v0c-4.39,4.58-9.86,7-15.51,6.81-13.38-.43-17.85-16.18-17.89-16.34a.89.89,0,0,0-.21-.35C238.2,156.69,234,135.33,235.36,128.82ZM216.77,227.5a17.67,17.67,0,0,0-4.25,14l-9.51-.16-.67-4.33a.92.92,0,0,0,.2-.31l5.39-16a36.14,36.14,0,0,0,3.9,2.83A31.14,31.14,0,0,1,216.77,227.5Zm-10.21-8-4.75,14.08L197.55,206a22.9,22.9,0,0,0,4.6,2.92C202.75,213.64,203.77,216.64,206.56,219.48ZM172,182.14c-.06,0-.27-.12-.5-.54a3.4,3.4,0,0,1,.07-3.42,4,4,0,0,1,.94-.84,5.08,5.08,0,0,0-.42,3.1,3.39,3.39,0,0,0,.73,1.55A7.16,7.16,0,0,1,172,182.14Zm3.46.77a2.39,2.39,0,0,0,1.88-1.89c.05-.25.1-.44.14-.57l1.1.13a.85.85,0,1,0,.19-1.69l-1.32-.15a1,1,0,0,0-.6,0c-.69.17-1,.92-1.17,2a.74.74,0,0,1-.77.58h0c-.44,0-1-.3-1.14-1.16-.38-1.85,1.24-3.5,1.39-3.65,1.34-1.1,4.55-.38,5.67,0a.85.85,0,0,0,1-1.16c-1.29-2.81-3.78-3-7.45-2.93a2.67,2.67,0,0,1-2.06-.7,2.58,2.58,0,0,1-.58-1.54c1.41-.28,4.93-.82,7.72.12,3.33,1.12,4.31,4.8,4.32,4.83a.84.84,0,0,0,.95.64.86.86,0,0,0,.72-.88c0-.08-.36-8.2,0-11.62a2.63,2.63,0,0,1,2.68-2.39L190.22,181a32.88,32.88,0,0,0-8.27-4.15.86.86,0,0,0-1,.38,4.19,4.19,0,0,0,1.7,5.79c.89.55,1,1.27,1,2.61.09,1.67.22,4,3.43,5.53a.88.88,0,0,0,.38.09.86.86,0,0,0,.76-.48.84.84,0,0,0-.39-1.14c-2.32-1.14-2.39-2.51-2.48-4.1-.08-1.36-.17-2.91-1.86-4a2.47,2.47,0,0,1-1.36-2.84c4.12,1.57,8.25,3.92,8.38,5.23l1.11,10.73a11.38,11.38,0,0,0,.33,3.18l.22,2.12H178.73C178.52,195.32,176.17,185.79,175.43,182.91ZM185.72,273c-.09-.86-.18-1.82-.28-2.8-.56-5.6-1.4-14.07-2.5-19.5-.76-3.75-1.84-7.26-2.79-10.36a69.91,69.91,0,0,1-2.13-8l.71-30.7h14.9a17.21,17.21,0,0,0,1.91,2.43l5.75,37.21L187,241.09h0a.83.83,0,0,0-.7.38L183.9,245a.88.88,0,0,0-.13.65l7.06,33.81A15.85,15.85,0,0,1,185.72,273Zm-.21-27.36,1.93-2.88,77.3,1.27,9.32,57.22a.85.85,0,0,0,.54.66.87.87,0,0,0,.85-.15L288.17,291a.85.85,0,0,0-.48-1.5l-12.06-.94a.86.86,0,0,0-.91.78.85.85,0,0,0,.78.92l10,.77-10,8.47-2-12.37,19.75,1.52-16.65,15.45-4.13,1.35-9.76-58.64a.85.85,0,0,0-.83-.71l-73-.87h0a.84.84,0,0,0-.84.84.85.85,0,0,0,.83.86l72.29.86,9.63,57.85L247.1,304a.81.81,0,0,0-.44.09c-1.63-2.48-4.57-3.46-7.42-4.41a23.82,23.82,0,0,1-4-1.58,1.61,1.61,0,0,0-1.74,0,2.85,2.85,0,0,0-.82,2.8,7.09,7.09,0,0,0,.85,2.6,10.57,10.57,0,0,1-3-1.28c-.67-.6-1-2.14-1.35-3.62-.46-2.05-.93-4.17-2.44-5.13-2.68-1.71-3.74-.88-4-.59a.81.81,0,0,0-.21.68l1.36,9.77-.13-.05c-.46-.23-1.6-1.29-2.09-6.13-.09-.91-.33-3.34-2-4.58a4.37,4.37,0,0,0-3.57-.63L216,292c-.33.14-.92.59-1,2a4.24,4.24,0,0,0-3.12-.34.85.85,0,0,0-.66.81,54.57,54.57,0,0,0,.4,7.82l-14.3-.29Zm27.34,49.52a2.13,2.13,0,0,1,1.47.4,3.22,3.22,0,0,1,1,1.45l.18.91c.31,1.69,1.39,7.19,2.82,8.35a.85.85,0,0,0,.54.19.86.86,0,0,0,.66-.32.84.84,0,0,0-.13-1.19c-.56-.46-1.44-3.44-2-6.3a7.44,7.44,0,0,0-.41-2.09l-.07-.36a5.35,5.35,0,0,1-.11-2.72,2.57,2.57,0,0,1,1.95.37c1.07.8,1.26,2.68,1.33,3.39.42,4.24,1.42,6.69,3,7.48a2.37,2.37,0,0,0,2.28-.06.83.83,0,0,0,.39-.84l-1.35-9.72a5.61,5.61,0,0,1,1.49.73c.92.58,1.32,2.35,1.7,4.06s.8,3.56,1.89,4.52c1.45,1.28,6.43,2.43,7,2.55a.85.85,0,0,0,.48-1.62,4.47,4.47,0,0,1-2.44-3.05,3.48,3.48,0,0,1-.07-1.77,26,26,0,0,0,4.28,1.71c2.72.9,5.28,1.75,6.59,3.78,1.53,2.4.36,3.91-.09,4.35-8.68,1.61-27.33-.62-30-1.93C213.48,306.64,212.81,300,212.85,295.2Zm34.62,10.5,20,1.44a81.07,81.07,0,0,1-20.15,2.23A4.79,4.79,0,0,0,247.47,305.7Zm44,59.42c-2.47,18.9-3.75,26-4.14,28H210.55c-1.46-5.45-11.51-46.37,1.63-87.71.49,1.73,1.21,3.1,2.25,3.62,2.49,1.21,13.5,2.67,22.65,2.67a47.35,47.35,0,0,0,8.57-.63c1,0,1.93.06,2.9.06a88.54,88.54,0,0,0,34.22-7.23C284.14,308.42,294.31,343.41,291.47,365.12Zm3.66-69.37a105.36,105.36,0,0,1-14.94,7.35l15.62-14.5a.84.84,0,0,0,.22-.9.85.85,0,0,0-.73-.57l-22.1-1.7-.52-3.18c1.27-1.44,7.38-8.16,12.66-9.25a16.26,16.26,0,0,0,1.18,2.29c2.22,3.33,4.34,3,4.94,2.86a2.34,2.34,0,0,0,1.7-2.21c0-1.38-1-3.27-4.14-4.4a6.68,6.68,0,0,0-2.59-.37c-2.29-5.9-5.26-17.4-7.11-27.21,2.79-9,2.17-16.24.36-18.43a1.63,1.63,0,0,0-1.63-.69c-.81.16-1.41.95-1.84,2.4-.75,2.53,0,9.13,1.34,16.7-.38,1.15-.81,2.33-1.31,3.55-6.55,15.87-.23,27.27.05,27.75a.92.92,0,0,0,.76.43,45.84,45.84,0,0,0-4.72,4.43l-6-37a.87.87,0,0,0-.83-.72l-51.25-.84A16.06,16.06,0,0,1,218,228.7a36.54,36.54,0,0,1,4.8,6.27c-1.91-3.2-.14-6.44,15.53-10.55s2.89-16.95,2.89-16.95c2.85-3.27,1.88-7.42.45-10.47a30.88,30.88,0,0,0,27.44-5.42,19.18,19.18,0,0,0,9.06,4.92c6.5,2.76,17.31,7.37,19.59,18.49,2.58,12.57,7.27,47.31,8,54.34v.16C306.4,276.07,307.65,288.33,295.13,295.75Zm-17.32-47.61.37-.91a170.84,170.84,0,0,0,6.52,24.2,19.59,19.59,0,0,0-6.86,3.61.8.8,0,0,0-.08-.64C277.7,274.29,271.6,263.2,277.81,248.14Zm0-20.42a3.34,3.34,0,0,1,.52-1.15c.81.78,2,5.84.26,13.45C277.69,234.29,277.28,229.61,277.84,227.72Zm9.3,45.15a4.78,4.78,0,0,1,1.3.27c2.13.77,3.05,1.93,3,2.74a.63.63,0,0,1-.47.64c-.66.19-1.88-.41-3.05-2.17A10.66,10.66,0,0,1,287.14,272.87Z"/><path class="cls-4" d="M259.22,164.09a11.16,11.16,0,0,0-1.68.19,42,42,0,0,1-6.44.53,34.94,34.94,0,0,1-7.9-.69.84.84,0,0,0-.82.24.85.85,0,0,0-.2.82,9,9,0,0,0,8.6,6.13h.35a9.53,9.53,0,0,0,8.9-6.1.86.86,0,0,0-.13-.76A.84.84,0,0,0,259.22,164.09Zm-8.14,5.51a7.14,7.14,0,0,1-6.63-3.52,41.2,41.2,0,0,0,6.67.43,41.69,41.69,0,0,0,6.66-.55A7.81,7.81,0,0,1,251.08,169.6Z"/><path class="cls-4" d="M252.05,160.82h0a.8.8,0,0,0,.84-.72.79.79,0,0,0-.81-.77,4.45,4.45,0,0,1-3.33-1.64c2.84-2.75,2.26-7.37,2.24-7.56a.82.82,0,0,0-.95-.65.76.76,0,0,0-.74.82s.52,4.2-1.87,6.44a1.24,1.24,0,0,0-.17,1.69A6.24,6.24,0,0,0,252.05,160.82Z"/><path class="cls-4" d="M241.5,146.53a2.8,2.8,0,1,0,2.16,2.81A2.55,2.55,0,0,0,241.5,146.53Z"/><path class="cls-4" d="M239.24,144a2.7,2.7,0,0,1,1.47-.79h0a2.12,2.12,0,0,1,1.47.22.9.9,0,0,0,.69.16.83.83,0,0,0,.51-.29.76.76,0,0,0-.14-1.12,3.79,3.79,0,0,0-2.84-.54h0a4.34,4.34,0,0,0-2.5,1.4.76.76,0,0,0,.17,1.12A.87.87,0,0,0,239.24,144Z"/><path class="cls-4" d="M259.31,146.53a2.8,2.8,0,1,0,2.16,2.81A2.52,2.52,0,0,0,259.31,146.53Z"/><path class="cls-4" d="M257.05,144a2.8,2.8,0,0,1,1.47-.79h0a2.16,2.16,0,0,1,1.48.22.88.88,0,0,0,.68.16.8.8,0,0,0,.51-.29.76.76,0,0,0-.14-1.12,3.75,3.75,0,0,0-2.84-.54h0a4.34,4.34,0,0,0-2.5,1.4.77.77,0,0,0,.17,1.12A.87.87,0,0,0,257.05,144Z"/><path class="cls-4" d="M223.92,277a15.86,15.86,0,0,1-.23-4.42l-1.7.56,0-.83,1.75-.55c.07-.73.23-1.94.33-2.59a.29.29,0,0,0-.09-.26c-.06,0-.15-.09-.38,0a5.15,5.15,0,0,0-2,1.81,7,7,0,0,0-.75,2.19c0,.18,0,.37,0,.55a8,8,0,0,0,3.19,6.72,11.61,11.61,0,0,0,2.66,1.34C225.32,280.93,224.23,279.12,223.92,277Z"/><path class="cls-4" d="M227.13,268.37a8.83,8.83,0,0,0-1.35-.06h0c-.39,0-.55.3-.65.71a22.05,22.05,0,0,0-.23,2.43l2.14-.63.05,1a20,20,0,0,0-2.16.54,10,10,0,0,0,0,2.27,10.42,10.42,0,0,0,1.24,5.05,3.48,3.48,0,0,0,1,1.06h0l.09.05.15.07h0l0,0c1.28.46,2.7-1.07,3.14-3.41a7.49,7.49,0,0,0,.11-.79s0,0,.05,0a.1.1,0,0,1,0,.05c0,.1,0,.2,0,.3-.06,2.77-1.46,4.77-3.2,4.7h0a7.61,7.61,0,0,0,1.24.11,5.26,5.26,0,0,0,5.09-5.28A8.14,8.14,0,0,0,227.13,268.37Z"/><path class="cls-4" d="M227.54,267.32a6.2,6.2,0,0,0-7.81,6.12,9.7,9.7,0,0,0,7.47,9.33,6.21,6.21,0,0,0,7.82-6.12A9.72,9.72,0,0,0,227.54,267.32Zm-.33,15a9.11,9.11,0,0,1-7-8.74,5.82,5.82,0,0,1,7.32-5.73,9.09,9.09,0,0,1,7,8.74A5.81,5.81,0,0,1,227.21,282.28Z"/><path class="cls-4" d="M390,264.66a.75.75,0,0,1-.06-1.49c.1,0,9.49-1.26,10.45-6a.75.75,0,0,1,1.47.3c-1.17,5.8-11.3,7.14-11.73,7.2Z"/><path class="cls-4" d="M389.81,269.57a.75.75,0,0,1-.08-1.49c.09,0,9.43-1.62,10-6.4a.77.77,0,0,1,.83-.65.75.75,0,0,1,.66.84c-.74,5.89-10.85,7.62-11.28,7.69Z"/><rect class="cls-6" width="523.11" height="394.52"/></g></g></svg>
