<svg xmlns="http://www.w3.org/2000/svg" viewBox="0 0 1001.93 471.92"><defs><style type="text/css">.a{isolation:isolate;}.b{fill:#565e62;}.c{fill:#090c0b;}.d{fill:#3f4443;}.e{fill:#19870e;}.f{fill:#3eb747;}.g{fill:#47514f;}.h{fill:#394240;}.i{fill:#c5d8cc;}.j{fill:#283331;}.k{fill:#11350a;}.l{fill:#687a77;}.m{fill:#303534;}.n{fill:#434c4a;}.o{fill:#413c38;}.p{fill:#2d3538;}.q{fill:#7dabba;opacity:0.5;}.r{fill:#f63;}.s,.t{fill:#778280;}.t{opacity:0.53;mix-blend-mode:screen;}.u{fill:#626c70;}.v{fill:#545d60;}.w{fill:#838c8a;}.x{fill:#959e9c;}</style></defs><title>404</title><g class="a"><polygon class="b" points="881.34 379.89 899.55 388.72 941.15 379.89 915.63 374.3 881.34 379.89"/><path class="c" d="M830.7,305h-13l-1.17,60.56h13c.4,0,.79.05,1.2.05,12.11,0,21.93-13.57,21.93-30.31S842.81,305,830.7,305Z"/><ellipse class="d" cx="817.67" cy="335.29" rx="21.93" ry="30.31"/><path class="e" d="M865.62.62,777.36,224c47.25,35.06,135.91,16.49,172.31,7.18,11.36-1.22,28.2-22.93,39.86-52.46s14.22-56.94,6.74-65.56C933.9,24.74,865.62.62,865.62.62Z"/><path class="f" d="M996.27,113.18C933.9,24.74,865.62.62,865.62.62l-9.54,24.15c36.13,52.89,85.73,139.09,48.38,168.17-46.89,36.52-108.83,32-126.58,29.76l-.52,1.32c47.25,35.06,135.91,16.49,172.31,7.18,11.36-1.22,28.2-22.93,39.86-52.46S1003.75,121.8,996.27,113.18Z"/><path class="g" d="M790.57,6.62,786,2.81,720.71,168.05c3,1,28.61-.19,41,24.66L777.36,224c17.32,5.66,50.53-38.54,74.66-99.61S882.11,8.38,865.6.67l0-.05C848.8,5,818.76,30.07,790.57,6.62Z"/><path class="h" d="M865.62.62c-16.82,4.34-46.86,29.45-75,6L786,2.81,762.37,62.59c20.66,14.13,55.69,40.4,62.08,60,9.17,28.1-16.7,82.25-16.7,82.26C822.46,187,838.64,158.28,852,124.41,876.14,63.35,882.13,8.33,865.62.62Z"/><path class="i" d="M783.9,1.67c15.26,6,13,48.22-5,93.85s-45.33,78.05-60.59,72-12.71-48.22,5.32-93.86S768.64-4.36,783.9,1.67Z"/><path class="g" d="M780.24,11.25c13.55,5.36,11.56,42.54-4.44,83.05s-40,69-53.52,63.66-11.56-42.54,4.44-83.05S766.68,5.9,780.24,11.25Z"/><path class="j" d="M776,93.75c-19.27-1.17-38.61-5.33-52.92-9C710.5,121.27,709.83,153,722.28,158c13.55,5.35,37.51-23.15,53.52-63.66Z"/><path class="k" d="M1001,120.26C997.87,107.3,932.3,24.2,865.62.62c51.08,21.79,93.27,66.59,129.51,113.54,15.72,19.7-16,101.86-41,115.65,21.13-10.3,41.6-56.05,46.34-84.57C1001.79,137.56,1002.69,127.92,1001,120.26Z"/><path class="l" d="M780.38,226.08c-2.87.35-4-3.57-3.78-3.57,15.17,0,48.31-33.82,73.94-98.68S877.8,7.94,864.32,1C864.07.86,866-.29,866.79.07,884.27,8.23,878.14,62.63,853.5,125,830.36,183.57,799.26,226.08,780.38,226.08Z"/><path class="m" d="M821.52,334.58,771.81,227.74V171.92H755.6V228L725,347.13l12.36,3.18L764.93,243l43.79,91.77C810.24,337.9,820.55,337.14,821.52,334.58Z"/><path class="n" d="M818.62,339.19H722.55a3.19,3.19,0,1,1,0-6.38h96.07a3.19,3.19,0,1,1,0,6.38Z"/><polygon class="o" points="755.6 235.39 775.28 235.2 921.48 245.57 904.46 248.39 755.6 235.39"/><polygon class="b" points="755.6 239.14 755.6 235.39 904.46 248.39 904.46 251.72 755.6 239.14"/><polygon class="o" points="922.54 379.03 904.46 383.34 895.73 377.43 894.63 171.92 922.54 171.92 922.54 379.03"/><polygon class="b" points="904.46 383.34 894.63 377.96 894.63 171.92 904.46 171.92 904.46 383.34"/><path class="p" d="M922.54,170.87a14,14,0,0,0-1.38-6.06l13.54-11.28-2-2.46-13.23,11a14,14,0,0,0-23.55,3l-16-5.67-1.07,3,16.12,5.71a13.59,13.59,0,0,0-.27,2.73,14,14,0,0,0,17.15,13.59l4.53,18.72,3.1-.75-4.61-19.06A14,14,0,0,0,922.54,170.87Z"/><path class="q" d="M918.53,170.87a9.95,9.95,0,1,1-9.95-9.94A9.95,9.95,0,0,1,918.53,170.87Z"/><polygon class="o" points="941.15 379.89 941.15 384.31 899.55 393.51 881.34 385.28 881.34 379.89 899.55 388.72 941.15 379.89"/><path class="p" d="M908.58,103.55a67.33,67.33,0,1,0,67.33,67.32A67.4,67.4,0,0,0,908.58,103.55Zm46.56,38.9-14.45,7.36a38.38,38.38,0,0,0-49.85-13l-9.45-13.23a54.52,54.52,0,0,1,73.75,18.87Zm-46.56,57.26a28.84,28.84,0,1,1,28.85-28.84A28.87,28.87,0,0,1,908.58,199.71Zm-35-70.64,9.42,13.2a38.37,38.37,0,0,0-9.41,44.38L860.8,197.2a54.5,54.5,0,0,1,12.75-68.13Zm-7.37,76.1,12.44-10.29A38.37,38.37,0,0,0,924.06,206l9.08,13.57a54.48,54.48,0,0,1-67-14.42Zm75.09,9.37-9-13.45a38.38,38.38,0,0,0,12.65-42.69L959.41,151a54.53,54.53,0,0,1-18.14,63.52Z"/><path class="c" d="M731.54,314.58h-13l-1.17,60.56h13c.4,0,.8.05,1.2.05,12.11,0,21.93-13.57,21.93-30.31S743.65,314.58,731.54,314.58Z"/><path class="d" d="M740.45,344.88c0,16.74-9.82,30.31-21.94,30.31s-21.93-13.57-21.93-30.31,9.82-30.3,21.93-30.3S740.45,328.14,740.45,344.88Z"/><path class="c" d="M736.71,344.88c0,13.88-8.15,25.14-18.2,25.14s-18.19-11.26-18.19-25.14,8.15-25.14,18.19-25.14S736.71,331,736.71,344.88Z"/><path class="r" d="M729.35,344.88c0,8.27-4.85,15-10.84,15s-10.83-6.7-10.83-15,4.85-15,10.83-15S729.35,336.61,729.35,344.88Z"/><path class="l" d="M806.6,150s-40.37,34.15-34.79,46.65,34.3-1.33,38.55-15.15S820.39,145.62,806.6,150Z"/><path class="q" d="M856.92,205.75c-27.58-40.49,0-97.29,51.66-97.43-50.33,1.34-76.89,56.75-49.05,95.6a1.59,1.59,0,0,1-2.59,1.86Z"/><path class="s" d="M29.71,394.07s59-21.26,90.38-40.94,62.21-52.1,98.36-59S322.93,228.46,345,206.4s74.43-77.63,115.9-84.54,80.82,21.8,93.58,26.58S719.81,280.3,735.76,296.25,897.39,399.39,926.63,409s36.16,11.7,27.65,20.2-48.38-4.25-71.78,6.91-89.32-3.72-110,6.92,2.13,15.95-27.12,21.26-180.76,5.85-228.61-7.44S385.4,460,368.91,460s-65.39-27.65-128.66-10.1S92.45,444.58,56.83,434-35.15,421.2,29.71,394.07Z"/><path class="t" d="M460.89,121.86c-41.47,6.91-93.84,62.47-115.9,84.54s-90.38,80.81-126.54,87.72a90.52,90.52,0,0,0-17.76,5.45c23.6-4,51.24-9.76,80.82-20.87,39.67-14.88,106.29-113.53,148.55-140.09,19.48-12.25,34.58-16.52,46.2-17.79A80.87,80.87,0,0,0,460.89,121.86Z"/><path class="u" d="M467.18,199.12c-19.81,19.8-11.87,37.85-19.05,71.34s-38.68,73.77-48.64,63.8,8-35.89,8-59.81S383.54,260.89,359.61,331s-31.1,70.23-31.1,54.28-3.19-36.68-16.75.8-47.05,39.87-55,23.13,32.7-71,26.32-77.36-18.34,24.72-36.68,43.06-79,57.42-138.77,57.42C73.45,432.35,58,409,51.06,385.9c-12.58,5-21.35,8.17-21.35,8.17C-35.15,421.2,21.2,423.32,56.83,434S177,467.44,240.25,449.9,352.43,460,368.91,460s100-16.48,147.81-3.19a204.83,204.83,0,0,0,27.54,5.05C523.35,365.45,481.76,184.54,467.18,199.12Z"/><path class="u" d="M926.63,409c-29.24-9.57-174.92-96.76-190.87-112.71s-168.53-143-181.29-147.81c-10-3.73-36.06-22-66.73-26.6-11.34,8.47-23.66,22.92-23.66,45.74,0,42.27,19.14,69.39,0,103.68s-26.31,60.61-41.47,96.5S386,443.7,336.94,452c14.7,4,25.69,8,32,8,16.49,0,100-16.48,147.81-3.19s199.37,12.76,228.61,7.44,6.38-10.63,27.12-21.26,86.66,4.25,110-6.92,63.27,1.6,71.78-6.91S955.87,418.53,926.63,409Z"/><path class="v" d="M926.63,409c-29.24-9.57-174.92-96.76-190.87-112.71-4-4-16.47-14.89-33.17-29.08,15.15,21.82,26.26,40.11,26.26,46.36,0,19.14-96.49-67.79-103.67-60.61s83.74,114.84,75,131.58-45.45-51-73.37-51,11.17,50.25-14.35,65.4-33.5-25.52-48.65-49.45-33-145-62.2-130.79-34.39-19.5-34.39-19.5h0c4.49,26,10.85,47.15-3.09,72.13-19.14,34.29-26.31,60.61-41.47,96.5S386,443.7,336.94,452c14.7,4,25.69,8,32,8,16.49,0,100-16.48,147.81-3.19s199.37,12.76,228.61,7.44,6.38-10.63,27.12-21.26,86.66,4.25,110-6.92,63.27,1.6,71.78-6.91S955.87,418.53,926.63,409Z"/><path class="n" d="M356.69,236.57a1.47,1.47,0,1,1-1.47-1.46A1.47,1.47,0,0,1,356.69,236.57Z"/><path class="n" d="M349.38,265.08a1,1,0,1,1-1-1A1,1,0,0,1,349.38,265.08Z"/><path class="n" d="M332.36,280.1a1.4,1.4,0,0,1-2.79,0,1.4,1.4,0,1,1,2.79,0Z"/><path class="n" d="M423.21,176.66a1.1,1.1,0,1,1-1.09-1.1A1.09,1.09,0,0,1,423.21,176.66Z"/><path class="n" d="M444,151.73a2.1,2.1,0,1,1-2.1-2.09A2.1,2.1,0,0,1,444,151.73Z"/><path class="n" d="M425.3,221.27a1,1,0,0,1-2.09,0,1,1,0,1,1,2.09,0Z"/><path class="n" d="M494.79,174a1.6,1.6,0,1,1-3.19,0,1.6,1.6,0,0,1,3.19,0Z"/><path class="n" d="M494.79,197.89a1.6,1.6,0,1,1-1.6-1.6A1.6,1.6,0,0,1,494.79,197.89Z"/><circle class="n" cx="502.86" cy="186.82" r="1.3"/><path class="n" d="M481,136.38a1.1,1.1,0,1,1-1.1-1.09A1.1,1.1,0,0,1,481,136.38Z"/><path class="n" d="M337.61,249.48c-31.5,18.28-23.54,19.65-30.29,28-18.75,24.16-46,32.88-57,48.79-19.59,28.49-16,33-96.2,59.71,21.43-6.39,42.72-13.35,63.29-22.38,25.76-11.45,32.2-40.4,46.23-47.33a242.15,242.15,0,0,0,27.27-19.8c37.12-31.17,6.45-20.84,47.35-45.94l21.52-13c1.43-.91,5.84-3.61,6.48-5.19C365.52,233.81,337.29,249.66,337.61,249.48Z"/><path class="n" d="M920.48,429.55c-40.74-26.2-84.1-40.49-86.19-41.29-18-7-10.15-22.59-103.84-62.77,22.51,10.45,57.16,28.13,76.28,43.86,4.36,3.35,10.6,10.21,14.69,14,12,11.43,43.89,17.71,88.61,46.86-9.72-.15-19.48.69-27.59,4.28a49.88,49.88,0,0,1-10.61,2.95c-38.87,4.29-105.64-11.91-112.34,14.38-.82,3.18.23,4.72-3.8,6.33-45.64-35.64-18.54-45.23-57.37-75.27-21.6-16.67,2-34.84-93.08-82.13,75.74,40.38,74.47,60.38,81.65,73.45,6.25,11.56,12.23,12.7,19.8,20.48,8.87,8.71,11.91,23.64,17.91,37.27,3.78,8.51,7.65,14.68,23.64,28.21-1,.22-2.12.44-3.33.67-35.74,3.47-113.38,3.68-170.17-.62-24.9-45.58-16.34-24.44-15.36-52,.31-10.78-2.12-15.79-8.54-26-18.14-28.34-5.38-26-13.51-49.61-3.94-12-11-23.28-13.76-32.48C513.52,267.46,545,299,499.17,199.48c29.22,67.41,24.57,69.48,21.53,83.37-4,19.17,7.49,30.66,13.59,50.76,3.34,10.55,2.24,19.58,2.57,25.83.33,15,14.46,27.19,17.19,40.4,3.4,14.08-6.73,22.33.51,35.48l12.74,24.31c-16.58-1.42-31-3.26-41.52-5.55-7.26-1.37-31.69-9.71-76.89-6.6-49.5,2.35-73.5,10.62-89.59,6.17-16.71-4.45-35.69-11-60.27-13-70.52-6.59-80.3,36.95-240.85-7.64-24.91-7-53.35-9.09-57.78-17.21,1.14,2.36,3.56,3.68,5.78,4.84,7.87,4.09,94.25,27.17,110.44,30.55,125.88,25.45,126.27-18.31,211.08,2.93,56.15,13.59,17.35,12.48,91.47,5.11,116.42-11.22,61.4,13.12,242.53,12.67,19.29,0,73.62-.61,92.18-6.17,12.34-3.81,10.51-7.73,11.78-12.39,1-5.4,11.83-9.08,12.15-9.25,29.81-5.45,83.43,2.18,100.32-4.74,12.13-5.1,70.85-5,76.15-10.2C949.18,433.7,920.48,429.55,920.48,429.55Z"/><path class="w" d="M399.55,176.66a1.1,1.1,0,1,1-1.09-1.1A1.09,1.09,0,0,1,399.55,176.66Z"/><path class="w" d="M410.65,163.86a1.07,1.07,0,1,1-1.06-1.06A1.07,1.07,0,0,1,410.65,163.86Z"/><path class="w" d="M414.24,190.91a1.27,1.27,0,1,1-1.26-1.26A1.26,1.26,0,0,1,414.24,190.91Z"/><path class="w" d="M431.92,143.79a.93.93,0,1,1-.93-.93A.93.93,0,0,1,431.92,143.79Z"/><path class="w" d="M383.4,184.66a.87.87,0,1,1-.86-.86A.86.86,0,0,1,383.4,184.66Z"/><path class="w" d="M361.21,198.69a.8.8,0,0,1-1.6,0,.8.8,0,0,1,1.6,0Z"/><path class="w" d="M456.51,171.9a1.13,1.13,0,1,1-1.13-1.13A1.13,1.13,0,0,1,456.51,171.9Z"/><path class="x" d="M456.51,138.05a.57.57,0,0,1-.57.56.57.57,0,0,1,0-1.13A.57.57,0,0,1,456.51,138.05Z"/><path class="x" d="M381.67,192.51a1.6,1.6,0,0,1-3.19,0,1.6,1.6,0,1,1,3.19,0Z"/><path class="x" d="M234.93,301.56a1.6,1.6,0,1,1-1.59-1.59A1.6,1.6,0,0,1,234.93,301.56Z"/><path class="x" d="M397.36,188.42a1.6,1.6,0,1,1-1.6-1.6A1.6,1.6,0,0,1,397.36,188.42Z"/></g></svg>