<svg width="435" height="338" viewBox="0 0 435 338" fill="none" xmlns="http://www.w3.org/2000/svg">
<path d="M351.75 226.122H171.25V327.622H351.75V226.122Z" fill="#676FB2"/>
<path d="M351.85 329.122H171.25C170.55 329.122 170.05 328.422 170.05 327.622V226.122C170.05 225.322 170.65 224.622 171.25 224.622H351.75C352.45 224.622 352.95 225.322 352.95 226.122V327.622C353.05 328.422 352.45 329.122 351.85 329.122ZM172.55 326.122H350.65V227.622H172.55V326.122Z" fill="#161B32"/>
<path d="M408.75 59.2222C408.25 59.1222 407.75 59.1222 407.25 59.0222C404.55 58.5222 402.15 57.4222 400.15 55.5222C397.75 53.4222 396.25 50.7222 395.65 47.6222C394.95 43.6222 395.75 40.0222 398.05 36.7222C400.35 33.5222 403.45 31.6222 407.35 30.9222C408.05 30.8222 408.85 30.8222 409.65 30.7222C410.05 30.7222 410.25 30.9222 410.35 31.3222C410.35 31.6222 410.05 31.9222 409.65 31.9222C404.35 32.1222 400.45 34.5222 397.95 39.2222C396.85 41.3222 396.45 43.6222 396.65 46.0222C397.15 50.9222 399.55 54.6222 403.95 56.8222C406.05 57.9222 408.25 58.3222 410.65 58.1222C415.05 57.7222 418.45 55.6222 420.85 51.9222C421.85 50.3222 422.55 48.5222 422.75 46.6222C423.25 42.0222 421.75 38.2222 418.35 35.1222C418.15 34.9222 417.85 34.7222 417.65 34.5222C417.35 34.2222 417.25 33.9222 417.45 33.6222C417.65 33.3222 418.05 33.3222 418.35 33.5222C420.95 35.5222 422.75 38.1222 423.55 41.4222C423.75 42.2222 423.85 43.0222 423.95 43.8222C423.95 43.9222 423.95 43.9222 424.05 44.0222C424.05 44.7222 424.05 45.3222 424.05 46.0222C423.95 46.4222 423.95 46.9222 423.85 47.3222C423.25 50.5222 421.75 53.3222 419.35 55.5222C417.35 57.3222 414.95 58.5222 412.25 59.0222C411.75 59.1222 411.25 59.1222 410.75 59.2222C410.05 59.2222 409.45 59.2222 408.75 59.2222Z" fill="#A8CA62"/>
<path d="M406.95 39.8222C406.95 40.0222 406.95 40.1222 406.95 40.2222C406.95 43.9222 406.95 47.7222 406.95 51.4222C406.95 51.8222 406.75 52.1222 406.45 52.1222C406.15 52.1222 405.85 51.9222 405.75 51.6222C405.75 51.5222 405.75 51.4222 405.75 51.3222C405.75 47.2222 405.75 43.1222 405.75 38.9222C405.75 38.6222 405.75 38.4222 406.05 38.2222C406.35 38.0222 406.55 38.2222 406.85 38.3222C410.15 40.3222 413.55 42.3222 416.85 44.2222C417.45 44.5222 417.45 45.0222 416.85 45.4222C414.55 46.9222 412.25 48.3222 410.05 49.8222C409.85 49.9222 409.65 50.0222 409.55 50.0222C409.25 50.0222 409.15 49.8222 409.05 49.5222C408.95 49.2222 409.15 49.0222 409.35 48.9222C409.95 48.5222 410.55 48.2222 411.05 47.8222C412.45 46.9222 413.95 45.9222 415.35 45.0222C415.45 45.0222 415.45 44.9222 415.55 44.8222C412.65 43.2222 409.85 41.5222 406.95 39.8222Z" fill="#A8CA62"/>
<path d="M432.85 79.4222C432.85 79.4222 432.85 79.0222 432.85 78.2222C432.85 77.4222 432.85 76.3222 432.85 74.8222C432.85 71.9222 432.85 67.6222 432.85 62.1222C432.85 51.2222 432.85 35.5222 432.75 16.7222L432.85 16.8222C412.65 16.8222 388.55 16.8222 362.75 16.8222L362.95 16.6222C362.95 39.4222 362.95 60.8222 362.95 79.2222L362.75 79.0222C383.65 79.0222 401.15 79.1222 413.45 79.1222C419.55 79.1222 424.45 79.1222 427.75 79.1222C429.45 79.1222 430.65 79.1222 431.55 79.1222C431.95 79.1222 432.25 79.1222 432.55 79.1222C432.75 79.4222 432.85 79.4222 432.85 79.4222C432.85 79.4222 432.75 79.4222 432.55 79.4222C432.35 79.4222 432.05 79.4222 431.55 79.4222C430.65 79.4222 429.45 79.4222 427.75 79.4222C424.45 79.4222 419.65 79.4222 413.45 79.4222C401.15 79.4222 383.55 79.4222 362.65 79.5222H362.45V79.3222C362.45 60.9222 362.45 39.5222 362.45 16.7222V16.5222H362.65C388.45 16.5222 412.55 16.5222 432.75 16.5222H432.85V16.6222C432.85 35.5222 432.75 51.1222 432.75 62.1222C432.75 67.6222 432.75 71.8222 432.75 74.8222C432.75 76.3222 432.75 77.4222 432.75 78.1222C432.85 79.1222 432.85 79.4222 432.85 79.4222Z" fill="#A8CA62"/>
<path d="M364.65 14.5222H360.95V18.2222H364.65V14.5222Z" fill="#A8CA62"/>
<path d="M434.15 14.5222H430.45V18.2222H434.15V14.5222Z" fill="#A8CA62"/>
<path d="M434.15 77.0222H430.45V80.7222H434.15V77.0222Z" fill="#A8CA62"/>
<path d="M365.15 77.0222H361.45V80.7222H365.15V77.0222Z" fill="#A8CA62"/>
<path d="M365.15 46.1222H361.45V49.8222H365.15V46.1222Z" fill="#A8CA62"/>
<path d="M399.25 77.6222H395.55V81.3222H399.25V77.6222Z" fill="#A8CA62"/>
<path d="M434.75 44.3223H431.05V48.0223H434.75V44.3223Z" fill="#A8CA62"/>
<path d="M399.25 14.8223H395.55V18.5223H399.25V14.8223Z" fill="#A8CA62"/>
<path d="M273.55 50.1223C274.75 44.1223 277.15 38.5223 279.05 32.7223C281.25 26.0223 282.95 18.5223 288.35 14.0223C291.95 11.0223 296.65 9.82227 301.25 8.82227C305.35 8.02227 309.65 7.32227 313.85 8.22227C315.95 8.62227 317.85 9.42227 319.95 9.92227C322.35 10.5223 333.85 16.6223 334.95 27.3223C335.45 32.3223 334.85 34.2223 335.55 39.2223C335.85 41.6223 335.45 44.5223 336.05 46.8223C339.55 65.4223 334.15 86.1223 333.65 91.0223C333.35 93.5223 337.75 90.2223 342.35 94.8223C344.85 97.3223 340.85 99.8223 343.65 102.022C341.95 103.622 336.05 109.222 334.15 107.822C332.95 106.922 332.25 105.522 332.15 104.122C331.75 104.622 331.25 105.022 330.75 105.322C329.35 105.922 327.75 105.822 326.15 105.722C321.65 105.322 317.05 104.822 313.15 102.622L291.45 73.8223C285.85 76.1223 279.05 72.9223 275.75 67.8223C272.55 62.7223 272.35 56.1223 273.55 50.1223Z" fill="#161B32"/>
<path d="M393.75 59.1222C393.05 55.5222 390.05 56.8222 390.05 56.8222C389.35 53.6222 386.15 54.3222 386.15 54.3222C386.15 54.3222 388.75 46.0222 388.95 43.1222C389.25 40.3222 387.55 40.2222 385.95 41.3222C384.25 42.4222 379.95 54.9222 379.95 54.9222L378.35 55.3222C375.35 56.1222 373.65 59.2222 374.65 62.2222C375.95 66.2222 377.75 70.9222 378.15 72.0222L363.65 102.422C360.65 101.722 323.55 83.5223 323.55 83.5223L317.65 107.122C317.65 107.122 356.65 124.622 367.05 122.422C368.75 122.122 371.55 121.822 373.35 119.622C381.05 109.722 388.05 79.2222 389.15 74.3222L390.95 73.5222C393.45 72.8222 394.85 67.2222 395.75 63.2222C396.45 59.3222 393.75 59.1222 393.75 59.1222Z" fill="#9FBDE0" stroke="#181B32" stroke-width="1.5" stroke-miterlimit="10" stroke-linecap="round" stroke-linejoin="round"/>
<path d="M389.95 56.9222C389.95 56.9222 389.85 57.9222 389.45 59.4222C389.35 59.8222 389.25 60.2222 389.15 60.7222C388.95 61.2222 388.75 61.6222 388.35 62.0222C387.95 62.4222 387.55 62.8222 387.05 63.1222C386.45 63.3222 385.75 63.3222 385.15 63.0222C384.85 62.8222 384.65 62.6222 384.45 62.3222C384.35 62.0222 384.25 61.7222 384.25 61.4222C384.25 60.8222 384.35 60.2222 384.45 59.7222C384.65 58.7222 384.85 57.7222 385.05 57.0222C385.25 56.2222 385.55 55.6222 385.75 55.2222C385.95 54.8222 386.05 54.6222 386.05 54.6222C386.15 54.6222 385.75 55.5222 385.35 57.1222C385.15 57.9222 384.95 58.8222 384.85 59.8222C384.75 60.3222 384.65 60.9222 384.75 61.4222C384.75 61.9222 384.95 62.5222 385.45 62.7222C385.95 62.9222 386.55 62.9222 387.05 62.8222C387.55 62.6222 387.95 62.2222 388.25 61.8222C388.55 61.4222 388.85 61.0222 389.05 60.6222C389.25 60.2222 389.35 59.8222 389.45 59.4222C389.55 57.8222 389.85 56.8222 389.95 56.9222Z" fill="#181B32" stroke="#181B32" stroke-width="0.75" stroke-miterlimit="10" stroke-linecap="round" stroke-linejoin="round"/>
<path d="M393.55 58.6222C393.55 58.6222 393.55 58.8222 393.55 59.3222C393.55 59.7222 393.45 60.3222 393.25 61.1222C393.05 61.9222 392.85 62.8222 392.35 63.7222C392.05 64.1222 391.75 64.6222 391.25 65.0222C390.75 65.3222 390.05 65.5222 389.45 65.2222C388.85 64.9222 388.65 64.2222 388.55 63.6222C388.55 63.0222 388.55 62.5222 388.65 62.0222C388.75 61.0222 388.95 60.1222 389.15 59.3222C389.35 58.6222 389.55 58.0222 389.65 57.5222C389.75 57.1222 389.85 56.9222 389.95 56.9222C390.05 56.9222 389.75 57.8222 389.45 59.3222C389.35 60.0222 389.15 60.9222 389.05 61.9222C388.95 62.4222 388.95 62.9222 388.95 63.4222C388.95 63.9222 389.15 64.5222 389.65 64.7222C390.05 64.9222 390.65 64.8222 391.05 64.5222C391.45 64.2222 391.75 63.8222 392.05 63.4222C392.55 62.6222 392.85 61.7222 393.05 61.0222C393.35 59.5222 393.55 58.6222 393.55 58.6222Z" fill="#181B32" stroke="#181B32" stroke-width="0.75" stroke-miterlimit="10" stroke-linecap="round" stroke-linejoin="round"/>
<path d="M395.75 61.0222C395.75 61.0222 395.85 61.7222 395.75 62.8222C395.65 63.4222 395.55 64.0222 395.25 64.7222C395.15 65.0222 394.95 65.4222 394.75 65.8222C394.55 66.1222 394.05 66.5222 393.55 66.5222C393.05 66.5222 392.65 66.1222 392.45 65.7222C392.25 65.3222 392.25 64.9222 392.25 64.5222C392.25 63.7222 392.45 63.1222 392.55 62.6222C392.85 61.5222 393.05 60.9222 393.05 60.9222C393.15 60.9222 393.05 61.6222 392.75 62.7222C392.65 63.2222 392.55 63.9222 392.55 64.6222C392.55 65.0222 392.55 65.3222 392.75 65.7222C392.85 66.0222 393.15 66.3222 393.45 66.3222C393.75 66.3222 394.15 66.1222 394.35 65.8222C394.55 65.5222 394.75 65.2222 394.85 64.8222C395.15 64.1222 395.25 63.5222 395.45 63.0222C395.65 61.6222 395.65 61.0222 395.75 61.0222Z" fill="#181B32" stroke="#181B32" stroke-width="0.75" stroke-miterlimit="10" stroke-linecap="round" stroke-linejoin="round"/>
<path d="M378.25 55.4223C380.65 54.8223 384.15 54.1223 386.45 53.8223C387.25 55.0223 386.65 56.7223 385.55 57.7223C384.45 58.6223 382.95 58.9223 381.45 59.1223C382.75 59.9223 383.65 61.2223 383.95 62.7223C384.25 64.2223 383.85 65.8223 382.95 67.0223" fill="#9FBDE0"/>
<path d="M383.05 67.1222C382.95 67.1222 383.65 66.3222 383.95 64.7222C384.05 63.9222 384.05 62.9222 383.65 61.9222C383.25 60.9222 382.55 59.9222 381.45 59.2222L381.05 59.0222L381.55 58.9222C382.75 58.7222 384.05 58.5222 385.25 57.7222C386.55 56.9222 387.25 55.0222 386.45 53.9222L386.65 54.0222C384.25 54.3222 382.15 54.7222 380.75 55.0222C380.05 55.1222 379.55 55.2222 379.05 55.3222C378.65 55.4222 378.45 55.4222 378.45 55.4222C378.45 55.4222 378.65 55.3222 379.05 55.2222C379.45 55.1222 380.05 54.9222 380.75 54.8222C382.15 54.5222 384.25 54.0222 386.65 53.7222H386.75L386.85 53.8222C387.35 54.5222 387.35 55.4222 387.15 56.1222C386.95 56.9222 386.35 57.6222 385.65 58.1222C384.45 58.9222 383.05 59.1222 381.85 59.3222L381.95 59.0222C383.15 59.7222 383.85 60.8222 384.25 61.9222C384.65 63.0222 384.65 64.0222 384.45 64.8222C384.25 65.6222 383.95 66.2222 383.75 66.6222C383.15 66.9222 383.05 67.1222 383.05 67.1222Z" fill="#9FBDE0" stroke="#181B32" stroke-width="1.5" stroke-miterlimit="10" stroke-linecap="round" stroke-linejoin="round"/>
<path d="M311.65 75.7222C311.65 75.7222 319.35 75.7222 328.35 82.2222C337.25 88.6222 346.75 92.9222 346.75 92.9222L339.05 118.422L326.65 112.622L311.65 75.7222Z" fill="#A8CA62"/>
<path d="M311.65 75.7222C311.65 75.7222 319.35 75.7222 328.35 82.2222C337.25 88.6222 346.75 92.9222 346.75 92.9222L339.05 118.422L326.65 112.622L311.65 75.7222Z" stroke="#181B32" stroke-width="1.5" stroke-miterlimit="10" stroke-linecap="round" stroke-linejoin="round"/>
<path d="M353.45 290.622L342.05 315.222L323.75 306.822L335.55 276.322L353.45 290.622Z" fill="#9FBDE0" stroke="#181B32" stroke-width="2" stroke-miterlimit="10"/>
<path d="M353.75 299.122L382.65 227.122C382.65 227.122 381.95 214.322 379.65 210.322C377.25 206.322 305.95 182.722 305.95 182.722C305.95 182.722 287.75 178.322 275.65 182.722C263.55 187.122 254.45 202.222 256.15 210.622C257.85 219.022 264.95 225.222 264.95 225.222L317.35 226.822L345.95 237.222L326.75 292.422C326.75 292.322 336.55 303.122 353.75 299.122Z" fill="#181B32"/>
<path d="M379.35 256.822L379.95 283.922L359.85 284.422L356.95 251.922L379.35 256.822Z" fill="#9FBDE0" stroke="#181B32" stroke-width="2" stroke-miterlimit="10"/>
<path d="M381.15 280.522C381.15 280.522 381.25 286.522 382.55 287.922C386.65 292.322 402.25 290.722 402.25 300.022L359.75 302.722L358.35 280.122L381.15 280.522Z" fill="#A8CA62"/>
<path d="M381.15 280.522C381.15 280.522 381.25 286.522 382.55 287.922C386.65 292.322 402.25 290.722 402.25 300.022L359.75 300.722L358.35 280.122L381.15 280.522Z" stroke="#181B32" stroke-width="2" stroke-miterlimit="10"/>
<path d="M367.15 288.022C366.25 288.222 365.75 289.222 365.95 290.122C366.15 291.022 367.15 291.622 367.95 291.322C368.85 291.122 369.55 289.922 369.25 289.122C368.95 288.322 367.75 287.622 366.95 288.022" fill="#181B32"/>
<path d="M358.75 302.722L358.85 299.122H403.25C403.25 299.122 403.45 301.322 403.25 302.722H358.75Z" fill="#181B32"/>
<path d="M384.55 288.622C384.55 288.822 383.45 288.822 382.35 289.522C381.25 290.122 380.65 291.022 380.45 290.922C380.25 290.822 380.65 289.622 382.05 288.822C383.25 288.122 384.55 288.422 384.55 288.622Z" fill="#181B32"/>
<path d="M389.35 290.622C389.35 290.822 388.35 291.122 387.55 291.922C386.65 292.722 386.35 293.622 386.15 293.622C385.95 293.622 385.95 292.322 387.05 291.322C388.05 290.322 389.35 290.422 389.35 290.622Z" fill="#181B32"/>
<path d="M391.05 294.522C390.85 294.522 390.95 293.422 391.85 292.422C392.75 291.522 393.95 291.422 393.95 291.622C394.05 291.822 393.15 292.222 392.45 292.922C391.65 293.722 391.35 294.522 391.05 294.522Z" fill="#181B32"/>
<path d="M382.25 285.822C382.15 286.022 381.15 285.722 379.95 285.822C378.75 285.922 377.75 286.322 377.65 286.122C377.55 285.922 378.45 285.122 379.85 285.022C381.35 284.922 382.35 285.622 382.25 285.822Z" fill="#181B32"/>
<path d="M345.85 308.722C345.85 308.722 343.55 314.222 344.15 316.122C346.15 321.722 361.05 326.622 357.35 335.122L317.35 320.522L325.15 299.222L345.85 308.722Z" fill="#A8CA62"/>
<path d="M345.85 308.722C345.85 308.722 343.55 314.222 344.15 316.122C346.15 321.722 361.05 326.622 357.35 335.122L318.15 318.722L325.15 299.322L345.85 308.722Z" stroke="#181B32" stroke-width="2" stroke-miterlimit="10"/>
<path d="M329.95 309.922C329.05 309.822 328.15 310.422 327.95 311.322C327.75 312.222 328.45 313.122 329.35 313.322C330.25 313.422 331.35 312.722 331.45 311.822C331.55 310.922 330.65 309.822 329.75 309.922" fill="#181B32"/>
<path d="M316.35 320.022L317.85 316.722L358.55 334.522C358.55 334.522 357.85 336.622 357.15 337.822L316.35 320.022Z" fill="#181B32"/>
<path d="M345.65 317.522C345.55 317.722 344.55 317.322 343.25 317.422C341.95 317.522 341.05 318.122 340.95 317.922C340.75 317.822 341.65 316.822 343.25 316.622C344.75 316.522 345.75 317.322 345.65 317.522Z" fill="#181B32"/>
<path d="M349.25 321.222C349.15 321.422 348.15 321.222 347.05 321.622C345.95 322.022 345.25 322.722 345.05 322.622C344.85 322.522 345.35 321.422 346.75 320.922C348.15 320.422 349.35 321.022 349.25 321.222Z" fill="#181B32"/>
<path d="M349.35 325.522C349.15 325.422 349.75 324.422 350.95 324.022C352.15 323.522 353.25 323.922 353.15 324.122C353.15 324.322 352.15 324.322 351.15 324.722C350.15 325.022 349.45 325.622 349.35 325.522Z" fill="#181B32"/>
<path d="M344.75 313.922C344.55 314.022 343.75 313.422 342.65 313.022C341.55 312.622 340.45 312.622 340.45 312.422C340.35 312.222 341.55 311.822 342.95 312.322C344.25 312.822 344.95 313.822 344.75 313.922Z" fill="#181B32"/>
<path d="M367.55 175.622C367.55 175.622 379.65 174.622 380.95 187.822C382.25 200.922 383.65 262.122 383.65 262.122L355.35 264.522L350.95 201.922L305.85 182.722C305.95 182.722 359.45 173.922 367.55 175.622Z" fill="#181B32"/>
<path d="M317.75 157.922C317.75 157.922 325.05 178.522 323.65 180.822C322.25 183.122 303.35 192.522 303.35 192.522L258.25 216.622C258.25 216.622 251.25 202.922 251.25 191.122C251.25 179.322 261.65 151.922 261.65 151.922L317.75 157.922Z" fill="#181B32"/>
<path d="M303.75 181.622C303.75 181.622 303.85 181.622 303.95 181.722C304.15 181.822 304.35 181.922 304.65 182.022C305.25 182.322 306.15 182.722 307.25 183.222C309.55 184.222 312.85 185.722 317.05 187.522C325.45 191.122 337.25 196.222 350.95 202.122L350.75 201.922C351.15 208.122 351.65 214.822 352.15 221.722C353.25 237.822 354.35 252.722 355.15 264.522V264.722H355.35C363.95 263.922 370.95 263.322 375.95 262.922C378.35 262.722 380.25 262.522 381.65 262.422C382.25 262.322 382.75 262.322 383.15 262.222C383.45 262.222 383.15 262.222 383.15 262.222C383.15 262.222 383.45 262.122 383.15 262.122C382.75 262.122 382.25 262.222 381.65 262.222C380.35 262.322 378.45 262.422 375.95 262.622C371.05 263.022 363.95 263.522 355.35 264.222L355.55 264.422C354.75 252.622 353.75 237.722 352.65 221.622C352.15 214.722 351.65 208.022 351.25 201.822V201.622L351.15 201.522C337.45 195.722 325.65 190.722 317.15 187.122C312.95 185.322 309.65 183.922 307.25 183.022C306.15 182.522 305.25 182.222 304.65 181.922C304.35 181.822 304.15 181.722 303.95 181.622C303.75 181.722 303.75 181.622 303.75 181.622Z" fill="#676FB2" stroke="#676FB2" stroke-width="1.3" stroke-miterlimit="10" stroke-linecap="round" stroke-linejoin="round"/>
<path d="M266.15 183.722C266.15 183.722 266.65 183.622 267.45 183.322C268.35 183.022 269.55 182.622 271.05 182.222C274.05 181.222 278.25 179.922 282.95 179.222C287.65 178.522 292.05 178.722 295.15 179.422C298.25 180.022 299.95 180.922 300.05 180.822C300.05 180.822 299.65 180.522 298.85 180.222C298.05 179.822 296.85 179.422 295.25 179.022C292.15 178.222 287.75 177.922 282.95 178.722C278.15 179.422 273.95 180.822 271.05 181.922C269.55 182.422 268.35 182.922 267.55 183.222C266.55 183.522 266.15 183.722 266.15 183.722Z" fill="#676FB2" stroke="#676FB2" stroke-width="0.75" stroke-miterlimit="10"/>
<path d="M272.85 172.822C272.85 172.922 274.45 172.622 276.95 172.822C278.25 172.922 279.75 173.122 281.45 173.322C283.15 173.522 284.95 173.722 286.85 174.122C290.65 174.822 293.95 176.122 296.15 177.522C298.25 178.922 299.25 180.222 299.35 180.122C299.35 180.122 299.15 179.722 298.65 179.222C298.15 178.722 297.45 177.922 296.35 177.222C294.25 175.722 290.85 174.222 286.95 173.622C285.05 173.222 283.15 173.022 281.45 172.822C279.75 172.622 278.25 172.522 276.95 172.422C275.65 172.422 274.65 172.422 273.85 172.522C273.25 172.722 272.85 172.822 272.85 172.822Z" fill="#676FB2" stroke="#676FB2" stroke-width="0.75" stroke-miterlimit="10"/>
<path d="M326.75 111.222C326.65 114.622 324.35 118.622 322.25 124.722C319.75 132.022 318.75 135.222 318.45 137.622C316.65 151.022 318.65 156.622 319.25 165.822C319.65 170.822 253.55 162.822 253.55 162.822C253.55 162.822 255.95 156.622 257.55 149.822C259.45 141.622 268.65 84.4222 268.65 84.4222C268.65 84.4222 271.05 73.7222 275.15 72.8222C279.25 71.9222 286.95 70.1222 289.75 79.0222C292.55 87.8222 289.65 77.7222 295.55 83.8222C301.45 89.9222 304.45 90.8222 304.45 90.8222C304.45 90.8222 313.15 89.0222 313.45 81.1222C313.75 73.0222 326.85 103.622 326.75 111.222Z" fill="#A8CA62"/>
<path d="M326.75 111.222C325.75 116.222 322.95 122.422 320.45 129.822C317.45 138.522 317.65 146.322 317.65 165.822C317.65 173.822 253.65 162.822 253.65 162.822C253.65 162.822 256.55 157.522 256.05 150.522C255.55 143.522 264.75 83.6222 264.75 83.6222C264.75 83.6222 271.15 73.7222 275.25 72.7222C279.35 71.8222 287.05 70.0222 289.85 78.9222C292.65 87.7222 289.75 77.6222 295.65 83.7222C301.55 89.8222 304.55 88.7222 304.55 88.7222C304.55 88.7222 313.25 70.4222 316.75 76.4222C319.35 80.7222 329.25 98.7222 326.75 111.222Z" stroke="#181B32" stroke-width="1.5" stroke-miterlimit="10" stroke-linecap="round" stroke-linejoin="round"/>
<path d="M251.35 111.422L276.55 123.222C276.55 123.222 286.85 100.522 287.65 97.4222C288.55 94.3222 291.35 89.4222 288.45 82.9222C285.65 76.4222 278.45 72.8222 273.75 74.5222C262.65 78.4222 251.35 111.422 251.35 111.422Z" fill="#A8CA62"/>
<path d="M273.75 74.5222C262.65 78.4222 251.35 111.422 251.35 111.422L276.55 123.222C276.55 123.222 282.65 109.422 285.95 101.822" stroke="#181B32" stroke-width="1.5" stroke-miterlimit="10" stroke-linecap="round" stroke-linejoin="round"/>
<path d="M255.55 137.922C255.65 138.022 257.65 136.322 260.65 135.222C263.65 134.122 266.25 134.022 266.25 133.922C266.25 133.822 263.55 133.622 260.45 134.722C257.35 135.922 255.45 137.922 255.55 137.922Z" fill="#EC9A6E"/>
<path d="M331.25 162.822L310.45 161.122L308.75 159.922L265.95 133.922C265.95 133.922 268.35 129.422 273.15 121.622L253.55 112.422L244.75 136.822C242.85 143.122 248.25 148.722 248.25 148.722L303.75 171.522C303.75 171.522 309.25 174.122 312.05 174.322L329.55 173.822L338.65 174.822L341.85 167.922L331.25 162.822Z" fill="#9FBDE0" stroke="#181B32" stroke-width="1.5" stroke-miterlimit="10" stroke-linecap="round" stroke-linejoin="round"/>
<path d="M315.05 55.6222C314.45 54.8222 313.45 54.3222 312.45 54.4222C311.75 54.4222 311.05 54.8222 310.55 55.3222C310.05 55.9222 309.95 56.7222 310.35 57.2222C310.75 57.8222 311.65 58.0222 312.45 57.8222C313.25 57.6222 313.95 57.1222 314.55 56.6222C314.75 56.5222 314.95 56.3222 315.05 56.1222C315.25 56.1222 315.25 55.8222 315.05 55.6222Z" fill="#EC9A6E"/>
<path d="M311.05 52.6222C311.35 52.6222 311.25 54.4222 312.75 55.7222C314.25 57.0222 316.15 56.9222 316.15 57.2222C316.15 57.3222 315.75 57.5222 314.95 57.5222C314.15 57.5222 313.05 57.2222 312.15 56.4222C311.25 55.6222 310.85 54.5222 310.85 53.8222C310.75 53.1222 310.95 52.6222 311.05 52.6222Z" fill="#263239"/>
<path d="M401.85 126.822L341.85 127.322C339.95 127.322 338.05 128.222 337.75 130.222L331.15 173.922H300.25C299.25 173.922 298.45 174.722 298.45 175.722C298.45 176.722 299.25 177.522 300.25 177.522H330.65H336.45H399.05L405.75 131.322C406.15 129.022 404.25 126.822 401.85 126.822Z" fill="#9FBDE0" stroke="#181B32" stroke-width="1.5" stroke-miterlimit="10" stroke-linecap="round" stroke-linejoin="round"/>
<path d="M401.85 126.822C401.85 126.822 402.15 126.822 402.75 126.922C403.35 127.022 404.25 127.422 405.05 128.422C405.45 128.922 405.75 129.622 405.75 130.322C405.85 131.122 405.65 131.922 405.55 132.822C405.25 134.622 405.05 136.622 404.65 138.922C403.35 148.122 401.45 161.322 399.05 177.522V177.722H398.85C373.35 177.722 339.75 177.722 303.05 177.822C302.15 177.822 301.35 177.822 300.45 177.822C300.05 177.822 299.45 177.822 299.05 177.522C298.65 177.322 298.25 176.922 298.15 176.422C297.75 175.522 298.25 174.422 299.05 173.922C299.45 173.722 300.05 173.622 300.45 173.622H301.75C305.15 173.622 308.45 173.622 311.75 173.622C318.35 173.622 324.75 173.622 330.95 173.622L330.75 173.822C333.15 158.122 335.35 143.522 337.25 130.422C337.35 129.622 337.65 128.722 338.35 128.122C339.05 127.522 339.85 127.222 340.65 127.122C341.45 127.022 342.25 127.022 343.05 127.022C343.85 127.022 344.65 127.022 345.45 127.022C348.55 127.022 351.55 127.022 354.45 126.922C360.25 126.922 365.65 126.822 370.55 126.822C380.25 126.822 388.05 126.722 393.45 126.722C396.15 126.722 398.15 126.722 399.55 126.722C400.25 126.722 400.75 126.722 401.15 126.722C401.65 126.822 401.85 126.822 401.85 126.822C401.85 126.822 401.65 126.822 401.35 126.822C400.95 126.822 400.45 126.822 399.75 126.822C398.35 126.822 396.25 126.822 393.65 126.922C388.35 127.022 380.55 127.022 370.75 127.222C365.85 127.222 360.55 127.322 354.65 127.422C351.75 127.422 348.75 127.522 345.65 127.522C344.85 127.522 344.05 127.522 343.25 127.522C342.45 127.522 341.65 127.522 340.85 127.622C340.05 127.722 339.35 128.022 338.75 128.522C338.15 129.022 337.85 129.722 337.75 130.522C335.75 143.622 333.65 158.222 331.25 173.922V174.122H331.05C324.85 174.122 318.45 174.122 311.85 174.122C308.55 174.122 305.25 174.122 301.85 174.122H300.55C300.15 174.122 299.75 174.122 299.45 174.322C298.75 174.622 298.45 175.522 298.75 176.222C298.85 176.522 299.15 176.822 299.45 177.022C299.75 177.222 300.15 177.222 300.55 177.222C301.45 177.222 302.25 177.222 303.15 177.222C339.85 177.222 373.35 177.222 398.95 177.322L398.75 177.522C401.15 161.322 403.15 148.122 404.45 138.922C404.75 136.622 405.05 134.622 405.35 132.822C405.45 131.922 405.65 131.122 405.55 130.422C405.45 129.722 405.25 129.022 404.85 128.522C404.15 127.522 403.25 127.122 402.65 127.022C402.15 126.822 401.85 126.922 401.85 126.822Z" fill="#9FBDE0"/>
<path d="M401.85 126.822C401.85 126.822 402.15 126.822 402.75 126.922C403.35 127.022 404.25 127.422 405.05 128.422C405.45 128.922 405.75 129.622 405.75 130.322C405.85 131.122 405.65 131.922 405.55 132.822C405.25 134.622 405.05 136.622 404.65 138.922C403.35 148.122 401.45 161.322 399.05 177.522V177.722H398.85C373.35 177.722 339.75 177.722 303.05 177.822C302.15 177.822 301.35 177.822 300.45 177.822C300.05 177.822 299.45 177.822 299.05 177.522C298.65 177.322 298.25 176.922 298.15 176.422C297.75 175.522 298.25 174.422 299.05 173.922C299.45 173.722 300.05 173.622 300.45 173.622H301.75C305.15 173.622 308.45 173.622 311.75 173.622C318.35 173.622 324.75 173.622 330.95 173.622L330.75 173.822C333.15 158.122 335.35 143.522 337.25 130.422C337.35 129.622 337.65 128.722 338.35 128.122C339.05 127.522 339.85 127.222 340.65 127.122C341.45 127.022 342.25 127.022 343.05 127.022C343.85 127.022 344.65 127.022 345.45 127.022C348.55 127.022 351.55 127.022 354.45 126.922C360.25 126.922 365.65 126.822 370.55 126.822C380.25 126.822 388.05 126.722 393.45 126.722C396.15 126.722 398.15 126.722 399.55 126.722C400.25 126.722 400.75 126.722 401.15 126.722C401.65 126.822 401.85 126.822 401.85 126.822ZM401.85 126.822C401.85 126.822 401.65 126.822 401.35 126.822C400.95 126.822 400.45 126.822 399.75 126.822C398.35 126.822 396.25 126.822 393.65 126.922C388.35 127.022 380.55 127.022 370.75 127.222C365.85 127.222 360.55 127.322 354.65 127.422C351.75 127.422 348.75 127.522 345.65 127.522C344.85 127.522 344.05 127.522 343.25 127.522C342.45 127.522 341.65 127.522 340.85 127.622C340.05 127.722 339.35 128.022 338.75 128.522C338.15 129.022 337.85 129.722 337.75 130.522C335.75 143.622 333.65 158.222 331.25 173.922V174.122H331.05C324.85 174.122 318.45 174.122 311.85 174.122C308.55 174.122 305.25 174.122 301.85 174.122H300.55C300.15 174.122 299.75 174.122 299.45 174.322C298.75 174.622 298.45 175.522 298.75 176.222C298.85 176.522 299.15 176.822 299.45 177.022C299.75 177.222 300.15 177.222 300.55 177.222C301.45 177.222 302.25 177.222 303.15 177.222C339.85 177.222 373.35 177.222 398.95 177.322L398.75 177.522C401.15 161.322 403.15 148.122 404.45 138.922C404.75 136.622 405.05 134.622 405.35 132.822C405.45 131.922 405.65 131.122 405.55 130.422C405.45 129.722 405.25 129.022 404.85 128.522C404.15 127.522 403.25 127.122 402.65 127.022C402.15 126.822 401.85 126.922 401.85 126.822Z" stroke="#181B32" stroke-width="1.5" stroke-miterlimit="10" stroke-linecap="round" stroke-linejoin="round"/>
<path d="M333.65 177.122C333.75 177.122 335.65 166.022 337.95 152.222C340.25 138.422 341.95 127.322 341.95 127.322C341.85 127.322 339.95 138.422 337.65 152.222C335.35 166.022 333.55 177.122 333.65 177.122Z" fill="#181B32" stroke="#181B32" stroke-miterlimit="10"/>
<path d="M326.55 49.3223C326.55 50.1223 325.85 50.8223 325.05 50.8223C324.25 50.8223 323.55 50.2223 323.55 49.3223C323.55 48.5223 324.25 47.8223 325.05 47.8223C325.85 47.9223 326.55 48.5223 326.55 49.3223Z" fill="#263239"/>
<path d="M326.85 45.5222C326.65 45.7222 325.55 44.8222 323.85 44.7222C322.15 44.6222 320.95 45.4222 320.75 45.2222C320.65 45.1222 320.85 44.8222 321.45 44.4222C321.95 44.0222 322.85 43.7222 323.95 43.7222C324.95 43.7222 325.85 44.2222 326.35 44.6222C326.85 45.0222 326.95 45.4222 326.85 45.5222Z" fill="#263239"/>
<path d="M311.25 48.7222C311.25 49.5222 310.55 50.2222 309.75 50.2222C308.95 50.2222 308.25 49.6222 308.25 48.7222C308.25 47.9222 308.95 47.2222 309.75 47.2222C310.55 47.2222 311.25 47.9222 311.25 48.7222Z" fill="#263239"/>
<path d="M310.55 45.1223C310.35 45.3223 309.25 44.4223 307.55 44.3223C305.85 44.2223 304.65 45.0223 304.45 44.8223C304.35 44.7223 304.55 44.4223 305.15 44.0223C305.65 43.6223 306.55 43.3223 307.65 43.3223C308.65 43.3223 309.55 43.8223 310.05 44.2223C310.45 44.7223 310.65 45.1223 310.55 45.1223Z" fill="#263239"/>
<path d="M316.05 57.7222C316.05 57.6222 317.05 57.5222 318.75 57.3222C319.15 57.3222 319.55 57.2222 319.65 56.9222C319.75 56.6222 319.65 56.1222 319.45 55.6222C319.05 54.6222 318.75 53.5222 318.35 52.3222C316.75 47.6222 315.65 43.8222 315.85 43.8222C316.05 43.7222 317.45 47.5222 319.05 52.1222C319.45 53.2222 319.75 54.3222 320.15 55.4222C320.25 55.9222 320.55 56.4222 320.35 57.1222C320.25 57.4222 319.95 57.6222 319.65 57.7222C319.35 57.8222 319.15 57.8222 318.95 57.8222C317.15 57.8222 316.05 57.8222 316.05 57.7222Z" fill="#263239"/>
<path d="M311.25 38.7222C311.05 39.1222 309.45 38.9222 307.45 39.0222C305.45 39.1222 303.85 39.6222 303.65 39.2222C303.55 39.0222 303.85 38.6222 304.45 38.2222C305.05 37.8222 306.15 37.4222 307.25 37.3222C308.45 37.2222 309.45 37.4222 310.15 37.8222C310.95 38.1222 311.35 38.5222 311.25 38.7222Z" fill="#263239"/>
<path d="M326.45 40.7222C326.15 41.1222 325.05 40.6222 323.65 40.6222C322.25 40.5222 321.15 40.8222 320.85 40.3222C320.75 40.1222 320.95 39.7222 321.45 39.4222C321.95 39.1222 322.85 38.8222 323.75 38.9222C324.65 39.0222 325.45 39.3222 325.95 39.7222C326.45 40.1222 326.55 40.5222 326.45 40.7222Z" fill="#263239"/>
<path d="M292.55 76.8222L289.25 25.5222C289.25 23.3222 290.85 21.4222 293.05 21.1222L309.15 18.0222C316.45 17.2222 328.35 26.2222 328.85 33.5222C329.35 41.6222 329.45 49.0222 328.55 55.0222C326.65 67.2222 314.45 68.0222 314.45 68.0222C313.15 68.9222 308.25 69.2222 311.55 81.8222C311.55 81.8222 311.15 82.5222 306.75 82.1222C296.95 81.0222 292.55 76.8222 292.55 76.8222Z" fill="#9FBFE0"/>
<path d="M319.35 15.5222C319.25 14.8222 318.65 14.2222 318.05 13.8222C314.35 10.9222 309.35 10.1222 304.75 10.8222C300.15 11.5222 295.85 13.7222 292.05 16.3222C288.75 18.6222 285.55 21.4222 283.85 25.1222C282.65 27.7222 282.25 30.6222 281.85 33.4222C280.85 40.4222 278.95 47.5222 279.05 54.6222C279.05 57.4222 278.55 62.0222 279.05 65.4222C279.55 69.0222 283.05 73.5222 286.65 74.3222L292.45 77.7222C292.45 77.7222 290.35 60.0222 290.75 54.5222C291.05 49.7222 291.05 44.5222 291.55 39.7222C291.55 39.3222 291.65 38.9222 291.85 38.6222C292.05 38.2222 292.55 38.0222 292.95 37.7222C294.65 36.8222 296.35 36.0222 298.05 35.1222C299.65 34.3222 301.25 33.4222 302.85 32.4222C304.55 31.3222 306.05 30.4222 307.65 29.1222C309.85 27.2222 311.85 25.7222 314.05 23.9222C315.45 22.7222 317.05 20.7222 318.05 19.2222C319.05 17.7222 319.55 15.8222 319.15 14.1222" fill="#161B32"/>
<path d="M292.15 43.2223C292.05 40.6223 289.15 38.9223 286.95 40.2223C285.75 40.9223 284.75 42.4222 284.85 45.1222C285.15 52.5222 292.45 50.6222 292.45 50.4222C292.55 50.3222 292.35 46.3223 292.15 43.2223Z" fill="#9FBFE0"/>
<path d="M290.15 47.7222C290.15 47.7222 290.05 47.8222 289.85 47.9222C289.65 48.0222 289.25 48.1222 288.85 48.0222C288.05 47.7222 287.35 46.5222 287.25 45.2222C287.25 44.5222 287.35 43.9222 287.55 43.3222C287.75 42.8222 288.05 42.4222 288.45 42.3222C288.85 42.2222 289.15 42.4222 289.25 42.6222C289.35 42.8222 289.35 43.0222 289.35 43.0222C289.35 43.0222 289.55 42.9222 289.45 42.6222C289.45 42.5222 289.35 42.3222 289.15 42.2222C288.95 42.1222 288.75 42.0222 288.45 42.0222C287.85 42.1222 287.35 42.6222 287.15 43.2222C286.85 43.8222 286.75 44.5222 286.75 45.3222C286.85 46.8222 287.65 48.1222 288.75 48.4222C289.25 48.5222 289.65 48.3222 289.95 48.2222C290.15 47.9222 290.15 47.8222 290.15 47.7222Z" fill="#161B32"/>
<path d="M289.15 48.7222C289.55 48.7222 289.95 48.5222 290.15 48.4222C290.35 48.2222 290.55 48.0222 290.45 47.8222V47.7222L290.35 47.6222C290.15 47.5222 290.05 47.6222 289.95 47.7222C289.95 47.7222 289.85 47.8222 289.75 47.8222C289.55 47.9222 289.25 47.9222 288.95 47.8222C288.25 47.6222 287.65 46.4222 287.55 45.2222C287.55 44.6222 287.55 44.0222 287.85 43.5222C288.05 43.0222 288.35 42.7222 288.55 42.6222C288.85 42.5222 288.95 42.7222 289.05 42.8222C289.05 42.9222 289.15 42.9222 289.15 43.0222C289.15 43.1222 289.15 43.2222 289.25 43.3222L289.35 43.4222L289.55 43.3222C289.65 43.2222 289.85 42.9222 289.75 42.6222C289.65 42.4222 289.55 42.2222 289.35 42.0222C289.15 41.8222 288.75 41.7222 288.45 41.8222C287.75 41.9222 287.15 42.6222 286.95 43.2222C286.65 43.9222 286.55 44.6222 286.55 45.4222C286.65 47.1222 287.55 48.5222 288.75 48.7222C288.85 48.6222 288.95 48.7222 289.15 48.7222Z" fill="#161B32"/>
<path d="M314.85 53.2222C316.25 53.2222 318.25 52.7222 318.75 50.8222C319.05 49.6222 318.45 48.6222 317.85 47.5222C317.65 47.1222 317.35 46.7222 317.15 46.2222C316.15 44.1222 316.55 44.5222 316.55 44.5222C316.35 44.1222 315.95 43.8222 315.45 44.0222C315.05 44.2222 314.75 44.6222 314.95 45.1222C314.95 45.2222 314.55 44.8222 315.65 46.9222C315.95 47.4222 316.15 47.9222 316.45 48.3222C317.05 49.3222 317.35 49.8222 317.15 50.4222C316.75 51.8222 314.45 51.6222 314.45 51.6222C313.95 51.6222 313.55 51.9222 313.55 52.3222C313.45 52.8222 313.85 53.2222 314.25 53.2222C314.45 53.2222 314.65 53.2222 314.85 53.2222Z" fill="#161B32"/>
<path d="M306.95 46.9222C308.055 46.9222 308.95 45.7581 308.95 44.3222C308.95 42.8862 308.055 41.7222 306.95 41.7222C305.846 41.7222 304.95 42.8862 304.95 44.3222C304.95 45.7581 305.846 46.9222 306.95 46.9222Z" fill="#161B32"/>
<path d="M321.85 43.8222C321.85 45.3222 322.75 46.4222 323.85 46.4222C324.95 46.4222 325.85 45.2222 325.85 43.8222C325.85 42.4222 324.95 41.2222 323.85 41.2222C322.75 41.2222 321.85 42.3222 321.85 43.8222Z" fill="#161B32"/>
<path d="M312.95 59.4222C314.25 59.4222 315.35 58.9222 315.95 58.4222C316.35 58.1222 316.45 57.6222 316.15 57.2222C315.85 56.8222 315.35 56.8222 314.95 57.0222C314.75 57.2222 312.55 58.7222 310.75 56.6222C310.45 56.3222 309.95 56.2222 309.55 56.5222C309.25 56.8222 309.15 57.3222 309.45 57.7222C310.65 59.0222 311.85 59.4222 312.95 59.4222Z" fill="#161B32"/>
<path d="M158.85 127.622L155.85 146.622C155.85 146.622 148.05 145.622 128.35 145.622C126.95 145.622 125.65 145.322 124.45 145.322C119.45 144.922 115.75 144.722 115.05 145.022C114.55 145.222 114.15 145.422 113.65 145.522C106.05 148.622 102.15 152.022 102.15 152.022L95.0498 154.422L94.0498 157.222C97.6498 157.022 101.25 156.322 104.75 155.422C107.45 154.522 109.85 153.922 111.35 153.722C115.05 153.222 117.45 156.322 117.15 159.122L161.75 169.822C161.75 169.822 172.85 172.122 174.95 162.622C178.15 148.622 180.95 133.122 180.95 133.122C180.95 133.122 162.55 133.822 158.85 127.622Z" fill="#9FBDE0" stroke="#181B32" stroke-width="1.5" stroke-miterlimit="10" stroke-linecap="round" stroke-linejoin="round"/>
<path d="M175.35 81.2222C175.35 81.2222 168.05 84.7222 162.05 104.722C156.15 124.222 154.95 131.122 154.95 131.122C154.95 131.122 167.25 138.422 170.75 136.322C182.55 128.922 175.35 81.2222 175.35 81.2222Z" fill="#181B32"/>
<path d="M128.95 170.622H57.75V174.322H128.95V170.622Z" fill="#9FBDE0" stroke="#181B32" stroke-width="1.5" stroke-miterlimit="10" stroke-linecap="round" stroke-linejoin="round"/>
<path d="M94.8501 283.522C94.8501 283.522 88.6501 293.722 85.6501 297.322C84.9501 298.222 78.3501 304.122 70.9501 300.422C63.4501 296.722 58.0501 293.922 55.7501 297.322C53.4501 300.722 52.8501 302.422 52.8501 302.422C52.8501 302.422 59.7501 312.022 66.0501 315.422C72.3501 318.822 75.0501 317.022 81.6501 320.722C88.2501 324.422 88.8501 327.222 94.2501 326.122C99.6501 325.022 102.85 307.722 104.25 305.822C105.65 303.822 111.15 292.822 111.15 292.822L94.8501 283.522Z" fill="#9FBDE0" stroke="#181B32" stroke-width="2" stroke-miterlimit="10"/>
<path d="M106.55 217.522L81.0498 280.322L111.45 297.322C111.45 297.322 143.85 224.922 144.15 223.522C144.45 222.122 150.15 220.722 150.15 220.722L173.35 223.822C173.35 223.822 138.35 208.522 128.05 206.322C117.75 204.022 110.85 205.722 106.55 217.522Z" fill="#A8CA62"/>
<path d="M106.55 217.522L81.0498 280.322L111.45 297.322C111.45 297.322 143.85 224.922 144.15 223.522C144.45 222.122 150.15 220.722 150.15 220.722L173.35 223.822C173.35 223.822 138.35 208.522 128.05 206.322C117.75 204.022 110.85 205.722 106.55 217.522Z" stroke="#181B32" stroke-width="2" stroke-miterlimit="10" stroke-linecap="round" stroke-linejoin="round"/>
<path d="M129.35 272.322L143.65 285.622C143.65 285.622 142.25 293.922 136.45 301.622C130.75 309.222 134.95 311.722 137.55 313.422C140.15 315.122 140.55 316.922 143.95 314.622C147.35 312.322 166.85 293.422 169.15 290.022C171.45 286.622 168.85 283.222 168.05 282.722C167.15 282.122 148.25 259.822 148.25 259.822L129.35 272.322Z" fill="#9FBDE0" stroke="#181B32" stroke-width="2" stroke-miterlimit="10"/>
<path d="M169.75 177.022L168.35 181.822C168.35 181.822 125.05 182.422 106.15 187.522C87.2498 192.622 82.0498 195.422 83.4498 205.922C84.8498 216.422 114.15 276.622 114.15 276.622C114.15 276.622 121.85 274.622 131.35 270.422C140.85 266.222 149.95 259.122 149.95 259.122L128.15 218.122C128.15 218.122 153.05 223.222 180.95 225.722C208.75 228.222 220.55 225.422 225.15 217.222C229.75 209.022 221.95 176.222 221.95 176.222L170.05 174.522L169.75 177.022Z" fill="#A8CA62"/>
<path d="M114.15 277.522C113.75 277.522 113.35 277.322 113.25 276.922C112.05 274.422 83.9502 216.422 82.4502 205.922C80.8502 194.322 87.6502 191.322 105.85 186.422C123.55 181.622 161.55 180.822 167.55 180.722L168.75 176.722L169.05 174.222C169.15 173.722 169.55 173.222 170.15 173.322L222.05 175.022C222.55 175.022 222.95 175.322 223.05 175.822C223.35 177.222 230.85 209.122 226.15 217.522C221.15 226.522 208.45 229.022 181.05 226.522C158.15 224.422 136.95 220.522 130.35 219.322L151.15 258.422C151.35 258.822 151.25 259.422 150.85 259.722C150.75 259.822 141.45 266.922 132.05 271.122C122.65 275.322 114.75 277.422 114.65 277.422C114.35 277.522 114.25 277.522 114.15 277.522ZM170.95 175.522L170.75 177.122C170.75 177.222 170.75 177.222 170.75 177.322L169.35 182.122C169.25 182.522 168.85 182.822 168.35 182.822C167.95 182.822 124.95 183.422 106.35 188.422C86.6502 193.722 83.1502 196.422 84.4502 205.622C85.7502 215.122 111.25 268.122 114.65 275.222C116.85 274.622 123.35 272.622 130.85 269.322C138.65 265.822 146.25 260.322 148.55 258.622L127.15 218.422C126.95 218.022 126.95 217.622 127.25 217.322C127.45 217.022 127.85 216.822 128.25 216.922C128.45 217.022 153.45 222.022 180.85 224.522C207.05 226.922 219.55 224.622 224.05 216.522C227.55 210.222 223.15 186.622 220.95 177.022L170.95 175.522Z" fill="#181B32"/>
<path d="M128.15 219.022C127.95 219.022 127.85 219.022 127.65 218.922C127.25 218.722 117.65 213.322 110.95 207.722C110.55 207.322 110.45 206.722 110.85 206.222C111.25 205.722 111.85 205.722 112.35 206.122C118.85 211.622 128.65 217.022 128.75 217.122C129.25 217.422 129.45 218.022 129.15 218.522C128.95 218.822 128.55 219.022 128.15 219.022Z" fill="#181B32"/>
<path d="M171.15 182.422C171.15 182.422 192.15 184.022 206.95 192.822L171.15 182.422Z" fill="#181B32"/>
<path d="M145.25 166.022C160.75 171.422 177.35 177.122 178.05 177.622C179.45 178.422 182.65 180.722 185.25 178.422C187.85 176.122 194.75 157.222 194.75 157.222L169.85 153.222L166.15 156.622C166.15 156.622 157.65 155.522 147.65 154.322L145.25 166.022Z" fill="#59575D" stroke="#263239" stroke-miterlimit="10" stroke-linecap="round" stroke-linejoin="round"/>
<path d="M205.85 117.322L205.25 121.122" stroke="#555258" stroke-miterlimit="10" stroke-linecap="round" stroke-linejoin="round"/>
<path d="M170.15 288.122C172.45 284.722 168.95 283.222 168.05 282.622C167.75 282.422 163.35 277.322 160.35 273.822C149.75 289.522 143.35 287.022 143.35 287.022C141.45 290.922 139.35 297.722 136.55 301.522C130.85 309.122 132.85 315.322 135.45 317.022C138.05 318.722 140.65 316.722 144.05 314.522C147.45 312.322 167.85 291.522 170.15 288.122Z" fill="#676FB2"/>
<path d="M170.15 288.122C172.45 284.722 168.95 283.222 168.05 282.622C167.75 282.422 163.35 277.322 160.35 273.822C149.75 287.622 143.75 285.522 143.75 285.522C141.85 289.422 139.45 297.722 136.55 301.522C130.85 309.122 132.85 315.322 135.45 317.022C138.05 318.722 140.65 316.722 144.05 314.522C147.45 312.322 167.85 291.522 170.15 288.122Z" stroke="#181B32" stroke-width="2" stroke-miterlimit="10"/>
<path d="M103.65 307.122C94.95 310.622 81.95 299.922 81.95 299.922C78.55 299.922 74.55 302.122 70.85 300.322C63.35 296.622 57.95 293.822 55.65 297.222C53.35 300.622 52.75 302.322 52.75 302.322C52.75 302.322 59.65 311.922 65.95 315.322C72.25 318.722 74.95 316.922 81.55 320.622C88.15 324.322 88.75 327.122 94.15 326.022C98.35 325.122 101.15 314.722 102.95 309.122L103.65 307.122Z" fill="#676FB2"/>
<path d="M103.65 307.122C94.95 310.622 81.95 299.922 81.95 299.922C78.55 299.922 74.55 302.122 70.85 300.322C63.35 296.622 57.95 293.822 55.65 297.222C53.35 300.622 52.75 302.322 52.75 302.322C52.75 302.322 59.65 311.922 65.95 315.322C72.25 318.722 74.95 316.922 81.55 320.622C88.15 324.322 88.75 327.122 94.15 326.022C98.35 325.122 101.15 314.722 102.95 309.122L103.65 307.122Z" stroke="#181B32" stroke-width="1.5" stroke-miterlimit="10"/>
<path d="M168.35 90.5223C162.35 107.222 163.45 115.022 167.75 123.522C168.75 125.422 162.05 176.522 162.05 176.522C162.05 176.522 184.95 182.822 197.85 181.922C216.95 180.622 232.05 176.622 232.05 176.622C232.05 176.622 227.65 161.722 225.15 146.122C222.95 132.622 222.65 117.922 221.45 109.722C218.85 92.2223 212.85 82.0223 207.15 77.8223C201.45 73.6223 194.85 74.1223 194.85 74.1223C194.85 74.1223 173.35 76.3223 168.35 90.5223Z" fill="#181B32"/>
<path d="M173.35 135.622L169.75 154.122C169.75 154.122 157.65 154.422 134.35 150.122C132.65 149.822 131.15 149.522 129.75 149.322C123.85 148.322 119.45 147.722 118.55 147.922C117.95 148.022 117.35 148.222 116.75 148.322C107.25 150.522 102.05 153.522 102.05 153.522L93.1502 155.122L85.9502 167.022H88.2502L93.4502 159.922H96.6502L91.2502 166.122L88.9502 169.522L96.9502 169.822L98.1502 168.822L102.75 165.022L101.35 169.222H103.05L107.05 163.622L110.95 163.022L115.35 161.022L171.25 177.822C171.25 177.822 184.25 181.422 188.15 172.222C193.85 158.622 199.35 143.622 199.35 143.622C199.35 143.622 176.95 142.222 173.35 135.622Z" fill="#9FBDE0" stroke="#181B32" stroke-width="1.5" stroke-miterlimit="10" stroke-linecap="round" stroke-linejoin="round"/>
<path d="M92.75 169.022C92.75 169.022 95.95 166.822 100.05 161.522C100.05 161.522 100.45 158.722 102.85 158.322" stroke="#263239" stroke-miterlimit="10" stroke-linecap="round" stroke-linejoin="round"/>
<path d="M102.15 165.222L103.35 160.522L104.75 159.522" stroke="#263239" stroke-miterlimit="10" stroke-linecap="round" stroke-linejoin="round"/>
<path d="M96.6499 160.422C96.6499 160.422 98.2499 157.922 99.1499 157.422C100.05 156.922 100.55 156.622 100.55 156.622" stroke="#263239" stroke-miterlimit="10" stroke-linecap="round" stroke-linejoin="round"/>
<path d="M217.05 45.5222C215.05 39.2222 211.75 33.5222 208.95 27.5222C205.75 20.5222 203.05 12.7222 196.65 8.52222C192.45 5.72222 187.15 3.92222 182.15 3.52222C177.55 3.12222 173.95 3.42222 169.55 4.92222C167.35 5.62222 165.55 8.42222 163.35 9.22222C160.85 10.1222 159.35 11.9222 157.05 13.3222C152.35 16.2222 150.45 20.6222 150.35 26.1222C150.25 31.6222 151.15 36.1222 150.95 41.6222C150.85 44.2222 150.45 46.8222 150.15 49.5222C148.45 54.7222 144.45 59.9222 145.45 65.2222C146.15 69.0222 148.35 72.3222 149.55 76.0222C150.85 79.6222 150.95 84.2222 148.25 86.9222C150.35 88.4222 153.45 88.2222 155.35 86.5222C156.55 85.4222 157.15 83.8222 157.05 82.2222C157.55 82.7222 158.05 83.1222 158.75 83.3222C160.35 83.8222 162.05 83.5222 163.75 83.1222C168.45 82.1222 173.45 80.9222 177.35 78.1222L200.65 73.4222C207.05 75.2222 213.95 70.9222 216.75 65.0222C219.65 58.9222 219.05 51.8222 217.05 45.5222Z" fill="#676FB2"/>
<path d="M217.05 45.5223C215.05 39.2223 211.75 33.5223 208.95 27.5223C205.75 20.5223 203.05 12.7223 196.65 8.52226C192.45 5.72226 187.15 4.02226 182.15 3.52226C167.95 2.12226 162.75 10.5223 162.75 10.5223C160.25 11.4223 159.45 12.3223 157.15 13.6223C152.45 16.5223 150.55 22.4223 150.45 27.9223C150.35 33.4223 151.05 36.4223 150.85 41.9223C150.75 44.5223 150.35 47.1223 150.05 49.8223C148.35 55.0223 144.55 59.9223 145.45 65.1223C146.15 68.9223 148.35 72.2223 149.55 75.9223C150.85 79.5223 150.95 84.1223 148.25 86.8223C150.35 88.3223 153.45 88.1223 155.35 86.4223C156.55 85.3223 157.15 83.7223 157.05 82.1223C157.55 82.6223 158.05 83.0223 158.75 83.2223C160.35 83.7223 162.05 83.4223 163.75 83.0223C168.45 82.0223 173.45 80.8223 177.35 78.0223L200.65 73.3223C207.05 75.1223 213.95 70.8223 216.75 64.9223C219.65 58.9223 219.05 51.8223 217.05 45.5223Z" stroke="#181B32" stroke-width="1.5" stroke-miterlimit="10"/>
<path d="M176.65 67.4222C176.65 67.4222 179.85 78.4222 177.75 84.9222C175.75 91.4222 191.55 84.8222 194.65 78.7222C197.75 72.6222 194.25 60.9222 194.25 60.9222L172.35 69.1222" fill="#9FBDE0"/>
<path d="M176.65 67.4222C176.65 67.4222 179.85 78.4222 177.75 84.9222C175.75 91.4222 191.55 84.8222 194.65 78.7222C197.75 72.6222 194.25 60.9222 194.25 60.9222L172.35 69.1222" stroke="#181B32" stroke-width="1.5" stroke-miterlimit="10"/>
<path d="M197.05 21.0223C196.85 18.6223 194.75 16.8223 192.35 16.8223L171.55 14.3223C163.55 14.4223 155.15 29.4223 156.85 37.2223C158.85 46.2223 156.85 46.6223 158.55 53.0223C162.15 65.9223 171.65 69.7223 176.05 69.1223C176.15 69.1223 196.45 69.1223 201.35 49.9223C203.95 39.6223 197.05 21.0223 197.05 21.0223Z" fill="#9FBDE0" stroke="#181B32" stroke-width="1.5" stroke-miterlimit="10"/>
<path d="M154.65 81.7223C154.65 81.7223 154.55 81.5222 154.35 81.0222C154.15 80.5222 153.85 79.9222 153.55 79.0222C152.95 77.2222 152.25 74.6222 151.85 71.3223C151.45 68.0223 151.45 64.0222 152.25 59.6222C152.95 55.2222 154.15 50.5222 154.35 45.5222C154.55 40.5222 153.75 35.7222 153.85 31.2222C153.95 26.8223 154.85 22.8222 156.75 19.9222C158.55 17.0222 161.05 15.4222 162.75 14.7222C164.55 14.0222 165.65 14.1222 165.65 14.1222C165.65 14.2222 164.55 14.2222 162.85 14.9222C161.15 15.6222 158.85 17.2222 157.15 20.1222C155.45 22.9222 154.45 26.8223 154.45 31.2222C154.35 35.6222 155.15 40.4222 154.95 45.5222C154.75 50.6222 153.45 55.3223 152.75 59.7223C151.95 64.0223 151.95 68.0223 152.25 71.3223C152.55 74.6222 153.25 77.2222 153.75 79.0222C154.05 79.9222 154.25 80.6222 154.35 81.0222C154.55 81.5222 154.65 81.7223 154.65 81.7223Z" fill="#181B32"/>
<path d="M163.35 12.9223C163.35 12.1223 163.95 11.5223 164.45 10.9223C168.05 7.42227 173.35 5.82226 178.35 6.02226C183.45 6.22226 188.25 8.02227 192.75 10.4223C196.65 12.5223 200.35 15.1223 202.65 18.9223C204.25 21.6223 205.05 24.6223 205.85 27.6223C207.75 35.1223 210.65 42.4223 211.45 50.1223C211.75 53.1223 212.85 58.0223 212.75 61.8223C212.65 65.8223 209.45 71.0223 205.65 72.3223L197.05 74.2223C197.05 74.2223 199.85 57.4223 198.85 51.6223C197.95 46.5223 197.35 40.9223 196.15 35.8223C196.05 35.4223 195.95 35.0223 195.75 34.7223C195.45 34.3223 194.95 34.1223 194.45 33.9223C192.55 33.2223 190.65 32.5223 188.65 31.7223C186.85 31.0223 184.95 30.3223 183.15 29.4223C181.15 28.4223 179.45 27.7223 177.55 26.4223C174.95 24.7223 172.65 23.3223 170.05 21.6223C168.45 20.5223 166.45 18.5223 165.15 17.0223C163.85 15.5223 163.05 13.5223 163.35 11.6223" fill="#676FB2"/>
<path d="M196.55 37.1223C196.45 36.7223 196.55 35.1223 194.45 33.8223C192.75 32.7223 190.65 32.4223 188.65 31.6223C186.85 30.9223 166.25 23.3223 163.25 12.8223" stroke="#181B32" stroke-width="1.5" stroke-miterlimit="10" stroke-linecap="round" stroke-linejoin="round"/>
<path d="M207.65 25.4223C207.55 25.5223 205.65 23.9223 201.75 22.7223C199.85 22.1223 197.45 21.6223 194.85 21.2223C192.25 20.8223 189.25 20.5223 186.25 20.0223C180.15 18.9223 174.95 16.4223 171.45 14.3223C169.75 13.2223 168.35 12.2223 167.55 11.5223C166.65 10.8223 166.25 10.3223 166.25 10.3223C166.25 10.3223 166.75 10.6223 167.75 11.3223C168.65 12.0223 170.05 12.9223 171.75 13.9223C175.25 15.9223 180.35 18.3223 186.35 19.4223C189.35 20.0223 192.25 20.3223 194.95 20.7223C197.65 21.1223 199.95 21.6223 201.95 22.3223C203.85 23.0223 205.35 23.7223 206.25 24.4223C206.75 24.7223 207.05 25.0223 207.35 25.2223C207.55 25.2223 207.75 25.3223 207.65 25.4223Z" fill="#181B32"/>
<path d="M203.15 15.5222C207.35 24.9222 213.25 33.3222 217.15 40.1222C218.95 43.2222 221.45 46.8222 222.45 50.3222C223.65 54.1222 222.45 58.1222 221.95 62.0222C221.45 65.9222 222.15 70.6222 225.55 72.5222C221.75 76.3222 216.55 78.9222 211.25 79.6222C210.25 79.7222 209.15 79.8222 208.25 79.3222C207.35 78.8222 206.85 77.5222 207.55 76.7222C203.95 81.6222 191.75 81.6222 186.45 78.7222C190.55 72.4222 190.35 72.9222 192.25 69.1222C193.85 66.0222 193.25 66.3222 194.05 63.0222C194.55 61.0222 195.25 52.9222 195.35 50.8222C195.45 48.7222 195.95 47.5222 196.45 47.2222L198.15 47.4222C203.15 47.3222 205.45 43.0222 206.15 38.1222L208.05 38.2222L203.15 15.5222Z" fill="#676FB2"/>
<path d="M203.15 15.5222C207.35 24.9222 213.25 33.3222 217.15 40.1222C218.95 43.2222 221.45 46.8222 222.45 50.3222C223.65 54.1222 222.45 58.1222 221.95 62.0222C221.45 65.9222 222.15 70.6222 225.55 72.5222C221.75 76.3222 216.55 78.9222 211.25 79.6222C210.25 79.7222 209.15 79.8222 208.25 79.3222C207.35 78.8222 206.85 77.5222 207.55 76.7222C203.95 81.6222 191.75 81.6222 186.45 78.7222C189.45 74.2222 194.25 68.5222 194.55 59.1222C194.75 52.8222 196.05 47.5222 196.65 47.1222L198.35 47.3222" stroke="#181B32" stroke-width="1.5" stroke-miterlimit="10"/>
<path d="M207.75 72.5222C207.75 72.5222 207.85 72.2222 208.05 71.7222C208.35 71.1222 208.65 70.3222 209.05 69.3222C209.85 67.2222 211.05 64.2222 211.85 60.2222C212.65 56.3222 213.25 51.5222 212.25 46.3222C211.35 41.1222 208.75 35.6222 204.05 31.7222C199.35 27.8222 193.75 25.9222 188.65 24.2222C183.55 22.6222 178.95 21.2222 175.35 19.4222C171.65 17.7222 169.05 15.7222 167.35 14.1222C166.55 13.3222 165.95 12.7222 165.55 12.2222C165.15 11.7222 164.95 11.5222 165.05 11.5222C165.15 11.5222 165.85 12.5222 167.55 14.0222C169.25 15.5222 171.85 17.4222 175.55 19.0222C179.15 20.7222 183.75 22.1222 188.85 23.6222C193.85 25.2222 199.65 27.2222 204.45 31.2222C209.35 35.2222 211.85 41.0222 212.75 46.2222C213.75 51.5222 213.05 56.4222 212.15 60.3222C211.25 64.2222 209.95 67.3222 209.05 69.3222C208.55 70.3222 208.25 71.1222 207.95 71.7222C207.95 72.2222 207.75 72.5222 207.75 72.5222Z" fill="#181B32"/>
<path d="M194.45 36.4222C196.55 34.7222 198.65 34.3222 201.25 35.4222C202.65 36.0222 203.85 37.4222 204.05 40.4222C204.65 48.4222 196.55 47.3222 196.45 47.1222" fill="#9FBDE0"/>
<path d="M194.45 36.4222C196.55 34.7222 198.65 34.3222 201.25 35.4222C202.65 36.0222 203.85 37.4222 204.05 40.4222C204.65 48.4222 196.55 47.3222 196.45 47.1222" stroke="#181B32" stroke-width="1.5" stroke-miterlimit="10" stroke-linecap="round" stroke-linejoin="round"/>
<path d="M207.95 101.422C207.95 101.422 207.95 91.9222 199.15 88.3222C190.35 84.7222 182.35 98.1222 178.15 111.822L171.05 134.122C171.05 134.122 172.15 139.722 183.65 142.722C195.15 145.722 203.15 145.522 203.15 145.522L208.05 106.322" stroke="#676FB2" stroke-width="1.5" stroke-miterlimit="10"/>
<path d="M166.15 136.222C165.35 132.522 165.25 128.722 165.55 124.922C165.75 121.122 166.25 117.422 167.05 113.722C167.35 111.822 167.85 110.022 168.25 108.222C168.75 106.422 169.25 104.622 169.75 102.822C170.35 101.022 170.85 99.2222 171.45 97.4222C172.15 95.6222 172.75 93.9222 173.45 92.1222C173.05 93.9222 172.55 95.7222 172.15 97.6222L170.85 103.022C170.05 106.622 169.15 110.322 168.45 113.922C167.75 117.522 167.15 121.222 166.65 124.922C166.45 126.722 166.25 128.622 166.15 130.522C166.05 132.422 165.95 134.322 166.15 136.222Z" fill="#676FB2"/>
<path d="M181.35 46.0222C182.62 46.0222 183.65 44.7238 183.65 43.1222C183.65 41.5205 182.62 40.2222 181.35 40.2222C180.08 40.2222 179.05 41.5205 179.05 43.1222C179.05 44.7238 180.08 46.0222 181.35 46.0222Z" fill="#181B32"/>
<path d="M165.15 43.6222C165.15 45.2222 164.15 46.5222 162.85 46.5222C161.55 46.5222 160.55 45.2222 160.55 43.6222C160.55 42.0222 161.55 40.7222 162.85 40.7222C164.05 40.8222 165.15 42.0222 165.15 43.6222Z" fill="#181B32"/>
<path d="M164.05 37.2223C163.75 37.2223 163.55 37.1223 163.35 37.0223C163.35 37.0223 162.95 36.7223 162.25 36.7223C161.45 36.7223 160.95 37.0223 160.95 37.0223C160.55 37.3223 159.95 37.2223 159.55 37.0223C159.15 36.7223 159.25 36.3223 159.65 36.0223C159.75 35.9223 160.75 35.3223 162.25 35.3223C163.95 35.3223 164.75 36.0223 164.85 36.1223C165.25 36.4223 165.15 36.8223 164.75 37.1223C164.55 37.1223 164.35 37.2223 164.05 37.2223Z" fill="#181B32"/>
<path d="M183.25 37.2222C182.95 37.2222 182.75 37.1222 182.55 36.9222C182.55 36.9222 182.15 36.5222 181.45 36.5222C180.65 36.5222 180.15 36.9222 180.15 36.9222C179.75 37.2222 179.15 37.2222 178.75 36.8222C178.35 36.4222 178.45 35.9222 178.85 35.5222C178.95 35.4222 179.95 34.6222 181.45 34.6222C183.15 34.6222 183.95 35.5222 184.05 35.6222C184.45 36.0222 184.35 36.5222 183.95 36.9222C183.75 37.1222 183.45 37.2222 183.25 37.2222Z" fill="#181B32"/>
<path d="M170.15 45.4222C170.15 45.4222 170.45 48.2222 169.45 49.5222C168.45 50.9222 169.45 50.8222 169.45 50.8222C169.45 50.8222 171.45 51.9222 173.45 50.8222" stroke="#181B32" stroke-width="1.3" stroke-miterlimit="10" stroke-linecap="round" stroke-linejoin="round"/>
<path d="M74.9502 175.922H64.9502V323.022H74.9502V175.922Z" fill="#181B32"/>
<path d="M138.65 174.322H1.25V179.422H138.65V174.322Z" fill="#676FB2"/>
<path d="M138.65 174.322H1.25V179.422H138.65V174.322Z" stroke="#263239" stroke-width="1.3" stroke-miterlimit="10" stroke-linecap="round" stroke-linejoin="round"/>
<path d="M58.0501 173.522L61.5501 170.622L51.1501 121.122H47.3501L58.0501 173.522Z" fill="#9FBDE0" stroke="#181B32" stroke-width="1.5" stroke-miterlimit="10" stroke-linecap="round" stroke-linejoin="round"/>
<path d="M123.75 329.122H16.1499C16.1499 325.722 18.9499 323.022 22.3499 323.022H117.55C120.95 323.022 123.75 325.722 123.75 329.122Z" fill="#181B32"/>
<path d="M179.55 58.2222C178.35 58.6222 177.05 58.5222 176.25 58.3222C175.75 58.2222 175.55 57.7222 175.65 57.2222C175.75 56.7222 176.25 56.5222 176.75 56.6222C177.05 56.7222 179.65 57.4222 180.75 54.8222C180.95 54.4222 181.45 54.1222 181.85 54.3222C182.25 54.5222 182.55 55.0222 182.35 55.4222C181.75 57.0222 180.65 57.9222 179.55 58.2222Z" fill="#161B32"/>
<path d="M321.85 38.9222C322.05 38.9222 322.35 38.8222 322.45 38.6222C322.45 38.6222 322.75 38.3222 323.45 38.3222C324.15 38.3222 324.65 38.7222 324.65 38.7222C324.95 39.0222 325.55 39.0222 325.85 38.6222C326.15 38.3222 326.15 37.7222 325.75 37.4222C325.65 37.3222 324.85 36.6222 323.45 36.6222C322.05 36.6222 321.25 37.4222 321.15 37.5222C320.85 37.8222 320.85 38.4222 321.25 38.7222C321.45 38.8222 321.65 38.9222 321.85 38.9222Z" fill="#161B32"/>
<path d="M305.25 38.9222C305.45 38.9222 305.75 38.8222 305.85 38.6222C305.85 38.6222 306.15 38.3222 306.85 38.3222C307.55 38.3222 308.05 38.7222 308.05 38.7222C308.35 39.0222 308.95 39.0222 309.25 38.6222C309.55 38.3222 309.55 37.7222 309.15 37.4222C309.05 37.3222 308.25 36.6222 306.85 36.6222C305.45 36.6222 304.65 37.4222 304.55 37.5222C304.25 37.8222 304.25 38.4222 304.65 38.7222C304.85 38.8222 305.05 38.9222 305.25 38.9222Z" fill="#161B32"/>
<path d="M313.05 69.9222C327.95 69.9222 331.35 50.1222 331.45 49.9222C331.55 49.4222 331.15 48.9222 330.65 48.9222C330.15 48.8222 329.65 49.2222 329.65 49.7222C329.65 49.9222 326.35 69.0222 312.05 68.1222C311.85 68.1222 293.55 66.5222 291.75 52.1222C291.65 51.6222 291.25 51.2222 290.75 51.3222C290.25 51.4222 289.85 51.8222 289.95 52.3222C291.55 65.7222 306.35 69.5222 311.95 69.9222C312.35 69.9222 312.75 69.9222 313.05 69.9222Z" fill="#161B32"/>
<path d="M322.95 17.8222C320.45 26.3222 312.45 30.9222 294.65 39.4222C291.55 40.9222 292.05 44.5222 290.75 44.9222C290.75 44.9222 290.75 40.5222 289.75 39.1222C286.45 34.5222 299.25 18.5222 299.25 18.5222L322.85 16.4222C322.75 16.3222 323.05 17.4222 322.95 17.8222Z" fill="#161B32"/>
<path d="M280.95 31.6223C281.05 31.7223 282.65 30.0223 286.05 28.5223C287.75 27.7223 289.85 27.1223 292.25 26.4223C294.65 25.8223 297.25 25.2223 300.05 24.3223C305.55 22.6223 310.05 19.8223 312.95 17.5223C314.45 16.3223 315.55 15.3223 316.25 14.5223C316.95 13.7223 317.35 13.3223 317.35 13.3223C317.35 13.3223 316.85 13.7223 316.15 14.4223C315.35 15.1223 314.25 16.1223 312.75 17.2223C309.75 19.4223 305.35 22.1223 299.95 23.8223C297.25 24.6223 294.55 25.2223 292.25 25.9223C289.85 26.6223 287.75 27.3223 286.05 28.1223C284.35 28.9223 283.05 29.8223 282.25 30.5223C281.85 30.8223 281.55 31.1223 281.35 31.3223C281.05 31.5223 280.95 31.6223 280.95 31.6223Z" fill="#666FB3"/>
<path d="M313.05 68.9223C313.05 68.9223 311.65 75.7223 312.95 79.2223C314.25 82.7223 308.55 90.0223 304.35 90.0223C300.75 90.0223 292.45 84.2223 292.45 84.2223L288.65 64.4223L290.35 54.3223C290.45 54.4223 292.95 67.2223 313.05 68.9223Z" fill="#9FBDE0" stroke="#181B32" stroke-width="1.5" stroke-miterlimit="10" stroke-linecap="round" stroke-linejoin="round"/>
<path d="M276.25 41.7222C276.25 41.7222 268.75 64.7222 265.85 78.6222C262.95 92.5222 261.85 94.7222 261.85 94.7222C261.85 94.7222 264.05 99.7222 265.35 97.6222C266.65 95.5222 266.85 94.9222 266.85 94.9222L266.35 101.622C266.35 101.622 274.55 104.522 282.55 102.922C286.75 102.122 288.45 101.522 288.45 101.522V89.2222L290.45 101.722C290.45 101.722 299.95 104.622 299.05 101.122C295.45 86.9222 293.35 73.4222 292.45 65.5222C291.55 57.6222 291.75 50.9222 290.75 51.6222C288.65 53.0222 286.45 51.2222 286.45 51.2222L275.65 66.6222L276.25 41.7222Z" fill="#161B32"/>
<path d="M286.85 74.8222C286.85 74.8222 286.75 74.5222 286.45 74.1222C286.15 73.6222 285.75 72.9222 285.25 72.0222C284.25 70.2222 282.85 67.5222 281.65 64.0222C280.45 60.5222 279.45 56.1222 279.85 51.3222C280.15 46.5222 281.85 41.1222 285.75 37.0222C289.65 32.9222 294.65 30.6222 299.05 28.5222C303.55 26.5222 307.55 24.7222 310.75 22.7222C313.95 20.7222 316.15 18.6222 317.55 17.0222C318.25 16.2222 318.65 15.5222 318.95 15.1222C319.25 14.6222 319.35 14.4222 319.35 14.4222C319.25 14.4222 318.75 15.4222 317.35 16.9222C315.95 18.4222 313.75 20.5222 310.55 22.3222C307.35 24.2222 303.35 26.0222 298.85 28.0222C294.45 30.0222 289.35 32.4222 285.35 36.6222C281.35 40.8222 279.55 46.3222 279.25 51.2222C278.95 56.2222 280.05 60.6222 281.25 64.1222C282.55 67.6222 283.95 70.3222 285.05 72.1222C285.55 73.0222 286.05 73.7222 286.35 74.1222C286.75 74.6222 286.85 74.9222 286.85 74.8222Z" fill="#666FB3"/>
<path d="M383.15 27.3222H391.85V25.6222C391.85 25.3222 392.05 25.0222 392.35 24.9222C396.95 23.0222 399.95 18.6222 399.95 13.6222C399.95 6.92224 394.45 1.42224 387.75 1.42224C381.05 1.42224 375.55 6.92224 375.55 13.6222C375.55 18.4222 378.35 22.8222 382.75 24.7222C383.05 24.8222 383.15 25.1222 383.15 25.4222V27.3222Z" fill="#A9CC63"/>
<path d="M392.55 28.7222H382.45C382.05 28.7222 381.75 28.4222 381.75 28.0222V25.9222C377.05 23.6222 374.05 18.9222 374.05 13.6222C374.05 6.12222 380.15 0.0222168 387.65 0.0222168C395.15 0.0222168 401.25 6.12222 401.25 13.6222C401.25 19.0222 398.15 23.8222 393.25 26.0222V28.0222C393.35 28.4222 392.95 28.7222 392.55 28.7222ZM383.15 27.3222H391.85V25.6222C391.85 25.3222 392.05 25.0222 392.35 24.9222C396.95 23.0222 399.95 18.6222 399.95 13.6222C399.95 6.92222 394.45 1.42222 387.75 1.42222C381.05 1.42222 375.55 6.92222 375.55 13.6222C375.55 18.4222 378.35 22.8222 382.75 24.7222C383.05 24.8222 383.15 25.1222 383.15 25.4222V27.3222Z" fill="#161B32"/>
<path d="M392.85 31.7222H382.45C382.05 31.7222 381.75 32.0222 381.75 32.4222C381.75 32.8222 382.05 33.1222 382.45 33.1222H383.75L385.45 36.0222H389.95L391.65 33.1222H392.95C393.35 33.1222 393.65 32.8222 393.65 32.4222C393.55 32.1222 393.25 31.7222 392.85 31.7222Z" fill="#161B32"/>
<path d="M382.55 31.1222H392.95C393.35 31.1222 393.65 30.8222 393.65 30.4222C393.65 30.0222 393.35 29.7222 392.95 29.7222H382.55C382.15 29.7222 381.85 30.0222 381.85 30.4222C381.75 30.8222 382.15 31.1222 382.55 31.1222Z" fill="#161B32"/>
<path d="M388.75 28.6222C388.35 28.6222 388.05 28.3222 388.05 27.9222C387.65 24.4222 388.35 21.5222 389.35 19.2222C388.65 18.9222 388.05 18.4222 387.55 17.8222C386.95 18.5222 386.25 19.0222 385.65 19.3222C387.15 22.9222 386.75 27.1222 386.75 27.3222C386.75 27.7222 386.35 28.0222 385.95 27.9222C385.55 27.9222 385.25 27.5222 385.35 27.1222C385.35 27.0222 385.75 23.1222 384.35 19.8222C382.55 20.2222 381.25 19.4222 380.75 19.0222C379.45 18.0222 378.45 16.1222 379.25 15.0222C379.55 14.5222 380.35 13.9222 382.25 15.1222C383.45 15.9222 384.45 16.9222 385.05 18.0222C385.55 17.7222 386.15 17.2222 386.65 16.6222L386.75 16.5222C386.45 15.9222 386.15 15.3222 386.05 14.9222C385.55 13.6222 385.05 11.2222 385.95 10.3222C386.95 9.3222 388.55 9.3222 389.55 10.2222C390.05 10.7222 391.45 12.6222 388.45 16.5222C388.85 17.0222 389.35 17.5222 389.95 17.7222C391.05 15.8222 392.45 14.5222 393.75 14.0222C395.15 13.4222 395.85 14.0222 396.05 14.2222C396.45 14.7222 396.45 15.5222 396.05 16.3222C395.25 17.9222 393.15 19.4222 390.65 19.3222C389.65 21.4222 388.95 24.2222 389.35 27.5222C389.45 28.2222 389.25 28.6222 388.75 28.6222ZM380.35 16.0222C380.35 16.4222 380.75 17.5222 381.85 18.2222C382.45 18.5222 382.95 18.7222 383.55 18.6222C383.05 17.7222 382.35 17.0222 381.35 16.4222C380.75 16.1222 380.45 16.0222 380.35 16.0222ZM394.95 15.5222C394.75 15.5222 394.25 15.6222 393.45 16.2222C392.85 16.7222 392.15 17.3222 391.55 18.2222C393.05 18.0222 394.05 17.0222 394.25 16.7222C394.85 16.1222 394.95 15.6222 394.95 15.5222ZM387.75 11.2222C387.45 11.2222 387.15 11.3222 386.85 11.5222C386.65 11.8222 386.75 13.6222 387.65 15.3222C389.05 13.4222 389.15 12.0222 388.55 11.4222C388.35 11.3222 388.05 11.2222 387.75 11.2222Z" fill="#161B32"/>
<path d="M367.35 154.222C367.45 153.022 367.65 152.022 368.05 150.722L366.65 151.222L366.85 150.522L368.25 150.022C368.45 149.422 368.85 148.422 369.05 147.922C369.05 147.922 369.15 147.822 369.05 147.722C369.05 147.722 368.95 147.622 368.75 147.722C368.05 148.122 367.45 148.622 366.95 149.222C366.55 149.722 366.25 150.322 365.95 151.022C365.85 151.122 365.85 151.322 365.85 151.422C365.25 153.422 365.65 155.422 366.85 156.622C367.25 156.922 367.95 157.322 368.55 157.522C367.55 157.322 367.15 155.922 367.35 154.222Z" fill="#161B32"/>
<path d="M371.45 147.222C371.15 147.222 370.75 147.222 370.45 147.222C370.15 147.222 369.95 147.522 369.85 147.822C369.65 148.422 369.25 149.322 369.15 149.722L370.85 149.122L370.65 149.922C370.65 149.922 369.05 150.422 368.95 150.422C368.85 150.522 368.55 151.722 368.45 152.222C368.15 153.722 368.05 155.322 368.35 156.222C368.55 156.622 368.65 156.822 368.95 157.022C368.95 157.022 368.95 157.022 369.05 157.022H369.15C370.05 157.322 371.35 156.022 372.15 154.122C372.25 153.922 372.35 153.722 372.35 153.522C372.35 153.622 372.35 153.722 372.25 153.722C371.65 155.922 370.25 157.622 368.95 157.622C369.25 157.622 369.55 157.722 369.85 157.622C372.05 157.322 374.05 155.522 374.75 153.122C375.85 149.822 373.85 147.522 371.45 147.222Z" fill="#161B32"/>
<path d="M371.95 146.322C368.95 145.822 365.85 148.222 364.85 151.622C363.95 155.022 365.55 158.222 368.55 158.722C371.55 159.222 374.65 156.822 375.65 153.422C376.55 150.022 374.95 146.822 371.95 146.322ZM368.75 158.322C365.95 157.822 364.45 154.922 365.25 151.722C366.15 148.522 369.05 146.322 371.85 146.722C374.65 147.222 376.15 150.122 375.35 153.322C374.45 156.522 371.55 158.822 368.75 158.322Z" fill="#161B32"/>
</svg>
