<svg width="591" height="381" viewBox="0 0 591 381" fill="none" xmlns="http://www.w3.org/2000/svg">
<path d="M37.2002 133.3H69.2002V107.6C69.2002 87.1 86.0002 70.2 106.6 70.2H241.7C262.2 70.2 279.1 87 279.1 107.6V218.7C279.1 239.2 262.3 256.1 241.7 256.1H106.6C86.1002 256.1 69.2002 239.3 69.2002 218.7V165.3L37.2002 133.3Z" fill="#3481C2"/>
<path d="M195.2 254.5L195 255.2C187.8 255.2 133.8 255 115.5 255.2C111.1 255.2 107.7 254 105 251.2C96.9998 243.1 97.5998 224.5 97.9998 209.5C98.6998 184.2 103.3 169.6 103.5 169.1C110.4 150.4 129.3 147.9 129.5 147.9C125.9 162 126.6 173.1 131.6 179.9C135.6 185.4 141.4 187.1 145.8 187.5C145.8 191.2 145.7 205.6 145.4 221.2C139.6 220 135 219.1 132.3 218.8C132.7 216.9 132.8 212.5 132.2 202C131.7 193.8 131 185.6 131 185.5C131 185 130.5 184.6 129.9 184.6C129.4 184.7 128.9 185.1 129 185.7C130.3 200 131.1 215.7 130.3 218.6C130.1 218.6 129.9 218.6 129.6 218.7C122.6 219.1 116.4 223.5 115.1 229C115 229.4 115.2 229.9 115.6 230.1C116 230.3 116.4 230.3 116.8 230C122.1 225.4 127.4 221.5 129.5 220.8C129.8 220.8 130.1 220.8 130.5 220.8C130.6 220.8 130.8 220.8 130.9 220.8C138.3 221.2 191.7 233.7 199.6 235.5L199.2 237L195.2 254.5Z" fill="#A9CC63"/>
<path d="M268.9 171.5C268.7 172.6 268.2 175.1 267.1 178.5C266.9 179 266.7 180.1 266.2 181.7C252 235.5 237.8 246.7 228.4 246.7C226 246.7 223.9 246.4 222 246C217.8 241.7 212.6 238.6 208.5 236.6C208.9 227 204.4 184.9 201.1 172.5C201 172 200.4 171.6 199.9 171.8C199.4 171.9 199 172.5 199.2 173C202.5 185.5 206.6 225.6 206.6 235.7C203.7 234.4 201.7 233.8 201.5 233.7C200.9 233.5 196.6 232.5 190.4 231.1C193.6 210.4 188.3 159.4 187.3 149.4C193.2 151.7 200.9 155.2 205.2 159.3L206 160L206.2 159.8C208.9 162.2 211.4 165.2 213.1 168.6C218.7 180.5 223.5 206.7 223.9 208.9C223.8 209.6 223.5 212.4 223.6 215.7C223.5 221.8 225.8 225.7 225.9 225.9L227.6 224.9C226.1 222.1 225.6 218.5 225.5 215.4C225.6 212.1 226.4 208.1 228.8 203.5C234.9 192 250.5 163.8 253.7 157.9L268.9 171.5Z" fill="#A9CC63"/>
<path d="M241.7 257.5H106.6C85.1997 257.5 67.6997 240.1 67.6997 218.6V165.9L36.0997 134.3C35.6997 133.9 35.4997 133.2 35.7997 132.7C36.0997 132.2 36.5997 131.8 37.1997 131.8H67.6997V107.6C67.6997 86.2 85.0997 68.7 106.6 68.7H241.7C263.1 68.7 280.6 86.1 280.6 107.6V218.7C280.5 240.1 263.1 257.5 241.7 257.5ZM40.7997 134.8L70.1997 164.2C70.4997 164.5 70.5997 164.9 70.5997 165.3V218.7C70.5997 238.5 86.6997 254.6 106.5 254.6H241.6C261.4 254.6 277.5 238.5 277.5 218.7V107.6C277.5 87.8 261.4 71.7 241.6 71.7H106.6C86.7997 71.7 70.6997 87.8 70.6997 107.6V133.3C70.6997 134.1 69.9997 134.8 69.1997 134.8H40.7997V134.8Z" fill="#213362"/>
<path d="M153.5 129.3C153.5 129.3 163.3 136.9 175.3 133.4C175.3 133.4 173.7 136.3 174.9 140.4C176.1 144.5 179.2 145.5 179.2 145.5C179.2 145.5 180.9 153.5 168.7 161.4L159.7 155.2C159.7 155.2 150 150.9 149.7 144.3C149.4 137.7 153.5 129.3 153.5 129.3Z" fill="#CBDEF4"/>
<path d="M557 203.7H525V178C525 157.5 508.2 140.6 487.6 140.6H352.6C332.1 140.6 315.2 157.4 315.2 178V289C315.2 309.5 332 326.4 352.6 326.4H487.7C508.2 326.4 525.1 309.6 525.1 289V235.6L557 203.7Z" fill="#A9CC63"/>
<path d="M487.7 327.9H352.6C331.2 327.9 313.7 310.5 313.7 289V177.9C313.7 156.5 331.1 139 352.6 139H487.7C509.1 139 526.6 156.4 526.6 177.9V202.1H557C557.6 202.1 558.2 202.5 558.4 203C558.6 203.5 558.5 204.2 558.1 204.6L526.5 236.2V289C526.5 310.5 509.1 327.9 487.7 327.9ZM352.6 142.1C332.8 142.1 316.7 158.2 316.7 178V289C316.7 308.8 332.8 324.9 352.6 324.9H487.7C507.5 324.9 523.6 308.8 523.6 289V235.6C523.6 235.2 523.8 234.8 524 234.5L553.4 205.1H525C524.2 205.1 523.5 204.4 523.5 203.6V177.9C523.5 158.1 507.4 142 487.6 142H352.6V142.1Z" fill="#213362"/>
<path d="M151.5 94C152.2 93.2 152.8 92.4 153.5 91.6C153.8 91.2 154.2 90.8 154.5 90.3C154.7 90 154.9 89.8 155.1 89.5C155.1 89.5 155.1 89.4 155.2 89.4C160.5 82.4 162.6 77.3 163.4 74.1C166.5 73.6 183.9 77.5 188 90.8C192.7 106 191.9 124.9 180.2 130.6C168.3 136.4 156.2 130.9 156 130.9C155.9 130.9 151.9 130.4 154.2 129.8C157 123.4 158.2 118.7 154.7 113.5C153.9 112.3 152.6 111.3 151.2 110.3C149 108.6 146.7 106.9 146.5 104.2C146.3 102.1 145.7 98.7 147.9 95.6C148.5 94.9 150.7 95 151.5 94Z" fill="#CBDEF4"/>
<path d="M190.6 100C187.8 75.4 163.4 75.1 163.1 75.1V73.4C163.4 73.4 189.3 73.7 192.3 99.8L190.6 100Z" fill="#123274"/>
<path d="M175.1 114.2C174.5 114.2 174 114.1 173.6 114C173.2 113.9 172.9 113.5 173 113.1C173.1 112.7 173.5 112.4 173.9 112.5C173.9 112.5 177 113.2 177.8 111.2C178.1 110.4 177.8 109.6 177.2 108.3C177 107.8 176.7 107.1 176.4 106.4C175.4 103.6 174.8 101.5 174.8 101.4C174.7 101 174.9 100.6 175.3 100.5C175.7 100.4 176.1 100.6 176.2 101C176.2 101 176.8 103.1 177.7 105.9C177.9 106.5 178.2 107.1 178.4 107.7C179 109.1 179.6 110.4 179.1 111.8C178.6 113.7 176.7 114.2 175.1 114.2Z" fill="#123274"/>
<path d="M164.317 101.983C164.51 100.171 163.509 98.5786 162.081 98.4264C160.653 98.2742 159.339 99.6199 159.146 101.432C158.953 103.245 159.953 104.837 161.381 104.989C162.809 105.142 164.123 103.796 164.317 101.983Z" fill="#213362"/>
<path d="M185.834 103.654C186.027 101.842 185.026 100.249 183.599 100.097C182.171 99.9446 180.856 101.29 180.663 103.103C180.47 104.915 181.471 106.508 182.899 106.66C184.327 106.812 185.641 105.466 185.834 103.654Z" fill="#213362"/>
<path d="M172.1 119.4C172.1 119.4 167.3 122.2 164.2 117.8C164.2 117.8 165.1 123.3 168.2 123.1C171.2 122.9 172.1 119.4 172.1 119.4Z" fill="#123274"/>
<path d="M168 123.6C164.7 123.6 163.7 118.1 163.7 117.8C163.7 117.6 163.8 117.3 164 117.3C164.2 117.2 164.5 117.3 164.6 117.5C167.4 121.5 171.7 119.1 171.9 119C172.1 118.9 172.3 118.9 172.5 119C172.7 119.1 172.7 119.3 172.7 119.5C172.7 119.7 171.7 123.4 168.3 123.6C168.1 123.6 168 123.6 168 123.6ZM165.2 119.5C165.7 120.9 166.7 122.7 168.1 122.5C169.8 122.4 170.7 121.2 171.2 120.2C169.8 120.8 167.3 121.2 165.2 119.5Z" fill="#123274"/>
<path d="M185.8 95.8C185.6 95.8 185.4 95.7 185.2 95.6C185.2 95.6 184.6 94.9 183.6 94.8C182.6 94.7 182 95.2 182 95.2C181.7 95.5 181.2 95.4 180.9 95.1C180.6 94.8 180.6 94.3 180.9 94.1C181 94 182 93.1 183.7 93.3C185.3 93.5 186.2 94.5 186.3 94.6C186.6 94.9 186.5 95.4 186.2 95.7C186.2 95.7 186 95.8 185.8 95.8Z" fill="#123274"/>
<path d="M164.9 93.6C164.7 93.6 164.5 93.5 164.3 93.4C164.3 93.4 163.7 92.7 162.7 92.6C161.7 92.5 161.1 93 161.1 93C160.8 93.3 160.3 93.2 160 92.9C159.7 92.6 159.7 92.1 160 91.9C160.1 91.8 161.1 90.9 162.8 91.1C164.4 91.3 165.3 92.3 165.4 92.4C165.7 92.7 165.6 93.2 165.3 93.5C165.2 93.5 165 93.6 164.9 93.6Z" fill="#123274"/>
<path d="M463.8 83.5H389C376.8 83.5 366.7 73.5 366.7 61.2V56.8C366.7 44.6 376.7 34.5 389 34.5H463.8C476 34.5 486.1 44.5 486.1 56.8V61.2C486.1 73.5 476 83.5 463.8 83.5Z" fill="#666FB3"/>
<path d="M432.5 104.2V73H463.6L432.5 104.2Z" fill="#666FB3"/>
<path d="M465.9 52H386.9C386.6 52 386.4 51.8 386.4 51.5C386.4 51.2 386.6 51 386.9 51H465.9C466.2 51 466.4 51.2 466.4 51.5C466.4 51.8 466.2 52 465.9 52Z" fill="white"/>
<path d="M465.9 66.9H386.9C386.6 66.9 386.4 66.7 386.4 66.4C386.4 66.1 386.6 65.9 386.9 65.9H465.9C466.2 65.9 466.4 66.1 466.4 66.4C466.4 66.7 466.2 66.9 465.9 66.9Z" fill="white"/>
<path d="M221.5 294.7H170.6V274L149.9 294.7H131.8C123.6 294.7 117 301.3 117 309.5V328.8C117 337 123.6 343.6 131.8 343.6H221.5C229.7 343.6 236.3 337 236.3 328.8V309.5C236.3 301.3 229.7 294.7 221.5 294.7Z" fill="#A9CC63"/>
<path d="M216.1 327.4H137.1C136.7 327.4 136.3 327.1 136.3 326.6C136.3 326.1 136.6 325.8 137.1 325.8H216.1C216.5 325.8 216.9 326.1 216.9 326.6C216.9 327.1 216.6 327.4 216.1 327.4Z" fill="#213362"/>
<path d="M216.1 312.5H137.1C136.7 312.5 136.3 312.2 136.3 311.7C136.3 311.2 136.6 310.9 137.1 310.9H216.1C216.5 310.9 216.9 311.2 216.9 311.7C216.9 312.2 216.6 312.5 216.1 312.5Z" fill="#213362"/>
<path d="M198.8 124.1C199.5 121.2 202 117.3 200.3 112.3C199 108.4 197.9 103.2 198.3 99.9C199 94.4 199.7 80 193.8 72.2C190.3 67.6 182.6 62.4 177.3 61.9C167.7 61 162.1 62.8 158.8 64.7C149.8 64.3 127.7 66.3 128.3 95.1C128.3 95.1 126.3 113.9 123.2 125.2C122.6 125.8 122 126.4 121.3 126.9C117.5 130.4 113.9 133.7 113.4 141.4C112.8 149.5 110.3 151 106.6 153.1C105.1 153.9 103.5 154.9 101.6 156.4C100.2 157.5 99.3999 158.9 99.2999 160.5C99.0999 163.6 101.3 166.9 102.6 168.6C109.7 149.2 129.3 146.8 129.5 146.7C129.8 146.7 130.1 146.8 130.3 147C130.5 147.2 130.6 147.6 130.5 147.9C126.9 161.7 127.6 172.5 132.5 179.1C136.6 184.6 142.6 186.1 146.9 186.4C150.5 186.6 153.4 185.7 155.4 183.7C158.7 180.5 158.7 175.3 158.7 174.5C158.3 173.1 155.3 161.4 158.5 156.7C159.6 155.1 162.9 149.7 161.9 145.5C161.5 144 160.7 142.9 159.2 142.1C152.6 138.4 153.4 131.9 153.5 131.6C153.5 131.5 153.6 131.4 153.6 131.3C157.4 124.5 157.5 118.9 153.9 113.7C153.3 112.8 152.1 111.9 150.9 111C148.5 109.2 145.9 107.2 145.5 103.7C145.3 101.9 145.8 99.9 147 97.6C142.9 100.2 139.4 100.8 137.2 100.8C135.8 100.8 134.9 100.6 134.8 100.5C134.3 100.4 134 99.8 134.1 99.3C134.2 98.8 134.8 98.5 135.3 98.6C135.7 98.7 143.6 100.6 152.5 90.1C154.8 87.3 156.5 84.8 157.9 82.6C155.9 85 160.5 79.7 161.9 73.5C162 73.4 162 73.3 162.1 73.2C162.6 71.2 162.4 70.1 162.4 70.1C162.3 69.6 162.6 69.1 163.1 68.9C163.6 68.8 164.1 69.1 164.3 69.6C164.3 69.7 164.1 72.5 164 73.9C168.6 73.3 185.5 78 189.7 91.8C194.5 107.4 191.7 125.8 179.4 131.8C177.1 132.9 176.8 132.8 174.6 133.2C174.4 135.1 173.7 142.9 179.3 145.1C180.9 145.7 182.8 146.2 184.8 146.8C191.4 148.6 199.4 153.5 205.8 158.1C205.5 152 201.2 142.9 198.9 137C195.7 129.7 198.8 124.2 198.8 124.1Z" fill="#666FB3"/>
<path d="M168.3 135.4C159.4 135.4 153.7 130.8 153.6 130.7C153.2 130.3 153.1 129.7 153.5 129.3C153.9 128.9 154.5 128.8 154.9 129.2C155.3 129.6 165.9 138 180.9 130.1C181.4 129.8 182 130 182.3 130.5C182.6 131 182.4 131.6 181.9 131.9C176.8 134.5 172.2 135.4 168.3 135.4Z" fill="#213362"/>
<path d="M201 234.7C201 234.7 214.1 238.7 222.1 247.7L235.6 258.5C235.6 258.5 234 263 229.3 260.7C224.6 258.4 221.5 255.6 220 255.1C220 255.1 223.3 266.9 223.5 268.6C223.7 270.3 224.8 272.4 222.4 273.6C219.4 275.1 218.4 270.3 218.4 270.3C218.4 270.3 219 272.8 216.5 273C214 273.2 213 270.2 213 270.2C213 270.2 209.3 271.7 207.4 266.5C205.8 262.2 202.8 258.9 201 257.6C199.2 256.3 196.1 254.6 196.1 254.6L201 234.7Z" fill="#CBDEF4"/>
<path d="M235.6 259.5C235.4 259.5 235.2 259.4 235 259.3L221.5 248.5L221.4 248.4C213.7 239.7 200.9 235.7 200.8 235.7C200.3 235.5 200 235 200.1 234.5C200.3 234 200.8 233.7 201.3 233.8C201.8 234 214.7 238 222.8 247L236.2 257.8C236.6 258.1 236.7 258.8 236.4 259.2C236.2 259.4 235.9 259.5 235.6 259.5Z" fill="#213362"/>
<path d="M285.3 144.5L284.1 142.9L284 142.8C283.9 142.7 283.8 142.6 283.7 142.5C283.6 142.4 283.6 142.3 283.5 142.3C283.5 142.3 283.5 142.3 283.4 142.2C282.9 141.8 282.4 141.4 281.9 141.2C282.7 141.4 283.8 141.6 285.2 141.8C287 142.1 288.2 141.4 288.8 140.9C290.5 139.3 290.3 136.6 290.3 136.3C290.3 135.9 290 135.6 289.6 135.4C289.5 135.4 287.6 134.7 280.5 133.7C276.4 133.2 273.4 134.8 271.5 136.6C272 134.3 272.6 131.4 273.2 129.3C274.9 123.2 272.8 120.9 270.8 120.1C270 119.7 269.2 119.7 268.5 120C267.1 120.7 266.7 122.5 265.8 125.6C265.7 126.2 265.5 126.8 265.3 127.4C264.1 131.7 257.1 152 255.2 157.3L252.7 155.1L252.1 156.2C251.9 156.5 233.4 190.1 226.6 202.9C225.9 204.2 225.4 205.4 224.9 206.6C223.6 199.5 219.4 178.6 214.4 167.9C212.5 164 209.7 160.7 206.6 158C206.9 155.1 206.3 147.7 200.9 139.2C196.8 132.7 199.7 124.7 199.7 124.7C201.5 120.7 203.4 116.5 201.2 112C199.5 108.5 198.9 103.3 199.3 100.2C199.7 97 201.3 80.6 194.6 71.8C191.1 67.2 183.2 61.7 177.4 61.1C167.7 60.2 161.9 62 158.7 63.9C154 62.6 146.6 63.6 140 68.5C131.6 74.8 127.1 85.6 127.4 99C127.4 99.2 128.2 115.3 122.4 125.1C122.2 125.4 121.8 125.7 121.4 126C121.2 126.2 120.9 126.4 120.7 126.6C116.9 130.1 113 133.7 112.5 141.8C112 149.4 109.8 150.7 106.2 152.7C104.7 153.6 103 154.5 101 156.1C99.4002 157.4 98.5002 159 98.4002 160.9C98.2002 164.1 100.2 167.4 101.6 169.3C100.8 172.1 96.8002 186.5 96.2002 209.7C95.8002 225.1 95.2002 244.2 103.8 252.9C106.8 256 110.8 257.5 115.8 257.5C135.3 257.3 195.4 257.5 196 257.5C196.5 257.5 196.9 257.2 197 256.7V256.5C198.1 257.1 199.6 258 200.6 258.8C202 259.8 205 263 206.7 267.3C207.5 269.4 208.6 270.8 210.1 271.4C211.1 271.8 212 271.8 212.6 271.8C213.3 273.1 214.7 274.7 216.8 274.4C217.7 274.3 218.4 273.9 218.8 273.6C219.2 274.1 219.6 274.6 220.3 274.9C220.6 275.1 221.1 275.2 221.6 275.2C222.1 275.2 222.6 275.1 223.1 274.8C225.8 273.5 225.3 271.2 224.9 269.7C224.8 269.4 224.8 269.1 224.7 268.8C224.5 267.5 222.8 261.1 221.8 257.5C222 257.6 222.2 257.8 222.4 257.9C224 259 226.2 260.5 229 261.9C230.8 262.7 232.3 262.9 233.8 262.3C235.9 261.4 236.7 259.2 236.8 259.1C236.9 258.7 236.8 258.3 236.5 258L225 248.8C226.2 248.9 227.4 249 228.6 249C243.3 249 256.7 226.6 268.4 182.5C268.8 181 269.1 179.9 269.2 179.4C270.7 174.8 271.1 171.7 271.1 171.5L271.2 171L269 169.1L273.1 166.9C276.5 165.1 279.1 159.9 280.8 156.4C281.2 155.7 281.6 154.9 281.9 154.3C282.8 154.9 284.2 155.5 285.6 155.2C286.6 155 288 154.2 288.7 151.8C289.2 150.2 289.1 148.7 288.5 147.4C287.5 145.5 285.9 144.7 285.3 144.5ZM100.2 160.7C100.3 159.4 100.9 158.3 102.1 157.3C104 155.8 105.6 154.9 107 154.1C110.9 151.9 113.7 150.3 114.3 141.6C114.8 134.3 118.1 131.3 121.9 127.8C122.1 127.6 122.3 127.5 122.5 127.3C123 126.9 123.6 126.5 124 125.8C130.1 115.5 129.3 99.3 129.3 98.6C129 85.9 133.2 75.7 141.1 69.8C147.4 65.1 154.3 64.3 158.5 65.6L158.9 65.7L159.3 65.5C162.2 63.8 167.7 61.9 177.2 62.8C182.3 63.3 189.8 68.4 193 72.7C199.2 80.9 197.7 96.6 197.3 99.7C196.9 103.1 197.5 108.8 199.4 112.7C201.2 116.4 199.6 119.9 197.9 123.7C197.9 123.8 194.5 132.7 199.2 140.1C203.8 147.3 204.6 153.3 204.7 156.3C198.3 151.4 191.6 149 191 148.9C186.7 147.1 182.8 145.8 180.8 145.1C180.2 144.9 179.7 144.7 179.5 144.7C175.1 142.9 175.2 136.9 175.4 134.5C175.6 134.5 175.7 134.4 175.9 134.4C177.2 134.2 177.9 134.1 179.8 133.1C193.1 126.6 195.3 107 190.6 91.9C186.3 78 170.2 73.2 164.6 73.3C164.8 72.5 164.9 71.6 164.9 70.8C164.9 70.2 164.5 69.8 163.9 69.8C163.4 69.8 162.9 70.2 162.9 70.8C162.8 77.7 155.5 86.9 155.4 87.1C146.2 99.5 137.2 100.1 135.5 99.2C135 98.9 134.4 99.1 134.1 99.6C133.8 100.1 134 100.7 134.5 101C135.1 101.3 136 101.5 137.2 101.5C139.3 101.5 142.1 100.9 145.4 99C144.6 100.9 144.3 102.6 144.4 104.3C144.8 108.2 147.8 110.5 150.2 112.3C151.3 113.2 152.4 114 152.9 114.8C156.2 119.7 156.1 124.9 152.5 131.3C152.4 131.5 152.3 131.7 152.3 132C152.3 132.3 151.4 139.4 158.5 143.5C159.7 144.2 160.4 145.1 160.7 146.3C161.4 149.3 159.5 153.6 157.4 156.7C154.2 161.6 156.8 172.7 157.5 175.2C157.5 176.1 157.4 180.7 154.5 183.5C152.7 185.3 150.1 186.1 146.8 185.9C142.7 185.7 136.9 184.3 133.1 179.1C128.4 172.7 127.8 162.2 131.3 148.7C131.5 148.1 131.3 147.4 130.9 146.9C130.5 146.4 129.8 146.2 129.2 146.2C129 146.2 110 148.5 102.2 167C101.2 165 100.1 162.8 100.2 160.7ZM159.7 174.7V174.5C158.5 169.8 157 161 159.3 157.5C159.5 157.2 159.7 156.9 159.9 156.6L168.6 162.7L169.1 162.4C178 157.5 179.8 150 180.1 146.9C180.1 146.9 180.1 146.9 180.2 146.9C181.3 147.3 183 147.8 185 148.6C185.7 154.9 191.4 209.5 188.3 230.7C176.8 228.1 160.2 224.3 147.6 221.6C147.9 206 148 191.5 148 187.6C151.4 187.6 154.2 186.6 156.2 184.6C159.6 181.1 159.7 175.8 159.7 174.7ZM162.8 145.5C162.4 143.7 161.3 142.4 159.6 141.4C153.6 138 154.3 132.2 154.4 132C158.4 124.8 158.5 118.9 154.7 113.4C154 112.4 152.8 111.4 151.5 110.5C149.2 108.7 146.8 106.9 146.5 103.9C146.4 102.6 147.4 99.2 148.4 97C151.1 95 154.1 92.2 157 88.2C157.3 87.9 162.1 81.7 164.1 75.3C167.9 74.8 184.6 79 188.7 92.5C193.1 106.9 191.2 125.4 178.9 131.4C177.2 132.2 176.7 132.3 175.5 132.5C175.2 132.6 174.8 132.6 174.3 132.7L173.6 132.8L173.5 133.5C173.2 135.8 172.7 143.4 178.1 146.2C177.9 148.3 176.8 155.4 168.6 160.2L160.9 154.8C162.2 152.1 163.6 148.6 162.8 145.5ZM195.2 254.5L195 255.2C187.8 255.2 133.8 255 115.5 255.2C111.1 255.2 107.7 254 105 251.2C97.0002 243.1 97.6002 224.5 98.0002 209.5C98.7002 184.2 103.3 169.6 103.5 169.1C110.4 150.4 129.3 147.9 129.5 147.9C125.9 162 126.6 173.1 131.6 179.9C135.6 185.4 141.4 187.1 145.8 187.5C145.8 191.2 145.7 205.6 145.4 221.2C139.6 220 135 219.1 132.3 218.8C132.7 216.9 132.8 212.5 132.2 202C131.7 193.8 131 185.6 131 185.5C131 185 130.5 184.6 129.9 184.6C129.4 184.7 128.9 185.1 129 185.7C130.3 200 131.1 215.7 130.3 218.6C130.1 218.6 129.9 218.6 129.6 218.7C122.6 219.1 116.4 223.5 115.1 229C115 229.4 115.2 229.9 115.6 230.1C116 230.3 116.4 230.3 116.8 230C122.1 225.4 127.4 221.5 129.5 220.8C129.8 220.8 130.1 220.8 130.5 220.8C130.6 220.8 130.8 220.8 130.9 220.8C138.3 221.2 191.7 233.7 199.6 235.5L199.2 237L195.2 254.5ZM234.4 258.8C234.1 259.3 233.6 259.9 232.9 260.2C232 260.6 231 260.4 229.8 259.8C227.1 258.5 225 257.1 223.4 256C222.2 255.2 221.3 254.6 220.6 254.3C220 252.7 219.7 252.2 219.7 252.2C219.4 251.7 218.8 251.5 218.4 251.8C217.9 252.1 217.7 252.7 218 253.1C218 253.1 218.6 254.2 220 258.4C221.1 262.3 222.5 267.7 222.7 268.8C222.8 269.2 222.8 269.5 222.9 269.9C223.3 271.6 223.3 272.2 222.2 272.8C221.6 273.1 221.3 273 221.1 272.9C220.2 272.5 219.7 270.9 219.6 270.3C217.3 259.9 214.6 255.2 214.5 255C214.2 254.5 213.6 254.4 213.1 254.6C212.6 254.9 212.4 255.5 212.7 256C212.7 256 215.3 260.8 217.6 270.8C217.6 270.8 217.6 270.8 217.6 270.9C217.6 271.1 217.7 271.6 217.4 272C217.3 272.1 217.2 272.3 216.5 272.4C215 272.6 214.2 270.6 214.1 270.3C211.8 260.1 210.4 258 210.2 257.8C209.9 257.4 209.3 257.3 208.8 257.6C208.4 257.9 208.2 258.5 208.5 259C208.6 259.1 209.8 261 211.8 269.9C211.5 269.9 211.1 269.8 210.7 269.7C209.7 269.3 208.9 268.3 208.3 266.7C206.8 262.6 203.7 259 201.6 257.3C200.3 256.3 198.3 255.1 197.3 254.6L201.8 236.4C205 237.5 215 241.5 221.4 248.8L221.5 248.9L234.4 258.8ZM268.9 171.5C268.7 172.6 268.2 175.1 267.1 178.5C266.9 179 266.7 180.1 266.2 181.7C252 235.5 237.8 246.7 228.4 246.7C226 246.7 223.9 246.4 222 246C217.8 241.7 212.6 238.6 208.5 236.6C208.9 227 204.4 184.9 201.1 172.5C201 172 200.4 171.6 199.9 171.8C199.4 171.9 199 172.5 199.2 173C202.5 185.5 206.6 225.6 206.6 235.7C203.7 234.4 201.7 233.8 201.5 233.7C200.9 233.5 196.6 232.5 190.4 231.1C193.6 210.4 188.3 159.4 187.3 149.4C193.2 151.7 200.9 155.2 205.2 159.3L206 160L206.2 159.8C208.9 162.2 211.4 165.2 213.1 168.6C218.7 180.5 223.5 206.7 223.9 208.9C223.8 209.6 223.5 212.4 223.6 215.7C223.5 221.8 225.8 225.7 225.9 225.9L227.6 224.9C226.1 222.1 225.6 218.5 225.5 215.4C225.6 212.1 226.4 208.1 228.8 203.5C234.9 192 250.5 163.8 253.7 157.9L268.9 171.5ZM280.5 151.3C279.3 150.8 279.4 148 279.7 146.8C279.8 146.5 279.7 146.2 279.5 146C279.3 145.8 279 145.7 278.7 145.7L277 145.8C276.7 145.8 276.4 146 276.3 146.2C276.3 145.3 276 144.5 275.4 144C275 143.7 274.1 143.2 272.7 143.8C270.9 144.5 269.4 145.2 267.9 145.9C266.1 146.7 264.5 147.5 262.4 148.3C261.9 148.5 261.6 149.1 261.8 149.6C262 150.1 262.6 150.4 263.1 150.2C265.2 149.4 267 148.5 268.7 147.7C270.1 147 271.6 146.3 273.4 145.6C273.8 145.4 274.1 145.5 274.1 145.5C274.2 145.6 274.3 146 274.2 146.6C274 147.9 272.9 149.5 271.1 150.1C267.5 151.4 265.3 154.4 263.3 157.2L263 157.6C262.7 158.1 262.8 158.7 263.2 159C263.4 159.1 263.6 159.2 263.8 159.2C264.1 159.2 264.4 159.1 264.6 158.8L264.9 158.4C266.7 155.8 268.6 153.1 271.7 152.1C274.2 151.2 275.7 149 276.1 147.2C276.3 147.6 276.6 147.8 277.1 147.8H277.6C277.5 149.5 277.6 152.3 279.7 153.2C279.8 153.2 279.8 153.2 279.9 153.3C279.6 153.8 279.3 154.5 278.9 155.3C277.4 158.3 274.9 163.4 272 164.9L267.6 167.2L256.9 158.4C258.4 154.2 265.9 132.5 267.2 127.8C267.4 127.1 267.5 126.5 267.7 126C268.2 124 268.8 121.9 269.3 121.7C269.4 121.7 269.6 121.7 269.9 121.8C271.8 122.6 272.2 124.9 271.2 128.7C270 133 268.8 139.8 268.7 140C268.6 140.5 268.9 141 269.4 141.1C269.9 141.3 270.4 141.1 270.6 140.6C270.6 140.5 273.9 134.7 280.2 135.6C284.8 136.2 287.2 136.7 288.2 137C288.1 137.7 287.9 138.7 287.3 139.3C286.9 139.7 286.2 139.8 285.4 139.7C281.5 139.1 280.4 138.6 280.4 138.6C280.2 138.5 279.9 138.4 279.7 138.5C279.6 138.5 276 139.4 274 141.7C273.7 142 273.7 142.6 273.9 142.9C274.2 143.3 274.7 143.4 275.1 143.2C275.2 143.2 280.3 141.1 282.4 143.9C283.7 145.7 282.9 148.6 281.9 150.2C281.2 151.2 280.7 151.4 280.5 151.3ZM286.6 150.9C286.2 152.1 285.7 152.8 284.9 153C284.1 153.2 283.2 152.7 282.7 152.4C283 152.1 283.2 151.8 283.5 151.4C284.4 150.1 285 148.3 285.1 146.7C286 147.1 287.4 148.4 286.6 150.9Z" fill="#213362"/>
<path d="M159.7 174.7V174.5C158.5 169.8 157 161 159.3 157.5C159.5 157.2 159.7 156.9 159.9 156.6L168.6 162.7L169.1 162.4C178 157.5 179.8 150 180.1 146.9C180.1 146.9 180.1 146.9 180.2 146.9C181.3 147.3 183 147.8 185 148.6C185.7 154.9 191.4 209.5 188.3 230.7C176.8 228.1 160.2 224.3 147.6 221.6C147.9 206 148 191.5 148 187.6C151.4 187.6 154.2 186.6 156.2 184.6C159.6 181.1 159.7 175.8 159.7 174.7Z" fill="#9AA2D2"/>
<path d="M234.4 258.8C234.1 259.3 233.6 259.9 232.9 260.2C232 260.6 231 260.4 229.8 259.8C227.1 258.5 225 257.1 223.4 256C222.2 255.2 221.3 254.6 220.6 254.3C220 252.7 219.7 252.2 219.7 252.2C219.4 251.7 218.8 251.5 218.4 251.8C217.9 252.1 217.7 252.7 218 253.1C218 253.1 218.6 254.2 220 258.4C221.1 262.3 222.5 267.7 222.7 268.8C222.8 269.2 222.8 269.5 222.9 269.9C223.3 271.6 223.3 272.2 222.2 272.8C221.6 273.1 221.3 273 221.1 272.9C220.2 272.5 219.7 270.9 219.6 270.3C217.3 259.9 214.6 255.2 214.5 255C214.2 254.5 213.6 254.4 213.1 254.6C212.6 254.9 212.4 255.5 212.7 256C212.7 256 215.3 260.8 217.6 270.8C217.6 270.8 217.6 270.8 217.6 270.9C217.6 271.1 217.7 271.6 217.4 272C217.3 272.1 217.2 272.3 216.5 272.4C215 272.6 214.2 270.6 214.1 270.3C211.8 260.1 210.4 258 210.2 257.8C209.9 257.4 209.3 257.3 208.8 257.6C208.4 257.9 208.2 258.5 208.5 259C208.6 259.1 209.8 261 211.8 269.9C211.5 269.9 211.1 269.8 210.7 269.7C209.7 269.3 208.9 268.3 208.3 266.7C206.8 262.6 203.7 259 201.6 257.3C200.3 256.3 198.3 255.1 197.3 254.6L201.8 236.4C205 237.5 215 241.5 221.4 248.8L221.5 248.9L234.4 258.8Z" fill="#CBDEF4"/>
<path d="M280.5 151.3C279.3 150.8 279.4 148 279.7 146.8C279.8 146.5 279.7 146.2 279.5 146C279.3 145.8 279 145.7 278.7 145.7L277 145.8C276.7 145.8 276.4 146 276.3 146.2C276.3 145.3 276 144.5 275.4 144C275 143.7 274.1 143.2 272.7 143.8C270.9 144.5 269.4 145.2 267.9 145.9C266.1 146.7 264.5 147.5 262.4 148.3C261.9 148.5 261.6 149.1 261.8 149.6C262 150.1 262.6 150.4 263.1 150.2C265.2 149.4 267 148.5 268.7 147.7C270.1 147 271.6 146.3 273.4 145.6C273.8 145.4 274.1 145.5 274.1 145.5C274.2 145.6 274.3 146 274.2 146.6C274 147.9 272.9 149.5 271.1 150.1C267.5 151.4 265.3 154.4 263.3 157.2L263 157.6C262.7 158.1 262.8 158.7 263.2 159C263.4 159.1 263.6 159.2 263.8 159.2C264.1 159.2 264.4 159.1 264.6 158.8L264.9 158.4C266.7 155.8 268.6 153.1 271.7 152.1C274.2 151.2 275.7 149 276.1 147.2C276.3 147.6 276.6 147.8 277.1 147.8H277.6C277.5 149.5 277.6 152.3 279.7 153.2C279.8 153.2 279.8 153.2 279.9 153.3C279.6 153.8 279.3 154.5 278.9 155.3C277.4 158.3 274.9 163.4 272 164.9L267.6 167.2L256.9 158.4C258.4 154.2 265.9 132.5 267.2 127.8C267.4 127.1 267.5 126.5 267.7 126C268.2 124 268.8 121.9 269.3 121.7C269.4 121.7 269.6 121.7 269.9 121.8C271.8 122.6 272.2 124.9 271.2 128.7C270 133 268.8 139.8 268.7 140C268.6 140.5 268.9 141 269.4 141.1C269.9 141.3 270.4 141.1 270.6 140.6C270.6 140.5 273.9 134.7 280.2 135.6C284.8 136.2 287.2 136.7 288.2 137C288.1 137.7 287.9 138.7 287.3 139.3C286.9 139.7 286.2 139.8 285.4 139.7C281.5 139.1 280.4 138.6 280.4 138.6C280.2 138.5 279.9 138.4 279.7 138.5C279.6 138.5 276 139.4 274 141.7C273.7 142 273.7 142.6 273.9 142.9C274.2 143.3 274.7 143.4 275.1 143.2C275.2 143.2 280.3 141.1 282.4 143.9C283.7 145.7 282.9 148.6 281.9 150.2C281.2 151.2 280.7 151.4 280.5 151.3Z" fill="#CBDEF4"/>
<path d="M286.6 150.9C286.2 152.1 285.7 152.8 284.9 153C284.1 153.2 283.2 152.7 282.7 152.4C283 152.1 283.2 151.8 283.5 151.4C284.4 150.1 285 148.3 285.1 146.7C286 147.1 287.4 148.4 286.6 150.9Z" fill="#CBDEF4"/>
<path d="M280.2 140.6C280 140.6 279.8 140.5 279.6 140.5C279.7 140.5 279.8 140.5 279.8 140.4C280 140.5 280.1 140.5 280.2 140.6Z" fill="#213362"/>
<path d="M125.2 221.3C125.2 221.3 119.5 222.6 117 227.8C117 227.9 122 222.3 125.2 221.3Z" fill="#A9CC63"/>
<path d="M433.3 181C426.2 184.6 418.8 185.5 412.5 184.9C412.1 184.9 411.8 184.8 411.4 184.8C411.4 186.4 411.2 189.9 410.2 193C409.8 194.5 409.3 198.2 411.1 201.2C411.9 202.5 413.1 203.6 414.7 204.3C417 205.3 419.7 205.9 422.9 205.7C431.9 205.3 439.2 199.7 439.9 192.6C439.9 192.5 439.9 192.4 439.9 192.3C439.7 191 439 187 438.6 182.7C438.3 180.7 438.2 178.9 438.3 177.4C438.3 177 438.3 176.7 438.3 176.3C437 178.1 435.4 180 433.3 181Z" fill="#CBDEF4"/>
<path d="M450.001 167.7C451.401 164.8 453.401 161.2 451.301 156.4L451.201 156.3C449.301 155.9 446.501 155.8 445.101 157.9C442.701 161.2 441.101 167.9 439.001 165.7C436.901 163.5 440.901 156.7 440.901 156.7C440.901 156.7 442.101 154.5 440.501 153.4C438.801 152.2 438.901 146.6 439.601 141.9C439.601 141.9 430.601 140.8 429.601 130C429.601 130 421.701 135.3 413.901 134.3C406.101 133.3 404.801 131.1 402.901 129.7C402.201 129.2 401.201 130.3 400.201 131.9C399.101 135.7 397.601 141.2 397.501 145.3L436.201 149.1C436.401 149.1 436.601 149.2 436.801 149.4C436.901 149.6 437.001 149.8 437.001 150C436.901 150.6 435.201 165.9 424.401 166.4C423.001 166.5 421.701 166.4 420.601 166.3C415.001 165.8 412.801 163 411.801 156.4C411.401 153.7 411.901 149.6 412.001 148.4L407.401 148L406.701 155.1C407.401 154 407.801 153 407.801 152.9C408.001 152.5 408.501 152.3 408.901 152.5C409.301 152.7 409.501 153.2 409.301 153.6C409.201 153.7 408.001 156.8 406.201 158.2C404.701 159.3 403.801 160.3 403.601 161.2C403.601 161.4 403.601 161.5 403.501 161.6C403.501 161.9 403.601 162.3 403.801 162.7C404.701 164.5 407.201 164.1 407.301 164C407.701 163.9 408.201 164.2 408.301 164.6C408.401 165 408.101 165.5 407.701 165.6C407.601 165.6 406.901 165.8 406.001 165.7C404.801 165.6 403.301 165.1 402.401 163.4C402.201 163 402.101 162.6 402.001 162.2C401.001 162.3 399.101 162.3 396.201 162.1C396.001 164.5 395.301 176.3 401.301 180C407.901 184.1 420.501 185.7 432.501 179.7C435.501 178.2 437.501 174.6 438.501 172.7C438.501 172.6 438.601 172.5 438.601 172.4C438.901 171.9 439.001 171.5 439.001 171.5C439.101 171.3 439.201 171.1 439.501 171C439.701 170.9 439.901 170.9 440.101 171C440.201 171.1 442.001 171.8 444.301 171.6C446.801 170.4 449.201 169.3 450.001 167.7ZM404.701 143.1C404.501 143.2 404.301 143.3 404.101 143.2C403.901 143.2 403.701 143.1 403.501 142.9C403.501 142.9 403.101 142.4 402.201 142.3C401.301 142.2 400.601 142.7 400.601 142.7C400.201 143 399.701 142.9 399.501 142.5C399.201 142.1 399.301 141.6 399.701 141.4C399.801 141.3 400.901 140.6 402.401 140.7C404.001 140.9 404.801 141.9 404.901 142C405.201 142.3 405.101 142.8 404.701 143.1ZM424.801 145C424.601 145.1 424.401 145.2 424.201 145.1C424.001 145.1 423.801 145 423.601 144.8C423.601 144.8 423.201 144.3 422.301 144.2C421.401 144.1 420.701 144.6 420.701 144.6C420.301 144.9 419.801 144.8 419.601 144.4C419.301 144 419.401 143.5 419.801 143.3C419.901 143.2 421.001 142.5 422.501 142.6C424.101 142.8 424.901 143.8 425.001 143.9C425.201 144.3 425.101 144.8 424.801 145ZM412.701 174.7C412.501 174.7 408.801 174.7 408.301 171.5C408.301 171.3 408.401 171.1 408.501 170.9C408.801 170.6 409.301 170.5 409.701 170.8C410.001 171.1 412.601 173.2 415.101 170.8C415.401 170.5 416.001 170.5 416.301 170.8C416.501 171 416.501 171.2 416.501 171.4C416.501 171.4 416.501 174.7 412.701 174.7ZM446.901 165.4C446.601 165.3 446.301 165.3 444.801 165.9C444.501 166 444.001 166.3 444.001 166.7C444.001 167 444.201 167.2 444.401 167.3C444.601 167.4 444.901 167.3 445.101 167.1C445.401 166.8 446.001 166.8 446.301 167.2C446.601 167.5 446.601 168.1 446.201 168.4C445.701 168.9 445.001 169.1 444.401 169C444.201 169 443.901 168.9 443.701 168.8C442.901 168.4 442.301 167.5 442.401 166.6C442.401 165.6 443.101 164.7 444.301 164.3C446.101 163.6 446.701 163.6 447.301 163.7C447.501 163.7 447.801 163.8 448.501 163.6C449.201 163.5 449.801 162.5 450.001 161.5C450.101 160.8 450.001 160 449.401 159.6C448.901 159.3 448.301 159.3 447.701 159.6C447.001 159.9 446.701 160.5 446.601 160.8C446.601 161.3 446.201 161.6 445.701 161.5C445.201 161.5 444.901 161.1 445.001 160.6C445.101 159.7 445.901 158.7 447.001 158.1C448.101 157.5 449.201 157.6 450.301 158.2C451.401 158.8 451.901 160.2 451.701 161.8C451.501 163.3 450.501 164.9 448.901 165.3C447.801 165.5 447.401 165.5 446.901 165.4Z" fill="#CBDEF4"/>
<path d="M405.6 183.5C404.1 183 402.7 182.4 401.5 181.8C402.7 182.5 404 183.1 405.6 183.5Z" fill="#CBDEF4"/>
<path d="M397 148.9L396.1 158.5C396.1 158.9 395.8 159.1 395.5 159.2C395.5 159.6 395.4 159.9 395.4 160.3C399 160.6 401.3 160.6 402.3 160.5C402.8 159 404.1 157.9 405.1 157.1C405.1 157 405.1 157 405.1 156.9L406 147.8L396.8 146.9H396.7C396.7 147.3 396.6 147.7 396.6 148.1C396.8 148.1 397 148.5 397 148.9ZM398.3 152.1C398.5 150.3 399.8 149.1 401.1 149.2C402.5 149.4 403.4 150.9 403.2 152.7C403 154.5 401.7 155.7 400.4 155.6C399 155.4 398 153.8 398.3 152.1Z" fill="#CBDEF4"/>
<path d="M424.4 164.6C432.5 164.3 434.8 153.6 435.3 150.5L413.8 148.4C413.7 149.5 413.2 153.5 413.6 156C414.4 162.4 416.1 165 424.4 164.6ZM417.3 154.1C417.5 152.3 418.8 151.1 420.1 151.2C421.5 151.4 422.4 152.9 422.2 154.7C422 156.5 420.7 157.7 419.4 157.6C418.1 157.4 417.1 155.9 417.3 154.1Z" fill="#CBDEF4"/>
<path d="M419.4 157.6C420.8 157.8 422 156.5 422.2 154.7C422.4 152.9 421.5 151.4 420.1 151.2C418.7 151 417.5 152.3 417.3 154.1C417.1 155.9 418.1 157.4 419.4 157.6Z" fill="#213362"/>
<path d="M400.3 155.5C401.7 155.7 402.9 154.4 403.1 152.6C403.3 150.8 402.4 149.3 401 149.1C399.6 148.9 398.4 150.2 398.2 152C398 153.8 399 155.4 400.3 155.5Z" fill="#213362"/>
<path d="M456.5 317.8C452.5 318.1 448.6 318.2 444.9 318.2C442.7 318.2 440.5 318.2 438.4 318.1C435 318 431.9 317.8 429.2 317.7C428.1 317.6 427.1 317.6 426.2 317.5C426.2 318 425.9 320.9 425.5 325.1H463.5L463.7 317.1C461.2 317.4 458.8 317.6 456.5 317.8Z" fill="#666FB3"/>
<path d="M446.4 198.1C446.4 198.1 446.5 198 446.4 198.1C446.5 198 446.4 198.1 446.4 198.1Z" fill="#A9CC63"/>
<path d="M424.1 322.1C424.4 319.2 424.6 317.4 424.6 317.3C423.8 317.2 423.1 317.2 422.5 317.1C422.3 317.1 422.1 317.1 422 317C421.7 317 421.4 316.9 421.2 316.9C421 316.9 420.9 316.9 420.8 316.9C420.3 316.8 419.9 316.4 420 315.9L420.2 312.4L403.1 311.3C402.1 311.2 400.6 310.8 399.3 309.9C398.8 309.6 398.3 309.1 397.9 308.6C397.3 307.9 396.9 307.1 396.6 306.2C396.5 306 396.5 305.7 396.4 305.4C395.4 304.8 394.6 304.1 394 303.3C393.8 303.1 393.7 302.8 393.6 302.6C393.5 302.4 393.4 302.1 393.3 301.9C393.1 301.2 393.1 300.5 393.1 300C393.1 299.4 393.3 299 393.3 298.7C392.8 298.1 392.5 297.4 392.3 296.8C392 295.7 392.1 294.7 392.1 293.9V293.8V293.7C392.3 291.1 394.8 289.1 398.3 288.9C398.5 288.9 398.8 288.9 399 288.9C400.5 288.9 401.7 289.3 402.5 289.8C402.8 290 403.1 290.2 403.3 290.4C403.4 290.5 403.5 290.6 403.6 290.7C403.7 290.6 403.8 290.4 403.9 290.3C404.4 289.5 404.7 288.7 404.7 287.9C404.7 287.1 404.5 286.3 404.2 285.3C404.1 285 404 284.7 403.8 284.3C403.6 283.9 403.5 283.6 403.4 283.2C403.1 282.3 402.7 281.3 402.3 280.1C402.2 279.7 402.1 279.3 402 278.9C402 278.7 402 278.5 401.9 278.3C401.9 277.7 401.9 277.2 402.1 276.7C402.2 276.4 402.3 276.1 402.5 275.8C403.7 273.7 406.4 273.3 406.5 273.2C406.6 273.2 406.7 273.2 406.8 273.2C407.1 273.2 407.3 273.4 407.4 273.7L410.4 280.9C410.8 281.9 411.4 282.8 412 283.7C412.4 284.3 412.9 284.8 413.4 285.3C413.6 285.5 413.9 285.8 414.2 286C416.8 288.3 419.7 289.8 421.3 290.5V290.4V290.3C421.3 290.2 421.4 290 421.4 289.9C421.5 289.7 421.7 289.5 422 289.4C422.3 289.3 424.3 288.8 427.2 288.2C427.2 288.2 427.2 288.2 427.2 288.1C425.2 234.9 444.6 197 444.8 196.6C445 196.1 445.6 196 446.1 196.2C446.6 196.4 446.7 197 446.5 197.5V197.6C446.8 196.9 447.2 196.1 447.7 195.5C447.7 195.5 447.8 195.5 447.8 195.6C446.8 195.2 445.9 194.9 445.1 194.6C443.4 194.1 441.8 193.5 441.2 193.4C440.5 198 437.4 202 432.9 204.5C432.5 204.7 432.1 204.9 431.7 205.1C430.6 205.6 429.4 206.1 428.2 206.4C427.9 206.5 427.6 206.6 427.3 206.6C426.5 206.8 425.7 206.9 424.9 207C424.6 207 424.4 207.1 424.1 207.1C423.6 207.2 423.1 207.2 422.6 207.2C421.5 207.2 420.4 207.2 419.4 207.1C419.1 207.1 418.9 207 418.7 207C418.6 207 418.5 207.1 418.4 207.1H418.3C414.1 206.4 411.1 204.7 409.4 201.9C408.5 200.3 408.1 198.6 407.9 197.1C407.3 198.6 406.6 200.4 406 202.3C405.1 205.1 404.1 208.2 403.2 211.6C395.8 240.5 388.8 286.5 383.4 325.1H423.4C423.4 324.8 423.5 324.5 423.5 324.2C423.9 323.5 424 322.8 424.1 322.1Z" fill="#A9CC63"/>
<path d="M444.801 201.6C444.801 201.5 444.801 201.5 444.901 201.4C444.901 201.5 444.801 201.6 444.801 201.6Z" fill="#A9CC63"/>
<path d="M445.301 200.4C445.301 200.4 445.301 200.3 445.401 200.3C445.401 200.3 445.401 200.4 445.301 200.4Z" fill="#A9CC63"/>
<path d="M447.9 195.5C447.4 196.1 447 196.9 446.7 197.6V197.7C446.7 197.8 446.6 197.9 446.6 198V198.1C446.5 198.2 446.5 198.4 446.4 198.6V198.7C446.3 198.9 446.2 199.1 446.1 199.4V199.5C446 199.8 445.9 200 445.7 200.4C445.7 200.4 445.7 200.5 445.6 200.5C445.5 200.8 445.3 201.2 445.1 201.5C445.1 201.6 445.1 201.6 445 201.7C444.8 202.1 444.7 202.5 444.5 202.9C444.5 203 444.4 203 444.4 203.1C444.2 203.5 444 204 443.8 204.4C443.8 204.5 443.7 204.5 443.7 204.6C443.5 205.1 443.3 205.6 443.1 206.1C443.1 206.2 443 206.3 443 206.4C442.8 206.9 442.6 207.5 442.4 208C442.4 208.1 442.3 208.2 442.3 208.3C442.1 208.9 441.9 209.5 441.6 210.1C441.6 210.2 441.5 210.3 441.5 210.4C441.3 211 441.1 211.6 440.8 212.3C440.8 212.4 440.7 212.6 440.7 212.7C440.5 213.3 440.2 214 440 214.7C439.9 214.9 439.9 215 439.8 215.2C439.6 215.9 439.3 216.6 439.1 217.3C439 217.5 439 217.6 438.9 217.8C438.7 218.5 438.4 219.2 438.2 220C438.1 220.2 438.1 220.4 438 220.6C437.8 221.3 437.6 222.1 437.3 222.9C437.2 223.1 437.2 223.3 437.1 223.6C436.9 224.4 436.7 225.2 436.4 225.9C436.3 226.1 436.3 226.4 436.2 226.6C436 227.4 435.8 228.2 435.6 229C435.5 229.3 435.5 229.5 435.4 229.8C435.2 230.6 435 231.4 434.8 232.3C434.7 232.6 434.7 232.9 434.6 233.2C434.4 234 434.2 234.9 434 235.7C433.9 236 433.9 236.4 433.8 236.7C433.6 237.5 433.4 238.4 433.3 239.3C433.2 239.7 433.2 240 433.1 240.4C432.9 241.3 432.8 242.1 432.6 243C432.5 243.4 432.5 243.8 432.4 244.2C432.2 245.1 432.1 246 432 246.8C431.9 247.2 431.9 247.6 431.8 248C431.7 248.9 431.5 249.8 431.4 250.7C431.3 251.2 431.3 251.6 431.2 252C431.1 252.9 431 253.8 430.8 254.7C430.7 255.2 430.7 255.7 430.6 256.1C430.5 257 430.4 257.9 430.3 258.8C430.2 259.3 430.2 259.8 430.1 260.3C430 261.2 429.9 262.1 429.9 263.1C429.9 263.6 429.8 264.2 429.8 264.7C429.7 265.6 429.7 266.6 429.6 267.5C429.6 268.1 429.5 268.6 429.5 269.2C429.4 270.1 429.4 271.1 429.4 272.1C429.4 272.7 429.3 273.2 429.3 273.8C429.3 274.8 429.3 275.8 429.2 276.8C429.2 277.4 429.2 277.9 429.2 278.5C429.2 279.6 429.2 280.7 429.2 281.9C429.2 282.4 429.2 282.8 429.2 283.3C429.2 284.9 429.3 286.5 429.3 288.1C430.4 287.9 431.6 287.6 432.9 287.4C434.8 287 436.9 286.6 439.1 286.3C441.3 285.9 443.6 285.6 445.9 285.3C449 284.9 452.2 284.5 455.2 284.3C456 284.2 456.7 284.2 457.5 284.2C459 284.1 460.5 284.1 461.9 284.1C462.6 284.1 463.3 284.1 464 284.2C462.9 282.4 461.8 280.3 460.6 277.9C460.1 276.9 459.6 275.7 459.1 274.6C458.6 273.5 458.2 272.3 457.7 271.1C457.3 270.1 456.9 269 456.6 268C456 266.4 455.5 264.6 454.9 262.8C453.9 259.7 453.1 256.9 452.5 254.4C452.1 252.7 451.7 251.2 451.4 249.8C451.3 249.3 451.2 248.8 451.1 248.3C450.9 247.3 450.7 246.5 450.6 245.6C450.5 245.2 450.5 244.8 450.4 244.4C450.1 242.4 450.1 240.8 450.2 239.3V239.2V239C450.3 236 450.9 232 452.6 227.8C453 226.8 453.5 225.8 454 224.8C454.7 223.5 455.6 222.1 456.5 220.8C456.7 220.5 457 220.1 457.3 219.8C458.1 218.8 459 217.8 460 216.9C461 216 462.1 215 463.2 214.1C465.2 212.6 467.4 211.2 470 209.9C470.1 209.8 470.2 209.8 470.4 209.8C470.8 209.8 471.1 210 471.3 210.3C471.5 210.6 471.4 211 471.2 211.3C471.1 211.4 471 211.5 470.9 211.5C463.5 215.1 459 219.9 456.2 224.6C455.8 225.2 455.5 225.9 455.2 226.5C455 226.8 454.9 227.1 454.8 227.4C454.5 228 454.3 228.6 454 229.2C453.2 231.3 452.7 233.4 452.4 235.2C452.2 236.5 452.1 237.7 452 238.8V239.2C452 239.5 452 239.7 452 240C452 240.6 452 241.2 452.1 241.9C452.2 242.6 452.2 243.3 452.3 244.1C452.4 244.8 452.5 245.6 452.7 246.4C452.8 247 452.9 247.6 453.1 248.3C453.4 249.6 453.7 251 454.1 252.6C454.2 253.2 454.4 253.7 454.6 254.3C455.2 256.7 456 259.3 456.9 262.1C457.7 264.8 458.6 267.2 459.4 269.5C459.6 270.1 459.8 270.6 460 271.1C460.4 272.2 460.8 273.2 461.2 274.1C461.6 275 462 276 462.4 276.8C462.8 277.7 463.2 278.5 463.6 279.2C463.8 279.6 464 280 464.2 280.3C464.7 281.2 465.2 282.1 465.7 282.9C466 283.3 466.2 283.7 466.5 284.1C467.4 284.2 468.2 284.3 469 284.4C470.6 284.7 471.9 285.1 473.1 285.6C473.4 285.7 473.7 285.9 473.9 286C474.2 286.1 474.4 286.3 474.6 286.5C475.5 287.1 476.1 287.9 476.5 288.7C476.7 289.1 476.8 289.5 476.8 289.9C476.8 290.3 476.8 290.7 476.7 291C476.7 291.1 476.6 291.3 476.5 291.4C476.4 291.5 476.4 291.6 476.3 291.7C476 292.1 475.5 292.4 475 292.6C474.7 292.7 474.4 292.7 474.1 292.7C473.7 292.7 473.2 292.6 472.7 292.5C471.9 292.3 471 291.8 470.1 291.1C469.7 290.8 469.4 290.5 469 290.2C468.8 290 468.6 289.8 468.4 289.6C467.4 288.6 466.4 287.4 465.4 285.9C463.7 285.8 461.8 285.7 459.8 285.8C459.8 285.8 459.8 285.8 459.7 285.8C458.7 285.8 457.7 285.9 456.7 285.9C456.2 285.9 455.7 286 455.1 286C452.5 286.2 449.8 286.5 447.1 286.8C446.6 286.9 446 286.9 445.5 287C444.4 287.2 443.4 287.3 442.3 287.5C441.2 287.7 440.2 287.8 439.2 288C438.2 288.2 437.2 288.3 436.3 288.5C435.3 288.7 434.4 288.8 433.5 289C432.6 289.2 431.8 289.3 431 289.5C429.4 289.8 428 290.1 426.7 290.4C425.5 290.7 424.5 290.9 423.8 291C423.6 291 423.5 291.1 423.3 291.1L421.7 315.2C421.9 315.2 422.1 315.2 422.4 315.3C423.2 315.4 424.2 315.5 425.5 315.6C426.3 315.7 427.3 315.7 428.3 315.8C436.5 316.4 450.4 316.9 463.3 315.3C464.9 315.1 466.5 314.9 468.1 314.6C469.7 314.3 471.2 314.1 472.7 313.7C474.2 313.4 475.7 313 477.1 312.6C477.8 312.4 478.5 312.2 479.2 311.9C481.2 311.2 483.1 310.4 484.8 309.5C485.6 309.1 486.3 308.6 487 308C487.2 307.8 487.4 307.6 487.6 307.4C488 307 488.4 306.5 488.8 306C489.3 305.2 489.8 304.4 490.2 303.5C490.5 302.9 490.7 302.2 491 301.6C491.1 301.3 491.2 300.9 491.3 300.6C492.5 296.4 492.9 291.2 492.6 285.4C492.6 284.9 492.6 284.4 492.5 283.9C492.4 283 492.4 282 492.3 281C492.2 280 492.1 278.9 492 277.8C491.9 277.3 491.9 276.8 491.8 276.3C491.6 274.7 491.4 273.2 491.1 271.6C491 271.1 490.9 270.5 490.8 270C489.9 264.8 488.8 259.5 487.6 254.4C487.5 253.8 487.3 253.2 487.2 252.5C486.7 250.4 486.2 248.4 485.7 246.4C485.3 244.8 484.9 243.2 484.5 241.7C484.3 240.8 484 240 483.8 239.2C482.5 234.6 481.3 230.4 480.3 227C480.2 226.6 480 226.1 479.9 225.7C479.5 224.4 479.2 223.2 478.9 222.1C478.7 221.4 478.5 220.7 478.3 220C478.1 219.4 478 218.8 477.8 218.2C477.7 217.8 477.6 217.4 477.4 217C477.4 216.9 477.3 216.8 477.3 216.6C477.2 216.3 477.1 216 476.9 215.7C476.8 215.6 476.8 215.4 476.7 215.3C476.5 215 476.4 214.7 476.2 214.4C476.2 214.3 476.1 214.2 476.1 214.2C475.9 213.8 475.6 213.4 475.4 213.1C475.3 213 475.3 212.9 475.2 212.9C475 212.6 474.8 212.3 474.6 212C474.5 211.9 474.4 211.8 474.3 211.7C474.1 211.4 473.8 211.2 473.6 210.9C473.5 210.8 473.4 210.7 473.4 210.6C473.1 210.2 472.8 209.9 472.4 209.6C472.1 209.3 471.7 209 471.4 208.6C471.3 208.5 471.2 208.4 471.1 208.3C470.8 208 470.5 207.8 470.2 207.6C470.1 207.5 470 207.4 469.9 207.3C469.5 207 469.2 206.7 468.8 206.4C468.8 206.4 468.8 206.4 468.7 206.3C468.3 206 467.9 205.7 467.4 205.4C467.3 205.3 467.2 205.3 467.1 205.2C466.8 205 466.4 204.7 466.1 204.5C466 204.4 465.9 204.3 465.7 204.3C465.4 204.1 465 203.9 464.7 203.6C464.6 203.5 464.5 203.5 464.4 203.4C464 203.1 463.5 202.9 463.1 202.6C463 202.6 463 202.5 462.9 202.5C462.5 202.3 462.2 202.1 461.8 201.9C461.7 201.8 461.5 201.7 461.4 201.7C461.1 201.5 460.8 201.4 460.5 201.2C460.3 201.1 460.2 201 460 201C459.6 200.8 459.3 200.6 458.9 200.4C458.8 200.3 458.7 200.3 458.5 200.2C458.1 200 457.7 199.8 457.3 199.6C457.1 199.5 456.9 199.4 456.7 199.3C456.5 199.2 456.2 199.1 456 199C455.8 198.9 455.6 198.8 455.4 198.7C455.2 198.6 455 198.5 454.8 198.4C453.9 198 453 197.6 452.2 197.3C452.1 197.3 452 197.2 451.9 197.2C451.6 197.1 451.3 197 451 196.8C450.9 196.8 450.9 196.8 450.8 196.7C449.8 196.3 448.9 196 448.1 195.7C448 195.5 447.9 195.5 447.9 195.5Z" fill="#666FB3"/>
<path d="M420.3 291.8C420.1 291.7 419.9 291.6 419.6 291.5C417.9 290.7 415.6 289.4 413.5 287.5C412.9 287 412.3 286.4 411.8 285.8C411 284.9 410.2 283.9 409.6 282.7C409.4 282.3 409.2 281.9 409.1 281.5L406.4 275C405.7 275.2 404.7 275.7 404.1 276.6C404 276.8 403.9 277 403.8 277.2C403.7 277.6 403.7 278.1 403.7 278.7C403.7 279 403.8 279.3 403.9 279.5C404.3 280.6 404.6 281.6 405 282.5C405.8 284.5 406.4 286.2 406.4 287.9C406.4 288.4 406.3 288.9 406.1 289.4C405.9 289.9 405.7 290.4 405.3 291C405.2 291.1 405.1 291.3 405 291.4C404.7 291.7 404.4 292.1 404 292.3C404 292.3 404 292.3 403.9 292.4C402.8 293.1 401.4 293.5 400.1 293.7C399.9 293.7 399.7 293.8 399.5 293.8C398.9 293.9 398.3 293.9 397.7 294C397.5 294 397.4 294 397.2 294C396.9 294 396.6 294 396.4 294C396.2 294 396 294 395.9 294C395.8 294 395.8 294 395.8 294C395.6 294 395.4 293.9 395.2 293.7C395.1 293.6 395.1 293.5 395 293.4C395 293.3 394.9 293.2 395 293.1C395 293 395 292.9 395.1 292.9C395.2 292.6 395.5 292.4 395.9 292.4C396.1 292.4 396.3 292.4 396.5 292.4C396.7 292.4 396.9 292.4 397.2 292.4C397.7 292.4 398.3 292.4 398.8 292.3C399.1 292.3 399.4 292.2 399.7 292.2C400.6 292.1 401.5 291.8 402.3 291.5C402.1 291.4 401.9 291.2 401.7 291.1C401.5 290.9 401.2 290.8 400.8 290.7C400.6 290.6 400.4 290.6 400.2 290.5C399.9 290.4 399.5 290.4 399.1 290.4C398.4 290.4 397.7 290.5 397.1 290.7C396.5 290.9 395.9 291.1 395.5 291.4C395 291.7 394.7 292.1 394.4 292.5C394.1 292.9 394 293.3 393.9 293.8V294C393.9 294.3 393.9 294.6 393.9 294.9C393.9 295.9 394 296.9 394.8 297.8C395.1 298.2 395.6 298.5 396.2 298.8C397.3 299.4 398.9 299.8 400.9 300C401.8 300.1 402.8 300.2 403.9 300.2C404 300.2 404.1 300.2 404.2 300.3C404.4 300.4 404.5 300.5 404.6 300.6C404.7 300.7 404.7 300.9 404.7 301C404.7 301.3 404.5 301.6 404.2 301.7C404.1 301.7 404 301.8 403.9 301.8C403.3 301.8 402.7 301.8 402.1 301.7C401.7 301.7 401.3 301.6 400.9 301.6C400.5 301.6 400.2 301.5 399.8 301.5C398.1 301.2 396.6 300.8 395.5 300.3C395.3 300.2 395.1 300.1 394.9 299.9C394.8 300.6 394.9 301.5 395.5 302.4C395.6 302.6 395.8 302.8 396 303C396.4 303.4 396.9 303.7 397.5 304.1C398.7 304.7 400.2 305.1 402.2 305.3C402.7 305.4 403.2 305.4 403.7 305.4C403.8 305.4 403.9 305.4 404 305.5C404.3 305.6 404.5 306 404.5 306.3C404.5 306.8 404.1 307.1 403.6 307.1C403.5 307.1 403.4 307.1 403.3 307.1C402.8 307.1 402.4 307 402 307C401.1 306.9 400.3 306.8 399.6 306.6C399.2 306.5 398.9 306.4 398.5 306.3C398.7 306.9 399.1 307.4 399.4 307.8C399.5 307.9 399.6 308.1 399.8 308.2C400.4 308.8 401.2 309.2 401.8 309.4C402.7 309.7 403.4 309.8 403.4 309.8L420.5 310.9L421.7 292.4C421.1 292.1 420.7 292 420.3 291.8Z" fill="#CBDEF4"/>
<path d="M396.001 158.4L396.901 148.8C396.901 148.4 396.701 148.1 396.301 148C396.201 148 396.201 148 396.101 147.9C395.601 147.9 395.201 148.2 395.201 148.6L394.301 158.2C394.301 158.7 394.601 159.1 395.001 159.1C395.101 159.1 395.201 159.1 395.301 159.1C395.701 159.1 396.001 158.8 396.001 158.4Z" fill="#213362"/>
<path d="M413.401 173.2C414.601 172.6 416.501 171.5 416.501 171.5C416.501 171.3 416.401 171.1 416.301 170.9C416.001 170.6 415.501 170.5 415.101 170.9C412.501 173.3 410.001 171.1 409.701 170.9C409.401 170.6 408.801 170.6 408.501 171C408.301 171.2 408.301 171.4 408.301 171.6C408.301 171.5 412.201 173.8 413.401 173.2Z" fill="#213362"/>
<path d="M402.401 140.6C400.901 140.5 399.801 141.2 399.701 141.3C399.301 141.6 399.301 142.1 399.501 142.4C399.801 142.8 400.301 142.8 400.601 142.6C400.601 142.6 401.301 142.1 402.201 142.2C403.101 142.3 403.501 142.8 403.501 142.8C403.601 143 403.901 143.1 404.101 143.1C404.301 143.1 404.501 143.1 404.701 143C405.101 142.7 405.201 142.2 404.901 141.9C404.801 141.8 404.001 140.8 402.401 140.6Z" fill="#213362"/>
<path d="M422.501 142.6C420.901 142.5 419.901 143.2 419.701 143.3C419.301 143.6 419.301 144.1 419.501 144.4C419.801 144.8 420.301 144.8 420.601 144.6C420.601 144.6 421.301 144.1 422.201 144.2C423.101 144.3 423.501 144.8 423.501 144.8C423.601 145 423.901 145.1 424.101 145.1C424.301 145.1 424.501 145.1 424.701 145C425.101 144.7 425.201 144.2 424.901 143.9C424.901 143.8 424.101 142.8 422.501 142.6Z" fill="#213362"/>
<path d="M451.5 161.9C451.7 160.3 451.2 159 450.1 158.3C449.1 157.7 447.9 157.7 446.8 158.2C445.7 158.7 444.9 159.8 444.8 160.7C444.8 161.2 445.1 161.6 445.5 161.6C446 161.6 446.4 161.3 446.4 160.9C446.4 160.7 446.8 160.1 447.5 159.7C448.1 159.4 448.7 159.4 449.2 159.7C449.8 160 449.9 160.9 449.8 161.6C449.6 162.7 449 163.6 448.3 163.7C447.6 163.8 447.4 163.8 447.1 163.8C446.5 163.7 446 163.7 444.1 164.4C443 164.9 442.3 165.7 442.2 166.7C442.2 167.6 442.7 168.5 443.5 168.9C443.7 169 444 169.1 444.2 169.1C444.8 169.2 445.5 168.9 446 168.5C446.3 168.2 446.4 167.7 446.1 167.3C445.8 167 445.3 166.9 444.9 167.2C444.6 167.4 444.4 167.5 444.2 167.4C444 167.3 443.8 167 443.8 166.8C443.8 166.4 444.3 166.1 444.6 166C446.1 165.4 446.4 165.4 446.7 165.5C447.1 165.6 447.6 165.6 448.5 165.4C450.3 165 451.3 163.3 451.5 161.9Z" fill="#213362"/>
<path d="M366.8 312.3C366.9 312.3 369.9 288.6 371.4 278.2L371.8 275.6C375.1 253 378.9 232 382.3 222C382.5 221.5 382.2 221 381.7 220.8C381.2 220.6 380.7 220.9 380.5 221.4C378.7 226.8 376.7 235.2 374.8 245.2C374.8 245.3 367.3 293.8 367.3 293.8C350.5 297.2 317.5 244.6 313.8 238.6L317.4 233.5C320.7 228.9 328.1 221.2 330.5 218.8C332.3 221 337.5 227.3 348.5 239.3C356.1 247.6 360.6 253.3 363.3 257.2C362.5 261.8 362.3 265.5 363.3 266.9C363.7 267.4 364.2 267.7 364.9 267.7C367.2 267.7 368.1 266.7 368.4 265.8C369 264.4 368.9 262.1 365.4 256.8C366.9 249 369.9 238 371.8 232.1C379.4 209.1 384.1 202 407 195C406.3 196.5 405.6 198.4 405 200.2C405 200.2 405 200.2 405 200.1C404.5 201.4 404.1 202.8 403.7 204.2C403.5 204.7 403.4 205.1 403.3 205.4C403.3 205.4 403.3 205.4 403.3 205.5C395 232.8 387.6 282.9 381.8 325.1H383.7C389.1 285.7 395.9 239.6 403.5 211.6C404.4 208.2 405.3 205.1 406.3 202.3C406.9 200.5 407.6 198.7 408.2 197.1C408.3 198.6 408.7 200.3 409.7 201.9C411.4 204.7 414.4 206.4 418.6 207.1H418.7C418.8 207.1 418.9 207.1 419 207C419.2 207 419.5 207.1 419.7 207.1C420.7 207.2 421.8 207.2 422.9 207.2C423.4 207.2 423.9 207.1 424.4 207.1C424.7 207.1 424.9 207 425.2 207C426 206.9 426.8 206.7 427.6 206.6C427.9 206.5 428.2 206.5 428.5 206.4C429.7 206 430.9 205.6 432 205.1C432.4 204.9 432.8 204.7 433.2 204.5C437.6 202 440.8 198 441.5 193.4C442.3 193.6 443.7 194.1 445.4 194.6C446.2 194.9 447.2 195.2 448.1 195.6C449 195.9 449.9 196.3 450.8 196.6C450.9 196.6 450.9 196.6 451 196.7C451.3 196.8 451.6 196.9 451.9 197.1C452 197.1 452.1 197.2 452.2 197.2C453.1 197.6 453.9 197.9 454.8 198.3C455 198.4 455.2 198.5 455.4 198.6C455.6 198.7 455.8 198.8 456 198.9C456.2 199 456.5 199.1 456.7 199.2C456.9 199.3 457.1 199.4 457.3 199.5C457.7 199.7 458.1 199.9 458.5 200.1C458.6 200.2 458.7 200.2 458.9 200.3C459.3 200.5 459.6 200.7 460 200.9C460.2 201 460.3 201.1 460.5 201.1C460.8 201.3 461.1 201.4 461.4 201.6C461.5 201.7 461.7 201.8 461.8 201.8C462.2 202 462.6 202.2 462.9 202.4C463 202.4 463 202.5 463.1 202.5C463.5 202.8 464 203 464.4 203.3C464.5 203.4 464.6 203.4 464.7 203.5C465 203.7 465.4 203.9 465.7 204.2C465.8 204.3 465.9 204.4 466.1 204.4C466.4 204.6 466.8 204.9 467.1 205.1C467.2 205.2 467.3 205.2 467.4 205.3C467.8 205.6 468.2 205.9 468.7 206.2C468.7 206.2 468.7 206.2 468.8 206.3C469.2 206.6 469.5 206.9 469.9 207.2C470 207.3 470.1 207.4 470.2 207.5C470.5 207.7 470.8 208 471.1 208.2C471.2 208.3 471.3 208.4 471.4 208.5C471.7 208.8 472.1 209.1 472.4 209.5C472.7 209.8 473.1 210.2 473.4 210.5C473.5 210.6 473.6 210.7 473.6 210.8C473.8 211.1 474.1 211.3 474.3 211.6C474.4 211.7 474.5 211.8 474.6 211.9C474.8 212.2 475 212.5 475.2 212.8C475.3 212.9 475.3 213 475.4 213C475.7 213.4 475.9 213.7 476.1 214.1C476.1 214.2 476.2 214.3 476.2 214.3C476.4 214.6 476.5 214.9 476.7 215.2C476.8 215.3 476.8 215.5 476.9 215.6C477 215.9 477.1 216.2 477.3 216.5C477.3 216.6 477.4 216.7 477.4 216.9C477.5 217.3 477.7 217.7 477.8 218.1C477.9 218.6 478.1 219.2 478.3 219.9C478.5 220.5 478.7 221.2 478.9 222C479.2 223.1 479.6 224.3 479.9 225.6C480 226 480.2 226.5 480.3 226.9C481.3 230.3 482.5 234.5 483.8 239.1C484 239.9 484.3 240.8 484.5 241.6C484.9 243.1 485.3 244.7 485.7 246.3C486.2 248.3 486.7 250.3 487.2 252.4C487.3 253 487.5 253.6 487.6 254.3C488.8 259.4 489.9 264.7 490.8 269.9C490.9 270.4 491 271 491.1 271.5C491.3 273.1 491.6 274.7 491.8 276.2C491.9 276.7 491.9 277.2 492 277.7C492.1 278.8 492.2 279.8 492.3 280.9C492.4 281.9 492.5 282.8 492.5 283.8C492.5 284.3 492.6 284.8 492.6 285.3C492.8 291.1 492.5 296.3 491.3 300.5C491.2 300.9 491.1 301.2 491 301.5C490.8 302.2 490.5 302.8 490.2 303.4C489.8 304.3 489.3 305.2 488.8 305.9C488.4 306.4 488.1 306.9 487.6 307.3C487.4 307.5 487.2 307.7 487 307.9C486.3 308.5 485.6 309 484.8 309.4C483.1 310.3 481.2 311.1 479.2 311.8C478.5 312 477.8 312.2 477.1 312.5C475.7 312.9 474.2 313.3 472.7 313.6C471.2 313.9 469.7 314.2 468.1 314.5C466.5 314.8 464.9 315 463.3 315.2C450.4 316.7 436.6 316.2 428.3 315.7C427.3 315.6 426.3 315.6 425.5 315.5C424.2 315.4 423.2 315.3 422.4 315.2C422.1 315.2 421.9 315.2 421.7 315.1L423.3 291C423.4 291 423.6 290.9 423.8 290.9C424.5 290.7 425.5 290.5 426.7 290.3C427.9 290 429.3 289.7 431 289.4C431.8 289.2 432.7 289.1 433.5 288.9C434.4 288.7 435.3 288.6 436.3 288.4C437.3 288.2 438.2 288.1 439.2 287.9C440.2 287.7 441.2 287.6 442.3 287.4C443.4 287.2 444.4 287.1 445.5 286.9C446 286.8 446.6 286.8 447.1 286.7C449.8 286.3 452.5 286.1 455.1 285.9C455.6 285.9 456.1 285.8 456.7 285.8C457.7 285.7 458.7 285.7 459.7 285.7C459.7 285.7 459.7 285.7 459.8 285.7C461.8 285.7 463.6 285.7 465.4 285.8C466.4 287.3 467.4 288.5 468.4 289.5C468.6 289.7 468.8 289.9 469 290.1C469.4 290.5 469.8 290.8 470.1 291C471 291.7 471.9 292.2 472.7 292.4C473.2 292.5 473.6 292.6 474.1 292.6C474.4 292.6 474.7 292.6 475 292.5C475.6 292.3 476 292 476.3 291.6C476.4 291.5 476.5 291.4 476.5 291.3C476.6 291.2 476.6 291.1 476.7 290.9C476.8 290.5 476.9 290.2 476.8 289.8C476.8 289.4 476.7 289 476.5 288.6C476.1 287.8 475.5 287.1 474.6 286.4C474.4 286.2 474.1 286.1 473.9 285.9C473.6 285.8 473.4 285.6 473.1 285.5C472 285 470.6 284.6 469 284.3C468.2 284.2 467.4 284 466.5 284C466.2 283.6 466 283.2 465.7 282.8C465.2 282 464.7 281.1 464.2 280.2C464 279.8 463.8 279.5 463.6 279.1C463.2 278.3 462.8 277.5 462.4 276.7C462 275.8 461.6 274.9 461.2 274C460.8 273.1 460.4 272 460 271C459.8 270.5 459.6 269.9 459.4 269.4C458.6 267.2 457.7 264.7 456.9 262C456 259.1 455.3 256.5 454.6 254.2C454.4 253.6 454.3 253 454.1 252.5C453.7 251 453.4 249.5 453.1 248.2C453 247.6 452.8 246.9 452.7 246.3C452.6 245.5 452.4 244.7 452.3 244C452.2 243.2 452.1 242.5 452.1 241.8C452.1 241.1 452 240.5 452 239.9C452 239.6 452 239.3 452 239.1V238.7C452 237.6 452.1 236.4 452.4 235.1C452.7 233.3 453.2 231.2 454 229.1C454.2 228.5 454.5 227.9 454.8 227.3C454.9 227 455.1 226.7 455.2 226.4C455.5 225.8 455.8 225.1 456.2 224.5C459 219.8 463.5 215.1 470.9 211.4C471 211.3 471.1 211.3 471.2 211.2C471.4 210.9 471.5 210.5 471.3 210.2C471.1 209.9 470.8 209.7 470.4 209.7C470.3 209.7 470.2 209.7 470 209.8C467.4 211.1 465.1 212.5 463.2 214C462 214.9 460.9 215.8 460 216.8C459 217.7 458.1 218.7 457.3 219.7C457 220 456.8 220.4 456.5 220.7C455.5 222 454.7 223.4 454 224.7C453.5 225.7 453 226.7 452.6 227.7C450.9 231.9 450.3 235.9 450.2 238.9V239.1V239.2C450.1 240.6 450.2 242.3 450.4 244.3C450.5 244.7 450.5 245.1 450.6 245.5C450.7 246.3 450.9 247.2 451.1 248.2C451.2 248.7 451.3 249.2 451.4 249.7C451.7 251.1 452.1 252.7 452.5 254.3C453.2 256.8 454 259.6 454.9 262.7C455.5 264.5 456 266.2 456.6 267.9C457 269 457.4 270 457.7 271C458.2 272.2 458.6 273.4 459.1 274.5C459.6 275.7 460.1 276.8 460.6 277.8C461.7 280.2 462.9 282.3 464 284.1C463.3 284.1 462.6 284 461.9 284C460.5 284 459 284 457.5 284.1C456.7 284.1 456 284.2 455.2 284.2C452.1 284.4 449 284.8 445.9 285.2C443.6 285.5 441.3 285.9 439.1 286.2C436.9 286.6 434.8 287 432.9 287.3C431.6 287.5 430.4 287.8 429.3 288C429.2 286.4 429.2 284.8 429.2 283.2C429.2 282.7 429.2 282.3 429.2 281.8C429.2 280.7 429.2 279.5 429.2 278.4C429.2 277.8 429.2 277.3 429.2 276.7C429.2 275.7 429.2 274.7 429.3 273.7C429.3 273.1 429.4 272.6 429.4 272C429.4 271 429.5 270.1 429.5 269.1C429.5 268.5 429.6 268 429.6 267.4C429.7 266.5 429.7 265.5 429.8 264.6C429.8 264.1 429.9 263.5 429.9 263C430 262.1 430.1 261.1 430.1 260.2C430.2 259.7 430.2 259.2 430.3 258.7C430.4 257.8 430.5 256.9 430.6 256C430.7 255.5 430.7 255 430.8 254.6C430.9 253.7 431 252.8 431.2 251.9C431.3 251.4 431.3 251 431.4 250.6C431.5 249.7 431.7 248.8 431.8 247.9C431.9 247.5 431.9 247.1 432 246.7C432.1 245.8 432.3 244.9 432.4 244.1C432.5 243.7 432.5 243.3 432.6 242.9C432.8 242 432.9 241.1 433.1 240.3C433.2 239.9 433.2 239.6 433.3 239.2C433.5 238.3 433.7 237.5 433.8 236.6C433.9 236.3 433.9 235.9 434 235.6C434.2 234.7 434.4 233.9 434.6 233.1C434.7 232.8 434.7 232.5 434.8 232.2C435 231.4 435.2 230.5 435.4 229.7C435.5 229.4 435.5 229.2 435.6 228.9C435.8 228.1 436 227.3 436.2 226.5C436.3 226.3 436.3 226 436.4 225.8C436.6 225 436.8 224.2 437.1 223.5C437.2 223.3 437.2 223.1 437.3 222.8C437.5 222 437.7 221.3 438 220.5C438.1 220.3 438.1 220.1 438.2 219.9C438.4 219.2 438.7 218.4 438.9 217.7C439 217.5 439 217.4 439.1 217.2C439.3 216.5 439.6 215.8 439.8 215.1C439.9 214.9 439.9 214.8 440 214.6C440.2 213.9 440.5 213.3 440.7 212.6C440.7 212.5 440.8 212.3 440.8 212.2C441 211.6 441.3 210.9 441.5 210.3C441.5 210.2 441.6 210.1 441.6 210C441.8 209.4 442 208.8 442.3 208.2C442.3 208.1 442.4 208 442.4 207.9C442.6 207.3 442.8 206.8 443 206.3C443 206.2 443.1 206.1 443.1 206C443.3 205.5 443.5 205 443.7 204.5C443.7 204.4 443.8 204.4 443.8 204.3C444 203.8 444.2 203.4 444.4 203C444.4 202.9 444.5 202.9 444.5 202.8C444.7 202.4 444.8 202 445 201.6C445 201.5 445 201.5 445.1 201.4C445.3 201 445.4 200.7 445.6 200.4C445.6 200.4 445.6 200.3 445.7 200.3C445.8 200 446 199.7 446.1 199.4V199.3C446.2 199 446.3 198.8 446.4 198.6V198.5C446.5 198.3 446.6 198.2 446.6 198V197.9C446.7 197.8 446.7 197.7 446.7 197.6V197.5V197.4C446.9 196.9 446.8 196.4 446.3 196.1C445.8 195.9 445.3 196 445 196.5C444.8 196.9 425.4 234.8 427.4 288C427.4 288 427.4 288 427.4 288.1C424.5 288.7 422.5 289.2 422.2 289.3C421.9 289.4 421.7 289.5 421.6 289.8C421.5 289.9 421.5 290 421.5 290.2V290.3V290.4C419.9 289.7 416.9 288.2 414.4 285.9C414.1 285.7 413.9 285.4 413.6 285.2C413.1 284.7 412.6 284.2 412.2 283.6C411.6 282.8 411 281.8 410.6 280.8L407.6 273.6C407.5 273.3 407.3 273.2 407 273.1C406.9 273.1 406.8 273.1 406.7 273.1C406.6 273.1 403.9 273.6 402.7 275.7C402.5 276 402.4 276.3 402.3 276.6C402.1 277.1 402.1 277.6 402.1 278.2C402.1 278.4 402.1 278.6 402.2 278.8C402.3 279.2 402.4 279.6 402.5 280C402.9 281.1 403.3 282.2 403.6 283.1C403.7 283.5 403.9 283.8 404 284.2C404.1 284.6 404.2 284.9 404.4 285.2C404.7 286.1 404.9 287 404.9 287.8C404.9 288.6 404.6 289.4 404.1 290.2C404 290.3 403.9 290.5 403.8 290.6C403.7 290.5 403.6 290.4 403.5 290.3C403.3 290.1 403 289.9 402.7 289.7C401.9 289.2 400.7 288.8 399.2 288.8C399 288.8 398.7 288.8 398.5 288.8C395.1 289.1 392.5 291.1 392.3 293.6V293.7V293.8C392.2 294.6 392.2 295.6 392.5 296.7C392.7 297.3 393 298 393.5 298.6C393.4 298.9 393.3 299.3 393.3 299.9C393.3 300.5 393.3 301.1 393.5 301.8C393.6 302 393.6 302.3 393.8 302.5C394 302.7 394 303 394.2 303.2C394.7 304.1 395.5 304.8 396.6 305.3C396.6 305.6 396.7 305.8 396.8 306.1C397.1 307.1 397.6 307.9 398.1 308.5C398.5 309 399 309.4 399.5 309.8C400.8 310.7 402.3 311.1 403.3 311.2L420.4 312.3L420.2 315.8C420.2 316.3 420.5 316.7 421 316.8C421.1 316.8 421.2 316.8 421.4 316.8C421.6 316.8 421.9 316.9 422.2 316.9C422.4 316.9 422.5 316.9 422.7 317C423.3 317.1 424 317.1 424.8 317.2C424.8 317.3 424.6 319.1 424.3 322C424.2 322.6 424.2 323.4 424.1 324.1C424.1 324.4 424 324.7 424 325H425.7C426.1 320.7 426.4 317.8 426.4 317.4C427.3 317.5 428.3 317.5 429.4 317.6C432 317.8 435.2 317.9 438.6 318C440.7 318.1 442.8 318.1 445.1 318.1C448.8 318.1 452.8 318 456.7 317.7C459.1 317.5 461.5 317.3 463.8 317L463.6 325H465.2L465.4 316.8C473 315.8 480.2 314 485.8 311.1C504.3 301.4 489.4 250.7 482.2 226.3C481.2 222.8 480.3 219.8 479.7 217.6C475.4 201.3 445.1 192.4 441.4 191.3C441 189.1 440.2 183.6 440 178.7C440.4 179.2 440.8 179.5 441.4 179.6C443.6 179.8 444.2 175 444.3 173.1C446.9 172.9 450 171.6 452.5 167.6C455.3 163.1 454.5 159.1 453.4 156.8C455.8 153.2 457.2 146.5 457.2 146.5C460.1 132.3 450 129 450 129C444.7 112.7 427.1 114 419.7 114.1C412.3 114.2 408.2 112.5 405.3 111.7C402.4 110.9 403.7 114.3 403.7 114.3C403.7 114.3 406.7 114.6 403.6 115.6C400.5 116.6 389.4 120.8 390.6 129.3C391.5 135.9 395 139 396.6 140.1C396.3 141.8 396.1 143.5 396 145L388.9 144.3C388.4 144.3 388 144.6 388 145L387.3 152.1C387.3 152.3 386.6 156.2 388.7 158.9C389.8 160.4 391.4 161.2 393.5 161.5C393.9 161.6 394.4 161.6 394.8 161.6C394.6 164.2 393.8 176.8 400.7 181C401 181.2 401.4 181.4 401.8 181.6C403 182.2 404.4 182.8 405.9 183.3C407.2 183.7 408.6 184.1 410 184.3C410 185.5 409.9 188.5 409.2 191.3C409.1 191.4 409.1 191.4 409.1 191.5C409.1 191.5 409 191.8 408.9 192.2C383.4 199.6 378.5 206.7 370.4 231.2C370.3 231.4 366.3 244 364.3 254.2C361.5 250.2 357.1 244.9 350.5 237.7C336.7 222.5 331.9 216.5 331.9 216.5L331.2 215.6L330.4 216.4C330.3 216.5 329.4 217.4 328 218.8C328.2 219.3 328.4 219.5 328.4 219.6C328.6 220 328.5 220.4 328.3 220.7L318.2 232C318 232.2 317.7 232.3 317.5 232.3C317.4 232.3 317.3 232.3 317.2 232.2L316.4 231.9L316.3 232L311.9 238.2L312.2 238.8C313.6 241.2 346.6 295.6 366 295.6C366.5 295.6 367 295.5 367.6 295.5C366.7 301.8 365.9 307.5 365.4 311.5C365.3 312.3 365.2 313 365.1 313.8C364.7 317.5 364.2 321.2 363.8 324.7H365.7C365.8 321 366.3 316.8 366.8 312.3ZM473.2 288C474.3 288.8 474.8 289.8 474.6 290.3C474.5 290.7 474.1 290.7 473.8 290.7C472.5 290.7 470.3 289.4 467.7 286C470 286.4 471.9 287 473.2 288ZM420.2 310.8L403.1 309.7C403.1 309.7 402.4 309.6 401.5 309.3C400.9 309.1 400.2 308.7 399.5 308.1C399.4 308 399.2 307.9 399.1 307.7C398.7 307.3 398.4 306.8 398.2 306.2C398.5 306.3 398.9 306.4 399.3 306.5C400 306.7 400.8 306.8 401.7 306.9C402.1 307 402.6 307 403 307C403.1 307 403.2 307 403.3 307C403.8 307 404.1 306.7 404.2 306.2C404.2 305.9 404 305.5 403.7 305.4C403.6 305.4 403.5 305.3 403.4 305.3C402.9 305.3 402.4 305.2 401.9 305.2C400 305 398.4 304.6 397.2 304C396.6 303.7 396.1 303.3 395.7 302.9C395.5 302.7 395.3 302.5 395.2 302.3C394.6 301.4 394.6 300.5 394.6 299.8C394.8 299.9 395 300 395.2 300.2C396.3 300.8 397.7 301.2 399.5 301.4C399.8 301.5 400.2 301.5 400.6 301.5C401 301.5 401.4 301.6 401.8 301.6C402.4 301.6 403 301.7 403.6 301.7C403.7 301.7 403.8 301.7 403.9 301.6C404.2 301.5 404.4 301.2 404.4 300.9C404.4 300.7 404.3 300.6 404.3 300.5C404.2 300.4 404.1 300.2 403.9 300.2C403.8 300.2 403.7 300.1 403.6 300.1C402.5 300.1 401.5 300 400.6 299.9C398.6 299.7 397.1 299.3 395.9 298.7C395.3 298.4 394.9 298.1 394.5 297.7C393.7 296.8 393.5 295.8 393.6 294.8C393.6 294.5 393.6 294.2 393.6 293.9V293.7C393.6 293.2 393.8 292.8 394.1 292.4C394.4 292 394.8 291.6 395.2 291.3C395.7 291 396.2 290.8 396.8 290.6C397.4 290.4 398.1 290.3 398.8 290.3C399.2 290.3 399.6 290.3 399.9 290.4C400.1 290.4 400.3 290.5 400.5 290.6C400.8 290.7 401.1 290.9 401.4 291C401.6 291.1 401.8 291.3 402 291.4C401.2 291.7 400.3 292 399.4 292.1C399.1 292.1 398.8 292.2 398.5 292.2C397.9 292.3 397.4 292.3 396.9 292.3C396.7 292.3 396.4 292.3 396.2 292.3C396 292.3 395.8 292.3 395.6 292.3C395.2 292.3 394.9 292.5 394.8 292.8C394.8 292.9 394.7 293 394.7 293C394.7 293.1 394.7 293.2 394.7 293.3C394.7 293.4 394.8 293.5 394.9 293.6C395 293.8 395.2 293.9 395.5 293.9C395.5 293.9 395.5 293.9 395.6 293.9C395.7 293.9 395.9 293.9 396.1 293.9C396.3 293.9 396.6 293.9 396.9 293.9C397.1 293.9 397.2 293.9 397.4 293.9C397.9 293.9 398.5 293.8 399.2 293.7C399.4 293.7 399.6 293.6 399.8 293.6C401.1 293.4 402.5 293 403.6 292.3C403.6 292.3 403.6 292.3 403.7 292.2C404.1 291.9 404.4 291.6 404.7 291.3C404.8 291.2 404.9 291.1 405 290.9C405.4 290.4 405.6 289.8 405.8 289.3C406 288.8 406.1 288.3 406.1 287.8C406.2 286.1 405.5 284.4 404.7 282.4C404.3 281.5 404 280.5 403.6 279.4C403.5 279.1 403.4 278.8 403.4 278.6C403.3 278.1 403.3 277.6 403.5 277.1C403.6 276.9 403.7 276.7 403.8 276.5C404.4 275.6 405.4 275.1 406.1 274.9L408.8 281.4C409 281.8 409.1 282.2 409.3 282.6C409.9 283.7 410.6 284.8 411.5 285.7C412 286.3 412.6 286.9 413.2 287.4C415.3 289.2 417.6 290.6 419.3 291.4C419.5 291.5 419.8 291.6 420 291.7C420.4 291.9 420.8 292.1 421.1 292.2L420.2 310.8ZM438.5 182.7C438.9 187.1 439.6 191.1 439.8 192.3C439.8 192.4 439.8 192.5 439.8 192.6C439 199.7 431.7 205.3 422.8 205.7C419.6 205.8 416.9 205.2 414.6 204.3C413 203.5 411.8 202.5 411 201.2C409.2 198.2 409.8 194.5 410.1 193C411.1 189.9 411.3 186.4 411.3 184.8C411.7 184.8 412 184.9 412.4 184.9C418.7 185.5 426.1 184.5 433.2 181C435.3 180 436.9 178.1 438.1 176.3C438.1 176.6 438.1 177 438.1 177.4C438.2 179.1 438.4 180.9 438.5 182.7ZM451.1 166.8C449 170.2 446.5 171.3 444.4 171.5C442.1 171.8 440.4 171 440.2 170.9C440 170.8 439.8 170.8 439.6 170.9C439.4 171 439.2 171.2 439.1 171.4C439.1 171.4 439 171.8 438.7 172.3C438.6 172.4 438.6 172.5 438.6 172.6C437.7 174.5 435.6 178.1 432.6 179.6C420.6 185.6 408 183.9 401.4 179.9C395.4 176.2 396.1 164.4 396.3 162C399.1 162.2 401 162.2 402.1 162.1C402.2 162.5 402.3 162.9 402.5 163.3C403.3 164.9 404.9 165.4 406.1 165.6C407 165.7 407.8 165.5 407.8 165.5C408.2 165.4 408.5 165 408.4 164.5C408.3 164.1 407.9 163.8 407.4 163.9C407.3 163.9 404.8 164.4 403.9 162.6C403.7 162.2 403.6 161.9 403.6 161.5C403.7 161.4 403.7 161.2 403.7 161.1C403.9 160.1 404.9 159.2 406.3 158.1C408.1 156.7 409.4 153.6 409.4 153.5C409.6 153.1 409.4 152.6 409 152.4C408.6 152.2 408.1 152.4 407.9 152.8C407.9 152.8 407.4 153.9 406.8 155L407.5 147.9L412.1 148.3C412 149.5 411.5 153.6 411.9 156.3C412.8 162.9 415.1 165.7 420.7 166.2C421.8 166.3 423.1 166.3 424.5 166.3C435.3 165.8 437 150.6 437.1 149.9C437.1 149.7 437.1 149.5 436.9 149.3C436.8 149.1 436.6 149 436.3 149L397.6 145.2C397.7 141.1 399.2 135.5 400.3 131.8C401.3 130.1 402.3 129 403 129.6C404.9 131.1 406.2 133.2 414 134.2C421.8 135.2 429.7 129.9 429.7 129.9C430.7 140.7 439.7 141.8 439.7 141.8C439 146.6 438.9 152.1 440.6 153.3C442.3 154.5 441 156.6 441 156.6C441 156.6 437 163.3 439.1 165.6C441.2 167.9 442.8 161.1 445.2 157.8C446.6 155.8 449.4 155.9 451.3 156.2L451.4 156.3C452.3 158.1 454 162 451.1 166.8ZM413.7 148.5L435.2 150.6C434.7 153.7 432.4 164.3 424.3 164.7C416 165.1 414.3 162.5 413.4 156.1C413.1 153.5 413.6 149.6 413.7 148.5ZM393.5 160C391.9 159.8 390.6 159.2 389.8 158.1C388.2 155.9 388.7 152.5 388.7 152.4L389.3 146L396.4 146.7H396.5L405.7 147.6L404.8 156.7C404.8 156.8 404.8 156.8 404.8 156.9C403.8 157.7 402.5 158.9 402 160.3C401 160.4 398.8 160.4 395.1 160.1C394.7 160.2 394.2 160.1 393.5 160ZM365 259.7C366.8 262.8 367 264.3 366.7 265C366.5 265.4 365.9 265.7 365.1 265.7C364.4 265.2 364.5 262.9 365 259.7Z" fill="#213362"/>
<path d="M366.6 265C366.9 264.3 366.8 262.9 364.9 259.7C364.4 262.9 364.4 265.1 364.9 265.7C365.9 265.7 366.5 265.4 366.6 265Z" fill="#666FB3"/>
<path d="M403.301 205.4C403.401 205.1 403.501 204.7 403.701 204.2C404.101 202.8 404.601 201.4 405.001 200.1C405.001 200.1 405.001 200.1 405.001 200.2C405.601 198.4 406.301 196.5 407.001 195C384.101 202 379.401 209.1 371.801 232.1C369.901 238 366.801 249 365.401 256.8C368.901 262.1 369.001 264.4 368.401 265.8C368.001 266.6 367.101 267.6 364.901 267.7C364.201 267.7 363.701 267.4 363.301 266.9C362.301 265.6 362.501 261.8 363.301 257.2C360.701 253.3 356.101 247.6 348.501 239.3C337.601 227.3 332.301 221 330.501 218.8C328.101 221.3 320.701 228.9 317.401 233.5L313.801 238.6C317.501 244.6 350.501 297.2 367.301 293.8C367.301 293.8 374.801 245.3 374.801 245.2C376.701 235.1 378.601 226.7 380.501 221.4C380.701 220.9 381.201 220.7 381.701 220.8C382.201 221 382.401 221.5 382.301 222C378.901 232 375.101 253 371.801 275.6L371.401 278.2C369.901 288.6 366.901 312.4 366.801 312.3C366.201 316.7 365.701 321 365.301 325.1H381.801C387.601 282.8 395.101 232.8 403.301 205.4Z" fill="#666FB3"/>
<path d="M413.401 173.2C412.201 173.8 408.301 171.5 408.301 171.5C408.801 174.7 412.501 174.7 412.701 174.7C416.501 174.7 416.501 171.5 416.501 171.5C416.501 171.5 414.501 172.6 413.401 173.2Z" fill="#213362"/>
<path d="M296.301 212.9C295.501 213.6 294.301 215 295.501 217.4C296.101 218.5 296.701 219.1 297.501 219.2C298.301 219.3 299.201 218.7 299.601 218.2C299.301 218 299.001 217.7 298.701 217.4C297.501 216.1 296.601 214.5 296.301 212.9Z" fill="#CBDEF4"/>
<path d="M325.901 220.1C323.801 216.2 313.001 195.9 311.001 191.5C310.701 190.9 310.501 190.3 310.201 189.8C309.401 187.9 308.501 186 308.001 185.8C307.901 185.8 307.701 185.8 307.401 186C305.701 187.1 305.601 189.4 307.201 193C309.001 197.1 311.301 203.6 311.401 203.8C311.601 204.3 311.401 204.8 310.901 205C310.501 205.2 309.901 205.1 309.601 204.7C309.401 204.5 305.401 199.4 299.301 201.2C294.801 202.5 292.601 203.4 291.601 203.8C291.801 204.5 292.101 205.5 292.801 205.9C293.301 206.2 293.901 206.3 294.801 206C298.601 204.8 299.601 204.1 299.601 204.1C299.801 204 300.001 203.9 300.301 203.9C300.501 203.9 304.101 204.2 306.401 206.2C306.801 206.5 306.901 207 306.601 207.4C306.401 207.8 305.901 208 305.501 207.9C305.401 207.9 300.001 206.7 298.401 209.7C297.401 211.7 298.601 214.4 299.901 215.8C300.701 216.6 301.301 216.8 301.401 216.7C302.501 216 302.001 213.3 301.501 212.1C301.401 211.8 301.401 211.5 301.601 211.2C301.801 210.9 302.001 210.8 302.401 210.7L304.101 210.6C304.401 210.6 304.701 210.7 304.901 210.9C304.801 210 305.001 209.2 305.501 208.6C305.801 208.2 306.701 207.6 308.201 208C310.101 208.5 311.701 208.9 313.201 209.4C315.101 209.9 316.801 210.4 319.001 210.9C319.501 211 319.901 211.6 319.801 212.1C319.701 212.6 319.101 213 318.601 212.9C316.301 212.4 314.501 211.9 312.701 211.3C311.201 210.9 309.601 210.4 307.801 210C307.301 209.9 307.101 210 307.101 210C307.001 210.1 306.901 210.5 307.101 211.1C307.501 212.3 308.801 213.8 310.701 214.1C314.501 214.8 317.101 217.5 319.501 219.9L319.801 220.2C320.201 220.6 320.201 221.2 319.801 221.6C319.601 221.8 319.401 221.9 319.101 221.9C318.801 221.9 318.601 221.8 318.401 221.6L318.101 221.3C315.901 219 313.601 216.7 310.401 216.1C307.801 215.6 306.001 213.7 305.301 211.9C305.201 212.3 304.901 212.6 304.401 212.6H303.901C304.301 214.2 304.501 217 302.601 218.3C302.501 218.3 302.501 218.3 302.401 218.4C302.801 218.9 303.201 219.5 303.701 220.2C305.701 223 308.901 227.6 312.001 228.7L316.701 230.3L325.901 220.1Z" fill="#CBDEF4"/>
<path d="M300.2 206.2C300.4 206.1 300.6 206.1 300.7 206.1C300.6 206.1 300.5 206.1 300.5 206.1C300.5 206 300.4 206.1 300.2 206.2Z" fill="#CBDEF4"/>
<path d="M317 232.6C317.3 232.6 317.6 232.5 317.7 232.3L327.8 221C328.1 220.7 328.1 220.2 327.9 219.9C327.9 219.9 327.7 219.6 327.5 219.1C325.3 215 314.6 195 312.7 190.7C312.4 190.1 312.2 189.5 311.9 189C310.6 186.1 309.9 184.3 308.4 183.9C307.7 183.7 307 183.8 306.2 184.3C304.3 185.5 302.7 188.1 305.2 193.8C306.1 195.9 307.2 198.6 308 200.8C305.8 199.4 302.6 198.2 298.6 199.4C291.7 201.4 289.9 202.4 289.9 202.4C289.6 202.6 289.4 203 289.4 203.4C289.4 203.7 289.7 206.4 291.6 207.7C292.3 208.2 293.5 208.6 295.3 208.1C296.7 207.7 297.7 207.3 298.5 207C298 207.3 297.5 207.7 297.1 208.3C297 208.4 297 208.5 296.9 208.6C296.8 208.7 296.8 208.8 296.7 208.9C296.7 208.9 296.7 209 296.6 209L295.7 210.8C295.1 211.2 293.7 212.2 293.1 213.9C292.6 215.3 292.8 216.7 293.5 218.3C294.6 220.6 296.1 221.1 297.1 221.2C298.5 221.3 299.8 220.5 300.6 219.8C301 220.3 301.5 221 302 221.7C304.2 224.9 307.6 229.6 311.2 230.9L315.7 232.5L316.5 232.8C316.8 232.6 316.9 232.6 317 232.6ZM297.4 219.1C296.7 219.1 296 218.4 295.4 217.3C294.2 215 295.4 213.5 296.2 212.8C296.5 214.5 297.4 216.1 298.5 217.2C298.8 217.5 299.1 217.8 299.4 218C299.1 218.6 298.3 219.2 297.4 219.1ZM303.8 220.4C303.3 219.6 302.8 219 302.5 218.6C302.6 218.6 302.6 218.6 302.7 218.5C304.6 217.2 304.3 214.4 304 212.8H304.5C304.9 212.8 305.3 212.5 305.4 212.1C306 213.9 307.8 215.8 310.5 216.3C313.7 216.9 316 219.2 318.2 221.5L318.5 221.8C318.7 222 319 222.1 319.2 222.1C319.5 222.1 319.7 222 319.9 221.8C320.3 221.4 320.3 220.8 319.9 220.4L319.6 220.1C317.3 217.7 314.6 215 310.8 214.3C308.9 214 307.6 212.5 307.2 211.3C307 210.7 307.1 210.3 307.2 210.2C307.2 210.1 307.5 210.1 307.9 210.2C309.7 210.6 311.3 211.1 312.8 211.5C314.6 212 316.5 212.6 318.7 213.1C319.2 213.2 319.8 212.9 319.9 212.3C320 211.8 319.7 211.2 319.1 211.1C316.9 210.6 315.1 210.1 313.3 209.6C311.8 209.2 310.2 208.7 308.3 208.2C306.8 207.8 306 208.4 305.6 208.8C305.1 209.4 304.9 210.2 305 211.1C304.8 210.9 304.5 210.8 304.2 210.8L302.5 210.9C302.2 210.9 301.9 211.1 301.7 211.4C301.5 211.7 301.5 212 301.6 212.3C302 213.5 302.5 216.2 301.5 216.9C301.4 217 300.8 216.8 300 216C298.7 214.6 297.5 211.9 298.5 209.9C300.1 206.9 305.5 208.1 305.6 208.1C306.1 208.2 306.5 208 306.7 207.6C306.9 207.2 306.8 206.7 306.5 206.4C304.1 204.4 300.5 204.1 300.4 204.1C300.2 204.1 299.9 204.2 299.7 204.3C299.7 204.3 298.7 205 294.9 206.2C294.1 206.5 293.4 206.4 292.9 206.1C292.2 205.6 291.9 204.7 291.7 204C292.7 203.6 294.9 202.7 299.4 201.4C305.5 199.6 309.5 204.7 309.7 204.9C310 205.3 310.5 205.4 311 205.2C311.4 205 311.6 204.5 311.5 204C311.4 203.7 309.2 197.3 307.3 193.2C305.7 189.6 305.8 187.3 307.5 186.2C307.8 186 308 186 308.1 186C308.7 186.2 309.5 188.1 310.3 190C310.5 190.5 310.8 191.1 311.1 191.7C313.1 196.1 323.9 216.4 326 220.3L316.8 230.6L312.1 229C309 227.8 305.8 223.2 303.8 220.4ZM300.2 206.2C300.3 206.1 300.4 206.1 300.5 206C300.6 206 300.6 206 300.7 206C300.6 206.1 300.4 206.1 300.2 206.2Z" fill="#213362"/>
</svg>
