<?xml version="1.0" encoding="utf-8"?>
<!-- Generator: Adobe Illustrator 23.0.2, SVG Export Plug-In . SVG Version: 6.00 Build 0)  -->
<svg version="1.1" id="Camada_1" xmlns="http://www.w3.org/2000/svg" xmlns:xlink="http://www.w3.org/1999/xlink" x="0px" y="0px"
	 viewBox="0 0 694.1 363.6" style="enable-background:new 0 0 694.1 363.6;" xml:space="preserve">
<style type="text/css">
	.st0{fill:#E0E0E0;}
	.st1{fill:#1C4E8B;}
	.st2{fill:#5182E5;}
	.st3{opacity:0.4;}
	.st4{fill:#1550AF;}
	.st5{fill:#B78876;}
	.st6{fill:#AA6550;}
	.st7{fill:#263238;}
	.st8{fill:#455A64;}
	.st9{fill:#FAFAFA;}
	.st10{fill:#16895D;}
	.st11{opacity:0.2;}
	.st12{fill:#FFBE9D;}
	.st13{fill:#EB996E;}
	.st14{fill:#F5F5F5;}
	.st15{fill:#184793;}
</style>
<title>contact-illustration</title>
<path class="st0" d="M607,175.1c0.3,0.3,0.5,0.6,0.8,1l1.9,2.9c1.6,2.4,3.8,5.8,6.2,9.6s4.5,7.2,6.1,9.7l1.8,3
	c0.2,0.4,0.4,0.7,0.6,1.1c-0.3-0.3-0.5-0.6-0.8-1l-1.9-2.9c-1.6-2.4-3.8-5.8-6.2-9.6s-4.5-7.2-6.1-9.7l-1.8-3
	C607.4,175.9,607.2,175.5,607,175.1z"/>
<path class="st0" d="M86.9,140.6c0.2-0.2,0.3-0.4,0.4-0.7l1-2c0.9-1.8,2-4.4,3.5-7.6c2.8-6.5,6.5-15.5,10.5-25.5s7.5-19.1,10.3-25.6
	l3.3-7.7l0.9-2.1c0.1-0.2,0.2-0.5,0.3-0.8c-0.2,0.2-0.3,0.4-0.4,0.7l-1,2c-0.9,1.8-2.1,4.4-3.5,7.6c-2.9,6.4-6.5,15.5-10.5,25.5
	s-7.5,19.1-10.3,25.5l-3.3,7.7l-0.9,2.1C87,140,87,140.3,86.9,140.6z"/>
<path class="st1" d="M478.2,4.3h126.1l-24.7,17.5v14.6c-0.1,15.1-12.4,27.2-27.5,27.1h-79.1c-15.1,0.1-27.4-12-27.5-27.1l0,0
	C445.7,18.6,460.3,4.2,478.2,4.3C478.2,4.3,478.2,4.3,478.2,4.3z"/>
<path class="st0" d="M558.4,23.9c0,0.1-21,0.3-47,0.3s-47-0.1-47-0.3s21-0.3,47-0.3S558.4,23.7,558.4,23.9z"/>
<path class="st0" d="M558.4,33.6c0,0.2-21,0.3-47,0.3s-47-0.1-47-0.3s21-0.3,47-0.3S558.4,33.5,558.4,33.6z"/>
<path class="st2" d="M287,304.4H137.8l24.3,17.5v34.5c0,4,3.2,7.2,7.2,7.2H287c4,0,7.2-3.2,7.2-7.2v-44.8
	C294.2,307.6,291,304.4,287,304.4z"/>
<path class="st0" d="M280.8,328.7c0,0.1-22.5,0.3-50.3,0.3s-50.3-0.1-50.3-0.3s22.5-0.3,50.3-0.3S280.8,328.6,280.8,328.7z"/>
<path class="st0" d="M280.8,342c0,0.1-22.5,0.3-50.3,0.3s-50.3-0.1-50.3-0.3s22.5-0.3,50.3-0.3S280.8,341.8,280.8,342z"/>
<g id="Character_2">
	<path class="st2" d="M417,134.3h174.6c21.4,0,38.8,17.4,38.8,38.8v142.1c0,21.4-17.4,38.8-38.8,38.8H417
		c-21.4,0-38.8-17.4-38.8-38.8V173.1C378.2,151.7,395.5,134.3,417,134.3z"/>
	<g class="st3">
		<path d="M417,134.3h174.6c21.4,0,38.8,17.4,38.8,38.8v142.1c0,21.4-17.4,38.8-38.8,38.8H417c-21.4,0-38.8-17.4-38.8-38.8V173.1
			C378.2,151.7,395.5,134.3,417,134.3z"/>
	</g>
	<polygon class="st4" points="630.3,210.9 668,210.9 629.4,249.5 	"/>
	<polygon class="st1" points="630.3,210.9 668,210.9 629.4,249.5 	"/>
	<path class="st5" d="M372.1,234.7l-15.8-18c-4.3-4.3-5.8-6.3-4.9-7.1c1.1-1,0.6-0.7,9.5,6c0,0-12.6-9.6-8.2-9.7
		c0.8,0,2.9,1.2,5.2,2.7c-3.1-2.6-4-4.4-3.4-5.3c1-1.5,8.7,3.9,12.3,6.4c-2.9-2.2-8.4-6.4-9.4-7.7c-1.3-1.8,1.4-1.6,3.6-0.9
		c2.5,0.9,16.1,7.8,20.2,9.6c1.2,0.7,2.8,0.3,3.6-0.9c0.1-0.1,0.1-0.2,0.2-0.4c1.5-6.3,6-10.3,7.7-10.9s3,1.7,1.8,3.3
		c-1.2,1.8-2,3.8-2.7,5.9c-0.6,1.6-0.8,3.4-0.8,5.1c0,2,0.1,3.7,0.3,5.2l14.5,19.9l-24.2,14L372.1,234.7z"/>
	<path class="st6" d="M366.5,218.4c-0.2,0.2-3-1.7-6.3-4.3s-5.8-4.9-5.6-5.1s3,1.7,6.3,4.3S366.6,218.1,366.5,218.4z"/>
	<path class="st6" d="M369.5,215.2c-0.2,0.2-3.3-1.7-7-4.2s-6.5-4.8-6.4-5s3.3,1.7,7,4.2S369.7,215,369.5,215.2z"/>
	<path class="st6" d="M371.8,211.9c-0.2,0.2-3.1-1.5-6.6-3.9s-6.2-4.5-6.1-4.7s3.1,1.5,6.6,3.9S371.9,211.6,371.8,211.9z"/>
	<path class="st5" d="M392.6,221l57.7,73.1l-13.2,30.8c0,0-15.8-3.5-20.6-10.2s-44.3-80-44.3-80L392.6,221z"/>
	<path class="st7" d="M539,118.6c4.2,3.6,4.1,9.9,3.7,15.4s-0.8,11.7,2.9,15.7c3.1,3.3,8.8,4.7,9.5,9.2c0.5,2.8-1.4,5.5-4.2,5.9
		c-1.5,0.3-3.1-0.2-4.3-1.3c1.2,3.5,0.4,7.9-2.7,10.1s-8.2,0.8-9.1-2.8c0.6,2.4-0.8,4.9-3.3,5.5s-4.9-0.8-5.5-3.3
		c-0.1-0.2-0.1-0.4-0.1-0.6"/>
	<path class="st7" d="M479.6,155.5c-1,2.8-4.1,4.3-7,3.3s-4.3-4.1-3.3-7c0.1-0.2,0.1-0.4,0.2-0.5c1-2.1,3.2-3.6,3.4-5.9
		c0.3-2.8-2.5-4.7-5-5.9s-5.4-2.8-5.7-5.5s2.1-4.7,4.1-6.5s4-4.5,2.7-6.9c-0.6-1.2-1.9-1.9-2.8-3c-1.9-2.4-0.9-6.2,1.5-8
		s5.7-2.1,8.7-1.6s5.8,1.8,8.7,2.6c9.7,2.8,20.2,1.5,28.9-3.8"/>
	<path class="st5" d="M497.3,220c10.8,2.2,21.3-4.7,23.6-15.4l14.2-65.1c3.7-15.5-6-31.1-21.5-34.7c-0.3-0.1-0.5-0.1-0.8-0.2
		l-1.5-0.2c-15-2.2-29.2,7.5-32.5,22.3c-3.2,13.7-6.5,29-7.5,36.4c-2.1,15.5,13,20.1,13,20.1l-2.7,13c-2.3,10.9,4.7,21.5,15.6,23.8
		C497.2,220,497.2,220,497.3,220z"/>
	<path class="st7" d="M481.5,136.9c-0.2,1.2,0.6,2.3,1.8,2.5c1.1,0.3,2.3-0.5,2.5-1.6c0,0,0,0,0,0c0.2-1.2-0.6-2.3-1.8-2.5
		C483,135,481.8,135.7,481.5,136.9C481.6,136.9,481.6,136.9,481.5,136.9z"/>
	<path class="st7" d="M481,134.7c0.2,0.3,2.1-0.7,4.5-0.3s3.9,1.8,4.2,1.5c0.1-0.1-0.1-0.7-0.7-1.3c-0.9-0.9-2.1-1.4-3.4-1.6
		c-1.2-0.2-2.5,0-3.6,0.6C481.2,134.1,480.9,134.6,481,134.7z"/>
	<path class="st7" d="M504.7,140.7c-0.2,1.2,0.6,2.3,1.8,2.5c1.1,0.3,2.3-0.5,2.5-1.6c0,0,0,0,0,0c0.2-1.2-0.6-2.3-1.8-2.5
		C506.2,138.8,505,139.5,504.7,140.7C504.7,140.7,504.7,140.7,504.7,140.7z"/>
	<path class="st7" d="M504.2,138.6c0.2,0.3,2.1-0.7,4.5-0.3s3.9,1.8,4.2,1.5c0.1-0.1-0.1-0.7-0.7-1.3c-0.9-0.9-2.1-1.4-3.3-1.6
		c-1.2-0.2-2.5,0-3.6,0.6C504.4,138,504.1,138.4,504.2,138.6z"/>
	<path class="st7" d="M493,154.9c-1.2-0.6-2.5-1-3.8-1.3c-0.6-0.1-1.1-0.4-1.2-0.8c0-0.6,0.3-1.2,0.7-1.7c0.8-1.4,1.6-2.8,2.5-4.4
		c3.5-6.2,6-11.3,5.8-11.5s-3.3,4.8-6.7,11l-2.4,4.4c-0.5,0.7-0.7,1.5-0.7,2.3c0.1,0.4,0.4,0.8,0.9,1c0.3,0.1,0.7,0.2,1,0.3
		C490.4,154.7,491.7,154.9,493,154.9z"/>
	<path class="st7" d="M505,129.2c0.1,0.7,2.6,0.7,5.3,1.5s4.9,1.8,5.3,1.3c0.2-0.3-0.1-0.9-0.9-1.7c-2.2-1.9-5.2-2.7-8.1-2.1
		C505.5,128.4,504.9,128.9,505,129.2z"/>
	<path class="st7" d="M482.9,128c0.3,0.6,2,0.3,4,0.6s3.6,0.9,4,0.4c0.2-0.3,0-0.8-0.6-1.4c-0.9-0.8-2-1.3-3.1-1.4
		c-1.2-0.2-2.3,0.1-3.4,0.6C483,127.2,482.7,127.7,482.9,128z"/>
	<path class="st7" d="M520.8,120.2L520.8,120.2c2.2,2.4,3.5,5.4,3.4,8.6v0.3c0,4.5-0.8,8.9-0.8,13.4s0.9,9.2,3.7,12.7
		c1.2,1.4,3.4,2.6,4.7,1.3c0.5-0.6,0.8-1.2,0.8-1.9c2.4-10.5,6.7-19.5,8.3-30.6c0.5-3-0.6-6.1-2.8-8.2c-2.1-2-4.7-4.2-7.4-3.3
		s-6.8,5.2-9.1,7"/>
	<path class="st5" d="M528.8,145.8c0.3-0.1,11.1-1.6,9.2,8.9s-12,6.4-12,6.1S528.8,145.8,528.8,145.8z"/>
	<path class="st6" d="M529.9,157.4c0,0,0.2,0.2,0.4,0.4c0.4,0.3,0.9,0.4,1.4,0.3c1.2-0.2,2.4-1.8,2.8-3.7c0.2-0.9,0.2-1.8,0-2.7
		c-0.1-0.7-0.5-1.3-1.2-1.7c-0.4-0.2-0.9,0-1.2,0.3c-0.2,0.3-0.2,0.5-0.2,0.5s-0.2-0.2,0-0.6c0.1-0.2,0.3-0.5,0.5-0.6
		c0.3-0.2,0.7-0.2,1.1-0.1c0.9,0.3,1.5,1.1,1.6,2c0.3,1,0.3,2,0.1,3c-0.5,2.1-1.9,3.9-3.5,4.1c-0.6,0.1-1.2-0.1-1.6-0.6
		C529.9,157.7,529.9,157.4,529.9,157.4z"/>
	<path class="st7" d="M530.8,114.2c3.2-3.8-3-11-8-13.3s-12.2-0.9-17.6,0.1c-3.4,0.6-6.9,1.6-10.3,1c-2.3-0.6-4.4-1.5-6.4-2.7
		c-2-1.2-4.2-2-6.6-2.3c-2.3-0.2-4.9,0.7-6.1,2.7s-0.4,5.1,1.9,5.8c-2.3-1.7-5.6-1.3-7.3,1c-1.7,2.3-1.3,5.6,1,7.3
		c1,0.8,2.3,1.1,3.5,1.1c-1.3-1.3-3.9,0.2-4,2.1s1.4,3.5,3,4.5c4.1,2.6,9.3,2.7,14.1,1.8s9.4-2.6,14.1-3.6s12.8-2.8,17-0.6
		c3.2,1.7,4.9,6,6.9,5.4c1.9-0.7,3.4-2.3,4-4.3C530.6,118.3,530.8,116.3,530.8,114.2"/>
	<path class="st8" d="M551.4,163c0.2,0,0.4-0.1,0.5-0.2c0.5-0.3,0.9-0.8,1.1-1.3c0.4-0.8,0.5-1.8,0.3-2.7c-0.3-1.2-0.9-2.3-1.9-3.1
		c-1.1-0.9-2.4-1.7-3.8-2.2c-1.5-0.6-3-1.3-4.4-2.1c-1.5-1-2.6-2.5-3.2-4.2c-0.7-1.8-1-3.7-0.9-5.7c0.1-4,1.2-7.8,1.5-11.3
		s-0.2-6.8-1.7-9.1c-1.1-1.8-2.9-3.2-5-3.8c-0.6-0.1-1.1-0.2-1.7-0.2c-0.2,0-0.4,0-0.6,0.1c0.8,0,1.5,0.1,2.3,0.3
		c2,0.6,3.7,2,4.7,3.8c1.4,2.2,1.9,5.4,1.5,8.9c-0.3,3.4-1.4,7.2-1.5,11.3c-0.1,2,0.3,4,1,5.9c0.7,1.8,1.9,3.3,3.4,4.4
		c1.4,0.9,3,1.6,4.5,2.1c1.3,0.5,2.6,1.2,3.7,2.1c0.9,0.7,1.6,1.7,1.8,2.9c0.2,0.9,0.1,1.8-0.2,2.6
		C552.6,162.1,552.1,162.6,551.4,163z"/>
	<path class="st8" d="M477.4,105.2c-0.1-0.1-0.3-0.2-0.5-0.2c-0.2-0.1-0.4-0.2-0.6-0.2c-0.3-0.1-0.6-0.2-0.9-0.2
		c-1.9-0.3-3.9,0.3-5.3,1.6l0,0c-1.4,1.8-2.1,4-1.9,6.3c0.3,2.8,1.7,5.4,3.9,7.1c2.5,2,5.5,3.2,8.7,3.5c3.5,0.3,7,0.1,10.4-0.6
		c5.4-1.1,10.6-3.1,15.3-5.9c2-1.3,4.1-2.3,6.3-3.3c1.9-0.8,3.9-1.2,6-1.2c3-0.1,6,0.6,8.6,2c1,0.5,1.9,1.1,2.8,1.8
		c-0.8-0.8-1.7-1.4-2.7-1.9c-2.7-1.5-5.7-2.3-8.7-2.2c-2.1,0-4.2,0.4-6.2,1.2c-2.2,0.9-4.3,2-6.4,3.3c-4.7,2.8-9.8,4.8-15.2,5.8
		c-3.4,0.7-6.8,0.9-10.2,0.7c-3.1-0.3-6.1-1.4-8.5-3.4c-2.1-1.7-3.5-4.1-3.8-6.8c-0.2-2.1,0.4-4.3,1.7-6l0,0
		c1.4-1.3,3.2-1.9,5.1-1.7C476.1,104.7,476.7,104.9,477.4,105.2z"/>
	<path class="st8" d="M483.2,96.4c0,0.8,0.1,1.6,0.4,2.4c0.8,2.1,2.2,3.8,4.1,5c1.3,0.8,2.7,1.4,4.2,1.7c1.7,0.3,3.5,0.4,5.2,0.3
		c3.7-0.3,7.5-1.5,11.5-2.6s8.1-1.6,11.5-0.7c3.1,0.8,5.8,2.6,7.8,5.1c1.4,1.7,2.4,3.6,3,5.6c0.4,1.5,0.5,2.3,0.5,2.3
		c0-0.2,0-0.4,0-0.6c-0.1-0.6-0.2-1.2-0.3-1.8c-0.5-2.1-1.5-4.1-2.9-5.8c-2-2.6-4.8-4.5-8-5.3c-3.6-1-7.7-0.4-11.8,0.6
		s-7.9,2.3-11.5,2.6c-1.7,0.2-3.4,0.1-5.1-0.2c-1.4-0.3-2.8-0.8-4.1-1.6c-1.9-1.1-3.3-2.8-4.1-4.7C483.5,98,483.3,97.2,483.2,96.4z"
		/>
	<path class="st6" d="M488.3,162.8c0.1,1,0.4,2,0.8,3c0.4,1,1.2,1.7,2.3,2c1.1,0.2,2.2-0.1,3-0.9c0.8-0.8,1.3-1.8,1.4-2.9
		c0.2-1,0-2.3-1-2.6c-0.4-0.1-0.8-0.1-1.2,0l-5.5,1"/>
	<path class="st7" d="M489.3,167c0.9,0.4,1.8,0.5,2.8,0.5c1-0.1,1.9-0.5,2.6-1.2c0.8-0.9,1.2-2,1.1-3.2c0-0.3-0.1-0.6-0.2-0.9
		c-0.1-0.3-0.1-0.2-0.3-0.3s-0.6,0-0.9,0.1l-0.9,0.1c-1.2,0.1-2.3,0.1-3.2,0.2c-1,0.2-2,0.2-3,0c0.9-0.4,1.9-0.6,2.9-0.6
		c0.9-0.1,2-0.3,3.2-0.4l0.9-0.1c0.3,0,0.7-0.1,1-0.1c0.3,0,0.5,0.1,0.7,0.3c0.2,0.2,0.3,0.4,0.4,0.6c0.6,1.8,0.2,3.7-1.2,5.1
		c-0.9,0.8-2,1.3-3.2,1.2c-0.8,0-1.5-0.2-2.2-0.6C489.4,167.3,489.3,167,489.3,167z"/>
	<path class="st6" d="M484.3,183.2c0,0,10.1,3.8,19.9,1.1c0,0-7.4,6.2-20.9,3.8L484.3,183.2z"/>
	<path class="st9" d="M499.7,326.6c-0.5-0.3-0.9-0.7-1.4-1c-0.4-0.4-1-0.8-1.6-1.2s-1.4-1-2.2-1.6s-1.7-1.1-2.8-1.7
		s-2.1-1.2-3.3-1.8c-5.1-2.5-10.6-4.2-16.3-4.9c-1.3-0.1-2.5-0.3-3.7-0.3s-2.3-0.1-3.3-0.1s-1.9,0.1-2.7,0.1s-1.5,0.1-2,0.2
		c-0.6,0.1-1.2,0.1-1.7,0.1c0.6-0.2,1.1-0.3,1.7-0.3c0.7-0.1,1.3-0.2,2-0.2c0.8-0.1,1.7-0.2,2.7-0.2s2.1-0.1,3.3,0s2.4,0.2,3.8,0.3
		c5.7,0.7,11.3,2.3,16.5,4.9c1.2,0.6,2.3,1.2,3.3,1.8s1.9,1.2,2.8,1.8s1.5,1.1,2.2,1.6s1.1,0.9,1.6,1.3
		C498.9,325.8,499.3,326.2,499.7,326.6z"/>
	<path class="st10" d="M440.9,275.2l8.2-35.5c3.1-13.4,6.9-26.2,13.1-27.7v4.1l-2.7,101.5c0,0-16.7,19-38,8.5
		c-6.7-3.3-18.8-26.5-18.8-26.5s-28.2-50.4-27.1-52.7s18.5-24.6,20.2-25.7L440.9,275.2z"/>
	<path class="st10" d="M525.3,202c16.3,3.1,34.7,12.6,43.1,37c3.1,8.9,25.5,74.5,25.5,74.5l-38.3-0.8l-6.2-13.5l3,21.9l2.6,31.3
		l-96.6,1.6l0.7-47.2L460,213c0,0,1.1-1.4,17.8-10.6C488.1,196.7,525.3,202,525.3,202z"/>
	<g class="st11">
		<path d="M535,264.7c1.6,19.8,3.4,25.9,5,45.7c0,1.9,0.4,3.7,1,5.5c0.7,1.8,2.2,3.1,4,3.6c2.8,0.6,6.5,2.6,7.3-0.1l-2.7-19.1
			c-0.6-2.8-1.5-5.5-2.6-8C541,279.1,538.8,278.3,535,264.7"/>
	</g>
	<path class="st10" d="M477.8,212.6l0.3-2.1l3.1-19.8c0.2-1.2,1.3-2,2.5-1.9l38.1,3.2c2.4,0.2,4.2,2.3,4,4.7l-0.8,11.5L513,223.7
		l-17.1,2.7"/>
	<path class="st7" d="M458.7,249.7c0.1,0,0.3,15.5,0.3,34.6s-0.1,34.6-0.3,34.6s-0.3-15.5-0.3-34.6S458.5,249.7,458.7,249.7z"/>
	<path class="st7" d="M556.5,315.8c0-0.1-0.1-0.1-0.1-0.2c-0.1-0.2-0.2-0.4-0.3-0.7l-1.2-2.6l-4.2-9.7l-13.6-32.1l-7.4-17.7
		c-1.2-2.6-2-5.2-2.5-8c-0.4-2.4-0.6-4.9-0.7-7.3c-0.1-3.6,0.4-7.1,1.5-10.5l0.3-0.8c0.1-0.2,0.2-0.5,0.3-0.7
		c0.2-0.4,0.4-0.7,0.6-1.1l0.4-0.6l0.2-0.2c-0.7,1.1-1.2,2.3-1.7,3.5c-1,3.4-1.5,6.9-1.3,10.4c0,5.2,1.1,10.4,3.2,15.1l7.5,17.7
		l13.4,32.1c1.7,4.1,3,7.4,4,9.8l1.1,2.7l0.3,0.7C556.4,315.7,556.4,315.7,556.5,315.8z"/>
	<path class="st9" d="M537.2,205.4c-0.3,0.4-0.7,0.7-1.1,1c-1.1,0.9-2.3,1.6-3.7,2.1c-2.1,0.9-4.2,1.5-6.4,1.8
		c-2.9,0.5-5.9,0.7-8.8,0.9c-3.3,0.1-6.9,0.1-10.7,0.2c-4.1,0-8.1,0.5-12.1,1.5c-4.4,1-8.3,3.4-11.4,6.7c-1.5,1.8-2.6,3.9-3.2,6.2
		c-0.6,2.4-0.6,4.8,0.1,7.2c0.4,1.1,0.9,2.2,1.7,3.2c0.7,0.9,1.6,1.7,2.7,2.3c1,0.6,2.2,0.8,3.3,0.7c1.1-0.1,2.2-0.7,2.9-1.5
		c1.4-1.8,1.9-4.1,1.5-6.3c-0.2-1.1-0.5-2.1-1-3.1c-0.5-1-1.1-1.9-1.8-2.7c-2.7-3.1-6.3-5.2-10.3-6.1c-3.5-0.8-7.1-0.8-10.5,0.1
		c-2.8,0.7-5.5,1.9-8,3.4c-1.9,1.2-3.7,2.5-5.3,3.9c-1.4,1.2-2.3,2.2-3,2.9l-0.7,0.8l-0.3,0.3c1.2-1.5,2.5-2.9,3.9-4.1
		c1.6-1.5,3.4-2.9,5.3-4.1c2.5-1.6,5.2-2.8,8.1-3.6c3.5-0.9,7.2-1,10.7-0.2c4.1,0.9,7.8,3,10.5,6.2c0.7,0.9,1.3,1.8,1.8,2.8
		c0.5,1,0.8,2.1,1,3.3c0.2,1.2,0.2,2.3-0.1,3.5c-0.2,1.2-0.7,2.3-1.5,3.2c-0.8,0.9-2,1.5-3.3,1.7c-1.3,0.1-2.5-0.2-3.6-0.8
		c-1.1-0.6-2.1-1.4-2.9-2.4c-0.8-1-1.4-2.2-1.8-3.4c-0.7-2.4-0.8-5-0.1-7.4c0.6-2.4,1.7-4.6,3.3-6.4c3.1-3.4,7.2-5.8,11.6-6.8
		c4-1,8.1-1.5,12.2-1.4c3.9-0.1,7.4,0,10.7-0.1c2.9-0.1,5.9-0.4,8.8-0.8c2.2-0.3,4.3-0.9,6.4-1.7c1.3-0.5,2.5-1.2,3.7-2
		c0.4-0.3,0.7-0.5,0.9-0.7C537,205.6,537.1,205.5,537.2,205.4z"/>
	<path class="st9" d="M570.2,247c-0.1,0-0.3,0.1-0.4,0.1c-0.3,0-0.7,0.1-1.2,0.1c-1.5,0-3,0-4.5-0.1c-1.9-0.1-4.2-0.4-6.7-0.8
		s-5.2-0.7-8.1-0.9c-2.7-0.1-5.4,0.1-8.1,0.6c-2.2,0.5-4.2,1.3-6.1,2.4c-1.7,1.1-3.3,2.4-4.6,4c0.1-0.1,0.1-0.3,0.2-0.4
		c0.2-0.4,0.5-0.7,0.7-1c1-1.2,2.1-2.2,3.4-3c1.9-1.2,4-2,6.3-2.5c2.7-0.6,5.5-0.8,8.2-0.7c2.9,0.2,5.7,0.6,8.2,0.9s4.7,0.7,6.6,0.9
		s3.4,0.3,4.5,0.3C569.2,246.9,569.7,246.9,570.2,247z"/>
	<path class="st9" d="M546.2,291.9c-1.9-0.4-3.8-0.6-5.7-0.5c-2.3,0.2-4.5,0.6-6.7,1.2c-2.5,0.7-5.4,1.7-8.6,2.7
		c-3.5,1.2-7.1,1.8-10.8,1.9c-4.2,0-8.4-0.9-12.3-2.5c-4.3-1.8-8.1-4.6-11.2-8.1c-1.7-1.8-3-3.9-4-6.2c-1.1-2.4-1.5-4.9-1.1-7.5
		c0.4-2.6,1.6-5,3.5-6.7c1-0.8,2.1-1.4,3.4-1.7c1.2-0.3,2.5-0.2,3.7,0.1c1.2,0.3,2.3,0.9,3.2,1.8c0.9,0.8,1.5,1.9,1.8,3.1
		c0.3,1.2,0.2,2.4-0.3,3.5c-0.4,1.1-1.1,2-1.9,2.9c-1.6,1.6-3.4,2.7-5.5,3.5c-1,0.4-2,0.7-3,0.8c-0.5,0.1-1,0.2-1.5,0.3l-1.5,0.2
		c-3.7,0.4-7.3,0.1-10.9-0.8c-2.9-0.7-5.8-1.8-8.4-3.2c-2-1.1-3.9-2.4-5.6-3.9l-1-0.9l-0.8-0.8c-0.4-0.4-0.9-0.9-1.2-1.3
		c-0.3-0.4-0.5-0.6-0.7-0.9s-0.2-0.3-0.2-0.3l0.3,0.3c0.2,0.2,0.4,0.5,0.8,0.8c0.4,0.5,0.8,0.9,1.3,1.3l0.8,0.8l1,0.9
		c1.7,1.5,3.6,2.7,5.6,3.8c2.6,1.4,5.5,2.5,8.4,3.1c3.5,0.8,7.2,1.1,10.8,0.7l1.5-0.2c0.5-0.1,1-0.2,1.5-0.3c1-0.2,2-0.4,2.9-0.8
		c2-0.7,3.8-1.9,5.3-3.4c0.8-0.8,1.4-1.7,1.8-2.7c0.4-1,0.5-2.2,0.2-3.2c-0.6-2.2-2.4-4-4.7-4.5c-1.1-0.3-2.3-0.4-3.5-0.1
		c-1.2,0.3-2.2,0.8-3.1,1.6c-1.9,1.6-3,3.9-3.4,6.4c-0.3,2.5,0.1,5,1.1,7.2c1,2.2,2.3,4.3,3.9,6.1c3,3.5,6.8,6.2,11,8
		c3.8,1.7,7.9,2.5,12.1,2.6c3.6,0,7.2-0.6,10.7-1.8c3.2-1,6-2,8.6-2.6c2.2-0.6,4.5-1,6.7-1.1c0.8,0,1.7,0,2.5,0
		c0.7,0.1,1.3,0.2,1.8,0.3l1.1,0.3C545.9,291.7,546.1,291.8,546.2,291.9z"/>
	<path class="st9" d="M458.3,281.2c-0.1,0-0.5-1.1-1.5-2.7c-2.5-4.3-6.2-7.7-10.7-10c-1.7-0.9-2.8-1.2-2.8-1.3s0.3,0,0.8,0.2
		c0.7,0.2,1.4,0.5,2.1,0.8c4.6,2.1,8.4,5.6,10.8,10.1c0.4,0.7,0.7,1.4,1,2.1C458.2,280.7,458.3,280.9,458.3,281.2z"/>
	<path class="st9" d="M419.5,324c-0.1-0.1-0.1-0.2-0.1-0.3L419,323c-0.4-0.7-0.9-1.6-1.5-2.9c-1.9-3.6-3.4-7.4-4.6-11.3
		c-0.8-2.7-1.3-5.5-1.4-8.3c-0.1-1.6,0-3.1,0.2-4.7c0.2-1.6,0.6-3.3,1.2-4.9c1.2-3.4,3.2-6.5,5.9-8.9c2.9-2.7,6.8-4,10.7-3.7
		c2,0.1,3.9,1.1,5.3,2.5c1.3,1.5,1.9,3.5,1.5,5.5c-0.2,0.9-0.7,1.8-1.4,2.5c-0.7,0.6-1.5,1.1-2.4,1.3c-1.8,0.5-3.6,0.2-5.2-0.6
		c-1.5-0.8-2.8-1.9-3.8-3.3c-1-1.2-1.8-2.6-2.4-4.1c-1.1-2.6-1.5-5.5-1.3-8.3c0.2-2.3,0.9-4.6,2-6.6c0.8-1.6,1.9-3,3.1-4.2
		c0.8-0.8,1.6-1.5,2.6-2.1c0.2-0.2,0.5-0.3,0.7-0.5c0.1-0.1,0.2-0.1,0.3-0.1c0,0-0.3,0.2-0.9,0.7c-0.9,0.6-1.7,1.4-2.5,2.1
		c-1.2,1.2-2.2,2.7-3,4.2c-1.1,2-1.7,4.3-1.9,6.5c-0.2,2.8,0.3,5.5,1.4,8.1c0.6,1.4,1.4,2.7,2.4,3.9c1,1.3,2.2,2.3,3.7,3.1
		c1.5,0.8,3.2,1,4.9,0.6c1.7-0.4,3.1-1.7,3.5-3.4c0.3-1.8-0.2-3.6-1.4-5c-1.3-1.4-3-2.2-4.9-2.4c-3.8-0.3-7.6,1-10.4,3.6
		c-2.6,2.4-4.6,5.3-5.8,8.7c-0.5,1.5-0.9,3.1-1.2,4.8c-0.2,1.5-0.3,3.1-0.2,4.6c0.1,2.8,0.6,5.5,1.4,8.2c1.2,3.9,2.6,7.6,4.4,11.3
		c0.6,1.3,1.1,2.3,1.4,3l0.4,0.8C419.5,323.8,419.5,323.9,419.5,324z"/>
	<path class="st9" d="M407.2,235.7c0.1,0.1,0.1,0.3,0.1,0.4c0.1,0.4,0.1,0.8,0.1,1.2c0.1,1.5,0.1,3,0,4.5c-0.8,10.1-7,19-16.1,23.4
		c-1.3,0.7-2.8,1.2-4.2,1.6c-0.5,0.1-0.9,0.2-1.2,0.3c-0.1,0-0.3,0.1-0.4,0.1c0.5-0.2,1-0.4,1.5-0.6c11-3.6,18.8-13.4,20-24.9
		c0.2-1.5,0.2-3,0.2-4.4C407.2,236.8,407.2,236.3,407.2,235.7z"/>
	<path class="st9" d="M579,279.1c-1.5,0.9-2.8,2.1-3.9,3.5c-1,1.3-2,3-3.1,4.8c-1.2,2-2.7,3.9-4.3,5.6c-2.9,3.2-6.4,5.8-10.2,7.7
		c-1.2,0.6-2.4,1.1-3.6,1.5c-0.4,0.2-0.9,0.3-1.4,0.4c0.4-0.2,0.9-0.4,1.3-0.6c0.8-0.4,2.1-0.9,3.5-1.7c3.7-2,7.1-4.6,10-7.7
		c1.6-1.7,3-3.6,4.3-5.5c1-1.6,2.1-3.2,3.3-4.8c0.8-1,1.8-1.9,2.9-2.7c0.3-0.2,0.6-0.4,0.9-0.5C578.9,279.1,579,279.1,579,279.1z"/>
	<path class="st7" d="M525,203.1c-0.1,0-0.3,0.1-0.5,0.1l-1.3,0.2c-1.2,0.2-2.8,0.4-4.9,0.7c-4.2,0.6-9.9,1.2-16.3,1.7
		c-3,0.3-6,0.4-9,0.3c-2.5-0.1-4.9-0.5-7.3-1.2c-1.6-0.5-3.1-1.3-4.5-2.3c-0.4-0.3-0.7-0.6-1.1-0.9c-0.1-0.1-0.2-0.2-0.3-0.3
		c0,0,0.5,0.4,1.5,1c1.4,0.9,2.9,1.6,4.5,2.1c2.3,0.7,4.8,1.1,7.2,1.1c3,0,6-0.1,9-0.4c6.4-0.5,12.1-1.1,16.3-1.5l4.9-0.6
		C523.8,203.2,524.4,203.1,525,203.1z"/>
	<path class="st5" d="M593.4,320.5c2.8,14.6-6.7,28.7-21.3,31.5c-1.6,0.3-3.2,0.5-4.8,0.5l-75.8-0.8l2-24.5l64.9-9.7"/>
	<path class="st5" d="M498.3,328.2c-0.4,0.1-4.7-1.9-8.6-3.7c-4.2-1.9-8.7-2.8-13.3-2.6l-18,0.9c0,0,1.1,3,3,4s13.1,1.3,13.1,1.3
		l-0.6,0.6c-2.4,2.4-5.6,3.8-9,3.9h-1.7c-1.3-0.1-2.5-0.3-3.8-0.7l-4.5-1.8c-1.4-0.6-2.8-0.5-3.4,0.8s-0.1,2.9,3.5,4.8
		c2,1,9.7,3.7,9.7,3.7c0.1,1.1,0.2,2.2,0.5,3.2c0.3,1.1,3.3,2.2,3.3,2.2c0.8,1.6,1.7,3.2,2.7,4.8c0.4,0.4,3.1,1.2,6,2
		c4.7,1.3,9.6,1.3,14.2-0.1l6.9-2v-21"/>
	<path class="st6" d="M473.6,341.9c-1.6,0-3.2-0.2-4.7-0.7c-1.6-0.3-3-0.9-4.4-1.7c0-0.1,2,0.6,4.5,1.3S473.6,341.8,473.6,341.9z"/>
	<path class="st6" d="M472.9,346.1c-1.7,0.2-3.4-0.3-4.8-1.3c0.8,0.2,1.6,0.4,2.4,0.7C471.3,345.7,472.1,345.9,472.9,346.1z"/>
	<path class="st6" d="M476.2,326.6c-0.4,0.6-0.9,1.1-1.4,1.5c-1.2,1.1-2.5,2.1-3.9,3c-1.4,0.8-3,1.4-4.6,1.8c-0.7,0.2-1.3,0.3-2,0.2
		c2.2-0.5,4.4-1.3,6.4-2.4c1.4-0.8,2.7-1.8,4-2.8C475.1,327.4,475.7,327,476.2,326.6z"/>
	<path class="st10" d="M500.1,324.9l-1.8,27.7h71.3c4.8,0,9.6-1.3,13.8-3.8l0,0c9.6-5.8,14.6-17,12.4-28c-1-5.3-2.6-10.4-4.6-15.4
		l-35.9,5.9l1.2,4.5L500.1,324.9z"/>
	<path class="st7" d="M573,313.5c-0.2,0.1-0.5,0.1-0.7,0.2l-2.1,0.4l-7.7,1.3l-25.4,4l-25.4,3.9l-7.7,1.1l-2.1,0.3
		c-0.2,0-0.5,0.1-0.7,0.1c0.2-0.1,0.5-0.1,0.7-0.2l2.1-0.4l7.7-1.3l25.4-4l25.4-3.9l7.7-1.1l2.1-0.3
		C572.5,313.5,572.8,313.5,573,313.5z"/>
	<path class="st9" d="M536.5,352.7c-0.1,0,0.4-2,0.5-5.3c0-0.9,0-1.8-0.1-2.7c-0.1-1-0.2-2-0.4-3c-0.5-2.3-1.3-4.5-2.3-6.6
		c-1.1-2.1-2.4-4-3.9-5.8c-0.4-0.4-0.7-0.8-1-1.2c-0.3-0.4-0.7-0.7-1-1c-0.7-0.7-1.4-1.2-2-1.8c-2.5-2-4.4-3-4.3-3.1
		c0.4,0.2,0.9,0.4,1.3,0.6c0.5,0.3,1,0.6,1.4,0.9c0.5,0.4,1.2,0.8,1.8,1.3c0.7,0.5,1.4,1.1,2.1,1.7c0.3,0.3,0.7,0.7,1.1,1l1.1,1.2
		c1.6,1.8,2.9,3.8,4,5.9c1.1,2.1,1.8,4.4,2.3,6.7c0.2,1,0.3,2,0.4,3.1c0.1,0.9,0.1,1.8,0,2.7c0,0.7-0.1,1.5-0.2,2.2
		c-0.1,0.6-0.2,1.1-0.3,1.6C536.8,351.8,536.7,352.3,536.5,352.7z"/>
	<path class="st9" d="M579.9,350.6c-1.1,0-2.2-0.1-3.3-0.4c-1.3-0.3-2.5-0.7-3.7-1.3c-1.6-0.8-3-1.8-4.2-3.1
		c-1.5-1.6-2.5-3.4-3.1-5.5c-0.3-1.1-0.5-2.3-0.5-3.5c-0.1-1.3,0-2.5,0.3-3.7c0.3-1.3,0.8-2.5,1.5-3.7c0.7-1.2,1.8-2.2,3-2.9
		c1.3-0.7,2.7-1.1,4.2-1c1.5,0.1,2.9,0.8,3.9,2c1,1.2,1.5,2.7,1.3,4.2c-0.3,1.5-1.2,2.8-2.5,3.5c-2.4,1.3-5.2,1.6-7.9,1.1
		c-7.8-1.2-13.7-7.8-13.9-15.8c-0.1-1.1,0-2.2,0.3-3.3c-0.1,1.1-0.1,2.2-0.1,3.3c0.2,3,1.2,5.9,2.8,8.4c2.5,3.7,6.5,6.3,10.9,7
		c2.6,0.5,5.2,0.2,7.5-1c1.2-0.7,2-1.8,2.2-3.1c0.1-1.4-0.3-2.8-1.2-3.8c-0.9-1.1-2.2-1.7-3.6-1.8c-1.4-0.1-2.7,0.2-3.9,0.9
		c-2.2,1.3-3.8,3.6-4.3,6.2c-0.3,1.2-0.4,2.4-0.3,3.6c0,1.1,0.2,2.3,0.5,3.4c0.5,2,1.5,3.8,2.9,5.4c1.1,1.3,2.5,2.3,4,3.1
		c1.1,0.6,2.4,1,3.6,1.4C578.7,350.5,579.9,350.5,579.9,350.6z"/>
</g>
<g id="Character_1">
	<path class="st2" d="M296.9,48.4H118.2c-21.7,0-39.4,17.6-39.4,39.4v63.7H40.3L78.8,190v43.3c0,21.7,17.6,39.4,39.4,39.4h178.7
		c21.7,0,39.4-17.6,39.4-39.4c0,0,0,0,0,0V87.8C336.3,66,318.6,48.4,296.9,48.4L296.9,48.4z"/>
	<path class="st7" d="M223.9,55.1c-1.1,2.9,0.8,6.1,3,8.4s4.8,4.4,5.5,7.5c0.6,2.6-0.4,5.2-0.1,7.9s1.7,5.1,2.5,7.7
		c1.5,4.6,0.9,9.7-0.4,14.4c-1,3.9-2.8,7.5-5.4,10.6c-2.6,3.1-6.4,4.9-10.5,5c-1.1,0.1-2.3-0.3-3.1-1.1c-0.6-0.8-0.9-1.8-0.9-2.8
		c-2.3-20.1-2.3-40.5,0-60.6"/>
	<path class="st7" d="M221.8,120c8.7-0.4,16.7,7.9,16.1,16.6c8.8,2.1,15,11.8,13.3,20.7c-0.6,2.9-1.9,5.7-2.1,8.7
		c-0.2,3.3,1,6.4,1.6,9.6c1.1,5.8,0.5,11.9-1.7,17.4c-1.4,3.3-3.9,6.7-7.5,6.8c-2.5-0.1-4.7-1.4-6-3.5c-1.2-2.1-2.1-4.4-2.4-6.8
		c-1.6-7.8-2-15.8-4.2-23.5s-6.3-15.2-13.3-19.1c-3.8-2.2-8.4-3.2-11.5-6.4c-3.1-3.5-4-8.5-2.3-12.9c1.8-4.3,5.4-7.6,9.8-9.2"/>
	<path class="st7" d="M161.6,62.3c-0.1-3.7,3.3-6.6,6.8-8s7.3-1.9,10.4-4c2.7-1.8,4.6-4.7,6.9-7c8.9-9,23.4-9.1,32.4-0.2
		c3,2.9,5.1,6.7,6.1,10.7c1.3,5.3,0.4,11.6-3.8,15.1c-4.8,4.1-12,3.2-18.2,1.9s-13.2-2.5-18.4,1.2c-3.1,2.2-4.9,5.8-6.8,9.1
		s-4.3,6.6-7.9,7.9s-8.5-0.9-8.7-4.7"/>
	<path class="st12" d="M176.2,63.1c-3.2,0.4-5.6,3.1-5.6,6.3l0,0l3.7,84c0.2,9.9,14.7,15.5,25.3,15.3l0,0
		c10.7-0.3,11.1-5.5,11.2-14.9c0.2-15.8,0.2-21.7,0.2-21.6s13.6-2.3,16.3-20c1.4-8.8,0.9-23.2,0.1-35c-0.7-10.6-7.8-23.6-18.3-22.5
		L176.2,63.1z"/>
	<path class="st7" d="M224.5,88.2c0,1.2-1,2.2-2.2,2.3c-1.2,0.1-2.2-0.8-2.3-2c0,0,0,0,0,0c0-1.2,1-2.2,2.2-2.3
		C223.3,86.1,224.4,87,224.5,88.2C224.5,88.2,224.5,88.2,224.5,88.2z"/>
	<path class="st7" d="M224.4,84.6c-0.3,0.3-2-1-4.4-1s-4.2,1.2-4.5,0.9c-0.1-0.1,0.2-0.7,0.9-1.2c1.1-0.7,2.3-1.1,3.6-1.1
		c1.3,0,2.5,0.4,3.5,1.1C224.3,84,224.6,84.5,224.4,84.6z"/>
	<path class="st7" d="M201,88.2c0,1.2-1,2.2-2.2,2.3c-1.2,0.1-2.2-0.8-2.3-2c0,0,0,0,0,0c0-1.2,1-2.2,2.2-2.3
		C199.9,86.1,200.9,87,201,88.2C201,88.2,201,88.2,201,88.2z"/>
	<path class="st7" d="M200.4,85.1c-0.3,0.3-2-1-4.4-1s-4.2,1.2-4.5,0.9c-0.1-0.1,0.1-0.7,0.9-1.2c1.1-0.7,2.3-1.1,3.6-1.1
		c1.3,0,2.5,0.4,3.5,1.1C200.3,84.5,200.6,85,200.4,85.1z"/>
	<path class="st7" d="M209.3,103.2c0-0.1,1.5-0.4,4-0.7c0.6-0.1,1.2-0.2,1.3-0.6c0-0.6-0.1-1.3-0.4-1.8l-1.9-4.8
		c-2.6-6.8-4.4-12.3-4.2-12.4s2.6,5.3,5.1,12l1.8,4.8c0.4,0.8,0.5,1.6,0.3,2.4c-0.2,0.4-0.5,0.8-1,0.9c-0.3,0.1-0.7,0.1-1.1,0.2
		C210.9,103.3,209.3,103.3,209.3,103.2z"/>
	<path class="st13" d="M211.1,132.1c-8.3,0.1-16.5-2-23.7-6.3c0,0,5.8,12.1,23.5,10.5L211.1,132.1z"/>
	<path class="st13" d="M208.3,109.1c-0.9-1.2-2.4-1.8-3.9-1.6c-1.1,0.1-2.1,0.6-2.8,1.5c-0.7,0.8-0.7,2-0.2,2.9
		c0.8,0.9,2.1,1.2,3.2,0.8c1.1-0.4,2.2-1.1,3.1-1.9c0.3-0.2,0.5-0.4,0.7-0.7c0.2-0.3,0.2-0.6,0-0.9"/>
	<path class="st7" d="M202.1,104.9c0.4,0,0.4,2.6,2.7,4.5s5.1,1.6,5.1,1.9c0,0.2-0.6,0.5-1.8,0.6c-1.6,0-3.1-0.5-4.3-1.5
		c-1.2-0.9-1.9-2.3-2.1-3.8C201.7,105.6,202,104.9,202.1,104.9z"/>
	<path class="st7" d="M201.5,80.9c-0.2,0.7-2.7,0.3-5.5,0.7s-5.2,1.1-5.6,0.6c-0.2-0.3,0.2-0.9,1.2-1.6c2.5-1.6,5.6-2,8.5-1
		C201.1,80,201.6,80.5,201.5,80.9z"/>
	<path class="st7" d="M223.5,77.6c-0.4,0.6-2.1,0-4.1,0s-3.7,0.4-4.1-0.2c-0.2-0.3,0.1-0.8,0.8-1.4c2.1-1.3,4.7-1.2,6.6,0.2
		C223.5,76.7,223.7,77.3,223.5,77.6z"/>
	<path class="st7" d="M163.9,121.3c8.5,1.7,16.8-3.8,18.5-12.3c0.3-1.7,0.4-3.4,0.2-5.1c-0.6-4.3-2.9-8.8-1.4-12.9
		c2-5.4,9.6-7.1,11.6-12.5c1.2-3.2,0.1-6.8,1.4-9.9c1.3-2.9,4.3-4.6,7.3-5.7s6.2-1.8,8.7-3.8s4.1-5.6,2.4-8.3
		c-13.2,1.6-26.2,4.7-38.6,9.4c-2.9,1.1-5.9,2.4-7.6,4.9c-1.8,2.7-1.7,6.2-1.6,9.5C165.6,90.5,163.1,105.4,163.9,121.3"/>
	<path class="st8" d="M159.7,116.3c-0.1,0-0.2,0-0.3-0.1c-0.3-0.1-0.6-0.2-0.8-0.4c-1-0.6-1.7-1.5-2.2-2.6c-0.8-1.7-1-3.6-0.6-5.4
		c0.6-2.3,1.7-4.5,3.2-6.4c1.6-2.2,3.5-4.3,4.9-7.1c0.7-1.4,1.1-3,1.1-4.6c-0.1-1.7-0.4-3.3-1-4.9c-0.7-1.7-1-3.5-1-5.3
		c0.2-4,2.4-7.6,5.8-9.7c1.8-1,3.8-1.5,5.8-1.7c2-0.1,3.9-0.4,5.8-1c1.8-0.7,3.2-2,4.1-3.7c0.8-1.7,1.5-3.4,1.9-5.2
		c0.5-1.7,1.2-3.4,2-5c1.5-3,3.7-5.6,6.5-7.5c2.5-1.6,5.4-2.3,8.4-2.2c2.4,0.1,4.8,1.1,6.6,2.7c1.4,1.2,2.4,2.8,3,4.5
		c0.4,1.1,0.5,2.3,0.4,3.4c0,0.4-0.1,0.8-0.2,1.2c0,0,0.1-0.4,0.1-1.2c0-1.1-0.1-2.3-0.5-3.3c-0.6-1.7-1.6-3.2-3-4.4
		c-1.8-1.6-4.1-2.5-6.4-2.6c-2.9-0.1-5.7,0.6-8.1,2.1c-2.8,1.8-5,4.3-6.4,7.3c-0.8,1.6-1.5,3.3-1.9,5c-0.5,1.8-1.2,3.6-2,5.3
		c-0.5,0.9-1,1.7-1.8,2.4c-0.7,0.7-1.6,1.2-2.6,1.6c-2,0.6-4,0.9-6,1c-2,0.1-3.9,0.6-5.6,1.6c-3.3,2-5.3,5.4-5.5,9.2
		c0,1.8,0.4,3.5,1,5.2c0.6,1.6,1,3.3,1,5.1c-0.1,1.7-0.5,3.3-1.2,4.7c-1.4,2.9-3.4,5-5,7.2c-1.5,1.8-2.6,4-3.2,6.3
		c-0.4,1.7-0.2,3.6,0.5,5.2c0.4,1,1.2,1.9,2.1,2.6C159.3,116.1,159.7,116.2,159.7,116.3z"/>
	<path class="st8" d="M211.1,39.2c0.2,0,0.5,0.1,0.7,0.2c0.6,0.3,1.2,0.6,1.7,1c3.6,2.8,4.4,8,1.8,11.7c-0.4,0.5-0.8,1-1.3,1.5
		c-0.2,0.2-0.4,0.3-0.6,0.4c-0.1-0.1,0.8-0.7,1.6-2.1c2.3-3.6,1.6-8.4-1.7-11.2C212.5,40.1,211.8,39.6,211.1,39.2z"/>
	<path class="st8" d="M250.2,160.5c0.2-0.6,0.4-1.2,0.5-1.9c0.2-1.7-0.1-3.5-0.9-5.1c-1.2-2.3-3.2-4.1-5.6-5.2
		c-1.4-0.7-2.9-1.2-4.4-1.5c-1.6-0.4-3.2-0.7-4.9-1.3c-1.7-0.5-3.2-1.3-4.5-2.4c-1.1-1.2-1.9-2.6-2.1-4.3c-0.3-1.5-0.4-2.9-0.7-4.2
		c-0.3-1.2-0.8-2.3-1.6-3.2c-1.1-1.4-2.6-2.4-4.3-2.9c-0.6-0.2-1.3-0.3-1.9-0.4c0.2,0,0.3,0,0.5,0c0.5,0,1,0.1,1.4,0.2
		c1.8,0.5,3.3,1.5,4.5,2.9c0.8,1,1.4,2.1,1.8,3.3c0.4,1.3,0.5,2.7,0.7,4.2c0.2,1.5,0.9,2.9,2,4c1.2,1.1,2.7,1.9,4.3,2.3
		c1.6,0.5,3.3,0.9,4.8,1.3c1.5,0.4,3,0.9,4.4,1.6c2.5,1.1,4.5,3.1,5.7,5.5c0.8,1.6,1.1,3.5,0.7,5.3c-0.1,0.5-0.2,1-0.4,1.4
		C250.4,160.3,250.3,160.4,250.2,160.5z"/>
	<path class="st7" d="M173.3,129.2c-9-2.4-16.7-11.2-19.8-19.9s-3.1-18.3-2.3-27.5c0.6-6.7,1.8-13.8,6.2-18.8
		c6.7-7.6,14-11.5,24.1-11.2"/>
	<path class="st14" d="M225.6,148.7l-8.4-2.1c1.9-1.3,2.6-3.7,1.7-5.8c-1.1-2.6-3.5-4.5-6.4-4.7l-38.1-4.3c-1.4-0.2-2.7,0.6-3.2,1.9
		c-1.7,4.3-1.7,7.8-0.2,10.6h-0.2l-7.3,1.5l-12.4,109.7l81.5-3.8L225.6,148.7z"/>
	<path class="st7" d="M213.6,147c-0.5,0.1-1,0.2-1.5,0.3c-1,0.2-2.4,0.3-4.2,0.5c-9.3,0.9-18.7,0.4-27.9-1.4
		c-1.8-0.3-3.2-0.7-4.1-0.9c-0.5-0.1-1-0.3-1.5-0.4c0.5,0,1,0.1,1.5,0.3c1,0.2,2.4,0.5,4.2,0.8c9.2,1.6,18.5,2,27.8,1.4
		c1.8-0.1,3.2-0.2,4.2-0.3C212.6,147,213.1,147,213.6,147z"/>
	<path class="st0" d="M176.8,164.5c0.8-1.7,1.8-3.3,2.9-4.7c1-1.6,2.1-3.1,3.3-4.4c-0.8,1.7-1.8,3.3-2.9,4.7
		C179.1,161.6,178,163.1,176.8,164.5z"/>
	<path class="st0" d="M203.1,166.3c-1.3-1.2-2.5-2.6-3.6-4.1c-1.2-1.4-2.3-2.9-3.2-4.4c1.3,1.2,2.5,2.6,3.6,4.1
		C201.1,163.3,202.1,164.8,203.1,166.3z"/>
	<path class="st0" d="M190.9,180.3c-0.6-1.8-1-3.6-1.2-5.5c-0.4-1.8-0.7-3.7-0.7-5.6c0.6,1.8,1,3.6,1.2,5.5
		C190.6,176.5,190.8,178.4,190.9,180.3z"/>
	<path class="st0" d="M210.9,181.1c-1.4,1.8-3,3.4-4.6,4.9c-1.6,1.6-3.2,3.2-5,4.6c1.4-1.8,3-3.4,4.6-4.9
		C207.5,184,209.1,182.5,210.9,181.1z"/>
	<path class="st0" d="M184,199.8c-1.9-1-3.6-2.4-5-4c-1.5-1.5-2.8-3.3-3.7-5.2c0.1-0.1,1.7,2.3,4.1,4.9S184.1,199.7,184,199.8z"/>
	<path class="st0" d="M192.7,214.3c0.1,0.1-2.3,0.9-4.9,2.3s-4.6,2.9-4.7,2.8c1.3-1.4,2.8-2.5,4.4-3.2
		C189.1,215.2,190.8,214.5,192.7,214.3z"/>
	<path class="st0" d="M206.7,215.2c-0.6-0.5-1.1-1.1-1.6-1.7c-0.9-1.1-2.1-2.7-3.4-4.5s-2.4-3.5-3.1-4.7c-0.4-0.6-0.8-1.3-1.1-2.1
		c0.5,0.6,1,1.2,1.4,1.9l3.2,4.6l3.3,4.5C205.9,213.9,206.4,214.5,206.7,215.2z"/>
	<path class="st0" d="M208.1,227.5c-1.9,0.7-4,1.2-6,1.4c-2,0.4-4.1,0.6-6.1,0.6c2-0.5,4-0.9,6.1-1.1
		C204,228,206.1,227.7,208.1,227.5z"/>
	<path class="st0" d="M185.4,145.5c-0.1-0.1,0.4-0.6,0.8-1.7c0.5-1.4,0.7-2.9,0.4-4.3c-0.2-1.5-0.7-2.9-1.3-4.3
		c-0.3-0.6-0.5-1.1-0.7-1.8c0.4,0.5,0.8,1,1,1.6c0.7,1.4,1.2,2.8,1.5,4.4c0.2,1.5,0,3.1-0.6,4.6C186,145,185.4,145.5,185.4,145.5z"
		/>
	<path class="st0" d="M200.6,137.3c0.8,0.9,1.3,2.1,1.5,3.3c0.4,1.2,0.4,2.4,0.1,3.6c-0.1,0-0.2-1.6-0.6-3.5
		S200.4,137.3,200.6,137.3z"/>
	<path class="st12" d="M269.2,215.4l37.9-66.6l4.6-11.5c0,0,11.8-25.4,12.6-28c1-3,2.6-3.3,3.7-2.8c1.7,0.7,2.2,3.2,1.5,5.8
		c-0.3,0.9-4.9,14.8-4.9,14.8c1.2-1.1,2.5-2,3.9-2.9c2.9-2,8.2-1.9,13.2-0.1s6.2,2.7,5.6,4.6c-0.3,0.7-0.9,1.3-1.6,1.6
		c-1.2,0.5-2.5,0.5-3.6,0.1c-7.9-2.7-11.5,0.9-11.5,0.9l-0.6,1.5c0,0,6-1.9,9.4,0.8c0.5,0.4,0.9,0.9,1.2,1.4
		c3.4,1.1,5.3,4.8,4.2,8.3c-0.3,1.1-0.9,2-1.8,2.8c-0.8,0.8-2,1.3-3,0.8c-0.5-0.3-0.9-0.8-1.1-1.3c-0.2-0.3-0.3-0.5-0.5-0.8l-2.3,4
		c0,0-5.6,8.7-7.6,12.8L302.5,231c-3.6,9.5-14.2,14.3-23.7,10.8c-0.1,0-0.2-0.1-0.3-0.1l0,0c-9.5-3.7-14.1-14.4-10.3-23.9
		C268.4,217,268.8,216.2,269.2,215.4z"/>
	<path class="st12" d="M309.8,148.6c1.3,0.9,3.2,0.3,4.4-0.8s2-2.5,3.2-3.6c3.4-3.4,9-3.7,12.2-7.2c0.5-0.5,0.9-1.2,0.5-1.8
		s-1.1-0.4-1.7-0.3l-15.5,3"/>
	<path class="st13" d="M312.8,138c0.5-0.2,1.1-0.4,1.6-0.5c1.1-0.3,2.6-0.6,4.5-1l6.8-1.4l2-0.4c0.8-0.3,1.6-0.3,2.4,0.1
		c0.4,0.3,0.6,0.9,0.5,1.4c-0.1,0.4-0.3,0.8-0.6,1.1c-0.5,0.6-1.1,1.1-1.8,1.6c-2.6,1.8-5.4,2.5-7.7,3.7c-1.1,0.5-2.1,1.2-2.9,2
		c-0.8,0.8-1.4,1.6-2.1,2.4c-1,1.3-2.5,2.2-4.1,2.3c-1.2,0-1.7-0.6-1.6-0.6c0.5,0.2,1.1,0.3,1.6,0.2c1.5-0.2,2.8-1.1,3.6-2.4
		c0.6-0.9,1.3-1.7,2-2.5c0.9-0.9,1.9-1.6,3.1-2.2c2.3-1.3,5.1-2,7.5-3.7c0.6-0.4,1.1-0.9,1.6-1.4c0.4-0.5,0.6-1.1,0.3-1.3
		s-1-0.1-1.7,0.1l-2,0.4l-6.8,1.3c-1.9,0.3-3.5,0.6-4.6,0.8C313.9,138,313.3,138,312.8,138z"/>
	<path class="st13" d="M329.9,132.8c0.4-0.9,1-1.7,1.8-2.4c0.9-0.6,1.9-1,3-1c1.4,0,2.7,0.2,4,0.7c1.3,0.4,2.7,0.7,4.1,0.9
		c1.2,0.1,2.3-0.1,3.4-0.5c0.7-0.3,1.3-1,1.5-1.8c0.1-0.3,0.1-0.6,0-0.9c-0.1,0-0.1,0.3-0.2,0.8c-0.2,0.7-0.7,1.2-1.4,1.5
		c-1,0.4-2.1,0.5-3.2,0.4c-1.3-0.2-2.7-0.5-3.9-0.9c-1.3-0.4-2.7-0.7-4.1-0.6c-1.2,0-2.3,0.5-3.2,1.2c-0.6,0.5-1.1,1.2-1.4,1.9
		C329.8,132.4,329.8,132.8,329.9,132.8z"/>
	<path class="st13" d="M329.8,111.3c-0.4,0.9-0.7,1.8-0.9,2.8l-2.1,6.7c-0.8,2.5-1.5,4.8-2.2,6.7c-0.4,0.9-0.6,1.8-0.8,2.8
		c0.5-0.8,0.9-1.7,1.2-2.7c0.7-1.7,1.5-4,2.3-6.7s1.5-5,1.9-6.8C329.5,113.2,329.7,112.2,329.8,111.3z"/>
	<path class="st13" d="M332,136.9c0.3,0,0.6,0,0.9-0.1c0.8-0.1,1.6,0.1,2.2,0.6c0.4,0.4,0.5,0.9,0.4,1.4c-0.2,0.6-0.4,1.2-0.7,1.8
		c-0.4,0.7-0.5,1.5-0.4,2.3c0.3,0.8,0.9,1.5,1.8,1.8c0.8,0.3,1.7,0.2,2.5-0.3c0.7-0.4,1.3-0.9,1.6-1.6c0.5-1.1,0.9-2.4,1.1-3.6
		c0.1-0.8,0.1-1.7,0-2.5c0-0.3-0.2-0.6-0.4-0.9c0,0,0.1,0.3,0.1,0.9c0,0.8,0,1.6-0.2,2.4c-0.2,1.2-0.6,2.3-1.2,3.4
		c-0.7,1.3-2.1,1.9-3.5,1.6c-0.7-0.2-1.2-0.7-1.4-1.4c-0.1-0.7,0-1.3,0.3-1.9c0.3-0.6,0.5-1.2,0.7-1.9c0.1-0.6-0.1-1.3-0.5-1.8
		c-0.7-0.6-1.6-0.7-2.5-0.5C332.6,136.7,332.3,136.8,332,136.9z"/>
	<path class="st13" d="M338.5,144c0,0-0.2,0.3-0.2,0.8c0,0.8,0.5,1.6,1.2,2c1,0.6,2.3,0.6,3.4,0c1.2-0.7,2.1-1.9,2.5-3.2
		c0.4-1.3,0.4-2.8,0-4.1c-0.4-1.1-1-2-1.9-2.8c-0.6-0.5-1.2-0.9-1.9-1.2c-0.5-0.2-0.8-0.2-0.8-0.2c0.9,0.4,1.7,1,2.5,1.6
		c1.7,1.7,2.3,4.2,1.6,6.4c-0.4,1.2-1.2,2.3-2.3,2.9c-0.9,0.5-2,0.6-2.9,0.1c-0.6-0.4-1-0.9-1.1-1.6
		C338.5,144.3,338.6,144,338.5,144z"/>
	<path class="st13" d="M325.9,150.2c-0.4-0.3-0.9-0.4-1.3-0.4c-1.2-0.1-2.4,0.2-3.5,0.8l0.4,0.3c0.1-0.7,0.2-1.3,0.3-2
		c0.4-3.9-0.9-6.8-1-6.8c0.4,2.2,0.5,4.5,0.4,6.7c0,0.6-0.1,1.3-0.3,1.9l-0.1,0.6l0.5-0.4c0.9-0.6,2-0.9,3.1-0.9
		C325,150.2,325.5,150.2,325.9,150.2z"/>
	<path class="st13" d="M333.8,126.5c-0.2,0,0.1,1.2,1.1,2.1c1.1,0.9,2.3,1,2.3,0.8s-1-0.4-1.9-1.3S334,126.4,333.8,126.5z"/>
	<path class="st15" d="M215.4,270.7l39.7,0.4l-6.7-28.8l2.2,5.4c4.2,10.3,14.2,17,25.3,17l0,0c12.5,0,21.2-9.3,26.5-20.7
		c12.4-26.6,24.4-69.3,24.4-69.3l-24.2-21.2c-17.5,33.1-33.9,61.8-33.9,61.8s-4.8-14.4-8.4-27.3s-3.6-19.6-9.3-26.1
		c-8.7-9.9-21-12.3-32.5-15.3l-0.4,53.3L215.4,270.7"/>
	<path class="st15" d="M170.1,230.9l72.2,14.1l3.5,27.7H135.1c-12,0.1-21.9-9.5-22.1-21.6c0-0.7,0-1.3,0.1-2
		c1.6-20.2,3.3-45.1,4.6-55.6c1-8.2,4.3-16.7,8.2-24c5.6-10.5,24.2-24,40.6-24.7l3.1,68.8"/>
	<g class="st3">
		<path d="M215.4,270.7l39.7,0.4l-6.7-28.8l2.2,5.4c4.2,10.3,14.2,17,25.3,17l0,0c12.5,0,21.2-9.3,26.5-20.7
			c12.4-26.6,24.4-69.3,24.4-69.3l-24.2-21.2c-17.5,33.1-33.9,61.8-33.9,61.8s-4.8-14.4-8.4-27.3s-3.6-19.6-9.3-26.1
			c-8.7-9.9-21-12.3-32.5-15.3l-0.4,53.3L215.4,270.7"/>
		<path d="M170.1,230.9l65.1,12c2.7,0.5,4.9,2.6,5.4,5.3l5.2,24.6H135.1c-12,0.1-21.9-9.5-22.1-21.6c0-0.7,0-1.3,0.1-2
			c1.6-20.2,3.3-45.1,4.6-55.6c1-8.2,4.3-16.7,8.2-24c5.6-10.5,24.2-24,40.6-24.7l3.1,68.8"/>
	</g>
	<path class="st7" d="M156.4,228.9c0-0.2,0-0.4,0-0.7c0-0.5,0-1.1,0-1.9c0-1.7,0-4.1,0-7c0-5.9-0.1-14-0.6-22.9
		c-0.2-4.5-0.5-8.7-0.8-12.6c-0.1-3.4-0.6-6.8-1.4-10.2c-0.6-2.2-1.7-4.3-3.2-6c-0.6-0.6-1.2-1.2-1.9-1.7c0.8,0.4,1.5,0.9,2.1,1.5
		c1.6,1.7,2.8,3.8,3.4,6.1c0.9,3.3,1.4,6.8,1.6,10.2c0.3,3.9,0.6,8.1,0.9,12.6c0.5,9,0.5,17.1,0.4,23c-0.1,2.9-0.1,5.3-0.2,6.9
		l-0.1,1.9C156.4,228.4,156.4,228.7,156.4,228.9z"/>
	<path class="st7" d="M240.9,246.9c-0.8-0.8-1.7-1.6-2.6-2.1c-1.2-0.6-2.4-1.1-3.7-1.5c-1.5-0.4-3.2-0.8-5.2-1.1
		c-7.7-1.6-18.4-3.8-30.2-6s-22.5-4-30.3-5.2l-9.2-1.5l-2.5-0.4c-0.3,0-0.6-0.1-0.9-0.2c0.3,0,0.6,0,0.9,0.1l2.5,0.3
		c2.2,0.3,5.3,0.7,9.2,1.3c7.8,1.2,18.5,2.9,30.4,5.1s22.5,4.4,30.1,6.1c1.9,0.4,3.7,0.8,5.2,1.2c1.3,0.4,2.5,0.9,3.7,1.6
		c0.7,0.4,1.4,1,2,1.6c0.2,0.2,0.3,0.3,0.4,0.5C240.8,246.7,240.9,246.8,240.9,246.9z"/>
	<path class="st7" d="M156.6,228.9c0,0.1-1.3,0.4-3.4,1.2c-1.2,0.5-2.4,1.1-3.5,1.7c-1.4,0.8-2.7,1.7-3.9,2.7
		c-1.2,1-2.3,2.2-3.4,3.4c-0.8,1-1.6,2-2.3,3.1c-1.2,1.9-1.7,3.2-1.8,3.1c0.1-0.3,0.2-0.6,0.3-0.9c0.3-0.8,0.7-1.6,1.2-2.4
		c0.7-1.1,1.4-2.2,2.3-3.3c1-1.3,2.2-2.4,3.4-3.5c1.3-1,2.6-2,4-2.8c1.1-0.6,2.3-1.2,3.6-1.6c0.8-0.3,1.7-0.6,2.6-0.8
		C155.9,228.9,156.3,228.9,156.6,228.9z"/>
	<path class="st7" d="M249.8,246.1c-0.1-0.2-0.1-0.4-0.1-0.7c-0.1-0.5-0.2-1.2-0.3-2c-0.3-1.7-0.6-4.2-1.1-7.3
		c-0.8-6.2-1.9-14.8-2.7-24.3s-1.4-18.1-1.6-24.4c-0.1-3.1-0.2-5.6-0.3-7.4c0-0.8,0-1.5,0-2c0-0.2,0-0.5,0-0.7
		c0.1,0.2,0.1,0.5,0.1,0.7l0.1,2c0.1,1.8,0.3,4.3,0.4,7.4c0.4,6.2,0.9,14.9,1.8,24.4s1.8,18.1,2.6,24.3c0.4,3,0.7,5.6,0.9,7.3
		c0.1,0.8,0.2,1.5,0.2,2C249.8,245.7,249.8,245.9,249.8,246.1z"/>
	<path class="st7" d="M273.8,235.4c0,0-0.2-0.2-0.6-0.7c-0.5-0.6-0.9-1.3-1.3-2c-2.7-4.6-3.9-9.9-3.5-15.2c0.1-0.8,0.2-1.6,0.3-2.4
		c0-0.3,0.1-0.6,0.2-0.9c0.1,0-0.1,1.3-0.2,3.2c-0.2,5.2,1,10.4,3.5,15C273.1,234.3,273.8,235.4,273.8,235.4z"/>
	<path class="st9" d="M156.1,191.7c-0.1,0-0.2,0.1-0.4,0.1c-0.3,0-0.6,0.1-1.1,0.1c-1.3,0.1-2.7,0-4-0.3c-2-0.4-3.9-1-5.7-1.8
		c-2.1-0.9-4.3-2-6.6-3.1c-2.1-1.1-4.4-2-6.7-2.8c-1.9-0.6-3.8-1-5.7-1.1c-1.8-0.1-3.6,0.1-5.4,0.6c0.1-0.1,0.2-0.1,0.3-0.2
		c0.3-0.1,0.7-0.3,1-0.4c1.3-0.3,2.7-0.5,4-0.5c2,0.1,4,0.4,5.9,1c2.3,0.7,4.6,1.7,6.7,2.8c2.3,1.1,4.5,2.3,6.5,3.1
		c1.8,0.8,3.7,1.4,5.6,1.9C152.4,191.6,154.3,191.7,156.1,191.7z"/>
	<path class="st9" d="M168.4,189.3c-1.9,0.6-3.9,1-5.9,1.3c-2,0.4-4,0.7-6,0.8c1.9-0.6,3.9-1,5.9-1.3
		C164.4,189.6,166.4,189.4,168.4,189.3z"/>
	<path class="st9" d="M155.6,210.8c-0.5,0.2-0.9,0.5-1.4,0.6c-0.9,0.4-2.3,0.9-4.1,1.4c-4.5,1.5-9.1,2.6-13.8,3.4
		c-2.7,0.5-5.4,0.8-7.8,1.1c-2.1,0.3-4.3,0.3-6.4,0.2c-1.5-0.1-2.9-0.5-4.2-1.2c-0.4-0.2-0.7-0.4-1-0.6c-0.2-0.2-0.3-0.3-0.3-0.3
		s0.5,0.3,1.4,0.7c1.3,0.6,2.7,0.9,4.1,1c2.1,0.1,4.2,0,6.3-0.3c2.4-0.3,5-0.6,7.7-1.1c4.7-0.8,9.3-1.9,13.8-3.3
		c1.7-0.5,3.1-1,4.1-1.3C154.6,211,155.1,210.8,155.6,210.8z"/>
	<path class="st9" d="M168.1,216c-1.8,0.3-3.6,0.4-5.4,0.4c-1.8,0.1-3.6,0.1-5.4-0.2c1.8-0.3,3.6-0.4,5.4-0.4
		C164.5,215.7,166.3,215.8,168.1,216z"/>
	<path class="st9" d="M116.7,261.6c0-0.2,0-0.4,0.1-0.5c0.1-0.4,0.2-0.9,0.4-1.5c0.1-0.3,0.2-0.7,0.3-1.1s0.3-0.8,0.5-1.3
		c0.4-1,0.8-2,1.2-3l0.8-1.7c0.3-0.6,0.7-1.2,1-1.8c0.8-1.3,1.6-2.6,2.5-3.8c4.1-5.6,9.4-10.3,15.6-13.6c1.4-0.7,2.8-1.4,4.1-1.9
		c0.7-0.3,1.3-0.6,1.9-0.8l1.8-0.6c1-0.3,2.1-0.6,3.2-0.8c0.5-0.1,0.9-0.2,1.3-0.3l1.1-0.1l1.5-0.2c0.2,0,0.4,0,0.5,0
		c-0.2,0.1-0.3,0.1-0.5,0.1l-1.5,0.3l-1.1,0.2c-0.4,0.1-0.8,0.2-1.3,0.3c-1.1,0.2-2.1,0.5-3.1,0.9l-1.8,0.6
		c-0.6,0.2-1.2,0.5-1.9,0.8c-1.4,0.6-2.7,1.2-4.1,1.9c-3,1.7-5.8,3.6-8.4,5.9c-2.6,2.3-4.9,4.8-7,7.6c-0.9,1.3-1.8,2.5-2.5,3.8
		c-0.3,0.6-0.7,1.2-1,1.8l-0.8,1.7c-0.6,1.1-0.9,2.1-1.3,3c-0.2,0.4-0.3,0.9-0.5,1.2l-0.3,1.1l-0.5,1.5
		C116.8,261.3,116.8,261.4,116.7,261.6z"/>
	<path class="st9" d="M166.8,230.9c-1.7,1.5-3.1,3.2-4.1,5.2c-1.1,2.1-1.9,4.4-2.3,6.8c-0.5,2.9-0.8,5.8-0.9,8.8
		c-0.1,3-0.5,5.9-1,8.9c-0.5,2.4-1.3,4.7-2.5,6.8c-0.8,1.4-1.8,2.7-3.1,3.9c-0.3,0.3-0.6,0.6-1,0.8c-0.1,0.1-0.3,0.2-0.4,0.3
		c1.7-1.4,3.1-3.2,4.2-5.1c1.1-2.1,1.9-4.4,2.4-6.8c0.5-2.9,0.9-5.8,1-8.8c0.1-3,0.5-5.9,1-8.9c0.5-2.4,1.3-4.7,2.4-6.9
		c0.8-1.5,1.8-2.8,3-3.9c0.3-0.3,0.7-0.6,1-0.8C166.6,231,166.7,230.9,166.8,230.9z"/>
	<path class="st9" d="M183.9,272.9c-0.1,0,0-8.6,0.4-19.3s0.8-19.2,0.9-19.2s0,8.6-0.4,19.3C184.4,264.3,184.1,272.9,183.9,272.9z"
		/>
	<path class="st9" d="M211.1,271.4c-0.2-0.4-0.3-0.8-0.4-1.2c-0.1-0.4-0.3-0.9-0.4-1.5s-0.3-1.3-0.4-2c-0.3-1.8-0.5-3.5-0.5-5.3
		c0-2.2,0.1-4.4,0.4-6.6c0.3-2.2,0.9-4.3,1.6-6.4c0.6-1.7,1.3-3.3,2.1-4.9c0.3-0.7,0.7-1.3,1-1.8c0.3-0.5,0.5-0.9,0.8-1.3
		c0.2-0.4,0.5-0.7,0.8-1.1c0.1,0.1-1,1.6-2.3,4.3c-0.8,1.6-1.4,3.2-2,4.9c-1.4,4.1-2,8.4-2,12.8c0,1.8,0.2,3.5,0.4,5.3
		C210.6,269.5,211.1,271.3,211.1,271.4z"/>
	<path class="st9" d="M165,160.8c0,0.1-1.6-0.6-4.2-1.4c-6.8-2.2-13.9-2.8-21-1.9c-2.7,0.4-4.4,0.8-4.4,0.7c0.4-0.2,0.7-0.3,1.1-0.4
		c1-0.3,2.1-0.5,3.2-0.7c7.1-1.2,14.4-0.6,21.1,1.8c1,0.4,2,0.8,3,1.2C164.3,160.4,164.7,160.6,165,160.8z"/>
	<path class="st9" d="M244,202.9c-1.2,0.1-2.5,0.1-3.7,0c-2.3-0.1-5.4-0.2-8.9-0.3s-6.6-0.1-8.9-0.1c-1.2,0-2.5,0-3.7-0.1
		c0.3-0.1,0.7-0.1,1-0.1c0.6,0,1.6-0.1,2.7-0.1c2.3-0.1,5.4-0.1,8.9,0s6.7,0.3,9,0.4c1.1,0.1,2.1,0.2,2.7,0.3
		C243.4,202.8,243.7,202.8,244,202.9z"/>
	<path class="st9" d="M263.7,199.1c0,0.1-1.3,0.5-3.2,1.5c-5.1,2.5-9.4,6.4-12.5,11.1c-1.2,1.8-1.8,3-1.8,3c0.1-0.3,0.2-0.6,0.3-0.9
		c0.4-0.8,0.8-1.6,1.2-2.3c1.5-2.5,3.3-4.7,5.5-6.6c2.1-1.9,4.6-3.5,7.2-4.7c0.8-0.4,1.6-0.7,2.4-0.9
		C263.1,199.2,263.4,199.2,263.7,199.1z"/>
	<path class="st9" d="M254,167.1c-1.7-0.1-3.4,0.2-5.1,0.7c-1.8,0.6-3.5,1.4-5.1,2.3c-2,1.1-4.2,2.1-6.3,2.9
		c-4,1.3-8.3,1.6-12.5,0.8c-1.3-0.2-2.5-0.6-3.7-1c-0.4-0.1-0.9-0.3-1.3-0.6c1.6,0.5,3.3,0.9,5,1.2c4.1,0.6,8.3,0.3,12.3-0.9
		c2.2-0.8,4.3-1.7,6.3-2.8c1.7-0.9,3.4-1.6,5.2-2.2c1.2-0.4,2.5-0.6,3.8-0.5c0.3,0,0.7,0,1,0.1C253.8,167,254,167.1,254,167.1z"/>
	<path class="st9" d="M249,234.1c-0.4,0.2-0.8,0.4-1.2,0.5c-0.4,0.2-0.9,0.4-1.4,0.5s-1.2,0.4-1.9,0.6c-1.7,0.5-3.4,0.8-5.1,1.1
		c-4.2,0.6-8.5,0.4-12.7-0.4c-1.7-0.3-3.4-0.8-5-1.4c-0.7-0.2-1.3-0.5-1.9-0.7c-0.5-0.2-0.9-0.4-1.4-0.6c-0.4-0.2-0.8-0.4-1.1-0.6
		c0-0.1,1.7,0.7,4.5,1.6c1.6,0.5,3.3,0.9,5,1.2c4.1,0.8,8.4,0.9,12.5,0.4c1.7-0.2,3.4-0.5,5.1-0.9C247.3,234.7,248.9,234,249,234.1z
		"/>
	<path class="st9" d="M272,263.7c-0.1-0.1-0.3-0.2-0.4-0.3c-0.2-0.2-0.6-0.5-1-1c-1.2-1.3-2.3-2.7-3.2-4.2
		c-2.9-5.1-4.4-10.9-4.5-16.8c0-5.8,0.8-11.6,2.3-17.3c0.5-2.2,1-3.9,1.4-5.1c0.2-0.6,0.3-1,0.4-1.4c0-0.2,0.1-0.3,0.2-0.5
		c0,0.2,0,0.3-0.1,0.5c-0.1,0.4-0.2,0.8-0.3,1.4c-0.3,1.3-0.7,3-1.2,5.1c-1.4,5.6-2.1,11.4-2.1,17.2c0,5.8,1.4,11.5,4.2,16.6
		c0.9,1.5,1.9,3,3,4.3C271.5,263.2,272,263.7,272,263.7z"/>
	<path class="st9" d="M308.3,229.8c-1.6-1.3-3.4-2.3-5.3-3c-2.1-0.7-4.2-1.3-6.4-1.7c-2.7-0.5-5.4-1.1-8-1.8
		c-4.7-1.5-9.1-4.1-12.6-7.6c-1.1-1-2.1-2.2-3-3.4c-0.3-0.4-0.5-0.8-0.7-1s-0.2-0.4-0.2-0.4c0.4,0.4,0.7,0.8,1.1,1.3
		c1,1.1,2,2.2,3.1,3.2c3.6,3.3,7.9,5.9,12.6,7.4c2.7,0.9,5.5,1.3,7.9,1.9c2.2,0.4,4.3,1,6.4,1.8c1.4,0.5,2.7,1.3,3.9,2.2
		c0.3,0.2,0.6,0.5,0.9,0.8C308.3,229.6,308.4,229.7,308.3,229.8z"/>
	<path class="st9" d="M319.8,196.4c-0.4-0.3-0.7-0.6-1.1-0.9c-0.3-0.3-0.7-0.7-1.2-1.1s-1-0.9-1.7-1.4c-1.5-1.2-3-2.3-4.6-3.3
		c-2-1.2-4-2.3-6.2-3.2c-2.1-0.9-4.3-1.6-6.6-2.3c-1.8-0.5-3.7-0.8-5.6-1.1c-0.8-0.1-1.5-0.2-2.2-0.2s-1.2-0.1-1.6-0.1
		c-0.5,0-0.9,0-1.4-0.1c0.5-0.1,0.9-0.1,1.4-0.1c0.6,0,1.1,0,1.7,0c0.6,0,1.4,0.1,2.2,0.2c1.9,0.2,3.8,0.5,5.6,1
		c4.6,1.1,8.9,3,12.9,5.5c1.6,1,3.2,2.2,4.6,3.4c0.6,0.5,1.2,1,1.6,1.5s0.9,0.8,1.2,1.2C319.2,195.6,319.5,196,319.8,196.4z"/>
	<path class="st9" d="M232.3,150.5c-0.6,0.4-1.2,0.7-1.9,0.9c-1.6,0.6-3.2,1.1-4.9,1.5c-1.6,0.4-3.3,0.7-5,0.8
		c-0.7,0.1-1.4,0.1-2.1,0c0-0.1,3.2-0.4,7-1.3S232.2,150.3,232.3,150.5z"/>
	<path class="st12" d="M267.8,291.3c0.4,1.5-0.4,3-1.9,3.4c-0.4,0.1-0.8,0.1-1.1,0.1l0,0c-1.1-0.2-2-0.9-2.3-2l-0.9-3.1h0.1
		c0.3,1.6-0.7,3.1-2.3,3.4c-0.3,0.1-0.6,0.1-0.9,0l0,0c-1.3,0-2.4-1.9-2.8-2.9l0,0c-2,0.2-4-0.7-5.1-2.4l-5.9-9.2l-10.9-8l6.6-23.5
		l23.4,15.2c0.9,0.7,1.1,1,2.5,2.4l15.1,13.9c-1.7,1-3.2,1-5.5,0s-12.8-8-12.8-8L267.8,291.3"/>
	<path class="st13" d="M247.7,272c0,0,0.3,0.1,0.7,0.4l0.8,0.5c0.4,0.2,0.7,0.5,1,0.8c0.3,0.4,0.6,0.9,0.8,1.4
		c0.2,0.5,0.4,1.1,0.6,1.6l1.3,3.8c0.9,2.7,1.7,5.1,2.2,6.9c0.3,0.9,0.6,1.9,0.8,2.9c-0.5-0.9-0.8-1.8-1.1-2.8
		c-0.6-1.7-1.5-4.1-2.4-6.8c-0.4-1.3-0.9-2.6-1.2-3.8l-0.5-1.6c-0.1-0.5-0.4-0.9-0.7-1.3c-0.3-0.3-0.5-0.6-0.9-0.8l-0.7-0.6
		C247.9,272.2,247.7,272,247.7,272z"/>
	<path class="st13" d="M261.8,290.3c-0.2-0.3-0.3-0.7-0.3-1c-0.2-0.7-0.5-1.6-0.8-2.7c-0.6-2.3-1.5-5.4-2.6-8.8s-2.2-6.5-3.6-8.3
		c-0.5-0.8-1.2-1.4-1.9-1.9c-0.6-0.3-0.9-0.4-0.9-0.5s0.1,0,0.3,0c0.3,0.1,0.5,0.2,0.7,0.3c0.8,0.5,1.6,1.1,2.1,1.9
		c1.5,1.9,2.7,5,3.8,8.4s1.9,6.6,2.4,8.9c0.3,1.1,0.5,2.1,0.6,2.7C261.8,289.5,261.8,289.9,261.8,290.3z"/>
	<path class="st13" d="M267.9,291.7c-0.2-0.3-0.3-0.7-0.4-1c-0.3-0.8-0.6-1.8-0.9-2.9c-0.8-2.5-1.8-5.9-2.9-9.7s-2-7.1-2.8-9.7
		c-0.3-1-0.8-1.8-1.6-2.4c-0.3-0.2-0.7-0.4-1-0.5c0.1,0,0.2,0,0.3,0c0.3,0.1,0.5,0.2,0.8,0.3c0.9,0.6,1.5,1.5,1.8,2.5
		c0.8,2.5,1.8,5.9,2.9,9.7s2,7.2,2.7,9.7c0.3,1.2,0.6,2.2,0.8,3C267.7,290.9,267.8,291.3,267.9,291.7z"/>
</g>
</svg>
