<svg xmlns="http://www.w3.org/2000/svg" viewBox="0 0 694.06 363.6"><defs><style type="text/css">.cls-1{fill:#f5f5f5;}.cls-2{fill:#e0e0e0;}.cls-3{fill:#ebebeb;}.cls-4{fill:#5182e5;}.cls-5{opacity:0.4;}.cls-6{fill:#1550af;}.cls-7{fill:#1c4e8b;}.cls-8{fill:#b78876;}.cls-9{fill:#aa6550;}.cls-10{fill:#263238;}.cls-11{fill:#455a64;}.cls-12{fill:#fafafa;}.cls-13{fill:#16895d;}.cls-14{opacity:0.2;}.cls-15{fill:#ffbe9d;}.cls-16{fill:#eb996e;}.cls-17{fill:#184793;}</style></defs><title>contact-illustration</title><g id="Camada_2" data-name="Camada 2"><g id="Background_Complete" data-name="Background Complete"><path class="cls-1" d="M689.76,59.87s-8.36-5.11-17.61,14.78-12.6,31.27-12.6,31.27-2.49,4.18-5.39,1.61-7-10-11.76-8.48c-4.9,1.6-6.33,7.18-5.09,15.27s3.29,25.91,3.48,27.52-.65,4-2.91,2.52-15.46-15.11-21.58-8.46,1,28.62,1.78,31,.29,3.47-.85,4.12-5.14-4.37-9.05-8.11-9.11-7.38-12.31-3.24S592.19,180.53,609,207l8.6,11.76,14.57-1.33c31-4.77,43.26-16.11,44.26-21.24s-5.16-6.64-10.54-7.13-11.8-.2-12.06-1.48.24-2.31,2.55-3.35,23.54-10.11,24.53-19.09-18-9.92-20.57-10.68-1.33-2.94,0-3.84,16.11-11.11,23-15.5,10.17-9.15,8.14-13.89c-2-4.57-10.27-2.77-14.12-3.26s-2.33-5.12-2.33-5.12,6.37-10,15.25-30.08-.71-23-.71-23"/><path class="cls-2" d="M681.45,77.66s-.05.15-.17.43-.3.71-.52,1.24l-2.06,4.76c-1.8,4.13-4.44,10.08-7.73,17.43-6.58,14.7-15.84,34.92-26.14,57.23s-19.61,42.51-26.27,57.17c-3.32,7.31-6,13.24-7.87,17.36-.92,2-1.64,3.62-2.14,4.72-.25.53-.44.93-.57,1.23s-.21.41-.21.41a3.57,3.57,0,0,1,.16-.43c.13-.3.3-.72.52-1.25.48-1.1,1.18-2.7,2.06-4.75,1.8-4.13,4.44-10.09,7.73-17.44,6.58-14.69,15.84-34.92,26.14-57.23S664,116,670.65,101.38L678.52,84c.93-2,1.65-3.62,2.15-4.72l.57-1.22A4.43,4.43,0,0,1,681.45,77.66Z"/><path class="cls-2" d="M647.75,109.7a4.42,4.42,0,0,1,.41,1c.24.64.55,1.57.93,2.72.74,2.3,1.69,5.51,2.67,9.07s1.81,6.67,2.47,9.12l.76,2.76a3.81,3.81,0,0,1,.23,1,4.14,4.14,0,0,1-.41-1c-.24-.63-.55-1.56-.92-2.71-.72-2.32-1.63-5.53-2.61-9.09s-1.85-6.66-2.53-9.1c-.3-1.09-.56-2-.77-2.76A4.4,4.4,0,0,1,647.75,109.7Z"/><path class="cls-2" d="M656.57,135.57c0-.13,6.48-2.37,14.57-5s14.69-4.68,14.73-4.55-6.48,2.37-14.57,5S656.61,135.7,656.57,135.57Z"/><path class="cls-2" d="M639.2,169.12a4.15,4.15,0,0,1,1.08-.1l2.92-.1c2.46-.09,5.87-.22,9.62-.5s7.14-.64,9.6-.92l2.9-.33a4.88,4.88,0,0,1,1.08-.06,5,5,0,0,1-1,.25c-.68.13-1.67.3-2.89.49-2.44.37-5.84.78-9.6,1.06s-7.18.36-9.66.36c-1.23,0-2.23,0-2.92-.06A5.3,5.3,0,0,1,639.2,169.12Z"/><path class="cls-2" d="M626.08,147.47a4.06,4.06,0,0,1,.6.79c.36.52.88,1.29,1.5,2.25,1.25,1.91,2.94,4.57,4.78,7.52s3.49,5.65,4.66,7.61c.59,1,1,1.77,1.36,2.33a3.73,3.73,0,0,1,.45.89,3.44,3.44,0,0,1-.61-.79c-.36-.52-.87-1.29-1.5-2.25-1.24-1.91-2.93-4.57-4.78-7.52s-3.49-5.65-4.66-7.61c-.58-1-1-1.77-1.36-2.33A3.88,3.88,0,0,1,626.08,147.47Z"/><path class="cls-2" d="M607,175.13a6.52,6.52,0,0,1,.77,1l1.92,2.88c1.61,2.44,3.81,5.83,6.21,9.6s4.55,7.18,6.08,9.67l1.8,3a6.49,6.49,0,0,1,.6,1.13,6.52,6.52,0,0,1-.77-1l-1.92-2.88c-1.61-2.44-3.81-5.83-6.21-9.6s-4.55-7.18-6.08-9.67l-1.8-3A6.25,6.25,0,0,1,607,175.13Z"/><path class="cls-2" d="M624.13,201.62a6.42,6.42,0,0,1,1.35-.16l3.7-.26c3.12-.22,7.44-.54,12.19-1s9-1,12.15-1.44l3.67-.48a8.45,8.45,0,0,1,1.36-.13,6.24,6.24,0,0,1-1.33.32c-.86.16-2.11.39-3.65.64-3.1.5-7.39,1.1-12.15,1.58s-9.09.75-12.22.88c-1.57.06-2.83.1-3.71.11A8.47,8.47,0,0,1,624.13,201.62Z"/><path class="cls-3" d="M94.27,158.36c23.33-15.57,29-45,28.53-71.59-.09-4.44.48-9.1-1.6-13s-7-6.65-11.07-4.85c-3.35,1.5-4.87,5.31-6.78,8.45a26.17,26.17,0,0,1-10.69,9.77c-2.88,1.42-6.43,2.27-9.23.69-3.84-2.17-4.22-7.46-4.12-11.87l.54-24.64c.09-4.41.18-8.91-1.15-13.11s-4.33-8.14-8.56-9.38-9.52,1.1-10.49,5.4c-.4,1.79-.06,3.66-.21,5.49s-1,3.84-2.82,4.32-3.55-.78-4.87-2.09c-4.54-4.52-7.58-10.3-10.41-16S35.75,14.26,31.65,9.34,21.81.49,15.42,0,2.16,3.38.44,9.55,2.3,22.1,6.22,27.19A98.88,98.88,0,0,0,26.67,47c1.4,1,2.9,2.1,3.42,3.74.92,2.95-1.95,5.83-4.9,6.75-3.35,1-7,.65-10.44,1s-7.29,1.81-8.66,5C4.2,68,7.94,72.82,11.65,76A85.51,85.51,0,0,0,36.7,90.75C40,92,43.41,93.08,46,95.39s4.16,6.31,2.51,9.39-5.78,4-9.21,3.33-6.48-2.57-9.74-3.84c-6.11-2.38-14-2.08-18,3.1-2.64,3.4-2.94,8.19-1.7,12.31s3.84,7.7,6.6,11c9.66,11.54,22.12,20.89,36.28,26s27.33,6.6,41.56,1.7"/><path class="cls-2" d="M92.44,158.88c-3.75-13.46-14-45.11-20.15-60l-4.57-11c-1.51-3.61-3-7.19-4.69-10.6a197.94,197.94,0,0,0-10.8-19.05c-3.74-5.9-7.5-11.36-11-16.44S34.2,32,30.9,27.91a158.19,158.19,0,0,0-17-18.31c-2.17-2-3.9-3.5-5.09-4.5L7.47,4C7.16,3.72,7,3.6,7,3.6s.14.15.43.42L8.73,5.2c1.16,1,2.87,2.56,5,4.59a166.32,166.32,0,0,1,16.8,18.42C33.8,32.34,37.18,37,40.73,42.1s7.27,10.56,11,16.46a199.51,199.51,0,0,1,10.73,19c1.67,3.4,3.16,7,4.67,10.57s3,7.29,4.57,11C77.79,114,88.07,145.63,91.85,159"/><path class="cls-2" d="M62.86,77.21a10,10,0,0,0,.44-1.88c.24-1.21.54-3,.88-5.17.69-4.39,1.44-10.47,2.25-17.17s1.66-12.77,2.44-17.12c.38-2.18.71-3.94,1-5.16a11.48,11.48,0,0,0,.31-1.9,10.43,10.43,0,0,0-.56,1.85c-.33,1.19-.73,2.94-1.17,5.12-.91,4.34-1.83,10.41-2.64,17.13s-1.51,12.66-2,17.18c-.27,2.1-.5,3.85-.68,5.2A11.22,11.22,0,0,0,62.86,77.21Z"/><path class="cls-2" d="M5.6,65.76a2.33,2.33,0,0,0,.59.11l1.7.17c1.48.14,3.61.34,6.23.67,5.25.63,12.48,1.75,20.4,3.35s15,3.37,20.1,4.8c2.55.7,4.6,1.32,6,1.75l1.64.48a2,2,0,0,0,.58.12,2,2,0,0,0-.54-.25l-1.6-.6c-1.39-.5-3.43-1.19-6-2-5.07-1.55-12.17-3.39-20.1-5s-15.2-2.65-20.48-3.16c-2.63-.27-4.78-.4-6.26-.46l-1.71,0A2.41,2.41,0,0,0,5.6,65.76Z"/><path class="cls-2" d="M86.9,140.56a4,4,0,0,0,.39-.69l1-2c.86-1.78,2-4.37,3.48-7.6,2.85-6.46,6.53-15.5,10.46-25.52s7.52-19.08,10.27-25.58l3.28-7.68.89-2.09a4.24,4.24,0,0,0,.27-.75,2.84,2.84,0,0,0-.39.69l-1,2c-.86,1.78-2.05,4.38-3.47,7.61-2.86,6.45-6.54,15.49-10.46,25.52S94.08,123.54,91.33,130l-3.28,7.68-.88,2.09A3.4,3.4,0,0,0,86.9,140.56Z"/><path class="cls-2" d="M11,115.15a3.56,3.56,0,0,0,.75.31l2.21.75,8.14,2.71c6.87,2.3,16.32,5.59,26.75,9.25s19.92,6.89,26.83,9.07c3.45,1.1,6.26,1.95,8.2,2.51l2.25.64a4.19,4.19,0,0,0,.8.17,4.93,4.93,0,0,0-.76-.3l-2.21-.75-8.14-2.72c-6.87-2.29-16.32-5.59-26.75-9.25s-19.91-6.88-26.82-9.07c-3.46-1.09-6.26-2-8.21-2.51l-2.24-.63A3.89,3.89,0,0,0,11,115.15Z"/><path class="cls-1" d="M478.24,4.3H604.31L579.65,21.84V36.47a27.28,27.28,0,0,1-27.48,27.07H473.06a27.28,27.28,0,0,1-27.48-27.07h0A32.41,32.41,0,0,1,478.24,4.3Z"/><path class="cls-2" d="M558.38,23.87c0,.14-21,.26-47,.26s-47-.12-47-.26,21-.26,47-.26S558.38,23.73,558.38,23.87Z"/><path class="cls-2" d="M558.38,33.61c0,.15-21,.26-47,.26s-47-.11-47-.26,21-.26,47-.26S558.38,33.47,558.38,33.61Z"/><path class="cls-1" d="M287,304.35H137.79l24.3,17.54v34.5a7.21,7.21,0,0,0,7.21,7.21H287a7.21,7.21,0,0,0,7.21-7.21V311.56A7.21,7.21,0,0,0,287,304.35Z"/><path class="cls-2" d="M280.75,328.74c0,.14-22.5.26-50.25.26s-50.25-.12-50.25-.26,22.49-.26,50.25-.26S280.75,328.59,280.75,328.74Z"/><path class="cls-2" d="M280.75,342c0,.15-22.5.26-50.25.26s-50.25-.11-50.25-.26,22.49-.26,50.25-.26S280.75,341.84,280.75,342Z"/></g><g id="Character_2" data-name="Character 2"><rect class="cls-4" x="378.18" y="134.33" width="252.17" height="219.68" rx="38.79"/><g class="cls-5"><rect x="378.18" y="134.33" width="252.17" height="219.68" rx="38.79"/></g><polygon class="cls-6" points="630.28 210.92 668.05 210.92 629.43 249.54 630.28 210.92"/><polygon class="cls-7" points="630.28 210.92 668.05 210.92 629.43 249.54 630.28 210.92"/><path class="cls-8" d="M372.14,234.66l-15.83-18c-4.28-4.28-5.75-6.34-4.89-7.09,1.14-1,.65-.67,9.54,6,0,0-12.6-9.63-8.23-9.69.77,0,2.91,1.24,5.2,2.74-3.12-2.65-4-4.43-3.39-5.29,1-1.47,8.72,3.87,12.27,6.45-2.9-2.17-8.43-6.36-9.4-7.68-1.34-1.79,1.37-1.65,3.57-.9,2.47.85,16.12,7.81,20.16,9.61a2.61,2.61,0,0,0,3.76-1.27c1.49-6.25,6-10.33,7.72-10.86s3.05,1.68,1.82,3.27a23.77,23.77,0,0,0-2.66,5.94,15.16,15.16,0,0,0-.81,5.12c0,2,.14,3.73.27,5.18l14.47,19.85-24.2,14Z"/><path class="cls-9" d="M366.45,218.37c-.16.23-3-1.71-6.28-4.32s-5.84-4.9-5.65-5.12,3,1.73,6.28,4.33S366.62,218.14,366.45,218.37Z"/><path class="cls-9" d="M369.54,215.21c-.16.23-3.27-1.66-7-4.23s-6.54-4.82-6.38-5,3.27,1.66,7,4.22S369.7,215,369.54,215.21Z"/><path class="cls-9" d="M371.78,211.85c-.16.23-3.14-1.51-6.65-3.89s-6.23-4.49-6.08-4.72,3.13,1.51,6.65,3.89S371.93,211.62,371.78,211.85Z"/><path class="cls-8" d="M392.59,221l57.68,73.15-13.21,30.75s-15.82-3.5-20.62-10.17-44.3-80-44.3-80Z"/><path class="cls-10" d="M539,118.61c4.15,3.6,4.14,9.94,3.66,15.41s-.85,11.71,2.94,15.68c3.13,3.28,8.8,4.72,9.52,9.18a5.14,5.14,0,0,1-8.51,4.67c1.22,3.53.38,7.94-2.68,10.08s-8.19.82-9.14-2.79a4.53,4.53,0,1,1-8.89,1.62"/><path class="cls-10" d="M479.58,155.53a5.46,5.46,0,1,1-10.06-4.21c1-2.08,3.2-3.58,3.42-5.85.26-2.76-2.55-4.73-5.05-5.93s-5.41-2.76-5.68-5.52,2.12-4.73,4.11-6.51,4-4.53,2.73-6.91c-.63-1.21-1.94-1.91-2.79-3-1.87-2.38-.89-6.17,1.5-8s5.69-2.13,8.67-1.59,5.78,1.77,8.68,2.63A36.17,36.17,0,0,0,514,106.84"/><path class="cls-8" d="M497.29,220a20.07,20.07,0,0,0,23.59-15.4l14.19-65.06a28.87,28.87,0,0,0-22.27-34.9l-1.48-.22a29.08,29.08,0,0,0-32.55,22.25c-3.16,13.74-6.47,28.95-7.47,36.42-2.07,15.46,13,20.12,13,20.12l-2.71,13A20.08,20.08,0,0,0,497.29,220Z"/><path class="cls-10" d="M481.55,136.89a2.23,2.23,0,0,0,1.8,2.53,2.13,2.13,0,0,0,2.56-1.65,2.22,2.22,0,0,0-1.79-2.54A2.14,2.14,0,0,0,481.55,136.89Z"/><path class="cls-10" d="M481,134.73c.23.33,2.08-.66,4.46-.31s3.93,1.8,4.23,1.54c.15-.11-.06-.67-.73-1.33A6.12,6.12,0,0,0,485.6,133a5.81,5.81,0,0,0-3.6.61C481.19,134.1,480.87,134.58,481,134.73Z"/><path class="cls-10" d="M504.74,140.74a2.22,2.22,0,0,0,1.8,2.53,2.13,2.13,0,0,0,2.56-1.65,2.23,2.23,0,0,0-1.8-2.54A2.13,2.13,0,0,0,504.74,140.74Z"/><path class="cls-10" d="M504.24,138.59c.23.33,2.08-.66,4.45-.31s3.94,1.79,4.24,1.54c.14-.11-.06-.67-.74-1.33a6.12,6.12,0,0,0-3.34-1.59,5.89,5.89,0,0,0-3.6.6C504.44,138,504.12,138.44,504.24,138.59Z"/><path class="cls-10" d="M493.05,154.92a16.4,16.4,0,0,0-3.75-1.26c-.6-.15-1.15-.35-1.19-.78a3.14,3.14,0,0,1,.66-1.74q1.19-2.07,2.47-4.35c3.45-6.2,6-11.34,5.79-11.48s-3.25,4.78-6.7,11l-2.4,4.39a3.55,3.55,0,0,0-.66,2.33,1.54,1.54,0,0,0,.87,1,4.26,4.26,0,0,0,1,.29A15.94,15.94,0,0,0,493.05,154.92Z"/><path class="cls-10" d="M505,129.2c.14.68,2.56.72,5.29,1.47s4.87,1.83,5.33,1.3c.2-.25-.1-.91-.91-1.67a9.52,9.52,0,0,0-8.09-2.11C505.52,128.45,504.93,128.88,505,129.2Z"/><path class="cls-10" d="M482.86,128c.34.6,2.05.28,4,.55s3.58.89,4,.38c.21-.25,0-.83-.62-1.44a5.52,5.52,0,0,0-3.14-1.36,5.59,5.59,0,0,0-3.36.61C483,127.18,482.71,127.7,482.86,128Z"/><path class="cls-10" d="M520.79,120.18l.07.08a12.24,12.24,0,0,1,3.36,8.51v.32c0,4.49-.81,8.95-.8,13.44s.87,9.19,3.68,12.7c1.15,1.44,3.39,2.64,4.7,1.34a3.81,3.81,0,0,0,.85-1.93c2.38-10.51,6.66-19.52,8.27-30.64a9.47,9.47,0,0,0-2.77-8.2c-2.08-2-4.67-4.15-7.44-3.31s-6.82,5.2-9.13,7"/><path class="cls-8" d="M528.84,145.78c.28-.07,11.07-1.58,9.18,8.92s-12,6.45-12,6.14S528.84,145.78,528.84,145.78Z"/><path class="cls-9" d="M529.94,157.44s.16.16.44.36a1.87,1.87,0,0,0,1.37.27c1.18-.21,2.43-1.8,2.82-3.69a6.16,6.16,0,0,0,0-2.71A2.18,2.18,0,0,0,533.4,150a1,1,0,0,0-1.17.31c-.19.27-.16.49-.22.5s-.19-.22,0-.64a1.2,1.2,0,0,1,.53-.58,1.41,1.41,0,0,1,1.06-.09,2.63,2.63,0,0,1,1.62,2,6.32,6.32,0,0,1,.11,3c-.45,2.11-1.89,3.9-3.48,4.06a2,2,0,0,1-1.63-.58C529.91,157.7,529.9,157.45,529.94,157.44Z"/><path class="cls-10" d="M530.83,114.18c3.22-3.84-3-11-8-13.35s-12.21-.87-17.64.09c-3.43.6-6.91,1.64-10.33,1a23.25,23.25,0,0,1-6.44-2.68,17.26,17.26,0,0,0-6.56-2.32c-2.33-.18-4.88.69-6.07,2.7s-.36,5.13,1.88,5.78a5.24,5.24,0,1,0-2.79,9.4c-1.33-1.35-3.91.19-4,2.09s1.41,3.51,3,4.52c4.11,2.58,9.33,2.71,14.11,1.85s9.36-2.64,14.12-3.62,12.75-2.83,17.05-.57c3.16,1.66,4.9,6,6.91,5.41a6.54,6.54,0,0,0,4-4.25,19.14,19.14,0,0,0,.67-6"/><path class="cls-11" d="M551.4,163a1.62,1.62,0,0,0,.55-.24,3.07,3.07,0,0,0,1.14-1.3,4.55,4.55,0,0,0,.34-2.71,5.45,5.45,0,0,0-1.88-3.09,14,14,0,0,0-3.79-2.21,24.61,24.61,0,0,1-4.43-2.14,8.84,8.84,0,0,1-3.21-4.17,14.62,14.62,0,0,1-.93-5.68c.1-4,1.21-7.75,1.48-11.28s-.18-6.84-1.68-9.13a8.51,8.51,0,0,0-5-3.75,5.84,5.84,0,0,0-1.71-.17,2.21,2.21,0,0,0-.59.09,8.72,8.72,0,0,1,2.25.28,8.44,8.44,0,0,1,4.72,3.75c1.39,2.22,1.87,5.44,1.52,8.89s-1.42,7.2-1.54,11.31a15.05,15.05,0,0,0,1,5.89,9.34,9.34,0,0,0,3.43,4.38,24.58,24.58,0,0,0,4.53,2.14,13.7,13.7,0,0,1,3.71,2.08,5.25,5.25,0,0,1,1.84,2.86,4.4,4.4,0,0,1-.24,2.57A3.44,3.44,0,0,1,551.4,163Z"/><path class="cls-11" d="M477.35,105.17a2.07,2.07,0,0,0-.46-.24,3,3,0,0,0-.58-.23,4.19,4.19,0,0,0-.85-.22,6.33,6.33,0,0,0-5.3,1.62h0a8.5,8.5,0,0,0-1.88,6.26,10.4,10.4,0,0,0,3.86,7.13,16.14,16.14,0,0,0,8.74,3.52,36,36,0,0,0,10.38-.64,46.91,46.91,0,0,0,15.3-5.91,47.18,47.18,0,0,1,6.31-3.28,17.11,17.11,0,0,1,6-1.23,17.9,17.9,0,0,1,8.62,2,31.67,31.67,0,0,1,2.79,1.76,12.41,12.41,0,0,0-2.69-1.94,17.63,17.63,0,0,0-8.73-2.24,17.24,17.24,0,0,0-6.16,1.2,46,46,0,0,0-6.39,3.26,47,47,0,0,1-15.16,5.81,35.41,35.41,0,0,1-10.23.65,15.67,15.67,0,0,1-8.49-3.36,10,10,0,0,1-3.76-6.8,8.15,8.15,0,0,1,1.72-6h0a6.26,6.26,0,0,1,5.06-1.68A12,12,0,0,1,477.35,105.17Z"/><path class="cls-11" d="M483.2,96.42a6.09,6.09,0,0,0,.37,2.37,10,10,0,0,0,4.14,5,12.61,12.61,0,0,0,4.19,1.73,17.77,17.77,0,0,0,5.2.28c3.67-.28,7.51-1.54,11.54-2.58s8.06-1.59,11.54-.66a15.11,15.11,0,0,1,7.84,5.09,15.59,15.59,0,0,1,3,5.64c.4,1.47.45,2.33.52,2.32a4.81,4.81,0,0,0,0-.62,12.67,12.67,0,0,0-.29-1.75,15.08,15.08,0,0,0-2.91-5.83,15.28,15.28,0,0,0-8-5.32c-3.6-1-7.74-.44-11.79.61s-7.86,2.31-11.45,2.61a17.61,17.61,0,0,1-5.07-.22,12.45,12.45,0,0,1-4.08-1.62,9.91,9.91,0,0,1-4.14-4.74A14.24,14.24,0,0,1,483.2,96.42Z"/><path class="cls-9" d="M488.31,162.79a11.31,11.31,0,0,0,.81,3,3.67,3.67,0,0,0,2.25,2,3.28,3.28,0,0,0,3-.91,5.28,5.28,0,0,0,1.41-2.94c.16-1,0-2.25-1-2.57a2.44,2.44,0,0,0-1.23,0l-5.54,1"/><path class="cls-10" d="M489.28,167a7.3,7.3,0,0,0,2.76.52,3.92,3.92,0,0,0,2.58-1.18,4.15,4.15,0,0,0,1.11-3.22,3.72,3.72,0,0,0-.2-.89c-.13-.27-.09-.24-.32-.28s-.59,0-.89.06l-.93.07c-1.2.09-2.28.15-3.19.2a9.37,9.37,0,0,1-3,0,9.55,9.55,0,0,1,2.91-.61c.9-.12,2-.26,3.17-.4l.92-.1a9.21,9.21,0,0,1,1-.08,1.17,1.17,0,0,1,.73.25,1.59,1.59,0,0,1,.41.61,4.75,4.75,0,0,1-1.17,5.05,4.47,4.47,0,0,1-3.17,1.23,4.24,4.24,0,0,1-2.18-.6C489.43,167.27,489.25,167,489.28,167Z"/><path class="cls-9" d="M484.32,183.23s10.08,3.83,19.89,1.05c0,0-7.4,6.2-20.9,3.82Z"/><path class="cls-12" d="M499.7,326.6a10.68,10.68,0,0,1-1.38-1.05c-.43-.36-1-.79-1.61-1.24s-1.35-1-2.2-1.56-1.73-1.15-2.76-1.72-2.12-1.17-3.29-1.77a51.32,51.32,0,0,0-16.32-4.88c-1.31-.14-2.55-.29-3.72-.33s-2.26-.08-3.25-.07-1.9.06-2.69.09-1.47.09-2,.16a12.18,12.18,0,0,1-1.73.12,10.36,10.36,0,0,1,1.71-.33,20,20,0,0,1,2-.24c.79-.06,1.69-.17,2.7-.17s2.1-.06,3.28,0,2.44.16,3.76.28a49.2,49.2,0,0,1,16.48,4.93c1.17.62,2.3,1.19,3.29,1.83s1.93,1.21,2.75,1.79,1.54,1.14,2.17,1.63,1.15.93,1.56,1.31A11.63,11.63,0,0,1,499.7,326.6Z"/><path class="cls-13" d="M440.93,275.24l8.2-35.53c3.14-13.36,6.86-26.2,13.11-27.72v4.13l-2.68,101.52s-16.71,19-38,8.45c-6.66-3.3-18.81-26.55-18.81-26.55s-28.23-50.45-27.06-52.74,18.45-24.55,20.21-25.66Z"/><path class="cls-13" d="M525.31,202c16.3,3.13,34.65,12.64,43.09,37,3.09,8.89,25.53,74.5,25.53,74.5l-38.27-.8-6.23-13.52,3,21.94,2.59,31.3L458.42,354l.68-47.16.93-93.79s1.08-1.43,17.75-10.62C488.13,196.73,525.31,202,525.31,202Z"/><g class="cls-14"><path d="M535,264.67c1.59,19.81,3.41,25.92,5,45.72a17.7,17.7,0,0,0,1,5.51,5.93,5.93,0,0,0,4,3.64c2.82.57,6.48,2.61,7.27-.15l-2.67-19.07a37.61,37.61,0,0,0-2.64-8.05c-5.93-13.17-8.12-13.94-12-27.6"/></g><path class="cls-13" d="M477.78,212.59l.32-2.06,3.09-19.76a2.28,2.28,0,0,1,2.46-1.93L521.7,192a4.37,4.37,0,0,1,4,4.68l-.85,11.48L513,223.67l-17.11,2.67"/><path class="cls-10" d="M458.67,249.74c.15,0,.26,15.48.26,34.57s-.11,34.57-.26,34.57-.26-15.47-.26-34.57S458.53,249.74,458.67,249.74Z"/><path class="cls-10" d="M556.47,315.83a1.09,1.09,0,0,1-.12-.23c-.09-.18-.19-.4-.32-.68l-1.16-2.63-4.17-9.71-13.59-32.11-7.43-17.7a33.43,33.43,0,0,1-2.46-8,44.13,44.13,0,0,1-.66-7.3A29.47,29.47,0,0,1,528.08,227l.31-.83c.13-.24.24-.48.35-.7a7,7,0,0,1,.6-1.06l.42-.62.16-.2a20.11,20.11,0,0,0-1.65,3.48,30.24,30.24,0,0,0-1.34,10.38,38,38,0,0,0,3.19,15.15l7.47,17.69L551,302.44c1.68,4.1,3.05,7.43,4,9.77l1.07,2.67.27.7A1,1,0,0,1,556.47,315.83Z"/><path class="cls-12" d="M537.17,205.42a10.72,10.72,0,0,1-1.11,1,16.77,16.77,0,0,1-3.65,2.13,27.4,27.4,0,0,1-6.42,1.8,77.26,77.26,0,0,1-8.8.87c-3.28.15-6.86.08-10.7.16a49.49,49.49,0,0,0-12.1,1.47A22.44,22.44,0,0,0,483,219.52a15.71,15.71,0,0,0-3.16,6.24,13.4,13.4,0,0,0,.12,7.16,11.43,11.43,0,0,0,1.67,3.19,8.43,8.43,0,0,0,2.7,2.28,5.8,5.8,0,0,0,3.34.7,4.57,4.57,0,0,0,2.94-1.5,7.94,7.94,0,0,0,1.48-6.33,10.48,10.48,0,0,0-1-3.12,14.81,14.81,0,0,0-1.77-2.68,18.86,18.86,0,0,0-10.26-6.08,21.78,21.78,0,0,0-10.49.12,28.48,28.48,0,0,0-8,3.44,37.48,37.48,0,0,0-5.32,3.95c-1.37,1.21-2.34,2.24-3,2.93l-.74.8-.27.26a33,33,0,0,1,3.9-4.14,36.05,36.05,0,0,1,5.3-4.05,28.72,28.72,0,0,1,8.1-3.55,22.14,22.14,0,0,1,10.68-.18,19.21,19.21,0,0,1,10.53,6.19,16.06,16.06,0,0,1,1.84,2.77,10.9,10.9,0,0,1,1,3.27,10.56,10.56,0,0,1-.06,3.5,6.85,6.85,0,0,1-1.53,3.24,5.11,5.11,0,0,1-3.26,1.68,6.42,6.42,0,0,1-3.64-.76,8.9,8.9,0,0,1-2.87-2.42,11.85,11.85,0,0,1-1.76-3.36,13.8,13.8,0,0,1-.12-7.43,16,16,0,0,1,3.27-6.45,22.79,22.79,0,0,1,11.64-6.84,49.23,49.23,0,0,1,12.22-1.44c3.85-.06,7.43,0,10.69-.1a82.86,82.86,0,0,0,8.77-.78,27.81,27.81,0,0,0,6.4-1.71,17.78,17.78,0,0,0,3.66-2c.4-.27.67-.52.87-.66A2.08,2.08,0,0,1,537.17,205.42Z"/><path class="cls-12" d="M570.24,247a1.4,1.4,0,0,1-.43.07c-.28,0-.69.08-1.23.09a39.61,39.61,0,0,1-4.53-.11c-1.91-.14-4.17-.43-6.67-.77s-5.24-.73-8.14-.88a31.38,31.38,0,0,0-8.09.61A20.4,20.4,0,0,0,535,248.4a18,18,0,0,0-4.56,4,1.42,1.42,0,0,1,.22-.37,7.86,7.86,0,0,1,.72-1,13.78,13.78,0,0,1,3.43-3,20.34,20.34,0,0,1,6.26-2.5,31.1,31.1,0,0,1,8.23-.66c2.93.16,5.68.56,8.18.92s4.74.7,6.63.88,3.44.27,4.5.28A12.66,12.66,0,0,1,570.24,247Z"/><path class="cls-12" d="M546.21,291.87a21.12,21.12,0,0,0-5.74-.49,31.77,31.77,0,0,0-6.67,1.19c-2.55.69-5.4,1.71-8.6,2.69a35.4,35.4,0,0,1-10.78,1.88,31.23,31.23,0,0,1-12.28-2.55,30.58,30.58,0,0,1-11.2-8.15,23.29,23.29,0,0,1-4-6.22,14.22,14.22,0,0,1-1.15-7.51,11,11,0,0,1,3.55-6.69,7.9,7.9,0,0,1,3.37-1.72,7.67,7.67,0,0,1,3.72.12,7.54,7.54,0,0,1,3.21,1.75,6,6,0,0,1,1.8,3.12,6.09,6.09,0,0,1-.27,3.51,8.4,8.4,0,0,1-1.87,2.86,15,15,0,0,1-5.49,3.49,16,16,0,0,1-3,.83c-.5.09-1,.2-1.49.28l-1.49.17a32.21,32.21,0,0,1-10.91-.77,34,34,0,0,1-8.43-3.24,30.62,30.62,0,0,1-5.61-3.88l-1-.87-.82-.83a15.23,15.23,0,0,1-1.24-1.33c-.3-.37-.54-.65-.72-.86s-.23-.3-.23-.31l.28.27c.18.21.43.48.75.83a15,15,0,0,0,1.27,1.29l.83.81,1,.85a31,31,0,0,0,5.61,3.78,34.41,34.41,0,0,0,8.37,3.14,32.4,32.4,0,0,0,10.79.69l1.46-.18c.49-.08,1-.19,1.47-.28a15.31,15.31,0,0,0,2.94-.82,14.38,14.38,0,0,0,5.31-3.39,8.08,8.08,0,0,0,1.76-2.7,5.67,5.67,0,0,0,.24-3.24,6.25,6.25,0,0,0-4.66-4.48,7.14,7.14,0,0,0-3.47-.11,7.27,7.27,0,0,0-3.14,1.62,10.33,10.33,0,0,0-3.37,6.37,13.86,13.86,0,0,0,1.1,7.23,23.22,23.22,0,0,0,3.88,6.09,30.14,30.14,0,0,0,11,8,30.5,30.5,0,0,0,12.09,2.56,35.16,35.16,0,0,0,10.68-1.79c3.19-1,6-2,8.63-2.62a30.92,30.92,0,0,1,6.73-1.11,22.07,22.07,0,0,1,2.49,0c.71.11,1.32.16,1.8.27l1.09.27A1.62,1.62,0,0,1,546.21,291.87Z"/><path class="cls-12" d="M458.34,281.21c-.09,0-.55-1.06-1.52-2.69a26.1,26.1,0,0,0-10.67-9.95c-1.7-.86-2.82-1.24-2.79-1.32s.3,0,.82.18a16,16,0,0,1,2.12.81,23.16,23.16,0,0,1,10.84,10.1,16.72,16.72,0,0,1,1,2.07A2.89,2.89,0,0,1,458.34,281.21Z"/><path class="cls-12" d="M419.53,324a2.08,2.08,0,0,1-.15-.25L419,323c-.36-.66-.88-1.65-1.52-2.93a68.37,68.37,0,0,1-4.58-11.26,36.62,36.62,0,0,1-1.43-8.29,25.93,25.93,0,0,1,.19-4.71,28.06,28.06,0,0,1,1.18-4.85,21.2,21.2,0,0,1,5.87-8.88,14.33,14.33,0,0,1,10.67-3.74,7.86,7.86,0,0,1,5.26,2.55,6.49,6.49,0,0,1,1.49,5.47,4.82,4.82,0,0,1-1.42,2.47,5.69,5.69,0,0,1-2.44,1.33,7.2,7.2,0,0,1-5.23-.63,11.94,11.94,0,0,1-3.81-3.25,17.66,17.66,0,0,1-2.41-4.06,18,18,0,0,1-1.33-8.3,17,17,0,0,1,2-6.65,17.36,17.36,0,0,1,3.14-4.2,15.58,15.58,0,0,1,2.57-2.08,8.19,8.19,0,0,1,.74-.45,1.56,1.56,0,0,1,.26-.13s-.32.23-.94.66a18.18,18.18,0,0,0-2.49,2.14,17.66,17.66,0,0,0-3,4.2,16.7,16.7,0,0,0-1.87,6.54,17.6,17.6,0,0,0,1.36,8.1,17.22,17.22,0,0,0,2.36,3.94,11.57,11.57,0,0,0,3.68,3.11,6.7,6.7,0,0,0,4.88.58,4.72,4.72,0,0,0,3.49-3.43,6,6,0,0,0-1.38-5,7.4,7.4,0,0,0-4.92-2.38A13.87,13.87,0,0,0,419,282.46a20.74,20.74,0,0,0-5.75,8.66,27,27,0,0,0-1.19,4.76,25.87,25.87,0,0,0-.21,4.62,36.75,36.75,0,0,0,1.36,8.21,72.92,72.92,0,0,0,4.4,11.27c.61,1.27,1.09,2.26,1.43,3l.37.77A.83.83,0,0,1,419.53,324Z"/><path class="cls-12" d="M407.19,235.72a1.21,1.21,0,0,1,.09.42,11.54,11.54,0,0,1,.15,1.21,25.56,25.56,0,0,1,0,4.49,28.54,28.54,0,0,1-16.12,23.43,26.92,26.92,0,0,1-4.19,1.62c-.5.15-.91.23-1.18.29a1.87,1.87,0,0,1-.42.07,13.7,13.7,0,0,1,1.54-.56,29.4,29.4,0,0,0,20-24.89,32.5,32.5,0,0,0,.17-4.44A12.7,12.7,0,0,1,407.19,235.72Z"/><path class="cls-12" d="M579,279.08a14.56,14.56,0,0,0-3.86,3.53c-1,1.28-2,2.95-3.13,4.8a36.9,36.9,0,0,1-4.28,5.65,36,36,0,0,1-10.24,7.7,30.06,30.06,0,0,1-3.58,1.53,7.84,7.84,0,0,1-1.38.4,8.29,8.29,0,0,1,1.3-.58c.84-.38,2.06-.89,3.49-1.68a38.5,38.5,0,0,0,10-7.73,38,38,0,0,0,4.25-5.55,51.91,51.91,0,0,1,3.25-4.77,12.51,12.51,0,0,1,2.87-2.66,7.36,7.36,0,0,1,.93-.51C578.87,279.11,579,279.06,579,279.08Z"/><path class="cls-10" d="M525,203.14a2.72,2.72,0,0,1-.46.11l-1.33.24c-1.16.19-2.84.45-4.91.73-4.16.56-9.92,1.21-16.31,1.68a81.06,81.06,0,0,1-9,.32,25.89,25.89,0,0,1-7.29-1.24,16.77,16.77,0,0,1-4.45-2.25,12.43,12.43,0,0,1-1.06-.86,1.83,1.83,0,0,1-.32-.34s.52.39,1.49,1a18.18,18.18,0,0,0,4.45,2.07,26.31,26.31,0,0,0,7.2,1.11,89,89,0,0,0,9-.36c6.37-.47,12.13-1.06,16.29-1.53l4.93-.56A11.55,11.55,0,0,1,525,203.14Z"/><path class="cls-8" d="M593.44,320.53a26.87,26.87,0,0,1-26.11,31.94l-75.75-.84,2-24.53,64.94-9.68"/><path class="cls-8" d="M498.26,328.22c-.35.12-4.72-1.85-8.64-3.66A28.38,28.38,0,0,0,476.31,322l-18.05.92s1.11,3,3,4,13.14,1.28,13.14,1.28l-.58.6a13,13,0,0,1-9,3.93l-1.73,0a17.34,17.34,0,0,1-3.77-.73l-4.45-1.8c-1.35-.61-2.77-.51-3.36.84s-.14,2.92,3.54,4.77c2,1,9.67,3.67,9.67,3.67a17.94,17.94,0,0,0,.45,3.22c.33,1.11,3.32,2.22,3.32,2.22a40.6,40.6,0,0,0,2.66,4.77c.35.4,3.06,1.24,5.95,2.05a25.6,25.6,0,0,0,14.23-.11l6.88-2.05v-21"/><path class="cls-9" d="M473.56,341.91a14.46,14.46,0,0,1-4.7-.67,14.86,14.86,0,0,1-4.41-1.72c.05-.13,2,.63,4.53,1.29S473.57,341.78,473.56,341.91Z"/><path class="cls-9" d="M472.92,346.14a6.58,6.58,0,0,1-4.82-1.31,18.1,18.1,0,0,1,2.4.69A16.26,16.26,0,0,1,472.92,346.14Z"/><path class="cls-9" d="M476.22,326.6a8,8,0,0,1-1.39,1.49,22.27,22.27,0,0,1-3.94,3,15.52,15.52,0,0,1-4.61,1.78,6.28,6.28,0,0,1-2,.22,25.84,25.84,0,0,0,6.42-2.39,30.7,30.7,0,0,0,3.95-2.83A10.76,10.76,0,0,1,476.22,326.6Z"/><path class="cls-13" d="M500.1,324.91l-1.84,27.74,71.35,0a26.64,26.64,0,0,0,13.75-3.8h0a26.7,26.7,0,0,0,12.44-28,82,82,0,0,0-4.6-15.38l-35.88,5.9,1.15,4.47Z"/><path class="cls-10" d="M573,313.51a4.15,4.15,0,0,1-.72.16l-2.09.38-7.67,1.28-25.36,4-25.39,3.88-7.7,1.12-2.1.28a3.4,3.4,0,0,1-.74.06,4.63,4.63,0,0,1,.73-.17l2.08-.37,7.67-1.28,25.37-4L562.46,315l7.7-1.12,2.1-.28A3.4,3.4,0,0,1,573,313.51Z"/><path class="cls-12" d="M536.49,352.7c-.13,0,.43-2,.5-5.27a22.59,22.59,0,0,0-.11-2.66,25.17,25.17,0,0,0-.44-3,28.09,28.09,0,0,0-2.32-6.58,30.1,30.1,0,0,0-3.9-5.8q-.53-.6-1.05-1.17c-.34-.38-.71-.71-1-1-.67-.69-1.38-1.24-2-1.77-2.55-2.05-4.36-3-4.3-3.1a7.73,7.73,0,0,1,1.27.65,13.44,13.44,0,0,1,1.44.87c.53.38,1.19.75,1.82,1.29a26.92,26.92,0,0,1,2.06,1.74c.35.34.74.67,1.09,1l1.09,1.18a29.12,29.12,0,0,1,4,5.88,27.42,27.42,0,0,1,2.32,6.72,22.06,22.06,0,0,1,.4,3.08,19.14,19.14,0,0,1,0,2.71,17.24,17.24,0,0,1-.2,2.22,11.09,11.09,0,0,1-.29,1.65A9.26,9.26,0,0,1,536.49,352.7Z"/><path class="cls-12" d="M579.92,350.61a14.73,14.73,0,0,1-3.31-.4,16.61,16.61,0,0,1-3.7-1.31,14.5,14.5,0,0,1-4.17-3.1,13.22,13.22,0,0,1-3.07-5.5,14.79,14.79,0,0,1-.53-3.5,13.6,13.6,0,0,1,.3-3.73,11.22,11.22,0,0,1,1.47-3.67,8.41,8.41,0,0,1,3-2.86,7.53,7.53,0,0,1,4.19-1,5.62,5.62,0,0,1,3.91,2,5.49,5.49,0,0,1,1.32,4.22,5,5,0,0,1-2.46,3.51,11.72,11.72,0,0,1-7.88,1.08,16.43,16.43,0,0,1-13.91-15.76,11.82,11.82,0,0,1,.28-3.32,27.82,27.82,0,0,0-.08,3.31,16.92,16.92,0,0,0,2.85,8.42A16.33,16.33,0,0,0,569.06,336a11.23,11.23,0,0,0,7.54-1.05,4.5,4.5,0,0,0,2.22-3.15,5,5,0,0,0-1.21-3.81,5.09,5.09,0,0,0-3.56-1.84,6.91,6.91,0,0,0-3.89.89,9,9,0,0,0-4.25,6.18,13.15,13.15,0,0,0-.31,3.62,14.37,14.37,0,0,0,.49,3.39,12.79,12.79,0,0,0,2.92,5.37,14.64,14.64,0,0,0,4,3.1,17.62,17.62,0,0,0,3.61,1.36C578.73,350.51,579.93,350.54,579.92,350.61Z"/></g><g id="Character_1" data-name="Character 1"><path class="cls-4" d="M296.89,48.4H118.2A39.38,39.38,0,0,0,78.82,87.78v63.68H40.27L78.82,190V233.3a39.38,39.38,0,0,0,39.38,39.38H296.89a39.38,39.38,0,0,0,39.38-39.38V87.78A39.38,39.38,0,0,0,296.89,48.4Z"/><path class="cls-10" d="M223.89,55.14c-1.13,2.92.81,6.11,3,8.37s4.81,4.4,5.5,7.46c.57,2.57-.38,5.24-.15,7.86s1.68,5.09,2.5,7.65c1.49,4.64.89,9.71-.44,14.4a26.47,26.47,0,0,1-5.36,10.61,14.14,14.14,0,0,1-10.48,5,4.14,4.14,0,0,1-3.1-1.12,5,5,0,0,1-.89-2.75,268,268,0,0,1,0-60.59"/><path class="cls-10" d="M221.78,120c8.7-.38,16.74,7.94,16.05,16.62,8.81,2.15,15,11.84,13.31,20.74-.57,2.94-1.88,5.74-2.06,8.73-.2,3.25,1,6.42,1.59,9.62a30.34,30.34,0,0,1-1.74,17.36c-1.37,3.31-3.93,6.73-7.51,6.83a7.4,7.4,0,0,1-6-3.53,18.54,18.54,0,0,1-2.42-6.83c-1.55-7.81-2-15.84-4.16-23.52s-6.31-15.23-13.25-19.13c-3.83-2.16-8.43-3.18-11.48-6.36a12.47,12.47,0,0,1-2.25-12.9,16.41,16.41,0,0,1,9.8-9.15"/><path class="cls-10" d="M161.56,62.3c-.1-3.72,3.33-6.59,6.79-7.95s7.31-1.88,10.39-4c2.74-1.84,4.57-4.71,6.88-7a22.89,22.89,0,0,1,38.5,10.5c1.33,5.29.42,11.55-3.75,15.07-4.84,4.08-12,3.18-18.23,1.91S188.91,68.3,183.73,72c-3.12,2.2-4.92,5.77-6.83,9.08S172.6,87.72,169,89s-8.52-.9-8.66-4.72"/><path class="cls-15" d="M176.22,63.06a6.23,6.23,0,0,0-5.55,6.33h0l3.71,84c.16,9.92,14.66,15.49,25.28,15.25h0c10.73-.25,11.07-5.51,11.21-14.95.22-15.77.2-21.69.21-21.6s13.55-2.28,16.32-20c1.37-8.8.9-23.22.13-35-.69-10.61-7.75-23.61-18.32-22.47Z"/><path class="cls-10" d="M224.48,88.22a2.26,2.26,0,0,1-2.18,2.29,2.16,2.16,0,0,1-2.34-2,2.26,2.26,0,0,1,2.18-2.29A2.16,2.16,0,0,1,224.48,88.22Z"/><path class="cls-10" d="M224.42,84.62c-.28.3-2-1-4.44-1s-4.23,1.24-4.5.94c-.13-.13.16-.66.94-1.23A6.19,6.19,0,0,1,220,82.25a6,6,0,0,1,3.54,1.13C224.3,84,224.56,84.49,224.42,84.62Z"/><path class="cls-10" d="M201,88.22a2.27,2.27,0,0,1-2.18,2.29,2.16,2.16,0,0,1-2.34-2,2.27,2.27,0,0,1,2.18-2.29A2.17,2.17,0,0,1,201,88.22Z"/><path class="cls-10" d="M200.43,85.13c-.28.3-2-1-4.44-1s-4.23,1.24-4.49.94c-.13-.13.15-.67.93-1.24A6.22,6.22,0,0,1,196,82.76a6,6,0,0,1,3.54,1.13C200.31,84.47,200.57,85,200.43,85.13Z"/><path class="cls-10" d="M209.33,103.21c0-.14,1.5-.4,4-.72.62-.07,1.21-.19,1.32-.62a3.22,3.22,0,0,0-.42-1.84l-1.86-4.75c-2.57-6.75-4.44-12.3-4.16-12.4s2.58,5.29,5.15,12l1.78,4.77a3.68,3.68,0,0,1,.33,2.44,1.58,1.58,0,0,1-1,.92,4.41,4.41,0,0,1-1.05.15C210.87,103.34,209.34,103.35,209.33,103.21Z"/><path class="cls-16" d="M211.08,132.09a45,45,0,0,1-23.7-6.27s5.77,12.14,23.47,10.45Z"/><path class="cls-16" d="M208.31,109.1a4.4,4.4,0,0,0-3.95-1.63,4,4,0,0,0-2.77,1.49,2.54,2.54,0,0,0-.18,2.91,3,3,0,0,0,3.2.81,9.46,9.46,0,0,0,3.11-1.87,2.7,2.7,0,0,0,.7-.73.8.8,0,0,0,0-.9"/><path class="cls-10" d="M202.15,104.92c.4,0,.41,2.62,2.68,4.5s5.09,1.57,5.11,1.94c0,.17-.63.52-1.82.56a6.61,6.61,0,0,1-4.27-1.48,5.75,5.75,0,0,1-2.07-3.77C201.67,105.56,202,104.9,202.15,104.92Z"/><path class="cls-10" d="M201.52,80.86c-.24.66-2.68.35-5.54.7s-5.18,1.14-5.56.55c-.17-.29.23-.91,1.16-1.56a9.72,9.72,0,0,1,8.46-1C201.09,80,201.62,80.54,201.52,80.86Z"/><path class="cls-10" d="M223.51,77.56c-.43.56-2.11,0-4.14,0s-3.73.38-4.12-.19c-.18-.29.09-.84.84-1.37a6,6,0,0,1,6.65.19C223.46,76.72,223.69,77.29,223.51,77.56Z"/><path class="cls-10" d="M163.87,121.25a15.7,15.7,0,0,0,18.68-17.37c-.55-4.34-2.89-8.76-1.38-12.87,2-5.44,9.61-7.11,11.63-12.53,1.17-3.16.12-6.84,1.45-9.93,1.25-2.91,4.31-4.58,7.29-5.66s6.16-1.81,8.66-3.76,4.05-5.6,2.44-8.32A167.5,167.5,0,0,0,174,60.2c-2.89,1.07-5.92,2.37-7.63,4.93-1.8,2.72-1.71,6.23-1.56,9.48.74,15.88-1.68,30.76-.94,46.64"/><path class="cls-11" d="M159.66,116.26a1,1,0,0,1-.29-.09,4,4,0,0,1-.81-.39,6,6,0,0,1-2.2-2.61,8.72,8.72,0,0,1-.58-5.37,17.16,17.16,0,0,1,3.21-6.43c1.55-2.16,3.52-4.34,4.86-7.14A11,11,0,0,0,165,89.68a15.12,15.12,0,0,0-1-4.92,15,15,0,0,1-1-5.35,12,12,0,0,1,5.75-9.66,13.76,13.76,0,0,1,5.83-1.66,24.53,24.53,0,0,0,5.83-1,7.58,7.58,0,0,0,4.1-3.69,28.28,28.28,0,0,0,1.94-5.22,28.25,28.25,0,0,1,2-5A19,19,0,0,1,195,45.66a14.33,14.33,0,0,1,8.39-2.17,10.73,10.73,0,0,1,6.61,2.7,10.5,10.5,0,0,1,3,4.54,8.41,8.41,0,0,1,.41,3.4,5,5,0,0,1-.2,1.18s.07-.41.1-1.18a8.82,8.82,0,0,0-.5-3.33,10.34,10.34,0,0,0-3-4.39,10.46,10.46,0,0,0-6.43-2.56A14,14,0,0,0,195.24,46a18.55,18.55,0,0,0-6.44,7.3,27.54,27.54,0,0,0-1.94,5,28.5,28.5,0,0,1-2,5.31A9.31,9.31,0,0,1,183.1,66a7.75,7.75,0,0,1-2.58,1.57,25.09,25.09,0,0,1-6,1,13.16,13.16,0,0,0-5.62,1.59,11.48,11.48,0,0,0-5.51,9.23,14.72,14.72,0,0,0,1,5.18,15.26,15.26,0,0,1,1,5.07,11.48,11.48,0,0,1-1.24,4.74c-1.4,2.86-3.39,5-5,7.17a16.83,16.83,0,0,0-3.22,6.27,8.52,8.52,0,0,0,.47,5.23,6,6,0,0,0,2.08,2.6C159.26,116.12,159.67,116.22,159.66,116.26Z"/><path class="cls-11" d="M211.05,39.15a1.64,1.64,0,0,1,.69.21,7.42,7.42,0,0,1,1.67,1,8.58,8.58,0,0,1,1.75,11.71,8.05,8.05,0,0,1-1.3,1.46,2,2,0,0,1-.6.4c-.07-.08.75-.7,1.59-2.06a8.62,8.62,0,0,0-1.67-11.22A24.4,24.4,0,0,0,211.05,39.15Z"/><path class="cls-11" d="M250.23,160.52a14.32,14.32,0,0,0,.51-1.87,8.64,8.64,0,0,0-.87-5.09,11.78,11.78,0,0,0-5.58-5.21,22.53,22.53,0,0,0-4.35-1.54c-1.56-.41-3.21-.74-4.86-1.27a11.21,11.21,0,0,1-4.47-2.44,7.51,7.51,0,0,1-2.11-4.25c-.27-1.49-.36-2.9-.69-4.16a8.23,8.23,0,0,0-1.61-3.18,9.19,9.19,0,0,0-4.28-2.91,18.79,18.79,0,0,0-1.9-.41,1.48,1.48,0,0,1,.51,0,7.28,7.28,0,0,1,1.45.22,9.07,9.07,0,0,1,4.5,2.87,8.52,8.52,0,0,1,1.75,3.31c.36,1.31.47,2.74.74,4.18a7,7,0,0,0,2,4,10.52,10.52,0,0,0,4.27,2.31c1.61.52,3.26.86,4.83,1.27a23,23,0,0,1,4.43,1.61,12,12,0,0,1,5.7,5.48,8.58,8.58,0,0,1,.74,5.28,6.57,6.57,0,0,1-.45,1.4A2.09,2.09,0,0,1,250.23,160.52Z"/><path class="cls-10" d="M173.31,129.2c-9-2.39-16.7-11.17-19.84-19.9s-3.14-18.25-2.33-27.49c.58-6.7,1.75-13.78,6.2-18.82,6.7-7.6,14-11.47,24.08-11.16"/><path class="cls-1" d="M225.61,148.7l-8.35-2.09a4.77,4.77,0,0,0,1.66-5.83,7.65,7.65,0,0,0-6.38-4.73l-38.09-4.3a3.05,3.05,0,0,0-3.19,1.88q-2.53,6.44-.17,10.6h-.18l-7.34,1.46L151.16,255.43l81.48-3.81Z"/><path class="cls-10" d="M213.63,147a8.61,8.61,0,0,1-1.53.3c-1,.16-2.43.34-4.21.51A98.36,98.36,0,0,1,180,146.44c-1.76-.34-3.17-.67-4.14-.92a8.54,8.54,0,0,1-1.49-.45,10.17,10.17,0,0,1,1.53.25c1,.2,2.41.46,4.17.76a115.46,115.46,0,0,0,27.79,1.38c1.78-.12,3.22-.24,4.22-.34A9.35,9.35,0,0,1,213.63,147Z"/><path class="cls-2" d="M176.8,164.46a29.92,29.92,0,0,1,2.85-4.74,29.58,29.58,0,0,1,3.29-4.45,29.56,29.56,0,0,1-2.86,4.74A29.16,29.16,0,0,1,176.8,164.46Z"/><path class="cls-2" d="M203.06,166.32a29.34,29.34,0,0,1-3.62-4.08,29.36,29.36,0,0,1-3.21-4.42,29.09,29.09,0,0,1,3.62,4.09A28.74,28.74,0,0,1,203.06,166.32Z"/><path class="cls-2" d="M190.86,180.27a30.79,30.79,0,0,1-1.23-5.46,28.81,28.81,0,0,1-.71-5.55,30.52,30.52,0,0,1,1.23,5.46A30.74,30.74,0,0,1,190.86,180.27Z"/><path class="cls-2" d="M210.91,181.13a43.6,43.6,0,0,1-4.62,4.93,45.49,45.49,0,0,1-5,4.55,42.5,42.5,0,0,1,4.62-4.93A45.49,45.49,0,0,1,210.91,181.13Z"/><path class="cls-2" d="M184,199.83a17.93,17.93,0,0,1-5-4,18.14,18.14,0,0,1-3.7-5.2c.14-.08,1.67,2.32,4.08,4.85S184.12,199.7,184,199.83Z"/><path class="cls-2" d="M192.66,214.27c.05.15-2.28.89-4.92,2.29s-4.57,2.89-4.67,2.77a14.19,14.19,0,0,1,4.43-3.23A14.39,14.39,0,0,1,192.66,214.27Z"/><path class="cls-2" d="M206.71,215.21a10.9,10.9,0,0,1-1.59-1.71c-.92-1.11-2.15-2.68-3.43-4.47s-2.36-3.46-3.11-4.69a9.62,9.62,0,0,1-1.1-2.06,10.94,10.94,0,0,1,1.41,1.86l3.23,4.59,3.29,4.54A10.44,10.44,0,0,1,206.71,215.21Z"/><path class="cls-2" d="M208.12,227.52a28.58,28.58,0,0,1-6,1.4,29,29,0,0,1-6.15.61,50.69,50.69,0,0,1,6.07-1.12A51.76,51.76,0,0,1,208.12,227.52Z"/><path class="cls-2" d="M185.37,145.47c-.07-.05.41-.6.82-1.66a8.8,8.8,0,0,0,.44-4.34,17.84,17.84,0,0,0-1.29-4.27,8.34,8.34,0,0,1-.68-1.75,5.54,5.54,0,0,1,1,1.6,13.84,13.84,0,0,1,1.47,4.35,8.11,8.11,0,0,1-.61,4.56C186,145,185.41,145.52,185.37,145.47Z"/><path class="cls-2" d="M200.59,137.26a6.67,6.67,0,0,1,1.5,3.27,6.82,6.82,0,0,1,.11,3.61c-.15,0-.17-1.6-.62-3.49S200.45,137.33,200.59,137.26Z"/><path class="cls-15" d="M269.24,215.44l37.9-66.57,4.57-11.54s11.82-25.41,12.64-28c.95-3,2.62-3.25,3.7-2.82,1.68.66,2.22,3.16,1.48,5.75-.26.89-4.85,14.85-4.85,14.85a35.15,35.15,0,0,1,3.92-2.91c2.91-2,8.24-1.9,13.18-.14s6.16,2.69,5.57,4.64a2.63,2.63,0,0,1-1.59,1.57,5.16,5.16,0,0,1-3.65.08c-7.94-2.71-11.46.87-11.46.87l-.59,1.51s6-1.91,9.36.79a4.9,4.9,0,0,1,1.24,1.45A6.56,6.56,0,0,1,343.09,146c-.82.76-2,1.31-3,.77a3.5,3.5,0,0,1-1.13-1.31,5.26,5.26,0,0,0-.55-.76l-2.26,4s-5.57,8.71-7.57,12.77L302.47,231a18.4,18.4,0,0,1-24,10.65h0A18.41,18.41,0,0,1,269.24,215.44Z"/><path class="cls-15" d="M309.75,148.65c1.34.87,3.19.28,4.39-.77s2-2.46,3.16-3.59c3.37-3.38,9-3.69,12.23-7.23.45-.49.85-1.24.46-1.78s-1.11-.43-1.71-.31L312.77,138"/><path class="cls-16" d="M312.77,138a6.35,6.35,0,0,1,1.64-.51c1.07-.26,2.63-.62,4.55-1l6.76-1.44,2-.4a3.15,3.15,0,0,1,2.37.07,1.34,1.34,0,0,1,.5,1.41,2.65,2.65,0,0,1-.6,1.14,10.73,10.73,0,0,1-1.75,1.55c-2.58,1.78-5.41,2.52-7.67,3.7a11.71,11.71,0,0,0-2.94,2c-.8.77-1.43,1.65-2.09,2.4a5.58,5.58,0,0,1-4.11,2.31c-1.19,0-1.68-.58-1.64-.59a4.82,4.82,0,0,0,1.62.24,5.41,5.41,0,0,0,3.64-2.37,32.2,32.2,0,0,1,2.05-2.52,12.09,12.09,0,0,1,3.09-2.22c2.33-1.26,5.15-2,7.53-3.7a9.65,9.65,0,0,0,1.58-1.39c.44-.49.59-1.08.28-1.25s-1-.09-1.69.05l-2,.37-6.8,1.25c-1.94.34-3.51.61-4.6.77A6.44,6.44,0,0,1,312.77,138Z"/><path class="cls-16" d="M329.85,132.75a6.54,6.54,0,0,1,1.78-2.4,5,5,0,0,1,3-1,12.65,12.65,0,0,1,4,.67,21.05,21.05,0,0,0,4.06.92,6.64,6.64,0,0,0,3.4-.53,2.58,2.58,0,0,0,1.45-1.81,1.65,1.65,0,0,0,0-.86c-.06,0-.06.31-.21.8a2.4,2.4,0,0,1-1.41,1.5,6.6,6.6,0,0,1-3.18.36,22.76,22.76,0,0,1-3.94-.94,12.53,12.53,0,0,0-4.14-.65,5.28,5.28,0,0,0-3.23,1.2,4.65,4.65,0,0,0-1.35,1.89C329.83,132.44,329.81,132.75,329.85,132.75Z"/><path class="cls-16" d="M329.8,111.27a16.51,16.51,0,0,0-.94,2.77l-2.07,6.71c-.81,2.51-1.55,4.78-2.17,6.69a16.5,16.5,0,0,0-.83,2.8,13.45,13.45,0,0,0,1.22-2.66c.66-1.68,1.5-4,2.34-6.65s1.49-5,1.91-6.79A13.91,13.91,0,0,0,329.8,111.27Z"/><path class="cls-16" d="M332,136.92a4.22,4.22,0,0,0,.92-.06,2.69,2.69,0,0,1,2.18.59,1.45,1.45,0,0,1,.35,1.39,7.78,7.78,0,0,1-.71,1.77,3.24,3.24,0,0,0-.37,2.29,2.79,2.79,0,0,0,1.78,1.79,3.16,3.16,0,0,0,2.49-.25,3.83,3.83,0,0,0,1.65-1.61,12.41,12.41,0,0,0,1.09-3.6,7.42,7.42,0,0,0,0-2.53,1.7,1.7,0,0,0-.35-.86c-.05,0,.08.32.13.9a8.76,8.76,0,0,1-.21,2.42,14.1,14.1,0,0,1-1.16,3.42,3.12,3.12,0,0,1-3.48,1.56,2.2,2.2,0,0,1-1.42-1.4,2.77,2.77,0,0,1,.31-1.91,7.81,7.81,0,0,0,.69-1.91,1.87,1.87,0,0,0-.54-1.77,2.84,2.84,0,0,0-2.5-.51A2.26,2.26,0,0,0,332,136.92Z"/><path class="cls-16" d="M338.53,144s-.19.26-.17.81a2.53,2.53,0,0,0,1.16,2,3.41,3.41,0,0,0,3.37,0,5.48,5.48,0,0,0,2.54-3.24,6.66,6.66,0,0,0,0-4.12,6.36,6.36,0,0,0-1.85-2.8,6,6,0,0,0-1.93-1.16c-.5-.18-.8-.21-.81-.17a10.14,10.14,0,0,1,2.46,1.63,6.27,6.27,0,0,1,1.58,6.44,5.16,5.16,0,0,1-2.25,2.95,3,3,0,0,1-2.9.09,2.48,2.48,0,0,1-1.15-1.63C338.5,144.25,338.58,144,338.53,144Z"/><path class="cls-16" d="M325.91,150.21a2.39,2.39,0,0,0-1.34-.41,5.5,5.5,0,0,0-3.48.83l.43.29a16.21,16.21,0,0,0,.28-2c.35-3.87-.88-6.84-1-6.77a31.25,31.25,0,0,1,.43,6.72,17.51,17.51,0,0,1-.25,1.9l-.12.65.55-.36a5.72,5.72,0,0,1,3.15-.95A11.22,11.22,0,0,0,325.91,150.21Z"/><path class="cls-16" d="M333.8,126.49c-.16,0,.06,1.2,1.12,2.12s2.25,1,2.25.83-.95-.45-1.86-1.27S334,126.43,333.8,126.49Z"/><path class="cls-17" d="M215.45,270.68l39.65.39-6.67-28.77,2.23,5.43a27.31,27.31,0,0,0,25.27,17h0c12.54,0,21.21-9.33,26.51-20.69,12.4-26.56,24.35-69.33,24.35-69.33l-24.17-21.24c-17.5,33.1-33.94,61.84-33.94,61.84s-4.75-14.43-8.42-27.3-3.64-19.65-9.27-26.07c-8.67-9.87-21-12.33-32.48-15.28L218.08,200l-2.63,70.64"/><path class="cls-17" d="M170.11,230.88l72.2,14.06,3.51,27.74H135.12a21.81,21.81,0,0,1-22-23.53c1.59-20.21,3.32-45.12,4.64-55.65,1-8.2,4.29-16.69,8.17-24,5.59-10.52,24.22-24,40.55-24.7l3.09,68.77"/><g class="cls-5"><path d="M215.45,270.68l39.65.39-6.67-28.77,2.23,5.43a27.31,27.31,0,0,0,25.27,17h0c12.54,0,21.21-9.33,26.51-20.69,12.4-26.56,24.35-69.33,24.35-69.33l-24.17-21.24c-17.5,33.1-33.94,61.84-33.94,61.84s-4.75-14.43-8.42-27.3-3.64-19.65-9.27-26.07c-8.67-9.87-21-12.33-32.48-15.28L218.08,200l-2.63,70.64"/><path d="M170.11,230.88l65.12,12a6.79,6.79,0,0,1,5.43,5.28l5.16,24.57H135.12a21.81,21.81,0,0,1-22-23.53c1.59-20.21,3.32-45.12,4.64-55.65,1-8.2,4.29-16.69,8.17-24,5.59-10.52,24.22-24,40.55-24.7l3.09,68.77"/></g><path class="cls-10" d="M156.36,228.87a2.82,2.82,0,0,1,0-.66c0-.49,0-1.11,0-1.89,0-1.71,0-4.07,0-7,0-5.87-.11-14-.56-22.93-.23-4.47-.52-8.73-.83-12.6a51.92,51.92,0,0,0-1.45-10.16,14.56,14.56,0,0,0-3.18-6,20.51,20.51,0,0,0-1.91-1.67,7.45,7.45,0,0,1,2.05,1.53,14,14,0,0,1,3.39,6.07,50,50,0,0,1,1.58,10.22c.34,3.87.64,8.13.87,12.61.46,9,.51,17.09.41,23-.06,2.93-.14,5.31-.21,6.95l-.11,1.89A2.4,2.4,0,0,1,156.36,228.87Z"/><path class="cls-10" d="M240.91,246.9a11.25,11.25,0,0,0-2.63-2.13,16.62,16.62,0,0,0-3.69-1.47c-1.49-.43-3.24-.76-5.17-1.15-7.72-1.57-18.37-3.76-30.17-6s-22.54-4-30.31-5.23l-9.21-1.48-2.5-.42a5.43,5.43,0,0,1-.87-.18,5.16,5.16,0,0,1,.88.08l2.52.32c2.18.29,5.34.73,9.23,1.31,7.79,1.16,18.54,2.88,30.35,5.09s22.46,4.45,30.15,6.12c1.93.42,3.68.77,5.18,1.23a15.93,15.93,0,0,1,3.71,1.58,8.29,8.29,0,0,1,2,1.6,4.86,4.86,0,0,1,.42.51A.89.89,0,0,1,240.91,246.9Z"/><path class="cls-10" d="M156.58,228.87c0,.09-1.33.41-3.39,1.24a30.29,30.29,0,0,0-3.5,1.73,31.32,31.32,0,0,0-3.89,2.74,29.7,29.7,0,0,0-3.37,3.36,27.37,27.37,0,0,0-2.3,3.15c-1.18,1.88-1.72,3.16-1.81,3.12a3.9,3.9,0,0,1,.31-.93,20.36,20.36,0,0,1,1.18-2.38,25.08,25.08,0,0,1,2.25-3.26,27.56,27.56,0,0,1,3.4-3.46,28.21,28.21,0,0,1,4-2.76,23.82,23.82,0,0,1,3.59-1.65,18.51,18.51,0,0,1,2.56-.75A3.83,3.83,0,0,1,156.58,228.87Z"/><path class="cls-10" d="M249.81,246.15a4,4,0,0,1-.15-.68c-.08-.51-.19-1.17-.32-2-.28-1.73-.65-4.23-1.07-7.33-.84-6.19-1.86-14.77-2.72-24.27s-1.37-18.12-1.65-24.37c-.14-3.12-.22-5.65-.26-7.39,0-.84,0-1.5,0-2a3.75,3.75,0,0,1,0-.7,3,3,0,0,1,.08.7l.13,2c.11,1.8.25,4.31.43,7.38.37,6.24.95,14.85,1.8,24.35s1.82,18.07,2.57,24.27c.37,3,.68,5.55.9,7.34.09.83.17,1.49.23,2A2.85,2.85,0,0,1,249.81,246.15Z"/><path class="cls-10" d="M273.75,235.4s-.23-.22-.58-.66a20,20,0,0,1-1.33-2,26.4,26.4,0,0,1-3.55-15.17,16.84,16.84,0,0,1,.32-2.37,3.33,3.33,0,0,1,.22-.85c.09,0-.1,1.25-.17,3.24a29.82,29.82,0,0,0,3.5,15C273.1,234.33,273.83,235.35,273.75,235.4Z"/><path class="cls-12" d="M156.07,191.72a1.73,1.73,0,0,1-.37.08c-.25,0-.62.09-1.09.1a16.93,16.93,0,0,1-4-.31,29.25,29.25,0,0,1-5.69-1.79c-2.07-.85-4.27-2-6.57-3.1a49.53,49.53,0,0,0-6.66-2.79,22.15,22.15,0,0,0-5.74-1.12,19.34,19.34,0,0,0-5.37.6,1.4,1.4,0,0,1,.35-.16,8.45,8.45,0,0,1,1-.35,13.72,13.72,0,0,1,4-.46,21.81,21.81,0,0,1,5.88,1,46.78,46.78,0,0,1,6.74,2.78c2.31,1.15,4.49,2.26,6.53,3.13a30.85,30.85,0,0,0,5.57,1.87A26.68,26.68,0,0,0,156.07,191.72Z"/><path class="cls-12" d="M168.43,189.28a34.48,34.48,0,0,1-5.88,1.26,35.46,35.46,0,0,1-6,.76,35,35,0,0,1,5.88-1.27A34.67,34.67,0,0,1,168.43,189.28Z"/><path class="cls-12" d="M155.62,210.75a9.21,9.21,0,0,1-1.45.62c-.95.37-2.34.87-4.07,1.43a103.35,103.35,0,0,1-13.82,3.42c-2.74.48-5.37.83-7.77,1.07a31.53,31.53,0,0,1-6.42.17,10.74,10.74,0,0,1-4.16-1.19,5.89,5.89,0,0,1-1-.64c-.21-.17-.32-.26-.31-.28s.48.31,1.39.74a11.66,11.66,0,0,0,4.11,1,33.15,33.15,0,0,0,6.33-.29c2.39-.26,5-.62,7.73-1.1a126.86,126.86,0,0,0,13.8-3.26c1.74-.51,3.14-1,4.11-1.27A8.47,8.47,0,0,1,155.62,210.75Z"/><path class="cls-12" d="M168.15,216a28.29,28.29,0,0,1-5.45.35,28.06,28.06,0,0,1-5.45-.17,29.28,29.28,0,0,1,5.45-.35A29,29,0,0,1,168.15,216Z"/><path class="cls-12" d="M116.69,261.57a1.86,1.86,0,0,1,.11-.53c.1-.4.24-.9.4-1.5.09-.34.19-.7.3-1.09s.3-.8.46-1.25a31.4,31.4,0,0,1,1.24-3l.81-1.71c.29-.59.66-1.17,1-1.79a42.77,42.77,0,0,1,2.46-3.82,45.86,45.86,0,0,1,15.57-13.55c1.44-.7,2.78-1.41,4.12-1.9.67-.26,1.29-.55,1.92-.75l1.81-.57a28.38,28.38,0,0,1,3.16-.81c.47-.1.9-.21,1.3-.28l1.12-.15,1.54-.19a1.84,1.84,0,0,1,.54,0,2.45,2.45,0,0,1-.53.14l-1.52.28-1.1.2c-.4.08-.83.2-1.29.32a29.69,29.69,0,0,0-3.11.87l-1.78.6c-.62.21-1.24.5-1.89.77a42.08,42.08,0,0,0-4.06,1.93,50.86,50.86,0,0,0-8.45,5.85,52,52,0,0,0-7,7.55c-.9,1.31-1.79,2.52-2.47,3.76-.35.61-.72,1.18-1,1.76l-.84,1.68c-.57,1.06-.92,2.09-1.3,3-.17.44-.35.85-.49,1.23l-.35,1.07-.49,1.46A2.12,2.12,0,0,1,116.69,261.57Z"/><path class="cls-12" d="M166.84,230.85a18,18,0,0,0-4.1,5.16,24.86,24.86,0,0,0-2.3,6.79,70.44,70.44,0,0,0-.95,8.79,63.28,63.28,0,0,1-1,8.86,24.41,24.41,0,0,1-2.51,6.84,15.56,15.56,0,0,1-3.05,3.86,9.23,9.23,0,0,1-1,.82,1.69,1.69,0,0,1-.4.25,17.72,17.72,0,0,0,4.18-5.11,24.92,24.92,0,0,0,2.36-6.76,65.07,65.07,0,0,0,1-8.79,64.77,64.77,0,0,1,1-8.85,24.36,24.36,0,0,1,2.44-6.87,15.5,15.5,0,0,1,3-3.9,11.59,11.59,0,0,1,1-.84A1.79,1.79,0,0,1,166.84,230.85Z"/><path class="cls-12" d="M183.91,272.85c-.14,0,0-8.63.37-19.25s.75-19.23.89-19.23,0,8.62-.37,19.25S184.05,272.85,183.91,272.85Z"/><path class="cls-12" d="M211.05,271.36a6.64,6.64,0,0,1-.44-1.24c-.13-.41-.28-.91-.41-1.5s-.31-1.26-.42-2a35.39,35.39,0,0,1-.53-5.34,41.08,41.08,0,0,1,.42-6.56,40.66,40.66,0,0,1,1.56-6.39,35.87,35.87,0,0,1,2.11-4.93c.33-.69.7-1.28,1-1.8a14.56,14.56,0,0,1,.84-1.31,6.48,6.48,0,0,1,.79-1.06c.09.06-1,1.61-2.31,4.33a39.76,39.76,0,0,0-2,4.92,39.37,39.37,0,0,0-2,12.79,40.85,40.85,0,0,0,.41,5.29C210.59,269.53,211.15,271.34,211.05,271.36Z"/><path class="cls-12" d="M165,160.84c0,.08-1.58-.61-4.18-1.45a47.27,47.27,0,0,0-21-1.85c-2.7.37-4.35.78-4.37.69a4.48,4.48,0,0,1,1.13-.37,29,29,0,0,1,3.18-.69A42.52,42.52,0,0,1,160.9,159a32,32,0,0,1,3,1.24A5.23,5.23,0,0,1,165,160.84Z"/><path class="cls-12" d="M244,202.88a28,28,0,0,1-3.71,0c-2.29-.09-5.45-.21-8.94-.3s-6.65-.12-8.94-.15a29.16,29.16,0,0,1-3.71-.12,3.52,3.52,0,0,1,1-.13c.64,0,1.57-.08,2.72-.12,2.29-.07,5.45-.09,8.95,0s6.66.27,9,.45c1.14.09,2.06.18,2.7.25A4.42,4.42,0,0,1,244,202.88Z"/><path class="cls-12" d="M263.7,199.15c0,.08-1.25.52-3.2,1.48A31.3,31.3,0,0,0,248,211.77c-1.18,1.82-1.75,3-1.83,3a3,3,0,0,1,.32-.9,20.38,20.38,0,0,1,1.2-2.31,28,28,0,0,1,5.46-6.61,28.27,28.27,0,0,1,7.19-4.67,21.27,21.27,0,0,1,2.43-.92A2.92,2.92,0,0,1,263.7,199.15Z"/><path class="cls-12" d="M254,167.09a14.89,14.89,0,0,0-5.08.71,35.19,35.19,0,0,0-5.13,2.28,41.58,41.58,0,0,1-6.34,2.85,25.85,25.85,0,0,1-12.53.82,24.71,24.71,0,0,1-3.69-1,7,7,0,0,1-1.29-.57,50.83,50.83,0,0,0,5,1.2,26.72,26.72,0,0,0,12.31-.95,44.08,44.08,0,0,0,6.29-2.78,32.53,32.53,0,0,1,5.23-2.2,11.45,11.45,0,0,1,3.8-.54,6.14,6.14,0,0,1,1,.09C253.84,167,254,167.07,254,167.09Z"/><path class="cls-12" d="M249,234.12a6.31,6.31,0,0,1-1.16.54c-.38.16-.85.35-1.41.53s-1.19.42-1.9.6a37.43,37.43,0,0,1-5.1,1.06,39,39,0,0,1-12.69-.38,36.71,36.71,0,0,1-5-1.36c-.71-.23-1.32-.5-1.86-.72a13.84,13.84,0,0,1-1.38-.61,7.43,7.43,0,0,1-1.13-.61c0-.09,1.69.7,4.49,1.59a43.75,43.75,0,0,0,5,1.24,41.65,41.65,0,0,0,12.54.37,42,42,0,0,0,5.06-.94C247.25,234.72,248.94,234,249,234.12Z"/><path class="cls-12" d="M272,263.71a2.05,2.05,0,0,1-.39-.32c-.23-.23-.61-.54-1-1a23.81,23.81,0,0,1-3.16-4.24,34.52,34.52,0,0,1-4.46-16.75,67.33,67.33,0,0,1,2.27-17.26c.54-2.17,1-3.9,1.37-5.1.17-.55.31-1,.42-1.37a1.63,1.63,0,0,1,.18-.47,1.75,1.75,0,0,1-.08.5c-.09.37-.19.83-.32,1.39-.3,1.29-.71,3-1.21,5.13a72.38,72.38,0,0,0-2.11,17.17A35.37,35.37,0,0,0,267.69,258a26.81,26.81,0,0,0,3,4.3C271.49,263.18,272,263.67,272,263.71Z"/><path class="cls-12" d="M308.34,229.75a20.06,20.06,0,0,0-5.29-3,41.49,41.49,0,0,0-6.4-1.66,73.43,73.43,0,0,1-8-1.84A32.84,32.84,0,0,1,276,215.66a30.2,30.2,0,0,1-3-3.37c-.33-.42-.55-.77-.71-1s-.23-.36-.21-.37a13.83,13.83,0,0,1,1.08,1.25,36.2,36.2,0,0,0,3.09,3.22,34.07,34.07,0,0,0,12.57,7.4c2.74.87,5.45,1.33,7.91,1.86a38.91,38.91,0,0,1,6.44,1.79,15.34,15.34,0,0,1,3.94,2.19,7.91,7.91,0,0,1,.92.81C308.26,229.63,308.36,229.74,308.34,229.75Z"/><path class="cls-12" d="M319.78,196.38a6.72,6.72,0,0,1-1.07-.93c-.33-.31-.73-.69-1.23-1.1s-1-.92-1.68-1.41a45.88,45.88,0,0,0-4.64-3.29,50.8,50.8,0,0,0-6.18-3.21,51.9,51.9,0,0,0-6.58-2.25,48.05,48.05,0,0,0-5.59-1.09c-.8-.13-1.53-.17-2.17-.24s-1.2-.11-1.65-.13a7,7,0,0,1-1.41-.13,7.85,7.85,0,0,1,1.41-.07,16.67,16.67,0,0,1,1.67,0c.64,0,1.39.06,2.2.17a40.21,40.21,0,0,1,5.65,1,42.89,42.89,0,0,1,12.9,5.52,40.46,40.46,0,0,1,4.63,3.41c.63.51,1.16,1,1.64,1.47s.86.84,1.17,1.18A8,8,0,0,1,319.78,196.38Z"/><path class="cls-12" d="M232.28,150.48a7.07,7.07,0,0,1-1.9.91,34.42,34.42,0,0,1-4.85,1.5,36.55,36.55,0,0,1-5,.81,7.11,7.11,0,0,1-2.1,0c0-.15,3.17-.42,7-1.32S232.22,150.33,232.28,150.48Z"/><path class="cls-15" d="M267.75,291.33a2.79,2.79,0,0,1-3.06,3.53h0a2.78,2.78,0,0,1-2.28-2l-.85-3.15.13,0a2.91,2.91,0,0,1-3.25,3.43h0c-1.31,0-2.44-1.91-2.82-2.92h0a5.44,5.44,0,0,1-5.08-2.44l-5.87-9.16-10.87-7.95,6.58-23.49,23.39,15.15c.92.71,1.06,1,2.52,2.36l15.1,13.89c-1.71,1-3.16.95-5.54,0s-12.8-8-12.8-8l4.7,20.66"/><path class="cls-16" d="M247.74,272s.27.12.69.41l.78.54a4.72,4.72,0,0,1,1,.84,4.4,4.4,0,0,1,.8,1.36c.18.52.37,1.07.57,1.63l1.28,3.76c.89,2.68,1.67,5.11,2.21,6.87a16.9,16.9,0,0,1,.77,2.89,17.1,17.1,0,0,1-1.12-2.78c-.63-1.73-1.47-4.14-2.36-6.81-.43-1.33-.85-2.59-1.24-3.77l-.52-1.65a4.25,4.25,0,0,0-.67-1.27,5.19,5.19,0,0,0-.86-.84l-.72-.61C247.92,272.23,247.72,272,247.74,272Z"/><path class="cls-16" d="M261.81,290.25a4.22,4.22,0,0,1-.33-1c-.21-.74-.46-1.64-.75-2.68-.64-2.26-1.49-5.39-2.58-8.79s-2.23-6.46-3.6-8.34a7.23,7.23,0,0,0-1.91-1.91c-.55-.34-.9-.44-.89-.49s.1,0,.27,0a3.18,3.18,0,0,1,.72.28,6.51,6.51,0,0,1,2.11,1.86c1.49,1.9,2.69,5,3.79,8.4s1.9,6.57,2.44,8.86c.27,1.15.47,2.08.6,2.72A3.52,3.52,0,0,1,261.81,290.25Z"/><path class="cls-16" d="M267.85,291.67a4.22,4.22,0,0,1-.41-1.05c-.25-.8-.56-1.77-.93-2.92-.76-2.46-1.77-5.88-2.86-9.67s-2-7.1-2.75-9.7a4.66,4.66,0,0,0-1.6-2.44,6.08,6.08,0,0,0-1-.52.64.64,0,0,1,.3,0,2.72,2.72,0,0,1,.79.33,4.74,4.74,0,0,1,1.83,2.49c.82,2.47,1.79,5.89,2.9,9.68s2.05,7.22,2.72,9.71c.3,1.17.56,2.16.76,3A5.48,5.48,0,0,1,267.85,291.67Z"/></g><g id="Speech_Bubble" data-name="Speech Bubble"><path class="cls-11" d="M410,74.82a3.5,3.5,0,1,0,3.5-3.5A3.5,3.5,0,0,0,410,74.82Z"/><circle class="cls-11" cx="399.44" cy="74.82" r="3.5"/><path class="cls-11" d="M382,73.07a3.5,3.5,0,1,0,4.78-1.28A3.49,3.49,0,0,0,382,73.07Z"/><path class="cls-11" d="M399.22,33.94a3.4,3.4,0,0,0-.7,0l-2.08,0c-.46,0-1,0-1.54.07l-1.83.26-2.14.31-2.4.59a38.73,38.73,0,0,0-11.59,5.06A41,41,0,0,0,358.14,71a43.57,43.57,0,0,0-.11,5.61c.07,1,.05,1.91.19,2.87s.29,1.92.43,2.88a40.71,40.71,0,0,0,3.9,11.41A43.89,43.89,0,0,0,370,104.05a43,43,0,0,0,10.74,7.71,39,39,0,0,0,13.09,4,25.28,25.28,0,0,0,3.49.3,31.91,31.91,0,0,0,3.53.06A41.19,41.19,0,0,0,422,109.33l-.42,0,14.33,5.75.85.34-.24-.88q-2.17-7.89-4.22-15.32l-.07.38a41.16,41.16,0,0,0,7.65-17.51,37.44,37.44,0,0,0,.56-9,30.41,30.41,0,0,0-.41-4.31l-.33-2.1c-.12-.69-.33-1.35-.5-2a41,41,0,0,0-16-23.31,39.27,39.27,0,0,0-9.51-5l-2.15-.77-2-.51-1.86-.46c-.6-.12-1.18-.18-1.72-.26-1.08-.14-2-.33-2.87-.37L401,34l-1.29,0a1.49,1.49,0,0,0-.44,0,2.59,2.59,0,0,0,.44.06l1.28.1,2.09.14c.83.06,1.77.27,2.85.43A40.78,40.78,0,0,1,438.47,64.9c.15.67.36,1.32.48,2s.2,1.37.31,2.06a29.43,29.43,0,0,1,.38,4.23,37,37,0,0,1-.58,8.79,40.46,40.46,0,0,1-7.55,17.13l-.13.17.06.21q2,7.42,4.18,15.33l.61-.54-14.33-5.77-.22-.09-.21.14a40.29,40.29,0,0,1-20.66,6.65,28.31,28.31,0,0,1-3.45-.06,24.13,24.13,0,0,1-3.41-.29,38,38,0,0,1-12.8-3.91,42.49,42.49,0,0,1-10.52-7.53,43.12,43.12,0,0,1-7.32-10,40.1,40.1,0,0,1-3.85-11.16c-.15-.95-.3-1.9-.44-2.83s-.12-1.89-.19-2.82a41.94,41.94,0,0,1,.08-5.5A40.49,40.49,0,0,1,377.22,40.7a39,39,0,0,1,11.41-5.14l2.36-.63,2.12-.35,1.82-.3c.55-.06,1.06-.07,1.52-.11l2.07-.15A5.61,5.61,0,0,0,399.22,33.94Z"/></g></g></svg>