<!--?xml version="1.0" encoding="utf-8"?-->
<!-- Generator: Adobe Illustrator 23.0.2, SVG Export Plug-In . SVG Version: 6.00 Build 0)  -->
<svg version="1.1" id="Camada_1" xmlns="http://www.w3.org/2000/svg" xmlns:xlink="http://www.w3.org/1999/xlink" x="0px" y="0px" viewBox="0 0 340.7 634.9" xml:space="preserve">
<style type="text/css">
	.st0{fill:none;stroke:#C3FB97;stroke-width:1.6;stroke-linecap:round;stroke-linejoin:round;}
	.st1{fill:none;stroke:#C3FB97;stroke-width:2;stroke-linecap:round;stroke-linejoin:round;}
	.st2{fill:none;stroke:#C3FB97;stroke-width:1.8;stroke-miterlimit:10;}
	.st3{fill:none;stroke:#C3FB97;stroke-width:3;stroke-miterlimit:10;}
	.st4{fill:none;stroke:#C3FB97;stroke-miterlimit:10;}
	.st5{fill:none;stroke:#C3FB97;stroke-width:4;stroke-miterlimit:10;}
	.st6{fill:none;stroke:#C3FB97;stroke-linecap:round;stroke-linejoin:round;}
	.st7{fill:none;stroke:#C3FB97;stroke-width:2;stroke-miterlimit:10;}
</style>
<title>Talento Design</title>
<g id="cabeca">
	<path class="st0" d="M137.8,634.2h79.3"></path>
	<path class="st0" d="M129.3,617h107.5"></path>
	<path class="st0" d="M251.9,617H270"></path>
	<path class="st0" d="M107.7,603.1h107.6"></path>
	<path class="st0" d="M229.1,603.1h18"></path>
	<path class="st0" d="M63.8,589.2H291"></path>
	<path class="st1" d="M206.3,589.2c0,0,1-24.2,0.9-52.9c-0.1-27.5,3.4-24.9,12.5-32.5c9.4-7.8,12.8-16.5,10.9-26.5
		c-1.7-8.5-18-18.6-33.2,0s-33.1-2-43-23.5s-18.7-24.5-27.7-25.5c-69.5-7.5-60-29.6-60-29.6h176.7c0,0,38.9,88.3-23.7,125.9"></path>
	<path class="st1" d="M87.2,420.3c-6.3,13.7-19.3,60.8-19.3,71.8s12.4,7.9,15.9,24.6c3.5,16.7,4.3,38.2,38.3,45.1
		s33.1,16.7,32.2,27.5"></path>
	<path class="st1" d="M71.7,466.9c13.4-0.9,18,4.7,18,4.7c0-14.3,5.3-25.9,11.9-25.9s12,11.6,12,25.9l0,0c0,14.3-5.3,25.9-11.9,25.9
		c-6.7,0-12-11.6-12-25.9l0,0"></path>
	<path class="st1" d="M114.6,472.4h50.2"></path>
	<path class="st1" d="M103.3,523.5c15.4,2.6,19.4-11.8,19.4-11.8"></path>
</g>
<g>
	<path class="st0" d="M147.2,398.7c0,0,2.8-19-7.7-32s-24.4-8.5-24.5-0.7c-0.2,12.1,13.4,10.1,13.3,2.4"></path>
	<path class="st0" d="M123.8,390.1c0-4.1,3.3-7.5,7.5-7.5c4.1,0,7.5,3.3,7.5,7.5l0,0c0,4.1-3.3,7.5-7.5,7.5
		C127.1,397.6,123.8,394.3,123.8,390.1C123.8,390.2,123.8,390.2,123.8,390.1"></path>
	<path class="st0" d="M107.7,386.5c0-2,1.6-3.6,3.6-3.6s3.6,1.6,3.6,3.6l0,0c0,2-1.6,3.6-3.6,3.6S107.7,388.5,107.7,386.5
		L107.7,386.5"></path>
	<path class="st0" d="M156.8,301.2h7.6v97.5h-7.6V301.2z"></path>
	<path class="st0" d="M156.8,305.5h7.6"></path>
	<path class="st0" d="M156.8,309.6h7.6"></path>
	<path class="st2" d="M145.1,339.1c6.4,4.6,10.4,11.1,11.6,17.4c-6.4,0.9-13.8-1-20.1-5.6s-10.4-11.1-11.6-17.4
		C131.4,332.6,138.8,334.4,145.1,339.1z"></path>
	<path class="st2" d="M176.2,339.1c-6.4,4.6-10.4,11.1-11.6,17.4c6.4,0.9,13.8-1,20.1-5.6s10.4-11.1,11.6-17.4
		C189.9,332.6,182.5,334.4,176.2,339.1z"></path>
	<path class="st2" d="M147.8,316.6c4.6,3.2,7.8,8,9,13.5c-11.5,1-22-6.7-24.6-17.9C137.8,311.7,143.4,313.3,147.8,316.6z"></path>
	<path class="st2" d="M173.5,316.6c-4.6,3.2-7.8,8-9,13.5c11.5,1,22-6.7,24.6-17.9C183.6,311.7,178,313.3,173.5,316.6z"></path>
	<path class="st2" d="M147.8,295.9c4.6,3.2,7.8,8,9,13.5c-11.5,1-22-6.7-24.6-17.9C137.8,291,143.4,292.5,147.8,295.9z"></path>
	<path class="st2" d="M173.5,295.9c-4.6,3.2-7.8,8-9,13.5c11.5,1,22-6.7,24.6-17.9C183.6,291,178,292.5,173.5,295.9z"></path>
	<path class="st0" d="M180.8,272.7c0-11.2-9-20.2-20.2-20.3c-11.2,0-20.2,9-20.3,20.2c0,6.6,3.2,12.8,8.6,16.6l0,0
		c0,0,7.9,5.3,7.9,12h7.6c0-6.6,7.9-12,7.9-12l0,0C177.7,285.4,180.8,279.3,180.8,272.7z"></path>
	<path class="st0" d="M161.8,300.8c0-4.1-3.1-4.8-3.7-8.1c-0.6-3.9,4.3-6.1,7.8-4.2c3.3,1.7-5.9,7.1-8.6-1.7s9.5-10.6,9.9-6.1
		s-11,6-11-2c0-6.4,8.8-5.8,11-3.8"></path>
</g>
<g>
	<path class="st0" d="M164.9,392.9c9.7,2.1,21.9-4.2,20.9-13.3c-0.9-7.9-7-5.8-6.6,0.1c0.3,4.3,4.1,16.9,15.8,14.1
		s12.7-21.2,7.1-21.2c-5.8,0-4.9,7.6-4.3,10.4c3.2,15.5,15.4,9.8,15.4,9.8"></path>
	<path class="st0" d="M231.1,397.2h-13.5c-2.4,0-4.4-2-4.4-4.4l0,0c0-2.4,2-4.4,4.4-4.4h11"></path>
	<path class="st0" d="M284.3,387.3c-7.6,3.7-22.5-1.3-22.5-1.3c-12.6-5.6-17-5.8-23-6.4c-5.1-0.5-10.2,0.2-15,2.2
		c-6.1,2.4-5.6,4.5-5,5s0,0.8,5.6-1.7c3.7-1.5,7.7-2,11.6-1.6c-2.5,1.5-5,3.1-7.3,4.9c-3.1,2.4-1.6,4.1-1.6,4.1s0.5,0.9,1.6,0
		s4.9-4.8,10.1-6.2c0,0-10.3,3.8-10.1,8.1c0,0,0.2,2,3.9-1.1s9.3-3.9,9.3-3.9s-9.7,1-11.7,7.8c0,0,2.8,1.3,5.8-1.5s5.9-3.9,8.3-2.8
		s4.3,3.7,11.7,3.3s17.6,2.2,23.6,3.9s20.1,3,12.7-12.7c0,0-12.3-26.7-20.5-29.8s-12.1,5.2-22.3,11.7s-16.3-8.2-18.3-12.8
		s-5.3-3.3-9.7-1.1s-5.6,3-3-16.9s6.7-22.7,10-26c4.8-4.8,24.3-10.8,31.6,4.8c7.6,16.2,13.9,13.9,13.9,13.9
		c8.8,3.5,18-8.3,20.8-13.9c8.2-16,12.8-28,45.4-30"></path>
	<path class="st3" d="M227,332.6c0-0.3,0.2-0.5,0.5-0.5s0.5,0.2,0.5,0.5s-0.2,0.5-0.5,0.5S227,332.9,227,332.6"></path>
</g>
<g>
	<path class="st0" d="M221.4,249.3L221.4,249.3c-6.6,0-12,5.3-12,12V287c0,6.6,5.4,12,12,12h49.3c6.6,0,12-5.4,12-12v-25.7l0,0
		c0-6.6-5.4-12-12-12H221.4"></path>
	<g>
		<path class="st2" d="M243.2,261c-0.4-0.3-0.9-0.4-1.4-0.4c-1,0-2,0.7-2.3,1.7c-0.2,0.6-0.3,1.2-0.3,1.8v17.8c0,0.4,0,0.8,0.1,1.2
			c0.3,1.3,1.6,2.1,2.9,1.8c0.1,0,0.2,0,0.2-0.1c0.4-0.1,0.8-0.3,1.2-0.6l14.6-9c0.4-0.2,0.7-0.5,1-0.8c1-0.9,1-2.5,0.1-3.4
			l-0.1-0.1c-0.3-0.3-0.6-0.5-0.9-0.7l-7.2-4.3l0.9,0.5c-4.9-2.8-4.7-6.6-4.7-8.2c-0.3-11.4-1.2-17.4,5.2-20.1
			c7.2-3,26.9,3.6,37,4.1c14.7,0.7,17.2-13.1,16.9-23.1c-0.2-6.6-0.8-6.4,6.1-10.8c8.6-5.6,2.2-10.9,2.2-10.9s-3-3.3-10.8-15.6
			c-5.9-9.4-10.9-20.6-22.7-29.1"></path>
	</g>
	<path class="st0" d="M276.3,182c0,0,25.1,1.1,26.1-18.8"></path>
	<path class="st4" d="M294.6,190.9c0-0.5,0.4-0.9,0.9-0.9s0.9,0.4,0.9,0.9l0,0c0,0.5-0.4,0.9-0.9,0.9S294.6,191.5,294.6,190.9"></path>
	<path class="st0" d="M291,216.8c0,0,7.1,7.4,15.7,2.5"></path>
	<path class="st0" d="M340.1,122.3c0,0-73.4-2.6-85.8,11.7S242,161.4,242,161.4s-1,4.9,2,5.2s4.6,0.6,5.2-7.2s8.1-19,8.1-19
		s-10.7,14.8-7.7,28.5c1.2,1.4,3.1,1.9,4.8,1.3c3-1,2.7-4.9,4.3-11.1s6.2-14.9,6.2-14.9s-10.1,18.1-6.8,27.5c0,0,3.6,5.5,6.2,0
		s3.9-16.2,9.1-24.8c0,0-7.1,9.5-7.8,29.4c0,0,4.2,5.5,7.2-4.9s5.5-19.2,14.3-21.5c0,0,50.2-0.3,53.1,0"></path>
	<path class="st0" d="M242,161.4c0,0-2.5-0.1-6.2,7.3l33.5,15.6c0,0,3.3-1.6,2.5-10.3"></path>
	<path class="st0" d="M243.3,153.9c0,0-7.8,0.6-13.4,13.2S213,206.8,213,206.8l19.1,9l-31.9,21.7l-24.3-2.1l18.9,29.3l8.1-21.5
		l40.7-21.5l14,6.5c0,0,8,5.7,11.6-2.9c4-9.6,11.5-26.1,11.5-26.1s4.6-8.8-2-11.1l-3.9-1.6c0,0,6.5-16.7-0.3-21.6"></path>
	<g>
		<path class="st0" d="M227.2,173.4c0,0-18.2-10.2-31.5-15s-23.4-4-23-6.6s1.2-3.4,4.8-3.2c7.6,0.3,13.9,3.4,14.6-3.8
			c0.6-6.3-9.4-20.2-16.3-18.4s-9.9,2.4-10.8-0.5c-0.5-1.5,0.6-2.4,3.5-3.7c5.3-2.3,12.5-6.3,21,2.8c11.3,12,18.3,30.3,32,30.3
			c14.5,0,20.9-14.4,5.3-31l0,0c-4-6.2-16-0.7-21.8-10.6c-0.3-0.5,1-0.4,1.5-0.6c5.5-2.7,5.2-6.9,5.1-7.9c-0.1-1.2-8.8,0.7-8.9-0.2
			c-0.7-5.9-2.1-4.5-7-7.2c-5.6-3.2,4.7-10.3,5.9-24.2s10.8-15.3,13.2-15.2s2.6,4.9-2.2,5.7c-4.8,0.8-22.7,1-20.1-12.8
			s18.7-8.8,18.7-8.8s2.6-6.1,7.5-6.4s9,3.3,9,3.3s2.6-5.6,8.4-4.4s8,7.5,8,7.5c3.5-1.8,7.9-0.4,9.9,1.3c4.9,4,2.7,10.8,2.7,10.8
			c2.7-1,5.9,0.4,7,1.4c5.8,5.1,0.7,12.3,0.7,12.3c10.6,4.9,5.7,17.6-0.9,19.1c-0.5,0.1-0.2,0.5,0,2.9c1.3,13-14.5,14.4-20.7,20.1
			c-6.5,5.9-0.6,16.7,11.8,23.7"></path>
	</g>
	<path class="st0" d="M170.9,121.1c0,0-2.5,0.6-2.4-2.9c0-1.1,1-1.8,2.4-2.1c2.3-0.4,4.7-0.4,7,0c0,0,6.8-0.1,11.5,8.8"></path>
	<path class="st0" d="M170.9,116.1c0,0-2-3.7,1.7-3.9s11.6,1,14.9,5.7c2.5,3.8,4.6,7.9,6.3,12.1"></path>
	<path class="st5" d="M210.1,82.6c-0.2,0-0.3-0.1-0.2-0.3c0-0.2,0.1-0.3,0.3-0.2c0.2,0,0.3,0.1,0.2,0.3
		C210.4,82.5,210.3,82.6,210.1,82.6"></path>
	<path class="st0" d="M221.4,68c0,0,1.2,15.9,7.4,16.2c2.1-3.2,6.3-4.1,9.6-2.1l0.1,0.1c6.1,3.6,5,13.4-4.6,15.6
		c-10,2.3-8.5,6.8-8.1,8.7c0.5,2.1,2.4,3.5,4.6,3.3c6-0.8,4.4-7.7,4.4-7.7"></path>
	<path class="st0" d="M146.4,135.8l0.2-0.1l5.5-2.2c0.3-0.2,0.4-0.6,0.2-0.9c0-0.1-0.1-0.1-0.1-0.1c-0.5-0.4-0.9-1-1.1-1.6
		c-0.9-2.1,0-4.6,2.1-5.5s4.6,0,5.5,2.1c0,0.1,0.1,0.2,0.1,0.3c0.3,0.6,0.4,1.3,0.3,2c0,0.4,0.2,0.7,0.6,0.7c0.1,0,0.1,0,0.2,0
		l5.5-2.2h0.2c0.3-0.1,0.7,0.1,0.9,0.4l2.4,6.1c0.3,0.2,0.6,0.1,0.8-0.1c1.1-1.2,2.8-1.7,4.4-1.3c0.2,0,0.4,0.1,0.6,0.3
		c3.4,2.3,2.6,6.6-0.3,7.7c-0.6,0.2-1.2,0.3-1.9,0.3c-0.3,0-0.6,0.2-0.7,0.5l2.5,6.1c0.1,0.3,0,0.7-0.4,0.9l0,0l-5.8,2.3H168l0,0
		c-0.4,0.1-0.7,0-0.9-0.4c0-0.1-0.1-0.3,0-0.4c0.3-1.8-0.5-3.6-2.1-4.6c-0.3-0.2-0.7-0.3-1.1-0.4c-1.7-0.3-3.3,0.3-4.3,1.7
		c-0.2,0.3-0.4,0.7-0.5,1.1c-0.4,1.8,0.2,3.6,1.7,4.7c0.3,0.2,0.4,0.6,0.2,0.9c-0.1,0.1-0.2,0.2-0.3,0.2l0,0l-0.1,0.1l-5.8,2.3
		c-0.4,0.1-0.7,0-0.9-0.4l0,0l-2.5-6.1c-0.3-0.2-0.6-0.1-0.8,0.1c-0.4,0.5-1,0.9-1.6,1.1c-2.9,1.2-6.4-1.4-5.6-5.4
		c0-0.2,0.1-0.4,0.2-0.6c0.8-1.5,2.4-2.3,4.1-2.2c0.3,0,0.6-0.2,0.7-0.5l-2.5-6.1C146,136.4,146.1,136,146.4,135.8z"></path>
	<g>
		<path class="st0" d="M162.3,75.2c10.5,30.6,35.5,34.8,35.5,34.8c-28.8-10-22.9-43.6-22.9-43.6l0,0c13.8-3.8,24.5-12.7,28-23.8
			c0.8-2.6,1.3-5.4,1.3-8.1c0-18.7-19.6-33.8-43.8-33.8s-43.7,15.2-43.7,33.8c0,17.1,16.4,31.2,37.6,33.5"></path>
	</g>
	<path class="st4" d="M251.1,266.8"></path>
</g>
<g>
	<g>
		<path class="st0" d="M81.8,189.3c0,0,6.7,11-11.8,19.6S44.2,229.4,47.9,246c4.8,21.6,57.3,48.1,90.9,6
			c12.9-16.2,13.3-24.2,13.3-24.2l-12.8-7.6c0,0-12.6,37.9-49.5,29.3c0,0-15.1-2.4-21.5-13.1l0,0c-3.1-18.9,64.9,40,31.2,56.5
			c-5.1,2.5-16.5,0-23.3-8.9c-8-10.5-22-11.5-33-0.5s-4.3,21.7-0.2,30c2.4,4.9,3.8,10.2,3.9,15.6c0,0,1.2,10.2,7,4.4
			s3.9-10,12.8-8.1s9.4,6.6,16.7-5s10.1-6.2,11.2-1.3s1.4,52.6-17.7,47.3s-40-11.4-48.8-9c-4.4,1.2-8.7,2.6-12.9,4.3
			c0,0-2.5,1-2.5,2.5c0,2,1.8,1.9,4.2,1.1s7.8-1.9,7.8-1.9l-8,3.4c0,0-2.2,1-1.4,2.9c0.6,1.4,1.6,1.6,3.2,1.1s6.7-2.4,6.7-2.4
			s-7.7,2.1-6.6,4.8c0.9,2.1,2.9,0.9,4,0.6s4.3-1.6,4.3-1.6s-6,1.1-4.8,3.8s6.3-1.4,11.4-2.8s11.9-5.1,24.4,1.5s34.7,14.5,47.8-7.7
			c10.1-17,11.7-37.6,6.1-57.4"></path>
	</g>
	<path class="st4" d="M48.3,310c-0.2-0.6,0.1-1.2,0.7-1.4c0.6-0.2,1.2,0.1,1.4,0.7l0,0c0.2,0.6-0.1,1.2-0.7,1.4
		C49.1,310.8,48.5,310.5,48.3,310L48.3,310"></path>
	<g>
		<path class="st0" d="M17.3,361.1l7.2-12l3.1,1.9l-5,8.3"></path>
		<path class="st0" d="M15.8,370.6l-3.3,5.5l-3.1-1.9l5-8.3"></path>
		<path class="st6" d="M6.3,382.9l1.8-6.8l3.3,2L6.3,382.9z"></path>
	</g>
	<g>
		<path class="st0" d="M153.4,125.3c0,0-12.2-0.9-7.4-20.6s-18-21.2-18-21.2c-18,2.9-6.5-36.6-36-41.4c-8.2-1.4-16.3,1.1-20.2,6.6
			s-1.5,6.4-6.8,10.7c-4.9,3.9-2.5,6.8,0.4,7.9c2.1,2.2,3,5.2,2.4,8.1c-1.1,8.2,8.2,6.8,13.2,7.2s7.4,8,3.8,14.9
			c-3.1,6-14.2,5.9-21-2c-5.8-6.7-27.6-56-30.1-59.3s-4-3.7-8.5-3.9s-6.4,0.8-6.4,0.8s-1.2,3.2,4.3,3.1s6.6,0.4,8.1,4.4
			c1.5,4-1,5.5-3.1,4.3s-3.7-4.4-7.1-4.7s-3.6,2.5,2.8,7.6s8.8,3.1,11.8,14.2s11.2,63.3,46,57.9c0,0,10.4,0,20.6-14.9
			c6.6-9.6,19.2,4.4,20.2,18.2l0,0c0,20.7-9.6,19.8-17.3,19.2s-5.1,3.9-5.1,3.9c6.8,9.6,2.5,12.2,1.7,12.4
			c-9.3,2.2-4.5-10.7-13.5-10.7s-8.9,8.7-3.4,17.4c6,9.5,7.3,22.5-3.9,24.3s-11.4-27.3-9.2-45.3s24.1-24,34.2-19.8
			c14.8,6,24.5,23.4,30.6,32.4s-1.7,8.4-10.7,10.7s-4.5,10.1-4.5,22.1s-7.8,14.1-21.8,13s17.2,24.3,17.2,31.6"></path>
	</g>
	<path class="st3" d="M118.1,152.4c0-0.3,0.2-0.5,0.5-0.5c0.3,0,0.5,0.2,0.5,0.5l0,0c0,0.3-0.2,0.5-0.5,0.5S118.1,152.7,118.1,152.4
		L118.1,152.4"></path>
	<path class="st0" d="M120.8,184c-17.5,2.9-21.3-10.6-21.3-10.6"></path>
	<path class="st0" d="M152,227.4c1-1.1,2.3-2.4,3.6-3.6c3-2.7,17-1.8,21-1.7s5-0.5,5-2.5c0-2.3-3.5-2.4-3.5-2.4h-6.7
		c-5,0-8.2-8-14.9-5.2"></path>
	<path class="st0" d="M182.1,220c0,0,6.8,0.1,11,0.1c1.9,0,3-1.5,2.9-2.8c-0.1-1,0.8-1.6-0.9-1.6c-5.5-0.3-15.8-0.3-15-0.3
		c5,0,7.4,0.4,16.1-0.2c0.6,0,2.2-1.5,2-2.7c-0.1-0.7-0.4-1.9-3.1-2c-8.9-0.2-15,0.1-15,0.2c0,0,0,0,0,0c1.1,0,7.1-0.2,10.5,0
		c0.8,0,2.9,0.2,5.6-0.2c0.9-0.1,0.9-1.2,1.1-1.6c0.4-0.9-0.4-2.8-2.1-2.9c-7.2-0.4-15.7,0.3-15.7,0.4c0,0,0,0,0.1,0
		c4.2,0,7.3-0.1,7.3-0.1c3-0.2,2.5-0.2,3-0.2c1.9,0.1,3.8-0.1,5.7-0.1c0,0,0.1,0,0.1,0c0.3-0.3-0.7-2-2-2.9
		c-0.2-0.2-0.7-0.5-2.1-0.8c-1.2-0.3-2.7-0.6-8.7-0.6h0c0,0-3.8,0-7.3,0c-3.4,0-11.4,0.4-13.2,0.5c-2.8,0.3-11.2,1.9-23.2,18.2"></path>
	<g>
		<path class="st6" d="M176.7,203.1c0,0.5-0.4,0.9-0.9,0.9h-0.1H171c-0.6,0-0.9-0.5-0.9-1.4v-2.2c0-0.4,0-0.8,0-1.1h6.6
			c0,0.3,0,0.5,0,0.8L176.7,203.1z"></path>
		<path class="st6" d="M173.4,175.8c2.5,0,4.9,1,6.7,2.7c1.8,1.8,2.9,4.3,2.9,6.9c0,2.9-1.3,5.6-3.5,7.3c-0.7,0.6-1.3,1.3-1.8,2.1
			l0,0c-0.3,0.4-0.5,0.9-0.6,1.4c-0.2,0.5-0.3,1-0.3,1.5l0,0c0,0.1,0,0.2,0,0.3h-6.6c0-0.1,0-0.2,0-0.3l0,0c0-0.5-0.1-1-0.3-1.4
			c0-0.1,0-0.2-0.1-0.2l0,0c-0.4-1.3-1.2-2.4-2.3-3.2c-2.4-1.8-3.7-4.7-3.7-7.6C164,180,168.2,175.9,173.4,175.8"></path>
		<path class="st6" d="M179.8,185.2c-0.1-3.5-2.9-6.3-6.4-6.4"></path>
		<path class="st6" d="M162.5,194.8l-2.3,2.3"></path>
		<path class="st6" d="M157.9,185.2h-3.2"></path>
		<path class="st6" d="M162.4,174.3l-2.5-2.3"></path>
		<path class="st6" d="M173.4,166.7v3.2"></path>
		<path class="st6" d="M184.1,174.5l2.2-2.2"></path>
		<path class="st6" d="M188.7,185.2h3.2"></path>
		<path class="st6" d="M184,194.6l2.2,2.3"></path>
	</g>
	<path class="st7" d="M75.6,56.2c-0.2-0.1-0.3-0.2-0.2-0.3c0.1-0.2,0.2-0.3,0.3-0.2l0,0c0.2,0.1,0.3,0.2,0.2,0.3
		C75.9,56.1,75.8,56.2,75.6,56.2"></path>
	<path class="st0" d="M10.8,35.3l47.7,18.6L12.3,32.5l0,0c0.1,1.6-1,3-2.6,3.2c-2.9,0.5-8.4-1.2-9-8c0,0,2.2,2.1,4.7,1.6
		s6.3-0.4,6.9,3.2"></path>
	<path class="st0" d="M51.9,106.5l-7.5,7.8"></path>
	<path class="st0" d="M35.2,123.7L9.6,150.2c0,0-7.8,8.3,4.2,9.9s9,3.2,9.3,10s2.3,22.3,13.4,22.3s24.3-1.7,25.4,21.5"></path>
	<g>
		<path class="st4" d="M44.4,127.4c0-8-2-14.4-4.6-14.4h2.5c2.5,0,4.6,6.5,4.6,14.4s-2,14.4-4.6,14.4h-2.5
			C42.3,141.8,44.4,135.3,44.4,127.4z"></path>
		<path class="st4" d="M35.2,127.4c0-8,2.1-14.4,4.6-14.4s4.6,6.5,4.6,14.4s-2.1,14.4-4.6,14.4S35.2,135.3,35.2,127.4"></path>
		<path class="st4" d="M28.7,130.5c0.3-2,0.5-3.9,0.5-5.9c0-7.4-2-13.3-4.5-13.3h2.5c2.5,0,4.5,6,4.5,13.3c0,0.9,0,1.8-0.1,2.7"></path>
		<path class="st4" d="M22.7,136.6c-1.5-2.1-2.6-6.7-2.6-12.1c0-7.4,2-13.3,4.5-13.3s4.5,6,4.5,13.3c0,1.7-0.1,3.5-0.4,5.2"></path>
		<path class="st4" d="M35.6,121.6c0,0-1.2-1.7-4-1.2"></path>
	</g>
	<path class="st6" d="M41.8,162.5c0,0-2,11-18.8,10.6"></path>
	<path class="st4" d="M162.4,53.8c0,1,0,1.2-1,1.2s-1-0.2-1-1.2"></path>
	<path class="st0" d="M158.4,46.6h5.7c0.6,0,1,0.4,1,1v5.2c0,0.6-0.4,1-1,1h-5.7c-0.6,0-1-0.4-1-1v-5.2
		C157.4,47,157.8,46.6,158.4,46.6"></path>
	<path class="st0" d="M175.7,25.7c0-8.2-6.6-14.8-14.8-14.9s-14.8,6.6-14.9,14.8c0,4.8,2.4,9.4,6.3,12.2l0,0c0,0,5.8,3.9,5.8,8.8
		h5.5c0-4.8,5.8-8.8,5.8-8.8l0,0C173.4,35,175.7,30.5,175.7,25.7z"></path>
	<g>
		<path class="st0" d="M79.9,39.1c0,0-5.5,14.7,13.7,23.2c14.6,6.4,0.8,27.3,24.9,33.4c22.1,5.6,46.2-9,42.5-49.3l0,0
			c0-8.5-2.8-7.5-3.2-9.9c-0.6-2.9,3.7-4.5,6.8-3.1c2.8,1.3-5.2,5.3-7.6-1.3s8.2-7.7,8.6-4.5S156,32,156,26.1c0-4.7,7.7-4.3,9.6-2.8
			"></path>
	</g>
</g>
</svg>
