<svg xmlns="http://www.w3.org/2000/svg" viewBox="0 0 369.47 519">
  <defs>
    <style type="text/css">
      .c_1,
      .c_2,
      .c_3,
      .c_4 {
        fill: none;
      }

      .c_1,
      .c_2,
      .c_3,
      .c_4 {
        stroke: #C3FB97;
      }

      .c_1,
      .c_2,
      .c_4 {
        stroke-linecap: round;
        stroke-linejoin: round;
      }

      .c_1,
      .c_3 {
        stroke-width: 2px;
      }

      .c_2 {
        stroke-width: 3px;
      }

      .c_3 {
        stroke-miterlimit: 10;
      }

      .c_4 {
        stroke-width: 2.6px;
      }
    </style>
  </defs>
  <title>Talento Design</title>
  <g id="illustration-2" data-name="Illustration_2">
    <g id="Camada_1-2" data-name="Camada 1">
      <g id="top">
        <path class="c_1" d="M79,167.18c-5-.61-22.85,2.54-35.22-.61-7-1.78-14.73-15.37-6.17-24.25,16.14-16.75,28.75,6.19,21.61,6.39-2.38.06-4.81-1.39-6.1-5.48C49.48,131.73,65.21,130,69.48,124c6.59-9.39-7.32-12.79,5.25-37.58,3.28-8.75-8.83-7.9-11.17-8.19s-2.74-4.07,1-2.52,4.6,4.76.51,8.44-8.51,1.45-11.26-1.91-1.74-6.16,1.26-3.5,5.28,5.77,2.31,12.3-.66,8.46.77,7.61,4.1-4.21,2.22-4.72-4.69-.81-8.62,6.4-8.49.74-8.41-3,0-10.13-4.19-12.34S31.65,83.34,34,75,60.15,62.32,58.59,68.7s-18.86,1.17-20.94-.47-.9-1.73,1-3.1,4.54-3,1.73-3.66-3-1.78-2.29-2.94,2.87-1.59,6.35.61,5.71-2.93,6.22-4.25,3.61-3.53,3.55-.94-5.81,7.17-8.06,2.41,2.06-8,8.18-7.59,20.91,4.95,27.33,22.76-6.51,46.08-35.36,43.3c-30.56-3-30.16-34.1-30.16-34.1.57-28,25.22-31,25.22-31"></path>
        <path class="c_1" width="62.66" height="50.28" d="M 82.99,120.05 L 137.64999999999998,120.05 A 4,4,0,0,1,141.64999999999998,124.05 L 141.64999999999998,166.32999999999998 A 4,4,0,0,1,137.64999999999998,170.32999999999998 L 82.99,170.32999999999998 A 4,4,0,0,1,78.99,166.32999999999998 L 78.99,124.05 A 4,4,0,0,1,82.99,120.05"></path>
        <path class="c_1" d="M159.36,170.33h-20a3.72,3.72,0,0,1-3.66-3.76h0c0-2.07,1.65-3.76,2.79-3.76h20c2.89,0,4.53,1.69,4.53,3.76h0A3.72,3.72,0,0,1,159.36,170.33Z"></path>
        <path class="c_1" d="M96.15,113.72S86.6,91.29,114.08,73.6c20.53-13.22,15.11-23.66,13.25-31.19-3.84-15.53,3.14-34.7,22.91-34.7,27.79,0,28.85,26.36,24.31,39.1-2.42,6.77-2.1,18.65,14.73,25.77s30.29,26.9,21.05,51.59"></path>
        <path class="c_1" d="M162.57,169.45s36.87,6.11,33.65-14S163.5,139.35,158.43,142s-8.3,6.11-12,11.57,1.16,4.6,4.15,1.53a71.5,71.5,0,0,1,5.69-5.35.69.69,0,0,1,1,1,23,23,0,0,0-3.16,4.29c0,.05,0,.09-.05.13-.68,1.12-1.15,3.61,2.11,3.48.36,0,.27.25.33.6.13.87,1.63,2.21,3.75,1.48.41-.14.73-.19.51.18-.83,1.41,1,3.89,4.38,1.17,4.61-3.71,11.75-9.17,18.2-5.68s16.59,17.24,27.19,11.79,15.67-31.42-4.6-48.22c-12.57-10.41-28-18.64-36.7-26.51-5.37-4.83-5.28-13.48-3.44-18.46,4.84-13.09,11.49-27.69,4.15-37.72C163.17,28,153.67,26.9,151.46,18.82c-.17-.62,0-.72-.3-.16-1.36,2.58-3.86,7.8-13.93,13.56-13.81,7.89-3.72,32.93-1.39,38.18,3.21,7.22,4.94,11.56.57,18.11s-10.94,13.37-23.84,14.68-19.23,12.5-17.44,16.86"></path>
        <path class="c_1" d="M156.42,158.8a28.78,28.78,0,0,1,5.65-7.09"></path>
        <path class="c_1" d="M160.59,161.16a24.36,24.36,0,0,1,5.4-7.35"></path>
        <path class="c_1" d="M136,91.29a23.24,23.24,0,0,0,12.73,6.21c7.79,1,13.72-.72,18.28-6.21"></path>
        <path class="c_1" d="M134.04,46.88A6.63,6.27 0,1,1 147.29999999999998,46.88A6.63,6.27 0,1,1 134.04,46.88"></path>
        <path class="c_1" d="M154.5,46.88A6.63,6.27 0,1,1 167.76,46.88A6.63,6.27 0,1,1 154.5,46.88"></path>
        <path class="c_1" d="M147.3,45.37s2.9-3,7.4,0"></path>
        <path class="c_1" d="M140.14000000000001,48.29A1.2,0.99 0,1,1 142.54,48.29A1.2,0.99 0,1,1 140.14000000000001,48.29"></path>
        <path class="c_1" d="M159.93,48.29A1.2,0.99 0,1,1 162.32999999999998,48.29A1.2,0.99 0,1,1 159.93,48.29"></path>
        <path class="c_1" d="M151,48.81s.56,5.06-1.92,7.89a.71.71,0,0,0-.09.85,4.8,4.8,0,0,0,3.76,2.32"></path>
        <path class="c_1" d="M145.36,63.81s6.78,5.4,12.49,0"></path>
        <path class="c_1" d="M254.14,34.84c18,.3,20.92,8,27.08,16.92S297.83,57,298.14,62s-5.23,6.71-9.54,7.63-2.15,8.93-3.38,17-18.15,8.58-28.61,13.81S244,163.44,271.68,161s34.15-38.51,38.76-41.89,14.16-6.41,19.69-6.41,24.7-.31,26.24-5.54-1.93-5.54-5.93-5.54-25.84,2.15-35.38,0,.92-11.38,2.46-13.84-.62-6.16-6.77-2.63S284,125,261.22,143.75s-53.84,19.07-56.91,1.84,20.92-40.3,29.84-47.07,0-26.76-1.54-38.76,6.77-19.07,21.53-24.92,16.31-9.23,18.16-12.92l4.61-9.23"></path>
        <path class="c_2" d="M273.71,54.97A0.85,0.85 0,1,1 275.41,54.97A0.85,0.85 0,1,1 273.71,54.97"></path>
        <path class="c_1" d="M285.66,80.37s-8.79,3.39-13.54-3.07"></path>
        <path class="c_1" d="M237,94.73a117.5,117.5,0,0,1,14.07-8.17c7.69-3.73,2.15-12-2.77-15.42s-9.23-8-4-12.3,6.46,3.69,9.23,6.77,10.77.27,8.61-8-15.53-19.34-15.53-19.34,11.3,11.19,33.68,0c3.46-1.73,8-3.1,15.39-1.26s12.61.31,11.38-3.69-6.15-3.38-10.77-3.38-12.61-1.23-11.38-10.77"></path>
        <path class="c_1" d="M283.34,8.23a20.07,20.07,0,0,1,14.18-.15c8,2.76,11.08,16.61,7.08,17.22s-4-4.61-6.77-9.23-9.84-4-9.84-4"></path>
        <path class="c_1" d="M281.22,6.41a21.69,21.69,0,0,1,12.56-3.87c6.06,0,15.42,1.07,21.11,10.76,4.79,8.16.38,9-1.63,7.75-.27-.17-.51.24-.51.56,0,1.61-3.25,5.25-6.4,0"></path>
        <path class="c_1" d="M287.94,6.88c3.12-1.85,21.94-3.1,24.81,14.73"></path>
        <path class="c_1" d="M298.04,29.9L269.73,6.84L274.94,1L316.75,36.99L320.13,46.38L311.06,42.84L304.91,37.22"></path>
        <path class="c_1" d="M316.75,36.99L311.06,42.84"></path>
        <path class="c_1" d="M277.74,3.41L272.96,8.89"></path>
        <path class="c_1" width="11.46" height="10.72" d="M 333.89,91.06 L 343.34999999999997,91.06 A 1,1,0,0,1,344.34999999999997,92.06 L 344.34999999999997,100.78 A 1,1,0,0,1,343.34999999999997,101.78 L 333.89,101.78 A 1,1,0,0,1,332.89,100.78 L 332.89,92.06 A 1,1,0,0,1,333.89,91.06"></path>
        <path class="c_2" d="M339.32,102.24a.83.83,0,0,1-.84.85.86.86,0,0,1-.86-.85"></path>
        <path class="c_1" d="M360.26,59.87A22.14,22.14,0,1,0,325.41,78l-.05,0S334,83.81,334,91.06h8.26c0-7.25,8.63-13.1,8.63-13.1l-.05,0A22.09,22.09,0,0,0,360.26,59.87Z"></path>
        <path class="c_1" d="M338.12,90.79c-1.29-7.88,3.82-9.07,4.63-12.64,1.61-7-8.66-8.3-9.52-5.14C332,77.44,348,75.75,348,66.37,348,56.26,331,55.63,331,60.57c0,8.73,20.21,3.83,15.15-6.73-3.9-8.16-17-.68-26-7.46"></path>
        <path class="c_1" d="M1,185.28c32.86,2.95,34.44,9.79,34.44,9.79-6.32-30,26.33-37,26.33-37h0c-22.66,8.57-19.3,35.14-19.3,35.14C40,176.74,1,185.28,1,185.28Z"></path>
      </g>
      <g id="se_voce_pode_sonhar_voce_pode" data-name="se voce pode sonhar voce pode">
        <g id="S">
          <path class="c_1" d="M62.79,211.12s-.28,11.34,13.62,11.63c0,0,13,.57,13.61-14.75L67.9,198.35"></path>
          <path class="c_1" d="M90,197.79s.29-11.35-13.61-11.63c0,0-13-.57-13.62,14.75l22.13,9.64"></path>
        </g>
        <g id="E">
          <path class="c_1" d="M101.02,221.69L101.02,187.22L128.67,187.22"></path>
          <path class="c_1" d="M104.99,192.19L104.99,221.69L127.68,221.69"></path>
          <path class="c_1" d="M104.99,204.45L120.02,204.45"></path>
        </g>
        <g id="V">
          <path class="c_1" d="M157.6,221.26L142.28,187.65"></path>
          <path class="c_1" d="M147.39,187.65L160.15,215.52L173.34,187.65"></path>
        </g>
        <g id="O">
          <path class="c_1" transform="translate(-84.55 165.85) rotate(-38.36)" d="M178.67000000000002,204.45A17.44,17.44 0,1,1 213.55,204.45A17.44,17.44 0,1,1 178.67000000000002,204.45"></path>
          <path class="c_1" d="M209.58,204.45a13.48,13.48,0,1,1-23-9.52"></path>
        </g>
        <g id="C">
          <path class="c_1" d="M253.87,214a17.45,17.45,0,1,1,0-19.09"></path>
          <path class="c_1" d="M240,217.11A12.71,12.71,0,1,1,241.34,192"></path>
        </g>
        <g id="E">
          <path class="c_1" d="M267.37,192.19L267.37,221.69L290.06,221.69"></path>
          <path class="c_1" d="M267.37,204.45L282.4,204.45"></path>
          <path class="c_1" d="M263.4,221.69V187.22h27.65s3.32.14,10.54.08c9.16-.08,18.85,4.89,16.85,19.64-.71,5.24-3.36,7.52-6.27,7.94-8.73,1.25-10.58-16.31,12.13-16.53,47.64-.44,35.12,40.85,17.3,40.62,0,0-6.09-.12-4.83-5.67s8.27-4.59,16.12-4.35c21.8.69,20.32,34.4-9.38,30.4-11.9-1.61-17.68-3-23.71-.49-3.79,1.61-4.64,4.09-4.64,4.09-1.61,3.95-.16,8.32,3.56,10a7.38,7.38,0,0,0,8.4-11.78"></path>
          <path class="c_1" d="M268.69,182.37L277.23,175.81L285.77,182.37"></path>
          <path class="c_1" d="M320.21,284.47a6,6,0,1,1-6-6A6,6,0,0,1,320.21,284.47Z"></path>
          <path class="c_1" d="M305.72,296a3.48,3.48,0,1,1-3.48-3.48A3.48,3.48,0,0,1,305.72,296Z"></path>
          <path class="c_2" d="M296.84999999999997,310.92A0.85,0.85 0,1,1 298.55,310.92A0.85,0.85 0,1,1 296.84999999999997,310.92"></path>
          <path class="c_1" d="M299.37,310.94s.85,6-3.4,6"></path>
        </g>
        <g id="P">
          <path class="c_1" d="M110.8,239.02L110.8,268.56"></path>
          <path class="c_1" d="M110.8,255.37h13a10.5,10.5,0,0,0,0-21H106v34.29H31.88a9.4,9.4,0,0,1,0-18.79l.14-.17a10.21,10.21,0,0,1,17.73-10l.13.17a15.45,15.45,0,0,1,29.08,10v.29a8.22,8.22,0,0,1,8.22,8.23v.15s9.44-1.62,9.44,5.8"></path>
          <path class="c_1" d="M41.27,235.18A8.57,8.57,0,0,1,58,231.38"></path>
          <path class="c_1" d="M37.35,229.83L28.08,229.83"></path>
          <path class="c_1" d="M41.73,222.82L33.48,212.64"></path>
          <path class="c_1" d="M49.52,220.74L49.52,205.19"></path>
        </g>
        <g id="O-2" data-name="O">
          <path class="c_1" transform="translate(-123.29 156.76) rotate(-39.13)" d="M141.44,251.82A17.44,17.44 0,1,1 176.32,251.82A17.44,17.44 0,1,1 141.44,251.82"></path>
          <path class="c_1" d="M172.35,251.82a13.48,13.48,0,1,1-23-9.52"></path>
        </g>
        <path id="D" class="c_1" d="M190.79,238.86v29.48h8.15a16.88,16.88,0,1,0,0-33.75H185.89v33.75"></path>
        <g id="E-2" data-name="E">
          <path class="c_1" d="M226.24,268.7L226.24,234.24L253.89,234.24"></path>
          <path class="c_1" d="M230.21,239.2L230.21,268.7L252.9,268.7"></path>
          <path class="c_1" d="M230.21,251.47h15c31,0,29.85-16.59,23.53-17.72-7.63-1.37-14.88,25.91,5.64,28.36,4.52.54,19.87-1.64,18.54-14.25-.42-4-4.82-3.35-5.46-.24-1.2,5.85,2.14,18.07,22.73,14.78"></path>
        </g>
        <g id="S-2" data-name="S">
          <path class="c_1" d="M84.92,303.16l-22.13-9.64c.57-15.32,13.62-14.75,13.62-14.75C90.31,279.06,90,290.4,90,290.4"></path>
          <path class="c_1" d="M67.9,291,90,300.61c-.56,15.32-13.61,16.22-13.61,16.22C65,317.91,59.47,311.9,57.26,309.6c-4.71-4.9-5.75-11.24-6-14.32-.35-3.6-.86-9.52,1.78-15.15s4.35-2.77,5-.11-.23,16.23-7.71,16.54c-8.71.37-12.65-12.82-10.38-15.9s5.54,2.17,7,4.25c.86,1.26,2,6.49-.23,6s-5.6-7.09-2-14.22c0,0,3.52-2.87,5.28,3"></path>
          <path class="c_1" d="M61.17,313.11s-16.5-13.26-34-8.29a83.5,83.5,0,0,0-9,3.92s10.89,8.62,26.9,0"></path>
        </g>
        <g id="O-3" data-name="O">
          <path class="c_1" d="M98.89,297.07A17.44,17.44 0,1,1 133.77,297.07A17.44,17.44 0,1,1 98.89,297.07"></path>
          <path class="c_1" d="M129.8,297.07a13.47,13.47,0,1,1-23-9.53"></path>
        </g>
        <g id="N">
          <path class="c_1" d="M142.92,314.22L142.92,286.35L172.28,314.22"></path>
          <path class="c_1" d="M142.92,279.91L172.28,307.78L172.28,279.91"></path>
        </g>
        <g id="H">
          <path class="c_1" d="M183.31,314.09L183.31,279.91"></path>
          <path class="c_1" d="M188.13,279.91L188.13,314.09"></path>
          <path class="c_1" d="M210.89,297L188.91,297"></path>
          <path class="c_1" d="M210.89,314.09L210.89,279.91"></path>
        </g>
        <g id="A">
          <path class="c_1" d="M219.61,313.98L236.84,280.15L253.86,313.98"></path>
          <path class="c_1" d="M224.5,313.98L228.82,305.5L236.73,289.94"></path>
          <path class="c_1" d="M228.82,305.5L249.59,305.5"></path>
        </g>
        <g id="R">
          <path class="c_1" d="M267.51,284.59V297l14.43-.28a8.41,8.41,0,1,0,0-16.81H263.26v34.18"></path>
          <path class="c_1" d="M267.8,314.09L267.8,300.9L280.7,300.9L291.06,314.09"></path>
        </g>
        <g id="V-2" data-name="V">
          <path class="c_1" d="M107.25,329.88L120.02,357.74L133.2,329.88"></path>
          <path class="c_1" d="M117.46,363.49l-12.2-26.77s-4.25-11.83-17.65-9.46S72.38,350.05,82,350.05c3.85,0,4.45-10-3-18.5C75,327.05,45.62,312.79,34.78,334c-1.27,2.46-4.22,9.73-.8,11.06,4.2,1.63,4.27-9.48,4.27-9.48s1.88,4.78,5.25,3.47-1.3-10.58-4.22-10.59c0,0-2-8.21-9.56-8.21s-1.58,5.06-1.58,5.06-6.11,2.4-2.25,3.95c6.67,2.68,13.39-.8,13.39-.8"></path>
          <path class="c_1" d="M65.26,324.58a8.88,8.88,0,0,0-8.58,6.8,7.75,7.75,0,0,0,5.47-1.92A7.74,7.74,0,0,0,65.26,324.58Z"></path>
          <path class="c_1" d="M95.31,327.88A8.86,8.86,0,0,0,96.61,317a8.86,8.86,0,0,0-1.3,10.87Z"></path>
          <path class="c_3" d="M18.2,343.81c8.39-13.39,19.1-14.57,19.1-14.57s-14.22,6.44-14.22,19.41"></path>
        </g>
        <g id="O-4" data-name="O">
          <path class="c_1" transform="translate(-217.4 418.16) rotate(-76.62)" d="M138.53,346.68A17.44,17.44 0,1,1 173.41,346.68A17.44,17.44 0,1,1 138.53,346.68"></path>
          <path class="c_1" d="M169.44,346.68a13.48,13.48,0,0,1-26.95,0"></path>
        </g>
        <g id="C-2" data-name="C">
          <path class="c_1" d="M213.73,356.25a17.44,17.44,0,1,1,0-19.1"></path>
          <path class="c_1" d="M199.85,359.34a12.71,12.71,0,1,1,1.35-25.12"></path>
        </g>
        <g id="E-2" data-name="E">
          <path class="c_1" d="M223.26,363.91L223.26,329.45L250.91,329.45"></path>
          <path class="c_1" d="M227.23,334.41L227.23,363.91L249.92,363.91"></path>
          <path class="c_1" d="M227.23,346.68L242.26,346.68"></path>
          <path class="c_1" d="M228.55,324.89L237.09,318.33L245.63,324.89"></path>
        </g>
        <path id="P-2" data-name="P" class="c_1" d="M61.51,417.59c-2.36,11.41,2.76,17.66,2.76,17.66-.3-2.59,3.38-6.8,5.84-4.56s4.35,11.08,4.35,11.08.1-1.48-.16-8,3.29-5.31,5.76-5.36.94-5.51-.73-8.44S76,414.09,79,410.14s12.7,2.52,12.7,2.52,3.19-7.34-2.23-19.08-22-9.38-23.7-9-16.68,3.86-21,14.29,4.41,25.79,4.41,25.79-2,3,2.88-4.13,17.49-14.3,21.67-11.85-2.06,4.67-2.06,4.67C59,416.84,52.7,403.33,47.44,383.87c-6-22,3.57-42.91,4.47-45.05s2.06-1.77,8.43,5.66c6.94,8.08,13.8,18.48,17,27.82,4.65,13.44,5.27,20.3,3.33,35.32C78.46,424.81,106,427.2,106,406.08V376.56h17.87a10.5,10.5,0,0,1,0,21l-12.76.3-.29,12.89V381.2"></path>
        <g id="O-5" data-name="O">
          <path class="c_1" d="M141.44,394A17.44,17.44 0,1,1 176.32,394A17.44,17.44 0,1,1 141.44,394"></path>
          <path class="c_1" d="M172.35,394a13.48,13.48,0,1,1-23-9.52"></path>
        </g>
        <path id="D-2" data-name="D" class="c_1" d="M190.79,381v29.49h8.15a16.88,16.88,0,0,0,0-33.76H185.89v33.76"></path>
        <g id="E-3" data-name="E">
          <path class="c_1" d="M226.24,410.88L226.24,376.42L253.89,376.42"></path>
          <path class="c_1" d="M230.21,393.65L245.24,393.65"></path>
          <path class="c_1" d="M230.21,381.38L230.21,410.88L252.9,410.88L274.89,429.02L274.89,334.96L302.04,351.31L302.04,431.97"></path>
          <path class="c_1" d="M274.89,334.96L262.66,344.93L262.66,404.88"></path>
          <path class="c_1" d="M293.93,346.68L293.93,329.88L312.3,318.33L312.3,407.48"></path>
          <path class="c_1" d="M312.3,318.33L325.08,329.24L325.08,369.92L343.19,369.92L343.19,404.88L364.37,404.88L368.48,404.88"></path>
          <path class="c_1" d="M284.42,340.83L284.42,324.89"></path>
          <path class="c_1" d="M283.88,360.89L283.88,367.78"></path>
          <path class="c_1" d="M283.88,374.06L283.88,380.96"></path>
          <path class="c_1" d="M283.88,387.24L283.88,394.13"></path>
          <path class="c_1" d="M291.54,375.55L291.54,382.44"></path>
          <path class="c_1" d="M291.54,388.72L291.54,395.61"></path>
          <path class="c_1" d="M306.43,328.6L306.43,335.49"></path>
          <path class="c_1" d="M306.43,341.77L306.43,348.66"></path>
        </g>
      </g>
      <g id="realizar">
        <path id="realizar-2" data-name="realizar" class="c_1" d="M42.57,456.12c-10.53,13.16-28,.16-23.17-9.59,8.35-16.81,28.33.84,48.56,12.59,15.39,8.95,32.84-9.47,37.13-18.6,1.34-2.86,2-4.48,2-4.48s-1.16,3.43,2.17,3.32c2.82-.09,4.29.75,3.86,3.11s-3.75,11.43-.11,13.44c2.62,1.44,7-5,9-10.23l0,1.5c4.11-1.31,10.7-3.05,9.83-7.64-.91-4.82-9.2-1.85-9.79,5.71-.38,4.94,1.82,12,9.38,10.44,3.12-.65,6.11-3.68,9.13-8.65a2.73,2.73,0,0,1,.94-.94c-.12-5.13,7.18-10.74,14.41-8.55,0,0-3.52-2-8.95.49s-7.18,10.42-5.57,13.79,4.58,4.93,7.56,3.72c5.18-2.12,7-15.22,6.89-17-.16-2.45-4.62,17.72,2,17.37,8-.43,22.59-34,16.38-35.93s-6.63,18.95-4.32,29.48c.47,2.16,2.3,11.64,9.26,2.12,3.54-4.86,7.43-14.86,7.43-14.86s-3.85,18.83,1.65,19.34c0,0,3.13.66,9.46-12.2,0,0,5.35-10.41,13.28-4.78,1.4,1,4.83,6.39-1.61,13.78-1.39,1.6-8.09,6-8.34,1.5-.18-3.43,10.15-3.47,11.13,3.32,1.07,7.4-1.9,21.15-9.23,17.95-2.79-1.22-5-6.59,2.06-12.16,8.54-6.73,15-11.23,17.56-16.61,1.59-7.35,6.16-11,15.1-9.31,0,0-3.53-2-8.95.49s-7.18,10.42-5.57,13.79,4.57,4.93,7.55,3.72c5.19-2.12,7-15.22,6.89-17-.16-2.45-4.38,15.6,2,17.37,4.34,1.2,12.33-9.48,14.77-19.94.29-1.26-1.79,3.11,2.07,2.93,4.92-.23,4.49,3.28,3.5,6.5a31.64,31.64,0,0,0-1.12,4.37l.88-3.32c-6.15,17.48,10.82,18.62,26.21,9.67,20.23-11.75,43.22-26.4,51.31-9.59,4.73,9.81-12.64,22.75-23.17,9.59"></path>
        <path class="c_2" d="M187.57,431.57A0.18,0.18 0,1,1 187.93,431.57A0.18,0.18 0,1,1 187.57,431.57"></path>
      </g>
      <g id="line">
        <path class="c_1" d="M63.53,476.29L193.61,476.29"></path>
        <path class="c_1" d="M218.43,476.29L301.08,476.29"></path>
      </g>
      <g id="walt_disney" data-name="walt disney">
        <path class="c_1" d="M255.37,518H109.25a14.91,14.91,0,0,1-14.86-14.86h0a14.91,14.91,0,0,1,14.86-14.85H255.37a14.9,14.9,0,0,1,14.85,14.85h0A14.91,14.91,0,0,1,255.37,518Z"></path>
        <path class="c_4" d="M118.95,498.34L122.39,507.85L126.04,498.36L130.03,507.73L133.07,498.37"></path>
        <path class="c_4" d="M138.52,507.67L142.97,498.23L147.43,507.69"></path>
        <path class="c_4" d="M145.96,504.86L139.87,504.86"></path>
        <path class="c_4" d="M153.38,498.3L153.38,507.73L159.15,507.73"></path>
        <path class="c_4" d="M163.61,498.3L171.05,498.3"></path>
        <path class="c_4" d="M167.36,498.3L167.36,507.73"></path>
        <path class="c_4" d="M182.53,507.73V498.3h4.06c3.69-.22,7,7.2-.05,9.42h-4"></path>
        <path class="c_4" d="M196.69,498.3L196.69,507.73"></path>
        <path class="c_4" d="M202.6,506.64a5.31,5.31,0,0,0,5.35.68,2.11,2.11,0,0,0,1-2.65c-.51-1.66-2.68-1.66-3.47-1.85a3.34,3.34,0,0,1-2.42-1.6,2.53,2.53,0,0,1,.57-2.45c1.26-1.12,2.74-1.32,4.82-.09"></path>
        <path class="c_4" d="M214.94,507.73L214.94,498.3L222.77,507.96L222.77,507.73L222.77,498.3"></path>
        <path class="c_4" d="M235.24,498.26L229.21,498.26L229.21,507.69L235.44,507.73"></path>
        <path class="c_4" d="M229.21,503.13L234.68,503.01"></path>
        <path class="c_4" d="M241.04,498.26L244.61,503.31L244.61,507.73"></path>
        <path class="c_4" d="M244.61,503.31L248.33,498.26"></path>
      </g>
    </g>
  </g>
</svg>