<svg id="Camada_1" data-name="Camada 1" xmlns="http://www.w3.org/2000/svg" viewBox="0 0 32 32"><defs><style>.cls-1{fill:#fff;}</style></defs><title>by-talento</title><path class="cls-1" d="M8.89,21.48a31.67,31.67,0,0,1-.68-9L4.7,14.37V12.64l3.61-1.89c.13-1.53.4-4.09.59-5.49,0,0,0-.36-.21-.48s-.31-.13-.78.2A14,14,0,0,0,3.85,9.57,16.28,16.28,0,0,0,2.4,14.4c0,.38,0,.77,0,1.16A13.38,13.38,0,0,0,9.32,28a20.41,20.41,0,0,0,5.59,1.61C12,29,9.63,25.75,8.89,21.48Z"/><path class="cls-1" d="M15.19,2.35a19.83,19.83,0,0,0-2.81.45l-.07,0c-.82.17-1.13.85-1.32,1.74a42.54,42.54,0,0,0-.37,5.1l4.43-2.22.14,2.09c-.11,0-4.29,1.82-4.46,2-.28.38-.05,3.41,0,4.69.2,3.92,1.15,7.85,2.8,9.87a5.49,5.49,0,0,0,2.21,1.74h0l.19.06a1.67,1.67,0,0,0,.3.08l.08,0h.07c2.7.39,5.58-3.37,6.4-8.38.09-.57.16-1.14.19-1.68,0-.06,0-.09.1-.09a.08.08,0,0,1,.07.09c0,.2,0,.4,0,.6,0,5.74-2.82,10.47-6.46,11.08h0a13.9,13.9,0,0,0,2.6-.32A13.78,13.78,0,0,0,29.67,16.28,13.47,13.47,0,0,0,15.19,2.35Z"/><path class="cls-1" d="M16,0A16,16,0,1,0,32,16,16,16,0,0,0,16,0Zm0,31A15,15,0,1,1,31,16,15,15,0,0,1,16,31Z"/></svg>