<svg xmlns="http://www.w3.org/2000/svg" viewBox="0 0 122.62 77.92"><defs><style>.a{fill:#fff;}</style></defs><title>cloud-3</title><path class="a" d="M122.45,32.47c1-4.59-2-10.75-7.24-15.33A26.8,26.8,0,0,0,89.4,12C83.64-1.34,68.75-.5,62.5.51l-.1,0h0C58.12.52,53.23,3.07,49.6,7.2A23,23,0,0,0,44.48,17a34,34,0,0,0-5.13-.41c-18.3-.18-25.82,6.18-28.93,11.54a18.82,18.82,0,0,0-.21,17.74C2.92,49.47-1.1,56.46.26,63.66c1.33,7,8.13,14.26,23.15,14.26q1,0,2,0c10.89-.44,33.9,0,34.13,0h0s3.11-.12,9.66-.07h.2c5.38,0,9.91-1.78,12.77-5a13.35,13.35,0,0,0,2.9-5.54,34.09,34.09,0,0,0,5,.4c18.3.17,25.82-6.18,28.93-11.54a19,19,0,0,0-.43-18.92A6.31,6.31,0,0,0,122.45,32.47ZM88.5,18.13a3.08,3.08,0,0,1-3.21.21C84.65,18,84,17.5,84,16.83c0-1,1.53-2.09,4-3l.6-.21C89.38,15.76,89.34,17.35,88.5,18.13Zm-43,.46c6.11,1.32,8.36,4.35,9.11,5.84a5.62,5.62,0,0,1-.13,5.81,3.91,3.91,0,0,1-3.92,1.57c-2.81-.41-4.66-2.79-5.19-6.73A21,21,0,0,1,45.54,18.59ZM84.05,65.67c-6.2-1.3-8.47-4.36-9.23-5.86A5.62,5.62,0,0,1,75,54a3.8,3.8,0,0,1,3.2-1.62,5.05,5.05,0,0,1,.72.05c2.81.41,4.66,2.79,5.19,6.73A21.37,21.37,0,0,1,84.05,65.67ZM117.9,36c-3-4.52-7.36-7.17-11.87-7.09-.22,0-2.62,0-3.47,1.61-.54,1-.31,2.28.69,3.83,1.57,2.42,6.73,5.38,14.06,3.28l.06.1c2.61,4.47,4.11,11.46.5,17.69-2.93,5-10.08,11-27.74,10.86a33,33,0,0,1-4.75-.37,22.72,22.72,0,0,0,0-6.94c-.84-6.19-4.33-7.6-6.34-7.89a5.27,5.27,0,0,0-5.22,2.12,7,7,0,0,0-.24,7.22C74.47,62.11,77,65.56,83.76,67a12,12,0,0,1-2.57,4.89c-3.55,4-9,4.6-11.94,4.56-6.33-.05-9.44.06-9.7.07-.48,0-23.33-.44-34.2,0C9.79,77.15,2.88,70.16,1.6,63.4c-1.25-6.59,2.49-13,9.26-16.33l.07.12c3,5.15,7.72,8.2,12.52,8.13.12,0,2.95-.08,4.42-2a4.67,4.67,0,0,0,.68-4.09,6.64,6.64,0,0,0-3.38-4.41c-3-1.68-7.64-1.71-12.33-.08q-.7.24-1.37.52c-2.19-4.46-3.16-10.79.14-16.49,2.89-5,9.92-10.86,27-10.86h.71a32.91,32.91,0,0,1,4.87.38,22.36,22.36,0,0,0-.15,6.92c.84,6.19,4.34,7.6,6.34,7.89A5.27,5.27,0,0,0,55.62,31a7,7,0,0,0,.24-7.22c-.85-1.67-3.36-5.1-10-6.55a21.65,21.65,0,0,1,4.8-9.18C54,4.25,58.5,1.88,62.37,1.88h.19l.16,0C68.63.89,82.67.08,88.1,12.38l-.56.2c-4,1.43-4.84,3.07-4.88,4.2a3.07,3.07,0,0,0,2.06,2.8,4.35,4.35,0,0,0,4.7-.45c.89-.83,1.68-2.52.48-5.89a25.46,25.46,0,0,1,24.41,4.93c4.85,4.2,7.65,10,6.81,14A5.05,5.05,0,0,1,117.9,36Zm-1.35.42c-6.09,1.6-10.73-.62-12.16-2.82-.49-.75-1-1.79-.64-2.44s1.82-.9,2.29-.9h.13C110.05,30.27,113.84,32.54,116.55,36.43ZM12.1,46.51q.57-.24,1.17-.44a19.29,19.29,0,0,1,6.25-1.14,10.3,10.3,0,0,1,5,1.12,5.26,5.26,0,0,1,2.72,3.53,3.4,3.4,0,0,1-.42,2.95A5,5,0,0,1,23.42,54H23.3C19,54,14.84,51.19,12.1,46.51Z"/></svg>