<svg xmlns="http://www.w3.org/2000/svg" viewBox="0 0 130.64 71.86"><defs><style>.a{fill:#fff;}</style></defs><title>cloud-1</title><path class="a" d="M109.5,71.86q-.87,0-1.78,0c-9.63-.39-30,0-30.21,0a1,1,0,1,1,0-2c.21,0,20.64-.39,30.33,0,13.5.55,19.52-5.47,20.63-11.29,1.05-5.54-2-11-7.66-13.86-2.75,4.56-6.94,7.25-11.31,7.18A6,6,0,0,1,105.25,50a4.52,4.52,0,0,1-.67-4,6.27,6.27,0,0,1,3.19-4.17c2.78-1.54,7-1.58,11.25-.1l.88.33a15,15,0,0,0-.27-13.9c-2.54-4.38-8.81-9.54-24.22-9.42a29.13,29.13,0,0,0-4,.3,17,17,0,0,1,.23,5.83c-.57,4.19-2.74,6.86-6,7.33a5.06,5.06,0,0,1-5-2,6.56,6.56,0,0,1-.25-6.81c.75-1.48,2.91-4.45,8.48-5.84A19.69,19.69,0,0,0,85,11a27.37,27.37,0,0,0-20.6-8.85h0a1,1,0,0,1,0-2A29.44,29.44,0,0,1,86.47,9.63a21.57,21.57,0,0,1,4.38,7.48,30.5,30.5,0,0,1,4.52-.36c16.35-.14,23.17,5.58,26,10.42a17,17,0,0,1,.37,15.73c6.4,3.31,9.9,9.57,8.68,16S123.05,71.86,109.5,71.86ZM113,42.66a8.77,8.77,0,0,0-4.22.93,4.27,4.27,0,0,0-2.21,2.86,2.61,2.61,0,0,0,.29,2.27,3.93,3.93,0,0,0,2.69,1.13c3.57,0,7.06-2.19,9.43-6l-.58-.21A16.71,16.71,0,0,0,113,42.66ZM89.41,19.44C84.6,20.62,82.8,23,82.18,24.27A4.58,4.58,0,0,0,82.27,29a3.08,3.08,0,0,0,3.09,1.22c2.3-.33,3.81-2.33,4.26-5.62A15,15,0,0,0,89.41,19.44Z"/><path class="a" d="M21.14,71.86c-13.55,0-19.69-6.59-20.9-13s2.28-12.69,8.68-16a17,17,0,0,1,.37-15.73c2.81-4.84,9.57-10.56,26-10.42a30.61,30.61,0,0,1,4.44.35,23.72,23.72,0,0,1,5.75-9.67,23.21,23.21,0,0,1,19-7.32,1,1,0,1,1-.2,2A21.23,21.23,0,0,0,46.88,8.82a21.77,21.77,0,0,0-5.22,8.67c5.64,1.39,7.82,4.38,8.57,5.87A6.56,6.56,0,0,1,50,30.17a5.05,5.05,0,0,1-5,2c-3.22-.46-5.39-3.13-6-7.33A18.06,18.06,0,0,1,39.22,19a29.22,29.22,0,0,0-4-.29c-15.45-.14-21.68,5-24.22,9.42a15,15,0,0,0-.27,13.9l.88-.33c4.26-1.48,8.47-1.45,11.25.1A6.27,6.27,0,0,1,26.07,46a4.52,4.52,0,0,1-.67,4,6,6,0,0,1-4.22,1.89c-4.34.05-8.57-2.62-11.31-7.18C4.24,47.57,1.15,53,2.21,58.53c1.1,5.82,7.11,11.84,20.63,11.29,9.69-.39,54.21,0,54.66,0a1,1,0,0,1,0,2h0c-.45,0-44.93-.39-54.56,0C22.31,71.85,21.72,71.86,21.14,71.86Zm-9.44-28c2.37,3.82,5.83,6.05,9.44,6a3.92,3.92,0,0,0,2.68-1.13,2.61,2.61,0,0,0,.29-2.27,4.27,4.27,0,0,0-2.21-2.86c-2.26-1.25-5.95-1.23-9.62,0ZM41.18,19.43A16.1,16.1,0,0,0,41,24.61c.45,3.29,2,5.28,4.26,5.62A3.08,3.08,0,0,0,48.37,29a4.58,4.58,0,0,0,.09-4.74C47.84,23,46,20.61,41.18,19.43Z"/></svg>