<svg xmlns="http://www.w3.org/2000/svg" viewBox="0 0 486.7 809.67" style=""><defs><style>.cls-1,.cls-2{fill:none;stroke:#4d392b;stroke-width:4px;}.cls-1{stroke-miterlimit:10;}.cls-2{stroke-linecap:round;stroke-linejoin:round;}</style></defs><title>Ativo 4</title><g id="Camada_2" data-name="Camada 2"><g id="Camada_1-2" data-name="Camada 1"><path class="cls-1 ULWvAGBx_0" d="M227.6,589.75a18.36,18.36,0,0,0,.82-36.59c2.31-6.18,9.29-10.68,17.54-10.68s15.23,4.5,17.54,10.68a18.36,18.36,0,0,0,.82,36.59v.87H227.6Z"></path><path class="cls-1 ULWvAGBx_1" d="M284.44,519.2A14.14,14.14,0,0,1,297,526.78a14.17,14.17,0,1,0-25.07,0A14.14,14.14,0,0,1,284.44,519.2Z"></path><path class="cls-1 ULWvAGBx_2" d="M203.16,506a14.16,14.16,0,0,0-12.54,20.75,14.15,14.15,0,0,1,25.07,0A14.16,14.16,0,0,0,203.16,506Z"></path><path class="cls-1 ULWvAGBx_3" d="M243,270.18c-21.18.58-39.65,12.28-45.63,28.29,20.62,2.09,41.69,25,42.62,47.2.19,4.59.92,6.92-.2,11.46-2.35,9.57-8.77,24.84-28.56,31.28a39.66,39.66,0,0,0,69,1.32c-23.59-5.37-30.84-22.3-33.38-32.6-1.12-4.54-.38-6.87-.19-11.46.93-22.24,22-45.11,42.62-47.2C283.3,282.46,264.22,270.76,243,270.18Z"></path><path class="cls-2 ULWvAGBx_4" d="M343.2,183.76c-.15.44-2.05-.26-2.8-.68-20.2-11.36-34.74,6.06-38.1,10.66-.1.36-.25.7-.33,1.07-.06-.13-.11-.26-.16-.38l-.26.38v-1a21.74,21.74,0,0,1-1.86-8.7,22,22,0,0,1,44-.87C343.52,184.08,343.35,183.93,343.2,183.76Z"></path><path class="cls-2 ULWvAGBx_5" d="M165,163.12a22,22,0,0,1,22,22,21.74,21.74,0,0,1-1.86,8.7v1l-.26-.38c-.06.12-.1.25-.16.38-.08-.37-.23-.71-.33-1.07-3.36-4.6-17.9-22-38.11-10.66-.74.42-2.64,1.12-2.79.68-.16.17-.33.32-.48.5A22,22,0,0,1,165,163.12Z"></path><path class="cls-2 ULWvAGBx_6" d="M480.43,163.35c-12.54-69.59-55-125.22-109.8-153.85h0l-.05,0c-1.46-.76-2.92-1.51-4.39-2.23l-1.06.25C358.62,5.28,347.52,2,338.52,2,307.83,2,257.3,17.45,253.31,118.87v15.55c0,32,8.34,67,23.09,95.6,1.81,3.49,6.18,10.17,8.54,13.61,25.55,37.24,55.87,27.8,70.76,45.22a58.45,58.45,0,0,1,11.75,50.6c-7.54,24.24-29.68,43.73-56.15,49.81a89.3,89.3,0,0,1-11.53,1.79,57.81,57.81,0,0,1-107.2.28,84.68,84.68,0,0,1-17.17-2.07c-26.48-6.08-48.62-25.57-56.15-49.81A58.45,58.45,0,0,1,131,288.85c14.89-17.42,45.21-8,70.75-45.22,2.36-3.44,6.74-10.12,8.54-13.61,14.76-28.64,23.09-63.62,23.09-95.6V118.87C229.39,17.45,178.87,2,148.18,2c-9,0-20.1,3.28-26.62,5.49l-1-.25c-1.47.72-2.93,1.47-4.39,2.23l-.06,0h0C61.24,38.13,18.81,93.76,6.27,163.35-3.09,215.29,2.42,260.47,28,295.22a51.51,51.51,0,0,0,5.31,6.57h0c13.87,14.54,35.29,20.1,54.58,12.35A48.12,48.12,0,0,0,105.37,302c-10-29.64-14.31-45-16.18-62.15-1-5.35-1.92-11-2.55-16.9a1,1,0,0,1,.85-1.09,1,1,0,0,1,.3,0v0a1,1,0,0,1,.81.8C95,260,112.79,289.21,118.09,297.26h0c.07.07.16.12.23.2-18,22.87-37,59.66-37,59.66H82c-10.71,20.42-20,41.58-26.6,57.48A253.88,253.88,0,0,0,42.34,568.06c12.84,57.15,35,98.09,80.65,134.67h.06A51.21,51.21,0,0,0,159.37,718a51.12,51.12,0,0,0,51-48.29c0-.32,0-.65,0-1a50.63,50.63,0,0,0-.1-5.22c0-.51-.06-1-.11-1.53a50.82,50.82,0,0,0-1-6.28,43.65,43.65,0,0,0-1.26-4.35c-.09-.25-.17-.5-.25-.74-5-13.94-15.56-23.77-15.56-23.77-22.49-20.84-41.34-51.65-48.07-81.63a151.25,151.25,0,0,1,29.47-127.64h.33l26.85,45s12-11.36,42.92-12.37c31,1,42.32,12.37,42.32,12.37h2l30.3-40.85.21.27c1-1.52,2.11-3,3.25-4.43A208.26,208.26,0,0,1,349.54,506c.16,2,.27,4,.39,6,.18,3.57.36,7.14.36,10.73A208.44,208.44,0,0,1,223.85,714.56a10.25,10.25,0,0,0-1,.54c-1,.49-2,1-2.94,1.56a48.77,48.77,0,0,0,36.46,89.49,9.4,9.4,0,0,0,1.19.12,9.88,9.88,0,0,0,3.89-.79A306.49,306.49,0,0,0,447.2,552.71c1-9.87,3.41-28.92.3-72.8-7.5-106.09-78.89-182.64-78.89-182.64l-.07.41-.17-.21c.08-.08.17-.13.24-.2h0c5.3-8.05,23.09-37.24,29.48-74.56a1,1,0,0,1,.81-.8v0a1.06,1.06,0,0,1,.31,0,1,1,0,0,1,.85,1.09c-.64,5.9-1.52,11.55-2.56,16.9-1.87,17.14-6.2,32.51-16.17,62.15a48.12,48.12,0,0,0,17.52,12.12c19.29,7.75,40.7,2.19,54.57-12.35h0a52.38,52.38,0,0,0,5.31-6.57C484.28,260.47,489.79,215.29,480.43,163.35Z"></path></g></g><style data-made-with="vivus-instant">.ULWvAGBx_0{stroke-dasharray:192 194;stroke-dashoffset:193;animation:ULWvAGBx_draw_0 9200ms ease-in-out 0ms infinite,ULWvAGBx_fade 9200ms linear 0ms infinite;}.ULWvAGBx_1{stroke-dasharray:90 92;stroke-dashoffset:91;animation:ULWvAGBx_draw_1 9200ms ease-in-out 0ms infinite,ULWvAGBx_fade 9200ms linear 0ms infinite;}.ULWvAGBx_2{stroke-dasharray:89 91;stroke-dashoffset:90;animation:ULWvAGBx_draw_2 9200ms ease-in-out 0ms infinite,ULWvAGBx_fade 9200ms linear 0ms infinite;}.ULWvAGBx_3{stroke-dasharray:452 454;stroke-dashoffset:453;animation:ULWvAGBx_draw_3 9200ms ease-in-out 0ms infinite,ULWvAGBx_fade 9200ms linear 0ms infinite;}.ULWvAGBx_4{stroke-dasharray:129 131;stroke-dashoffset:130;animation:ULWvAGBx_draw_4 9200ms ease-in-out 0ms infinite,ULWvAGBx_fade 9200ms linear 0ms infinite;}.ULWvAGBx_5{stroke-dasharray:128 130;stroke-dashoffset:129;animation:ULWvAGBx_draw_5 9200ms ease-in-out 0ms infinite,ULWvAGBx_fade 9200ms linear 0ms infinite;}.ULWvAGBx_6{stroke-dasharray:4591 4593;stroke-dashoffset:4592;animation:ULWvAGBx_draw_6 9200ms ease-in-out 0ms infinite,ULWvAGBx_fade 9200ms linear 0ms infinite;}@keyframes ULWvAGBx_draw{100%{stroke-dashoffset:0;}}@keyframes ULWvAGBx_fade{0%{stroke-opacity:1;}95.65217391304348%{stroke-opacity:1;}100%{stroke-opacity:0;}}@keyframes ULWvAGBx_draw_0{8.695652173913043%{stroke-dashoffset: 193}10.542980535093497%{ stroke-dashoffset: 0;}100%{ stroke-dashoffset: 0;}}@keyframes ULWvAGBx_draw_1{10.542980535093497%{stroke-dashoffset: 91}11.41400064321485%{ stroke-dashoffset: 0;}100%{ stroke-dashoffset: 0;}}@keyframes ULWvAGBx_draw_2{11.41400064321485%{stroke-dashoffset: 90}12.275449101796408%{ stroke-dashoffset: 0;}100%{ stroke-dashoffset: 0;}}@keyframes ULWvAGBx_draw_3{12.275449101796408%{stroke-dashoffset: 453}16.611406343323583%{ stroke-dashoffset: 0;}100%{ stroke-dashoffset: 0;}}@keyframes ULWvAGBx_draw_4{16.611406343323583%{stroke-dashoffset: 130}17.855720783496945%{ stroke-dashoffset: 0;}100%{ stroke-dashoffset: 0;}}@keyframes ULWvAGBx_draw_5{17.855720783496945%{stroke-dashoffset: 129}19.09046357413051%{ stroke-dashoffset: 0;}100%{ stroke-dashoffset: 0;}}@keyframes ULWvAGBx_draw_6{19.09046357413051%{stroke-dashoffset: 4592}63.04347826086957%{ stroke-dashoffset: 0;}100%{ stroke-dashoffset: 0;}}</style></svg>