<svg xmlns="http://www.w3.org/2000/svg" viewBox="0 0 340.73 634.86" class="" style=""><defs>
<style>
.a,.b,.c,.d,.e,.f,.g,.h,.i{
    fill: none;
    stroke: rgba(0,0,0,.3);
}
.a,.d,.e,.h{stroke-linecap:round;stroke-linejoin:round;}.a,.f{stroke-width:1.3px;}.b,.c,.f,.g,.i{stroke-miterlimit:10;}.b,.e{stroke-width:2px;}.c{stroke-width:3px;}.h,.i{stroke-width:1.5px;}</style></defs><title>Talento Design</title><path class="a v_0"
d="M116.77,234.33c0-7.37-31.23-32.77-17.18-31.64s21.8-1,21.8-13-4.49-19.85,4.49-22.09,16.85-1.69,10.67-10.67-15.86-26.35-30.64-32.4c-10.1-4.13-31.91,1.87-34.15,19.85s-2.06,47.19,9.18,45.32,9.92-14.84,3.93-24.34c-5.49-8.72-5.62-17.42,3.37-17.42s4.2,12.91,13.48,10.67c.85-.2,5.06-2.81-1.69-12.36,0,0-2.63-4.49,5.14-3.93s17.33,1.48,17.33-19.2"></path><path class="b v_1" d="M117.6,152.41A0.98,0.98 0,1,1 119.56,152.41A0.98,0.98 0,1,1 117.6,152.41"></path><path class="b v_2" d="M294.61,190.95A0.94,0.94 0,1,1 296.49,190.95A0.94,0.94 0,1,1 294.61,190.95"></path><path class="c v_3" transform="translate(118.29 288.5) rotate(-87.39)"
d="M209.66,82.34A0.47,0.47 0,1,1 210.6,82.34A0.47,0.47 0,1,1 209.66,82.34"></path><path class="a v_4" d="M99.48,173.42s3.78,13.52,21.31,10.59"></path><path class="a v_5"
d="M81.71,189.52s6.67,11-11.79,19.6-25.78,20.46-22.07,37.09c4.82,21.56,57.34,48.13,90.91,6C151.69,236,152.09,228,152.09,228l-12.81-7.64s-12.6,37.87-49.52,29.31c0,0-15.1-2.4-21.46-13.08"></path><path class="a v_6"
d="M179.66,206.37l16-.45c.25-2.93-4-3.79-4-3.79s-13.47-.68-29.19,0-23.2,18.22-23.2,18.22"></path><path class="a v_7" d="M180.08,210.68s11.94-.19,16.15-.19c3.38,0,3.66-4.68-.56-4.53"></path><path class="a v_8" d="M180.08,215.4s11.94-.2,16.15-.2c3.38,0,3.66-4.81-.56-4.65"></path><path class="a v_9" d="M182.15,220s6.76.11,11,.11c3.38,0,3.59-5.08-.62-4.92"></path><path class="a v_10"
d="M156.47,212c6.68-2.82,9.94,5.18,14.93,5.18h6.74s3.48.15,3.49,2.37c0,2-1,2.59-5,2.48s-18-1-21,1.69c-1.28,1.16-2.57,2.46-3.62,3.56"></path><path class="d v_11"
d="M176.67,203.06a.9.9,0,0,1-.94.94H171c-.63,0-.94-.48-.94-1.41v-2.18c0-.42,0-.79,0-1.14h6.56c0,.26,0,.51,0,.8Zm-3.29-27.28a9.38,9.38,0,0,1,6.69,2.71,9.51,9.51,0,0,1,2.87,6.85,9.24,9.24,0,0,1-3.51,7.33,7.67,7.67,0,0,0-1.78,2.12h0a4.36,4.36,0,0,0-.65,1.45,6.61,6.61,0,0,0-.3,1.47h0c0,.1,0,.21,0,.32h-6.64c0-.11,0-.22,0-.32h0a6.3,6.3,0,0,0-.25-1.44,1.85,1.85,0,0,0-.08-.23h0a7,7,0,0,0-2.26-3.21,9.3,9.3,0,0,1-3.66-7.64,9.83,9.83,0,0,1,9.56-9.4"></path><path class="d v_12" d="M173.38,166.68v3.22"></path><path class="d v_13" d="M172.74,166.68"></path><path class="d v_14" d="M174,166.68"></path><path class="d v_15" d="M174,169.9"></path><path class="d v_16" d="M172.74,169.9"></path><path class="d v_17" d="M184.08,174.54l2.24-2.24"></path><path class="d v_18" d="M188.68,185.21h3.22"></path><path class="d v_19" d="M184,194.65l2.21,2.3"></path><path class="d v_20" d="M160.2,197.1l2.25-2.26"></path><path class="d v_21" d="M154.67,185.21h3.22"></path><path class="d v_22" d="M163,173.88"></path><path class="d v_23" d="M162.07,174.95"></path><path class="d v_24" d="M159.85,172l2.47,2.34"></path><path class="d v_25" d="M179.18,185.21"></path><path class="d v_26" d="M173.38,179.4"></path><path class="d v_27" d="M179.82,185.21a6.63,6.63,0,0,0-6.44-6.44"></path><path class="d v_28" d="M173.38,178.12"></path><path class="d v_29" d="M180.47,185.21"></path><path class="a v_30"
d="M254.31,134c-12.47-7-18.33-17.77-11.83-23.71,6.26-5.71,22-7.11,20.71-20.1-.23-2.37-.54-2.8,0-2.92,6.63-1.57,11.45-14.22.89-19.13,0,0,5.14-7.23-.67-12.34-1.1-1-4.31-2.48-7-1.43,0,0,2.19-6.78-2.71-10.8-2-1.64-6.36-3.08-9.89-1.28,0,0-2.28-6.34-8-7.55s-8.35,4.41-8.35,4.41-4.15-3.54-9-3.28-7.48,6.37-7.48,6.37-16.19-5-18.74,8.83,15.32,13.55,20.15,12.81,4.57-5.54,2.18-5.65-12,1.37-13.16,15.22-11.51,21-5.9,24.18c4.88,2.73,6.32,1.3,7,7.23.09.88,8.86-1,8.93.2.05,1,.4,5.2-5.15,7.89-.45.22-1.74.13-1.46.62,5.77,9.91,17.76,4.47,21.79,10.64"></path><path class="a v_31"
d="M221.41,68s1.19,15.87,7.41,16.16a6.92,6.92,0,0,1,9.68-2c6.07,3.63,5,13.45-4.55,15.61-10,2.27-8.46,6.8-8.07,8.74a4.29,4.29,0,0,0,4.57,3.31c6-.84,4.42-7.71,4.42-7.71"></path><path class="e v_32"
d="M206.28,589.22s1-24.24.9-52.87c-.11-27.48,3.45-24.93,12.53-32.47,9.38-7.79,12.8-16.48,10.85-26.48-1.67-8.54-18-18.64-33.22,0s-33.12-2-43-23.54-18.73-24.51-27.73-25.48c-69.47-7.51-60-29.64-60-29.64H243.35S282.3,487,219.64,524.65"></path><path class="e v_33"
d="M87.18,420.29C80.89,434,67.93,481.12,67.93,492.1S80.37,500,83.81,516.65s4.33,38.24,38.34,45.1,33.09,16.68,32.21,27.47"></path><path class="e v_34" d="M89.66,471.56A11.95,25.9 0,1,1 113.56,471.56A11.95,25.9 0,1,1 89.66,471.56"></path><path class="e v_35" d="M164.8,472.4L114.56,472.4"></path><path class="e v_36" d="M122.66,511.73s-4,14.38-19.45,11.77"></path><path class="e v_37" d="M89.66,471.56s-4.64-5.57-18-4.72"></path><path class="a v_38"
d="M340.08,122.27s-73.45-2.61-85.77,11.72S242,161.35,242,161.35s-1,4.88,2,5.21,4.56.65,5.21-7.16,8.07-19,8.07-19-10.67,14.82-7.74,28.49a4.52,4.52,0,0,0,4.83,1.3c3-1,2.66-4.88,4.29-11.07s6.17-14.86,6.17-14.86S254.7,162.33,258,171.77c0,0,3.58,5.54,6.19,0s3.9-16.23,9.09-24.8c0,0-7.13,9.49-7.78,29.36,0,0,4.23,5.54,7.16-4.88s5.54-19.23,14.33-21.5c0,0,50.22-.34,53.15,0"></path><path class="a v_39"
d="M243.3,153.86s-7.81.65-13.35,13.19S213,206.78,213,206.78l19.05,9-31.91,21.66-24.26-2.12,18.89,29.31,8.14-21.49,40.71-21.49,14,6.51s8,5.72,11.65-2.93c4-9.58,11.48-26.05,11.48-26.05s4.56-8.79-2-11.07l-3.91-1.63s6.51-16.7-.33-21.56"></path><path class="a v_40" d="M242,161.35s-2.52-.08-6.19,7.25l33.46,15.63s3.31-1.6,2.51-10.33"></path><path class="a v_41" width="7.55" height="97.53"
d="M156.81 301.2 L164.36 301.2 L164.36 398.73 L156.81 398.73 Z"></path><path class="f v_42"
d="M173.54,295.92a22.1,22.1,0,0,0-9,13.54,23.3,23.3,0,0,0,24.62-17.93A22.1,22.1,0,0,0,173.54,295.92Z"></path><path class="f v_43"
d="M173.54,316.65a22.1,22.1,0,0,0-9,13.54,23.3,23.3,0,0,0,24.62-17.93A22.1,22.1,0,0,0,173.54,316.65Z"></path><path class="f v_44"
d="M147.83,295.92a22.1,22.1,0,0,1,9,13.54,23.3,23.3,0,0,1-24.62-17.93A22.1,22.1,0,0,1,147.83,295.92Z"></path><path class="f v_45"
d="M147.83,316.65a22.1,22.1,0,0,1,9,13.54,23.3,23.3,0,0,1-24.62-17.93A22.1,22.1,0,0,1,147.83,316.65Z"></path><path class="f v_46"
d="M176.17,339.07c-6.38,4.64-10.4,11.09-11.55,17.43,6.39.85,13.76-1,20.14-5.64s10.4-11.09,11.55-17.43C189.91,332.58,182.54,334.43,176.17,339.07Z"></path><path class="f v_47"
d="M145.14,339.07c6.38,4.64,10.4,11.09,11.55,17.43-6.39.85-13.76-1-20.14-5.64s-10.4-11.09-11.55-17.43C131.4,332.58,138.77,334.43,145.14,339.07Z"></path><path class="a v_48"
d="M180.82,272.7A20.23,20.23,0,1,0,149,289.25l0,0s7.88,5.34,7.88,12h7.56c0-6.63,7.88-12,7.88-12l0,0A20.19,20.19,0,0,0,180.82,272.7Z"></path><path class="a v_49"
d="M167.16,274.93c-2.16-2-11-2.64-11,3.84,0,8,11.41,6.48,11,2s-12.6-2.73-9.86,6.14,11.85,3.43,8.64,1.71c-3.53-1.9-8.45.27-7.79,4.18.55,3.28,3.71,4,3.71,8.11"></path><path class="a v_50"
d="M175.68,25.69A14.82,14.82,0,1,0,152.36,37.8h0s5.77,3.91,5.77,8.77h5.53c0-4.85,5.77-8.77,5.77-8.77h0A14.79,14.79,0,0,0,175.68,25.69Z"></path><path class="a v_51"
d="M165.68,23.32c-1.89-1.46-9.59-1.93-9.59,2.81,0,5.86,10,4.75,9.58,1.5s-11-2-8.62,4.5,10.36,2.51,7.55,1.25c-3.09-1.39-7.38.2-6.81,3.06.48,2.4,3.24,1.39,3.24,9.94"></path><path class="a v_52" d="M156.81,305.47L164.36,305.47"></path><path class="a v_53" d="M156.81,309.61L164.36,309.61"></path><path class="a v_54"
d="M122.51,123.09c-1-13.84-13.68-27.86-20.24-18.22-10.13,14.88-20.57,14.91-20.57,14.91-34.8,5.48-42.92-46.76-46-57.86s-5.42-9-11.84-14.18-6.18-8-2.83-7.64,5,3.51,7.07,4.74,4.6-.27,3.08-4.26-2.67-4.55-8.1-4.43-4.26-3.08-4.26-3.08,1.91-1.06,6.41-.79,6,.62,8.48,3.93S58,88.83,63.82,95.52c6.82,7.88,17.89,8,21,2C88.39,90.67,86,83,81,82.64s-14.24.95-13.18-7.21a9.47,9.47,0,0,0-2.45-8.14c-2.87-1.15-5.32-4-.37-7.9,5.34-4.25,2.95-5.12,6.83-10.65s12-8,20.15-6.63c29.45,4.79,18,44.29,36,41.36,0,0,22.93,1.5,18.11,21.21s7.35,20.58,7.35,20.58"></path><path class="b v_55" transform="translate(6.77 119.99) rotate(-79.35)"
d="M75.16999999999999,55.92A0.54,0.54 0,1,1 76.25,55.92A0.54,0.54 0,1,1 75.16999999999999,55.92"></path><path class="a v_56"
d="M12.27,32.46c-.58-3.63-4.43-3.68-6.95-3.16S.65,27.71.65,27.71c.57,6.79,6.08,8.54,9,8a2.92,2.92,0,0,0,2.6-3.21l46.2,21.35L10.83,35.26"></path><path class="a v_57"
d="M79.94,39.11S74.46,53.81,93.66,62.3c14.56,6.43.83,27.29,24.93,33.38,22.07,5.58,46.24-9,42.45-49.3"></path><path class="a v_58"
d="M68.3,236.58c-3.07-18.89,64.87,40,31.18,56.46-5.11,2.5-16.54,0-23.3-8.92-7.92-10.45-22-11.41-32.95-.45s-4.25,21.66-.15,30A36.33,36.33,0,0,1,47,329.23s1.19,10.22,7,4.44,3.94-10,12.77-8.08,9.4,6.54,16.67-5,10-6.2,11.15-1.27S96,371.87,76.91,366.61s-39.94-11.4-48.78-9a100.91,100.91,0,0,0-12.94,4.27s-2.46.91-2.46,2.45c0,2,1.83,1.86,4.22,1.07s7.83-1.86,7.83-1.86l-8,3.38s-2.11,1-1.36,2.91c.53,1.33,1.64,1.58,3.16,1.08s6.67-2.44,6.67-2.44-7.72,2.08-6.58,4.8c.91,2.15,2.94,1,4,.63s4.28-1.65,4.28-1.65-5.94,1-4.79,3.75,6.3-1.36,11.38-2.79,11.81-5.12,24.36,1.47,34.74,14.54,47.84-7.67c10.06-17.06,11.68-37.61,6.06-57.41"></path><path class="b v_59" transform="translate(-94.64 31.13) rotate(-18.28)"
d="M48.31,309.62A1.08,1.08 0,1,1 50.47,309.62A1.08,1.08 0,1,1 48.31,309.62"></path><path class="a v_60" d="M17.33,361.06L24.52,349.11L27.65,350.99L22.68,359.24"></path><path class="a v_61" d="M15.83,370.62L12.54,376.1L9.41,374.22L14.39,365.96"></path><path class="d v_62" d="M6.34,382.87L8.15,376.1L11.47,378.1L6.34,382.87Z"></path><path class="a v_63"
d="M154.23,68C133,65.7,116.64,51.57,116.64,34.5,116.64,15.8,136.22.65,160.38.65S204.13,15.8,204.13,34.5a26.69,26.69,0,0,1-1.27,8.12c-3.54,11.11-14.17,20.07-28,23.82"></path><path class="a v_64" d="M174.89,66.43S169,100,197.8,110c0,0-25-4.24-35.46-34.82"></path><path class="a v_65"
d="M227.17,173.42s-18.18-10.22-31.49-15-23.39-4-23-6.65,1.2-3.36,4.75-3.24c7.65.26,13.91,3.4,14.62-3.82.62-6.31-9.37-20.2-16.32-18.37s-9.89,2.36-10.83-.49c-.5-1.52.64-2.42,3.47-3.66,5.31-2.32,12.48-6.33,21,2.75,11.29,12,18.31,30.29,32,30.29,14.47,0,20.85-14.4,5.27-31"></path><path class="a v_66"
d="M170.93,121.1s-2.51.56-2.42-2.94c0-1.14,1-1.75,2.38-2.05a23.31,23.31,0,0,1,7,0s6.76-.07,11.49,8.77"></path><path class="a v_67" d="M170.89,116.11s-2-3.67,1.69-3.87,11.59,1,14.88,5.68A70.39,70.39,0,0,1,193.75,130"></path><path class="a v_68"
d="M146.44,135.78l.19-.12,5.51-2.2a.68.68,0,0,0,.1-1.08,4.33,4.33,0,0,1-1.15-1.63,4.2,4.2,0,1,1,7.79-3.13,4.28,4.28,0,0,1,.29,2,.68.68,0,0,0,.82.72l5.5-2.22.21,0a.68.68,0,0,1,.85.4l2.44,6.11a.64.64,0,0,0,.8-.14,4.3,4.3,0,0,1,4.45-1.26,1.7,1.7,0,0,1,.57.25c3.38,2.31,2.59,6.55-.32,7.73a4,4,0,0,1-1.88.27.63.63,0,0,0-.67.51l2.46,6.14a.68.68,0,0,1-.37.89l-5.79,2.32-.09,0h0a.68.68,0,0,1-.9-.79,4.59,4.59,0,0,0-2.06-4.55,4.2,4.2,0,0,0-1.1-.41,4.2,4.2,0,0,0-4.3,1.73,4.12,4.12,0,0,0-.51,1.06,4.59,4.59,0,0,0,1.67,4.71.68.68,0,0,1-.1,1.19h0l-.09.05-5.78,2.34a.68.68,0,0,1-.88-.39l-2.48-6.14a.64.64,0,0,0-.84.1,4,4,0,0,1-1.55,1.11c-2.92,1.17-6.42-1.35-5.58-5.36a1.69,1.69,0,0,1,.24-.57,4.3,4.3,0,0,1,4.08-2.17.64.64,0,0,0,.68-.46l-2.46-6.1A.68.68,0,0,1,146.44,135.78Z"></path><path class="a v_69" width="7.67" height="7.17"
d="M 158.37,46.56 L 164.04,46.56 A 1,1,0,0,1,165.04,47.56 L 165.04,52.730000000000004 A 1,1,0,0,1,164.04,53.730000000000004 L 158.37,53.730000000000004 A 1,1,0,0,1,157.37,52.730000000000004 L 157.37,47.56 A 1,1,0,0,1,158.37,46.56"></path><path class="g v_70" d="M162.44,53.79c0,1,0,1.19-1,1.19s-1-.22-1-1.19"></path><path class="g v_71" d="M162.87,53.79"></path><path class="g v_72" d="M159.37,53.79"></path><path class="a v_73"
d="M35.2,123.74,9.57,150.22s-7.77,8.25,4.16,9.89,9,3.23,9.25,10,2.28,22.27,13.41,22.27,24.25-1.69,25.44,21.47"></path><path class="a v_74" d="M51.9,106.48L44.36,114.27"></path><path class="g v_75"
d="M44.36,127.38c0-8-2.05-14.42-4.58-14.42h2.49c2.53,0,4.58,6.46,4.58,14.42S44.8,141.8,42.27,141.8H39.78C42.31,141.8,44.36,135.34,44.36,127.38Z"></path><path class="g v_76" d="M35.2,127.38A4.58,14.42 0,1,1 44.36,127.38A4.58,14.42 0,1,1 35.2,127.38"></path><path class="g v_77"
d="M28.69,130.47a35.92,35.92,0,0,0,.47-5.9c0-7.36-2-13.33-4.53-13.33h2.46c2.5,0,4.53,6,4.53,13.33,0,.92,0,1.82-.09,2.69"></path><path class="g v_78"
d="M22.7,136.65c-1.54-2.12-2.62-6.73-2.62-12.08,0-7.36,2-13.33,4.53-13.33s4.53,6,4.53,13.33a36.68,36.68,0,0,1-.36,5.19"></path><path class="g v_79" d="M35.68,121.09"></path><path class="g v_80" d="M35.23,122.43"></path><path class="g v_81" d="M31,119.81"></path><path class="g v_82" d="M35.68,121.09"></path><path class="g v_83" d="M35.59,121.55s-1.15-1.73-4-1.2"></path><path class="g v_84" d="M35.23,122.43"></path><path class="g v_85" d="M31,121.09"></path><path class="g v_86" d="M31,121.09"></path><path class="g v_87" d="M31,119.81"></path><path class="d v_88" d="M41.78,162.54s-2,11-18.8,10.55"></path><path class="a v_89" d="M63.85,589.22L290.96,589.22"></path><path class="a v_90" d="M129.32,617.01L236.86,617.01"></path><path class="a v_91" d="M137.75,634.21L217.06,634.21"></path><path class="a v_92" d="M251.86,617.01L269.91,617.01"></path><path class="a v_93" d="M107.69,603.11L215.24,603.11"></path><path class="a v_94" d="M229.07,603.11L247.12,603.11"></path><path class="a v_95"
d="M147.23,398.73s2.82-19-7.72-32S115.1,358.23,115,366c-.19,12.08,13.39,10.14,13.34,2.39"></path><path class="a v_96" d="M107.69,386.51A3.64,3.64 0,1,1 114.97,386.51A3.64,3.64 0,1,1 107.69,386.51"></path><path class="a v_97"
d="M123.78000000000002,390.15A7.49,7.49 0,1,1 138.76000000000002,390.15A7.49,7.49 0,1,1 123.78000000000002,390.15"></path><path class="b v_98"
d="M226.56,332.57A0.93,0.93 0,1,1 228.42000000000002,332.57A0.93,0.93 0,1,1 226.56,332.57"></path><path class="a v_99"
d="M284.25,387.32c-7.58,3.68-22.48-1.3-22.48-1.3-12.57-5.63-17-5.8-23-6.37a31.84,31.84,0,0,0-15,2.17c-6.07,2.38-5.63,4.55-5,5s0,.77,5.63-1.73A24.54,24.54,0,0,1,236,383.46a80.3,80.3,0,0,0-7.33,4.87c-3.07,2.38-1.55,4.12-1.55,4.12s.51.87,1.55,0,4.95-4.82,10.15-6.2c0,0-10.32,3.82-10.15,8.15,0,0,.18,2,3.86-1.08s9.32-3.9,9.32-3.9-9.67,1-11.66,7.77c0,0,2.78,1.33,5.81-1.49s5.89-3.9,8.25-2.82,4.28,3.68,11.66,3.25,17.57,2.17,23.63,3.9,20.13,3,12.7-12.7c0,0-12.27-26.73-20.5-29.77s-12.13,5.2-22.3,11.7-16.27-8.23-18.3-12.78-5.34-3.25-9.67-1.09-5.63,3-3-16.9,6.72-22.73,10-26c4.77-4.8,24.3-10.83,31.63,4.77,7.6,16.17,13.87,13.9,13.87,13.9,8.8,3.53,17.95-8.33,20.8-13.9,8.23-16.05,12.81-28,45.38-30"></path><path class="a v_100" d="M231.12,397.18H217.66a4.44,4.44,0,0,1-4.43-4.43h0a4.44,4.44,0,0,1,4.43-4.43h11"></path><path class="a v_101"
d="M213.23,392.75s-12.24,5.71-15.38-9.84c-.56-2.76-1.53-10.39,4.33-10.4,5.64,0,4.55,18.38-7.15,21.21s-15.47-9.81-15.79-14.14c-.43-5.86,5.71-8,6.57-.14,1,9.14-11.17,15.35-20.86,13.31"></path><path class="h v_102"
d="M281.36,152.83c11.84,8.52,16.78,19.74,22.72,29.15,7.81,12.37,10.78,15.64,10.78,15.64s6.47,5.39-2.17,10.94c-6.87,4.41-6.27,4.18-6.07,10.77.31,9.93-2.27,23.8-16.93,23.07-10.08-.51-29.8-7.14-37-4.13-6.37,2.66-5.49,8.63-5.2,20.06,0,1.65-.24,5.39,4.68,8.2"></path><path class="a v_103" width="73.29" height="49.71"
d="M 221.41,249.26 L 270.7,249.26 A 12,12,0,0,1,282.7,261.26 L 282.7,286.96999999999997 A 12,12,0,0,1,270.7,298.96999999999997 L 221.41,298.96999999999997 A 12,12,0,0,1,209.41,286.96999999999997 L 209.41,261.26 A 12,12,0,0,1,221.41,249.26"></path><path class="g v_104" d="M251.09,266.76"></path><path class="i v_105"
d="M243.23,261a2.61,2.61,0,0,0-1.35-.41,2.43,2.43,0,0,0-2.29,1.68,5.79,5.79,0,0,0-.29,1.8v17.78a5.8,5.8,0,0,0,.13,1.23,2.44,2.44,0,0,0,3.15,1.78,5.9,5.9,0,0,0,1.17-.56l14.63-9a5.89,5.89,0,0,0,1-.76,2.44,2.44,0,0,0,0-3.53,5.62,5.62,0,0,0-.91-.69L251.31,266"></path><path class="a v_106" d="M291,216.83s7.07,7.44,15.67,2.5"></path><path class="a v_107" d="M276.3,182s25.12,1.1,26.12-18.84"></path><style data-made-with="vivus-instant">
</style>
</svg>