<svg xmlns="http://www.w3.org/2000/svg" viewBox="0 0 341.69 374.66"><defs><style>.a{fill:#9fbfe0;}.b{fill:#161b32;}.c{fill:#a8cb63;}.d{fill:#666fb3;}.e{fill:#a9cc63;}.f{fill:#cbddf3;}</style></defs><title>Ativo 1</title><path class="a" d="M297.25,233.18A59.58,59.58,0,0,1,283,231.42a.5.5,0,0,1,.24-1c14.8,3.66,30.26,1.23,36-5.66,2.44-2.94,2.82-6.47,1.1-10.21a28.69,28.69,0,0,0-2.31-4.19c-2.27,2.53-4.37,4.06-5.81,4.13a2.78,2.78,0,0,1-3.06-2.46c-.41-2.25.89-5.31,3.23-6,1.19-.37,3.25-.3,5.72,2.79a53.37,53.37,0,0,0,8.23-14.25c3.13-7.94,6.83-22.87-3.57-33.67A35.15,35.15,0,0,0,311.12,153a23.89,23.89,0,0,1-9.65,7.78c-8.27,4-19.61,4.83-23.52-.73-1.69-2.4-1.2-5,1.34-7.07,5.23-4.31,18.9-6.4,31.47-1.31a12.65,12.65,0,0,0,1.31-10.27c-2.34-8-8.51-14.81-16.92-18.63-13.65-6.2-32.21-4.5-52.27,4.79a.5.5,0,0,1-.42-.91c20.33-9.42,39.19-11.12,53.11-4.8,8.68,3.94,15,11,17.47,19.26A13.61,13.61,0,0,1,311.7,152a36.62,36.62,0,0,1,11.8,8.17c10.79,11.2,7,26.56,3.78,34.73a54.59,54.59,0,0,1-8.56,14.68,28.74,28.74,0,0,1,2.54,4.55c1.89,4.11,1.46,8-1.24,11.27C315.87,230.43,307.24,233.18,297.25,233.18Zm16.19-26.33a2.46,2.46,0,0,0-.74.11c-1.8.56-2.86,3.15-2.54,4.91a1.79,1.79,0,0,0,2,1.64c1.16-.06,3.09-1.48,5.28-3.94C316.07,207.8,314.7,206.85,313.44,206.85ZM295,149.71c-6.52,0-12.14,1.58-15.08,4-1.49,1.23-2.91,3.23-1.15,5.72,3.22,4.58,13.21,4.76,22.27.4a23,23,0,0,0,9.12-7.27A41.85,41.85,0,0,0,295,149.71Z"/><rect class="a" x="231.34" y="53.92" width="88.16" height="63.51"/><path class="b" d="M319.5,118.29H231.34a.85.85,0,0,1-.85-.85V53.92a.85.85,0,0,1,.85-.85H319.5a.85.85,0,0,1,.85.85v63.51A.85.85,0,0,1,319.5,118.29Zm-87.31-1.7h86.46V54.77H232.19Z"/><rect class="a" x="223.86" y="59.68" width="88.16" height="63.51"/><path class="b" d="M312,124H223.86a.85.85,0,0,1-.85-.85V59.68a.85.85,0,0,1,.85-.85H312a.85.85,0,0,1,.85.85V123.2A.85.85,0,0,1,312,124Zm-87.31-1.7h86.46V60.53H224.71Z"/><rect class="a" x="216.26" y="65.66" width="88.16" height="63.51"/><path class="b" d="M304.43,130H216.26a.85.85,0,0,1-.85-.85V65.66a.85.85,0,0,1,.85-.85h88.16a.85.85,0,0,1,.85.85v63.51A.85.85,0,0,1,304.43,130Zm-87.31-1.7h86.46V66.51H217.11Z"/><path class="c" d="M295,74.67H284.14a1.74,1.74,0,0,1-1.74-1.74h0a1.74,1.74,0,0,1,1.74-1.74H295a1.74,1.74,0,0,1,1.74,1.74h0A1.74,1.74,0,0,1,295,74.67Z"/><path class="b" d="M295,75.52H284.14a2.59,2.59,0,1,1,0-5.18H295a2.59,2.59,0,0,1,0,5.18ZM284.14,72a.89.89,0,1,0,0,1.78H295A.89.89,0,1,0,295,72Z"/><rect class="c" x="225.37" y="81.33" width="36.58" height="36.58"/><path class="b" d="M262,118.76H225.37a.85.85,0,0,1-.85-.85V81.33a.85.85,0,0,1,.85-.85H262a.85.85,0,0,1,.85.85v36.58A.85.85,0,0,1,262,118.76Zm-35.73-1.7H261.1V82.18H226.22Z"/><path class="b" d="M275.92,73.78H263.69a.85.85,0,0,1,0-1.7h12.23a.85.85,0,1,1,0,1.7Z"/><path class="b" d="M256.56,73.78H244.33a.85.85,0,0,1,0-1.7h12.23a.85.85,0,1,1,0,1.7Z"/><path class="b" d="M237.2,73.78H225a.85.85,0,1,1,0-1.7H237.2a.85.85,0,1,1,0,1.7Z"/><path class="b" d="M282.4,83H266.63a.85.85,0,1,1,0-1.7H282.4a.85.85,0,1,1,0,1.7Z"/><path class="b" d="M295.79,89.18H266.63a.85.85,0,1,1,0-1.7h29.16a.85.85,0,0,1,0,1.7Z"/><path class="b" d="M295.79,94.52H266.63a.85.85,0,1,1,0-1.7h29.16a.85.85,0,0,1,0,1.7Z"/><path class="b" d="M295.79,99.85H266.63a.85.85,0,0,1,0-1.7h29.16a.85.85,0,0,1,0,1.7Z"/><path class="b" d="M295.79,105.18H266.63a.85.85,0,0,1,0-1.7h29.16a.85.85,0,0,1,0,1.7Z"/><path class="b" d="M289.4,117.29H270.63a.85.85,0,0,1,0-1.7H289.4a.85.85,0,1,1,0,1.7Z"/><path class="a" d="M77,99.29,75,101.87l-.7-13.11L74,88.63c-1.25-1.89-5.32-3.55-6.32-4.07-1.2-.62-16.22-7.33-16.22-7.33a10.87,10.87,0,0,0,3.92,8.61,31.46,31.46,0,0,0,5.34,3.28h0c-.84,9.34-2.55,29.36-2.19,33.25.52,5.58.63,5.86,2,8.41,1.81,3.26,8.12,5.53,11.72,4.58s7.47-5.86,10.35-8.8c5.24-5.33,13.32-15.46,13.32-15.46Z"/><path class="b" d="M70.45,136.42c-3.82,0-8.91-2.08-10.65-5.22-1.47-2.65-1.62-3.05-2.15-8.74-.35-3.79,1.17-21.93,2.14-32.82a32.24,32.24,0,0,1-5-3.12,11.71,11.71,0,0,1-4.25-9.28.85.85,0,0,1,1.2-.78c.61.27,15.05,6.73,16.26,7.35l.65.31c1.6.75,4.51,2.11,5.8,3.79l.12,0a.85.85,0,0,1,.58.76l.57,10.78.53-.71a.85.85,0,0,1,1.13-.21l19,11.82a.85.85,0,0,1,.21,1.25c-.08.1-8.17,10.22-13.38,15.52-.58.59-1.2,1.26-1.85,2-2.68,2.91-5.73,6.22-8.89,7.06A8,8,0,0,1,70.45,136.42ZM52.35,78.58a9.73,9.73,0,0,0,3.51,6.59A30.75,30.75,0,0,0,61,88.36a.85.85,0,0,1,.49.85c-.78,8.66-2.55,29.23-2.19,33.09.51,5.5.59,5.64,1.94,8.07,1.56,2.8,7.39,5.06,10.76,4.17,2.69-.71,5.67-4,8.08-6.56.66-.72,1.29-1.4,1.89-2,4.33-4.4,10.7-12.21,12.66-14.65l-17.48-10.9-1.47,2a.85.85,0,0,1-1.53-.47l-.67-12.55a.85.85,0,0,1-.27-.26c-.92-1.39-3.87-2.78-5.29-3.44l-.71-.34C66.39,84.88,57.76,81,52.35,78.58Z"/><path class="b" d="M145.83,39.49c-1.09-5.57-3.39-10.81-5.14-16.21C138.66,17,137.08,10,132,5.79c-3.35-2.8-7.74-4-12-4.82-3.87-.79-7.88-1.4-11.75-.6-1.93.4-3.78,1.15-5.69,1.61-2.23.54-12.93,6.22-14,16.25-.5,4.7.1,6.46-.57,11.14A65.61,65.61,0,0,1,86.51,36c-2,4.28-4.18,13.54-3.87,18.12.22,3.31,1.89,26.55,2.62,29.79s.43,7.13-2.18,9.17a4.77,4.77,0,0,0,8-3.16A3.41,3.41,0,0,0,92.39,91a8.37,8.37,0,0,0,4.28.34c4.16-.4,8.48-.89,12.11-2.9L129,61.59c5.26,2.13,11.61-.82,14.63-5.62S146.93,45.06,145.83,39.49Z"/><path class="d" d="M146.17,345c-6.07,6.71-23.56,2-23.56,2h0c-12.54,3-17.27,12.07-17.33,15.37l42.41-1.72Z"/><path class="b" d="M105.28,363.2a.85.85,0,0,1-.85-.87c.07-3.2,4.45-13,18-16.18a.85.85,0,0,1,.42,0c.17,0,17.06,4.52,22.71-1.73a.85.85,0,0,1,1.48.49l1.52,15.62a.85.85,0,0,1-.81.93l-42.41,1.72Zm17.32-15.34c-11.11,2.7-15.57,10.2-16.35,13.6l40.5-1.64-1.27-13.06C138.71,351.78,124.59,348.38,122.6,347.86Z"/><path class="a" d="M143.7,144.11s13.66,14.93,15,29.84c1.21,13.5-6.89,37.4-6.89,37.4l-7.57,44.59,1.23,93.84-16.07.17-3.68-27.37-9.91-79.32L119.91,142Z"/><path class="b" d="M129.39,350.8a.85.85,0,0,1-.84-.74l-3.68-27.37L115,243.37a.84.84,0,0,1,0-.14L119.06,142a.85.85,0,0,1,.29-.6.84.84,0,0,1,.64-.21l23.79,2.09a.85.85,0,0,1,.55.27c.57.62,13.86,15.31,15.21,30.34,1.19,13.3-6.35,36-6.91,37.68L145.08,256l1.23,93.76a.85.85,0,0,1-.84.86l-16.07.17ZM116.65,243.23l9.91,79.25,3.58,26.62,14.47-.15-1.22-93a.86.86,0,0,1,0-.15L151,211.2a.85.85,0,0,1,0-.13c.08-.24,8-23.89,6.85-37-1.2-13.42-12.81-27.11-14.55-29.1l-22.57-2Z"/><path class="a" d="M99.08,146.59S74.51,250,80.67,261.51c3.8,7.13,26.29,42.09,38.17,61.55,7.37,12.08-4.67,23.22-4.67,23.22l27.1-15.75-31.71-75.6,24.08-54.12s11.06-9.63,15.33-23.1-3.1-35.7-3.1-35.7H99.72Z"/><path class="b" d="M114.18,347.14a.85.85,0,0,1-.58-1.47c.47-.44,11.44-10.82,4.52-22.15-5-8.16-11.8-19-18.4-29.49-9-14.37-17.58-27.95-19.8-32.11C73.7,250.24,97.11,151.2,98.24,146.43l.64-4.53a.85.85,0,0,1,.84-.73h46.15a.85.85,0,0,1,.81.58c.3.92,7.41,22.64,3.1,36.22-4.08,12.88-14.06,22.13-15.44,23.36L110.49,255l31.57,75.26a.85.85,0,0,1-.36,1.06L114.6,347A.85.85,0,0,1,114.18,347.14ZM100.46,142.87l-.54,3.84v.08C91.43,182.43,76.67,252.2,81.42,261.11c2.19,4.11,10.72,17.66,19.74,32,6.6,10.49,13.42,21.33,18.41,29.5s1.43,16.06-1.67,20.51l22.3-13-31.42-74.91a.85.85,0,0,1,0-.67l24.08-54.12a.86.86,0,0,1,.22-.3c.11-.09,10.93-9.64,15.08-22.72,3.76-11.86-1.81-31-2.91-34.59Zm-1.38,3.72h0Z"/><path class="d" d="M138,323.42c-.89,9.27-18.23,16.1-18.23,16.1h0c-8.53,10.14-6.83,20.57-4.86,23.33l33.94-27.47Z"/><path class="b" d="M114.95,363.7h-.11a.85.85,0,0,1-.58-.35c-1.91-2.68-4.29-13.43,4.91-24.37a.85.85,0,0,1,.34-.24c.17-.07,16.87-6.75,17.69-15.39a.85.85,0,0,1,1.48-.49l10.85,12a.85.85,0,0,1-.09,1.23l-33.94,27.47A.85.85,0,0,1,114.95,363.7Zm5.38-23.47c-7.54,9.09-6.59,18.05-5.13,21.32l32.46-26.27-9.11-10C136.06,333.55,122.27,339.44,120.33,340.23Z"/><path class="d" d="M99.59,126.88s1.14,21.92-5.61,31.85-30.51,100.53-28.31,104,8.12-4.15,22.1,0,33.93,3.71,43.07-2.89,14.14,3.09,21.62,3.5,20.91.59,23.67-.44-10.38-97-20.6-112.21-4-8.12-4-8.12l.8-15.21Z"/><polygon class="a" points="162.12 97.54 171.73 118.29 150.34 105.98 162.12 97.54"/><path class="b" d="M171.73,119.14a.85.85,0,0,1-.42-.11l-21.39-12.31a.85.85,0,0,1-.07-1.43l11.78-8.45a.85.85,0,0,1,1.27.33l9.61,20.75a.85.85,0,0,1-.77,1.21ZM151.91,105.9l17.92,10.31-8.05-17.39Z"/><polygon class="a" points="0.85 38.6 29.8 76.69 42.28 73.38 48.56 76.95 59.43 56.96 52.89 53.53 48.06 41.27 0.85 38.6"/><path class="b" d="M48.56,77.8a.85.85,0,0,1-.42-.11l-6-3.4L30,77.51a.85.85,0,0,1-.89-.31L.17,39.11A.85.85,0,0,1,.1,38.2a.84.84,0,0,1,.8-.45L48.1,40.42a.85.85,0,0,1,.74.54l4.72,12,6.26,3.29a.85.85,0,0,1,.35,1.16l-10.87,20a.85.85,0,0,1-.75.44Zm-6.28-5.27a.85.85,0,0,1,.42.11l5.53,3.14,10-18.47-5.77-3a.85.85,0,0,1-.4-.44L47.46,42.09,2.64,39.55,30.13,75.72l11.93-3.17Z"/><path class="a" d="M.85,38.6l47.22,2.53h.09l0,.09L53,53.47,53,53.39l6.54,3.43.14.07-.08.14L54,67.24,48.7,77l-.08.15-.14-.08L42.2,73.52l.12,0-12.49,3.3-.1,0-.06-.08L.85,38.6l29.07,38-.16-.05,12.48-3.32.06,0,.06,0,6.28,3.56-.22.06,5.32-9.78,5.55-10.2.06.22-6.54-3.43-.05,0,0-.05L47.92,41.33l.13.09Z"/><path class="b" d="M48.62,78a.85.85,0,0,1-.42-.11l-6.07-3.45L30,77.68a.85.85,0,0,1-.9-.31L29,77.3.17,39.11.11,39h0A.83.83,0,0,1,0,38.83H0a.85.85,0,0,1,0-.13H0a.87.87,0,0,1,0-.17.85.85,0,0,1,.32-.59l.12-.08.13-.06h0l.2,0H.9l47.21,2.53a1,1,0,0,1,.84.54l4.74,12L60,56.14a.85.85,0,0,1,.35,1.16l-11,20.27a.85.85,0,0,1-.51.41A.84.84,0,0,1,48.62,78Zm-6.33-5.65a.9.9,0,0,1,.44.1l5.44,3.08,9.89-18.18-5.63-3A1,1,0,0,1,52,54L47.36,42.23,2.65,39.56l27.53,36L42,72.41A1.06,1.06,0,0,1,42.29,72.37Z"/><path class="b" d="M35.59,49.69A6.82,6.82,0,0,1,38.39,59a7.07,7.07,0,0,1-9.45,2.9,6.82,6.82,0,0,1-2.8-9.33A7.07,7.07,0,0,1,35.59,49.69Z"/><ellipse class="c" cx="16.61" cy="46.52" rx="0.16" ry="17.64" transform="translate(-32.42 40.45) rotate(-63.29)"/><path class="b" d="M32.57,55.31c-.55,0-1.78-.61-5.25-2.31-2.87-1.41-6.82-3.38-11.17-5.57C.22,39.41.18,39.28,0,38.86A.86.86,0,0,1,.1,38.2c.41-.8.41-.8,5.8,1.85,2.87,1.41,6.82,3.38,11.17,5.57,15.93,8,16,8.14,16.11,8.57a.85.85,0,0,1-.06.65C33,55.13,32.87,55.31,32.57,55.31Z"/><path class="c" d="M227.07,155.26h0a11.26,11.26,0,0,1-15,4.66L54.62,79.53,65.23,60l157.33,80.33A10.87,10.87,0,0,1,227.07,155.26Z"/><path class="b" d="M217.13,162a11.84,11.84,0,0,1-5.46-1.33L54.23,80.29a.85.85,0,0,1-.36-1.16l10.61-19.5a.85.85,0,0,1,1.13-.35L222.94,139.6a11.6,11.6,0,0,1,5.81,7,11.74,11.74,0,0,1-.94,9.12A12.19,12.19,0,0,1,217.13,162ZM55.78,79.17l156.66,80a10.44,10.44,0,0,0,13.88-4.3h0a10.05,10.05,0,0,0,.81-7.81,9.91,9.91,0,0,0-5-5.94l-156.59-80Z"/><polygon class="c" points="67.14 58.95 54.67 81.89 46.69 77.7 59.16 54.76 67.14 58.95"/><path class="b" d="M54.67,82.74a.84.84,0,0,1-.39-.1l-8-4.19a.85.85,0,0,1-.35-1.16L58.41,54.36A.85.85,0,0,1,59.56,54l8,4.19a.85.85,0,0,1,.35,1.16L55.41,82.29A.85.85,0,0,1,54.67,82.74Zm-6.82-5.39,6.47,3.4L66,59.3l-6.47-3.4Z"/><path class="d" d="M99.78,94.08a38.39,38.39,0,0,0-3,18.45c.43,4,2.43,10.71,2.81,14.35.52,4.9,0,16,0,16s52-.16,51.91-.26.57-24.83.1-42.21-8.12-35.27-8.12-35.27-7-4-12.18-3.58-27.1,2.89-27.1,2.89Z"/><path class="d" d="M103.38,65.06s-8.73,1.26-16.83,14c-8.37,13.14-12.2,18.57-12.2,18.57l23.85,15.58S111.33,93.38,113,89.13,116.45,64.67,103.38,65.06Z"/><path class="b" d="M98.18,114a.85.85,0,0,1-.46-.14L73.87,98.33a.85.85,0,0,1-.23-1.2c0-.05,3.92-5.58,12.18-18.54s17.06-14.31,17.43-14.37h.1a9.5,9.5,0,0,1,8.55,4.1c4.54,6.4,3,18.24,1.86,21.12-1.66,4.29-14.33,23.42-14.87,24.23A.85.85,0,0,1,98.18,114ZM75.53,97.38,97.94,112c2.35-3.56,12.82-19.53,14.24-23.2,1.25-3.22,2.21-14.06-1.66-19.52a7.87,7.87,0,0,0-7.05-3.39c-.64.12-8.72,1.84-16.2,13.59C80.65,89.87,76.83,95.5,75.53,97.38Z"/><path class="d" d="M138.33,63.73s7.55,3,10.67,7.79c2,3.13,14.51,25,14.51,25l-14.35,10L138.33,76.12Z"/><path class="b" d="M149.64,79a1.87,1.87,0,0,1,.11.49l.21,1.41c.17,1.23.4,3,.64,5.2.49,4.4,1,10.5,1.37,17.25s.47,12.87.5,17.3c0,2.21,0,4,0,5.24l0,1.43c-.73,4,0,.5,0,.5a1.87,1.87,0,0,1-.05-.5l-.06-1.42-.14-5.24c-.12-4.42-.29-10.53-.65-17.28s-.82-12.83-1.22-17.24L149.77,81l-.12-1.42A1.88,1.88,0,0,1,149.64,79Z"/><path class="b" d="M152.09,129.63a.38.38,0,0,1-.19-.05c-.13-.08-.19-.11-.16-.44h0v0c0-.25.1-.67.23-1.37,0-.1,0-.22,0-.35l-.21-6.83c-.12-4.41-.29-10.45-.64-17.11-.37-7.25-.87-13.37-1.22-17.22l-.6-6.64c0-.52-.06-.86.32-.9s.43.27.52.8l.22,1.42c.21,1.46.44,3.31.65,5.22.33,3,1,9.22,1.37,17.27.29,5.46.46,11.29.5,17.31,0,2.22,0,4,0,5.25l0,1.43-.07.37a7.05,7.05,0,0,1-.26,1.49v0h0a.69.69,0,0,1-.13.27A.38.38,0,0,1,152.09,129.63Z"/><path class="a" d="M128.09,64.39l3-47.91h0a4,4,0,0,0-3.58-4.08l-15-2.92C105.75,8.76,94.67,17.12,94.23,24c-.5,7.6-.56,14.41.32,20.09,1.79,11.41,13.17,12.08,13.17,12.08s0,8.28,0,8.28a77.31,77.31,0,0,1,7.69-1.25C124.49,62.19,128.09,64.39,128.09,64.39Z"/><path class="d" d="M87.47,66.88a3.32,3.32,0,0,1-.23-.67c-.13-.45-.31-1.11-.49-2A36.22,36.22,0,0,1,86,56.79a39.5,39.5,0,0,1,1.6-11c1.09-4,2.73-8.34,3.47-13.06s.52-9.34,1.1-13.51A20.86,20.86,0,0,1,96,8.87a12.14,12.14,0,0,1,6.13-4.22,6.88,6.88,0,0,1,2.73-.28,14.15,14.15,0,0,0-2.67.5,12.23,12.23,0,0,0-5.88,4.25A20.75,20.75,0,0,0,92.68,19.3c-.55,4.11-.35,8.72-1.06,13.52S89.2,41.94,88.1,45.94a40.35,40.35,0,0,0-1.7,10.85,39.86,39.86,0,0,0,.58,7.4c.14.87.28,1.54.38,2A3.35,3.35,0,0,1,87.47,66.88Z"/><path class="b" d="M103.08,6.22a2.72,2.72,0,0,1,1.17-1.6,16.24,16.24,0,0,1,12.38-2.83,28.93,28.93,0,0,1,11.88,5.15c3.12,2.16,6.06,4.8,7.64,8.24A27.38,27.38,0,0,1,138,23c.9,6.57,2.66,13.16,2.6,19.79,0,2.58.44,6.93,0,10.12-.47,3.4-3.77,7.55-7.12,8.31l-7.55.75s4.09-14.1,3.77-19.18c-.28-4.45-.24-9.34-.74-13.77a2.4,2.4,0,0,0-.26-1,2.43,2.43,0,0,0-1-.8l-4.72-2.41a46,46,0,0,1-4.44-2.48A41.13,41.13,0,0,1,114,19.24c-2-1.75-3.91-3.14-6-4.88a23.75,23.75,0,0,1-3.71-4.43,6.07,6.07,0,0,1-1-4.79"/><path class="a" d="M128.41,32.11a3.33,3.33,0,0,1,4.87-2.83c1.15.67,2,2,1.93,4.59-.28,6.87-7.12,5.17-7.13,5S128.27,34.95,128.41,32.11Z"/><path class="b" d="M130.29,36.32s.12.09.31.19a1.2,1.2,0,0,0,.89.06A3,3,0,0,0,133,34a4,4,0,0,0-.26-1.73,1.38,1.38,0,0,0-.86-1,.61.61,0,0,0-.72.3c-.1.19-.06.33-.1.34s-.14-.12-.08-.4a.76.76,0,0,1,.29-.42.9.9,0,0,1,.67-.15,1.68,1.68,0,0,1,1.21,1.12,4.07,4.07,0,0,1,.34,1.93,3.11,3.11,0,0,1-1.87,2.89,1.28,1.28,0,0,1-1.09-.23C130.3,36.48,130.27,36.33,130.29,36.32Z"/><path class="b" d="M131.28,37.17a1.47,1.47,0,0,1-.94-.32.71.71,0,0,1-.3-.56l0-.13.1-.06a.32.32,0,0,1,.37.06,1.24,1.24,0,0,0,.19.12.94.94,0,0,0,.7,0,2.76,2.76,0,0,0,1.31-2.38,3.68,3.68,0,0,0-.25-1.62c-.17-.45-.42-.75-.68-.8a.36.36,0,0,0-.44.16.47.47,0,0,0-.05.19.33.33,0,0,1-.13.25l-.12.1-.17-.1a.61.61,0,0,1-.17-.67,1,1,0,0,1,.38-.56,1.15,1.15,0,0,1,.86-.19,1.93,1.93,0,0,1,1.4,1.27,4.34,4.34,0,0,1,.35,2,3.33,3.33,0,0,1-2.06,3.12A1.74,1.74,0,0,1,131.28,37.17Z"/><path class="b" d="M136.88,12.41c2.63,8.49,6.92,16.26,9.55,22.39,1.22,2.84,3,6.19,3.54,9.23.62,3.34-.81,6.67-1.6,10s-.68,7.37,2.07,9.37a22,22,0,0,1-13,4.68,4.05,4.05,0,0,1-2.53-.55,1.59,1.59,0,0,1-.38-2.29,11.27,11.27,0,0,1-14.29,1.48C120,63,119.72,59,121.74,56c1.65-2.51,4.63-4.09,5.72-6.9.65-1.67-.21-3.77.08-5.54s1.46-4.13,2-4.37h0a8.72,8.72,0,0,0,9.28-6.42l.15-.55Z"/><path class="b" d="M140,155a.5.5,0,0,1-.23,0c-.14-.07-.3-.18-.32-.34l-.06-.34a54.94,54.94,0,0,1-.57-5.79c0-.75,0-1.35,0-1.77,0-.73,0-1.14.52-1.14s.51.37.55,1.11c0,.41.05,1,.1,1.73.09,1.3.26,3.34.62,5.67l.05.31a.5.5,0,0,1-.33.55A.73.73,0,0,1,140,155Z"/><path class="b" d="M144.41,156.62a.43.43,0,0,1-.17,0c-.15-.07-.32-.17-.35-.33-.14-.75-.3-1.54-.49-2.37-.52-2.29-1.11-4.26-1.5-5.51-.22-.7-.41-1.26-.54-1.65-.23-.7-.26-.79-.16-1a.5.5,0,0,1,.28-.25c.47-.17.62.2.89.88.16.39.37,1,.61,1.67a55.41,55.41,0,0,1,1.59,5.61c.19.82.34,1.61.48,2.36a.5.5,0,0,1-.26.53A.73.73,0,0,1,144.41,156.62Z"/><path class="b" d="M113.45,157.1a.51.51,0,0,1-.2,0l-.14,0a.5.5,0,0,1-.33-.55l.05-.31c.35-2.33.53-4.36.62-5.66,0-.73.08-1.32.1-1.73,0-.74.06-1.11.55-1.11s.52.4.52,1.14c0,.42,0,1,0,1.77a54.91,54.91,0,0,1-.57,5.79l-.06.34a.5.5,0,0,1-.49.42Z"/><path class="b" d="M109,158.74a.5.5,0,0,1-.26-.07l-.08,0a.57.57,0,0,1-.31-.56c.14-.75.29-1.53.47-2.36a55.58,55.58,0,0,1,1.59-5.61c.24-.71.45-1.28.61-1.67.27-.7.41-1,.89-.87a.5.5,0,0,1,.28.25c.11.21.07.31-.16,1-.13.39-.32,1-.54,1.65-.4,1.24-1,3.21-1.5,5.51-.19.83-.34,1.62-.49,2.37a.5.5,0,0,1-.49.41Z"/><path class="b" d="M104.45,41.42c-1.28,0-3.14-.46-3.62-2.27a4,4,0,0,1,.84-3.1c.21-.37.45-.76.66-1.21.93-1.92,1.49-3.42,1.5-3.43a.78.78,0,1,1,1.46.55c0,.06-.59,1.58-1.55,3.56-.24.49-.49.92-.72,1.32-.54.92-.81,1.42-.68,1.92.35,1.32,2.48,1.09,2.5,1.09a.78.78,0,0,1,.19,1.54A4.75,4.75,0,0,1,104.45,41.42Z"/><ellipse class="b" cx="114.64" cy="33.11" rx="1.9" ry="2.45"/><ellipse class="b" cx="98.84" cy="32.62" rx="1.9" ry="2.45"/><path class="b" d="M109,47.23a5,5,0,0,1-2.84-.93.78.78,0,0,1,.92-1.25h0a2.89,2.89,0,0,0,4-.37.78.78,0,0,1,1.17,1A4.18,4.18,0,0,1,109,47.23Z"/><path class="b" d="M100.73,27.1a.78.78,0,0,1-.59-.27,1.36,1.36,0,0,0-.93-.32h0a1.82,1.82,0,0,0-1.09.38.78.78,0,0,1-1.05-1.15A3.34,3.34,0,0,1,99.19,25a2.79,2.79,0,0,1,2.13.85.78.78,0,0,1-.58,1.29Z"/><path class="b" d="M116.22,27.1a.78.78,0,0,1-.59-.27,1.35,1.35,0,0,0-.93-.32h0a1.82,1.82,0,0,0-1.09.38.78.78,0,0,1-1.05-1.15,3.34,3.34,0,0,1,2.12-.79,2.81,2.81,0,0,1,2.13.85.78.78,0,0,1-.59,1.29Z"/><path class="b" d="M149.13,143.42l-5.75,0-17.8-.19-25.87-.31a.85.85,0,0,1-.84-.93c0-.1,1-10.26-.11-14.87-1.35-5.84-1.35-5.84-2.21-10.47l-1.3-4.3-21.39-14a.85.85,0,0,1-.23-1.2c0-.05,3.92-5.58,12.18-18.54s17.06-14.31,17.43-14.37.53,0,.74,0h.08c1.63-.23,22.09-3.13,27.17-3.56,5.42-.45,12.38,3.52,12.67,3.69a.85.85,0,0,1,.36.4s.25.58.65,1.62a17.76,17.76,0,0,1,4.78,4.67c2,3.11,14,24.19,14.54,25.09a.85.85,0,0,1-.25,1.12L152.9,105c.19,5.63-.25,25.06-.44,33.5,0,2.12-.09,3.81-.09,4a.85.85,0,0,1-.15.53C152,143.33,152,143.42,149.13,143.42Zm-48.49-2.24c16.29.21,44.95.55,50,.55,0-.63,0-1.63.07-3.27.2-8.68.66-29,.42-33.85a.85.85,0,0,1,.36-.74l10.85-7.55c-2.12-3.71-12.31-21.57-14.1-24.33a16.38,16.38,0,0,0-4.53-4.35.85.85,0,0,1-.31-.39c-.28-.73-.49-1.25-.61-1.54-1.26-.68-7.09-3.7-11.44-3.33-5.14.43-26.93,3.53-27.15,3.56h-.84S95,67.32,87.26,79.5c-6.61,10.37-10.43,16-11.72,17.88L96.45,111a.85.85,0,0,1,.35.47l1.41,4.69c.87,4.68.87,4.68,2.21,10.49C101.36,130.77,100.86,138.51,100.65,141.18Z"/><path class="b" d="M107.47,266.24a72.43,72.43,0,0,1-19.93-2.71,26.46,26.46,0,0,0-16.68.23c-2.59.77-4.64,1.38-5.89-.59-1.14-1.79,2.73-18.55,11.49-49.83,7-24.89,14.49-49.54,16.76-54.95,5-11.81,5.37-16.93,5.38-17a.85.85,0,0,1,.81-.79l52.53-2.59a.85.85,0,0,1,.89.95l-.4,3.41c.56,1.06,2.81,5.37,3.94,7.94,4.69,10.68,10.16,48.53,11.72,59.88,2.61,18.93,6,48.27,4.62,51.5a1.14,1.14,0,0,1-.65.67c-2.9,1.08-12.09,2-19.59,1.61-2.92-.16-5.43-1.58-7.86-2.95-4.21-2.37-7.84-4.42-13.22-.54C125.82,264.52,116.75,266.24,107.47,266.24Zm-28-5.65A29.88,29.88,0,0,1,88,261.91c13.13,3.9,33,3.95,42.33-2.76,6.26-4.53,10.93-1.89,15.05.43,2.36,1.33,4.59,2.59,7.11,2.73,7,.38,15.67-.45,18.64-1.41,1.52-5.86-8.87-92.76-16.39-109.86-1.25-2.83-4-8-4-8.06a.85.85,0,0,1-.09-.5l.32-2.67-50.81,2.5c-.28,1.84-1.35,7.09-5.41,16.76-5.59,13.33-29.71,99-28.34,103.27.49.75,1.36.57,3.94-.2A30.06,30.06,0,0,1,79.47,260.59Z"/><path class="c" d="M98.51,145.64s8.77,2.74,27,2.74c13.08,0,26-5.81,26-5.81l.43-8.3s-5.52,4.83-26.26,5.92c-12.62.67-26.43-1.76-26.43-1.76Z"/><path class="b" d="M125.52,149.22c-18.16,0-26.9-2.66-27.26-2.78a.85.85,0,0,1-.59-.9l.75-7.21a.85.85,0,0,1,1-.75c.14,0,13.86,2.41,26.24,1.75,20.21-1.07,25.7-5.67,25.75-5.72a.85.85,0,0,1,1.41.68l-.43,8.3a.85.85,0,0,1-.5.73C151.33,143.59,138.63,149.22,125.52,149.22ZM99.43,145c2.36.61,11,2.52,26.09,2.52,11.36,0,22.75-4.51,25.18-5.53l.32-6.12c-2.79,1.52-9.94,4.36-25.28,5.17A136.35,136.35,0,0,1,100,139.41Z"/><path class="a" d="M77.3,98.94a16.06,16.06,0,0,1-1.44,2.2c-.92,1.33-2.18,3.19-3.48,5.29s-2.4,4.05-3.18,5.48a16.06,16.06,0,0,1-1.33,2.28,12,12,0,0,1,1-2.44,62.3,62.3,0,0,1,6.69-10.81A12,12,0,0,1,77.3,98.94Z"/><path class="b" d="M67.94,114.72a.71.71,0,0,1-.28-.09.52.52,0,0,1-.26-.29c-.06-.18-.13-.38,1-2.82a62.9,62.9,0,0,1,6.75-10.9c1.66-2.13,1.87-2.16,2.06-2.18a.54.54,0,0,1,.38.1h0c.42.33.4.37-1.11,2.54l-.24.34c-1.29,1.85-2.42,3.58-3.47,5.27s-2.08,3.47-3.17,5.45l-.21.38C68.46,114.29,68.22,114.72,67.94,114.72Z"/><path class="b" d="M64,91.54a.86.86,0,0,1-.27,0,43.48,43.48,0,0,1-5-2.45.85.85,0,0,1,.83-1.48,43.12,43.12,0,0,0,4.75,2.32A.85.85,0,0,1,64,91.54Z"/><path class="b" d="M131.88,56.11,121.74,56s-4.27,10-.71,15.19,10.43,6.72,10.62,12.17,7.57,8.56,14.78,7.18,8.39-4.81,11.78-1,11-.54,9.08-6.16c0,0-3.36,5.27-6.26,0s.8-10.52-10.59-20Z"/><path class="b" d="M108.9,57C95,57,91.79,38.55,91.76,38.35a.85.85,0,1,1,1.68-.27c0,.18,3.12,18,16.4,17.2.17,0,17.27-1.48,18.93-14.89a.85.85,0,0,1,1.69.21c-1.54,12.46-15.32,16-20.51,16.38C109.59,57,109.24,57,108.9,57Z"/><path class="b" d="M99.73,8.34s10.5,15.3,29.87,21.35L121.93,8.9l-22.06-2Z"/><path class="d" d="M139.81,21.29A24.06,24.06,0,0,0,135,18.37a36.86,36.86,0,0,0-5.76-1.92c-2.22-.59-4.7-1.12-7.25-1.92A37.22,37.22,0,0,1,110,8.19a32.16,32.16,0,0,1-3.08-2.76,6.9,6.9,0,0,1-1-1.14,8.88,8.88,0,0,1,1.15,1c.72.65,1.79,1.57,3.18,2.6a39.71,39.71,0,0,0,12,6.12c2.52.78,5,1.33,7.22,2A33.92,33.92,0,0,1,135.22,18a16.44,16.44,0,0,1,3.51,2.21,9.29,9.29,0,0,1,.83.77C139.73,21.17,139.82,21.28,139.81,21.29Z"/><path class="d" d="M135.21,61.59a4,4,0,0,1,.36-.69l1.08-2A49.8,49.8,0,0,0,140,51.49a30.39,30.39,0,0,0,1.72-11.88,21.14,21.14,0,0,0-5.55-13.31c-3.64-3.79-8.27-6-12.4-7.93A92.38,92.38,0,0,1,112.83,13a25.64,25.64,0,0,1-6.3-5.28,15,15,0,0,1-1.32-1.81,4,4,0,0,1-.39-.68c.05,0,.6.9,1.88,2.34A26.87,26.87,0,0,0,113,12.62,98.18,98.18,0,0,0,124,17.9c4.15,1.89,8.85,4.12,12.59,8a21.51,21.51,0,0,1,5.66,13.66,30.23,30.23,0,0,1-1.87,12,45,45,0,0,1-3.51,7.44c-.49.84-.89,1.48-1.18,1.9A4,4,0,0,1,135.21,61.59Z"/><path class="b" d="M279.26,368.7c-2.79,0-6.23-.09-10.46-.31-10.6-.54-21.24-1.64-21.35-1.65a.85.85,0,1,1,.17-1.69c19.36,2,41,2.83,42.29.66a.83.83,0,0,1,1-.67.86.86,0,0,1,.68,1C291.41,367,291.1,368.7,279.26,368.7Z"/><path class="e" d="M275.54,168.75h8.69V167a.72.72,0,0,1,.45-.67,12.2,12.2,0,1,0-9.57-.15.72.72,0,0,1,.43.66Z"/><path class="b" d="M285,170.2H274.81a.73.73,0,0,1-.73-.73v-2.13a13.64,13.64,0,1,1,11.59.18v2A.73.73,0,0,1,285,170.2Zm-9.42-1.45h8.69V167a.72.72,0,0,1,.45-.67,12.2,12.2,0,1,0-9.57-.15.72.72,0,0,1,.43.66Z"/><path class="b" d="M285.25,173.21H274.89a.73.73,0,0,0,0,1.45h1.26l1.66,2.88h4.51l1.66-2.88h1.26a.73.73,0,0,0,0-1.45Z"/><path class="b" d="M274.89,172.55h10.36a.73.73,0,0,0,0-1.45H274.89a.73.73,0,0,0,0,1.45Z"/><path class="b" d="M281.11,170.09a.73.73,0,0,1-.72-.65,16.61,16.61,0,0,1,1.31-8.69,4.83,4.83,0,0,1-1.81-1.39,8,8,0,0,1-1.88,1.55,18.3,18.3,0,0,1,1.05,8,.73.73,0,0,1-1.44-.16,17.23,17.23,0,0,0-1-7.33,4.33,4.33,0,0,1-3.63-.83c-1.32-1-2.27-2.94-1.52-4,.32-.46,1.14-1.07,3,.09a8.17,8.17,0,0,1,2.82,2.92,6.8,6.8,0,0,0,1.61-1.39l.08-.09a10.47,10.47,0,0,1-.7-1.56c-.46-1.29-1-3.71-.07-4.59a2.64,2.64,0,0,1,3.62-.06c.54.51,1.94,2.41-1.05,6.31a3.58,3.58,0,0,0,1.54,1.23,9,9,0,0,1,3.81-3.71c1.4-.6,2.09,0,2.32.23a1.86,1.86,0,0,1,0,2.1,5.93,5.93,0,0,1-5.36,3,15,15,0,0,0-1.31,8.25.73.73,0,0,1-.65.8Zm-8.43-12.62a3.1,3.1,0,0,0,1.52,2.21,2.7,2.7,0,0,0,1.75.42,6.61,6.61,0,0,0-2.16-2.17A2.55,2.55,0,0,0,272.68,157.47Zm14.67-.54a2.77,2.77,0,0,0-1.45.67,8.59,8.59,0,0,0-1.86,2,4.62,4.62,0,0,0,2.74-1.51,2.26,2.26,0,0,0,.59-1.11Zm-7.21-4.26a1.24,1.24,0,0,0-.86.34,6.77,6.77,0,0,0,.75,3.84c1.35-1.95,1.45-3.33.86-3.9A1.08,1.08,0,0,0,280.13,152.67Z"/><path class="c" d="M285.38,303.67h-124A14.38,14.38,0,0,1,147,289.33h0A14.38,14.38,0,0,1,161.36,275h124a14.38,14.38,0,0,1,14.33,14.33h0A14.38,14.38,0,0,1,285.38,303.67Z"/><path class="b" d="M285.38,304.52h-124a15.18,15.18,0,1,1,0-30.37h124a15.18,15.18,0,1,1,0,30.37Zm-124-28.67a13.48,13.48,0,0,0,0,27h124a13.48,13.48,0,0,0,0-27Z"/><rect class="c" x="161.34" y="303.67" width="124.06" height="58.08"/><path class="b" d="M285.4,362.6H161.34a.85.85,0,0,1-.85-.85V303.67a.85.85,0,0,1,.85-.85H285.4a.85.85,0,0,1,.85.85v58.08A.85.85,0,0,1,285.4,362.6Zm-123.21-1.7H284.55V304.52H162.19Z"/><path class="a" d="M179.3,362s-3.51,9.58,9,11.5c11.37,1.74,20.25-3.83,17.82-15.52Z"/><path class="b" d="M192.27,374.66a27.18,27.18,0,0,1-4.11-.32c-4.42-.68-7.45-2.36-9-5a9.63,9.63,0,0,1-.65-7.63.85.85,0,0,1,.67-.55l26.81-4a.85.85,0,0,1,1,.67c1.07,5.13.1,9.45-2.79,12.5C201.46,373.15,197.25,374.66,192.27,374.66ZM180,362.76a7.81,7.81,0,0,0,.66,5.72c1.29,2.18,3.92,3.58,7.8,4.18,6.19.94,11.47-.34,14.5-3.52,2.35-2.47,3.21-6,2.51-10.2Z"/><path class="b" d="M262,199.84a.86.86,0,0,1-.29,0l-15.85-5.69a.85.85,0,0,1-.24-1.46l10.65-8.55a.85.85,0,0,1,1.33.37l5.2,14.23a.85.85,0,0,1-.8,1.14ZM247.91,193l12.72,4.56-4.17-11.41Z"/><path class="c" d="M232.6,144.57c1,0,11.19,4.39,15.19,11.27,5.11,8.78,12.48,32.56,12.48,32.56L238,195.94l-2.87-5.54-4.72-42.63S232.32,144.56,232.6,144.57Z"/><path class="b" d="M238,196.79a.85.85,0,0,1-.75-.46l-2.87-5.54a.85.85,0,0,1-.09-.3l-4.72-42.63a.85.85,0,0,1,.12-.53c2.2-3.65,2.47-3.63,3-3.62h0c1.41.05,11.76,4.58,15.9,11.69,5.1,8.77,12.26,31.76,12.56,32.73a.85.85,0,0,1-.54,1.06l-22.31,7.55A.85.85,0,0,1,238,196.79Zm-2-6.64,2.46,4.75,20.83-7c-1.33-4.19-7.67-23.89-12.16-31.59-3.54-6.09-12.19-10.12-14.19-10.76-.36.48-1,1.52-1.61,2.47Zm-2.86-44.9Z"/><path class="c" d="M219.4,141.93a35,35,0,0,1,16.75,4.34s10,40.61-.78,74.39c-2.42,7.56,2,31.35,2,31.35l-69.91-.84s8.28-57.51,5.16-66.8-11.49-26.74-7.09-34.31c3.34-5.75,23.61-8.89,25-9.07C197.05,140.19,213.47,141.92,219.4,141.93Z"/><path class="b" d="M237.38,252.86h0L167.45,252a.85.85,0,0,1-.83-1c.08-.57,8.22-57.41,5.2-66.41-.59-1.77-1.4-3.88-2.24-6.11-3.8-10-8.53-22.44-4.77-28.9s25.42-9.45,25.63-9.48c4.27-.53,12.43,0,19.63.46,3.89.25,7.26.47,9.34.47h0a35.65,35.65,0,0,1,17.16,4.44.85.85,0,0,1,.41.54c.1.41,10,41.23-.79,74.86-2.33,7.27,2,30.7,2,30.94a.85.85,0,0,1-.84,1Zm-68.94-2.53,67.92.81c-.83-4.7-4-23.89-1.79-30.75,10.08-31.5,1.79-69.47.85-73.57a33.93,33.93,0,0,0-16-4.05c-2.14,0-5.52-.22-9.45-.47-6.77-.43-15.19-1-19.31-.46-3.43.43-21.46,3.64-24.37,8.65-3.35,5.77,1.41,18.29,4.89,27.44.85,2.25,1.66,4.37,2.27,6.17C176.39,192.92,169.55,242.52,168.44,250.34Z"/><path class="a" d="M186.83,369.26c-9.52-1.64-8.37-5.85-7.6-10.75.48-3.07,3.22-6.68,4.86-10.1.85.94,3.8-1.68,7.95,0,4.31,1.75,5.47,2.17,9.23,0,7,10.45,4.65,12,4.53,13.33C205.64,363.38,200.34,371.58,186.83,369.26Z"/><path class="b" d="M191.45,370.53a28.09,28.09,0,0,1-4.76-.43h0c-9.92-1.71-9.15-6.46-8.4-11.06l.11-.65c.34-2.18,1.72-4.57,3.05-6.88.66-1.14,1.34-2.32,1.88-3.45a.85.85,0,0,1,.64-.47.87.87,0,0,1,.68.2,4.29,4.29,0,0,0,1.13-.24,9.55,9.55,0,0,1,6.58.1c4.16,1.69,5,2,8.49.05a.85.85,0,0,1,1.13.26c6.21,9.25,5.32,11.87,4.79,13.44a2.47,2.47,0,0,0-.13.44c-.11,1.16-1.5,3.37-3.87,5.18A18.17,18.17,0,0,1,191.45,370.53Zm-6.94-21.06c-.49,1-1.05,1.94-1.6,2.88-1.25,2.17-2.55,4.42-2.84,6.3l-.11.66c-.75,4.63-1.25,7.7,7,9.12h0c7.52,1.29,12.18-.79,14.76-2.77a8.63,8.63,0,0,0,3.21-4,3.58,3.58,0,0,1,.21-.83c.36-1.08,1.11-3.29-4.16-11.3-3.66,1.95-5.19,1.32-9.28-.34a8,8,0,0,0-5.49,0A5.8,5.8,0,0,1,184.51,349.47Zm.2-1.63h0Z"/><path class="a" d="M168.67,147.65c6.54-2.23,9.73,51.3,10.62,73.33,11.58,1,31.75,0,36.78-.34,2.36-.16,7.81-2,10.16-2.25a25.87,25.87,0,0,1,5.77-.25c.43.07,12.5,4.55,13.53,5.54,1.28,1.22,4.74,4.3,4.16,5.63s-6.66-3.71-6.66-3.71l-3-1.51c3.69,3.28,10.74,7.6,9.72,9.17s-7.35-2.85-11.87-5.84c3.88,3.19,8.71,8.9,7.6,9.79s-6.49-5.81-12.36-7.71c-2.17-.71-4.34,1.25-6.05,1.48a13.5,13.5,0,0,1-4.43.22l-6.35-1.64c-2.16.18-2.22,1.34-4.4,1.76-2.54.49-6.7,1-9.93,1.73-18.61,4.13-24.81,6.05-30.51,6C154.22,239.1,153.22,152.92,168.67,147.65Z"/><path class="b" d="M171.49,240h0c-7.29,0-10.9-12.59-12.65-23.15-4.11-24.84-1.85-66.07,9.57-70h0a2.08,2.08,0,0,1,1.91.29c6.47,4.43,9.11,56.05,9.8,73.06,11.66.91,31.2-.08,35.9-.4a38.1,38.1,0,0,0,5.38-1.18,42.75,42.75,0,0,1,4.74-1.08,25.29,25.29,0,0,1,6-.24c.1,0,12.67,4.51,14,5.76l.37.35c2.51,2.36,4.7,4.6,4,6.24a1.2,1.2,0,0,1-.84.69,1.32,1.32,0,0,1-.42,0c1.32,1.3,1.92,2.4,1.3,3.35a1.52,1.52,0,0,1-1,.66c-1.14.24-3-.55-5.49-2,1.44,1.75,2.51,3.43,2.51,4.47a1.32,1.32,0,0,1-.48,1.05c-1,.77-2.15-.19-4.5-2.1s-5.45-4.42-8.65-5.46c-1.07-.35-2.27.2-3.42.73a8.4,8.4,0,0,1-2.25.79l-.55.08a11.68,11.68,0,0,1-4.21.13l-6.21-1.6a3.41,3.41,0,0,0-1.74.7,6.12,6.12,0,0,1-2.43,1c-1,.2-2.29.4-3.67.61-2,.32-4.32.68-6.24,1.11-5,1.1-9.05,2-12.48,2.84C180.13,238.95,175.76,240,171.49,240Zm-2.43-91.52-.12,0h0c-9.43,3.22-12.81,41.7-8.44,68.08,2.28,13.8,6.28,21.72,11,21.72h0c4.07,0,8.38-1,17.81-3.18,3.43-.79,7.52-1.74,12.5-2.85,2-.44,4.29-.8,6.34-1.13,1.35-.21,2.61-.41,3.61-.6a4.41,4.41,0,0,0,1.82-.79,5.08,5.08,0,0,1,2.68-1,.87.87,0,0,1,.28,0l6.35,1.64a10.89,10.89,0,0,0,3.53-.16l.57-.08a7.33,7.33,0,0,0,1.78-.65c1.31-.6,3-1.35,4.65-.8,3.5,1.14,6.79,3.81,9.19,5.76.61.5,1.31,1.06,1.86,1.47a35.51,35.51,0,0,0-7.1-7.83.85.85,0,0,1,1-1.37l1,.68c2.67,1.77,8.08,5.35,9.58,5.35h0c-.43-1-3.51-3.32-5.4-4.76-1.44-1.1-2.93-2.23-4.09-3.26a.85.85,0,0,1,1-1.39l3,1.51.16.1a28.27,28.27,0,0,0,5.23,3.6c-.28-.59-1.17-1.73-3.48-3.9l-.38-.36c-1-.82-12.13-5.06-13.13-5.32a23.93,23.93,0,0,0-5.49.26,43,43,0,0,0-4.51,1,38.52,38.52,0,0,1-5.7,1.23c-4.83.33-25.25,1.35-36.91.33a.85.85,0,0,1-.77-.81c-1.36-33.9-4.69-69.46-9.1-72.48A.49.49,0,0,0,169.06,148.44Zm-.39-.78h0Z"/><path class="c" d="M156.24,198c-1.17-20.54,1.52-46.5,12.29-50.17,5.22-1.78,14.49,8.54,12.82,50.58C174.27,198.92,163.85,199.33,156.24,198Z"/><path class="b" d="M169,199.75a76.61,76.61,0,0,1-12.9-.92.85.85,0,0,1-.7-.79c-1-17,.65-46.86,12.87-51a5.13,5.13,0,0,1,4.77,1c3.26,2.44,10.69,12.22,9.18,50.43a.85.85,0,0,1-.79.81Q174.6,199.75,169,199.75Zm-11.95-2.48c5.64.89,13.72,1,23.48.35,1.39-37.8-6.17-46.47-8.53-48.24a3.45,3.45,0,0,0-3.2-.75C159.12,151.94,155.94,176,157.06,197.27Z"/><path class="a" d="M289.29,364.37a32.38,32.38,0,0,0-3.87-2.62c-3.75-2-13.89-5-15.05-5.27a12,12,0,0,1-2.83-2.06,7.46,7.46,0,0,1-1.68-8.27l-16.53,2.68s-1.74,6.52-2,8.74h0c-.24.05-.74,12.75-.74,12.75l41.6,1.26C291.61,371.51,293.07,367.28,289.29,364.37Z"/><path class="b" d="M288.16,372.43l-41.64-1.26a.85.85,0,0,1-.82-.88c.33-8.39.48-11.51.74-12.71h0a.9.9,0,0,1,0-.21c.29-2.16,2-8.48,2-8.75a.85.85,0,0,1,.69-.62l16.53-2.68a.85.85,0,0,1,.89,1.22,6.59,6.59,0,0,0,1.54,7.31,10.91,10.91,0,0,0,2.52,1.84c1.61.41,11.39,3.37,15.13,5.31a32.72,32.72,0,0,1,4,2.71h0c2.52,1.94,2.87,4.32,2.35,5.9A4.14,4.14,0,0,1,288.16,372.43Zm-40.73-2.94,40.74,1.24a2.47,2.47,0,0,0,2.38-1.67c.34-1,0-2.62-1.77-4h0A32.05,32.05,0,0,0,285,362.5c-3.66-1.91-13.82-5-14.85-5.2a.83.83,0,0,1-.23-.09,12.63,12.63,0,0,1-3-2.22,8.38,8.38,0,0,1-2.3-7.79L250,349.58c-.42,1.59-1.63,6.3-1.88,8.09a.87.87,0,0,1-.06.23C247.91,358.83,247.61,365.13,247.43,369.5Z"/><path class="d" d="M285.11,240a18.12,18.12,0,0,0-11.65-.82c-18.11-1.93-46-.52-46-.52s-43.11-1.88-57.49-.48a12,12,0,0,0-2.82,0s-10.2,1.11-11.59,14.29,25.84,99.34,25.84,99.34l22.15-2.5s-7.07-50.61-10.27-72.68c25.63-2.09,45.51.13,60.83-3.46a65,65,0,0,0-2.31,15c-.88,12.64-4.47,64.91-4.47,64.91l19.75-.12c.86-9.08,25.59-75.1,29.35-86.33S297,244.43,285.11,240Z"/><path class="b" d="M247.36,353.92a.85.85,0,0,1-.85-.91s3.59-52.28,4.47-64.91a65.55,65.55,0,0,1,2-13.84c-8.68,1.82-18.77,1.94-30.35,2.08-8.44.1-18,.22-28.35,1,3.22,22.27,10.07,71.29,10.14,71.79a.85.85,0,0,1-.75,1l-22.15,2.5a.85.85,0,0,1-.91-.59c-1.11-3.52-27.28-86.48-25.88-99.69,1.45-13.7,12.24-15,12.35-15a12.74,12.74,0,0,1,2.92,0c14.35-1.37,57.09.46,57.52.48.2,0,27.88-1.38,45.86.51a19.13,19.13,0,0,1,12,.89h0c11.41,4.27,16.06,15.16,11.85,27.73-1,2.95-3.4,9.63-6.46,18.09-8.31,23-22.22,61.45-22.85,68a.85.85,0,0,1-.84.77l-19.75.12Zm6.78-81.64a.85.85,0,0,1,.82,1.06,63.7,63.7,0,0,0-2.28,14.77c-.82,11.74-3.93,57.08-4.41,64.09l18.09-.11c1.42-8.46,14.25-44,22.84-67.7,3.06-8.45,5.47-15.13,6.45-18.06,3.95-11.8-.2-21.61-10.84-25.6a17.42,17.42,0,0,0-11.11-.8.82.82,0,0,1-.33,0c-17.84-1.9-45.56-.53-45.84-.52-.51,0-43.29-1.86-57.45-.48h-.17a11.52,11.52,0,0,0-2.61,0c-.42,0-9.58,1.24-10.88,13.54s23.06,90.26,25.6,98.33l20.59-2.32c-.95-6.79-7.22-51.57-10.15-71.81a.85.85,0,0,1,.77-1c10.78-.88,20.66-1,29.37-1.1,12.09-.15,22.54-.27,31.34-2.34Z"/><path class="a" d="M206.07,151.12c-7.79.7-14.46-7.7-16-9.44,1.14-4.06,1.54-9.8,1.68-15.1a18.17,18.17,0,0,0,5.41,6.18,24.37,24.37,0,0,0,14.26,4.59,22.82,22.82,0,0,0,4-.35c.69,4,2.77,4.63,3.3,5.6C215.64,147.6,210.21,150.76,206.07,151.12Z"/><path class="a" d="M215.84,135.18a22.55,22.55,0,0,1-17.72-3.78c-3.76-2.77-6-6.48-6.34-10.44a.81.81,0,0,0,0-.13.84.84,0,0,0,0-.16.81.81,0,0,0-.08-.12.84.84,0,0,0-.11-.14l-.11-.08a.83.83,0,0,0-.16-.09l-.15,0a.8.8,0,0,0-.15,0h-.07a7.06,7.06,0,0,1-5.21-2.38,6.93,6.93,0,0,1-1-6.47,3.08,3.08,0,0,1,2.94-1.89,4.84,4.84,0,0,1,3,1.82s4.17,1,4.81-3.06-.34-4.11-.34-4.11,3.07-5,1.25-8.84l-1.82-3.83s5.55-.14,8.39-3.91c0,0,3.67,2.11,5.08-1.11,0,0,2.54,3.3,5.65,2,0,0,3.35,6.24,8.48,3,0,0,2.64,1.63,4.57.87,0,2.48.23,12.9,1,18.7C228.4,116.47,227.78,132.57,215.84,135.18Z"/><path class="b" d="M188.6,116.57a2.09,2.09,0,0,1-1.48-2.22,1.52,1.52,0,0,1,.51-1.07,1.66,1.66,0,0,1,1.1-.28.69.69,0,0,0,.19-1.36,3.08,3.08,0,0,0-2.12.55,2.83,2.83,0,0,0-1,2,3.46,3.46,0,0,0,2.43,3.69l.11,0a.69.69,0,0,0,.3-1.34Z"/><path class="b" d="M232.24,83.93c-1.83-6.76-5.47-7-5.47-7s-1.7-3.53-7.37-4-9.48-3.12-11.58-1-6.54-1-10.83,3.57-7.2,3.8-8.29,6.86-5.2,2.66-5.08,8.27c.06,2.63.31,3.4.56,3.48-.92,1.23-2.58,3.94-1.89,6.92.65,2.79,1.28,6.32,1.61,8.26a4.92,4.92,0,0,0-.79,1.27,8.51,8.51,0,0,0,1.31,8.32,9.78,9.78,0,0,0,1.23,1.08,1.5,1.5,0,0,0,.46,2.1c1.55,1.21.29,4.43,3.88,4.77-.16,5.41-.58,11.11-1.73,14.71a.85.85,0,0,0,.16.81c.35.41,8.38,9.77,17.52,9.77q.58,0,1.16-.05c4.84-.43,9-3.57,12.33-9.35a.85.85,0,0,0,0-.89s-1.59-.48-2.42-5.29c12.49-3.39,13.19-19.7,12.38-25.83-.85-6.38-1-18.9-1-19a.83.83,0,0,0-.36-.67,4.15,4.15,0,0,0,.37-.87S234.07,90.69,232.24,83.93ZM207,150.48c-7.79.7-15.35-7.06-16.93-8.79,1.14-4.06,1.54-9.8,1.68-15.1a18.17,18.17,0,0,0,5.41,6.18,24.37,24.37,0,0,0,14.26,4.59,22.82,22.82,0,0,0,4-.35c.69,4,1.84,4.42,2.37,5.39C214.71,147.39,211.09,150.11,207,150.48Zm8.89-15.3a22.55,22.55,0,0,1-17.72-3.78c-3.76-2.77-6-6.48-6.34-10.44a.81.81,0,0,0,0-.13.84.84,0,0,0,0-.16.81.81,0,0,0-.08-.12.84.84,0,0,0-.11-.14l-.11-.08a.83.83,0,0,0-.16-.09l-.15,0a.8.8,0,0,0-.15,0h-.07a7.06,7.06,0,0,1-5.21-2.38,6.93,6.93,0,0,1-1-6.47,3.08,3.08,0,0,1,2.94-1.89,4.84,4.84,0,0,1,3,1.82s4.17,1,4.81-3.06-.34-4.11-.34-4.11,3.07-5,1.25-8.84l-1.82-3.83s5.55-.14,8.39-3.91c0,0,3.67,2.11,5.08-1.11,0,0,2.54,3.3,5.65,2,0,0,3.35,6.24,8.48,3,0,0,2.64,1.63,4.57.87,0,2.48.23,12.9,1,18.7C228.4,116.47,227.78,132.57,215.84,135.18Z"/><line class="f" x1="193.31" y1="278.28" x2="189.33" y2="256.82"/><path class="b" d="M193.31,279.13a.85.85,0,0,1-.84-.7l-4-21.47a.85.85,0,1,1,1.67-.31l4,21.47a.85.85,0,0,1-.68,1Z"/><path class="b" d="M251.82,287h-.09a.85.85,0,0,1-.76-.93A99.31,99.31,0,0,1,253,274.31a26.19,26.19,0,0,1-5.45.86.85.85,0,1,1-.1-1.7,23.68,23.68,0,0,0,6-1.08c1.23-4.5,3-9,5.31-11.41,1.78-1.85,3.11-1.55,3.74-1.21,1.26.68,1.76,2.56,1.26,4.8-.73,3.28-3.48,7.06-8.9,9.12a100.42,100.42,0,0,0-2.29,12.56A.85.85,0,0,1,251.82,287Zm9.76-25.8a2.61,2.61,0,0,0-1.51.94c-1.93,2-3.42,5.62-4.54,9.45,4-1.88,6.09-4.82,6.66-7.41.37-1.68,0-2.73-.4-2.94A.44.44,0,0,0,261.58,261.21Z"/><path class="b" d="M186.73,361.6a.85.85,0,0,1-.47-1.56l4.3-2.88-4.17-1.83a.85.85,0,0,1-.08-1.52c.1-.06,1.09-.62,2.52-1.36-.91-.19-1.7-.35-2.24-.44a.85.85,0,1,1,.29-1.67c.16,0,2.11.38,4.34.91a44.43,44.43,0,0,1,5.57-2.31.85.85,0,1,1,.51,1.62,34.36,34.36,0,0,0-3.51,1.37,16.22,16.22,0,0,1,3.44,1.35.85.85,0,0,1,0,1.43l-3.19,2.14,4.82,2.12a.85.85,0,0,1-.27,1.63l-11.81,1ZM192.4,358l-2.46,1.65,5.21-.44Zm-3.75-3.51,3.58,1.57,2.84-1.9a34.4,34.4,0,0,0-3.65-1.09C190.35,353.57,189.39,354.07,188.65,354.47Z"/><path class="b" d="M273.17,362.6a.85.85,0,0,1-.84-.74l-.45-3.32c-3.19-.47-8.13.68-8.19.7a.85.85,0,0,1-1-1.15l2.17-5.34a.85.85,0,0,1,1.58.64l-1.57,3.87c2-.36,5.52-.83,8-.27a.85.85,0,0,1,.65.71l.38,2.84c1.61-.63,4.72-1.73,6.75-1.65a.85.85,0,1,1-.06,1.7c-2-.1-5.76,1.38-7,1.94A.86.86,0,0,1,273.17,362.6Z"/><path class="a" d="M302.47,188.21h-66a4.33,4.33,0,0,0-4,2.44l-20.32,45.21H187.76a1.77,1.77,0,0,0-1.84,1.68h0a1.77,1.77,0,0,0,1.84,1.68h91.57a7.29,7.29,0,0,0,6.6-3.89l20.47-41.57C307.67,191.15,305.59,188.21,302.47,188.21Z"/><path class="b" d="M279.33,240.06H187.76a2.53,2.53,0,1,1,0-5.06H211.6l20.1-44.7a5.16,5.16,0,0,1,4.76-2.94h66a5.19,5.19,0,0,1,4.47,2.39,4.42,4.42,0,0,1,.22,4.37l-20.47,41.57A8.16,8.16,0,0,1,279.33,240.06Zm-91.57-3.36a.84.84,0,1,0,0,1.66h91.57a6.45,6.45,0,0,0,5.83-3.42l20.47-41.57a2.75,2.75,0,0,0-.14-2.72,3.5,3.5,0,0,0-3-1.59h-66a3.46,3.46,0,0,0-3.21,1.93L212.93,236.2a.85.85,0,0,1-.78.5Z"/><polygon class="b" points="237.51 188.21 236 188.21 213.23 239.05 214.8 238.83 237.51 188.21"/><path class="b" d="M214.75,119.52a5.86,5.86,0,0,1-1.58-.21.75.75,0,1,1,.44-1.43c.09,0,2.31.67,3.31-.9.86-1.35,0-2.56-1.8-4.32a12.42,12.42,0,0,1-2.45-4.49.75.75,0,0,1,1.43-.44,11.13,11.13,0,0,0,2.06,3.84c1.3,1.24,3.71,3.56,2,6.21A3.88,3.88,0,0,1,214.75,119.52Z"/><ellipse class="b" cx="202.83" cy="109.65" rx="2.26" ry="2.92"/><ellipse class="b" cx="221.64" cy="109.07" rx="2.26" ry="2.92"/><path class="b" d="M209.54,126.28a4.81,4.81,0,0,1-3.69-1.76.75.75,0,0,1,1.12-1,3.61,3.61,0,0,0,5,.47.75.75,0,0,1,.89,1.21A5.76,5.76,0,0,1,209.54,126.28Z"/><path class="b" d="M223.12,101.33a.75.75,0,0,1-.5-.19,2.36,2.36,0,0,0-1.41-.5h0a1.76,1.76,0,0,0-1.25.45.75.75,0,0,1-1.05,0,.74.74,0,0,1-.07-1,3.19,3.19,0,0,1,2.37-1h0a3.78,3.78,0,0,1,2.41.89.75.75,0,0,1-.51,1.3Z"/><path class="b" d="M201,101.33a.75.75,0,0,1-.56-1.24,3.34,3.34,0,0,1,2.4-1,3.78,3.78,0,0,1,2.41.89.75.75,0,0,1-1,1.11,2.36,2.36,0,0,0-1.41-.5,1.79,1.79,0,0,0-1.26.44A.75.75,0,0,1,201,101.33Z"/><path class="b" d="M211.22,253a.85.85,0,0,1-.77-.48h0c0-.1-5-10-22.16-13a.85.85,0,0,1,.29-1.67c18,3.13,23.2,13.49,23.41,13.93a.85.85,0,0,1-.77,1.22Z"/><path class="b" d="M237.27,245.83a.85.85,0,0,1-.42-1.59c6.83-3.9,15.31-5.88,25.2-5.88a.85.85,0,1,1,0,1.7c-9.59,0-17.79,1.9-24.36,5.66A.85.85,0,0,1,237.27,245.83Z"/><path class="b" d="M206.05,156.85c-14.83,0-22.88-13.56-23.22-14.14a.85.85,0,0,1,1.47-.85c.08.13,7.91,13.3,21.75,13.3h0a16.21,16.21,0,0,0,12.46-5.88c2.73-3.16,3.69-6.25,3.66-6.91a.85.85,0,0,1,1.47-.84c.76,1.08-.65,4-1.1,4.84-1.28,2.46-6.26,10.48-16.49,10.49Zm16.21-14.36h0Z"/><path class="b" d="M258,216.38a15.8,15.8,0,0,1,1-3.79l-1.65.79.25-.73,1.7-.79c.27-.64.74-1.72,1-2.31,0,0,.07-.15,0-.2s-.11-.05-.34.09a9.41,9.41,0,0,0-2.26,1.93,10.33,10.33,0,0,0-1.26,2c-.07.16-.12.33-.19.49-.85,2.19-.43,4.21,1,5.25a5.79,5.79,0,0,0,2,.68C258.2,219.55,257.73,218.18,258,216.38Z"/><path class="b" d="M263.25,208.33a8.33,8.33,0,0,0-1.18.19h0a1.23,1.23,0,0,0-.77.73c-.29.65-.74,1.7-.87,2.15l2.07-.93-.24.88s-2,.76-2.06.86a11,11,0,0,0-.66,2,7.36,7.36,0,0,0-.29,4.16,1.35,1.35,0,0,0,.63.73h0l.06,0,.11,0h.05c1,.17,2.68-1.41,3.72-3.52q.18-.36.31-.71s0,0,.05,0,0,0,0,0l-.08.25c-.81,2.42-2.61,4.4-4.13,4.66h0a5.89,5.89,0,0,0,1.08-.13,9,9,0,0,0,6-5.49C268.32,210.3,266.16,208.17,263.25,208.33Z"/><path class="b" d="M263.91,207.34c-3.5,0-7.35,3-8.6,6.72s.56,6.74,4.06,6.75,7.35-3,8.6-6.72S267.4,207.35,263.91,207.34Zm-4.4,13c-3.27,0-5-2.84-3.8-6.32s4.78-6.3,8.05-6.29,5,2.84,3.8,6.32S262.78,220.39,259.51,220.38Z"/><path class="b" d="M339,152.53l-15.67-3.22a3.34,3.34,0,0,0-3.94,2.6l-7.24,35.26a3.34,3.34,0,0,0,2.6,3.94l15.67,3.22a3.34,3.34,0,0,0,3.94-2.6l7.24-35.26a3.34,3.34,0,0,0-2.6-3.94Zm-5.95,38.93a2,2,0,0,1-2.36,1.56L315,189.8a2,2,0,0,1-1.56-2.36l.8-3.92,19.59,4Zm1.07-5.22-19.59-4,5.36-26.12,19.59,4Zm5.63-27.43-19.59-4,.54-2.61a2,2,0,0,1,2.36-1.56l15.67,3.22a2,2,0,0,1,1.56,2.36Zm0,0"/><path class="b" d="M324,186.19a2,2,0,1,0,1.56,2.36,2,2,0,0,0-1.56-2.36Zm-.54,2.61a.67.67,0,1,1,.79-.52.67.67,0,0,1-.79.52Zm0,0"/><path class="b" d="M333.14,154.72l-5.22-1.07a.67.67,0,0,0-.27,1.31l5.22,1.07a.67.67,0,0,0,.27-1.31Zm0,0"/><path class="b" d="M332.73,183.22l-.65-.13a.67.67,0,1,0-.27,1.31l.65.13a.67.67,0,1,0,.27-1.31Zm0,0"/><path class="b" d="M330.12,182.69l-.65-.13a.67.67,0,1,0-.27,1.31l.65.13a.67.67,0,1,0,.27-1.31Zm0,0"/><path class="b" d="M327.51,182.15l-.65-.13a.67.67,0,0,0-.27,1.31l.65.13a.67.67,0,0,0,.27-1.31Zm0,0"/><path class="d" d="M333.08,191.46a2,2,0,0,1-2.36,1.56L315,189.8a2,2,0,0,1-1.56-2.36l.8-3.92,19.59,4Z"/><rect class="a" x="313.71" y="161.17" width="26.67" height="20" transform="translate(93.63 457.12) rotate(-78.4)"/><path class="d" d="M339.78,158.81l-19.59-4,.54-2.61a2,2,0,0,1,2.36-1.56l15.67,3.22a2,2,0,0,1,1.56,2.36Z"/><path class="b" d="M339.78,158.81"/><path class="b" d="M324,186.19a2,2,0,1,0,1.56,2.36,2,2,0,0,0-1.56-2.36Zm-.54,2.61a.67.67,0,1,1,.79-.52.67.67,0,0,1-.79.52Zm0,0"/><path class="b" d="M333.14,154.72l-5.22-1.07a.67.67,0,0,0-.27,1.31l5.22,1.07a.67.67,0,0,0,.27-1.31Zm0,0"/><path class="b" d="M332.73,183.22l-.65-.13a.67.67,0,1,0-.27,1.31l.65.13a.67.67,0,1,0,.27-1.31Zm0,0"/><path class="b" d="M330.12,182.69l-.65-.13a.67.67,0,1,0-.27,1.31l.65.13a.67.67,0,1,0,.27-1.31Zm0,0"/><path class="b" d="M327.51,182.15l-.65-.13a.67.67,0,0,0-.27,1.31l.65.13a.67.67,0,0,0,.27-1.31Zm0,0"/></svg>