<svg width="76" height="63" viewBox="0 0 76 63" fill="none" xmlns="http://www.w3.org/2000/svg">
<path d="M16.9273 62.6567C11.7455 62.6567 7.6 60.7684 4.49091 56.9918C1.49697 53.1008 0 48.5232 0 43.2589C0 38.9101 0.806061 34.8474 2.41818 31.0708C4.0303 27.2943 6.04545 23.861 8.46364 20.7711C10.997 17.6812 13.6455 14.9918 16.4091 12.703C19.2879 10.2997 21.9364 8.297 24.3545 6.69482C26.7727 4.9782 28.7303 3.71935 30.2273 2.91826C31.8394 2.11717 32.5879 1.71662 32.4727 1.71662L36.4455 7.03815C35.4091 7.49591 34.0273 8.41144 32.3 9.78474C30.5727 11.0436 28.8455 12.5886 27.1182 14.4196C25.5061 16.2507 24.0667 18.2534 22.8 20.4278C21.5333 22.4877 20.9 24.4905 20.9 26.436C20.9 27.5804 21.5909 28.7248 22.9727 29.8692C24.3545 30.8992 25.8515 32.158 27.4636 33.6458C29.0758 35.0191 30.5727 36.7357 31.9545 38.7956C33.3364 40.7411 34.0273 43.1444 34.0273 46.0054C34.0273 48.5232 33.5091 50.812 32.4727 52.8719C31.5515 54.9319 30.2848 56.7057 28.6727 58.1935C27.1758 59.5668 25.3909 60.654 23.3182 61.455C21.2455 62.2561 19.1152 62.6567 16.9273 62.6567ZM59.4182 63C56.7697 63 54.3515 62.4278 52.1636 61.2834C49.9758 60.139 48.0758 58.594 46.4636 56.6485C44.8515 54.703 43.5848 52.4714 42.6636 49.9537C41.8576 47.3215 41.4545 44.5177 41.4545 41.5422C41.4545 35.5913 42.7212 30.0981 45.2545 25.0627C47.903 19.9128 50.7818 15.5068 53.8909 11.8447C57.5758 7.49591 61.7788 3.54768 66.5 0L71.5091 4.63488C70.4727 5.32153 69.2061 6.40872 67.7091 7.89646C66.3273 9.3842 65.003 11.158 63.7364 13.218C62.5848 15.1635 61.5485 17.2234 60.6273 19.3978C59.8212 21.5722 59.4182 23.6894 59.4182 25.7493C59.4182 27.1226 60.2818 28.267 62.0091 29.1826C63.7364 30.0981 65.6364 31.2425 67.7091 32.6158C69.7818 33.9891 71.6818 35.7629 73.4091 37.9373C75.1364 39.9973 76 42.9155 76 46.6921C76 48.9809 75.5394 51.0981 74.6182 53.0436C73.697 54.9891 72.4303 56.7057 70.8182 58.1935C69.3212 59.6812 67.5364 60.8828 65.4636 61.7984C63.5061 62.5995 61.4909 63 59.4182 63Z" fill="#e5effd"/>
</svg>
