<svg width="304" height="304" viewBox="0 0 304 304" fill="none" xmlns="http://www.w3.org/2000/svg">
<path d="M0 0H304V304H0V0Z" fill="#EEEEEE"/>
<path d="M150.5 149C161.628 149 171.262 145.009 179.136 137.134C187.008 129.261 191 119.628 191 108.499C191 97.3734 187.009 87.7388 179.135 79.863C171.261 71.9911 161.626 68 150.5 68C139.371 68 129.738 71.9911 121.865 79.8643C113.992 87.7375 110 97.3721 110 108.499C110 119.628 113.992 129.263 121.865 137.136C129.741 145.008 139.375 149 150.5 149ZM128.834 86.8317C134.875 80.7906 141.961 77.854 150.5 77.854C159.037 77.854 166.125 80.7906 172.168 86.8317C178.209 92.8742 181.146 99.9623 181.146 108.499C181.146 117.038 178.209 124.124 172.168 130.167C166.125 136.209 159.037 139.146 150.5 139.146C141.964 139.146 134.877 136.208 128.834 130.167C122.791 124.126 119.854 117.038 119.854 108.499C119.854 99.9623 122.791 92.8742 128.834 86.8317Z" fill="#DCDCDC"/>
<path d="M221.658 197.116C221.43 193.837 220.968 190.26 220.289 186.483C219.603 182.677 218.72 179.079 217.662 175.791C216.569 172.393 215.085 169.036 213.248 165.82C211.343 162.482 209.105 159.575 206.593 157.183C203.967 154.68 200.751 152.668 197.032 151.201C193.327 149.741 189.22 149.001 184.827 149.001C183.102 149.001 181.433 149.706 178.211 151.795C176.228 153.083 173.908 154.572 171.319 156.22C169.105 157.624 166.106 158.94 162.402 160.132C158.788 161.297 155.118 161.887 151.495 161.887C147.874 161.887 144.205 161.297 140.588 160.132C136.887 158.942 133.887 157.626 131.677 156.221C129.112 154.589 126.791 153.1 124.779 151.794C121.559 149.705 119.891 149 118.165 149C113.771 149 109.666 149.741 105.961 151.202C102.245 152.667 99.0283 154.679 96.3992 157.184C93.8875 159.577 91.6491 162.483 89.7459 165.82C87.9111 169.036 86.4258 172.391 85.3324 175.792C84.2763 179.081 83.3931 182.677 82.7072 186.483C82.0264 190.255 81.566 193.833 81.3378 197.12C81.1135 200.334 81 203.679 81 207.058C81 215.843 83.8044 222.955 89.3346 228.2C94.7965 233.376 102.022 236 110.812 236H192.188C200.975 236 208.201 233.376 213.664 228.2C219.196 222.959 222 215.844 222 207.057C221.999 203.666 221.884 200.321 221.658 197.116ZM206.835 221.055C203.226 224.475 198.435 226.138 192.187 226.138H110.812C104.562 226.138 99.7709 224.475 96.1632 221.056C92.6239 217.701 90.9038 213.121 90.9038 207.058C90.9038 203.905 91.0082 200.791 91.2171 197.802C91.4209 194.87 91.8373 191.648 92.4549 188.225C93.0648 184.844 93.841 181.672 94.7642 178.799C95.6501 176.045 96.8582 173.318 98.3565 170.691C99.7864 168.188 101.432 166.039 103.247 164.309C104.945 162.69 107.086 161.365 109.608 160.371C111.94 159.451 114.562 158.948 117.407 158.872C117.754 159.056 118.372 159.407 119.372 160.056C121.408 161.377 123.755 162.885 126.349 164.535C129.273 166.391 133.041 168.068 137.542 169.515C142.144 170.997 146.838 171.749 151.496 171.749C156.155 171.749 160.849 170.997 165.449 169.516C169.954 168.067 173.72 166.391 176.648 164.532C179.303 162.842 181.584 161.379 183.62 160.056C184.621 159.408 185.238 159.056 185.585 158.872C188.432 158.948 191.053 159.451 193.387 160.371C195.908 161.365 198.048 162.691 199.746 164.309C201.562 166.038 203.207 168.186 204.637 170.693C206.137 173.318 207.346 176.047 208.231 178.798C209.155 181.674 209.933 184.846 210.541 188.224C211.158 191.653 211.575 194.876 211.779 197.803V197.806C211.989 200.783 212.095 203.896 212.096 207.058C212.095 213.122 210.375 217.701 206.835 221.055Z" fill="#DCDCDC"/>
</svg>
